<svg data-name="그룹 2330" xmlns="http://www.w3.org/2000/svg" width="375" height="300" viewBox="0 0 375 300">
    <defs>
        <clipPath id="t19ixuu2ja">
            <path data-name="사각형 1677" style="fill:none" d="M0 0h162v170H0z"/>
        </clipPath>
    </defs>
    <path data-name="사각형 2417" style="fill:#56b36b" d="M0 0h375v300H0z"/>
    <g data-name="그룹 2051" style="opacity:.8">
        <path data-name="사각형 1544" transform="translate(200.793 93.71)" style="fill:#73be84" d="M0 0h150.148v.562H0z"/>
        <path data-name="사각형 1545" transform="translate(275.585 19.281)" style="fill:#73be84" d="M0 0h.562v169.438H0z"/>
        <g data-name="그룹 2050">
            <g data-name="그룹 2049" style="clip-path:url(#t19ixuu2ja)" transform="translate(193 19)">
                <path data-name="패스 2670" d="M177.448 170H26.733V74.991A75.175 75.175 0 0 1 102.09 0a75.175 75.175 0 0 1 75.358 74.991zm-150.154-.559h149.593v-94.45A74.615 74.615 0 0 0 102.091.559a74.614 74.614 0 0 0-74.8 74.432z" transform="translate(-19.225)" style="fill:#73be84"/>
                <path data-name="패스 2671" d="M204.559 220.538H88.587v-92.694a57.986 57.986 0 0 1 115.972 0zm-115.41-.559H204v-92.135a57.425 57.425 0 0 0-114.848 0z" transform="translate(-63.707 -50.538)" style="fill:#73be84"/>
                <path data-name="패스 2672" d="M232.524 272.669h-80.132v-90.3a40.067 40.067 0 0 1 80.132 0zm-79.57-.559h79.009v-89.745a39.5 39.5 0 0 0-79.009 0z" transform="translate(-109.592 -102.669)" style="fill:#73be84"/>
                <path data-name="패스 2673" d="M367.727 521.216a1.363 1.363 0 1 1-2.184 1.089 3.409 3.409 0 0 1 2.184-1.089" transform="translate(-262.879 -375.544)" style="fill:#73be84"/>
                <path data-name="패스 2674" d="M261.96 513.777a1.364 1.364 0 1 1 2.185-1.089 3.408 3.408 0 0 1-2.185 1.089" transform="translate(-186.817 -368.615)" style="fill:#73be84"/>
                <path data-name="패스 2675" d="M276.095 518.339a3.415 3.415 0 0 1-2.318.768 3.375 3.375 0 0 1 .771-2.307 3.415 3.415 0 0 1 2.318-.767 3.375 3.375 0 0 1-.771 2.307" transform="translate(-196.884 -371.807)" style="fill:#73be84"/>
                <path data-name="패스 10917" d="m0 0 2.363.006v.28L0 .28z" transform="rotate(-45 215.02 -21.693)" style="fill:#418c48"/>
                <path data-name="패스 2676" d="M275.007 503.875a3.416 3.416 0 0 0-2.318-.768 3.375 3.375 0 0 0 .771 2.307 3.415 3.415 0 0 0 2.318.767 3.376 3.376 0 0 0-.771-2.307" transform="translate(-196.102 -362.495)" style="fill:#73be84"/>
                <path data-name="패스 10918" d="M0 0h.28l.006 2.363h-.28z" transform="rotate(-45.005 211.194 -23.287)" style="fill:#418c48"/>
                <path data-name="패스 2677" d="M289.758 431.667a3.409 3.409 0 0 1-2.184-1.089 2.736 2.736 0 0 1 4.369 0 3.408 3.408 0 0 1-2.184 1.089" transform="translate(-206.808 -309.454)" style="fill:#73be84"/>
                <path data-name="패스 2678" d="M299.777 416.766a3.383 3.383 0 0 1 1.094-2.174 2.707 2.707 0 0 1 0 4.348 3.383 3.383 0 0 1-1.094-2.174" transform="translate(-215.584 -298.72)" style="fill:#73be84"/>
                <path data-name="패스 2679" d="M335.75 402.829a3.383 3.383 0 0 1 1.094-2.174 2.707 2.707 0 0 1 0 4.348 3.384 3.384 0 0 1-1.094-2.174" transform="translate(-241.454 -288.678)" style="fill:#73be84"/>
                <path data-name="패스 2680" d="M328.868 416.962a3.376 3.376 0 0 1-.771-2.307 3.416 3.416 0 0 1 2.318.767 3.375 3.375 0 0 1 .771 2.307 3.416 3.416 0 0 1-2.318-.767" transform="translate(-235.948 -298.764)" style="fill:#73be84"/>
                <path data-name="패스 2681" d="M367.727 431.667a3.408 3.408 0 0 1-2.184-1.089 2.736 2.736 0 0 1 4.369 0 3.409 3.409 0 0 1-2.185 1.089" transform="translate(-262.879 -309.454)" style="fill:#73be84"/>
                <path data-name="패스 2682" d="M427.612 115.359c.848.844 1.2 1.861.791 2.27s-1.433.058-2.281-.787-1.2-1.86-.791-2.27 1.433-.057 2.281.787" transform="translate(-305.752 -82.428)" style="fill:#479e57"/>
                <path data-name="패스 2683" d="M416.838 115.359c.848.844 1.2 1.861.791 2.27s-1.433.058-2.281-.787-1.2-1.86-.791-2.27 1.433-.057 2.281.787" transform="translate(-298.004 -82.428)" style="fill:#479e57"/>
                <path data-name="패스 2684" d="M406.063 115.359c.848.844 1.2 1.861.791 2.27s-1.433.058-2.281-.787-1.2-1.86-.791-2.27 1.433-.057 2.281.787" transform="translate(-290.255 -82.428)" style="fill:#479e57"/>
                <path data-name="패스 2685" d="M395.289 115.359c.848.844 1.2 1.861.791 2.27s-1.433.058-2.281-.787-1.2-1.86-.791-2.27 1.433-.057 2.281.787" transform="translate(-282.507 -82.428)" style="fill:#479e57"/>
                <path data-name="패스 2686" d="M384.514 115.359c.848.844 1.2 1.861.791 2.27s-1.433.058-2.281-.787-1.2-1.86-.791-2.27 1.433-.057 2.281.787" transform="translate(-274.758 -82.428)" style="fill:#479e57"/>
                <path data-name="패스 2687" d="M427.612 127.78c.848-.844 1.2-1.861.791-2.27s-1.433-.058-2.281.787-1.2 1.86-.791 2.27 1.433.057 2.281-.787" transform="translate(-305.752 -90.309)" style="fill:#479e57"/>
                <path data-name="패스 2688" d="M416.838 127.78c.848-.844 1.2-1.861.791-2.27s-1.433-.058-2.281.787-1.2 1.86-.791 2.27 1.433.057 2.281-.787" transform="translate(-298.004 -90.309)" style="fill:#479e57"/>
                <path data-name="패스 2689" d="M406.063 127.78c.848-.844 1.2-1.861.791-2.27s-1.433-.058-2.281.787-1.2 1.86-.791 2.27 1.433.057 2.281-.787" transform="translate(-290.255 -90.309)" style="fill:#479e57"/>
                <path data-name="패스 2690" d="M395.289 127.78c.848-.844 1.2-1.861.791-2.27s-1.433-.058-2.281.787-1.2 1.86-.791 2.27 1.433.057 2.281-.787" transform="translate(-282.507 -90.309)" style="fill:#479e57"/>
                <path data-name="패스 2691" d="M384.514 127.78c.848-.844 1.2-1.861.791-2.27s-1.433-.058-2.281.787-1.2 1.86-.791 2.27 1.433.057 2.281-.787" transform="translate(-274.758 -90.309)" style="fill:#479e57"/>
                <path data-name="사각형 1548" transform="translate(68.598 99.201)" style="fill:#91d09f" d="M0 0h34.971v1.042H0z"/>
                <path data-name="패스 2692" d="M277.246 365.416h-31.02c-.381 0-.7-.139-.745-.323l-1.23-5.009h34.971l-1.231 5.009c-.044.184-.364.323-.745.323" transform="translate(-175.652 -259.447)" style="fill:#91d09f"/>
                <path data-name="패스 2693" d="M254.346 348.366a2.549 2.549 0 0 1-.582-1.741 2.58 2.58 0 0 1 1.75.579 2.55 2.55 0 0 1 .582 1.742 2.579 2.579 0 0 1-1.75-.58" transform="translate(-182.492 -249.747)" style="fill:#418c48"/>
                <path data-name="패스 2694" d="M263.834 348.366a2.549 2.549 0 0 0 .582-1.741 2.58 2.58 0 0 0-1.75.579 2.55 2.55 0 0 0-.582 1.742 2.579 2.579 0 0 0 1.75-.58" transform="translate(-188.476 -249.747)" style="fill:#418c48"/>
                <path data-name="사각형 1549" transform="translate(73.466 95.204)" style="fill:#418c48" d="M0 0h.281v3.995H0z"/>
                <path data-name="패스 2695" d="M258.8 330.259c0-.123-.37-.225-.859-.247.443-.206.745-.442.7-.556s-.426-.066-.883.1c.328-.357.516-.688.429-.775s-.422.1-.783.431c.167-.458.213-.838.1-.885s-.349.253-.554.691c-.022-.483-.124-.849-.247-.849s-.226.369-.248.855c-.207-.441-.444-.742-.558-.7s-.067.424.1.879c-.359-.326-.691-.513-.779-.427s.1.42.433.779c-.46-.166-.842-.212-.889-.1s.254.347.694.552c-.486.022-.853.124-.853.246s.37.225.859.246c-.443.206-.746.442-.7.556s.426.067.883-.1c-.328.358-.516.688-.429.775s.422-.1.783-.431c-.167.458-.213.838-.1.885s.349-.252.554-.691c.022.484.124.849.247.849s.226-.369.248-.855c.208.441.444.742.558.695s.067-.424-.1-.879c.359.326.691.513.778.426s-.1-.42-.433-.779c.46.166.842.212.889.1s-.254-.347-.694-.552c.486-.022.853-.124.853-.246" transform="translate(-183.095 -236.45)" style="fill:#73be84"/>
                <path data-name="패스 2696" d="M261.278 334.842a.434.434 0 0 1-.613 0 .43.43 0 0 1 0-.61.435.435 0 0 1 .613 0 .43.43 0 0 1 0 .61" transform="translate(-187.366 -240.729)" style="fill:#91d09f"/>
                <path data-name="패스 2697" d="M270.983 348.366a2.549 2.549 0 0 1-.582-1.741 2.58 2.58 0 0 1 1.75.579 2.55 2.55 0 0 1 .582 1.742 2.579 2.579 0 0 1-1.75-.58" transform="translate(-194.457 -249.747)" style="fill:#418c48"/>
                <path data-name="패스 2698" d="M280.47 348.366a2.549 2.549 0 0 0 .582-1.741 2.581 2.581 0 0 0-1.751.579 2.55 2.55 0 0 0-.582 1.742 2.58 2.58 0 0 0 1.751-.58" transform="translate(-200.439 -249.747)" style="fill:#418c48"/>
                <path data-name="사각형 1550" transform="translate(78.138 95.204)" style="fill:#418c48" d="M0 0h.281v3.995H0z"/>
                <path data-name="패스 2699" d="M275.439 330.259c0-.123-.37-.225-.859-.247.443-.206.745-.442.7-.556s-.426-.066-.883.1c.328-.357.516-.688.429-.775s-.422.1-.783.431c.167-.458.214-.838.1-.885s-.349.253-.554.691c-.022-.483-.124-.849-.247-.849s-.226.369-.248.855c-.207-.441-.444-.742-.558-.7s-.067.424.1.879c-.359-.326-.691-.513-.779-.427s.1.42.433.779c-.46-.166-.842-.212-.889-.1s.254.347.694.552c-.486.022-.853.124-.853.246s.37.225.859.246c-.443.206-.746.442-.7.556s.426.067.883-.1c-.328.358-.516.688-.429.775s.422-.1.783-.431c-.167.458-.213.838-.1.885s.349-.252.554-.691c.022.484.124.849.247.849s.226-.369.248-.855c.207.441.444.742.558.695s.067-.424-.1-.879c.359.326.691.513.778.426s-.1-.42-.433-.779c.46.166.842.212.889.1s-.254-.347-.694-.552c.486-.022.853-.124.853-.246" transform="translate(-195.059 -236.45)" style="fill:#73be84"/>
                <path data-name="패스 2700" d="M277.914 334.842a.434.434 0 0 1-.613 0 .43.43 0 0 1 0-.61.435.435 0 0 1 .613 0 .43.43 0 0 1 0 .61" transform="translate(-199.329 -240.729)" style="fill:#91d09f"/>
                <path data-name="패스 2701" d="M287.619 348.366a2.549 2.549 0 0 1-.582-1.741 2.58 2.58 0 0 1 1.75.579 2.549 2.549 0 0 1 .582 1.742 2.579 2.579 0 0 1-1.75-.58" transform="translate(-206.421 -249.747)" style="fill:#418c48"/>
                <path data-name="패스 2702" d="M297.107 348.366a2.549 2.549 0 0 0 .582-1.741 2.58 2.58 0 0 0-1.75.579 2.55 2.55 0 0 0-.582 1.742 2.579 2.579 0 0 0 1.75-.58" transform="translate(-212.404 -249.747)" style="fill:#418c48"/>
                <path data-name="사각형 1551" transform="translate(82.811 95.204)" style="fill:#418c48" d="M0 0h.281v3.995H0z"/>
                <path data-name="패스 2703" d="M292.075 330.259c0-.123-.37-.225-.859-.247.443-.206.746-.442.7-.556s-.426-.066-.883.1c.328-.357.516-.688.429-.775s-.422.1-.783.431c.167-.458.213-.838.1-.885s-.349.253-.554.691c-.022-.483-.124-.849-.247-.849s-.226.369-.248.855c-.207-.441-.444-.742-.558-.7s-.067.424.1.879c-.359-.326-.691-.513-.779-.427s.1.42.433.779c-.46-.166-.842-.212-.889-.1s.254.347.694.552c-.486.022-.853.124-.853.246s.37.225.859.246c-.443.206-.746.442-.7.556s.426.067.883-.1c-.328.358-.516.688-.429.775s.422-.1.783-.431c-.167.458-.213.838-.1.885s.349-.252.554-.691c.022.484.124.849.247.849s.226-.369.248-.855c.208.441.444.742.558.695s.067-.424-.1-.879c.359.326.691.513.778.426s-.1-.42-.433-.779c.46.166.842.212.889.1s-.254-.347-.694-.552c.486-.022.853-.124.853-.246" transform="translate(-207.023 -236.45)" style="fill:#73be84"/>
                <path data-name="패스 2704" d="M294.551 334.842a.434.434 0 0 1-.612 0 .43.43 0 0 1 0-.61.435.435 0 0 1 .612 0 .43.43 0 0 1 0 .61" transform="translate(-211.294 -240.729)" style="fill:#91d09f"/>
                <path data-name="패스 2705" d="M304.256 348.366a2.549 2.549 0 0 1-.582-1.741 2.58 2.58 0 0 1 1.75.579 2.55 2.55 0 0 1 .582 1.742 2.579 2.579 0 0 1-1.75-.58" transform="translate(-218.385 -249.747)" style="fill:#418c48"/>
                <path data-name="패스 2706" d="M313.743 348.366a2.549 2.549 0 0 0 .582-1.741 2.58 2.58 0 0 0-1.75.579 2.55 2.55 0 0 0-.582 1.742 2.579 2.579 0 0 0 1.75-.58" transform="translate(-224.368 -249.747)" style="fill:#418c48"/>
                <path data-name="사각형 1552" transform="translate(87.483 95.204)" style="fill:#418c48" d="M0 0h.281v3.995H0z"/>
                <path data-name="패스 2707" d="M308.712 330.259c0-.123-.37-.225-.859-.247.443-.206.745-.442.7-.556s-.426-.066-.883.1c.328-.357.516-.688.429-.775s-.422.1-.783.431c.167-.458.214-.838.1-.885s-.348.253-.554.691c-.022-.483-.124-.849-.247-.849s-.226.369-.248.855c-.207-.441-.444-.742-.558-.7s-.067.424.1.879c-.359-.326-.691-.513-.779-.427s.1.42.433.779c-.46-.166-.842-.212-.889-.1s.254.347.694.552c-.486.022-.853.124-.853.246s.37.225.859.246c-.443.206-.746.442-.7.556s.426.067.883-.1c-.328.358-.516.688-.429.775s.422-.1.783-.431c-.167.458-.213.838-.1.885s.349-.252.554-.691c.022.484.124.849.247.849s.226-.369.248-.855c.208.441.444.742.558.695s.067-.424-.1-.879c.359.326.691.513.778.426s-.1-.42-.433-.779c.46.166.842.212.889.1s-.254-.347-.694-.552c.486-.022.853-.124.853-.246" transform="translate(-218.987 -236.45)" style="fill:#73be84"/>
                <path data-name="패스 2708" d="M311.187 334.842a.434.434 0 0 1-.613 0 .43.43 0 0 1 0-.61.435.435 0 0 1 .613 0 .43.43 0 0 1 0 .61" transform="translate(-223.257 -240.729)" style="fill:#91d09f"/>
                <path data-name="패스 2709" d="M320.892 348.366a2.548 2.548 0 0 1-.582-1.741 2.58 2.58 0 0 1 1.75.579 2.55 2.55 0 0 1 .582 1.742 2.579 2.579 0 0 1-1.75-.58" transform="translate(-230.349 -249.747)" style="fill:#418c48"/>
                <path data-name="패스 2710" d="M330.38 348.366a2.549 2.549 0 0 0 .582-1.741 2.58 2.58 0 0 0-1.75.579 2.55 2.55 0 0 0-.582 1.742 2.579 2.579 0 0 0 1.75-.58" transform="translate(-236.332 -249.747)" style="fill:#418c48"/>
                <path data-name="사각형 1553" transform="translate(92.155 95.204)" style="fill:#418c48" d="M0 0h.281v3.995H0z"/>
                <path data-name="패스 2711" d="M325.348 330.259c0-.123-.37-.225-.859-.247.443-.206.745-.442.7-.556s-.426-.066-.883.1c.328-.357.516-.688.429-.775s-.422.1-.783.431c.167-.458.213-.838.1-.885s-.349.253-.554.691c-.022-.483-.124-.849-.247-.849s-.226.369-.248.855c-.207-.441-.444-.742-.558-.7s-.067.424.1.879c-.359-.326-.691-.513-.779-.427s.1.42.433.779c-.46-.166-.842-.212-.889-.1s.254.347.694.552c-.486.022-.853.124-.853.246s.37.225.859.246c-.443.206-.746.442-.7.556s.426.067.883-.1c-.328.358-.516.688-.429.775s.422-.1.783-.431c-.167.458-.213.838-.1.885s.349-.252.554-.691c.022.484.124.849.247.849s.226-.369.248-.855c.208.441.444.742.558.695s.067-.424-.1-.879c.359.326.691.513.778.426s-.1-.42-.433-.779c.46.166.842.212.889.1s-.254-.347-.694-.552c.486-.022.853-.124.853-.246" transform="translate(-230.951 -236.45)" style="fill:#73be84"/>
                <path data-name="패스 2712" d="M327.824 334.842a.434.434 0 0 1-.613 0 .43.43 0 0 1 0-.61.435.435 0 0 1 .613 0 .43.43 0 0 1 0 .61" transform="translate(-235.222 -240.729)" style="fill:#91d09f"/>
                <path data-name="패스 2713" d="M337.529 348.366a2.549 2.549 0 0 1-.582-1.741 2.58 2.58 0 0 1 1.75.579 2.55 2.55 0 0 1 .582 1.742 2.579 2.579 0 0 1-1.75-.58" transform="translate(-242.313 -249.747)" style="fill:#418c48"/>
                <path data-name="패스 2714" d="M347.016 348.366a2.548 2.548 0 0 0 .582-1.741 2.58 2.58 0 0 0-1.75.579 2.55 2.55 0 0 0-.582 1.742 2.579 2.579 0 0 0 1.75-.58" transform="translate(-248.296 -249.747)" style="fill:#418c48"/>
                <path data-name="사각형 1554" transform="translate(96.828 95.204)" style="fill:#418c48" d="M0 0h.281v3.995H0z"/>
                <path data-name="패스 2715" d="M341.984 330.259c0-.123-.37-.225-.859-.247.443-.206.746-.442.7-.556s-.426-.066-.883.1c.328-.357.516-.688.429-.775s-.422.1-.783.431c.167-.458.213-.838.1-.885s-.349.253-.554.691c-.022-.483-.124-.849-.247-.849s-.226.369-.248.855c-.207-.441-.444-.742-.558-.7s-.067.424.1.879c-.359-.326-.691-.513-.779-.427s.1.42.433.779c-.46-.166-.842-.212-.889-.1s.254.347.694.552c-.486.022-.853.124-.853.246s.37.225.859.246c-.443.206-.746.442-.7.556s.426.067.883-.1c-.328.358-.516.688-.429.775s.422-.1.783-.431c-.167.458-.213.838-.1.885s.349-.252.554-.691c.022.484.124.849.247.849s.226-.369.248-.855c.208.441.444.742.558.695s.067-.424-.1-.879c.359.326.691.513.778.426s-.1-.42-.433-.779c.46.166.842.212.889.1s-.254-.347-.694-.552c.486-.022.853-.124.853-.246" transform="translate(-242.916 -236.45)" style="fill:#73be84"/>
                <path data-name="패스 2716" d="M344.46 334.842a.434.434 0 0 1-.613 0 .43.43 0 0 1 0-.61.435.435 0 0 1 .613 0 .43.43 0 0 1 0 .61" transform="translate(-247.186 -240.729)" style="fill:#91d09f"/>
                <path data-name="패스 2717" d="M354.165 348.366a2.549 2.549 0 0 1-.582-1.741 2.58 2.58 0 0 1 1.75.579 2.55 2.55 0 0 1 .582 1.742 2.579 2.579 0 0 1-1.75-.58" transform="translate(-254.277 -249.747)" style="fill:#418c48"/>
                <path data-name="패스 2718" d="M363.653 348.366a2.549 2.549 0 0 0 .582-1.741 2.58 2.58 0 0 0-1.75.579 2.55 2.55 0 0 0-.582 1.742 2.579 2.579 0 0 0 1.75-.58" transform="translate(-260.26 -249.747)" style="fill:#418c48"/>
                <path data-name="사각형 1555" transform="translate(101.5 95.204)" style="fill:#418c48" d="M0 0h.281v3.995H0z"/>
                <path data-name="패스 2719" d="M358.621 330.259c0-.123-.37-.225-.859-.247.443-.206.745-.442.7-.556s-.426-.066-.883.1c.328-.357.516-.688.429-.775s-.422.1-.783.431c.167-.458.213-.838.1-.885s-.349.253-.554.691c-.022-.483-.124-.849-.247-.849s-.226.369-.248.855c-.207-.441-.444-.742-.558-.7s-.067.424.1.879c-.359-.326-.691-.513-.779-.427s.1.42.433.779c-.46-.166-.842-.212-.889-.1s.254.347.694.552c-.486.022-.853.124-.853.246s.37.225.859.246c-.443.206-.746.442-.7.556s.426.067.883-.1c-.328.358-.516.688-.429.775s.422-.1.783-.431c-.167.458-.213.838-.1.885s.349-.252.554-.691c.022.484.124.849.247.849s.226-.369.248-.855c.208.441.444.742.558.695s.067-.424-.1-.879c.359.326.691.513.778.426s-.1-.42-.433-.779c.46.166.842.212.889.1s-.254-.347-.694-.552c.486-.022.853-.124.853-.246" transform="translate(-254.879 -236.45)" style="fill:#73be84"/>
                <path data-name="패스 2720" d="M361.1 334.842a.434.434 0 0 1-.613 0 .43.43 0 0 1 0-.61.435.435 0 0 1 .613 0 .43.43 0 0 1 0 .61" transform="translate(-259.15 -240.729)" style="fill:#91d09f"/>
                <path data-name="패스 2721" d="M246.531 408.545h-6.407a5.428 5.428 0 0 1 5.442-5.415h6.407a5.428 5.428 0 0 1-5.441 5.415" transform="translate(-172.684 -290.461)" style="fill:#479e57"/>
                <path data-name="패스 2722" d="M235.713 448.066h-6.407a5.428 5.428 0 0 1 5.442-5.415h6.407a5.428 5.428 0 0 1-5.442 5.415" transform="translate(-164.905 -318.937)" style="fill:#479e57"/>
                <path data-name="패스 2723" d="m273.334 477.537-4.53-4.508a5.46 5.46 0 0 1 7.7 0l4.53 4.508a5.46 5.46 0 0 1-7.7 0" transform="translate(-193.31 -339.681)" style="fill:#479e57"/>
                <path data-name="패스 2724" d="m178.957 464.976 4.53-4.508a5.46 5.46 0 0 0-7.7 0l-4.53 4.508a5.46 5.46 0 0 0 7.7 0" transform="translate(-123.162 -330.631)" style="fill:#479e57"/>
                <path data-name="패스 2725" d="M67.048 382.382a5.42 5.42 0 0 0-5.433 5.407 23.763 23.763 0 0 0 3.573 12.518 4 4 0 0 1 3.435-1.613 4.9 4.9 0 0 0-2.562 2.934 23.873 23.873 0 0 0 2.218 2.667l4.2 4.363v-23.765c0-2.986-2.432-2.511-5.433-2.511" transform="translate(-44.31 -275.492)" style="fill:#73be84"/>
                <path data-name="패스 2726" d="M106.649 393.1a4 4 0 0 1 3.47 1.661 23.728 23.728 0 0 0 1.051-6.971 5.42 5.42 0 0 0-5.433-5.407c-3 0-5.433-.475-5.433 2.511v23.765l4.2-4.363a23.833 23.833 0 0 0 4.844-7.4 4.724 4.724 0 0 0-2.7-3.8" transform="translate(-72.133 -275.492)" style="fill:#479e57"/>
                <path data-name="패스 2727" d="M15.542 327.278a3.96 3.96 0 0 1 1.274 3.617 23.96 23.96 0 0 0 5.7-4.19 5.388 5.388 0 0 0 0-7.646c-2.122-2.112-3.5-4.159-5.626-2.048L0 333.816l6.071-.129a24.064 24.064 0 0 0 8.683-1.823 4.7 4.7 0 0 0 .789-4.586" transform="translate(0 -227.772)" style="fill:#73be84"/>
                <path data-name="패스 2728" d="M15.542 274.2a3.96 3.96 0 0 1 1.274 3.617 23.957 23.957 0 0 0 5.7-4.19 5.388 5.388 0 0 0 0-7.646c-2.122-2.112-3.5-4.159-5.626-2.047L0 280.739l6.071-.129a24.064 24.064 0 0 0 8.683-1.823 4.7 4.7 0 0 0 .789-4.586" transform="translate(0 -189.529)" style="fill:#73be84"/>
                <path data-name="패스 2729" d="M118.382 336.843a3.96 3.96 0 0 0-1.274 3.617 23.948 23.948 0 0 1-5.7-4.19 5.388 5.388 0 0 1 0-7.646c2.122-2.111 3.5-4.159 5.626-2.047l16.887 16.8-6.071-.129a24.064 24.064 0 0 1-8.683-1.823 4.7 4.7 0 0 1-.789-4.586" transform="translate(-78.977 -234.663)" style="fill:#479e57"/>
                <path data-name="패스 2730" d="M144.672 447.2a2.8 2.8 0 0 0-2.43 1.163 16.615 16.615 0 0 1-.736-4.881 3.8 3.8 0 0 1 3.8-3.786c2.1 0 3.8-.333 3.8 1.758v16.639l-2.942-3.055a16.69 16.69 0 0 1-3.392-5.181 3.307 3.307 0 0 1 1.891-2.659" transform="translate(-101.764 -316.792)" style="fill:#479e57"/>
                <path data-name="패스 2731" d="M107.941 298.591a1.091 1.091 0 0 0-.351 1 6.6 6.6 0 0 1-1.568-1.154 1.483 1.483 0 0 1 0-2.105c.584-.581.965-1.145 1.549-.564l4.649 4.627-1.671-.036a6.62 6.62 0 0 1-2.391-.5 1.294 1.294 0 0 1-.217-1.263" transform="translate(-75.93 -212.927)" style="fill:#479e57"/>
                <path data-name="패스 2732" d="M76.835 360.011a1.09 1.09 0 0 1 .351 1 6.6 6.6 0 0 0 1.568-1.154 1.483 1.483 0 0 0 0-2.105c-.584-.581-.965-1.145-1.549-.564l-4.649 4.627 1.671-.035a6.62 6.62 0 0 0 2.391-.5 1.294 1.294 0 0 0 .217-1.263" transform="translate(-52.178 -257.181)" style="fill:#73be84"/>
                <path data-name="패스 2733" d="M50.251 470.825a1.091 1.091 0 0 1 .351 1 6.6 6.6 0 0 0 1.568-1.154 1.483 1.483 0 0 0 0-2.105c-.584-.581-.965-1.145-1.549-.564l-4.649 4.627 1.671-.035a6.622 6.622 0 0 0 2.391-.5 1.294 1.294 0 0 0 .217-1.263" transform="translate(-33.061 -337.024)" style="fill:#73be84"/>
                <path data-name="패스 2734" d="M118.382 251.86a3.96 3.96 0 0 0-1.274 3.617 23.949 23.949 0 0 1-5.7-4.19 5.388 5.388 0 0 1 0-7.646c2.122-2.112 3.5-4.159 5.626-2.048l16.887 16.8-6.071-.129a24.064 24.064 0 0 1-8.683-1.823 4.7 4.7 0 0 1-.789-4.586" transform="translate(-78.977 -173.432)" style="fill:#479e57"/>
                <path data-name="패스 2735" d="m109.11 162.086-2.639-2.626a1.013 1.013 0 0 1 0-1.438.809.809 0 0 1 1.141 0l3.844 3.825-.24.239a1.494 1.494 0 0 1-2.106 0" transform="translate(-76.353 -113.688)" style="fill:#418c48"/>
                <path data-name="패스 2736" d="M298.282 122.74a3.409 3.409 0 0 1 2.185 1.089 2.736 2.736 0 0 1-4.369 0 3.408 3.408 0 0 1 2.184-1.089" transform="translate(-212.938 -88.436)" style="fill:#73be84"/>
                <path data-name="패스 2737" d="M290.5 132.421a3.408 3.408 0 0 1 2.184 1.089 2.736 2.736 0 0 1-4.369 0 3.409 3.409 0 0 1 2.184-1.089" transform="translate(-207.344 -95.411)" style="fill:#73be84"/>
                <path data-name="패스 2738" d="M283.646 107.286a3.416 3.416 0 0 1 2.318-.767 3.375 3.375 0 0 1-.771 2.307 3.416 3.416 0 0 1-2.318.767 3.376 3.376 0 0 1 .771-2.307" transform="translate(-203.427 -76.747)" style="fill:#73be84"/>
                <path data-name="패스 2739" d="M258.841 105.818a3.416 3.416 0 0 1-2.318.767 3.375 3.375 0 0 1 .771-2.307 3.415 3.415 0 0 1 2.318-.767 3.376 3.376 0 0 1-.771 2.307" transform="translate(-184.476 -74.58)" style="fill:#73be84"/>
                <path data-name="패스 2740" d="M153.44 113.825h-.281V99.906a5.64 5.64 0 0 1 5.647-5.62h24.64a3.58 3.58 0 0 1 3.585 3.567 5.362 5.362 0 0 0 5.369 5.347h3.09v.279h-3.09a5.642 5.642 0 0 1-5.649-5.622 3.3 3.3 0 0 0-3.3-3.288h-24.64a5.359 5.359 0 0 0-5.366 5.34z" transform="translate(-110.144 -67.934)" style="fill:#418c48"/>
                <path data-name="패스 2741" d="M106.063 197.115H74.7a1.019 1.019 0 0 1-1.021-1.017v-1.435h33.41v1.437a1.019 1.019 0 0 1-1.021 1.017" transform="translate(-52.983 -140.258)" style="fill:#418c48"/>
                <path data-name="패스 2742" d="M279.887 310.357H235.46a1.019 1.019 0 0 1-1.021-1.016V307.9h46.469v1.435a1.019 1.019 0 0 1-1.021 1.016" transform="translate(-168.596 -221.85)" style="fill:#73be84"/>
                <path data-name="패스 2743" d="M441.294 224.557H421.88a1.019 1.019 0 0 1-1.021-1.016V222.1h21.456v1.435a1.019 1.019 0 0 1-1.021 1.016" transform="translate(-302.66 -160.03)" style="fill:#73be84"/>
                <path data-name="패스 2744" d="M203.732 588.117H179.04a2.457 2.457 0 0 1-2.463-2.451H206.2a2.458 2.458 0 0 1-2.464 2.451" transform="translate(-126.985 -421.98)" style="fill:#418c48"/>
                <path data-name="사각형 1556" transform="translate(27.402 33.08)" style="fill:#418c48" d="M0 0h.281v14.172H0z"/>
                <path data-name="패스 2745" d="M103.665 162.149 101.2 159.7a1.712 1.712 0 0 0-2.39-.033l-.894.842-.193-.2.895-.842a1.992 1.992 0 0 1 2.781.039l2.464 2.452z" transform="translate(-70.277 -114.5)" style="fill:#418c48"/>
                <path data-name="패스 2746" d="m73.5 157.184 2.639-2.626a1.014 1.014 0 0 0 0-1.438.809.809 0 0 0-1.141 0l-3.844 3.825.24.239a1.494 1.494 0 0 0 2.106 0" transform="translate(-51.167 -110.156)" style="fill:#418c48"/>
                <path data-name="패스 2747" d="m76.749 157.247-.2-.2 2.464-2.452a1.992 1.992 0 0 1 2.781-.039l.894.841-.193.2-.894-.842a1.712 1.712 0 0 0-2.39.033z" transform="translate(-55.051 -110.968)" style="fill:#418c48"/>
                <path data-name="패스 2748" d="M298.736 190.343a3.376 3.376 0 0 1-.771-2.307 3.415 3.415 0 0 1 2.318.767 3.375 3.375 0 0 1 .771 2.307 3.416 3.416 0 0 1-2.318-.767" transform="translate(-214.279 -135.482)" style="fill:#73be84"/>
                <path data-name="패스 2749" d="M144.513 165.809h-9.846l-.281-1.615h10.408z" transform="translate(-96.643 -118.305)" style="fill:#91d09f"/>
                <path data-name="패스 2750" d="M145.124 176.46h-6.855l-.883-5.5h8.621z" transform="translate(-98.801 -123.177)" style="fill:#91d09f"/>
                <path data-name="패스 2751" d="m134.641 191.427.128.7a.246.246 0 0 0 .244.208h9.423a.246.246 0 0 0 .243-.208l.128-.7z" transform="translate(-96.827 -137.926)" style="fill:#91d09f"/>
                <path data-name="패스 2752" d="M92.059 171.492v-2.256H89.9v2.256a2.747 2.747 0 0 0-.419 4.851h3a2.747 2.747 0 0 0-.419-4.851" transform="translate(-63.437 -121.937)" style="fill:#91d09f"/>
                <path data-name="패스 2753" d="M235.137 119.174h-7.064a4.7 4.7 0 0 1-4.7-4.679v-2.738a4.416 4.416 0 0 0-4.421-4.4h-4.661a4.7 4.7 0 0 1-4.7-4.679v-8.113h-5.423v-.279h5.7v8.392a4.416 4.416 0 0 0 4.421 4.4h4.661a4.7 4.7 0 0 1 4.7 4.679v2.743a4.416 4.416 0 0 0 4.421 4.4h7.064z" transform="translate(-146.823 -67.934)" style="fill:#418c48"/>
                <path data-name="패스 2754" d="M244.412 147.3h-2.833a3.614 3.614 0 0 1-3.618-3.6v-3.146h.281v3.146a3.333 3.333 0 0 0 3.337 3.321h2.833z" transform="translate(-171.129 -101.273)" style="fill:#418c48"/>
                <path data-name="패스 2755" d="M187.517 174.15h-.57v-.279h.57a4.5 4.5 0 0 0 4.5-4.48v-4.644a4.5 4.5 0 0 0-4.5-4.48h-9.279a4.566 4.566 0 0 1-4.571-4.549v-4.106a4.618 4.618 0 0 0-4.624-4.6h-.685a4.618 4.618 0 0 0-4.624 4.6h-.281a4.9 4.9 0 0 1 4.9-4.881h.685a4.9 4.9 0 0 1 4.9 4.881v4.106a4.285 4.285 0 0 0 4.29 4.27h9.279a4.776 4.776 0 0 1 4.783 4.759v4.644a4.776 4.776 0 0 1-4.783 4.759" transform="translate(-117.547 -105.722)" style="fill:#418c48"/>
                <path data-name="패스 2756" d="M206.928 213.562h-2.068a5.015 5.015 0 1 1 0-10.03h2.24a4.753 4.753 0 0 0 4.759-4.736v-4.132h.281v4.136a5.033 5.033 0 0 1-5.04 5.015h-2.24a4.736 4.736 0 1 0 0 9.471h2.068z" transform="translate(-143.7 -140.258)" style="fill:#418c48"/>
                <path data-name="패스 2757" d="M215.348 159.407a3.383 3.383 0 0 1 1.094-2.174 2.707 2.707 0 0 1 0 4.348 3.383 3.383 0 0 1-1.094-2.174" transform="translate(-154.867 -113.289)" style="fill:#73be84"/>
                <path data-name="패스 2758" d="M196.425 265.375a3.383 3.383 0 0 1 1.094-2.174 2.707 2.707 0 0 1 0 4.348 3.383 3.383 0 0 1-1.094-2.174" transform="translate(-141.258 -189.64)" style="fill:#73be84"/>
                <path data-name="패스 2759" d="M224.9 167.188a3.415 3.415 0 0 1 2.318-.768 3.376 3.376 0 0 1-.771 2.307 3.415 3.415 0 0 1-2.318.767 3.374 3.374 0 0 1 .771-2.307" transform="translate(-161.178 -119.907)" style="fill:#73be84"/>
                <path data-name="패스 2760" d="M207.374 172.18a3.416 3.416 0 0 0-2.318-.767 3.375 3.375 0 0 0 .771 2.307 3.416 3.416 0 0 0 2.318.767 3.376 3.376 0 0 0-.771-2.307" transform="translate(-147.464 -123.504)" style="fill:#73be84"/>
                <path data-name="사각형 1557" transform="translate(61.435 45.485)" style="fill:#418c48" d="M0 0h.281v8.921H0z"/>
                <path data-name="패스 10919" d="m0 0 3.868.01v.28L0 .279z" transform="rotate(-46.379 89.967 -46.38)" style="fill:#418c48"/>
                <path data-name="패스 10920" d="M0 0h.279L.29 3.868H.01z" transform="rotate(-43.682 90.963 -48.671)" style="fill:#418c48"/>
                <path data-name="패스 2761" d="M184.293 163.421a2.285 2.285 0 0 1-.739 1.468 1.828 1.828 0 0 1 0-2.936 2.284 2.284 0 0 1 .739 1.468" transform="translate(-131.472 -116.689)" style="fill:#73be84"/>
                <path data-name="패스 2762" d="M176.854 160.375a2.307 2.307 0 0 1-1.565.518 2.28 2.28 0 0 1 .521-1.558 2.307 2.307 0 0 1 1.565-.518 2.28 2.28 0 0 1-.521 1.558" transform="translate(-126.057 -114.429)" style="fill:#73be84"/>
                <path data-name="패스 2763" d="M188.688 157a2.307 2.307 0 0 0 1.565.518 2.28 2.28 0 0 0-.521-1.558 2.307 2.307 0 0 0-1.565-.518 2.28 2.28 0 0 0 .521 1.558" transform="translate(-135.319 -112)" style="fill:#73be84"/>
                <path data-name="사각형 1560" transform="translate(51.942 41.135)" style="fill:#418c48" d="M0 0h.281v6.024H0z"/>
                <path data-name="패스 10921" d="m0 0 2.612.007v.28L0 .28z" transform="rotate(-46.379 77.996 -35.896)" style="fill:#418c48"/>
                <path data-name="패스 10922" d="M0 0h.28l.007 2.612h-.28z" transform="rotate(-43.683 79.415 -43.432)" style="fill:#418c48"/>
                <path data-name="패스 2764" d="M282.067 205.5a2.3 2.3 0 0 1 1.475.735 1.848 1.848 0 0 1-2.95 0 2.3 2.3 0 0 1 1.475-.735" transform="translate(-201.787 -148.065)" style="fill:#73be84"/>
                <path data-name="패스 2765" d="M279.022 211.368a2.28 2.28 0 0 1 .521 1.558 2.307 2.307 0 0 1-1.565-.518 2.281 2.281 0 0 1-.521-1.558 2.307 2.307 0 0 1 1.566.518" transform="translate(-199.531 -151.92)" style="fill:#73be84"/>
                <path data-name="패스 2766" d="M275.651 199.53a2.28 2.28 0 0 0 .521-1.558 2.307 2.307 0 0 0-1.565.518 2.281 2.281 0 0 0-.521 1.558 2.307 2.307 0 0 0 1.565-.518" transform="translate(-197.106 -142.641)" style="fill:#73be84"/>
                <path data-name="사각형 1563" transform="translate(74.656 58.029)" style="fill:#418c48" d="M0 0h6.054v.279H0z"/>
                <path data-name="패스 2767" d="m275.981 209.769-1.894-1.8.194-.2 1.893 1.8z" transform="translate(-197.109 -149.699)" style="fill:#418c48"/>
                <path data-name="패스 2768" d="m271.373 203.33-.194-.2 1.894-1.8.194.2z" transform="translate(-195.018 -145.06)" style="fill:#418c48"/>
                <path data-name="패스 2769" d="M225.217 273.826a2.284 2.284 0 0 1 .739-1.468 1.828 1.828 0 0 1 0 2.936 2.284 2.284 0 0 1-.739-1.468" transform="translate(-161.964 -196.238)" style="fill:#73be84"/>
                <path data-name="패스 2770" d="M231.089 279.079a2.307 2.307 0 0 1 1.565-.518 2.28 2.28 0 0 1-.521 1.558 2.307 2.307 0 0 1-1.565.518 2.28 2.28 0 0 1 .521-1.558" transform="translate(-165.811 -200.707)" style="fill:#73be84"/>
                <path data-name="패스 2771" d="M219.255 282.451a2.309 2.309 0 0 0-1.566-.518 2.279 2.279 0 0 0 .521 1.558 2.306 2.306 0 0 0 1.565.518 2.282 2.282 0 0 0-.52-1.558" transform="translate(-156.55 -203.136)" style="fill:#73be84"/>
                <path data-name="사각형 1564" transform="translate(63.851 77.16)" style="fill:#418c48" d="M0 0h.281v5.204H0z"/>
                <path data-name="패스 10923" d="m0 0 2.612.007v.28L0 .28z" transform="rotate(-46.379 126.116 -34.231)" style="fill:#418c48"/>
                <path data-name="패스 10924" d="M0 0h.28l.007 2.612h-.28z" transform="rotate(-43.683 130.59 -37.543)" style="fill:#418c48"/>
                <path data-name="패스 2772" d="M168.63 232.405a3.409 3.409 0 0 1-2.184-1.089 2.736 2.736 0 0 1 4.369 0 3.408 3.408 0 0 1-2.184 1.089" transform="translate(-119.699 -165.883)" style="fill:#73be84"/>
                <path data-name="패스 2773" d="M176.4 221.389a3.376 3.376 0 0 1-.771-2.307 3.415 3.415 0 0 1 2.318.767 3.375 3.375 0 0 1 .771 2.307 3.416 3.416 0 0 1-2.318-.767" transform="translate(-126.304 -157.851)" style="fill:#73be84"/>
                <path data-name="패스 2774" d="M181.4 238.921a3.376 3.376 0 0 0-.771 2.307 3.415 3.415 0 0 0 2.318-.768 3.375 3.375 0 0 0 .771-2.307 3.416 3.416 0 0 0-2.318.767" transform="translate(-129.895 -171.592)" style="fill:#73be84"/>
                <path data-name="사각형 1567" transform="translate(48.295 65.294)" style="fill:#418c48" d="M0 0h8.965v.279H0z"/>
                <path data-name="패스 2775" d="m183.6 227.093-2.8-2.665.194-.2 2.8 2.665z" transform="translate(-130.017 -161.558)" style="fill:#418c48"/>
                <path data-name="패스 10925" d="m0 0 3.868.01v.28L0 .279z" transform="rotate(-43.61 110.932 -30.968)" style="fill:#418c48"/>
                <path data-name="패스 2776" d="M197.372 121.525a3.416 3.416 0 0 1 2.318-.767 3.376 3.376 0 0 1-.771 2.307 3.415 3.415 0 0 1-2.318.767 3.376 3.376 0 0 1 .771-2.307" transform="translate(-141.383 -87.006)" style="fill:#73be84"/>
                <path data-name="패스 2777" d="M198.365 134a3.409 3.409 0 0 1 2.184 1.089 2.736 2.736 0 0 1-4.369 0 3.409 3.409 0 0 1 2.185-1.089" transform="translate(-141.083 -96.549)" style="fill:#73be84"/>
                <path data-name="패스 2778" d="M185.237 122.336a3.383 3.383 0 0 0-1.094-2.174 2.707 2.707 0 0 0 0 4.348 3.383 3.383 0 0 0 1.094-2.174" transform="translate(-131.639 -86.578)" style="fill:#73be84"/>
                <path data-name="패스 10926" d="m0 0 8.943.024V.3L0 .278z" transform="rotate(-45 74.952 -40.754)" style="fill:#418c48"/>
                <path data-name="사각형 1570" transform="rotate(-1.318 1699.812 -2302.176)" style="fill:#418c48" d="M0 0h3.877v.28H0z"/>
                <path data-name="사각형 1571" transform="rotate(-88.684 46.402 -7.076)" style="fill:#418c48" d="M0 0h3.859v.281H0z"/>
                <path data-name="패스 2779" d="M294.691 152.84a3.416 3.416 0 0 1 2.318-.767 3.375 3.375 0 0 1-.771 2.307 3.415 3.415 0 0 1-2.318.767 3.376 3.376 0 0 1 .771-2.307" transform="translate(-211.37 -109.569)" style="fill:#73be84"/>
                <path data-name="패스 2780" d="M295.686 165.315a3.408 3.408 0 0 1 2.184 1.089 2.736 2.736 0 0 1-4.369 0 3.408 3.408 0 0 1 2.185-1.089" transform="translate(-211.07 -119.112)" style="fill:#73be84"/>
                <path data-name="패스 2781" d="M282.557 153.651a3.383 3.383 0 0 0-1.094-2.174 2.707 2.707 0 0 0 0 4.348 3.383 3.383 0 0 0 1.094-2.174" transform="translate(-201.627 -109.141)" style="fill:#73be84"/>
                <path data-name="패스 10927" d="m0 0 8.943.024V.3L0 .278z" transform="rotate(-45 99.19 -69.37)" style="fill:#418c48"/>
                <path data-name="사각형 1573" transform="rotate(-1.318 2093.926 -3485.917)" style="fill:#418c48" d="M0 0h3.878v.28H0z"/>
                <path data-name="사각형 1574" transform="rotate(-88.684 64.546 -16.684)" style="fill:#418c48" d="M0 0h3.859v.281H0z"/>
                <path data-name="패스 2782" d="M237 114.467a2.467 2.467 0 0 1 .563 1.685 2.5 2.5 0 0 1-1.694-.561 2.467 2.467 0 0 1-.563-1.685 2.5 2.5 0 0 1 1.694.561" transform="translate(-169.218 -82.07)" style="fill:#73be84"/>
                <path data-name="패스 2783" d="M229.583 115.188a2.472 2.472 0 0 1-.8 1.588 1.977 1.977 0 0 1 0-3.176 2.472 2.472 0 0 1 .8 1.588" transform="translate(-163.955 -81.85)" style="fill:#73be84"/>
                <path data-name="패스 2784" d="M234.017 105.6a2.49 2.49 0 0 0 1.6-.8 2 2 0 0 0-3.192 0 2.49 2.49 0 0 0 1.6.8" transform="translate(-167.145 -74.938)" style="fill:#73be84"/>
                <path data-name="패스 2785" d="M256.978 127.153a2.466 2.466 0 0 0 .563-1.685 2.5 2.5 0 0 0-1.694.561 2.467 2.467 0 0 0-.563 1.685 2.5 2.5 0 0 0 1.694-.561" transform="translate(-183.586 -90.4)" style="fill:#73be84"/>
                <path data-name="패스 2786" d="M243.286 127.345a2.467 2.467 0 0 1-.563-1.685 2.5 2.5 0 0 1 1.694.561 2.466 2.466 0 0 1 .563 1.685 2.5 2.5 0 0 1-1.694-.561" transform="translate(-174.552 -90.539)" style="fill:#73be84"/>
                <path data-name="패스 10928" d="M0 0h.279L.3 6.534H.018z" transform="rotate(-45 66.16 -61.428)" style="fill:#418c48"/>
                <path data-name="사각형 1576" transform="rotate(-1.318 1359.142 -2793.934)" style="fill:#418c48" d="M0 0h.281v2.819H0z"/>
                <path data-name="사각형 1577" transform="matrix(.023 -1 1 .023 64.136 30.037)" style="fill:#418c48" d="M0 0h.28v2.833H0z"/>
                <path data-name="패스 2787" d="M122.473 124.342a3.376 3.376 0 0 1-.771-2.307 3.415 3.415 0 0 1 2.318.767 3.375 3.375 0 0 1 .771 2.307 3.416 3.416 0 0 1-2.318-.767" transform="translate(-87.52 -87.927)" style="fill:#73be84"/>
                <path data-name="패스 2788" d="M134.944 120.084a3.383 3.383 0 0 1 1.094-2.174 2.707 2.707 0 0 1 0 4.348 3.383 3.383 0 0 1-1.094-2.174" transform="translate(-97.045 -84.956)" style="fill:#73be84"/>
                <path data-name="패스 2789" d="M123.29 138.808a3.409 3.409 0 0 0-2.184 1.089 2.736 2.736 0 0 0 4.369 0 3.409 3.409 0 0 0-2.184-1.089" transform="translate(-87.093 -100.013)" style="fill:#73be84"/>
                <path data-name="패스 2790" d="M133.37 136.376h-.281a6.684 6.684 0 0 0-1.985-4.769l-5.853-5.824.2-.2 5.853 5.824a6.961 6.961 0 0 1 2.067 4.966" transform="translate(-90.074 -90.486)" style="fill:#418c48"/>
                <path data-name="사각형 1578" transform="matrix(1 -.023 .023 1 38.853 35.131)" style="fill:#418c48" d="M0 0h.281v3.859H0z"/>
                <path data-name="사각형 1579" transform="matrix(.023 -1 1 .023 36.058 39.888)" style="fill:#418c48" d="M0 0h.28v3.877H0z"/>
                <path data-name="패스 10929" d="m0 0 8.257.022V.3L0 .278z" transform="rotate(-45 69.345 -76.409)" style="fill:#418c48"/>
                <path data-name="패스 2791" d="M281.092 73.233a3.375 3.375 0 0 0 .771-2.307 3.416 3.416 0 0 0-2.318.767 3.375 3.375 0 0 0-.771 2.307 3.417 3.417 0 0 0 2.318-.767" transform="translate(-200.478 -51.102)" style="fill:#73be84"/>
                <path data-name="패스 2792" d="M270.941 68.975a3.383 3.383 0 0 0-1.094-2.174 2.707 2.707 0 0 0 0 4.348 3.383 3.383 0 0 0 1.094-2.174" transform="translate(-193.273 -48.131)" style="fill:#73be84"/>
                <path data-name="패스 2793" d="M277.009 87.7a3.409 3.409 0 0 1 2.184 1.089 2.736 2.736 0 0 1-4.369 0 3.408 3.408 0 0 1 2.184-1.089" transform="translate(-197.64 -63.188)" style="fill:#73be84"/>
                <path data-name="사각형 1581" transform="rotate(-88.685 50.808 -26.71)" style="fill:#418c48" d="M0 0h3.859v.281H0z"/>
                <path data-name="사각형 1582" transform="rotate(-1.318 1142.512 -3274.744)" style="fill:#418c48" d="M0 0h3.877v.28H0z"/>
                <path data-name="패스 2794" d="M307.118 178.942a3.408 3.408 0 0 1 2.184 1.089 2.736 2.736 0 0 1-4.369 0 3.408 3.408 0 0 1 2.184-1.089" transform="translate(-219.292 -128.93)" style="fill:#73be84"/>
                <path data-name="패스 2795" d="M399.646 181.848a4.819 4.819 0 0 1 3.154 1.729 3.741 3.741 0 0 1-6.308 0 4.819 4.819 0 0 1 3.154-1.729" transform="translate(-285.136 -131.024)" style="fill:#479e57"/>
                <path data-name="패스 2796" d="M397.181 205.5a4.819 4.819 0 0 1 3.154 1.729 3.741 3.741 0 0 1-6.308 0 4.819 4.819 0 0 1 3.154-1.729" transform="translate(-283.363 -148.065)" style="fill:#479e57"/>
                <path data-name="패스 2797" d="M397.181 226.491a4.819 4.819 0 0 1 3.154 1.729 3.741 3.741 0 0 1-6.308 0 4.819 4.819 0 0 1 3.154-1.729" transform="translate(-283.363 -163.19)" style="fill:#479e57"/>
                <path data-name="패스 2798" d="M345.539 186.785a4.819 4.819 0 0 1 3.154 1.729 3.741 3.741 0 0 1-6.308 0 4.819 4.819 0 0 1 3.154-1.729" transform="translate(-246.225 -134.581)" style="fill:#479e57"/>
                <path data-name="패스 2799" d="M345.539 214.963a4.819 4.819 0 0 1 3.154 1.729 3.741 3.741 0 0 1-6.308 0 4.819 4.819 0 0 1 3.154-1.729" transform="translate(-246.225 -154.884)" style="fill:#479e57"/>
                <path data-name="패스 2800" d="M367.2 154.659a5.324 5.324 0 0 1 1.6 3.35 5.383 5.383 0 0 1-3.615-.911 5.323 5.323 0 0 1-1.6-3.35 5.382 5.382 0 0 1 3.615.911" transform="translate(-261.472 -110.759)" style="fill:#479e57"/>
                <path data-name="패스 2801" d="M390.822 150.731a5.323 5.323 0 0 1-1.3 3.48 4.352 4.352 0 0 1-.57-6.694 5.332 5.332 0 0 1 1.865 3.214" transform="translate(-278.778 -106.288)" style="fill:#479e57"/>
                <path data-name="패스 2802" d="M304.186 225.285a25.2 25.2 0 0 1 3-11.461 23.386 23.386 0 0 1 0 22.923 25.2 25.2 0 0 1-3-11.461" transform="translate(-218.754 -154.063)" style="fill:#479e57"/>
                <path data-name="패스 2803" d="M318.905 236.587a29.639 29.639 0 0 1 3.8-8.486 28.7 28.7 0 0 1-4.693 17.736 29.577 29.577 0 0 1 .89-9.25" transform="translate(-228.656 -164.35)" style="fill:#73be84"/>
                <path data-name="패스 2804" d="M298.514 236.587a29.639 29.639 0 0 0-3.8-8.486 28.7 28.7 0 0 0 4.693 17.736 29.578 29.578 0 0 0-.89-9.25" transform="translate(-211.897 -164.35)" style="fill:#73be84"/>
                <path data-name="패스 2805" d="M219.623 257.861a3.409 3.409 0 0 1 2.184 1.089 2.736 2.736 0 0 1-4.369 0 3.408 3.408 0 0 1 2.184-1.089" transform="translate(-156.371 -185.793)" style="fill:#73be84"/>
                <path data-name="패스 2806" d="M228.082 323.524a3.409 3.409 0 0 1 2.184 1.089 2.736 2.736 0 0 1-4.369 0 3.409 3.409 0 0 1 2.184-1.089" transform="translate(-162.454 -233.104)" style="fill:#73be84"/>
                <path data-name="패스 2807" d="M254.857 160.3a3.409 3.409 0 0 1 2.185 1.089 2.736 2.736 0 0 1-4.369 0 3.409 3.409 0 0 1 2.184-1.089" transform="translate(-181.709 -115.499)" style="fill:#73be84"/>
                <path data-name="패스 2808" d="M244.1 149.6a3.409 3.409 0 0 1 2.184 1.089 2.736 2.736 0 0 1-4.369 0 3.409 3.409 0 0 1 2.185-1.089" transform="translate(-173.975 -107.785)" style="fill:#73be84"/>
                <path data-name="패스 2809" d="M243.321 168.592a3.383 3.383 0 0 1-1.094 2.174 2.707 2.707 0 0 1 0-4.348 3.383 3.383 0 0 1 1.094 2.174" transform="translate(-173.41 -119.907)" style="fill:#73be84"/>
                <path data-name="패스 10930" d="m0 0 3.617.01v.279L0 .279z" transform="rotate(-45 79.939 -77.662)" style="fill:#418c48"/>
                <path data-name="패스 2810" d="M247.711 277.269a3.376 3.376 0 0 1-.771-2.307 3.416 3.416 0 0 1 2.318.767 3.375 3.375 0 0 1 .771 2.307 3.416 3.416 0 0 1-2.318-.767" transform="translate(-177.584 -198.113)" style="fill:#73be84"/>
                <path data-name="패스 10931" d="M0 0h.279l.01 3.617H.01z" transform="rotate(-44.997 130.147 -46.228)" style="fill:#418c48"/>
                <path data-name="패스 2811" d="M219.039 334.393a3.383 3.383 0 0 1-1.094 2.174 2.707 2.707 0 0 1 0-4.348 3.383 3.383 0 0 1 1.094 2.174" transform="translate(-155.948 -239.369)" style="fill:#73be84"/>
                <path data-name="사각형 1585" transform="translate(61.857 91.416)" style="fill:#418c48" d="M0 0h.281v3.608H0z"/>
                <path data-name="패스 2812" d="M195.561 291.906a3.376 3.376 0 0 1-.771-2.307 3.415 3.415 0 0 1 2.318.767 3.375 3.375 0 0 1 .771 2.307 3.416 3.416 0 0 1-2.318-.767" transform="translate(-140.081 -208.659)" style="fill:#73be84"/>
                <path data-name="패스 10932" d="M0 0h.279l.01 3.617H.01z" transform="rotate(-44.997 127.762 -26.5)" style="fill:#418c48"/>
                <path data-name="패스 2813" d="M211.885 244.428a3.416 3.416 0 0 1 2.318-.768 3.375 3.375 0 0 1-.771 2.307 3.416 3.416 0 0 1-2.318.767 3.376 3.376 0 0 1 .771-2.307" transform="translate(-151.82 -175.559)" style="fill:#73be84"/>
                <path data-name="패스 10933" d="m0 0 3.617.01v.279L0 .279z" transform="rotate(-45 116.124 -34.16)" style="fill:#418c48"/>
                <path data-name="패스 2814" d="M224.687 200.839a3.409 3.409 0 0 1-2.184-1.089 2.736 2.736 0 0 1 4.369 0 3.409 3.409 0 0 1-2.184 1.089" transform="translate(-160.012 -143.139)" style="fill:#73be84"/>
                <path data-name="사각형 1588" transform="translate(64.675 56.472)" style="fill:#418c48" d="M0 0h3.626v.279H0z"/>
                <path data-name="패스 2815" d="M253.346 254.933a3.415 3.415 0 0 1-2.318.768 3.375 3.375 0 0 1 .771-2.307 3.415 3.415 0 0 1 2.318-.767 3.375 3.375 0 0 1-.771 2.307" transform="translate(-180.524 -182.02)" style="fill:#73be84"/>
                <path data-name="패스 10934" d="m0 0 3.617.01v.279L0 .279z" transform="rotate(-45 122.96 -50.809)" style="fill:#418c48"/>
                <path data-name="패스 10935" d="m0 0 3.617.01v.279L0 .279z" transform="rotate(-45 73.425 -73.52)" style="fill:#418c48"/>
                <path data-name="패스 2816" d="M286.382 127.905h-1.936a1.856 1.856 0 0 1-1.859-1.85v-1.608h.281v1.608a1.576 1.576 0 0 0 1.578 1.57h1.936z" transform="translate(-203.222 -89.667)" style="fill:#418c48"/>
                <path data-name="패스 2817" d="M248.611 132.956h-.281v-1.226l-1.724-1.513.186-.21 1.819 1.6z" transform="translate(-177.346 -93.673)" style="fill:#418c48"/>
                <path data-name="패스 10936" d="m0 0 2.4.006v.28L0 .28z" transform="rotate(-45 81.275 -66.777)" style="fill:#418c48"/>
                <path data-name="패스 2818" d="M224.479 213.222a2.467 2.467 0 0 0 .563-1.685 2.5 2.5 0 0 0-1.694.561 2.466 2.466 0 0 0-.563 1.685 2.5 2.5 0 0 0 1.694-.561" transform="translate(-160.214 -152.414)" style="fill:#73be84"/>
                <path data-name="패스 2819" d="M210.787 213.414a2.467 2.467 0 0 1-.563-1.685 2.5 2.5 0 0 1 1.694.561 2.467 2.467 0 0 1 .563 1.685 2.5 2.5 0 0 1-1.694-.561" transform="translate(-151.181 -152.553)" style="fill:#73be84"/>
                <path data-name="패스 2820" d="M216.112 219.025h-.281V217.8l-1.724-1.513.186-.21 1.819 1.6z" transform="translate(-153.975 -155.687)" style="fill:#418c48"/>
                <path data-name="패스 10937" d="m0 0 2.4.006v.28L0 .28z" transform="rotate(-45 105.746 -43.726)" style="fill:#418c48"/>
                <path data-name="사각형 1593" transform="translate(68.676 45.485)" style="fill:#418c48" d="M0 0h.281v2.895H0z"/>
                <path data-name="패스 2821" d="M253.134 217.672a3.376 3.376 0 0 1-.771-2.307 3.415 3.415 0 0 1 2.318.767 3.375 3.375 0 0 1 .771 2.307 3.416 3.416 0 0 1-2.318-.767" transform="translate(-181.484 -155.172)" style="fill:#73be84"/>
                <path data-name="패스 10938" d="M0 0h.279l.008 2.783h-.28z" transform="rotate(-45 111.165 -56.541)" style="fill:#418c48"/>
                <path data-name="패스 2822" d="M234.577 233.342a3.376 3.376 0 0 1-.771-2.307 3.416 3.416 0 0 1 2.318.767 3.375 3.375 0 0 1 .771 2.307 3.416 3.416 0 0 1-2.318-.768" transform="translate(-168.139 -166.463)" style="fill:#73be84"/>
                <path data-name="패스 10939" d="M0 0h.279l.008 2.783h-.28z" transform="rotate(-45 113.845 -48.061)" style="fill:#418c48"/>
                <path data-name="패스 2823" d="M236.125 248.932a3.416 3.416 0 0 1-2.318.767 3.375 3.375 0 0 1 .771-2.307 3.416 3.416 0 0 1 2.318-.768 3.376 3.376 0 0 1-.771 2.307" transform="translate(-168.14 -177.696)" style="fill:#73be84"/>
                <path data-name="패스 10940" d="m0 0 2.783.007v.28L0 .279z" transform="rotate(-45 118.363 -46.18)" style="fill:#418c48"/>
                <path data-name="사각형 1597" transform="translate(67.005 42.758)" style="fill:#418c48" d="M0 0h3.123v.279H0z"/>
                <path data-name="패스 2824" d="M166.629 105.838a3.376 3.376 0 0 1 .771 2.307 3.416 3.416 0 0 1-2.318-.767 3.375 3.375 0 0 1-.771-2.307 3.416 3.416 0 0 1 2.318.767" transform="translate(-118.162 -75.703)" style="fill:#73be84"/>
                <path data-name="패스 10941" d="M0 0h.279L.29 3.985H.011z" transform="rotate(-45 56.417 -39.946)" style="fill:#418c48"/>
                <path data-name="패스 10942" d="M0 0h.279l.013 4.687H.013z" transform="rotate(-45 102.764 -73.29)" style="fill:#418c48"/>
                <path data-name="사각형 1600" transform="translate(56.12 68.288)" style="fill:#418c48" d="M0 0h.281v8.236H0z"/>
                <path data-name="패스 2825" d="M214.339 249.861h-2.491a4.712 4.712 0 1 1 0-9.425l7.116.094a4.448 4.448 0 0 0 4.452-4.433v-16.514h.281V236.1a4.729 4.729 0 0 1-4.735 4.712l-7.115-.094a4.433 4.433 0 1 0 0 8.866h2.491z" transform="translate(-148.945 -158.213)" style="fill:#418c48"/>
                <path data-name="패스 2826" d="M371.691 273.053H364.2a.576.576 0 0 1-.577-.574v-12.945h8.642v12.945a.576.576 0 0 1-.577.574" transform="translate(-261.5 -186.998)" style="fill:#91d09f"/>
                <path data-name="사각형 1601" transform="translate(102.125 73.5)" style="fill:#56b36b" d="M0 0h8.642v.279H0z"/>
                <path data-name="사각형 1602" transform="translate(102.125 84.496)" style="fill:#56b36b" d="M0 0h8.642v.279H0z"/>
                <path data-name="패스 2827" d="M378.792 207.215h-.281v-13.48a6.839 6.839 0 0 1 6.848-6.815h.279v.28h-.279a6.559 6.559 0 0 0-6.567 6.535z" transform="translate(-272.205 -134.679)" style="fill:#418c48"/>
                <path data-name="패스 2828" d="M361.949 197.023h-.281a4.294 4.294 0 0 0-1.269-3.208c-1.888-1.835-5.267-1.781-5.3-1.779l-.007-.279c.143 0 3.53-.061 5.5 1.858a4.562 4.562 0 0 1 1.354 3.409" transform="translate(-255.363 -138.163)" style="fill:#418c48"/>
                <path data-name="패스 2829" d="M361.949 224.542h-.281a4.294 4.294 0 0 0-1.269-3.208c-1.888-1.835-5.267-1.781-5.3-1.779l-.007-.279c.143 0 3.53-.061 5.5 1.858a4.562 4.562 0 0 1 1.354 3.409" transform="translate(-255.363 -157.991)" style="fill:#418c48"/>
                <path data-name="패스 2830" d="M379.552 171.785h-.281c0-6.354-3.239-7.78-3.271-7.794l.108-.258c.141.059 3.443 1.513 3.443 8.051" transform="translate(-270.399 -117.973)" style="fill:#418c48"/>
                <path data-name="패스 2831" d="M378.792 215.369h-.281a4.562 4.562 0 0 1 1.354-3.409c1.974-1.919 5.364-1.861 5.5-1.858l-.006.279c-.035 0-3.414-.057-5.3 1.779a4.294 4.294 0 0 0-1.269 3.208" transform="translate(-272.205 -151.381)" style="fill:#418c48"/>
                <path data-name="패스 2832" d="M378.792 236.418h-.281a4.562 4.562 0 0 1 1.354-3.409c1.974-1.919 5.364-1.861 5.5-1.858l-.006.279c-.035 0-3.414-.057-5.3 1.779a4.294 4.294 0 0 0-1.269 3.208" transform="translate(-272.205 -166.547)" style="fill:#418c48"/>
                <path data-name="패스 2833" d="m387.506 168.883-.185-.21c2.683-2.346 1.461-5.965 1.448-6l.265-.092c.013.038 1.3 3.831-1.528 6.3" transform="translate(-278.541 -117.141)" style="fill:#418c48"/>
                <path data-name="사각형 1603" transform="translate(88.315 65.507)" style="fill:#418c48" d="M0 0h.237v12.997H0z"/>
                <path data-name="패스 10943" d="M0 0h.236l.015 13H.015z" transform="rotate(-13.1 338.822 -331.99)" style="fill:#418c48"/>
                <path data-name="패스 10944" d="m0 0 13 .015v.236L0 .236z" transform="rotate(-76.94 95.617 -16.256)" style="fill:#418c48"/>
                <path data-name="사각형 1606" transform="translate(13.63 138.36)" style="fill:#91d09f" d="M0 0h29.083v5.037H0z"/>
                <path data-name="패스 2834" d="M72.947 540.84H53.2a1.768 1.768 0 0 1-1.759-1.558l-2.911-24.206h29.083l-2.907 24.206a1.769 1.769 0 0 1-1.76 1.558" transform="translate(-34.9 -371.12)" style="fill:#91d09f"/>
                <path data-name="패스 2835" d="M100.086 316.577h-.281v-63.114a6.152 6.152 0 0 1 10.491-4.324l12.892 12.829-.2.2-12.888-12.831a5.87 5.87 0 0 0-10.011 4.126z" transform="translate(-71.774 -178.218)" style="fill:#418c48"/>
                <path data-name="패스 2836" d="m118.421 347.845-10.348-10.3a4.684 4.684 0 0 0-7.989 3.293H99.8a4.966 4.966 0 0 1 8.468-3.491l10.348 10.3z" transform="translate(-71.774 -242.024)" style="fill:#418c48"/>
                <path data-name="패스 2837" d="M100.086 410.626h-.281a4.965 4.965 0 0 1 8.468-3.491l-.2.2a4.684 4.684 0 0 0-7.988 3.293" transform="translate(-71.774 -292.306)" style="fill:#418c48"/>
                <path data-name="패스 2838" d="M79.123 401.41h-.281a4.684 4.684 0 0 0-7.988-3.293l-.2-.2a4.965 4.965 0 0 1 8.468 3.49" transform="translate(-50.811 -285.665)" style="fill:#418c48"/>
                <path data-name="패스 2839" d="M100.086 442.742h-.281a3.327 3.327 0 0 1 5.673-2.339l-.2.2a3.046 3.046 0 0 0-5.194 2.141" transform="translate(-71.774 -316.619)" style="fill:#418c48"/>
                <path data-name="패스 2840" d="M86.11 432.984h-.281a3.045 3.045 0 0 0-5.194-2.141l-.2-.2a3.326 3.326 0 0 1 5.673 2.338" transform="translate(-57.846 -309.589)" style="fill:#418c48"/>
                <path data-name="패스 2841" d="m27.578 328.707-.2-.2 12.154-12.095A4.965 4.965 0 0 1 48 319.905h-.28a4.684 4.684 0 0 0-7.988-3.293z" transform="translate(-19.69 -226.94)" style="fill:#418c48"/>
                <path data-name="패스 2842" d="m48.513 281.151-.2-.2 6.275-6.244a4.965 4.965 0 0 1 8.468 3.49h-.281a4.684 4.684 0 0 0-7.988-3.293z" transform="translate(-34.745 -196.89)" style="fill:#418c48"/>
                <path data-name="패스 10945" d="m0 0 4.183.011V.29L0 .279z" transform="rotate(-45 119.281 9.728)" style="fill:#418c48"/>
                <path data-name="패스 10946" d="M0 0h.279L.29 4.184H.011z" transform="rotate(-45 134.867 20.382)" style="fill:#418c48"/>
                <path data-name="패스 10947" d="M0 0h.278L.3 8.887H.024z" transform="rotate(-45 168.42 44.723)" style="fill:#418c48"/>
                <path data-name="패스 10948" d="m0 0 18.407.049v.276L0 .276z" transform="rotate(-45 182.974 30.37)" style="fill:#418c48"/>
                <path data-name="사각형 1611" transform="translate(51.962 166.136)" style="fill:#418c48" d="M0 0h2.549v3.584H0z"/>
                <path data-name="사각형 1612" transform="translate(74.502 166.136)" style="fill:#418c48" d="M0 0h2.549v3.584H0z"/>
                <path data-name="패스 2843" d="M211.42 543.607h-18.635a1.3 1.3 0 0 1-1.283-1.541l2.8-14.774h15.607l2.8 14.774a1.3 1.3 0 0 1-1.283 1.541" transform="translate(-137.701 -379.922)" style="fill:#91d09f"/>
                <path data-name="사각형 1613" transform="translate(55.716 148.781)" style="fill:#56b36b" d="M0 0h17.389v.559H0z"/>
                <path data-name="패스 2844" d="M229.087 444.452h-.281v-26.87a5.282 5.282 0 0 1 5.289-5.264h5.146v.28H234.1a5 5 0 0 0-5.008 4.984z" transform="translate(-164.545 -297.081)" style="fill:#418c48"/>
                <path data-name="패스 2845" d="m229.151 486.308-.2-.2 11.171-11.116a2.84 2.84 0 0 1 4 0l2.145 2.135-.2.2-2.145-2.135a2.558 2.558 0 0 0-3.6 0z" transform="translate(-164.65 -341.648)" style="fill:#418c48"/>
                <path data-name="패스 2846" d="m203.679 465.4-4.839-4.815a2.508 2.508 0 0 0-3.534 0l-1.438 1.431-.173-.172 1.438-1.431a2.753 2.753 0 0 1 3.88 0l4.839 4.815z" transform="translate(-139.296 -331.157)" style="fill:#418c48"/>
                <path data-name="패스 2847" d="M199.3 69.08a3.416 3.416 0 0 1 2.318-.767 3.375 3.375 0 0 1-.771 2.307 3.416 3.416 0 0 1-2.318.767 3.376 3.376 0 0 1 .771-2.307" transform="translate(-142.773 -49.219)" style="fill:#73be84"/>
                <path data-name="패스 2848" d="M200.3 81.555a3.409 3.409 0 0 1 2.184 1.089 2.736 2.736 0 0 1-4.369 0 3.408 3.408 0 0 1 2.184-1.089" transform="translate(-142.474 -58.762)" style="fill:#73be84"/>
                <path data-name="패스 2849" d="M187.17 69.891a3.383 3.383 0 0 0-1.094-2.174 2.706 2.706 0 0 0 0 4.348 3.383 3.383 0 0 0 1.094-2.174" transform="translate(-133.029 -48.791)" style="fill:#73be84"/>
                <path data-name="패스 10949" d="m0 0 8.943.024V.3L0 .278z" transform="rotate(-45 57.53 -48.742)" style="fill:#418c48"/>
                <path data-name="사각형 1615" transform="rotate(-1.318 1062.903 -2333.109)" style="fill:#418c48" d="M0 0h3.878v.28H0z"/>
                <path data-name="사각형 1616" transform="rotate(-88.685 39.174 -14.682)" style="fill:#418c48" d="M0 0h3.859v.281H0z"/>
                <path data-name="패스 2850" d="M93.35 143.938c0 .352-.848.637-1.2.637a.637.637 0 1 1 0-1.274c.354 0 1.2.285 1.2.637" transform="translate(-65.807 -103.25)" style="fill:#91d09f"/>
                <path data-name="패스 2851" d="M93.35 138.08c0 .352-.848.637-1.2.637a.637.637 0 1 1 0-1.274c.354 0 1.2.285 1.2.637" transform="translate(-65.807 -99.03)" style="fill:#91d09f"/>
                <path data-name="패스 2852" d="M93.35 132.223c0 .352-.848.637-1.2.637a.637.637 0 1 1 0-1.274c.354 0 1.2.285 1.2.637" transform="translate(-65.807 -94.81)" style="fill:#91d09f"/>
                <path data-name="패스 2853" d="M93.35 126.365c0 .352-.848.637-1.2.637a.637.637 0 1 1 0-1.274c.354 0 1.2.285 1.2.637" transform="translate(-65.807 -90.589)" style="fill:#91d09f"/>
                <path data-name="패스 2854" d="M93.35 120.507c0 .352-.848.637-1.2.637a.637.637 0 1 1 0-1.274c.354 0 1.2.285 1.2.637" transform="translate(-65.807 -86.368)" style="fill:#91d09f"/>
                <path data-name="패스 2855" d="M98.068 143.938c0 .352.848.637 1.2.637a.637.637 0 1 0 0-1.274c-.354 0-1.2.285-1.2.637" transform="translate(-70.525 -103.25)" style="fill:#91d09f"/>
                <path data-name="패스 2856" d="M98.068 138.08c0 .352.848.637 1.2.637a.637.637 0 1 0 0-1.274c-.354 0-1.2.285-1.2.637" transform="translate(-70.525 -99.03)" style="fill:#91d09f"/>
                <path data-name="패스 2857" d="M98.068 132.223c0 .352.848.637 1.2.637a.637.637 0 1 0 0-1.274c-.354 0-1.2.285-1.2.637" transform="translate(-70.525 -94.81)" style="fill:#91d09f"/>
                <path data-name="패스 2858" d="M98.068 126.365c0 .352.848.637 1.2.637a.637.637 0 1 0 0-1.274c-.354 0-1.2.285-1.2.637" transform="translate(-70.525 -90.589)" style="fill:#91d09f"/>
                <path data-name="패스 2859" d="M98.068 120.507c0 .352.848.637 1.2.637a.637.637 0 1 0 0-1.274c-.354 0-1.2.285-1.2.637" transform="translate(-70.525 -86.368)" style="fill:#91d09f"/>
                <path data-name="패스 2860" d="M95.808 111.838a1.963 1.963 0 0 1 .635-1.261 1.571 1.571 0 0 1 0 2.523 1.963 1.963 0 0 1-.635-1.261" transform="translate(-68.9 -79.672)" style="fill:#91d09f"/>
                <path data-name="패스 2861" d="M229.12 454.685h-.281a2.857 2.857 0 0 1 2.861-2.847h4.926v.28H231.7a2.577 2.577 0 0 0-2.58 2.568" transform="translate(-164.569 -325.556)" style="fill:#418c48"/>
                <path data-name="패스 2862" d="M192.562 427.55h6.407a5.428 5.428 0 0 0-5.442-5.415h-6.407a5.428 5.428 0 0 0 5.442 5.415" transform="translate(-134.567 -304.154)" style="fill:#479e57"/>
                <path data-name="패스 2863" d="M209.833 434.169h-.281a2.577 2.577 0 0 0-2.58-2.568h-4.926v-.279h4.926a2.857 2.857 0 0 1 2.861 2.847" transform="translate(-145.301 -310.774)" style="fill:#418c48"/>
                <path data-name="패스 2864" d="M192.562 502.555h6.407a5.428 5.428 0 0 0-5.442-5.415h-6.407a5.428 5.428 0 0 0 5.442 5.415" transform="translate(-134.567 -358.197)" style="fill:#479e57"/>
                <path data-name="패스 2865" d="M209.833 509.174h-.281a2.577 2.577 0 0 0-2.58-2.568h-4.926v-.279h4.926a2.857 2.857 0 0 1 2.861 2.847" transform="translate(-145.301 -364.816)" style="fill:#418c48"/>
                <path data-name="패스 2866" d="M203.439 379.161v1.439a1.019 1.019 0 0 0 1.021 1.017h7.073v2.9h1.512v-2.9h38.491v2.9h1.512v-2.9h9.61a1.019 1.019 0 0 0 1.021-1.017v-1.435z" transform="translate(-146.303 -273.191)" style="fill:#418c48"/>
                <path data-name="패스 2867" d="M290.294 242.817a29.716 29.716 0 0 0-5.359-7.609 28.75 28.75 0 0 0 8 16.52 29.593 29.593 0 0 0-2.645-8.911" transform="translate(-204.91 -169.471)" style="fill:#479e57"/>
                <path data-name="패스 2868" d="M318.956 242.817a29.716 29.716 0 0 1 5.359-7.609 28.751 28.751 0 0 1-8 16.52 29.6 29.6 0 0 1 2.645-8.911" transform="translate(-227.474 -169.471)" style="fill:#479e57"/>
                <path data-name="패스 10950" d="M0 0h.234l.028 13.009H.027z" transform="rotate(-25.429 197.76 -147.559)" style="fill:#418c48"/>
                <path data-name="패스 10951" d="m0 0 13.008.027v.234L0 .234z" transform="rotate(-64.618 109.303 -28.864)" style="fill:#418c48"/>
                <path data-name="패스 2869" d="M305.7 278.758h-11.752l1.4 8.146h8.952z" transform="translate(-211.392 -200.849)" style="fill:#418c48"/>
                <path data-name="패스 2870" d="M370.244 194.017a1.044 1.044 0 1 1-1.044-1.039 1.041 1.041 0 0 1 1.044 1.039" transform="translate(-264.759 -139.043)" style="fill:#73be84"/>
                <path data-name="패스 2871" d="M383.434 171.519a1.044 1.044 0 1 1-1.044-1.039 1.041 1.041 0 0 1 1.044 1.039" transform="translate(-274.244 -122.833)" style="fill:#73be84"/>
                <path data-name="패스 2872" d="M386.021 211.891a1.044 1.044 0 1 1-1.044-1.039 1.041 1.041 0 0 1 1.044 1.039" transform="translate(-276.105 -151.922)" style="fill:#73be84"/>
                <path data-name="패스 2873" d="M368.359 220.8a1.044 1.044 0 1 1-1.044-1.039 1.041 1.041 0 0 1 1.044 1.039" transform="translate(-263.403 -158.341)" style="fill:#73be84"/>
                <path data-name="패스 2874" d="M383.434 193.106a1.044 1.044 0 1 1-1.044-1.039 1.041 1.041 0 0 1 1.044 1.039" transform="translate(-274.244 -138.387)" style="fill:#73be84"/>
                <path data-name="패스 2875" d="M320.129 540.9h-.281v-9.47a6.839 6.839 0 0 1 6.848-6.815h8.17v.279H326.7a6.559 6.559 0 0 0-6.567 6.536z" transform="translate(-230.018 -377.99)" style="fill:#418c48"/>
                <path data-name="패스 2876" d="M282.235 521.665h-.281a6.559 6.559 0 0 0-6.567-6.535h-8.17v-.279h8.17a6.839 6.839 0 0 1 6.848 6.815" transform="translate(-192.168 -370.957)" style="fill:#418c48"/>
                <path data-name="패스 2877" d="M320.129 453.179h-.281V439.7a6.839 6.839 0 0 1 6.848-6.815h8.17v.279H326.7a6.559 6.559 0 0 0-6.567 6.535z" transform="translate(-230.018 -311.9)" style="fill:#418c48"/>
                <path data-name="패스 2878" d="M302.519 474.309h-.281V439.7a6.559 6.559 0 0 0-6.567-6.535h-.279v-.279h.279a6.839 6.839 0 0 1 6.848 6.815z" transform="translate(-212.43 -311.9)" style="fill:#418c48"/>
                <path data-name="패스 2879" d="M474.751 323.474a6.908 6.908 0 0 0-.147-9.945 7.022 7.022 0 0 0-9.37-.17 6.9 6.9 0 0 0-2.221 3.769 5.275 5.275 0 0 1-2.356 3.319 5.315 5.315 0 0 0-1.175 1.028 5.26 5.26 0 1 0 8.47 6.207 5.35 5.35 0 0 1 3.369-2.338 6.934 6.934 0 0 0 3.43-1.869" transform="translate(-329.544 -224.549)" style="fill:#479e57"/>
                <path data-name="패스 10952" d="m0 0 23.307.063v.274L0 .274z" transform="rotate(-45.001 192.339 -100.676)" style="fill:#418c48"/>
                <path data-name="사각형 1620" transform="translate(139.514 89.176)" style="fill:#418c48" d="M0 0h.281v5.479H0z"/>
                <path data-name="사각형 1621" transform="translate(136.209 92.464)" style="fill:#418c48" d="M0 0h.281v5.479H0z"/>
                <path data-name="사각형 1622" transform="translate(132.904 95.753)" style="fill:#418c48" d="M0 0h.281v5.479H0z"/>
                <path data-name="사각형 1623" transform="translate(139.654 94.515)" style="fill:#418c48" d="M0 0h5.506v.279H0z"/>
                <path data-name="사각형 1624" transform="translate(136.35 97.804)" style="fill:#418c48" d="M0 0h5.506v.279H0z"/>
                <path data-name="사각형 1625" transform="translate(133.045 101.092)" style="fill:#418c48" d="M0 0h5.506v.279H0z"/>
                <path data-name="패스 2880" d="M332.081 462.344a7.141 7.141 0 0 0 11.013 5.747 5.454 5.454 0 0 1 4.121-.706 5.482 5.482 0 0 0 1.6.1 5.4 5.4 0 0 0 4.933-5z" transform="translate(-238.815 -333.126)" style="fill:#479e57"/>
                <path data-name="패스 10953" d="m0 0 5.625.015v.279L0 .279z" transform="rotate(-45.001 209.258 -50.813)" style="fill:#418c48"/>
                <path data-name="패스 10954" d="m0 0 5.625.015v.279L0 .279z" transform="rotate(-45.001 211.651 -56.59)" style="fill:#418c48"/>
                <path data-name="패스 10955" d="m0 0 3.022.008v.28L0 .279z" transform="rotate(-45.001 212.75 -65.513)" style="fill:#418c48"/>
                <path data-name="패스 2881" d="M368 346.447a10.4 10.4 0 1 0-9.543 17.479 7.936 7.936 0 0 1 4.991 3.507 7.9 7.9 0 0 0 11.827 1.66 7.838 7.838 0 0 0-.949-12.522 7.967 7.967 0 0 1-3.516-5.016 10.3 10.3 0 0 0-2.81-5.108" transform="translate(-251.862 -247.431)" style="fill:#73be84"/>
                <path data-name="패스 10956" d="M0 0h.272l.093 34.874H.094z" transform="rotate(-45 172.99 -73.848)" style="fill:#418c48"/>
                <path data-name="사각형 1630" transform="translate(101.481 107.144)" style="fill:#418c48" d="M0 0h8.238v.279H0z"/>
                <path data-name="사각형 1631" transform="translate(106.425 112.064)" style="fill:#418c48" d="M0 0h8.238v.279H0z"/>
                <path data-name="사각형 1632" transform="translate(111.37 116.985)" style="fill:#418c48" d="M0 0h8.238v.279H0z"/>
                <path data-name="사각형 1633" transform="translate(109.578 99.086)" style="fill:#418c48" d="M0 0h.281v8.198H0z"/>
                <path data-name="사각형 1634" transform="translate(114.523 104.006)" style="fill:#418c48" d="M0 0h.281v8.198H0z"/>
                <path data-name="사각형 1635" transform="translate(119.468 108.927)" style="fill:#418c48" d="M0 0h.281v8.198H0z"/>
                <path data-name="패스 2882" d="M469.848 377.013a10.4 10.4 0 1 1 9.543 17.479A7.936 7.936 0 0 0 474.4 398a7.9 7.9 0 0 1-11.827 1.66 7.838 7.838 0 0 1 .949-12.522 7.966 7.966 0 0 0 3.516-5.016 10.3 10.3 0 0 1 2.81-5.108" transform="translate(-330.722 -269.454)" style="fill:#73be84"/>
                <path data-name="패스 10957" d="m0 0 34.874.094v.271L0 .272z" transform="rotate(-45.001 225.042 -87.04)" style="fill:#418c48"/>
                <path data-name="사각형 1637" transform="translate(145.547 115.687)" style="fill:#418c48" d="M0 0h8.238v.279H0z"/>
                <path data-name="사각형 1638" transform="translate(140.603 120.607)" style="fill:#418c48" d="M0 0h8.238v.279H0z"/>
                <path data-name="사각형 1639" transform="translate(135.658 125.527)" style="fill:#418c48" d="M0 0h8.238v.279H0z"/>
                <path data-name="사각형 1640" transform="translate(145.407 107.628)" style="fill:#418c48" d="M0 0h.281v8.198H0z"/>
                <path data-name="사각형 1641" transform="translate(140.462 112.548)" style="fill:#418c48" d="M0 0h.281v8.198H0z"/>
                <path data-name="사각형 1642" transform="translate(135.518 117.469)" style="fill:#418c48" d="M0 0h.281v8.198H0z"/>
                <path data-name="사각형 1643" transform="translate(127.493 84.017)" style="fill:#418c48" d="M0 0h.281v68.059H0z"/>
                <path data-name="패스 2883" d="M438.4 544.274h-10.62a3.027 3.027 0 0 1-3.034-3.02v-21.413h16.684v21.413a3.027 3.027 0 0 1-3.034 3.02" transform="translate(-305.455 -374.553)" style="fill:#91d09f"/>
                <path data-name="패스 2884" d="m366.393 471.835-6.987-6.953a9.427 9.427 0 0 0-6.693-2.759h-20.57v-.279h20.57a9.707 9.707 0 0 1 6.892 2.841l6.987 6.953z" transform="translate(-238.86 -332.765)" style="fill:#418c48"/>
                <path data-name="패스 2885" d="M521.339 478.76a7.14 7.14 0 0 1-11.013 5.747 5.454 5.454 0 0 0-4.121-.706 5.489 5.489 0 0 1-1.6.1 5.4 5.4 0 0 1-4.933-5z" transform="translate(-359.339 -344.954)" style="fill:#479e57"/>
                <path data-name="패스 10958" d="M0 0h.279l.015 5.625H.015z" transform="rotate(-45 238.566 -118.768)" style="fill:#418c48"/>
                <path data-name="패스 10959" d="M0 0h.279l.015 5.625H.015z" transform="rotate(-45 236.173 -112.99)" style="fill:#418c48"/>
                <path data-name="패스 10960" d="M0 0h.279l.009 3.023h-.28z" transform="rotate(-45 233.78 -107.214)" style="fill:#418c48"/>
                <path data-name="패스 2886" d="m454.293 488.251-.2-.2 6.987-6.953a9.707 9.707 0 0 1 6.892-2.841h20.57v.28h-20.57a9.428 9.428 0 0 0-6.694 2.759z" transform="translate(-326.56 -344.593)" style="fill:#418c48"/>
                <path data-name="패스 2887" d="M491.22 288.112a3.925 3.925 0 0 1-6.054 3.159 3 3 0 0 0-2.266-.388 3.009 3.009 0 0 1-.879.057 2.97 2.97 0 0 1-2.712-2.746z" transform="translate(-344.694 -207.589)" style="fill:#479e57"/>
                <path data-name="패스 10961" d="M0 0h.279l.009 3.093h-.28z" transform="rotate(-45 168.358 -131.082)" style="fill:#418c48"/>
                <path data-name="패스 10962" d="M0 0h.279l.009 3.093h-.28z" transform="rotate(-45 167.042 -127.906)" style="fill:#418c48"/>
                <path data-name="패스 10963" d="M0 0h.28v1.661H0z" transform="rotate(-45 165.69 -124.751)" style="fill:#418c48"/>
                <path data-name="패스 2888" d="m454.293 293.212-.2-.2 3.841-3.822a5.4 5.4 0 0 1 3.834-1.58h11.308v.28h-11.308a5.121 5.121 0 0 0-3.635 1.5z" transform="translate(-326.56 -207.229)" style="fill:#418c48"/>
                <path data-name="패스 2889" d="M405.887 271.693a2.834 2.834 0 0 0 4.37 2.281 2.164 2.164 0 0 1 1.635-.28 2.171 2.171 0 0 0 .634.041 2.144 2.144 0 0 0 1.958-1.983z" transform="translate(-291.892 -195.759)" style="fill:#479e57"/>
                <path data-name="패스 10964" d="m0 0 2.232.006v.28L0 .28z" transform="rotate(-45 151.224 -100.702)" style="fill:#418c48"/>
                <path data-name="패스 10965" d="m0 0 2.232.006v.28L0 .28z" transform="rotate(-45 152.175 -102.995)" style="fill:#418c48"/>
                <path data-name="패스 10966" d="M0 0h1.2v.28H0z" transform="rotate(-45 152.611 -106.536)" style="fill:#418c48"/>
                <path data-name="패스 2890" d="M419.683 285.618h-.283v-6.512a9.2 9.2 0 0 0-2.732-6.563 3.657 3.657 0 0 0-2.6-1.07h-8.163v-.28h8.163a3.937 3.937 0 0 1 2.795 1.152 9.474 9.474 0 0 1 2.814 6.76z" transform="translate(-291.91 -195.399)" style="fill:#418c48"/>
                <path data-name="패스 2891" d="M405.887 330.756a2.834 2.834 0 0 0 4.37 2.281 2.165 2.165 0 0 1 1.635-.28 2.166 2.166 0 0 0 .634.041 2.144 2.144 0 0 0 1.958-1.983z" transform="translate(-291.892 -238.314)" style="fill:#479e57"/>
                <path data-name="패스 2892" d="M405.887 323.531a2.834 2.834 0 0 1 4.37-2.281 2.165 2.165 0 0 0 1.635.28 2.169 2.169 0 0 1 .634-.041 2.144 2.144 0 0 1 1.958 1.983z" transform="translate(-291.892 -231.139)" style="fill:#73be84"/>
                <path data-name="패스 10967" d="m0 0 2.232.006v.28L0 .28z" transform="rotate(-45 171.15 -92.444)" style="fill:#418c48"/>
                <path data-name="패스 10968" d="m0 0 2.232.006v.28L0 .28z" transform="rotate(-45 172.1 -94.738)" style="fill:#418c48"/>
                <path data-name="패스 10969" d="M0 0h1.2v.28H0z" transform="rotate(-45 172.538 -98.278)" style="fill:#418c48"/>
                <path data-name="패스 10970" d="M0 0h.28l.006 2.233h-.28z" transform="rotate(-45 167.588 -93.92)" style="fill:#418c48"/>
                <path data-name="패스 10971" d="M0 0h.28l.006 2.233h-.28z" transform="rotate(-45 168.538 -96.214)" style="fill:#418c48"/>
                <path data-name="패스 10972" d="M0 0h.28v1.2H0z" transform="rotate(-45 170.702 -99.05)" style="fill:#418c48"/>
                <path data-name="패스 2893" d="M419.683 338.169h-.283a9.2 9.2 0 0 0-2.732-6.563 3.658 3.658 0 0 0-2.6-1.07h-8.163v-.279h8.163a3.937 3.937 0 0 1 2.795 1.152 9.474 9.474 0 0 1 2.814 6.76" transform="translate(-291.91 -237.955)" style="fill:#418c48"/>
                <path data-name="패스 2894" d="M411.08 141.05h-.28v-7.94a7.407 7.407 0 0 0-7.417-7.38h-11.357v-.279h11.357a7.687 7.687 0 0 1 7.7 7.66z" transform="translate(-281.924 -90.389)" style="fill:#418c48"/>
                <path data-name="패스 2895" d="M427.612 84.372c.848.844 1.2 1.861.791 2.27s-1.433.058-2.281-.787-1.2-1.86-.791-2.27 1.433-.057 2.281.787" transform="translate(-305.752 -60.101)" style="fill:#479e57"/>
                <path data-name="패스 2896" d="M416.838 84.372c.848.844 1.2 1.861.791 2.27s-1.433.058-2.281-.787-1.2-1.86-.791-2.27 1.433-.057 2.281.787" transform="translate(-298.004 -60.101)" style="fill:#479e57"/>
                <path data-name="패스 2897" d="M406.063 84.372c.848.844 1.2 1.861.791 2.27s-1.433.058-2.281-.787-1.2-1.86-.791-2.27 1.433-.057 2.281.787" transform="translate(-290.255 -60.101)" style="fill:#479e57"/>
                <path data-name="패스 2898" d="M395.289 84.372c.848.844 1.2 1.861.791 2.27s-1.433.058-2.281-.787-1.2-1.86-.791-2.27 1.433-.057 2.281.787" transform="translate(-282.507 -60.101)" style="fill:#479e57"/>
                <path data-name="패스 2899" d="M384.514 84.372c.848.844 1.2 1.861.791 2.27s-1.433.058-2.281-.787-1.2-1.86-.791-2.27 1.433-.057 2.281.787" transform="translate(-274.758 -60.101)" style="fill:#479e57"/>
                <path data-name="패스 2900" d="M427.612 96.793c.848-.844 1.2-1.861.791-2.27s-1.433-.058-2.281.787-1.2 1.86-.791 2.27 1.433.057 2.281-.787" transform="translate(-305.752 -67.982)" style="fill:#479e57"/>
                <path data-name="패스 2901" d="M416.838 96.793c.848-.844 1.2-1.861.791-2.27s-1.433-.058-2.281.787-1.2 1.86-.791 2.27 1.433.057 2.281-.787" transform="translate(-298.004 -67.982)" style="fill:#479e57"/>
                <path data-name="패스 2902" d="M406.063 96.793c.848-.844 1.2-1.861.791-2.27s-1.433-.058-2.281.787-1.2 1.86-.791 2.27 1.433.057 2.281-.787" transform="translate(-290.255 -67.982)" style="fill:#479e57"/>
                <path data-name="패스 2903" d="M395.289 96.793c.848-.844 1.2-1.861.791-2.27s-1.433-.058-2.281.787-1.2 1.86-.791 2.27 1.433.057 2.281-.787" transform="translate(-282.507 -67.982)" style="fill:#479e57"/>
                <path data-name="패스 2904" d="M384.514 96.793c.848-.844 1.2-1.861.791-2.27s-1.433-.058-2.281.787-1.2 1.86-.791 2.27 1.433.057 2.281-.787" transform="translate(-274.758 -67.982)" style="fill:#479e57"/>
                <path data-name="패스 2905" d="M411.08 110.064h-.28v-7.94a7.407 7.407 0 0 0-7.417-7.38h-11.357v-.279h11.357a7.687 7.687 0 0 1 7.7 7.66z" transform="translate(-281.924 -68.063)" style="fill:#418c48"/>
                <path data-name="패스 2906" d="M427.612 55.479c.848.844 1.2 1.861.791 2.27s-1.433.058-2.281-.787-1.2-1.86-.791-2.27 1.433-.057 2.281.787" transform="translate(-305.752 -39.284)" style="fill:#479e57"/>
                <path data-name="패스 2907" d="M416.838 55.479c.848.844 1.2 1.861.791 2.27s-1.433.058-2.281-.787-1.2-1.86-.791-2.27 1.433-.057 2.281.787" transform="translate(-298.004 -39.284)" style="fill:#479e57"/>
                <path data-name="패스 2908" d="M406.063 55.479c.848.844 1.2 1.861.791 2.27s-1.433.058-2.281-.787-1.2-1.86-.791-2.27 1.433-.057 2.281.787" transform="translate(-290.255 -39.284)" style="fill:#479e57"/>
                <path data-name="패스 2909" d="M395.289 55.479c.848.844 1.2 1.861.791 2.27s-1.433.058-2.281-.787-1.2-1.86-.791-2.27 1.433-.057 2.281.787" transform="translate(-282.507 -39.284)" style="fill:#479e57"/>
                <path data-name="패스 2910" d="M384.514 55.479c.848.844 1.2 1.861.791 2.27s-1.433.058-2.281-.787-1.2-1.86-.791-2.27 1.433-.057 2.281.787" transform="translate(-274.758 -39.284)" style="fill:#479e57"/>
                <path data-name="패스 2911" d="M427.612 67.9c.848-.844 1.2-1.861.791-2.27s-1.433-.058-2.281.787-1.2 1.86-.791 2.27 1.433.057 2.281-.787" transform="translate(-305.752 -47.165)" style="fill:#479e57"/>
                <path data-name="패스 2912" d="M416.838 67.9c.848-.844 1.2-1.861.791-2.27s-1.433-.058-2.281.787-1.2 1.86-.791 2.27 1.433.057 2.281-.787" transform="translate(-298.004 -47.165)" style="fill:#479e57"/>
                <path data-name="패스 2913" d="M406.063 67.9c.848-.844 1.2-1.861.791-2.27s-1.433-.058-2.281.787-1.2 1.86-.791 2.27 1.433.057 2.281-.787" transform="translate(-290.255 -47.165)" style="fill:#479e57"/>
                <path data-name="패스 2914" d="M395.289 67.9c.848-.844 1.2-1.861.791-2.27s-1.433-.058-2.281.787-1.2 1.86-.791 2.27 1.433.057 2.281-.787" transform="translate(-282.507 -47.165)" style="fill:#479e57"/>
                <path data-name="패스 2915" d="M384.514 67.9c.848-.844 1.2-1.861.791-2.27s-1.433-.058-2.281.787-1.2 1.86-.791 2.27 1.433.057 2.281-.787" transform="translate(-274.758 -47.165)" style="fill:#479e57"/>
                <path data-name="패스 2916" d="M411.08 81.17h-.28v-7.94a7.407 7.407 0 0 0-7.417-7.38h-11.357v-.28h11.357a7.687 7.687 0 0 1 7.7 7.66z" transform="translate(-281.924 -47.244)" style="fill:#418c48"/>
                <path data-name="패스 2917" d="M482.383 136.039c-.848.844-1.2 1.861-.791 2.27s1.433.058 2.281-.787 1.2-1.86.791-2.27-1.433-.057-2.281.787" transform="translate(-346.212 -97.328)" style="fill:#479e57"/>
                <path data-name="패스 2918" d="M493.158 136.039c-.848.844-1.2 1.861-.791 2.27s1.433.058 2.281-.787 1.2-1.86.791-2.27-1.433-.057-2.281.787" transform="translate(-353.961 -97.328)" style="fill:#479e57"/>
                <path data-name="패스 2919" d="M503.932 136.039c-.848.844-1.2 1.861-.791 2.27s1.433.058 2.281-.787 1.2-1.86.791-2.27-1.433-.057-2.281.787" transform="translate(-361.709 -97.328)" style="fill:#479e57"/>
                <path data-name="패스 2920" d="M514.707 136.039c-.848.844-1.2 1.861-.791 2.27s1.433.058 2.281-.787 1.2-1.86.791-2.27-1.433-.057-2.281.787" transform="translate(-369.458 -97.328)" style="fill:#479e57"/>
                <path data-name="패스 2921" d="M525.481 136.039c-.848.844-1.2 1.861-.791 2.27s1.433.058 2.281-.787 1.2-1.86.791-2.27-1.433-.057-2.281.787" transform="translate(-377.206 -97.328)" style="fill:#479e57"/>
                <path data-name="패스 2922" d="M482.383 148.459c-.848-.844-1.2-1.861-.791-2.27s1.433-.058 2.281.787 1.2 1.861.791 2.27-1.433.057-2.281-.787" transform="translate(-346.212 -105.208)" style="fill:#479e57"/>
                <path data-name="패스 2923" d="M493.158 148.459c-.848-.844-1.2-1.861-.791-2.27s1.433-.058 2.281.787 1.2 1.861.791 2.27-1.433.057-2.281-.787" transform="translate(-353.961 -105.208)" style="fill:#479e57"/>
                <path data-name="패스 2924" d="M503.932 148.459c-.848-.844-1.2-1.861-.791-2.27s1.433-.058 2.281.787 1.2 1.861.791 2.27-1.433.057-2.281-.787" transform="translate(-361.709 -105.208)" style="fill:#479e57"/>
                <path data-name="패스 2925" d="M514.707 148.459c-.848-.844-1.2-1.861-.791-2.27s1.433-.058 2.281.787 1.2 1.861.791 2.27-1.433.057-2.281-.787" transform="translate(-369.458 -105.208)" style="fill:#479e57"/>
                <path data-name="패스 2926" d="M525.481 148.459c-.848-.844-1.2-1.861-.791-2.27s1.433-.058 2.281.787 1.2 1.861.791 2.27-1.433.057-2.281-.787" transform="translate(-377.206 -105.208)" style="fill:#479e57"/>
                <path data-name="패스 2927" d="M459.151 156.51h-.281v-2.72a7.687 7.687 0 0 1 7.7-7.66h11.357v.28h-11.36a7.407 7.407 0 0 0-7.417 7.38z" transform="translate(-329.995 -105.289)" style="fill:#418c48"/>
                <path data-name="패스 2928" d="M482.383 105.052c-.848.844-1.2 1.861-.791 2.27s1.433.058 2.281-.787 1.2-1.86.791-2.27-1.433-.057-2.281.787" transform="translate(-346.212 -75.002)" style="fill:#479e57"/>
                <path data-name="패스 2929" d="M493.158 105.052c-.848.844-1.2 1.861-.791 2.27s1.433.058 2.281-.787 1.2-1.86.791-2.27-1.433-.057-2.281.787" transform="translate(-353.961 -75.002)" style="fill:#479e57"/>
                <path data-name="패스 2930" d="M503.932 105.052c-.848.844-1.2 1.861-.791 2.27s1.433.058 2.281-.787 1.2-1.86.791-2.27-1.433-.057-2.281.787" transform="translate(-361.709 -75.002)" style="fill:#479e57"/>
                <path data-name="패스 2931" d="M514.707 105.052c-.848.844-1.2 1.861-.791 2.27s1.433.058 2.281-.787 1.2-1.86.791-2.27-1.433-.057-2.281.787" transform="translate(-369.458 -75.002)" style="fill:#479e57"/>
                <path data-name="패스 2932" d="M525.481 105.052c-.848.844-1.2 1.861-.791 2.27s1.433.058 2.281-.787 1.2-1.86.791-2.27-1.433-.057-2.281.787" transform="translate(-377.206 -75.002)" style="fill:#479e57"/>
                <path data-name="패스 2933" d="M482.383 117.473c-.848-.844-1.2-1.861-.791-2.27s1.433-.058 2.281.787 1.2 1.86.791 2.27-1.433.057-2.281-.787" transform="translate(-346.212 -82.883)" style="fill:#479e57"/>
                <path data-name="패스 2934" d="M493.158 117.473c-.848-.844-1.2-1.861-.791-2.27s1.433-.058 2.281.787 1.2 1.86.791 2.27-1.433.057-2.281-.787" transform="translate(-353.961 -82.883)" style="fill:#479e57"/>
                <path data-name="패스 2935" d="M503.932 117.473c-.848-.844-1.2-1.861-.791-2.27s1.433-.058 2.281.787 1.2 1.86.791 2.27-1.433.057-2.281-.787" transform="translate(-361.709 -82.883)" style="fill:#479e57"/>
                <path data-name="패스 2936" d="M514.707 117.473c-.848-.844-1.2-1.861-.791-2.27s1.433-.058 2.281.787 1.2 1.86.791 2.27-1.433.057-2.281-.787" transform="translate(-369.458 -82.883)" style="fill:#479e57"/>
                <path data-name="패스 2937" d="M525.481 117.473c-.848-.844-1.2-1.861-.791-2.27s1.433-.058 2.281.787 1.2 1.86.791 2.27-1.433.057-2.281-.787" transform="translate(-377.206 -82.883)" style="fill:#479e57"/>
                <path data-name="패스 2938" d="M459.151 130.744h-.281V122.8a7.687 7.687 0 0 1 7.7-7.66h11.357v.28h-11.36a7.407 7.407 0 0 0-7.417 7.38z" transform="translate(-329.995 -82.963)" style="fill:#418c48"/>
                <path data-name="패스 2939" d="M482.383 76.159c-.848.844-1.2 1.861-.791 2.27s1.433.058 2.281-.787 1.2-1.86.791-2.27-1.433-.057-2.281.787" transform="translate(-346.212 -54.184)" style="fill:#479e57"/>
                <path data-name="패스 2940" d="M493.158 76.159c-.848.844-1.2 1.861-.791 2.27s1.433.058 2.281-.787 1.2-1.86.791-2.27-1.433-.057-2.281.787" transform="translate(-353.961 -54.184)" style="fill:#479e57"/>
                <path data-name="패스 2941" d="M503.932 76.159c-.848.844-1.2 1.861-.791 2.27s1.433.058 2.281-.787 1.2-1.86.791-2.27-1.433-.057-2.281.787" transform="translate(-361.709 -54.184)" style="fill:#479e57"/>
                <path data-name="패스 2942" d="M514.707 76.159c-.848.844-1.2 1.861-.791 2.27s1.433.058 2.281-.787 1.2-1.86.791-2.27-1.433-.057-2.281.787" transform="translate(-369.458 -54.184)" style="fill:#479e57"/>
                <path data-name="패스 2943" d="M525.481 76.159c-.848.844-1.2 1.861-.791 2.27s1.433.058 2.281-.787 1.2-1.86.791-2.27-1.433-.057-2.281.787" transform="translate(-377.206 -54.184)" style="fill:#479e57"/>
                <path data-name="패스 2944" d="M482.383 88.579c-.848-.844-1.2-1.861-.791-2.27s1.433-.058 2.281.787 1.2 1.86.791 2.27-1.433.057-2.281-.787" transform="translate(-346.212 -62.064)" style="fill:#479e57"/>
                <path data-name="패스 2945" d="M493.158 88.579c-.848-.844-1.2-1.861-.791-2.27s1.433-.058 2.281.787 1.2 1.86.791 2.27-1.433.057-2.281-.787" transform="translate(-353.961 -62.064)" style="fill:#479e57"/>
                <path data-name="패스 2946" d="M503.932 88.579c-.848-.844-1.2-1.861-.791-2.27s1.433-.058 2.281.787 1.2 1.86.791 2.27-1.433.057-2.281-.787" transform="translate(-361.709 -62.064)" style="fill:#479e57"/>
                <path data-name="패스 2947" d="M514.707 88.579c-.848-.844-1.2-1.861-.791-2.27s1.433-.058 2.281.787 1.2 1.86.791 2.27-1.433.057-2.281-.787" transform="translate(-369.458 -62.064)" style="fill:#479e57"/>
                <path data-name="패스 2948" d="M525.481 88.579c-.848-.844-1.2-1.861-.791-2.27s1.433-.058 2.281.787 1.2 1.86.791 2.27-1.433.057-2.281-.787" transform="translate(-377.206 -62.064)" style="fill:#479e57"/>
                <path data-name="패스 2949" d="M459.151 101.85h-.281v-7.94a7.687 7.687 0 0 1 7.7-7.66h11.357v.279h-11.36a7.407 7.407 0 0 0-7.417 7.38z" transform="translate(-329.995 -62.144)" style="fill:#418c48"/>
                <path data-name="패스 2950" d="M444.812 179.061h-17.06l-.487-2.8H445.3z" transform="translate(-307.266 -127)" style="fill:#91d09f"/>
                <path data-name="패스 2951" d="M445.872 197.516h-11.879l-1.53-9.536H447.4z" transform="translate(-311.005 -135.442)" style="fill:#91d09f"/>
                <path data-name="사각형 1659" transform="translate(85.147 118.046)" style="fill:#418c48" d="M0 0h.281v3.395H0z"/>
                <path data-name="패스 2952" d="M307.282 456.059a3.376 3.376 0 0 1-.771-2.307 3.415 3.415 0 0 1 2.318.768 3.375 3.375 0 0 1 .771 2.307 3.416 3.416 0 0 1-2.318-.767" transform="translate(-220.425 -326.934)" style="fill:#73be84"/>
                <path data-name="패스 10973" d="M0 0h.279l.009 3.4H.009z" transform="rotate(-45 198.824 -41.432)" style="fill:#418c48"/>
                <path data-name="패스 2953" d="M307.282 504.726a3.376 3.376 0 0 1-.771-2.307 3.416 3.416 0 0 1 2.318.768 3.376 3.376 0 0 1 .771 2.307 3.416 3.416 0 0 1-2.318-.767" transform="translate(-220.425 -361.999)" style="fill:#73be84"/>
                <path data-name="패스 10974" d="M0 0h.279l.009 3.4H.009z" transform="rotate(-45 215.242 -34.631)" style="fill:#418c48"/>
                <path data-name="패스 2954" d="M324.086 485.953a3.416 3.416 0 0 1 2.318-.767 3.375 3.375 0 0 1-.771 2.307 3.416 3.416 0 0 1-2.318.767 3.376 3.376 0 0 1 .771-2.307" transform="translate(-232.509 -349.582)" style="fill:#73be84"/>
                <path data-name="패스 10975" d="m0 0 3.4.009v.279L0 .279z" transform="rotate(-45 213.265 -38.687)" style="fill:#418c48"/>
                <path data-name="패스 2955" d="M360.376 511.783a3.416 3.416 0 0 1 2.318-.767 3.375 3.375 0 0 1-.771 2.307 3.415 3.415 0 0 1-2.318.767 3.376 3.376 0 0 1 .771-2.307" transform="translate(-258.607 -368.193)" style="fill:#73be84"/>
                <path data-name="패스 10976" d="m0 0 3.4.009v.279L0 .279z" transform="rotate(-45 227.078 -47.38)" style="fill:#418c48"/>
                <path data-name="패스 2956" d="M356.41 419.844a3.416 3.416 0 0 1 2.318-.767 3.375 3.375 0 0 1-.771 2.307 3.416 3.416 0 0 1-2.318.768 3.376 3.376 0 0 1 .771-2.307" transform="translate(-255.755 -301.949)" style="fill:#73be84"/>
                <path data-name="패스 10977" d="m0 0 3.4.009v.279L0 .279z" transform="rotate(-45.001 195.474 -58.917)" style="fill:#418c48"/>
                <path data-name="패스 2957" d="M297.127 442.331a3.416 3.416 0 0 1-2.318.767 3.376 3.376 0 0 1 .771-2.307 3.415 3.415 0 0 1 2.318-.767 3.376 3.376 0 0 1-.771 2.307" transform="translate(-212.009 -317.043)" style="fill:#73be84"/>
                <path data-name="패스 10978" d="m0 0 3.4.009v.279L0 .279z" transform="rotate(-45.001 192.307 -39.48)" style="fill:#418c48"/>
                <path data-name="패스 2958" d="M293.645 522.113a3.383 3.383 0 0 1-1.094 2.174 2.707 2.707 0 0 1 0-4.348 3.383 3.383 0 0 1 1.094 2.174" transform="translate(-209.6 -374.624)" style="fill:#73be84"/>
                <path data-name="사각형 1666" transform="translate(82.81 144.094)" style="fill:#418c48" d="M0 0h.281v3.395H0z"/>
                <path data-name="패스 2959" d="M337.464 441.037a3.376 3.376 0 0 1 .771 2.307 3.415 3.415 0 0 1-2.318-.767 3.375 3.375 0 0 1-.771-2.307 3.416 3.416 0 0 1 2.318.767" transform="translate(-241.017 -317.219)" style="fill:#73be84"/>
                <path data-name="패스 10979" d="M0 0h.279l.009 3.4H.009z" transform="rotate(-45 194.193 -51.312)" style="fill:#418c48"/>
                <path data-name="패스 2960" d="M363.464 437.071a3.376 3.376 0 0 1 .771 2.307 3.415 3.415 0 0 1-2.318-.767 3.376 3.376 0 0 1-.771-2.307 3.417 3.417 0 0 1 2.318.767" transform="translate(-259.715 -314.362)" style="fill:#73be84"/>
                <path data-name="패스 10980" d="M0 0h.279l.009 3.4H.009z" transform="rotate(-45 196.505 -60.681)" style="fill:#418c48"/>
                <path data-name="패스 2961" d="M351.916 528.963a3.376 3.376 0 0 1 .771 2.307 3.416 3.416 0 0 1-2.318-.767 3.376 3.376 0 0 1-.771-2.307 3.416 3.416 0 0 1 2.318.767" transform="translate(-251.41 -380.571)" style="fill:#73be84"/>
                <path data-name="패스 10981" d="M0 0h.279l.009 3.4H.009z" transform="rotate(-45 225.886 -43.925)" style="fill:#418c48"/>
                <path data-name="사각형 1670" transform="translate(95.248 114.151)" style="fill:#418c48" d="M0 0h.281v7.144H0z"/>
                <path data-name="패스 10982" d="M0 0h.28l.006 2.363h-.28z" transform="rotate(-45 188.69 -54.184)" style="fill:#418c48"/>
                <path data-name="패스 2962" d="M343.341 415.874a3.375 3.375 0 0 0 .771-2.307 3.416 3.416 0 0 0-2.318.768 3.375 3.375 0 0 0-.771 2.307 3.416 3.416 0 0 0 2.318-.768" transform="translate(-245.244 -297.98)" style="fill:#73be84"/>
                <path data-name="패스 10983" d="m0 0 2.362.006v.28L0 .28z" transform="rotate(-45.001 191.272 -55.499)" style="fill:#418c48"/>
                <path data-name="패스 2963" d="M338.231 494.486a3.383 3.383 0 0 1 1.094-2.174 2.707 2.707 0 0 1 0 4.348 3.383 3.383 0 0 1-1.094-2.174" transform="translate(-243.238 -354.718)" style="fill:#73be84"/>
                <path data-name="패스 2964" d="M331.349 508.619a3.375 3.375 0 0 1-.771-2.307 3.415 3.415 0 0 1 2.318.767 3.375 3.375 0 0 1 .771 2.307 3.416 3.416 0 0 1-2.318-.768" transform="translate(-237.732 -364.804)" style="fill:#73be84"/>
                <path data-name="사각형 1673" transform="translate(95.945 139.768)" style="fill:#418c48" d="M0 0h.281v7.144H0z"/>
                <path data-name="패스 10984" d="M0 0h.28l.006 2.363h-.28z" transform="rotate(-45.005 219.915 -42.233)" style="fill:#418c48"/>
                <path data-name="패스 2965" d="M345.822 507.531a3.376 3.376 0 0 0 .771-2.307 3.416 3.416 0 0 0-2.318.767 3.375 3.375 0 0 0-.771 2.307 3.416 3.416 0 0 0 2.318-.767" transform="translate(-247.028 -364.02)" style="fill:#73be84"/>
                <path data-name="패스 10985" d="m0 0 2.362.006v.28L0 .28z" transform="rotate(-45 222.571 -43.497)" style="fill:#418c48"/>
                <path data-name="패스 2966" d="M314.076 588.411h-3.138a1.852 1.852 0 0 1-1.856-1.847V581.1h6.85v5.465a1.852 1.852 0 0 1-1.856 1.847" transform="translate(-222.275 -418.691)" style="fill:#91d09f"/>
                <path data-name="사각형 1676" transform="translate(86.807 163.373)" style="fill:#56b36b" d="M0 0h6.85v.279H0z"/>
                <path data-name="패스 2967" d="M259.312 362.218h-45.8v-72.65a22.9 22.9 0 0 1 45.8 0zm-45.24-.559h44.678v-72.091a22.339 22.339 0 0 0-44.678 0z" transform="translate(-153.546 -192.218)" style="fill:#73be84"/>
            </g>
        </g>
    </g>
</svg>
