<svg xmlns="http://www.w3.org/2000/svg" width="315" height="160.139" viewBox="0 0 315 160.139">
    <defs>
        <clipPath id="v687rrtvua">
            <path data-name="사각형 1443" style="fill:none" d="M0 0h160.639v123.802H0z"/>
        </clipPath>
    </defs>
    <g data-name="그룹 2352">
        <path data-name="사각형 2431" style="fill:none" d="M0 0h315v160H0z"/>
        <g data-name="그룹 1909">
            <g data-name="그룹 1891">
                <path data-name="패스 2437" d="M8.016 2.174C5.266-.528 2.661-.505 1.069 1.115S-.5 5.339 2.251 8.042s8.775 2.858 8.775 2.858-.262-6.024-3.012-8.725" transform="rotate(33 -123.553 395.432)" style="fill:#fff"/>
                <path data-name="패스 2438" d="M3.423 1.97C6.3-.6 8.9-.452 10.412 1.243S11.778 5.537 8.9 8.105 0 10.542 0 10.542s.549-6 3.424-8.572" transform="rotate(33 -129.667 413.861)" style="fill:#fff"/>
            </g>
            <g data-name="그룹 1907">
                <path data-name="패스 2437" d="M8.016 2.174C5.266-.528 2.661-.505 1.069 1.115S-.5 5.339 2.251 8.042s8.775 2.858 8.775 2.858-.262-6.024-3.012-8.725" transform="rotate(33 -113.623 428.949)" style="fill:#fff"/>
                <path data-name="패스 2438" d="M3.423 1.97C6.3-.6 8.9-.452 10.412 1.243S11.778 5.537 8.9 8.105 0 10.542 0 10.542s.549-6 3.424-8.572" transform="rotate(33 -119.737 447.378)" style="fill:#fff"/>
            </g>
            <g data-name="그룹 1908">
                <path data-name="패스 2437" d="M8.016 2.174C5.266-.528 2.661-.505 1.069 1.115S-.5 5.339 2.251 8.042s8.775 2.858 8.775 2.858-.262-6.024-3.012-8.725" transform="rotate(33 -103.279 463.862)" style="fill:#fff"/>
                <path data-name="패스 2438" d="M3.423 1.97C6.3-.6 8.9-.452 10.412 1.243S11.778 5.537 8.9 8.105 0 10.542 0 10.542s.549-6 3.424-8.572" transform="rotate(33 -109.392 482.291)" style="fill:#fff"/>
            </g>
            <path data-name="패스 2461" d="M2228.982 1179.186s-1.422-10.136 3.584-14.4" transform="translate(-2033.592 -1019.186)" style="stroke:#fff;stroke-width:2px;fill:none"/>
            <path data-name="패스 2462" d="M2228.982 1179.186s-1.422-10.136 3.584-14.4" transform="translate(-2013.722 -1019.186)" style="stroke:#fff;stroke-width:2px;fill:none"/>
            <path data-name="패스 2463" d="M2228.982 1179.186s-1.422-10.136 3.584-14.4" transform="translate(-1993.024 -1019.186)" style="stroke:#fff;stroke-width:2px;fill:none"/>
        </g>
        <g data-name="그룹 1911">
            <g data-name="그룹 1910" style="clip-path:url(#v687rrtvua)" transform="translate(61.626 3.802)">
                <path data-name="패스 2464" d="M98.185 111.223h-72.8V21.939A21.939 21.939 0 0 1 47.326 0h28.92a21.939 21.939 0 0 1 21.939 21.939z" transform="translate(-7.796)" style="fill:#90d4f6"/>
                <path data-name="패스 2465" d="M100.746 61.059h1.077a2.246 2.246 0 0 1-.079-.566 2.4 2.4 0 0 1 2.45-2.35 2.508 2.508 0 0 1 .554.066c0-.055-.008-.109-.008-.164a5.5 5.5 0 0 1 5.6-5.378 5.579 5.579 0 0 1 5.369 3.839 4.057 4.057 0 0 1 2.75 1.116 3.725 3.725 0 0 1 1.1 3.438h1.027a1.182 1.182 0 1 1 0 2.362h-19.84a1.182 1.182 0 1 1 0-2.362" transform="translate(-39.764 17.722)" style="fill:#fff"/>
                <path data-name="패스 2466" d="M104.812 29.28a3.163 3.163 0 0 0-2.74 1.583H5.907a3.168 3.168 0 1 0 0 3.167h96.165a3.166 3.166 0 1 0 2.74-4.751" transform="translate(0 -8.992)" style="fill:#8c6239"/>
                <path data-name="패스 2467" d="M104.812 27.51a3.162 3.162 0 0 0-2.74 1.584H5.907a3.167 3.167 0 1 0 0 3.167h96.165a3.166 3.166 0 1 0 2.74-4.751" transform="translate(0 -8.448)" style="fill:#c69c6d"/>
                <path data-name="사각형 1436" transform="translate(17.591 81.144)" style="fill:#56b36b" d="M0 0h73.374v30.078H0z"/>
                <path data-name="패스 2487" d="M105.7 81.069h-1.33a2.755 2.755 0 0 0 .1-.7 2.968 2.968 0 0 0-3.026-2.9 3.168 3.168 0 0 0-.685.081c0-.067.01-.134.01-.2a6.788 6.788 0 0 0-6.929-6.65 6.9 6.9 0 0 0-6.632 4.741 5.013 5.013 0 0 0-3.4 1.379 4.6 4.6 0 0 0-1.354 4.247H81.19a1.461 1.461 0 1 0 0 2.919h24.51a1.461 1.461 0 1 0 0-2.919" transform="translate(-58.915 -23.25)" style="fill:#fff"/>
                <path data-name="패스 2468" d="m66.929 107.13 3.254-9.983 3.254 9.983z" transform="translate(-20.554 -29.833)" style="fill:#56b36b"/>
                <path data-name="사각형 1437" transform="translate(49.223 74.39)" style="fill:#56b36b" d="M0 0h.813v7.417H0z"/>
                <path data-name="패스 2469" d="m61.646 107.13 3.254-9.983 3.254 9.983z" transform="translate(-18.931 -29.833)" style="fill:#56b36b"/>
                <path data-name="사각형 1438" transform="translate(45.563 74.39)" style="fill:#56b36b" d="M0 0h.813v7.417H0z"/>
                <path data-name="패스 2470" d="m71.768 107.13 3.254-9.983 3.254 9.983z" transform="translate(-22.04 -29.833)" style="fill:#56b36b"/>
                <path data-name="사각형 1439" transform="translate(52.576 74.39)" style="fill:#56b36b" d="M0 0h.813v7.417H0z"/>
                <path data-name="패스 2471" d="m106.217 107.13 3.254-9.983 3.254 9.983z" transform="translate(-32.619 -29.833)" style="fill:#56b36b"/>
                <path data-name="사각형 1440" transform="translate(76.446 74.39)" style="fill:#56b36b" d="M0 0h.813v7.417H0z"/>
                <path data-name="패스 2472" d="m100.935 107.13 3.254-9.983 3.254 9.983z" transform="translate(-30.997 -29.833)" style="fill:#56b36b"/>
                <path data-name="사각형 1441" transform="translate(72.786 74.39)" style="fill:#56b36b" d="M0 0h.813v7.417H0z"/>
                <path data-name="패스 2473" d="m111.057 107.13 3.254-9.983 3.254 9.983z" transform="translate(-34.105 -29.833)" style="fill:#56b36b"/>
                <path data-name="사각형 1442" transform="translate(79.8 74.39)" style="fill:#56b36b" d="M0 0h.813v7.417H0z"/>
                <path data-name="패스 2474" d="M110.692 29.28h7s22.842 70.191 60.615 88.322c0 0-5.844 11.9-16.17 13.063 0 0-31.19-28.751-51.445-101.385" transform="translate(-33.993 -8.992)" style="fill:#f9f6e4"/>
                <path data-name="패스 2475" d="M223.215 146.574s7.017-4.437 2.652-7.433-8.81 2.026-8.81 2.026 2.943 2.408 6.159 5.407" transform="translate(-66.657 -42.437)" style="fill:#f2ebc9"/>
                <path data-name="패스 2476" d="M110.692 29.28h7s10.578 72.305 48.351 90.436c0 0-9.037-4.924-20.33 10.949 0 0-14.766-28.751-35.021-101.385" transform="translate(-33.993 -8.992)" style="fill:#fffef5"/>
                <path data-name="패스 2477" d="M180.917 170.125s10.335-6.536 3.906-10.949-12.977 2.984-12.977 2.984 5.971 6.3 9.071 7.964" transform="translate(-52.773 -48.451)" style="fill:#f2ebc9"/>
                <path data-name="패스 2478" d="M118.417 29.28h1.648s33.883 65.59 74.431 75.779c0 0-8.569-.317-13.816 12.543 0 0-42.008-15.688-62.263-88.322" transform="translate(-36.366 -8.992)" style="fill:#fffef5"/>
                <path data-name="패스 2479" d="M116.045 29.28h-5.353s5.3 72.255 19.1 102.181c0 0 3.408-4.136 9.613 0a4.738 4.738 0 0 0 6.312-.8S128.2 90.342 116.045 29.28" transform="translate(-33.993 -8.992)" style="fill:#f9f6e4"/>
                <path data-name="패스 2480" d="M107.808 29.28h4.8s-1.333 41.233 16.292 102.181c0 0-3.4 3.474-9.6-.8 0 0-11.5-39.714-11.5-101.385" transform="translate(-33.108 -8.992)" style="fill:#fffef5"/>
                <path data-name="패스 2481" d="M19.168 29.28h7s18.174 74.872 70.682 89.032c0 0-15.91 11.192-26.237 12.352 0 0-31.19-28.751-51.445-101.385" transform="translate(-5.886 -8.992)" style="fill:#f9f6e4"/>
                <path data-name="패스 2482" d="M19.168 29.28h7s10.578 72.305 48.351 90.436c0 0-9.037-4.924-20.33 10.949 0 0-14.766-28.751-35.021-101.385" transform="translate(-5.886 -8.992)" style="fill:#fffef5"/>
                <path data-name="패스 2483" d="M89.393 170.125s10.335-6.536 3.906-10.949-12.977 2.984-12.977 2.984 5.971 6.3 9.071 7.964" transform="translate(-24.667 -48.451)" style="fill:#f2ebc9"/>
                <path data-name="패스 2484" d="M24.521 29.28h-5.353s5.3 72.255 19.1 102.181c0 0 3.408-4.136 9.613 0a4.738 4.738 0 0 0 6.312-.8S36.679 90.342 24.521 29.28" transform="translate(-5.886 -8.992)" style="fill:#f9f6e4"/>
                <path data-name="패스 2485" d="M16.283 29.28h4.8S19.75 70.513 37.379 131.461c0 0-3.4 3.474-9.6-.8 0 0-11.5-39.714-11.5-101.385" transform="translate(-5 -8.992)" style="fill:#fffef5"/>
                <path data-name="패스 2486" d="M76.343 70.8h-.809a1.688 1.688 0 0 0 .06-.425 1.8 1.8 0 0 0-1.84-1.765 1.884 1.884 0 0 0-.416.049c0-.041.006-.082.006-.123a4.127 4.127 0 0 0-4.209-4.04 4.19 4.19 0 0 0-4.035 2.88 3.047 3.047 0 0 0-2.065.838 2.8 2.8 0 0 0-.823 2.582h-.772a.888.888 0 1 0 0 1.774h14.9a.888.888 0 1 0 0-1.774" transform="translate(-6.241 -22.66)" style="fill:#fff"/>
            </g>
        </g>
    </g>
</svg>
