<svg xmlns="http://www.w3.org/2000/svg" width="315" height="160" viewBox="0 0 315 160">
    <defs>
        <clipPath id="9s5mt6m9ra">
            <path data-name="사각형 1435" style="fill:#74dae8" d="M0 0h8.96v13.859H0z"/>
        </clipPath>
        <clipPath id="oq0t3bfscb">
            <path data-name="사각형 2436" style="fill:none" d="M0 0h132.377v92.026H0z"/>
        </clipPath>
    </defs>
    <g data-name="그룹 2351">
        <path data-name="사각형 2430" style="fill:none" d="M0 0h315v160H0z"/>
        <g data-name="그룹 2350">
            <g data-name="그룹 1891">
                <path data-name="사각형 1431" transform="translate(198.321 149.969)" style="fill:#fff" d="M0 0h2.345v10.03H0z"/>
                <path data-name="사각형 1433" transform="translate(239.281 149.969)" style="fill:#fff" d="M0 0h2.345v10.03H0z"/>
                <path data-name="패스 2452" d="M21.364 11.594c-2.164-2.124-4.21-2.107-5.464-.833s-1.233 3.322.929 5.447 6.9 2.247 6.9 2.247-.206-4.737-2.369-6.861" transform="translate(175.797 131.68)" style="fill:#fff"/>
                <path data-name="패스 2456" d="M21.364 11.594c-2.164-2.124-4.21-2.107-5.464-.833s-1.233 3.322.929 5.447 6.9 2.247 6.9 2.247-.206-4.737-2.369-6.861" transform="translate(216.757 131.68)" style="fill:#fff"/>
                <path data-name="패스 2453" d="M26.422 11.713c2.261-2.019 4.306-1.9 5.5-.572s1.073 3.377-1.188 5.4-7 1.916-7 1.916.432-4.721 2.693-6.74" transform="translate(175.797 131.68)" style="fill:#fff"/>
                <path data-name="패스 2457" d="M26.422 11.713c2.261-2.019 4.306-1.9 5.5-.572s1.073 3.377-1.188 5.4-7 1.916-7 1.916.432-4.721 2.693-6.74" transform="translate(216.757 131.68)" style="fill:#fff"/>
                <path data-name="사각형 1432" transform="translate(218.8 149.969)" style="fill:#fff" d="M0 0h2.345v10.03H0z"/>
                <path data-name="패스 2454" d="M64.844 11.594c-2.162-2.124-4.21-2.107-5.462-.833s-1.233 3.322.929 5.447 6.9 2.247 6.9 2.247-.211-4.737-2.369-6.861" transform="translate(152.797 131.68)" style="fill:#fff"/>
                <path data-name="패스 2455" d="M69.9 11.713c2.261-2.019 4.306-1.9 5.5-.572s1.073 3.377-1.188 5.4-7 1.916-7 1.916.432-4.721 2.693-6.74" transform="translate(152.797 131.68)" style="fill:#fff"/>
            </g>
            <g data-name="그룹 1896">
                <g data-name="그룹 1895" transform="translate(187.941 119.597)" style="clip-path:url(#9s5mt6m9ra)">
                    <path data-name="패스 2460" d="M8.96 9.06a4.647 4.647 0 0 1-4.48 4.8A4.647 4.647 0 0 1 0 9.06C0 6.409 4.48 0 4.48 0s4.48 6.409 4.48 9.06" style="fill:#74dae8"/>
                </g>
            </g>
            <g data-name="그룹 1897">
                <g data-name="그룹 1895" transform="translate(203.477 119.597)" style="clip-path:url(#9s5mt6m9ra)">
                    <path data-name="패스 2460" d="M8.96 9.06a4.647 4.647 0 0 1-4.48 4.8A4.647 4.647 0 0 1 0 9.06C0 6.409 4.48 0 4.48 0s4.48 6.409 4.48 9.06" style="fill:#74dae8"/>
                </g>
            </g>
            <g data-name="그룹 1901">
                <g data-name="그룹 1895" transform="translate(196.901 103.597)" style="clip-path:url(#9s5mt6m9ra)">
                    <path data-name="패스 2460" d="M8.96 9.06a4.647 4.647 0 0 1-4.48 4.8A4.647 4.647 0 0 1 0 9.06C0 6.409 4.48 0 4.48 0s4.48 6.409 4.48 9.06" style="fill:#74dae8"/>
                </g>
            </g>
            <g data-name="그룹 1902">
                <g data-name="그룹 1895" transform="translate(211.181 103.597)" style="clip-path:url(#9s5mt6m9ra)">
                    <path data-name="패스 2460" d="M8.96 9.06a4.647 4.647 0 0 1-4.48 4.8A4.647 4.647 0 0 1 0 9.06C0 6.409 4.48 0 4.48 0s4.48 6.409 4.48 9.06" style="fill:#74dae8"/>
                </g>
            </g>
            <g data-name="그룹 1903">
                <g data-name="그룹 1895" transform="translate(225.461 103.597)" style="clip-path:url(#9s5mt6m9ra)">
                    <path data-name="패스 2460" d="M8.96 9.06a4.647 4.647 0 0 1-4.48 4.8A4.647 4.647 0 0 1 0 9.06C0 6.409 4.48 0 4.48 0s4.48 6.409 4.48 9.06" style="fill:#74dae8"/>
                </g>
            </g>
            <g data-name="그룹 1905">
                <g data-name="그룹 1895" transform="translate(203.477 86.597)" style="clip-path:url(#9s5mt6m9ra)">
                    <path data-name="패스 2460" d="M8.96 9.06a4.647 4.647 0 0 1-4.48 4.8A4.647 4.647 0 0 1 0 9.06C0 6.409 4.48 0 4.48 0s4.48 6.409 4.48 9.06" style="fill:#74dae8"/>
                </g>
            </g>
            <g data-name="그룹 1906">
                <g data-name="그룹 1895" transform="translate(219.013 86.597)" style="clip-path:url(#9s5mt6m9ra)">
                    <path data-name="패스 2460" d="M8.96 9.06a4.647 4.647 0 0 1-4.48 4.8A4.647 4.647 0 0 1 0 9.06C0 6.409 4.48 0 4.48 0s4.48 6.409 4.48 9.06" style="fill:#74dae8"/>
                </g>
            </g>
            <g data-name="그룹 1898">
                <g data-name="그룹 1895" transform="translate(219.013 119.597)" style="clip-path:url(#9s5mt6m9ra)">
                    <path data-name="패스 2460" d="M8.96 9.06a4.647 4.647 0 0 1-4.48 4.8A4.647 4.647 0 0 1 0 9.06C0 6.409 4.48 0 4.48 0s4.48 6.409 4.48 9.06" style="fill:#74dae8"/>
                </g>
            </g>
            <g data-name="그룹 1899">
                <g data-name="그룹 1895" transform="translate(234.548 119.597)" style="clip-path:url(#9s5mt6m9ra)">
                    <path data-name="패스 2460" d="M8.96 9.06a4.647 4.647 0 0 1-4.48 4.8A4.647 4.647 0 0 1 0 9.06C0 6.409 4.48 0 4.48 0s4.48 6.409 4.48 9.06" style="fill:#74dae8"/>
                </g>
            </g>
            <g data-name="그룹 2349">
                <path data-name="패스 10988" d="M66.845 56.2 61.87 68.578l6.782.983 8.569-10.628z" style="fill:#3e934e" transform="translate(66 11.571)"/>
                <g data-name="그룹 2348">
                    <g data-name="그룹 2347" style="clip-path:url(#oq0t3bfscb)" transform="translate(66 11.571)">
                        <path data-name="패스 10989" d="M128.222 63.77a11.728 11.728 0 0 0-8.509 6.351l-21.96-5.782-13.78-13.781-2.209 2.742 9.267 9.268-13.808-3.636-8.574 10.634 49.951 7.273a11.735 11.735 0 0 0 5.555 8.477z" style="fill:#56b36b"/>
                        <path data-name="패스 10990" d="m79.1 45.688-2.475 2.475 5.139 5.137 2.209-2.74z" style="fill:#3e934e"/>
                        <path data-name="사각형 2433" transform="rotate(-45 65.83 19.887)" style="fill:#56b36b" d="M0 0h11.968v56.079H0z"/>
                        <path data-name="사각형 2434" transform="rotate(-45 56.919 23.576)" style="fill:#3e934e" d="M0 0h11.968v7.382H0z"/>
                        <path data-name="패스 10991" d="M16.258 23.028a1.628 1.628 0 0 1 0-2.3L29.81 7.178a1.628 1.628 0 0 1 2.3 0l4.49 4.488 5.25-4.233-5-5a8.341 8.341 0 0 0-11.782 0L11.516 15.988a8.342 8.342 0 0 0 0 11.783l2.279 2.279 5.252-4.234z" style="fill:#56b36b"/>
                        <path data-name="패스 10992" d="m49.764 15.349-7.917-7.917-5.247 4.234 3.68 3.684L24.43 31.2l-5.381-5.382-5.249 4.234 10.632 10.635z" style="fill:#3e934e"/>
                        <path data-name="패스 10993" d="m128.038 86.805 4.34-23.007a11.7 11.7 0 0 0-2.7-.186L125.456 86a11.747 11.747 0 0 0 2.584.809" style="fill:#56b36b"/>
                        <path data-name="패스 10994" d="M129.678 63.613a11.49 11.49 0 0 0-1.456.158l-4.064 21.546a11.718 11.718 0 0 0 1.3.682z" style="fill:#3e934e"/>
                        <path data-name="사각형 2435" transform="rotate(-45 51.635 10.822)" style="fill:#3e934e" d="M0 0h1.402v63.461H0z"/>
                        <path data-name="패스 10995" d="M86.317 42.655 54.388 10.726l-40.91 32.98 39.857 39.857z" style="fill:#56b36b"/>
                        <path data-name="패스 10996" d="M49.372 5.709 8.462 38.691l5.017 5.016 40.909-32.982z" style="fill:#3e934e"/>
                    </g>
                </g>
            </g>
        </g>
    </g>
</svg>
