<svg xmlns="http://www.w3.org/2000/svg" width="315" height="160" viewBox="0 0 315 160">
    <g data-name="그룹 2354">
        <path data-name="사각형 2432" style="fill:none" d="M0 0h315v160H0z"/>
        <g data-name="그룹 2353">
            <path data-name="패스 3170" d="M125.312 96.508c-5.792 5.792-17.713 4.63-17.713 4.63s-1.161-11.921 4.63-17.713 19.114-6.025 19.114-6.025-.239 13.316-6.031 19.112" transform="translate(63.002 7.113)" style="fill:#56b36b"/>
            <path data-name="패스 3171" d="M92.62 85.758c5.792 5.792 17.714 4.63 17.714 4.63s1.166-11.921-4.634-17.713-19.11-6.029-19.11-6.029.237 13.316 6.03 19.112" transform="translate(60.27 5.708)" style="fill:#56b36b"/>
            <path data-name="패스 3172" d="M139.695 92.6c5.792 5.792 17.714 4.63 17.714 4.63s1.162-11.921-4.632-17.713-19.112-6.029-19.112-6.029.237 13.316 6.03 19.112" transform="translate(66.421 6.603)" style="fill:#56b36b"/>
            <path data-name="패스 3173" d="M125.312 123.15c-5.792 5.792-17.713 4.63-17.713 4.63s-1.161-11.921 4.63-17.713 19.114-6.029 19.114-6.029-.239 13.316-6.031 19.112" transform="translate(63.002 10.594)" style="fill:#56b36b"/>
            <path data-name="패스 3174" d="M98.661 136.972c-5.792 5.792-17.713 4.63-17.713 4.63s-1.161-11.921 4.63-17.713 19.114-6.029 19.114-6.029-.239 13.316-6.031 19.112" transform="translate(59.52 12.4)" style="fill:#56b36b"/>
            <path data-name="패스 3175" d="M153.811 128.992c-5.792 5.792-17.713 4.63-17.713 4.63s-1.161-11.921 4.63-17.713 19.114-6.029 19.114-6.029-.239 13.316-6.031 19.112" transform="translate(66.726 11.357)" style="fill:#56b36b"/>
            <path data-name="패스 3176" d="M180.938 84.519c-5.792 5.792-17.713 4.63-17.713 4.63s-1.161-11.921 4.63-17.713 19.114-6.029 19.114-6.029-.239 13.316-6.031 19.112" transform="translate(70.271 5.546)" style="fill:#56b36b"/>
            <path data-name="패스 3177" d="M92.62 112.4c5.792 5.792 17.714 4.63 17.714 4.63s1.162-11.921-4.632-17.713-19.112-6.029-19.112-6.029.237 13.316 6.03 19.112" transform="translate(60.27 9.189)" style="fill:#56b36b"/>
            <path data-name="패스 3178" d="M66.58 131.959c5.792 5.792 17.714 4.63 17.714 4.63s1.162-11.921-4.632-17.713-19.112-6.029-19.112-6.029.237 13.316 6.03 19.112" transform="translate(56.867 11.745)" style="fill:#56b36b"/>
            <path data-name="선 113" transform="translate(170.698 67.159)" style="stroke:#56b36b;stroke-width:.79px;fill:none" d="M0 92.164V0"/>
            <path data-name="패스 3179" d="M81.739 148.234v-20.61a42.9 42.9 0 0 0-4.809-19.8" transform="translate(59.007 11.089)" style="stroke:#56b36b;stroke-width:.79px;fill:none"/>
            <path data-name="패스 3180" d="M135.778 153.63v-35.652a20.1 20.1 0 0 1 20.1-20.1 11.343 11.343 0 0 0 11.344-11.343V66.527" transform="translate(66.697 5.693)" style="stroke:#56b36b;stroke-width:.79px;fill:none"/>
            <path data-name="패스 3181" d="M108.156 50.257a4.207 4.207 0 1 1-4.2 4.213v-.012a4.207 4.207 0 0 1 4.2-4.2" transform="translate(62.539 3.567)" style="fill:#ffe474"/>
            <path data-name="패스 3182" d="M108.018 41.3A2.984 2.984 0 0 1 111 44.284c0 1.649-1.335 5.831-2.984 5.831s-2.983-4.182-2.983-5.831a2.983 2.983 0 0 1 2.98-2.983" transform="translate(62.68 2.397)" style="fill:#ffe474"/>
            <path data-name="패스 3183" d="M108.019 67.668a2.983 2.983 0 0 1-2.983-2.983c0-1.649 1.335-5.831 2.983-5.831S111 63.036 111 64.685a2.983 2.983 0 0 1-2.983 2.983" transform="translate(62.68 4.69)" style="fill:#ffe474"/>
            <path data-name="패스 3184" d="M121.367 54.319a2.984 2.984 0 0 1-2.98 2.986h-.006c-1.647 0-5.83-1.335-5.83-2.984s4.182-2.983 5.83-2.983a2.984 2.984 0 0 1 2.986 2.98" transform="translate(63.662 3.708)" style="fill:#ffe474"/>
            <path data-name="패스 3185" d="M95 54.32a2.982 2.982 0 0 1 2.982-2.983c1.649 0 5.832 1.335 5.832 2.983s-4.183 2.986-5.832 2.986A2.983 2.983 0 0 1 95 54.322z" transform="translate(61.369 3.708)" style="fill:#ffe474"/>
            <path data-name="패스 3186" d="M117.394 45.116a2.983 2.983 0 0 1 0 4.219c-1.162 1.162-5.068 3.181-6.232 2.014s.849-5.065 2.014-6.232a2.983 2.983 0 0 1 4.219 0" transform="translate(63.435 2.781)" style="fill:#ffe474"/>
            <path data-name="패스 3187" d="M98.814 63.695a2.982 2.982 0 0 1 0-4.217c1.162-1.162 5.067-3.179 6.231-2.013s-.848 5.065-2.013 6.231a2.981 2.981 0 0 1-4.219 0" transform="translate(61.753 4.463)" style="fill:#ffe474"/>
            <path data-name="패스 3188" d="M117.394 63.695a2.981 2.981 0 0 1-4.219 0c-1.162-1.162-3.179-5.068-2.014-6.231s5.066.849 6.232 2.013a2.983 2.983 0 0 1 0 4.219" transform="translate(63.435 4.463)" style="fill:#ffe474"/>
            <path data-name="패스 3189" d="M98.814 45.116a2.984 2.984 0 0 1 4.219 0c1.161 1.163 3.178 5.068 2.013 6.232s-5.067-.849-6.231-2.014a2.981 2.981 0 0 1 0-4.216z" transform="translate(61.753 2.781)" style="fill:#ffe474"/>
            <path data-name="사각형 1821" transform="translate(156.371 43.701)" style="fill:none" d="M0 0h28.654v28.654H0z"/>
            <path data-name="패스 3190" d="M164.006 50.135a4.207 4.207 0 1 1-4.2 4.213v-.012a4.207 4.207 0 0 1 4.2-4.2" transform="translate(69.836 3.551)" style="fill:#ffe474"/>
            <path data-name="패스 3191" d="M163.868 41.182a2.984 2.984 0 0 1 2.986 2.98c0 1.649-1.335 5.831-2.984 5.831s-2.983-4.182-2.983-5.831a2.983 2.983 0 0 1 2.98-2.983" transform="translate(69.978 2.381)" style="fill:#ffe474"/>
            <path data-name="패스 3192" d="M163.869 67.546a2.983 2.983 0 0 1-2.983-2.983c0-1.649 1.335-5.831 2.983-5.831s2.983 4.182 2.983 5.831a2.983 2.983 0 0 1-2.983 2.983" transform="translate(69.978 4.674)" style="fill:#ffe474"/>
            <path data-name="패스 3193" d="M177.217 54.2a2.984 2.984 0 0 1-2.98 2.986h-.006c-1.647 0-5.83-1.335-5.83-2.984s4.182-2.983 5.83-2.983a2.984 2.984 0 0 1 2.986 2.98" transform="translate(70.959 3.692)" style="fill:#ffe474"/>
            <path data-name="패스 3194" d="M150.852 54.2a2.983 2.983 0 0 1 2.983-2.983c1.649 0 5.831 1.335 5.831 2.983s-4.182 2.986-5.831 2.986a2.984 2.984 0 0 1-2.983-2.984z" transform="translate(68.667 3.692)" style="fill:#ffe474"/>
            <path data-name="패스 3195" d="M173.244 44.994a2.982 2.982 0 0 1 0 4.219c-1.162 1.162-5.068 3.179-6.232 2.014s.849-5.067 2.014-6.232a2.982 2.982 0 0 1 4.219 0" transform="translate(70.732 2.765)" style="fill:#ffe474"/>
            <path data-name="패스 3196" d="M154.664 63.573a2.982 2.982 0 0 1 0-4.217c1.162-1.162 5.067-3.179 6.231-2.014s-.848 5.067-2.013 6.232a2.984 2.984 0 0 1-4.219 0" transform="translate(69.05 4.447)" style="fill:#ffe474"/>
            <path data-name="패스 3197" d="M173.244 63.573a2.983 2.983 0 0 1-4.219 0c-1.162-1.162-3.179-5.068-2.014-6.232s5.067.849 6.232 2.014a2.982 2.982 0 0 1 0 4.219" transform="translate(70.732 4.447)" style="fill:#ffe474"/>
            <path data-name="패스 3198" d="M154.664 44.994a2.984 2.984 0 0 1 4.219 0c1.161 1.162 3.178 5.068 2.013 6.232s-5.067-.849-6.231-2.014a2.982 2.982 0 0 1 0-4.217" transform="translate(69.05 2.765)" style="fill:#ffe474"/>
            <path data-name="패스 3199" d="M69.823 95.206a4.207 4.207 0 1 1-4.2 4.213v-.012a4.207 4.207 0 0 1 4.2-4.2" transform="translate(57.53 9.44)" style="fill:#ffe474"/>
            <path data-name="패스 3200" d="M69.684 86.252a2.984 2.984 0 0 1 2.986 2.98c0 1.649-1.335 5.831-2.984 5.831s-2.986-4.18-2.986-5.828a2.983 2.983 0 0 1 2.98-2.983" transform="translate(57.671 8.27)" style="fill:#ffe474"/>
            <path data-name="패스 3201" d="M69.685 112.617a2.983 2.983 0 0 1-2.983-2.983c0-1.649 1.335-5.831 2.983-5.831s2.983 4.182 2.983 5.831a2.983 2.983 0 0 1-2.983 2.983" transform="translate(57.671 10.563)" style="fill:#ffe474"/>
            <path data-name="패스 3202" d="M83.033 99.268a2.984 2.984 0 0 1-2.98 2.986h-.006c-1.647 0-5.83-1.335-5.83-2.984s4.182-2.983 5.83-2.983a2.984 2.984 0 0 1 2.986 2.981z" transform="translate(58.653 9.581)" style="fill:#ffe474"/>
            <path data-name="패스 3203" d="M56.668 99.269a2.983 2.983 0 0 1 2.983-2.983c1.649 0 5.831 1.335 5.831 2.983s-4.182 2.986-5.831 2.986a2.984 2.984 0 0 1-2.983-2.984z" transform="translate(56.36 9.581)" style="fill:#ffe474"/>
            <path data-name="패스 3204" d="M79.06 90.065a2.983 2.983 0 0 1 0 4.219c-1.161 1.162-5.068 3.179-6.232 2.014s.849-5.067 2.014-6.232a2.983 2.983 0 0 1 4.219 0" transform="translate(58.426 8.654)" style="fill:#ffe474"/>
            <path data-name="패스 3205" d="M60.48 108.644a2.982 2.982 0 0 1 0-4.217c1.161-1.162 5.067-3.179 6.231-2.014s-.848 5.066-2.013 6.232a2.984 2.984 0 0 1-4.219 0" transform="translate(56.744 10.336)" style="fill:#ffe474"/>
            <path data-name="패스 3206" d="M79.06 108.644a2.983 2.983 0 0 1-4.219 0c-1.162-1.162-3.179-5.068-2.014-6.232s5.067.849 6.232 2.014a2.983 2.983 0 0 1 0 4.219" transform="translate(58.426 10.336)" style="fill:#ffe474"/>
            <path data-name="패스 3207" d="M60.48 90.065a2.984 2.984 0 0 1 4.219 0c1.161 1.161 3.178 5.068 2.013 6.232s-5.067-.849-6.231-2.014a2.982 2.982 0 0 1 0-4.217z" transform="translate(56.744 8.654)" style="fill:#ffe474"/>
            <path data-name="패스 3208" d="M188.19 107.962a5.077 5.077 0 0 0 3.858-4.052c.086-.637-.9-1.678-1-2.741-.434-4.48-1.589-11.07-5.4-6.841s-5.985 10.621-6.67 12.9a20.337 20.337 0 0 1-.929-9.162v-.016a7.109 7.109 0 0 1 1.557-4.268 2.633 2.633 0 0 1 2.734-.083l.123-.254a2.915 2.915 0 0 0-3.026.115l-.023.009-.015.017a7.372 7.372 0 0 0-1.639 4.446 20.739 20.739 0 0 0 1.074 9.665c-.068.24-.1.371-.1.371l-.371-.114a20.747 20.747 0 0 0-7.572-6.093 7.348 7.348 0 0 0-4.63-1h-.021l-.02.015a2.905 2.905 0 0 0-1.72 2.485l.28.033a2.621 2.621 0 0 1 1.535-2.258 7.1 7.1 0 0 1 4.447.973h.007a20.319 20.319 0 0 1 7.225 5.71c-2.287-.642-8.836-2.241-14.46-1.3s-.677 5.46 2.868 8.232c.84.66 1.187 2.052 1.772 2.321a5.08 5.08 0 0 0 5.49-1.082s-2.463 8.289 2.608 8.013 3.851.891 5.31.806 2.357-7.445 2.357-7.445 6.692 3.2 7.545 2.015-.788-.785 2.169-4.912-5.357-6.5-5.357-6.5" transform="translate(69.978 9.148)" style="fill:#1f5a2c"/>
            <path data-name="사각형 1823" transform="translate(230.866 102.117)" style="fill:none" d="M0 0h33.296v31.843H0z"/>
            <path data-name="패스 3209" d="M190.738 103.218a5.076 5.076 0 0 0 3.859-4.052c.086-.638-.9-1.678-1-2.741-.434-4.48-1.589-11.07-5.4-6.841s-5.985 10.621-6.67 12.9a20.337 20.337 0 0 1-.929-9.162v-.014a7.108 7.108 0 0 1 1.557-4.268 2.633 2.633 0 0 1 2.734-.083l.123-.254a2.915 2.915 0 0 0-3.026.115l-.023.009-.015.017a7.373 7.373 0 0 0-1.639 4.446 20.739 20.739 0 0 0 1.074 9.665c-.068.24-.1.371-.1.371l-.371-.114a20.747 20.747 0 0 0-7.572-6.093 7.348 7.348 0 0 0-4.63-1h-.021l-.02.015a2.905 2.905 0 0 0-1.72 2.485l.28.033a2.621 2.621 0 0 1 1.535-2.258 7.1 7.1 0 0 1 4.447.974h.006a20.313 20.313 0 0 1 7.226 5.71c-2.287-.642-8.836-2.241-14.46-1.3s-.677 5.46 2.867 8.232c.841.66 1.188 2.052 1.773 2.321a5.08 5.08 0 0 0 5.491-1.082s-2.463 8.289 2.608 8.013 3.851.891 5.31.806 2.357-7.445 2.357-7.445 6.692 3.2 7.545 2.015-.788-.785 2.169-4.912-5.357-6.5-5.357-6.5" transform="translate(70.31 8.528)" style="fill:#f6c0fc"/>
            <path data-name="사각형 1824" transform="translate(233.747 96.753)" style="fill:none" d="M0 0h33.295v31.843H0z"/>
            <path data-name="패스 3210" d="M143.654 56.231a3.675 3.675 0 0 0 2.793-2.932c.062-.461-.654-1.214-.726-1.983-.313-3.242-1.149-8.011-3.906-4.95s-4.332 7.685-4.827 9.333a14.708 14.708 0 0 1-.673-6.629v-.01a5.144 5.144 0 0 1 1.127-3.088 1.9 1.9 0 0 1 1.978-.06l.089-.184a2.111 2.111 0 0 0-2.189.083l-.017.008-.01.011a5.335 5.335 0 0 0-1.186 3.217 15 15 0 0 0 .777 6.994l-.075.268-.268-.083a15.026 15.026 0 0 0-5.479-4.41 5.316 5.316 0 0 0-3.35-.725h-.012l-.015.01a2.1 2.1 0 0 0-1.245 1.8l.2.025a1.9 1.9 0 0 1 1.111-1.635 5.133 5.133 0 0 1 3.217.706 14.7 14.7 0 0 1 5.229 4.131c-1.655-.465-6.394-1.623-10.463-.941s-.491 3.952 2.075 5.957c.608.477.859 1.485 1.283 1.679a3.673 3.673 0 0 0 3.972-.782s-1.782 6 1.887 5.8 2.787.644 3.843.583 1.705-5.388 1.705-5.388 4.843 2.314 5.459 1.459-.57-.569 1.569-3.555-3.876-4.707-3.876-4.707" transform="translate(65.144 2.93)" style="fill:#d6bc92"/>
            <path data-name="사각형 1825" transform="translate(189.042 48.31)" style="fill:none" d="M0 0h24.092v23.042H0z"/>
            <path data-name="패스 3211" d="M145.5 52.8a3.675 3.675 0 0 0 2.793-2.932c.062-.461-.654-1.214-.726-1.983-.313-3.242-1.149-8.011-3.906-4.95s-4.332 7.685-4.827 9.333a14.708 14.708 0 0 1-.673-6.629v-.01a5.144 5.144 0 0 1 1.127-3.088 1.9 1.9 0 0 1 1.978-.06l.089-.184a2.111 2.111 0 0 0-2.189.083l-.017.008-.01.011a5.335 5.335 0 0 0-1.186 3.217 15 15 0 0 0 .777 6.994l-.075.268-.268-.083a15.026 15.026 0 0 0-5.479-4.41 5.316 5.316 0 0 0-3.35-.725h-.016l-.015.01a2.1 2.1 0 0 0-1.245 1.8l.2.025a1.9 1.9 0 0 1 1.111-1.635 5.133 5.133 0 0 1 3.217.706 14.7 14.7 0 0 1 5.229 4.131c-1.655-.465-6.394-1.623-10.463-.941s-.491 3.952 2.075 5.957c.608.477.859 1.485 1.283 1.679a3.673 3.673 0 0 0 3.972-.782s-1.782 6 1.887 5.8 2.787.644 3.843.583 1.705-5.388 1.705-5.388 4.843 2.314 5.459 1.459-.57-.569 1.569-3.555S145.5 52.8 145.5 52.8" transform="translate(65.385 2.481)" style="fill:#4eeeff"/>
            <path data-name="사각형 1826" transform="translate(191.128 44.429)" style="fill:none" d="M0 0h24.092v23.042H0z"/>
            <path data-name="패스 3212" d="M59.423 62.173 49.77 6.146a4.742 4.742 0 0 0-8.287-2.266l-5.362 6.307-.583.685L9.375 41.648a25.847 25.847 0 0 0-2.746 29.563c.147.257.3.512.455.764a25.739 25.739 0 0 0 2.85 3.754l-.014.008C.257 82.958-2.6 95.087 2.472 99.952 6.694 104 18.139 106.538 37.6 86.914l9.624-10 9.581-7.78a7.343 7.343 0 0 0 1.584-1.815c.113-.181.226-.362.323-.552l-.389-.249.522-.047.052-.115-.243-.578.391.251a7.428 7.428 0 0 0 .246-.805 7.343 7.343 0 0 0 .127-3.055" transform="translate(48.955 2.288)" style="fill:#866363"/>
            <path data-name="패스 3213" d="m93 39.984-1.108-.22c-.037.179-3.272 15.982-11.508 22.069a1.311 1.311 0 0 0-.258-1.1.868.868 0 0 0-.308-.185c6.547-9.135 3.114-23.976 2.952-24.648l-1.1.262c.04.164 3.657 15.813-3.326 24.449-4.3 1.2-14.757 9.365-25.824 20.432-13.229 13.23-22.32 25.59-20.307 27.604s14.374-7.078 27.606-20.31C70.1 78.062 77.873 68.314 79.891 63.527c9.45-5.66 12.956-22.758 13.109-23.543" transform="translate(53.128 6.69)" style="fill:#82d696"/>
            <path data-name="패스 3214" d="m62.739 74.334-12.131 12.6c-21.942 22.12-34.844 19.26-39.6 14.7-5.718-5.484-2.5-19.156 8.4-27.3l13.991-8.869z" transform="translate(50.029 10.554)" style="fill:#56b36b"/>
            <path data-name="패스 3215" d="M30.116 91.588c-4.119 3.7-9.662 4.255-12.38 1.232s-1.583-8.477 2.536-12.18 9.663-4.256 12.381-1.232 1.582 8.475-2.537 12.18" transform="translate(51.08 12.121)" style="fill:#458d38"/>
            <path data-name="패스 3216" d="M27.742 89.007c-2.477 2.227-5.812 2.56-7.447.741s-.952-5.1 1.525-7.326 5.813-2.56 7.448-.742.951 5.1-1.526 7.327" transform="translate(51.491 12.519)" style="fill:#ffed00"/>
            <path data-name="패스 3217" d="M22.037 98.355a8.668 8.668 0 0 1-6.637-2.724 9.02 9.02 0 0 1-1.816-8.089 16.323 16.323 0 0 1 5.2-8.613C24.391 73.886 32 73.17 35.75 77.337s2.23 11.658-3.381 16.7a16.319 16.319 0 0 1-9.114 4.254q-.621.061-1.218.061M29.1 75.518a14.988 14.988 0 0 0-9.713 4.082 15.411 15.411 0 0 0-4.914 8.124 8.141 8.141 0 0 0 1.6 7.3 8.125 8.125 0 0 0 7.089 2.366 15.418 15.418 0 0 0 8.6-4.025c5.237-4.711 6.724-11.63 3.312-15.427a7.828 7.828 0 0 0-5.974-2.42" transform="translate(50.698 11.751)" style="fill:#458d38"/>
            <path data-name="패스 3218" d="M46.524 8.641 21.658 37.892l50.929 32.645z" transform="translate(51.785 3.129)" style="fill:#ffed00"/>
            <path data-name="패스 3219" d="M70.5 67.6 59.617 4.444a5.346 5.346 0 0 0-9.342-2.555L44.231 9l26.125 62.042A8.255 8.255 0 0 0 70.5 67.6" transform="translate(54.735 2)" style="fill:#ffed00"/>
            <path data-name="패스 3220" d="M21.061 76.924a29.126 29.126 0 0 0 37.357.531l12.917-10.488a8.273 8.273 0 0 0 1.785-2.045l-57.839 5.244a29.1 29.1 0 0 0 5.78 6.758" transform="translate(50.952 10.483)" style="fill:#ffed00"/>
            <path data-name="패스 3221" d="m22.4 35.127-4.034 4.745a29.138 29.138 0 0 0-3.1 33.324l58.278-5.284z" transform="translate(50.449 6.59)" style="fill:#ffed00"/>
            <path data-name="패스 3222" d="m40.122 49.928.343.814c.068-.155.149-.3.209-.461z" transform="translate(54.198 8.524)" style="fill:#fff"/>
            <path data-name="패스 3223" d="m39.71 50.859.546.351c.07-.137.126-.278.189-.417z" transform="translate(54.144 8.637)" style="fill:#fff"/>
            <path data-name="패스 3224" d="m30.374 40.055-8.647-5.543-.591.7 8.764 5.616c.128-.214.242-.432.378-.641.029-.046.063-.087.093-.132" transform="translate(51.717 6.509)" style="fill:#1f5a2c"/>
            <path data-name="패스 3225" d="M29.94 39.981c-.135.209-.25.426-.377.639l23.544 15.09c.126-.182.261-.354.382-.542.044-.069.079-.14.123-.209L30.034 39.846c-.031.046-.066.088-.095.135" transform="translate(52.818 7.206)" style="fill:#ffed00"/>
            <path data-name="패스 3226" d="M32.994 61.721a12.843 12.843 0 0 1-5.641-9.483 18.481 18.481 0 0 1 2.633-11.652l-.761-.488a19.4 19.4 0 0 0-2.771 12.251A13.726 13.726 0 0 0 32.5 62.481a12.98 12.98 0 0 0 7.1 2.044c5.368 0 11.018-3.023 14.7-8.354l-.769-.493c-5.121 7.4-14.2 10.126-20.536 6.043" transform="translate(52.395 7.239)" style="fill:#1f5a2c"/>
            <path data-name="패스 3227" d="M39.927 33.239a14.58 14.58 0 0 1 4.345-.685 12.108 12.108 0 0 1 6.62 1.912c6.435 4.15 7.642 13.781 2.753 21.564l.761.488c5.158-8.2 3.828-18.394-3.023-22.812a13.725 13.725 0 0 0-11.725-1.331 19.486 19.486 0 0 0-10.352 8.054l.762.487a18.586 18.586 0 0 1 9.859-7.677" transform="translate(52.785 6.135)" style="fill:#1f5a2c"/>
            <path data-name="패스 3228" d="M30.027 40.037c.029-.046.064-.088.095-.135l-.762-.487c-.029.045-.063.086-.093.131-.136.21-.25.429-.378.641l.761.488c.127-.213.242-.43.377-.639" transform="translate(52.73 7.15)" style="fill:#1f5a2c"/>
            <path data-name="패스 3229" d="m51.652 53.7-.761-.487c-.044.068-.078.14-.122.208-.122.188-.257.36-.383.542l.769.493c.124-.181.253-.358.374-.545.044-.069.079-.14.123-.21" transform="translate(55.539 8.953)" style="fill:#1f5a2c"/>
            <path data-name="패스 3230" d="M52.792 55.418c-4.647 7.206-13.291 9.9-19.306 6.022s-7.125-12.866-2.478-20.07 13.291-9.9 19.306-6.023 7.125 12.866 2.478 20.072" transform="translate(52.632 6.387)" style="fill:#fff"/>
            <path data-name="패스 3231" d="M52.792 55.418c-4.647 7.206-13.291 9.9-19.306 6.022s-7.125-12.866-2.478-20.07 13.291-9.9 19.306-6.023 7.125 12.865 2.478 20.071z" transform="translate(52.632 6.387)" style="stroke:#1f5a2c;stroke-miterlimit:10;fill:none"/>
            <path data-name="패스 3232" d="M48.3 52.276c-2.976 4.614-8.512 6.341-12.364 3.857s-4.562-8.239-1.587-12.853 8.512-6.341 12.364-3.857 4.567 8.238 1.587 12.853" transform="translate(53.204 7.003)" style="fill:#56b36b"/>
            <path data-name="패스 3233" d="M40 58.522a8.311 8.311 0 0 1-4.541-1.309 8.738 8.738 0 0 1-3.863-6.44 12.072 12.072 0 0 1 1.936-7.973c3.312-5.131 9.559-7.009 13.928-4.195a8.735 8.735 0 0 1 3.863 6.44 12.08 12.08 0 0 1-1.939 7.977 11.494 11.494 0 0 1-9.384 5.5m2.9-18.977a9.237 9.237 0 0 0-7.467 4.476 9.819 9.819 0 0 0-1.6 6.474 6.513 6.513 0 0 0 2.846 4.816c3.322 2.144 8.168.564 10.8-3.519a9.819 9.819 0 0 0 1.6-6.474 6.507 6.507 0 0 0-2.845-4.818 6.079 6.079 0 0 0-3.334-.958" transform="translate(53.073 6.873)" style="fill:#1f5a2c"/>
            <path data-name="패스 3234" d="M74.2 70 48.073 7.958l-.657.772 26.063 61.9.009.007v.006-.012L56.3 59.614c-.043.07-.078.141-.123.21-.12.188-.249.364-.374.545l17.303 11.094h.009-.007l-58.28 5.282c.166.289.336.578.512.863l57.839-5.244.041-.069c.113-.181.226-.363.323-.553l-.014-.008a8.511 8.511 0 0 0 .39-.825A8.077 8.077 0 0 0 74.2 70" transform="translate(50.893 3.04)" style="fill:#1f5a2c"/>
        </g>
    </g>
</svg>
