<svg data-name="그룹 2286" xmlns="http://www.w3.org/2000/svg" width="375" height="667" viewBox="0 0 375 667">
    <defs>
        <clipPath id="vz08vdfrka">
            <path data-name="사각형 2368" style="fill:#56b36b" d="M0 0h375v667H0z"/>
        </clipPath>
        <clipPath id="qsjb73wzyb">
            <path data-name="사각형 841" style="fill:none" d="M0 0h454.908v888.79H0z"/>
        </clipPath>
        <clipPath id="qrzo9qzmrc">
            <path data-name="사각형 840" transform="translate(22.558 76.79)" style="fill:none" d="M0 0h375v812H0z"/>
        </clipPath>
        <clipPath id="s6y2xlcd5d">
            <path data-name="사각형 836" transform="translate(22.558 76.632)" style="fill:none" d="M0 0h375.219v449.323H0z"/>
        </clipPath>
        <clipPath id="b3a3hf8ife">
            <path data-name="사각형 844" style="fill:none" d="M0 0h64.637v84.693H0z"/>
        </clipPath>
    </defs>
    <g data-name="마스크 그룹 2274" style="clip-path:url(#vz08vdfrka)">
        <g data-name="그룹 1605">
            <g data-name="그룹 1604" style="clip-path:url(#qsjb73wzyb)" transform="translate(-22.454 -76.789)">
                <path data-name="사각형 816" transform="translate(22.558 76.79)" style="fill:#2c5932" d="M0 0h375v812H0z"/>
                <g data-name="그룹 1603">
                    <g data-name="그룹 1602" style="clip-path:url(#qrzo9qzmrc)">
                        <g data-name="그룹 1601" style="opacity:.37">
                            <g data-name="그룹 1600">
                                <g data-name="그룹 1599" style="clip-path:url(#s6y2xlcd5d)">
                                    <path data-name="사각형 817" transform="translate(22.558 226.407)" style="fill:#263828" d="M0 0h75.044v74.887H0z"/>
                                    <path data-name="패스 784" d="M134.952 226.407H97.6v74.887h19.752z" style="fill:#436847"/>
                                    <path data-name="사각형 818" transform="translate(22.558 301.294)" style="fill:#436847" d="M0 0h75.044v74.887H0z"/>
                                    <path data-name="패스 785" d="M117.353 301.294H97.6v74.887h2.154z" style="fill:#263828"/>
                                    <path data-name="패스 786" d="M97.6 385.345v-9.165H22.558v74.887h59.6z" style="fill:#263828"/>
                                    <path data-name="패스 787" d="M97.6 376.181v9.165l2.154-9.165z" style="fill:#27442c"/>
                                    <path data-name="패스 788" d="M22.558 451.068v74.887h42l17.6-74.887z" style="fill:#436847"/>
                                    <path data-name="사각형 819" transform="translate(22.558 76.632)" style="fill:#263828" d="M0 0h75.044v74.887H0z"/>
                                    <path data-name="사각형 820" transform="translate(97.602 76.632)" style="fill:#436847" d="M0 0h75.044v74.887H0z"/>
                                    <path data-name="사각형 821" transform="translate(22.558 151.519)" style="fill:#436847" d="M0 0h75.044v74.887H0z"/>
                                    <path data-name="패스 789" d="M148.965 166.775h23.681V151.52H97.6v74.887h37.35z" style="fill:#263828"/>
                                    <path data-name="패스 790" d="M302.763 301.294h19.971v-74.887h-37.569z" style="fill:#263828"/>
                                    <path data-name="패스 791" d="M320.361 376.181h2.373v-74.887h-19.971z" style="fill:#27442c"/>
                                    <path data-name="패스 792" d="M322.734 386.279v-10.1h-2.373z" style="fill:#27442c"/>
                                    <path data-name="사각형 822" transform="translate(172.646 76.632)" style="fill:#162b19" d="M0 0h75.044v74.887H0z"/>
                                    <path data-name="사각형 823" transform="translate(247.69 76.632)" style="fill:#263828" d="M0 0h75.044v74.887H0z"/>
                                    <path data-name="사각형 824" transform="translate(172.646 151.519)" style="fill:#27442c" d="M0 0h75.044v15.255H0z"/>
                                    <path data-name="패스 793" d="M247.69 166.775h23.462l14.013 59.632h37.569V151.52H247.69z" style="fill:#436847"/>
                                    <path data-name="사각형 825" transform="translate(322.734 226.407)" style="fill:#436847" d="M0 0h75.044v74.887H0z"/>
                                    <path data-name="사각형 826" transform="translate(322.734 301.294)" style="fill:#263828" d="M0 0h75.044v74.887H0z"/>
                                    <path data-name="패스 794" d="m322.734 386.279 15.225 64.789h59.819v-74.887h-75.044z" style="fill:#436847"/>
                                    <path data-name="패스 795" d="M355.557 525.955h42.221v-74.887h-59.819z" style="fill:#27442c"/>
                                    <path data-name="사각형 827" transform="translate(322.734 76.632)" style="fill:#27442c" d="M0 0h75.044v74.887H0z"/>
                                    <path data-name="사각형 828" transform="translate(322.734 151.52)" style="fill:#263828" d="M0 0h75.044v74.887H0z"/>
                                    <path data-name="패스 796" d="M172.646 226.407h-37.694l-17.6 74.887h55.292z" style="fill:#68bc77"/>
                                    <path data-name="패스 797" d="m117.353 301.294-17.6 74.887h72.89v-74.887z" style="fill:#56b36b"/>
                                    <path data-name="패스 798" d="M82.157 451.068H97.6v-65.722z" style="fill:#56b36b"/>
                                    <path data-name="패스 799" d="M172.646 376.181h-72.89l-2.156 9.165v65.722h75.044z" style="fill:#68bc77"/>
                                    <path data-name="패스 800" d="M97.6 451.068H82.158l-17.6 74.887H97.6z" style="fill:#56b36b"/>
                                    <path data-name="사각형 829" transform="translate(97.602 451.068)" style="fill:#56b36b" d="M0 0h75.044v74.887H0z"/>
                                    <path data-name="패스 801" d="M172.646 166.775h-23.681l-14.013 59.632h37.694z" style="fill:#56b36b"/>
                                    <path data-name="사각형 830" transform="translate(172.646 226.407)" style="fill:#56b36b" d="M0 0h75.044v74.887H0z"/>
                                    <path data-name="패스 802" d="M247.69 301.294h55.073l-17.6-74.887H247.69z" style="fill:#68bc77"/>
                                    <path data-name="사각형 831" transform="translate(172.646 301.294)" style="fill:#68bc77" d="M0 0h75.044v74.887H0z"/>
                                    <path data-name="패스 803" d="M247.69 376.181h72.671l-17.6-74.887H247.69z" style="fill:#56b36b"/>
                                    <path data-name="사각형 832" transform="translate(172.646 376.181)" style="fill:#56b36b" d="M0 0h75.044v74.887H0z"/>
                                    <path data-name="패스 804" d="M247.69 376.181v74.887h75.044v-64.789l-2.373-10.1z" style="fill:#68bc77"/>
                                    <path data-name="사각형 833" transform="translate(172.646 451.068)" style="fill:#56b36b" d="M0 0h75.044v74.887H0z"/>
                                    <path data-name="사각형 834" transform="translate(247.69 451.068)" style="fill:#56b36b" d="M0 0h75.044v74.887H0z"/>
                                    <path data-name="사각형 835" transform="translate(172.646 166.775)" style="fill:#68bc77" d="M0 0h75.044v59.632H0z"/>
                                    <path data-name="패스 805" d="m285.165 226.407-14.013-59.632H247.69v59.632z" style="fill:#56b36b"/>
                                    <path data-name="패스 806" d="m337.959 451.068-15.225-64.789v64.789z" style="fill:#56b36b"/>
                                    <path data-name="패스 807" d="M322.734 451.068v74.887h32.823l-17.6-74.887z" style="fill:#56b36b"/>
                                </g>
                            </g>
                        </g>
                        <path data-name="패스 808" d="M130.375 86.6v.03l4.6-2.641c-2.2.351-4.245-.649-7.688-5.8 4.657-.443 7.07 1.71 7.948 5.65l1.764-1.016c-1.627-.488-3.047-2.015-4.65-6.031h3.161a6.077 6.077 0 0 1 1.237 1.076 44.469 44.469 0 0 1-.214-1.076H284.2c-.252.275-.5.55-.764.832l-.007-.007 3.107 3.68a.108.108 0 0 0 .015-.046 12.782 12.782 0 0 1 2.8 1.5v7.016c-3.237-3.672-3.672-5.924-2.954-8.1l-1.558-1.588c1.436 2.366 1.222 5.306-2.932 11.872-2.939-5.245-1.672-9.216 2.52-12.292l-1.481-1.52c-.741.779-1.5 1.558-2.3 2.344-.68 2.3-2.314 5.184-5.3 9.116a17.326 17.326 0 0 1-1.137-3.237q-2.154 1.833-4.543 3.688a49.141 49.141 0 0 1-3.4 8.413 7.856 7.856 0 0 1 4.757 1.726c-3.344 1.633-5.5 2.221-7.055 2.13a29.7 29.7 0 0 1-1.221 1.694l.076.214c3.382-1.954 6.543-1.618 9.376 1.993-5.459.931-7.742.4-9.063-1.031l1.031 3.161c2.878-1.412 5.413-.977 7.444 2.13-4.78.4-6.452-.321-7.337-1.786l.427 1.313c1.726.282 3.008 1.55 4.352 6.23-3.649-.8-4.947-3.039-4.626-6.268h.038l-2.031-4.932.008.03c.061 2.229-1.2 4.123-6.765 6.856q.022-.583.092-1.122c-.313.229-.642.45-.97.672.2.244.4.5.6.763a63.23 63.23 0 0 1-2.3.29 35.119 35.119 0 0 1-4.077 2.016 9.732 9.732 0 0 1 5.245 4.573c-7.07.405-9.918-.588-11.407-2.588l-.206.046.443 1.473c2.779.535 4.81 2.649 6.787 10.292-5.878-1.451-7.894-5.138-7.23-10.361.016 0 .031.008.054.008l-.5-1.313c-.138.03-.275.061-.42.091.252 2.451-1.153 5.123-6.5 9.643-.863-4.1.046-7 2.344-8.948-1.161.145-2.352.26-3.573.329a49.365 49.365 0 0 1-5.665 2.985 18.584 18.584 0 0 1 .4-2.871 87.762 87.762 0 0 1-8.925-.634 37.725 37.725 0 0 1-7 2.573l3.16 3.757c.008-.016.016-.039.023-.054 4.886 1.962 7.131 5.505 5.543 11.353-5.718-5.436-6.581-8.238-5.7-10.925l-1.558-1.6c1.443 2.374 1.23 5.314-2.931 11.88-2.94-5.245-1.665-9.215 2.527-12.292l-1.9-1.939.015.015c-.5.114-1 .221-1.5.313-.015 2.641-1.542 6.085-5.7 11.551-2.046-4.5-1.893-8.138.016-11.063a34.277 34.277 0 0 1-2.008-.076 44.128 44.128 0 0 1-5.795 4.947 15 15 0 0 1 .183-5.855c-6.978-1.764-13.773-5.826-20.415-11.735-3.054 1.145-4.756 1.031-6.054.237l.816 2.5c3.39-1.955 6.543-1.619 9.376 1.993-5.459.931-7.742.4-9.062-1.031l1.03 3.161c2.879-1.413 5.413-.978 7.452 2.13-4.78.4-6.452-.321-7.337-1.787l.427 1.306c1.718.29 3.008 1.557 4.352 6.237-3.657-.8-4.947-3.038-4.627-6.268h.031l-2.016-4.9c.061 2.229-1.206 4.122-6.772 6.856.184-4.673 2.634-6.788 6.658-7.131l-.771-1.878c-.771 1.695-2.756 2.977-7.91 4.115 1.2-4.192 3.787-5.749 7.368-5.436l-.084-.191c-7.039-.168-12.956-1.8-17.789-4.84l-2.115 4.023c5.818.038 9.757 2.955 11.055 9.895-8.154-2.611-11.154-4.986-12.132-7.849l-1.534 2.917c6.436 1.175 10.07 4.962 9.643 12.528-8.559-5.268-10.307-8.512-9.872-12.093l-4 7.6h.061c.023 5.261-2.412 8.681-8.428 9.414 2.886-7.345 5.153-9.2 7.97-9.391l.893-2.046c-1.656 2.222-4.458 3.13-12.108 1.756 3.748-4.7 7.909-5.016 12.338-2.3v.008l2.153-4.955c-2.36 2.107-6.124 2.619-14.789.282 5.123-5.4 10.269-5.451 15.437-1.786l1.7-3.917c-2.863 1.405-6.619.863-14.33-3.84 6.26-3.65 11.131-2.428 15.017 2.244l1.527-3.512a30.392 30.392 0 0 1-9.162-10.925c-.091.2-.19.4-.3.6-2.909-4.4-3.451-6.695-2.817-8.451a2.081 2.081 0 0 1-.061-.206l-2.2 1.053c2.382 3.1 2.466 6.276-.741 9.559-1.641-5.291-1.42-7.62-.168-9.124l-3 1.443c1.771 2.665 1.68 5.238-1.13 7.658-1.031-4.68-.534-6.429.8-7.505l-1.245.6c-.053 1.74-1.145 3.191-5.6 5.138.313-3.726 2.359-5.306 5.6-5.413m41.507.282.007-.007zM186 117.8c4.757 2.26 6.772 5.94 4.833 11.681-5.657-6.092-6.115-8.932-4.833-11.681m27.951-2.764c.626 1.764.176 3.482-3.649 6.887-.856-3.634.6-5.772 3.649-6.887m54.558 6.169c-7.765 2.94-10.574 2.3-12.628.069 3.886-3.55 8.047-4.031 12.628-.069m36.677-12.8c.634 1.763.183 3.474-3.642 6.886-.862-3.634.6-5.779 3.642-6.886m-1.336-3.6-.069-.175.008.015c-.046.061-.092.114-.137.175a1.734 1.734 0 0 1 .2-.015m25.752-28h1.267v4.092a5.638 5.638 0 0 1-4.489-1.908 11.984 11.984 0 0 1 3.218-2.199" style="fill-rule:evenodd;fill:#27442c"/>
                        <path data-name="패스 809" d="M77.679 87.5h16.873v29.752a8.437 8.437 0 1 1-16.873 0z" style="fill:#162b19"/>
                        <path data-name="패스 810" d="M281.261 96.744V77.125h-15.375v41.2a10.852 10.852 0 1 0 21.7 0V106.6a10.845 10.845 0 0 1-6.329-9.855" style="fill:#27442c"/>
                        <path data-name="패스 811" d="M287.591 77.126V106.6a10.8 10.8 0 0 0 13.2-3.351V77.126z" style="fill:#27442c"/>
                        <path data-name="패스 812" d="M281.261 77.126v19.619a10.845 10.845 0 0 0 6.329 9.855V77.126z" style="fill:#27442c"/>
                        <path data-name="패스 813" d="M302.966 96.744a10.788 10.788 0 0 1-2.181 6.5V123.5a10.852 10.852 0 0 0 21.7 0V77.125h-19.519z" style="fill:#27442c"/>
                        <path data-name="패스 814" d="M302.966 77.126h-2.181v26.123a10.788 10.788 0 0 0 2.181-6.5z" style="fill:#27442c"/>
                        <path data-name="패스 815" d="M106.756 77.133h20.7v14.15a8.436 8.436 0 0 1-8.437 8.436h-3.823a8.436 8.436 0 0 1-8.437-8.436z" style="fill:#27442c"/>
                        <path data-name="패스 816" d="M92.564 77.133h16.873v47a8.436 8.436 0 1 1-16.873 0z" style="fill:#27442c"/>
                        <path data-name="패스 817" d="M88.267 112.459H73.8a8.436 8.436 0 0 1-8.436-8.437V76.86H96.7v27.162a8.437 8.437 0 0 1-8.437 8.437" style="fill:#27442c"/>
                        <path data-name="선 1" transform="translate(210.058 76.79)" style="stroke-width:2px;stroke-miterlimit:10;stroke:#0c1613;fill:none" d="M0 0v98.663"/>
                        <path data-name="패스 818" d="M219.956 166.775a9.9 9.9 0 1 1-9.9-9.9 9.9 9.9 0 0 1 9.9 9.9" style="fill:#fff69f;fill-rule:evenodd"/>
                        <path data-name="패스 819" d="M217.057 166.775a7 7 0 1 1-7-7 7 7 0 0 1 7 7" style="fill:#ffe0a1;fill-rule:evenodd"/>
                        <path data-name="패스 820" d="M271.151 166.775H148.964l61.094-25.547z" style="fill:#0c1613;fill-rule:evenodd"/>
                        <path data-name="패스 821" d="M298.146 122.756s-24.91-14.894-24.91-45.966h21.828s-7.7 18.489 3.082 45.966" style="fill:#162b19"/>
                        <path data-name="패스 822" d="M121.912 122.756S97 107.862 97 76.79h21.83s-7.7 18.489 3.082 45.966" style="fill:#162b19"/>
                        <path data-name="패스 823" d="M259.293 111.822s18.984-11.351 18.984-35.032h-16.635s5.871 14.091-2.349 35.032" style="fill:#162b19"/>
                        <path data-name="패스 824" d="M85.06 111.822s18.984-11.351 18.984-35.032H87.409s5.871 14.091-2.349 35.032" style="fill:#162b19"/>
                        <path data-name="패스 825" d="M243.524 98.552s25.261 1.919 25.261-21.762H252.15s7.884 8.678-8.626 21.762" style="fill:#162b19"/>
                        <path data-name="패스 826" d="M303.84 89.09s-14.278 1.085-14.278-12.3h9.4s-4.457 4.9 4.875 12.3" style="fill:#162b19"/>
                        <path data-name="패스 827" d="M78.977 89.09s14.278 1.085 14.278-12.3h-9.4s4.457 4.9-4.875 12.3" style="fill:#162b19"/>
                        <path data-name="선 2" transform="translate(64.593 76.79)" style="stroke:#162b19;stroke-width:2px;stroke-miterlimit:10;fill:none" d="M0 0v110.403"/>
                        <path data-name="패스 828" d="M68.383 194.151c0 4-3.79 7.238-3.79 7.238s-3.791-3.241-3.791-7.238 3.791-7.238 3.791-7.238 3.79 3.241 3.79 7.238" style="fill:#162b19"/>
                        <path data-name="패스 829" d="M61.26 185.273c-3.1 2.524-8.006 1.629-8.006 1.629s.121-4.986 3.222-7.508 8.006-1.628 8.006-1.628-.121 4.985-3.222 7.507" style="fill:#162b19"/>
                        <path data-name="패스 830" d="M61.26 173.531c-3.1 2.523-8.006 1.628-8.006 1.628s.121-4.986 3.222-7.508 8.006-1.628 8.006-1.628-.121 4.985-3.222 7.508" style="fill:#162b19"/>
                        <path data-name="패스 831" d="M61.26 161.789c-3.1 2.523-8.006 1.628-8.006 1.628s.121-4.986 3.222-7.508 8.006-1.628 8.006-1.628-.121 4.985-3.222 7.508" style="fill:#162b19"/>
                        <path data-name="패스 832" d="M61.26 150.047c-3.1 2.523-8.006 1.628-8.006 1.628s.121-4.986 3.222-7.508 8.006-1.628 8.006-1.628-.121 4.985-3.222 7.508" style="fill:#162b19"/>
                        <path data-name="패스 833" d="M61.26 138.3c-3.1 2.523-8.006 1.628-8.006 1.628s.121-4.986 3.222-7.508 8.006-1.628 8.006-1.628-.121 4.985-3.222 7.508" style="fill:#162b19"/>
                        <path data-name="패스 834" d="M61.26 126.562c-3.1 2.523-8.006 1.628-8.006 1.628s.121-4.986 3.222-7.508 8.006-1.628 8.006-1.628-.121 4.985-3.222 7.508" style="fill:#162b19"/>
                        <path data-name="패스 835" d="M61.26 114.82c-3.1 2.523-8.006 1.628-8.006 1.628s.121-4.986 3.222-7.508 8.006-1.628 8.006-1.628-.121 4.985-3.222 7.508" style="fill:#162b19"/>
                        <path data-name="패스 836" d="M61.26 103.077c-3.1 2.523-8.006 1.628-8.006 1.628s.121-4.986 3.222-7.508 8.006-1.628 8.006-1.628-.121 4.985-3.222 7.508" style="fill:#162b19"/>
                        <path data-name="패스 837" d="M61.26 91.335c-3.1 2.523-8.006 1.628-8.006 1.628s.121-4.986 3.222-7.508 8.006-1.628 8.006-1.628-.121 4.985-3.222 7.508" style="fill:#162b19"/>
                        <path data-name="패스 838" d="M67.7 185.273c3.1 2.524 8.006 1.629 8.006 1.629s-.121-4.986-3.222-7.508-8.006-1.628-8.006-1.628.121 4.985 3.222 7.507" style="fill:#162b19"/>
                        <path data-name="패스 839" d="M67.7 173.531c3.1 2.523 8.006 1.628 8.006 1.628s-.121-4.986-3.222-7.508-8.006-1.628-8.006-1.628.121 4.985 3.222 7.508" style="fill:#162b19"/>
                        <path data-name="패스 840" d="M67.7 161.789c3.1 2.523 8.006 1.628 8.006 1.628s-.121-4.986-3.222-7.508-8.006-1.628-8.006-1.628.121 4.985 3.222 7.508" style="fill:#162b19"/>
                        <path data-name="패스 841" d="M67.7 150.047c3.1 2.523 8.006 1.628 8.006 1.628s-.121-4.986-3.222-7.508-8.006-1.628-8.006-1.628.121 4.985 3.222 7.508" style="fill:#162b19"/>
                        <path data-name="패스 842" d="M67.7 138.3c3.1 2.523 8.006 1.628 8.006 1.628s-.121-4.986-3.222-7.508-8.006-1.628-8.006-1.628.121 4.985 3.222 7.508" style="fill:#162b19"/>
                        <path data-name="패스 843" d="M67.7 126.562c3.1 2.523 8.006 1.628 8.006 1.628s-.121-4.986-3.222-7.508-8.006-1.628-8.006-1.628.121 4.985 3.222 7.508" style="fill:#162b19"/>
                        <path data-name="패스 844" d="M67.7 114.82c3.1 2.523 8.006 1.628 8.006 1.628s-.121-4.986-3.222-7.508-8.006-1.628-8.006-1.628.122 4.988 3.222 7.508" style="fill:#162b19"/>
                        <path data-name="패스 845" d="M67.7 103.077c3.1 2.523 8.006 1.628 8.006 1.628s-.121-4.986-3.222-7.508-8.006-1.628-8.006-1.628.121 4.985 3.222 7.508" style="fill:#162b19"/>
                        <path data-name="패스 846" d="M67.7 91.335c3.1 2.523 8.006 1.628 8.006 1.628s-.121-4.986-3.222-7.508-8.006-1.628-8.006-1.628.121 4.985 3.222 7.508" style="fill:#162b19"/>
                        <path data-name="선 3" transform="translate(52.31 76.944)" style="stroke:#27442c;stroke-width:2px;stroke-miterlimit:10;fill:none" d="M0 0v103.366"/>
                        <path data-name="패스 847" d="M56.1 187.268c0 4-3.79 7.238-3.79 7.238s-3.791-3.241-3.791-7.238 3.791-7.238 3.791-7.238 3.79 3.241 3.79 7.238" style="fill:#27442c"/>
                        <path data-name="패스 848" d="M48.978 178.391c-3.1 2.523-8.006 1.628-8.006 1.628s.121-4.986 3.222-7.508 8.006-1.628 8.006-1.628-.121 4.985-3.222 7.508" style="fill:#27442c"/>
                        <path data-name="패스 849" d="M48.978 166.648c-3.1 2.523-8.006 1.628-8.006 1.628s.121-4.986 3.222-7.508 8.006-1.628 8.006-1.628-.121 4.985-3.222 7.508" style="fill:#27442c"/>
                        <path data-name="패스 850" d="M48.978 154.906c-3.1 2.523-8.006 1.628-8.006 1.628s.121-4.986 3.222-7.508S52.2 147.4 52.2 147.4s-.121 4.985-3.222 7.508" style="fill:#27442c"/>
                        <path data-name="패스 851" d="M48.978 143.164c-3.1 2.523-8.006 1.628-8.006 1.628s.121-4.986 3.222-7.508 8.006-1.628 8.006-1.628-.121 4.985-3.222 7.508" style="fill:#27442c"/>
                        <path data-name="패스 852" d="M48.978 131.421c-3.1 2.523-8.006 1.628-8.006 1.628s.121-4.986 3.222-7.508 8.006-1.628 8.006-1.628-.121 4.985-3.222 7.508" style="fill:#27442c"/>
                        <path data-name="패스 853" d="M48.978 119.679c-3.1 2.523-8.006 1.628-8.006 1.628s.121-4.986 3.222-7.508 8.006-1.628 8.006-1.628-.121 4.985-3.222 7.508" style="fill:#27442c"/>
                        <path data-name="패스 854" d="M48.978 107.937c-3.1 2.523-8.006 1.628-8.006 1.628s.121-4.986 3.222-7.508 8.006-1.628 8.006-1.628-.121 4.985-3.222 7.508" style="fill:#27442c"/>
                        <path data-name="패스 855" d="M48.978 96.194c-3.1 2.523-8.006 1.628-8.006 1.628s.121-4.986 3.222-7.508 8.006-1.628 8.006-1.628-.121 4.985-3.222 7.508" style="fill:#27442c"/>
                        <path data-name="패스 856" d="M48.978 84.452c-3.1 2.523-8.006 1.628-8.006 1.628s.121-4.986 3.222-7.508 8.006-1.628 8.006-1.628-.121 4.985-3.222 7.508" style="fill:#27442c"/>
                        <path data-name="패스 857" d="M55.422 178.391c3.1 2.523 8.006 1.628 8.006 1.628s-.121-4.986-3.222-7.508-8.006-1.628-8.006-1.628.121 4.985 3.222 7.508" style="fill:#27442c"/>
                        <path data-name="패스 858" d="M55.422 166.648c3.1 2.523 8.006 1.628 8.006 1.628s-.121-4.986-3.222-7.508-8.006-1.628-8.006-1.628.121 4.985 3.222 7.508" style="fill:#27442c"/>
                        <path data-name="패스 859" d="M55.422 154.906c3.1 2.523 8.006 1.628 8.006 1.628s-.121-4.986-3.222-7.508S52.2 147.4 52.2 147.4s.121 4.985 3.222 7.508" style="fill:#27442c"/>
                        <path data-name="패스 860" d="M55.422 143.164c3.1 2.523 8.006 1.628 8.006 1.628s-.121-4.986-3.222-7.508-8.006-1.628-8.006-1.628.121 4.985 3.222 7.508" style="fill:#27442c"/>
                        <path data-name="패스 861" d="M55.422 131.421c3.1 2.523 8.006 1.628 8.006 1.628s-.121-4.986-3.222-7.508-8.006-1.628-8.006-1.628.121 4.985 3.222 7.508" style="fill:#27442c"/>
                        <path data-name="패스 862" d="M55.422 119.679c3.1 2.523 8.006 1.628 8.006 1.628s-.121-4.986-3.222-7.508-8.006-1.628-8.006-1.628.121 4.985 3.222 7.508" style="fill:#27442c"/>
                        <path data-name="패스 863" d="M55.422 107.937c3.1 2.523 8.006 1.628 8.006 1.628s-.121-4.986-3.222-7.508-8.006-1.628-8.006-1.628.121 4.985 3.222 7.508" style="fill:#27442c"/>
                        <path data-name="패스 864" d="M55.422 96.194c3.1 2.523 8.006 1.628 8.006 1.628s-.121-4.986-3.222-7.508-8.006-1.628-8.006-1.628.121 4.985 3.222 7.508" style="fill:#27442c"/>
                        <path data-name="패스 865" d="M55.422 84.452c3.1 2.523 8.006 1.628 8.006 1.628s-.121-4.986-3.222-7.508-8.006-1.628-8.006-1.628.121 4.985 3.222 7.508" style="fill:#27442c"/>
                        <path data-name="패스 866" d="M333.251 184.519a50.69 50.69 0 0 0 8.311-4.571c3.471-2.667 5.083-6.118 7.123-9.353s4.873-6.531 9.669-8.1c-2.633 2.266-3.163 5.271-3.226 8.114s.23 5.754-1.09 8.464c-1.966 4.032-7.183 7-10.277 10.721-1.268 1.524-2.172 3.167-3.442 4.69-2.77 3.321-11.106 6.69-14.657 1.906-3.537-4.765 2.082-9.152 7.589-11.871" style="fill:#162b19"/>
                        <path data-name="패스 867" d="M353.068 164.722c4.025-4.009 9.353-6.354 16.51-8.056-1.482 1.139-2.619 1.827-3.238 3.021a8.087 8.087 0 0 1-2.45 3.391 20.124 20.124 0 0 1-4.936 1.906 30.611 30.611 0 0 0-11.1 6.985c.287-1.031 2.566-4.606 5.218-7.247" style="fill:#27442c"/>
                        <path data-name="패스 868" d="M333.77 210.443c-6.772-3.975-12.3-9.507-11.676-15.433.235-2.234 1.334-4.412 1.36-6.651.035-2.947-1.776-5.746-3.18-8.547a34.872 34.872 0 0 1-3.521-11.55c-.548-4.646.211-9.793 5.239-13.1.566 1.229.006 2.543-.054 3.826-.138 2.975 2.426 5.709 5.262 8.042s6.1 4.538 7.786 7.3c2.311 3.78 1.366 8.042 2.347 12.061.764 3.132 2.693 6.084 4.213 9.1s2.646 6.228 1.739 9.344a10.6 10.6 0 0 1-3.637 5.071c-2.073 1.705-3.178 2.126-5.878.541" style="fill:#162b19"/>
                        <path data-name="패스 869" d="M339.1 194.7c.36-1.633.825-3.376 2.584-4.562 1.237-.834 3.037-1.329 3.9-2.343.994-1.161.462-2.665 1.345-3.864 1.306-1.774 4.972-2.115 7.165-3.467 3.652-2.251 2.162-6.439 5.121-9.087a13.879 13.879 0 0 1 2.633-1.681 57.136 57.136 0 0 1 9.152-4.252 5 5 0 0 0-1.044 5.344c.467 1.108 1.361 2.2 1.132 3.338-.423 2.1-4.209 3.076-6.125 4.79-2.231 2-1.73 4.837-3.667 6.96-2.344 2.569-7.714 3.518-9.8 6.181-1.228 1.57-1.089 3.493-2.418 5.028-1.316 1.519-3.866 2.426-5.357 3.875-1.273 1.237-1.691 2.79-3.034 3.995a35.524 35.524 0 0 1-2.966 2.025c-.711.511-.216 1.529-1.525 1.9-.576.417-.378-3.73 1.486-7.119 1.229-2.234.892-4.711 1.41-7.06" style="fill:#162b19"/>
                        <path data-name="패스 870" d="M386.7 192.69c-1.038-1.164-2.68-1.652-4.647-1.885-8.986-1.065-3.664-8.16-16.7-6.75.372.837 7.563 1.07 8.566 4.7.125.994.467 2.67 1.581 3.4 3.1 2.018 6.922 2.293 10.492 3.8 1.848.781 2.486 2.459 4.293 3.346 1.475.8 1.543-.35 1.056-1.06a58.694 58.694 0 0 0-4.645-5.552" style="fill:#2c5932"/>
                        <path data-name="패스 871" d="M386.7 192.69c-1.038-1.164-2.68-1.652-4.647-1.885-8.986-1.065-3.664-8.16-16.7-6.75.372.837 7.563 1.07 8.566 4.7.125.994.467 2.67 1.581 3.4 3.1 2.018 6.922 2.293 10.492 3.8 1.848.781 2.486 2.459 4.293 3.346 1.475.8 1.543-.35 1.056-1.06a58.694 58.694 0 0 0-4.645-5.552" style="fill:#27442c"/>
                        <path data-name="패스 872" d="M374.862 185.91c-2.643-3.073-8.762-5.006-14.028-4.21-4.143.627-9.22 5.939-10.028 8.763a11.225 11.225 0 0 0-.19 3.9l.349 5.137a.387.387 0 0 0 .135.318c.242.179.7.051.974-.1a5.864 5.864 0 0 0 2.515-3.542 19.049 19.049 0 0 1 4.329-7.369 3.779 3.779 0 0 1 1.129-.829 8.75 8.75 0 0 1 3.2-.4c2.43-.06 1.889-4.625 9.025-2.052 3.2 1.155 4.016 2.042 2.6.391" style="fill:#27442c"/>
                        <path data-name="패스 873" d="M320.367 195.681a13.973 13.973 0 0 1-3.358-3.207c-.844-1.346-.927-2.84-1.556-4.234-1.2-2.654-4.252-4.742-6.932-6.887a50.959 50.959 0 0 1-8.71-8.8 6.527 6.527 0 0 1-1.384-2.553c-.379-1.961 1.27-3.925.783-5.875-.116-.461-.091-1.148.625-1.148a10.13 10.13 0 0 0 3.29 3.579 28.762 28.762 0 0 0 5.107 1.964c4.51 1.6 8.07 4.3 9.8 7.448a9.683 9.683 0 0 0 2.009 3.061c.937.811 2.311 1.356 3.38 2.094a7.236 7.236 0 0 1 3.034 5.125c.277 1.857.112 3.736.5 5.585.825 3.952 4.183 7.832 3.893 11.86-1.945-.474-3.543-2.508-4.814-3.535q-2.8-2.259-5.668-4.479" style="fill:#27442c"/>
                        <path data-name="패스 874" d="M330.529 182.261c.538-1.007 1.836-1.774 2.455-2.761 1.084-1.728-.105-3.661-.423-5.517a6.749 6.749 0 0 1 2.206-5.942c1.2-1.178 2.841-2.186 3.644-3.5.4-.656.574-1.362.959-2.022.9-1.542 3.009-2.76 5.466-3.157.966 1.619 3.26 2.859 3.76 4.566.895 3.06-4.33 5.672-4.1 8.784.086 1.151.928 2.237 1 3.388.151 2.448-3.079 4.381-4.321 6.694-1 1.867.953 10.975-3.8 10.6-2.486-.194-4.056-2.636-4.689-3.925-.991-2.016-3.3-5.076-2.153-7.212" style="fill:#27442c"/>
                        <path data-name="패스 875" d="M313.1 182.8a6.155 6.155 0 0 1 1.558.977 9.625 9.625 0 0 1 .877 1.206c1.019 1.34 3.187 2.193 4.178 3.541a12.136 12.136 0 0 1 .939 1.886 3.2 3.2 0 0 0 1.679 1.607 5.406 5.406 0 0 1 .908.375c.254.166.378.453.146.632a1.151 1.151 0 0 1-.5.166 8.216 8.216 0 0 1-5.071-1 24.5 24.5 0 0 1-3.588-2.709 22.266 22.266 0 0 0-7.845-4.079 20.877 20.877 0 0 0-9.881-.434c-.05-.637.549-1.226 1.275-1.654a17 17 0 0 1 5.392-1.6c1.614-.3 3.534-.923 5.192-.637a16.991 16.991 0 0 1 4.741 1.723" style="fill:#162b19"/>
                        <path data-name="패스 876" d="M307.945 180.956a41.388 41.388 0 0 0-4.949-.085 34.726 34.726 0 0 0-4.856.1c-2.658.374-4.915 1.768-5.631 3.477-1.463 3.491 3.192 7.057 2.2 10.617a27.03 27.03 0 0 1-1.191 2.6 10.029 10.029 0 0 0-.513 3.705.807.807 0 0 0 .787-.315 1.747 1.747 0 0 0 .161-.649c.179-.908 1.277-1.6 2.054-2.364a6.93 6.93 0 0 0 1.854-5.4c-.036-1.874-.356-3.768.18-5.609a3.878 3.878 0 0 1 2.319-2.643 29.188 29.188 0 0 0 2.847-.9c1-.54 1.436-1.543 2.68-1.778.86-.162 5.064-.382 2.057-.752" style="fill:#27442c"/>
                        <path data-name="패스 877" d="M335.913 222.93a25.194 25.194 0 0 1-25.194-25.194v-6.626h50.388v6.626a25.194 25.194 0 0 1-25.194 25.194" style="fill:#162b19"/>
                        <path data-name="패스 878" d="m359.471 191.11-23.559-53.456-23.558 53.456" style="stroke:#162b19;stroke-miterlimit:10;fill:none"/>
                        <path data-name="선 4" transform="translate(335.913 76.79)" style="stroke:#162b19;stroke-miterlimit:10;fill:none" d="M0 60.865V0"/>
                        <path data-name="패스 879" d="M117.231 150.046a30.55 30.55 0 0 1-5.005-2.752c-2.09-1.607-3.06-3.685-4.289-5.633a10.785 10.785 0 0 0-5.822-4.877 6.176 6.176 0 0 1 1.943 4.886c.038 1.712-.139 3.465.656 5.1 1.183 2.427 4.325 4.216 6.188 6.456.764.917 1.308 1.906 2.073 2.823 1.668 2 6.688 4.029 8.826 1.148s-1.254-5.511-4.57-7.148" style="fill:#162b19"/>
                        <path data-name="패스 880" d="M105.3 138.125c-2.424-2.414-5.632-3.826-9.942-4.851a6.266 6.266 0 0 1 1.95 1.819 4.875 4.875 0 0 0 1.475 2.042 12.116 12.116 0 0 0 2.972 1.148 18.418 18.418 0 0 1 6.687 4.206 15.641 15.641 0 0 0-3.142-4.364" style="fill:#27442c"/>
                        <path data-name="패스 881" d="M116.919 165.656c4.078-2.394 7.407-5.725 7.031-9.293-.142-1.345-.8-2.657-.819-4.005-.021-1.775 1.069-3.46 1.915-5.147a21.005 21.005 0 0 0 2.12-6.955c.33-2.8-.127-5.9-3.155-7.892-.341.741 0 1.532.033 2.3.083 1.792-1.461 3.438-3.169 4.843s-3.67 2.733-4.688 4.4c-1.392 2.276-.823 4.843-1.413 7.263a27.547 27.547 0 0 1-2.537 5.478c-.916 1.815-1.594 3.75-1.048 5.627a6.388 6.388 0 0 0 2.19 3.053c1.248 1.027 1.914 1.28 3.54.326" style="fill:#162b19"/>
                        <path data-name="패스 882" d="M113.712 156.178a4 4 0 0 0-1.556-2.747c-.745-.5-1.829-.8-2.351-1.411-.6-.7-.278-1.605-.809-2.327-.787-1.068-2.994-1.274-4.315-2.088-2.2-1.355-1.3-3.877-3.084-5.471a8.369 8.369 0 0 0-1.585-1.013 34.439 34.439 0 0 0-5.512-2.561 3.01 3.01 0 0 1 .629 3.218c-.282.667-.82 1.323-.682 2.009.255 1.267 2.534 1.853 3.688 2.885 1.344 1.2 1.042 2.913 2.208 4.191 1.412 1.547 4.645 2.119 5.9 3.722.739.946.656 2.1 1.456 3.028s2.328 1.461 3.226 2.333c.766.745 1.018 1.68 1.827 2.406.507.455 1.206.8 1.785 1.22.429.307.13.92.919 1.144.347.251.228-2.246-.9-4.287-.74-1.345-.537-2.836-.849-4.251" style="fill:#162b19"/>
                        <path data-name="패스 883" d="M85.046 154.966a4.277 4.277 0 0 1 2.8-1.135c5.411-.641 2.206-4.914 10.054-4.065-.224.5-4.554.645-5.158 2.832a2.905 2.905 0 0 1-.952 2.045c-1.864 1.215-4.168 1.38-6.318 2.289-1.113.471-1.5 1.481-2.585 2.015-.889.482-.93-.21-.636-.638a35.308 35.308 0 0 1 2.8-3.343" style="fill:#2c5932"/>
                        <path data-name="패스 884" d="M85.046 154.966a4.277 4.277 0 0 1 2.8-1.135c5.411-.641 2.206-4.914 10.054-4.065-.224.5-4.554.645-5.158 2.832a2.905 2.905 0 0 1-.952 2.045c-1.864 1.215-4.168 1.38-6.318 2.289-1.113.471-1.5 1.481-2.585 2.015-.889.482-.93-.21-.636-.638a35.308 35.308 0 0 1 2.8-3.343" style="fill:#27442c"/>
                        <path data-name="패스 885" d="M92.175 150.883c1.592-1.849 5.276-3.014 8.447-2.534 2.495.378 5.552 3.575 6.039 5.276a6.758 6.758 0 0 1 .114 2.346l-.21 3.094a.236.236 0 0 1-.081.192c-.146.108-.42.031-.587-.063a3.53 3.53 0 0 1-1.514-2.134 11.463 11.463 0 0 0-2.607-4.436 2.25 2.25 0 0 0-.68-.5 5.269 5.269 0 0 0-1.924-.242c-1.463-.035-1.137-2.784-5.434-1.235-1.93.7-2.418 1.23-1.563.235" style="fill:#27442c"/>
                        <path data-name="패스 886" d="M124.99 156.767a8.432 8.432 0 0 0 2.022-1.931 18.742 18.742 0 0 0 .937-2.55c.721-1.6 2.56-2.855 4.174-4.147a30.691 30.691 0 0 0 5.245-5.3 3.941 3.941 0 0 0 .834-1.534c.228-1.181-.765-2.363-.472-3.538.07-.277.055-.691-.377-.691a6.089 6.089 0 0 1-1.98 2.155 17.3 17.3 0 0 1-3.076 1.183 10.706 10.706 0 0 0-5.9 4.484 5.835 5.835 0 0 1-1.209 1.844c-.564.488-1.392.816-2.036 1.261a4.36 4.36 0 0 0-1.827 3.086c-.167 1.118-.068 2.25-.3 3.363-.5 2.38-2.519 4.716-2.344 7.142 1.172-.286 2.134-1.511 2.9-2.129q1.684-1.36 3.413-2.7" style="fill:#27442c"/>
                        <path data-name="패스 887" d="M118.871 148.686c-.325-.607-1.106-1.068-1.479-1.663-.653-1.04.064-2.2.255-3.321a4.068 4.068 0 0 0-1.328-3.579 13.685 13.685 0 0 1-2.195-2.108c-.241-.394-.346-.82-.578-1.217a4.682 4.682 0 0 0-3.291-1.9c-.581.975-1.963 1.721-2.264 2.749-.539 1.843 2.607 3.416 2.468 5.29-.051.693-.558 1.347-.6 2.04-.091 1.474 1.854 2.638 2.6 4.031.6 1.124-.573 6.609 2.291 6.385 1.5-.117 2.443-1.587 2.824-2.363.6-1.214 1.986-3.057 1.3-4.343" style="fill:#27442c"/>
                        <path data-name="패스 888" d="M129.363 149.009a3.684 3.684 0 0 0-.938.588 5.707 5.707 0 0 0-.528.727c-.614.807-1.92 1.32-2.516 2.132a7.153 7.153 0 0 0-.565 1.136 1.931 1.931 0 0 1-1.012.967 3.259 3.259 0 0 0-.547.226c-.152.1-.227.273-.087.381a.7.7 0 0 0 .3.1 4.957 4.957 0 0 0 3.054-.6 14.8 14.8 0 0 0 2.16-1.632 13.431 13.431 0 0 1 4.724-2.456 12.572 12.572 0 0 1 5.95-.261c.03-.384-.33-.739-.768-1a10.234 10.234 0 0 0-3.247-.965 9.44 9.44 0 0 0-3.126-.383 10.218 10.218 0 0 0-2.853 1.037" style="fill:#162b19"/>
                        <path data-name="패스 889" d="M132.47 147.9a24.846 24.846 0 0 1 2.98-.051 20.92 20.92 0 0 1 2.924.061 4.28 4.28 0 0 1 3.391 2.09c.881 2.1-1.922 4.25-1.325 6.393a16.444 16.444 0 0 0 .717 1.565 6.033 6.033 0 0 1 .309 2.231.486.486 0 0 1-.474-.19 1.028 1.028 0 0 1-.1-.391c-.108-.547-.769-.964-1.237-1.423a4.171 4.171 0 0 1-1.116-3.253 11.118 11.118 0 0 0-.109-3.378 2.334 2.334 0 0 0-1.4-1.591 17.558 17.558 0 0 1-1.715-.543c-.6-.325-.864-.929-1.613-1.071-.518-.1-3.05-.23-1.239-.453" style="fill:#27442c"/>
                        <path data-name="패스 890" d="M115.628 173.176a15.171 15.171 0 0 0 15.172-15.171v-3.99h-30.343v3.99a15.171 15.171 0 0 0 15.171 15.171" style="fill:#162b19"/>
                        <path data-name="패스 891" d="m101.442 154.015 14.186-32.189 14.186 32.189" style="stroke:#162b19;stroke-miterlimit:10;fill:none"/>
                        <path data-name="선 5" transform="translate(115.628 85.174)" style="stroke:#162b19;stroke-miterlimit:10;fill:none" d="M0 36.651V0"/>
                        <path data-name="패스 892" d="m327.377 81.762 18.715 15.5q.58-1.518 1.069-3.133l-19.784-16.38z" style="fill:#162b19"/>
                        <path data-name="패스 893" d="m327.377 97.433 12.553 10.394a34.051 34.051 0 0 0 5.658-9.309L327.377 83.44z" style="fill:#162b19"/>
                        <path data-name="패스 894" d="m327.377 76.066 20.169 16.7a54.983 54.983 0 0 0 1.842-14.286c0-.186-.007-.368-.009-.553l-22-18.217z" style="fill:#162b19"/>
                        <path data-name="패스 895" d="M318.895 112.109a15.419 15.419 0 0 0 7.189 2.343v-8.3z" style="fill:#162b19"/>
                        <path data-name="패스 896" d="m326.084 94.87-13.567 11.23a24.24 24.24 0 0 0 5.254 5.258l8.313-6.882z" style="fill:#162b19"/>
                        <path data-name="패스 897" d="M327.377 114.468c4.3-.137 8.3-2.205 11.676-5.689l-11.676-9.668z" style="fill:#162b19"/>
                        <path data-name="패스 898" d="M326.084 93.192v-4.018l-15.955 13.21a34.08 34.08 0 0 0 1.635 2.665z" style="fill:#162b19"/>
                        <path data-name="패스 899" d="m326.084 71.139-20.767 17.194a46.366 46.366 0 0 0 4.191 12.887l16.576-13.72z" style="fill:#162b19"/>
                        <path data-name="패스 900" d="m326.084 53.576-21.151 17.512a57.431 57.431 0 0 0 .142 15.767l21.009-17.394z" style="fill:#162b19"/>
                        <path data-name="패스 901" d="m326.084 93.192-14.32 11.857q.367.54.753 1.054l13.567-11.233v9.609l-8.313 6.882q.555.4 1.124.748l7.189-5.952v8.3c.279.016.557.034.839.034.152 0 .3-.014.454-.019V99.11l11.676 9.668q.445-.46.877-.952l-12.553-10.394V83.44l18.211 15.078q.259-.623.5-1.261l-18.715-15.5v-4.014l19.784 16.381c.135-.448.261-.9.385-1.36l-20.169-16.7V59.709l22 18.216a60.425 60.425 0 0 0-.04-1.711l-21.956-18.183v-8.7l20.731 17.164a61.87 61.87 0 0 0-.5-2.1l-20.231-16.743v-5.163c-.152 0-.3-.019-.454-.019-.282 0-.56.018-.839.034V51.9l-20.865 17.273c-.1.632-.2 1.27-.286 1.915l21.151-17.512v15.885l-21.009 17.394q.111.745.242 1.478l20.767-17.194V87.5l-16.576 13.72c.2.4.409.782.621 1.164l15.955-13.21z" style="fill:#2c5932"/>
                        <path data-name="패스 902" d="m371.723 99.032 24.647 20.407q.765-2 1.408-4.127L371.723 93.74z" style="fill:#27442c"/>
                        <path data-name="패스 903" d="m371.723 119.67 16.532 13.688a44.851 44.851 0 0 0 7.451-12.259l-23.983-19.857z" style="fill:#27442c"/>
                        <path data-name="패스 904" d="m371.723 91.531 26.561 21.992a72.409 72.409 0 0 0 2.426-18.815c0-.244-.009-.484-.012-.728l-28.975-23.99z" style="fill:#27442c"/>
                        <path data-name="패스 905" d="M360.553 139a20.3 20.3 0 0 0 9.467 3.085v-10.926z" style="fill:#27442c"/>
                        <path data-name="패스 906" d="m371.723 67.78 28.923 23.947a72.761 72.761 0 0 0-1.621-12.8l-27.3-22.6z" style="fill:#27442c"/>
                        <path data-name="패스 907" d="m370.02 116.295-17.867 14.794a31.93 31.93 0 0 0 6.92 6.924l10.947-9.063z" style="fill:#27442c"/>
                        <path data-name="패스 908" d="M371.723 142.1c5.659-.181 10.925-2.9 15.377-7.493l-15.377-12.727z" style="fill:#27442c"/>
                        <path data-name="패스 909" d="M370.02 114.086v-5.292l-21.012 17.4c.68 1.227 1.4 2.4 2.153 3.51z" style="fill:#27442c"/>
                        <path data-name="패스 910" d="m370.02 85.043-27.349 22.644a61.051 61.051 0 0 0 5.519 16.971l21.83-18.074z" style="fill:#27442c"/>
                        <path data-name="패스 911" d="m370.02 61.913-27.854 23.062a75.488 75.488 0 0 0 .187 20.765l27.667-22.907z" style="fill:#27442c"/>
                        <path data-name="패스 912" d="M370.02 47.332c-13.206.778-24.2 15.421-27.478 35.122L370.02 59.7z" style="fill:#27442c"/>
                        <path data-name="패스 913" d="M370.02 114.086 351.161 129.7c.324.475.655.936.992 1.388L370.02 116.3v12.65l-10.947 9.064c.487.348.979.678 1.48.985l9.467-7.839v10.924c.367.021.734.044 1.1.044.2 0 .4-.017.6-.024V121.88l15.38 12.732q.588-.606 1.156-1.254l-16.533-13.688v-18.427L395.7 121.1q.344-.817.664-1.66l-24.641-20.407v-5.292l26.054 21.572c.178-.589.344-1.188.507-1.79l-26.561-21.992V69.99L400.7 93.98q-.01-1.133-.053-2.253L371.723 67.78V56.322l27.3 22.605a59.12 59.12 0 0 0-.663-2.76l-26.637-22.055v-6.8c-.2-.006-.4-.024-.6-.024-.37 0-.737.023-1.1.045V59.7l-27.481 22.755a69.11 69.11 0 0 0-.376 2.521l27.854-23.062v20.919l-27.667 22.908q.146.981.318 1.946l27.349-22.644v21.541l-21.83 18.074c.266.522.539 1.031.818 1.533l21.012-17.4z" style="fill:#2c5932"/>
                        <path data-name="패스 914" d="M138.425 128.868a4.038 4.038 0 1 1 4.039 4.039 4.039 4.039 0 0 1-4.039-4.039" style="fill:#162b19"/>
                        <path data-name="패스 915" d="M150.762 123.432a4.039 4.039 0 1 1 4.039 4.039 4.039 4.039 0 0 1-4.039-4.039" style="fill:#162b19"/>
                        <path data-name="패스 916" d="M151.6 111.192a4.038 4.038 0 1 1 4.039 4.039 4.039 4.039 0 0 1-4.039-4.039" style="fill:#162b19"/>
                        <path data-name="패스 917" d="M150.762 99.092a4.039 4.039 0 1 1 4.039 4.039 4.039 4.039 0 0 1-4.039-4.039" style="fill:#162b19"/>
                        <path data-name="패스 918" d="M134.165 123.432a4.038 4.038 0 1 0-4.039 4.039 4.039 4.039 0 0 0 4.039-4.039" style="fill:#162b19"/>
                        <path data-name="패스 919" d="M134.165 109.883a4.038 4.038 0 1 0-4.039 4.039 4.039 4.039 0 0 0 4.039-4.039" style="fill:#162b19"/>
                        <path data-name="패스 920" d="M134.165 99.092a4.038 4.038 0 1 0-4.039 4.039 4.039 4.039 0 0 0 4.039-4.039" style="fill:#162b19"/>
                        <path data-name="선 6" transform="translate(142.463 76.795)" style="stroke:#162b19;stroke-width:2px;stroke-miterlimit:10;fill:none" d="M0 0v52.073"/>
                        <path data-name="선 7" transform="translate(130.126 111.216)" style="stroke:#162b19;stroke-width:2px;stroke-miterlimit:10;fill:none" d="M0 12.216 12.216 0"/>
                        <path data-name="선 8" transform="translate(130.126 86.876)" style="stroke:#162b19;stroke-width:2px;stroke-miterlimit:10;fill:none" d="M0 12.216 12.216 0"/>
                        <path data-name="선 9" transform="translate(130.592 98.134)" style="stroke:#162b19;stroke-width:2px;stroke-miterlimit:10;fill:none" d="M0 11.749 11.749 0"/>
                        <path data-name="선 10" transform="translate(142.584 111.216)" style="stroke:#162b19;stroke-width:2px;stroke-miterlimit:10;fill:none" d="M12.216 12.216 0 0"/>
                        <path data-name="선 11" transform="translate(142.584 86.876)" style="stroke:#162b19;stroke-width:2px;stroke-miterlimit:10;fill:none" d="M12.216 12.216 0 0"/>
                        <path data-name="선 12" transform="translate(142.584 98.134)" style="stroke:#162b19;stroke-width:2px;stroke-miterlimit:10;fill:none" d="M13.058 13.058 0 0"/>
                        <path data-name="패스 921" d="M22.558 261.036v1a70.01 70.01 0 0 1 69.925 69.437h-17.8a52.282 52.282 0 0 0-52.126-49.187v1a51.279 51.279 0 0 1 51.221 51.221v152.214l1-4.255v-36.3h8.532l.235-1h-8.766v-36.9h17.436l.236-1H74.779v-36.9H92.5v36.7l1-4.255v-70.838a71.017 71.017 0 0 0-70.938-70.937M92.5 369.37H74.779v-34.863c0-.682-.025-1.358-.051-2.034H92.5z" style="fill:#27442c"/>
                        <path data-name="패스 922" d="M328.423 483.061h17.053l-8.67-36.9h-8.383z" style="fill:#56b36b"/>
                        <path data-name="패스 923" d="m336.571 445.164-8.148-34.673v34.673z" style="fill:#56b36b"/>
                        <path data-name="패스 924" d="M92.5 483.061v-36.9h-9.19l-8.531 36.3v.595z" style="fill:#56b36b"/>
                        <path data-name="패스 925" d="M92.5 408.267h-.281l-8.67 36.9H92.5z" style="fill:#56b36b"/>
                        <path data-name="패스 926" d="m92.5 407.073-.045.194h.045z" style="fill:#56b36b"/>
                        <path data-name="패스 927" d="M346.14 524.955h1v-34.816l-1-4.255z" style="fill:#2c5932"/>
                        <path data-name="패스 928" d="M328.423 483.061v-36.9h8.383l-.235-1h-8.148v-34.67l-1-4.255v118.719h1v-40.894h17.288l-.235-1z" style="fill:#2c5932"/>
                        <path data-name="패스 929" d="M92.5 407.267h-.045l-.236 1h.281v36.9h-8.955l-.235 1h9.19v36.9H74.779v-.6l-1 4.255v38.234h1v-40.895H92.5v40.894h1V402.818l-1 4.255z" style="fill:#338c44"/>
                        <path data-name="패스 930" d="M346.235 331.473h-17.8a70 70 0 0 1 69.341-69.423v-1a71.011 71.011 0 0 0-70.354 70.923v74.263l1 4.255v-2.224h17.718v36.9h-9.569l.235 1h9.334v36.9h-.663l.235 1h.428v1.823l1 4.255V334.507a51.272 51.272 0 0 1 50.637-51.207v-1a52.276 52.276 0 0 0-51.542 49.173m-.095 75.794h-17.717v-36.9h17.717zm0-72.76v34.863h-17.717v-36.9h17.769c-.026.676-.052 1.352-.052 2.034" style="fill:#27442c"/>
                        <path data-name="패스 931" d="M22.558 523.955v2h42l.47-2z" style="fill:#27442c"/>
                        <path data-name="패스 932" d="M397.558 523.955h-42.471l.47 2h42z" style="fill:#27442c"/>
                        <path data-name="패스 933" d="m65.029 523.955-.47 2h291l-.47-2z" style="fill:#338c44"/>
                        <path data-name="패스 934" d="M139.62 524.955V331.973a70.438 70.438 0 0 1 140.876 0v192.982" style="stroke:#5f9969;stroke-miterlimit:10;fill:none"/>
                        <path data-name="패스 935" d="M158.337 524.955V334.507a51.721 51.721 0 0 1 103.443 0v190.448" style="stroke:#5f9969;stroke-miterlimit:10;fill:none"/>
                        <path data-name="선 13" transform="translate(139.62 331.973)" style="stroke:#5f9969;stroke-miterlimit:10;fill:none" d="M0 0h18.717"/>
                        <path data-name="선 14" transform="translate(261.779 331.973)" style="stroke:#5f9969;stroke-miterlimit:10;fill:none" d="M0 0h18.717"/>
                        <path data-name="선 15" transform="translate(139.62 369.87)" style="stroke:#5f9969;stroke-miterlimit:10;fill:none" d="M0 0h18.717"/>
                        <path data-name="선 16" transform="translate(261.779 369.87)" style="stroke:#5f9969;stroke-miterlimit:10;fill:none" d="M0 0h18.717"/>
                        <path data-name="선 17" transform="translate(139.62 407.767)" style="stroke:#5f9969;stroke-miterlimit:10;fill:none" d="M0 0h18.717"/>
                        <path data-name="선 18" transform="translate(261.779 407.767)" style="stroke:#5f9969;stroke-miterlimit:10;fill:none" d="M0 0h18.717"/>
                        <path data-name="선 19" transform="translate(139.62 445.664)" style="stroke:#5f9969;stroke-miterlimit:10;fill:none" d="M0 0h18.717"/>
                        <path data-name="선 20" transform="translate(261.779 445.664)" style="stroke:#5f9969;stroke-miterlimit:10;fill:none" d="M0 0h18.717"/>
                        <path data-name="선 21" transform="translate(139.62 483.561)" style="stroke:#5f9969;stroke-miterlimit:10;fill:none" d="M0 0h18.717"/>
                        <path data-name="선 22" transform="translate(261.779 483.561)" style="stroke:#5f9969;stroke-miterlimit:10;fill:none" d="M0 0h18.717"/>
                        <path data-name="패스 936" d="M64.669 525.955 28.746 678.822S73.45 731.1 210.168 731.1s181.421-52.276 181.421-52.276l-35.922-152.869z" style="fill:#56b36b"/>
                        <path data-name="패스 937" d="M92.232 544.426H59.306a4.445 4.445 0 0 1 0-8.889h32.926a4.445 4.445 0 0 1 0 8.889" style="fill:#2c5932"/>
                        <path data-name="패스 938" d="M376.29 544.426h-51.28a4.445 4.445 0 0 1 0-8.889h51.28a4.445 4.445 0 0 1 0 8.889" style="fill:#2c5932"/>
                        <path data-name="패스 939" d="M61.58 631.087 38.381 598.8q-1.1 2.83-2.09 5.854l24.523 34.13z" style="fill:#27442c"/>
                        <path data-name="패스 940" d="M64.565 601.066 49 579.41a73.148 73.148 0 0 0-9.679 17.047L61.9 627.873z" style="fill:#27442c"/>
                        <path data-name="패스 941" d="m60.494 642-25-34.794a143.181 143.181 0 0 0-5.3 27.114c-.035.355-.06.706-.093 1.06l27.273 37.955z" style="fill:#27442c"/>
                        <path data-name="패스 942" d="M79.213 574.128a17.961 17.961 0 0 0-9.6-5.487l-1.58 15.891z" style="fill:#27442c"/>
                        <path data-name="패스 943" d="m57.059 676.55-27.223-37.887a143.961 143.961 0 0 0-.133 18.792l25.7 35.763z" style="fill:#27442c"/>
                        <path data-name="패스 944" d="m65.883 606.155 21.1-19.634a42.794 42.794 0 0 0-6.34-10.8l-12.926 12.03z" style="fill:#27442c"/>
                        <path data-name="패스 945" d="M67.81 568.432c-6.03-.334-12.012 3.072-17.4 9.277l14.473 20.143z" style="fill:#27442c"/>
                        <path data-name="패스 946" d="m65.564 609.369-.766 7.7 24.811-23.09a73.06 73.06 0 0 0-1.776-5.333z" style="fill:#27442c"/>
                        <path data-name="패스 947" d="m61.362 651.617 32.294-30.055a113.9 113.9 0 0 0-3.4-25.269l-25.778 23.989z" style="fill:#27442c"/>
                        <path data-name="패스 948" d="m58.017 685.263 32.89-30.609c.888-4.527 1.59-9.238 2.073-14.092a149.752 149.752 0 0 0 .732-16.134l-32.669 30.4z" style="fill:#27442c"/>
                        <path data-name="패스 949" d="M55.907 706.474c14.124.261 27.906-19.879 34.235-48.192L57.7 688.478z" style="fill:#27442c"/>
                        <path data-name="패스 950" d="M30.008 661.539c2.285 24.756 11.438 42.966 24.09 44.785l.983-9.891z" style="fill:#27442c"/>
                        <path data-name="패스 951" d="m54.1 706.324-6.844 68.824 1.806.179 6.847-68.853c-.392-.008-.785-.013-1.178-.052-.213-.021-.42-.068-.631-.1" style="fill:#2c5932"/>
                        <path data-name="패스 952" d="m65.564 609.369 22.269-20.725a63.045 63.045 0 0 0-.852-2.124l-21.1 19.634 1.83-18.408 12.926-12.03q-.7-.837-1.427-1.588l-11.179 10.4 1.58-15.891c-.386-.07-.772-.143-1.165-.182-.213-.021-.426-.016-.638-.027l-2.926 29.419-14.47-20.138q-.711.818-1.408 1.7l15.561 21.656-2.665 26.808-22.574-31.416q-.481 1.154-.945 2.344l23.2 32.286-.765 7.7-24.524-34.13c-.274.839-.537 1.692-.8 2.551l25 34.794-3.116 31.335-27.27-37.957q-.153 1.648-.27 3.283l27.223 37.887-1.659 16.668-25.7-35.763c.083 1.378.181 2.742.3 4.084l25.074 34.894-.984 9.891c.211.03.419.077.631.1.393.039.786.044 1.179.052l1.789-18 32.446-30.2q.4-1.794.764-3.628l-32.89 30.609 3.026-30.431 32.669-30.4q-.012-1.444-.055-2.866l-32.286 30.057 3.116-31.335 25.776-23.989a82.493 82.493 0 0 0-.646-2.316L64.8 617.067z" style="fill:#2c5932"/>
                        <path data-name="패스 953" d="M387.058 716.564a23.807 23.807 0 0 1-31.5-11.888l-27.818-61.548a23.806 23.806 0 1 1 43.387-19.609l27.817 61.547a23.8 23.8 0 0 1-11.888 31.5" style="fill:#162b19"/>
                        <path data-name="선 23" transform="translate(345.165 623.877)" style="stroke-linecap:round;stroke-linejoin:round;stroke:#27442c;stroke-width:2px;fill:none" d="m0 0 41.892 92.687"/>
                        <path data-name="선 24" transform="translate(339.356 642.548)" style="stroke-linecap:round;stroke-linejoin:round;stroke:#27442c;stroke-width:2px;fill:none" d="m0 0 16.198 4.312"/>
                        <path data-name="선 25" transform="translate(349.914 665.908)" style="stroke-linecap:round;stroke-linejoin:round;stroke:#27442c;stroke-width:2px;fill:none" d="m0 0 16.198 4.312"/>
                        <path data-name="선 26" transform="translate(360.818 690.033)" style="stroke-linecap:round;stroke-linejoin:round;stroke:#27442c;stroke-width:2px;fill:none" d="m0 0 16.198 4.312"/>
                        <path data-name="선 27" transform="translate(377.015 679.338)" style="stroke-linecap:round;stroke-linejoin:round;stroke:#27442c;stroke-width:2px;fill:none" d="M7.466 0 0 15.008"/>
                        <path data-name="선 28" transform="translate(366.111 655.212)" style="stroke-linecap:round;stroke-linejoin:round;stroke:#27442c;stroke-width:2px;fill:none" d="M7.466 0 0 15.008"/>
                        <path data-name="선 29" transform="translate(355.207 631.087)" style="stroke-linecap:round;stroke-linejoin:round;stroke:#27442c;stroke-width:2px;fill:none" d="M7.466 0 0 15.008"/>
                        <path data-name="패스 954" d="M434.79 708.407a34.237 34.237 0 0 1-45.315-17.059l-40.085-88.481a34.238 34.238 0 1 1 62.374-28.257l40.085 88.482a34.239 34.239 0 0 1-17.059 45.315" style="fill:#162b19"/>
                        <path data-name="선 30" transform="translate(374.425 575.158)" style="stroke-linecap:round;stroke-linejoin:round;stroke:#27442c;stroke-width:2px;fill:none" d="m0 0 60.365 133.249"/>
                        <path data-name="선 31" transform="translate(366.093 602.019)" style="stroke-linecap:round;stroke-linejoin:round;stroke:#27442c;stroke-width:2px;fill:none" d="m0 0 23.301 6.182"/>
                        <path data-name="선 32" transform="translate(381.306 635.601)" style="stroke-linecap:round;stroke-linejoin:round;stroke:#27442c;stroke-width:2px;fill:none" d="m0 0 23.301 6.182"/>
                        <path data-name="선 33" transform="translate(397.018 670.284)" style="stroke-linecap:round;stroke-linejoin:round;stroke:#27442c;stroke-width:2px;fill:none" d="m0 0 23.301 6.182"/>
                        <path data-name="선 34" transform="translate(388.895 585.506)" style="stroke-linecap:round;stroke-linejoin:round;stroke:#27442c;stroke-width:2px;fill:none" d="M10.718 0 0 21.593"/>
                        <path data-name="패스 955" d="M342.43 760.941h-20.055v-61.02a6.8 6.8 0 0 1 6.8-6.8h6.455a6.8 6.8 0 0 1 6.8 6.8z" style="fill:#27442c"/>
                        <path data-name="패스 956" d="M358.024 760.941h-20.673v-86.5a6.8 6.8 0 0 1 6.8-6.8h7.073a6.8 6.8 0 0 1 6.8 6.8z" style="fill:#27442c"/>
                        <path data-name="패스 957" d="M392.745 760.941h-21.413v-65.414a6.8 6.8 0 0 1 6.8-6.8h7.813a6.8 6.8 0 0 1 6.8 6.8z" style="fill:#27442c"/>
                        <path data-name="패스 958" d="M354.638 760.941h27.031v-43.307a6.8 6.8 0 0 0-6.8-6.8h-13.431a6.8 6.8 0 0 0-6.8 6.8z" style="fill:#27442c"/>
                        <path data-name="패스 959" d="M297.267 760.941H324.3v-43.307a6.8 6.8 0 0 0-6.8-6.8h-13.433a6.8 6.8 0 0 0-6.8 6.8z" style="fill:#27442c"/>
                        <path data-name="패스 960" d="M389.516 760.941h27.031v-57.473a6.8 6.8 0 0 0-6.8-6.8h-13.43a6.8 6.8 0 0 0-6.8 6.8z" style="fill:#27442c"/>
                        <path data-name="패스 961" d="M297.267 674.891s34.3 34.909 34.3 104.39" style="stroke-width:27px;stroke-linecap:round;stroke-linejoin:round;stroke:#162b19;fill:none"/>
                        <path data-name="패스 962" d="M239.4 756.413h-13.6V717.22a6.8 6.8 0 0 1 13.6 0z" style="fill:#162b19"/>
                        <path data-name="패스 963" d="M249.973 756.413h-14.02V699.94a6.8 6.8 0 0 1 6.8-6.8h.419a6.8 6.8 0 0 1 6.8 6.8z" style="fill:#162b19"/>
                        <path data-name="패스 964" d="M273.52 756.413H259V714.24a6.8 6.8 0 0 1 6.8-6.8h.921a6.8 6.8 0 0 1 6.8 6.8z" style="fill:#162b19"/>
                        <path data-name="패스 965" d="M247.677 756.413h18.332v-27.181a6.8 6.8 0 0 0-6.8-6.8h-4.731a6.8 6.8 0 0 0-6.8 6.8z" style="fill:#162b19"/>
                        <path data-name="패스 966" d="M211.135 761.134h13.6a2.365 2.365 0 0 0 2.365-2.365v-61.575a9.165 9.165 0 1 0-18.331 0v61.575a2.365 2.365 0 0 0 2.365 2.365" style="fill:#162b19"/>
                        <path data-name="패스 967" d="M271.33 756.413h18.332v-36.788a6.8 6.8 0 0 0-6.8-6.8h-4.732a6.8 6.8 0 0 0-6.8 6.8z" style="fill:#162b19"/>
                        <path data-name="패스 968" d="M150.9 761.134h-16.868a1.912 1.912 0 0 1-1.912-1.912v-27.585a10.349 10.349 0 1 1 20.7 0v27.585a1.912 1.912 0 0 1-1.912 1.912" style="fill:#162b19"/>
                        <path data-name="패스 969" d="M162.87 761.134H146v-47a8.437 8.437 0 1 1 16.873 0z" style="fill:#162b19"/>
                        <path data-name="패스 970" d="M167.167 719.81h14.468a8.436 8.436 0 0 1 8.436 8.437v32.887H158.73v-32.887a8.437 8.437 0 0 1 8.437-8.437" style="fill:#162b19"/>
                        <path data-name="패스 971" d="M65.894 756.349H49.021a2.417 2.417 0 0 1-2.417-2.416V644.727a10.852 10.852 0 0 1 21.7 0v109.206a2.415 2.415 0 0 1-2.415 2.416" style="fill:#162b19"/>
                        <path data-name="패스 972" d="M50.519 777.927H33.646a2.416 2.416 0 0 1-2.416-2.416V666.3a10.853 10.853 0 0 1 21.705 0v109.211a2.416 2.416 0 0 1-2.416 2.416" style="fill:#162b19"/>
                        <path data-name="패스 973" d="M30.994 751.169H14.122a2.416 2.416 0 0 1-2.417-2.416V639.547a10.852 10.852 0 0 1 21.7 0v109.206a2.416 2.416 0 0 1-2.416 2.416" style="fill:#162b19"/>
                        <path data-name="패스 974" d="M135.487 653.539s-25.822 41.757-27.6 161.207" style="stroke-width:49px;stroke-linecap:round;stroke-linejoin:round;stroke:#162b19;fill:none"/>
                        <path data-name="패스 975" d="M174.4 727.031s41.018 24.526 41.018 75.693h-35.943s12.686-30.446-5.074-75.693" style="fill:#27442c"/>
                        <path data-name="패스 976" d="M142.934 725.923s41.018 24.526 41.018 75.693h-35.944s12.686-30.446-5.074-75.693" style="fill:#27442c"/>
                        <path data-name="패스 977" d="M261.16 704.786s-28.04 16.766-28.04 51.743h24.571s-8.672-20.813 3.469-51.743" style="fill:#27442c"/>
                        <path data-name="패스 978" d="M36.578 696.561S8.538 713.327 8.538 748.3h24.571s-8.672-20.813 3.469-51.743" style="fill:#27442c"/>
                        <path data-name="패스 979" d="M133.564 697.644s-11.669 29.772-11.669 58.885h20.451s0-35.189-8.782-58.885" style="fill:#27442c"/>
                        <path data-name="패스 980" d="M43.526 704.7s-11.669 29.772-11.669 58.885h20.451s0-35.189-8.782-58.885" style="fill:#27442c"/>
                        <path data-name="패스 981" d="M173 713.461s-23.338 13.955-23.338 43.067h20.451s-7.218-17.323 2.887-43.067" style="fill:#27442c"/>
                        <path data-name="패스 982" d="M326.085 724.946s-23.338 13.955-23.338 43.067H323.2s-7.218-17.323 2.887-43.067" style="fill:#27442c"/>
                        <path data-name="패스 983" d="M124.43 725.832s-23.338 13.955-23.338 43.067h20.451s-7.218-17.323 2.887-43.067" style="fill:#27442c"/>
                        <path data-name="패스 984" d="M235.068 726.259s-23.338 13.955-23.338 43.067h20.451s-7.218-17.323 2.887-43.067" style="fill:#27442c"/>
                        <path data-name="패스 985" d="M220 728.918s-23.338 13.955-23.338 43.067h20.451s-7.218-17.323 2.887-43.067" style="fill:#27442c"/>
                        <path data-name="패스 986" d="M179.447 734.9s-23.338 13.955-23.338 43.067h20.451s-7.218-17.323 2.887-43.067" style="fill:#27442c"/>
                        <path data-name="패스 987" d="M273.3 714.414s22.822 13.646 22.822 42.114h-20s7.059-16.94-2.823-42.114" style="fill:#27442c"/>
                        <path data-name="패스 988" d="M324.3 714.83s22.822 13.646 22.822 42.114h-20S334.18 740 324.3 714.83" style="fill:#27442c"/>
                        <path data-name="패스 989" d="M259.8 730.211s22.822 13.646 22.822 42.114h-20s7.059-16.94-2.823-42.114" style="fill:#27442c"/>
                        <path data-name="패스 990" d="M312.543 718.909s22.822 13.646 22.822 42.114h-20s7.059-16.94-2.823-42.114" style="fill:#27442c"/>
                        <path data-name="패스 991" d="M33.771 718.466s22.822 13.646 22.822 42.114h-20s7.059-16.94-2.823-42.114" style="fill:#27442c"/>
                        <path data-name="패스 992" d="M86.227 710.687 63.72 687.942q-.958 1.914-1.809 3.966L85.7 715.953z" style="fill:#27442c"/>
                        <path data-name="패스 993" d="m88.27 690.151-15.1-15.257a44.871 44.871 0 0 0-8.628 11.462l21.9 22.132z" style="fill:#27442c"/>
                        <path data-name="패스 994" d="M85.485 718.152 61.23 693.64a72.39 72.39 0 0 0-4.275 18.482c-.024.243-.039.483-.061.725l26.459 26.74z" style="fill:#27442c"/>
                        <path data-name="패스 995" d="M101.3 672.023a20.292 20.292 0 0 0-9.116-4.007l-1.084 10.87z" style="fill:#27442c"/>
                        <path data-name="패스 996" d="M83.135 741.787 56.724 715.1a72.656 72.656 0 0 0 .346 12.9L82 753.189z" style="fill:#27442c"/>
                        <path data-name="패스 997" d="m89.63 693.677 19.243-12.952a31.9 31.9 0 0 0-6.2-7.576l-11.79 7.936z" style="fill:#27442c"/>
                        <path data-name="패스 998" d="M90.49 667.827c-5.65-.38-11.16 1.809-16.043 5.934l14.041 14.191z" style="fill:#27442c"/>
                        <path data-name="패스 999" d="m89.411 695.877-.524 5.266 22.631-15.233a44.207 44.207 0 0 0-1.795-3.7z" style="fill:#27442c"/>
                        <path data-name="패스 1000" d="m86.537 724.777 29.456-19.827a61.084 61.084 0 0 0-3.813-17.433l-23.511 15.825z" style="fill:#27442c"/>
                        <path data-name="패스 1001" d="m84.248 747.793 30-20.193a75.547 75.547 0 0 0 1.868-20.681l-29.8 20.057z" style="fill:#27442c"/>
                        <path data-name="패스 1002" d="M82.806 762.3c13.218.532 25.606-12.951 30.819-32.23l-29.6 19.92z" style="fill:#27442c"/>
                        <path data-name="패스 1003" d="M57.457 730.8c2.756 17.053 11.772 29.784 23.652 31.349l.673-6.766z" style="fill:#27442c"/>
                        <path data-name="패스 1004" d="m81.109 762.154-4.682 47.08 1.694.168 4.684-47.1c-.367-.015-.735-.028-1.1-.065-.2-.02-.4-.057-.593-.083" style="fill:#2c5932"/>
                        <path data-name="패스 1005" d="m89.411 695.877 20.312-13.672c-.275-.5-.56-1-.85-1.479L89.63 693.678l1.252-12.592 11.79-7.936q-.675-.593-1.375-1.127l-10.2 6.864 1.081-10.87c-.364-.058-.726-.118-1.1-.154-.2-.02-.4-.022-.6-.035l-2 20.125-14.032-14.191q-.644.544-1.273 1.133l15.1 15.257-1.823 18.337-21.9-22.133q-.423.78-.825 1.587l22.506 22.745-.523 5.266-23.797-24.045a65.648 65.648 0 0 0-.681 1.732l24.255 24.512-2.132 21.435-26.459-26.74q-.1 1.129-.17 2.248l26.411 26.691L82 753.189l-24.931-25.2c.112.948.238 1.887.387 2.811l24.325 24.583-.673 6.766c.2.027.394.064.593.084.369.036.736.05 1.1.064l1.225-12.31 29.594-19.92c.22-.814.43-1.637.624-2.472l-30 20.193 2.07-20.817 29.8-20.057q-.049-.992-.124-1.969l-29.453 19.832 2.132-21.435 23.511-15.825a51.851 51.851 0 0 0-.662-1.607l-22.631 15.233z" style="fill:#2c5932"/>
                        <path data-name="사각형 837" transform="translate(22.558 747.342)" style="fill:#27442c" d="M0 0h375v141.448H0z"/>
                        <path data-name="패스 1006" d="M74.174 498.839a39.668 39.668 0 0 0 6.622-5.588c2.766-3.262 4.05-7.481 5.675-11.436s3.883-7.985 7.705-9.9c-2.1 2.771-2.52 6.445-2.571 9.921s.184 7.035-.868 10.348c-1.566 4.929-5.723 8.561-8.189 13.108-1.01 1.863-1.73 3.871-2.742 5.733-2.208 4.061-8.849 8.18-11.679 2.331-2.818-5.826 1.659-11.19 6.047-14.514" style="fill:#162b19"/>
                        <path data-name="패스 1007" d="M100.624 468.26a12.262 12.262 0 0 1 2.494-3.475c-5.7 2.081-9.947 4.948-13.155 9.849a39.723 39.723 0 0 0-2.838 5.289c3.977-4.584 8.123-8.944 13.5-11.663" style="fill:#a6cc96"/>
                        <path data-name="패스 1008" d="M87.125 479.924a20.364 20.364 0 0 0-1.319 3.572c.8-1.17 4.15-6.15 8.848-8.541a13.352 13.352 0 0 0 3.933-2.33 10.872 10.872 0 0 0 1.952-4.146c.025-.077.057-.145.085-.218-5.376 2.718-9.522 7.079-13.5 11.663" style="fill:#2c5932"/>
                        <path data-name="패스 1009" d="M74.588 530.533c-5.4-4.86-9.8-11.624-9.3-18.868.186-2.732 1.062-5.4 1.083-8.133.028-3.6-1.416-7.025-2.534-10.449a60.387 60.387 0 0 1-2.806-14.121c-.437-5.68.168-11.973 4.175-16.023.451 1.5 0 3.11-.043 4.678-.11 3.638 1.933 6.98 4.193 9.833s4.855 5.548 6.2 8.929c1.841 4.622 1.089 9.833 1.87 14.746.609 3.83 2.146 7.439 3.358 11.123s2.109 7.614 1.385 11.424a14.291 14.291 0 0 1-2.9 6.2c-1.652 2.084-2.533 2.6-4.683.661" style="fill:#2c5932"/>
                        <path data-name="패스 1010" d="M103.215 478.574a8.581 8.581 0 0 1 1.038-3.056 41.012 41.012 0 0 0-7.294 5.2 11.875 11.875 0 0 0-2.1 2.056 12.536 12.536 0 0 0-1.764 5.342 20.576 20.576 0 0 1 10.118-9.542" style="fill:#a6cc96"/>
                        <path data-name="패스 1011" d="M93.1 488.116c-.38 2.166-.767 4.3-2.316 5.767-1.748 1.653-4.669 2.071-5.71 4.239-.7 1.466-.28 3.3-1.071 4.725-.69 1.239-2.125 1.844-3.11 2.864-1.4 1.45-1.772 3.582-2.059 5.577-.413 2.872-.144 5.9-1.123 8.632-1.486 4.144-1.644 9.214-1.185 8.7 1.044-.456.649-1.7 1.216-2.324a31.691 31.691 0 0 0 2.363-2.476c1.07-1.474 1.4-3.372 2.417-4.885 1.188-1.771 3.22-2.88 4.268-4.737 1.059-1.877.948-4.227 1.927-6.147 1.66-3.256 5.938-4.417 7.807-7.558 1.543-2.594 1.144-6.068 2.921-8.509 1.527-2.1 4.543-3.286 4.88-5.857.183-1.393-.53-2.725-.9-4.08a8.587 8.587 0 0 1-.206-3.477 20.572 20.572 0 0 0-10.119 9.546" style="fill:#2c5932"/>
                        <path data-name="패스 1012" d="M116.762 508.829a4.927 4.927 0 0 0-3.7-2.305c-7.16-1.3-2.919-9.976-13.3-8.253.3 1.025 6.026 1.309 6.825 5.75.1 1.215.373 3.264 1.26 4.151 2.466 2.468 5.515 2.8 8.36 4.65 1.472.955 1.981 3.006 3.421 4.091 1.175.977 1.229-.428.841-1.3a73.347 73.347 0 0 0-3.7-6.788" style="fill:#577725"/>
                        <path data-name="패스 1013" d="M116.762 508.829a4.927 4.927 0 0 0-3.7-2.305c-7.16-1.3-2.919-9.976-13.3-8.253.3 1.025 6.026 1.309 6.825 5.75.1 1.215.373 3.264 1.26 4.151 2.466 2.468 5.515 2.8 8.36 4.65 1.472.955 1.981 3.006 3.421 4.091 1.175.977 1.229-.428.841-1.3a73.347 73.347 0 0 0-3.7-6.788" style="fill:#162b19"/>
                        <path data-name="패스 1014" d="M91.821 498.852a19.486 19.486 0 0 0-3.66 7.254 20.959 20.959 0 0 0-.152 4.765l.279 6.28a.619.619 0 0 0 .107.389c.194.219.556.063.776-.129 1.223-1.06 1.628-2.756 2-4.33a27.983 27.983 0 0 1 3.45-9.009 3.528 3.528 0 0 1 .9-1.014 4.732 4.732 0 0 1 2.546-.487c1.936-.074 1.5-5.655 7.191-2.51 2.553 1.413 3.2 2.5 2.068.479a9.436 9.436 0 0 0-.556-.862c-4.61-3.241-9.984-3.029-14.952-.826" style="fill:#338c44"/>
                        <path data-name="패스 1015" d="M96.152 495.393c-1.416.329-2.968 1.714-4.33 3.459 4.968-2.2 10.341-2.415 14.951.826a10.725 10.725 0 0 0-10.621-4.285" style="fill:#a6cc96"/>
                        <path data-name="패스 1016" d="M63.908 512.485a15.333 15.333 0 0 1-2.676-3.921c-.672-1.645-.738-3.472-1.239-5.177-.955-3.244-3.388-5.8-5.524-8.419a57.905 57.905 0 0 1-6.94-10.763 9.919 9.919 0 0 1-1.1-3.116c-.3-2.4 1.013-4.8.624-7.182-.092-.564-.072-1.4.5-1.4a11.989 11.989 0 0 0 2.621 4.376 19.055 19.055 0 0 0 4.069 2.4 17.007 17.007 0 0 1 7.811 9.106 13.637 13.637 0 0 0 1.6 3.743 33.843 33.843 0 0 0 2.694 2.56 10.483 10.483 0 0 1 2.417 6.266c.221 2.27.09 4.568.4 6.828.657 4.832 3.333 9.575 3.1 14.5-1.55-.581-2.823-3.067-3.836-4.323q-2.229-2.762-4.516-5.476" style="fill:#162b19"/>
                        <path data-name="패스 1017" d="M85.674 477.608a6.425 6.425 0 0 0 .727-3.945c-.4-2.087-2.226-3.6-3-5.583a6.388 6.388 0 0 0-4.355 3.861c-.307.806-.445 1.67-.764 2.471-.64 1.607-1.947 2.839-2.9 4.28a11.049 11.049 0 0 0-1.8 6.637 155.023 155.023 0 0 1 9.5-14.539c.863 2.588 1.725 4.434 2.588 6.818" style="fill:#a6cc96"/>
                        <path data-name="패스 1018" d="M83.086 470.79a155.155 155.155 0 0 0-9.5 14.539c.01.21.018.419.041.628.254 2.269 1.2 4.632.338 6.745-.494 1.207-1.527 2.144-1.957 3.375-.912 2.612.927 6.353 1.716 8.818.5 1.575 1.755 4.561 3.736 4.8 3.791.455 2.233-10.681 3.032-12.964.989-2.828 3.563-5.191 3.442-8.184-.057-1.408-.727-2.735-.795-4.142-.117-2.412 1.511-4.579 2.538-6.8-.863-2.383-1.725-4.23-2.588-6.818" style="fill:#338c44"/>
                        <path data-name="패스 1019" d="M58.121 496.734a5.2 5.2 0 0 1 1.241 1.194 12.859 12.859 0 0 1 .7 1.476c.812 1.637 2.54 2.68 3.33 4.328a19.027 19.027 0 0 1 .747 2.306A3.509 3.509 0 0 0 65.477 508a3.72 3.72 0 0 1 .723.458.6.6 0 0 1 .116.773.733.733 0 0 1-.4.2 4.727 4.727 0 0 1-4.041-1.22 23.308 23.308 0 0 1-2.855-3.311 17.011 17.011 0 0 0-6.25-4.986 11.091 11.091 0 0 0-7.873-.531 2.68 2.68 0 0 1 1.016-2.022 10.408 10.408 0 0 1 4.3-1.959c1.286-.362 2.816-1.128 4.137-.778a11.047 11.047 0 0 1 3.775 2.106" style="fill:#2c5932"/>
                        <path data-name="패스 1020" d="M54.011 494.483a21.429 21.429 0 0 0-3.943-.1 18.107 18.107 0 0 0-3.87.125 6.088 6.088 0 0 0-4.487 4.251c-1.165 4.268 2.544 8.628 1.755 12.981-.2 1.088-.67 2.106-.949 3.176a18.4 18.4 0 0 0-.41 4.529.571.571 0 0 0 .628-.384 3.093 3.093 0 0 0 .128-.794c.143-1.111 1.017-1.957 1.637-2.89a11.578 11.578 0 0 0 1.477-6.6 34.425 34.425 0 0 1 .143-6.858 4.675 4.675 0 0 1 1.848-3.231 17.886 17.886 0 0 0 2.269-1.1c.794-.659 1.144-1.886 2.135-2.173.685-.2 4.035-.467 1.639-.92" style="fill:#338c44"/>
                        <path data-name="사각형 838" transform="translate(57.194 507.265)" style="fill:#162b19" d="M0 0h38.831v6.63H0z"/>
                        <path data-name="패스 1021" d="M90.758 539.583h-28.3l-3.1-28.3h34.499z" style="fill:#162b19"/>
                        <path data-name="패스 1022" d="M354.761 479.353c-3.411-2.584-7.021-5-9.789-8.261-4.088-4.821-5.987-11.058-8.39-16.9s-5.74-11.8-11.389-14.639c3.1 4.1 3.726 9.527 3.8 14.665s-.271 10.4 1.284 15.3c2.315 7.287 8.46 12.656 12.1 19.377 1.493 2.754 2.558 5.723 4.054 8.476 3.263 6 13.081 12.091 17.264 3.445 4.166-8.612-2.453-16.542-8.939-21.455" style="fill:#162b19"/>
                        <path data-name="패스 1023" d="M331.42 443.573c-4.741-7.245-9.781-23.681-18.211-26.757 1.024 1.207 1.88 4.351 2.561 7.181 8.056 8.952 13.792 19.624 20.679 29.348a60.494 60.494 0 0 0-5.029-9.772" style="fill:#a6cc96"/>
                        <path data-name="패스 1024" d="M315.77 424c.48 2 .874 3.837 1.176 4.73.729 2.157 1.174 6.357 2.733 8.017s3.689 6.093 5.709 7.121c6.944 3.535 11 11.077 12.178 12.807a20.843 20.843 0 0 0-1.117-3.327c-6.887-9.723-12.623-20.4-20.679-29.348" style="fill:#2c5932"/>
                        <path data-name="패스 1025" d="M354.151 526.205c7.977-7.184 14.487-17.182 13.753-27.892-.278-4.038-1.572-7.975-1.6-12.022-.041-5.324 2.092-10.384 3.746-15.446a89.314 89.314 0 0 0 4.147-20.874c.646-8.4-3.271-40.889-9.194-46.876-.667 2.222 1.061 26.939.672 29.226-1.067 6.272-.444 11.2-3.784 15.414s-7.177 8.2-9.169 13.2c-2.723 6.832-1.61 14.536-2.765 21.8-.9 5.662-3.171 11-4.963 16.442s-3.116 11.255-2.048 16.887a21.1 21.1 0 0 0 4.284 9.166c2.441 3.08 3.743 3.842 6.924.977" style="fill:#2c5932"/>
                        <path data-name="패스 1026" d="M347.878 497.757c-.424-2.951-.972-6.1-3.044-8.244-1.457-1.508-3.576-2.4-4.6-4.235-1.17-2.1-.544-4.818-1.584-6.984-1.538-3.206-5.857-3.823-8.44-6.266-4.3-4.068-2.545-11.638-6.031-16.423a17.573 17.573 0 0 0-3.1-3.039c-3.4-2.824-1.373 12.607-1.373 15.961 0 4.172-.26 9.442 2.021 13.278 2.762 4.643 9.086 6.359 11.54 11.172 1.447 2.838 1.283 6.312 2.848 9.086 1.55 2.747 4.554 4.385 6.31 7 1.5 2.235 1.992 5.042 3.573 7.22a46.543 46.543 0 0 0 3.494 3.661c.837.924.254 2.762 1.8 3.435.679.754.446-6.741-1.751-12.866-1.447-4.038-1.05-8.514-1.66-12.76" style="fill:#2c5932"/>
                        <path data-name="패스 1027" d="M294.54 502.948c.561-2.367 1.473-4.461 3.42-5.784 8.334-5.659-.838-16.215 14.593-18.22.019 1.576-7.967 4.431-7.2 11.056a6.48 6.48 0 0 1-.74 4.8c-2.434 4.547-3.046 3.008-6.281 6.837-1.675 1.981-1.555 11.322-2.737 13.313-1.154 1.943-1.937-8.292-1.057-12" style="fill:#162b19"/>
                        <path data-name="패스 1028" d="M334.564 491.746a39.987 39.987 0 0 0-1.6-5.231c-8.422-7.358-17.265-13.4-26.18-8.39a15.6 15.6 0 0 0-3.979 7.269c-.737 3.341-.286 1.53 2.722-1.562 6.7-6.883 11.9-4.33 15.059.075.392.546 2.029 2.62 2.4 3.18 3.813 5.733 5.633 5.014 8.041 9.141 1.206 2.067 2.5 4.293 4.688 5.27.4.176.974.243 1.154-.15a.911.911 0 0 0-.015-.6l-2.293-9.006" style="fill:#338c44"/>
                        <path data-name="패스 1029" d="M332.966 486.516c-.2-.49-.412-.975-.656-1.446-2.388-4.61-10.891-12.068-15.889-11.74a14.963 14.963 0 0 0-9.635 4.8c8.915-5.006 17.758 1.033 26.18 8.391" style="fill:#a6cc96"/>
                        <path data-name="패스 1030" d="M369.937 499.525a22.628 22.628 0 0 0 3.955-5.8c.994-2.431 1.092-5.132 1.833-7.652 1.411-4.8 5.008-8.57 8.165-12.446a85.615 85.615 0 0 0 10.26-15.91 14.621 14.621 0 0 0 1.629-4.606c.447-3.543-1.5-7.092-.922-10.618.136-.832.107-2.075-.737-2.074-.971 2.34-2.013 4.748-3.874 6.469-1.716 1.585-3.962 2.435-6.015 3.549a25.13 25.13 0 0 0-11.547 13.46c-.68 1.9-1.154 3.923-2.366 5.533-1.1 1.465-2.723 2.45-3.981 3.785-2.314 2.452-3.247 5.907-3.574 9.263s-.133 6.752-.587 10.093c-.972 7.143-4.927 14.154-4.586 21.436 2.292-.858 4.174-4.534 5.671-6.39q3.294-4.083 6.676-8.1" style="fill:#162b19"/>
                        <path data-name="패스 1031" d="M357.968 475.271c-.635-1.82-2.163-3.2-2.893-4.99-1.276-3.123.124-6.617.5-9.97a16.331 16.331 0 0 0-2.6-10.74c-1.413-2.129-3.347-3.951-4.292-6.326-.472-1.185-.677-2.461-1.13-3.653-1.06-2.787-10.681-14.359-13.575-15.077-1.138 2.927 3.3 14.537 2.709 17.622-1.054 5.531 5.1 10.251 4.827 15.876-.1 2.08-1.092 4.042-1.176 6.123-.178 4.425 3.626 7.918 5.089 12.1 1.181 3.375-1.122 19.836 4.481 19.165 2.929-.351 4.777-4.765 5.523-7.094 1.167-3.643 3.884-9.173 2.537-13.034" style="fill:#338c44"/>
                        <path data-name="패스 1032" d="M378.492 476.242a7.717 7.717 0 0 0-1.835 1.765 19.172 19.172 0 0 0-1.033 2.181c-1.2 2.421-3.754 3.963-4.922 6.4A28.074 28.074 0 0 0 369.6 490a5.19 5.19 0 0 1-1.978 2.9 5.447 5.447 0 0 0-1.07.678.886.886 0 0 0-.171 1.142 1.077 1.077 0 0 0 .585.3 6.988 6.988 0 0 0 5.974-1.8 34.385 34.385 0 0 0 4.226-4.9 25.125 25.125 0 0 1 9.239-7.371 16.4 16.4 0 0 1 11.639-.785 3.967 3.967 0 0 0-1.5-2.99c-1.742-1.575-4.09-2.259-6.351-2.9-1.9-.536-4.163-1.668-6.116-1.15a16.317 16.317 0 0 0-5.58 3.113" style="fill:#2c5932"/>
                        <path data-name="패스 1033" d="M384.568 472.914a31.746 31.746 0 0 1 5.829-.154 26.692 26.692 0 0 1 5.72.185 8.995 8.995 0 0 1 6.633 6.285c1.723 6.308-3.76 12.754-2.593 19.188.291 1.608.989 3.113 1.4 4.694a27.2 27.2 0 0 1 .6 6.7.844.844 0 0 1-.927-.569 4.55 4.55 0 0 1-.189-1.173c-.211-1.642-1.5-2.894-2.42-4.272-1.874-2.822-2.225-6.378-2.183-9.765s.419-6.809-.212-10.137c-.352-1.856-1.123-3.787-2.732-4.776-1.063-.654-2.4-.833-3.354-1.63-1.174-.976-1.691-2.789-3.156-3.213-1.013-.294-5.965-.691-2.423-1.36" style="fill:#338c44"/>
                        <path data-name="사각형 839" transform="translate(322.46 491.809)" style="fill:#162b19" d="M0 0h57.402v9.8H0z"/>
                        <path data-name="패스 1034" d="M330.247 539.583h41.828l4.581-41.828h-50.99z" style="fill:#162b19"/>
                        <path data-name="패스 1035" d="m111.743 250.624-13.213.925 11.5 2.363c-.085.17-.178.337-.273.512l-31.539-.22 29.822 3.409c-.124.215-.238.425-.369.662l-29.633 2.871 25.68 4.1q-5.358 9.164-11.34 18l-29.069-3.706 26.037 8.129c-.069.093-.126.2-.189.293l-32.687-2.553 29.793 6.6c-.211.285-.415.573-.618.861l-38.817 1.022 35.072 4.046q-7.455 9.884-15.655 19.38l-.037-.012-16.939-7.164 13.946 10.6.037.011c-.082.081-.142.168-.219.234l-16.366-4.145 6.75 14.623q-8.006 8.462-16.6 16.572l-.014-.005-8.085-7.3 6.02 9.219.013.036c-.331.306-.673.616-1.011.944l-.033-.027-11.421-7.181L28.182 356q-8.79 7.912-18.1 15.54l-4.389 31L0 399.221c12.971-93.3 56.513-146.121 121.815-170.111q-4.61 10.976-10.072 21.514" style="fill-rule:evenodd;fill:#162b19"/>
                        <path data-name="패스 1036" d="m83.45 214.333-12.561 4.2 11.723-.588c-.041.185-.089.37-.137.563l-30.591 7.678 29.726-4.16c-.066.239-.124.47-.192.733l-27.972 10.194 25.888-2.453q-2.894 10.212-6.476 20.265l-29.071 3.684 27.242 1.351c-.044.107-.073.223-.109.33l-32.284 5.706 30.5-1.061a50.23 50.23 0 0 0-.384.988l-37.326 10.7 34.967-4.858q-4.746 11.433-10.309 22.679h-.039l-18.192-2.7L54 294.356h.038c-.059.1-.1.2-.154.282l-16.882.081 10.198 12.47q-5.634 10.2-11.923 20.2h-.015l-9.655-5.05 8.135 7.42.022.032c-.245.378-.5.764-.744 1.166l-.038-.017-12.854-4.1 8.778 10.417q-6.531 9.861-13.641 19.575l3.507 31.116-6.339-1.79C1.651 292.581 30.595 230.543 87.819 190.984q-1.719 11.778-4.369 23.349" style="fill-rule:evenodd;fill:#27442c"/>
                    </g>
                </g>
            </g>
        </g>
    </g>
    <g data-name="그룹 1608">
        <path data-name="선 35" transform="translate(187.5 439.023)" style="stroke:#4ba000;stroke-miterlimit:10;fill:none" d="M0 24.035V0"/>
        <g data-name="그룹 1607">
            <g data-name="그룹 1606" style="clip-path:url(#b3a3hf8ife)" transform="translate(155.182 425)">
                <path data-name="패스 1037" d="M30.891 12.93a3.214 3.214 0 0 0 .685 2.214c.978.963 6.566.814 10.866-3.553 3.494-3.549 3.982-8.983 4.042-10.9C39.553 1.838 34.2 6.766 30.891 12.93" style="fill:#4ba000;fill-rule:evenodd"/>
                <path data-name="패스 1038" d="M46.484.7c.014-.441 0-.695 0-.695s-7.222-.147-11.522 4.22a12.97 12.97 0 0 0-4.071 8.706C34.2 6.767 39.553 1.838 46.484.7" style="fill:#62d841;fill-rule:evenodd"/>
                <path data-name="패스 1039" d="M9.692 10.812S10.9 17.938 16 21.345s10.6 2.425 11.36 1.284c.6-.9.388-2.885-.827-5.057-4.467-3.632-10.422-5.554-16.513-6.824-.21.038-.326.064-.326.064" style="fill:#4ba000;fill-rule:evenodd"/>
                <path data-name="패스 1040" d="M21.834 12.62c-4.446-2.974-10.378-2.134-11.817-1.872 6.092 1.27 12.046 3.193 16.513 6.825a14.711 14.711 0 0 0-4.7-4.953" style="fill:#62d841;fill-rule:evenodd"/>
                <path data-name="패스 1041" d="M64.637 78.188c0 3.592-14.469 6.5-32.318 6.5S0 81.78 0 78.188s14.47-6.505 32.319-6.505 32.318 2.917 32.318 6.505" style="fill:#2c5932"/>
                <path data-name="사각형 842" transform="translate(2.098 34.109)" style="fill:#996c3f" d="M0 0h60.441v7.899H0z"/>
                <path data-name="사각형 843" transform="translate(2.098 34.11)" style="fill:#bc8f5e" d="M0 0h60.441v.929H0z"/>
                <path data-name="패스 1042" d="M10.306 77.38h44.025l2.477-29.2H7.829z" style="fill:#996c3f"/>
                <path data-name="패스 1043" d="m7.306 42.008.523 6.167h48.979l.523-6.167z" style="fill:#775433"/>
                <path data-name="선 36" transform="translate(26.673 21.786)" style="stroke:#4ba000;stroke-miterlimit:10;fill:none" d="M5.645 5.36 0 0"/>
            </g>
        </g>
    </g>
</svg>
