<svg xmlns="http://www.w3.org/2000/svg" width="90" height="90" viewBox="0 0 90 90">
    <defs>
        <clipPath id="i4ji1mh8ha">
            <path data-name="사각형 2301" style="fill:none" d="M0 0h90v90H0z"/>
        </clipPath>
    </defs>
    <g data-name="그룹 2224">
        <g data-name="그룹 2223" style="clip-path:url(#i4ji1mh8ha)">
            <path data-name="패스 10813" d="M84.833 43.043A41.791 41.791 0 1 1 43.04 1.25a41.794 41.794 0 0 1 41.793 41.793" transform="translate(1.959 1.957)" style="fill:#f8ebcf"/>
            <path data-name="패스 10814" d="M45 90a45 45 0 1 1 45-45 45.048 45.048 0 0 1-45 45m0-83.583A38.583 38.583 0 1 0 83.583 45 38.626 38.626 0 0 0 45 6.417" transform="translate(0 -.001)" style="fill:#1f5a2c"/>
            <path data-name="패스 10815" d="M11.419 15.148a2.567 2.567 0 0 1-1.227-4.823L16 7.181a2.565 2.565 0 1 1 2.446 4.51l-5.806 3.147a2.565 2.565 0 0 1-1.222.311" transform="translate(13.864 10.762)" style="fill:#1f5a2c"/>
            <path data-name="패스 10816" d="M19.475 17.582a4.813 4.813 0 1 1-4.813-4.813 4.813 4.813 0 0 1 4.813 4.813" transform="translate(15.431 20.005)" style="fill:#1f5a2c"/>
            <path data-name="패스 10817" d="M30.322 15.148a2.565 2.565 0 0 1-1.222-.311l-5.8-3.147a2.565 2.565 0 1 1 2.446-4.51l5.806 3.144a2.567 2.567 0 0 1-1.227 4.823" transform="translate(34.395 10.762)" style="fill:#1f5a2c"/>
            <path data-name="패스 10818" d="M21.464 17.582a4.813 4.813 0 1 0 4.813-4.813 4.813 4.813 0 0 0-4.813 4.813" transform="translate(33.63 20.005)" style="fill:#1f5a2c"/>
            <path data-name="패스 10819" d="M23.517 28.721c-1.514 0-6.625-.177-8.784-2.477a2.566 2.566 0 0 1 3.7-3.552 10.929 10.929 0 0 0 5.08.9c2.947 0 4.731-.621 5.09-.906a2.548 2.548 0 0 1 3.606-.092 2.6 2.6 0 0 1 .09 3.653c-2.156 2.3-7.269 2.48-8.786 2.48" transform="translate(21.995 34.29)" style="fill:#1f5a2c"/>
        </g>
    </g>
</svg>
