<svg xmlns="http://www.w3.org/2000/svg" width="90" height="90" viewBox="0 0 90 90">
    <defs>
        <clipPath id="lvkpf4siia">
            <path data-name="사각형 2299" style="fill:none" d="M0 0h90v90H0z"/>
        </clipPath>
    </defs>
    <g data-name="그룹 2220">
        <g data-name="그룹 2219" style="clip-path:url(#lvkpf4siia)">
            <path data-name="패스 10801" d="M84.863 43.058A41.807 41.807 0 1 1 43.055 1.25a41.809 41.809 0 0 1 41.808 41.808" transform="translate(1.927 1.958)" style="fill:#f8f8f8"/>
            <path data-name="패스 10802" d="M45.015 90.033a45.016 45.016 0 1 1 45.018-45.015 45.065 45.065 0 0 1-45.018 45.015m0-83.613a38.6 38.6 0 1 0 38.6 38.6 38.64 38.64 0 0 0-38.6-38.6" transform="translate(-.032 -.001)" style="fill:#d8d8d8"/>
            <path data-name="패스 10803" d="M11.42 15.153a2.568 2.568 0 0 1-1.227-4.825L16 7.18a2.566 2.566 0 1 1 2.447 4.512l-5.808 3.151a2.566 2.566 0 0 1-1.222.311" transform="translate(13.84 10.767)" style="fill:#d8d8d8"/>
            <path data-name="패스 10804" d="M19.478 17.583a4.815 4.815 0 1 1-4.815-4.815 4.815 4.815 0 0 1 4.815 4.815" transform="translate(15.408 20.016)" style="fill:#d8d8d8"/>
            <path data-name="패스 10805" d="M30.325 15.153a2.566 2.566 0 0 1-1.222-.311l-5.803-3.15a2.566 2.566 0 1 1 2.444-4.512l5.808 3.148a2.568 2.568 0 0 1-1.227 4.825" transform="translate(34.383 10.767)" style="fill:#d8d8d8"/>
            <path data-name="패스 10806" d="M21.464 17.583a4.815 4.815 0 1 0 4.815-4.815 4.815 4.815 0 0 0-4.815 4.815" transform="translate(33.618 20.016)" style="fill:#d8d8d8"/>
            <path data-name="패스 10807" d="M23.521 28.722c-1.515 0-6.622-.177-8.784-2.473a2.568 2.568 0 0 1 3.7-3.559 10.933 10.933 0 0 0 5.082.9c2.948 0 4.735-.621 5.094-.906a2.544 2.544 0 0 1 3.608-.087 2.6 2.6 0 0 1 .085 3.654c-2.157 2.3-7.272 2.475-8.787 2.475" transform="translate(21.975 34.31)" style="fill:#d8d8d8"/>
        </g>
    </g>
</svg>
