<svg xmlns="http://www.w3.org/2000/svg" width="90" height="90" viewBox="0 0 90 90">
    <defs>
        <clipPath id="fmjfrdj1ma">
            <path data-name="사각형 2298" style="fill:none" d="M0 0h90v90H0z"/>
        </clipPath>
    </defs>
    <g data-name="그룹 2218">
        <g data-name="그룹 2217" style="clip-path:url(#fmjfrdj1ma)">
            <path data-name="패스 10796" d="M84.834 43.043A41.791 41.791 0 1 1 43.041 1.25a41.794 41.794 0 0 1 41.793 41.793" transform="translate(1.96 1.957)" style="fill:#f8f8f8"/>
            <path data-name="패스 10797" d="M45 90a45 45 0 1 1 45-45 45.053 45.053 0 0 1-45 45m0-83.583A38.583 38.583 0 1 0 83.583 45 38.626 38.626 0 0 0 45 6.417" transform="translate(0 -.001)" style="fill:#d8d8d8"/>
            <path data-name="패스 10798" d="M26.419 31.413c-6.627 0-12.418-3.706-14.4-9.228a2.566 2.566 0 1 1 4.828-1.738c1.237 3.432 5.175 5.832 9.577 5.832s8.34-2.4 9.577-5.832a2.566 2.566 0 1 1 4.828 1.738c-1.987 5.521-7.777 9.228-14.4 9.228" transform="translate(18.583 29.368)" style="fill:#d8d8d8"/>
            <path data-name="패스 10799" d="M20.835 10.514a6.349 6.349 0 0 0-3.622 1.024 6.364 6.364 0 0 0-3.624-1.024A5.722 5.722 0 0 0 7.79 16c0 2.449 1.44 5.087 4.284 7.842a30.806 30.806 0 0 0 3.932 3.209 2.175 2.175 0 0 0 2.41 0 30.807 30.807 0 0 0 3.932-3.209c2.844-2.754 4.284-5.393 4.284-7.842a5.722 5.722 0 0 0-5.8-5.483" transform="translate(12.205 16.472)" style="fill:#d8d8d8"/>
            <path data-name="패스 10800" d="M32.978 10.514a6.349 6.349 0 0 0-3.622 1.024 6.364 6.364 0 0 0-3.624-1.024A5.722 5.722 0 0 0 19.933 16c0 2.449 1.44 5.087 4.284 7.842a30.806 30.806 0 0 0 3.932 3.209 2.174 2.174 0 0 0 2.41 0 30.806 30.806 0 0 0 3.932-3.209c2.844-2.754 4.284-5.393 4.284-7.842a5.722 5.722 0 0 0-5.8-5.483" transform="translate(31.231 16.472)" style="fill:#d8d8d8"/>
        </g>
    </g>
</svg>
