<svg xmlns="http://www.w3.org/2000/svg" width="24" height="24" viewBox="0 0 24 24">
    <defs>
        <clipPath id="9elfb11hya">
            <path data-name="사각형 2402" style="fill:none" d="M0 0h19.908v20H0z"/>
        </clipPath>
    </defs>
    <path data-name="사각형 2387" style="fill:none" d="M0 0h24v24H0z"/>
    <g data-name="그룹 2308">
        <g data-name="그룹 2307" style="clip-path:url(#9elfb11hya)" transform="translate(2.046 2)">
            <path data-name="패스 10902" d="M13.81 0a3.28 3.28 0 0 0-3.276 3.275v7.666H6.273v4.648L7.371 20h8.256l1.1-4.411v-4.648h-4.264V6.706h4.169a3.279 3.279 0 0 0 3.276-3.275V0zm.99 15.352-.677 2.72H8.878l-.678-2.72V12.87h6.6zm3.179-11.921a1.349 1.349 0 0 1-1.347 1.347h-4.169v-1.5a1.348 1.348 0 0 1 1.347-1.349h4.169z" style="fill:#aaa"/>
            <path data-name="패스 10903" d="M9.374 5.986A3.279 3.279 0 0 0 6.1 2.711H0v3.431a3.279 3.279 0 0 0 3.275 3.275h6.1zm-1.929 1.5h-4.17a1.348 1.348 0 0 1-1.346-1.344v-1.5H6.1a1.348 1.348 0 0 1 1.345 1.344z" style="fill:#aaa"/>
        </g>
    </g>
</svg>
