<svg xmlns="http://www.w3.org/2000/svg" width="60" height="60" viewBox="0 0 60 60">
    <defs>
        <clipPath id="js3vup1swa">
            <path data-name="사각형 2218" style="fill:none" d="M0 0h49.726v49.76H0z"/>
        </clipPath>
    </defs>
    <g data-name="그룹 2388">
        <path data-name="사각형 2586" style="fill:none" d="M0 0h60v60H0z"/>
        <g data-name="그룹 2172">
            <g data-name="그룹 2171" transform="translate(5 5)" style="clip-path:url(#js3vup1swa)">
                <path data-name="패스 10110" d="M49.769 49.76h-22.3a8.2 8.2 0 0 1-8.2-8.2V8.2a8.2 8.2 0 0 1 8.2-8.2h22.3a8.2 8.2 0 0 1 8.2 8.2v33.358a8.2 8.2 0 0 1-8.2 8.2" transform="translate(-8.246)" style="fill:#3e934e"/>
                <path data-name="패스 10111" d="M42.71 49.531h-24.3a6.5 6.5 0 0 1-6.5-6.5V8.084a6.5 6.5 0 0 1 6.5-6.5h24.3a6.5 6.5 0 0 1 6.5 6.5v34.95a6.5 6.5 0 0 1-6.5 6.5" transform="translate(-5.1 -.679)" style="fill:#fff"/>
                <path data-name="패스 10112" d="M30.5 49.76H8.2a8.2 8.2 0 0 1-8.2-8.2V8.2A8.2 8.2 0 0 1 8.2 0h22.3a8.2 8.2 0 0 1 8.2 8.2v33.358a8.2 8.2 0 0 1-8.2 8.2" style="fill:#56b36b"/>
                <path data-name="패스 10113" d="M36.389 39.4a10.165 10.165 0 1 1-10.165-10.162A10.165 10.165 0 0 1 36.389 39.4" transform="translate(-6.872 -12.512)" style="fill:#56b36b"/>
                <path data-name="패스 10114" d="M35.063 39.4c0 5.614-2.195 10.165-4.9 10.165s-4.9-4.551-4.9-10.165 2.195-10.165 4.9-10.165 4.9 4.551 4.9 10.165" transform="translate(-10.809 -12.512)" style="fill:#56b36b"/>
                <path data-name="선 159" transform="translate(9.186 26.891)" style="fill:#56b36b" d="M0 0h20.33"/>
                <path data-name="패스 10115" d="M25.757 21.467v-1.262a5.714 5.714 0 0 0 3.809-1.221c1.5-1.5 1.559-4.943 1.559-4.943s-3.445.061-4.943 1.559a4.986 4.986 0 0 0-1.177 3.016h-.042a4.986 4.986 0 0 0-1.175-3.016c-1.5-1.5-4.943-1.559-4.943-1.559s.061 3.445 1.559 4.943a5.634 5.634 0 0 0 3.735 1.216v1.264a10.39 10.39 0 1 0 1.618 0m7.923 9.54h-3.323a14.876 14.876 0 0 0-1.943-7.247 8.789 8.789 0 0 1 5.266 7.247m-9.54-7.723v7.723h-2.984c.166-3.989 1.534-6.9 2.983-7.723m0 9.34v7.723c-1.449-.818-2.818-3.733-2.983-7.723zm1.618 7.723v-7.719h2.983c-.166 3.989-1.534 6.9-2.983 7.723m0-9.34v-7.724c1.449.818 2.818 3.733 2.983 7.723zm-4.274-7.248a14.87 14.87 0 0 0-1.943 7.247h-3.322a8.786 8.786 0 0 1 5.265-7.247m-5.265 8.864h3.322a14.876 14.876 0 0 0 1.943 7.247 8.788 8.788 0 0 1-5.265-7.247m12.2 7.247a14.876 14.876 0 0 0 1.943-7.247h3.319a8.789 8.789 0 0 1-5.266 7.247" transform="translate(-5.597 -5.15)" style="fill:#fff"/>
                <path data-name="패스 10116" d="M34.321 77.339h-9.8a1.144 1.144 0 0 1 0-2.288h9.8a1.144 1.144 0 0 1 0 2.288" transform="translate(-10.002 -32.117)" style="fill:#fff"/>
            </g>
        </g>
    </g>
</svg>
