<svg xmlns="http://www.w3.org/2000/svg" width="24" height="24" viewBox="0 0 24 24">
    <defs>
        <clipPath id="ehwur59uza">
            <path data-name="사각형 2403" style="fill:none" d="M0 0h17.671v20H0z"/>
        </clipPath>
    </defs>
    <path data-name="사각형 2389" style="fill:none" d="M0 0h24v24H0z"/>
    <g data-name="그룹 2311">
        <g data-name="그룹 2310" style="clip-path:url(#ehwur59uza)" transform="translate(3.165 2)">
            <path data-name="패스 10908" d="M8.1 7.907h1.468A2.713 2.713 0 0 0 12.277 5.2V2.709A2.712 2.712 0 0 0 9.568 0H8.1a2.712 2.712 0 0 0-2.706 2.709V5.2A2.713 2.713 0 0 0 8.1 7.907m-.789-5.2A.79.79 0 0 1 8.1 1.92h1.468a.79.79 0 0 1 .789.789V5.2a.79.79 0 0 1-.789.789H8.1a.79.79 0 0 1-.786-.789z" style="fill:#aaa"/>
            <path data-name="패스 10909" d="M13.211 9.059H4.46A4.465 4.465 0 0 0 0 13.519V20h17.671v-6.48a4.465 4.465 0 0 0-4.46-4.46m2.54 9.02H1.921v-4.56a2.543 2.543 0 0 1 2.539-2.54h8.751a2.543 2.543 0 0 1 2.54 2.54z" style="fill:#aaa"/>
        </g>
    </g>
</svg>
