<svg xmlns="http://www.w3.org/2000/svg" width="50" height="50" viewBox="0 0 50 50">
    <defs>
        <clipPath id="123tlprtsa">
            <path data-name="사각형 2414" style="fill:none" d="M0 0h44.29v42.736H0z"/>
        </clipPath>
    </defs>
    <g data-name="그룹 2326">
        <g data-name="그룹 2325">
            <g data-name="그룹 2324">
                <path data-name="사각형 2410" transform="translate(9.818 19.533)" style="fill:#aaa" d="M0 0h13.57v2.148H0z"/>
                <path data-name="사각형 2411" transform="translate(9.818 24.673)" style="fill:#aaa" d="M0 0h21.617v2.148H0z"/>
                <path data-name="사각형 2412" transform="translate(9.818 29.814)" style="fill:#aaa" d="M0 0h21.617v2.148H0z"/>
                <path data-name="사각형 2413" transform="translate(9.818 34.954)" style="fill:#aaa" d="M0 0h21.617v2.148H0z"/>
                <g data-name="그룹 2323">
                    <g data-name="그룹 2322" style="clip-path:url(#123tlprtsa)" transform="translate(3 4)">
                        <path data-name="패스 10914" d="M65.4 9.905a9.9 9.9 0 1 1-9.9-9.9 9.9 9.9 0 0 1 9.9 9.9" transform="translate(-21.106)" style="fill:#56b36b"/>
                        <path data-name="패스 10915" d="M34.386 28.677c-.362 0-.72-.02-1.074-.054v19.549h-.166a3.455 3.455 0 0 0-5.668-1.428 3.451 3.451 0 0 0-4.765 0 3.451 3.451 0 0 0-4.765 0 3.451 3.451 0 0 0-4.765 0 3.451 3.451 0 0 0-4.765 0 3.455 3.455 0 0 0-5.668 1.428h-.6V18.53h21.069c-.034-.353-.055-.711-.055-1.074s.021-.72.055-1.074H0V50.32h4.727v-1.074a1.308 1.308 0 0 1 2.617 0h2.148a1.308 1.308 0 0 1 2.617 0h2.148a1.308 1.308 0 0 1 2.617 0h2.148a1.308 1.308 0 0 1 2.617 0h2.148a1.308 1.308 0 0 1 2.617 0h2.148a1.308 1.308 0 0 1 2.617 0v1.074h4.291v-21.7c-.354.034-.712.054-1.074.054" transform="translate(0 -7.585)" style="fill:#aaa"/>
                        <path data-name="패스 10916" d="M62.133 15.7h-2.527v-.253a3.115 3.115 0 0 1 .146-1.047 2.325 2.325 0 0 1 .436-.735 13.364 13.364 0 0 1 1.3-1.17q.539-.439.539-.8a.743.743 0 0 0-.216-.569.927.927 0 0 0-.655-.2 1.053 1.053 0 0 0-.781.313 1.83 1.83 0 0 0-.4 1.091l-2.58-.32a3.512 3.512 0 0 1 1.034-2.291 3.851 3.851 0 0 1 2.771-.871 4.09 4.09 0 0 1 2.341.605 2.515 2.515 0 0 1 1.21 2.181 2.107 2.107 0 0 1-.313 1.091 5.376 5.376 0 0 1-1.276 1.283 3.416 3.416 0 0 0-.848.854 1.748 1.748 0 0 0-.177.841m-2.613.671h2.707v2.388H59.52z" transform="translate(-26.574 -4.097)" style="fill:#fff"/>
                    </g>
                </g>
            </g>
        </g>
        <path data-name="사각형 2415" style="fill:none" d="M0 0h50v50H0z"/>
    </g>
</svg>
