<svg xmlns="http://www.w3.org/2000/svg" width="40" height="40" viewBox="0 0 40 40">
    <circle data-name="타원 162" cx="20" cy="20" r="20" style="fill:#fe0"/>
    <g data-name="그룹 1781">
        <g data-name="그룹 734">
            <g data-name="그룹 733">
                <g data-name="그룹 732">
                    <path data-name="패스 1425" d="M193.087 89.079s1.435.149 2.178.149c6.9 0 12.492-4.412 12.492-9.855s-5.593-9.855-12.492-9.855-12.491 4.412-12.491 9.855c0 3.374 2.148 6.352 5.425 8.128a9.259 9.259 0 0 1-2.919 4.616s-.245.43.489.27a29.045 29.045 0 0 0 7.318-3.308z" transform="translate(-174.774 -60.518)" style="fill:#312227"/>
                </g>
            </g>
        </g>
        <path data-name="패스 1426" d="M212.617 137.829h-3.732a.635.635 0 1 0 0 1.27h1.215v4.47a.621.621 0 0 0 .619.619h.136a.621.621 0 0 0 .618-.619V139.1h1.146a.635.635 0 1 0 0-1.27z" transform="translate(-197.568 -121.637)" style="fill:#fe0"/>
        <path data-name="패스 1427" d="M308.452 142.236h-1.734v-4.565a.689.689 0 1 0-1.378 0v4.921a.7.7 0 0 0 .011.11.569.569 0 0 0-.011.11.576.576 0 0 0 .576.576h2.536a.576.576 0 1 0 0-1.152z" transform="translate(-284.436 -120.879)" style="fill:#fe0"/>
        <path data-name="패스 1428" d="m348.611 142.445-1.934-2.539 1.747-1.748a.606.606 0 1 0-.857-.857l-2.163 2.163v-1.793a.689.689 0 1 0-1.378 0v5.072a.689.689 0 1 0 1.378 0v-1.565l.393-.393 1.829 2.4a.616.616 0 1 0 .984-.74z" transform="translate(-319.05 -120.879)" style="fill:#fe0"/>
        <path data-name="패스 1429" d="m253.361 142.61-1.86-5.087-.006-.005a.914.914 0 0 0-.871-.536.887.887 0 0 0-.9.64.9.9 0 0 0-.036.083l-1.829 4.9a.617.617 0 0 0 1.164.409l.316-.9h2.545l.316.9a.617.617 0 0 0 1.164-.409zm-3.621-1.647.855-2.44h.028l.854 2.438z" transform="translate(-232.972 -120.879)" style="fill:#fe0"/>
    </g>
</svg>
