<svg xmlns="http://www.w3.org/2000/svg" width="30" height="30" viewBox="0 0 30 30">
    <g data-name="그룹 2360">
        <path data-name="패스 1306" d="M68.523 13.573a.651.651 0 0 0-.786-.528.636.636 0 0 0-.492.809 2.292 2.292 0 0 0 .727.96.187.187 0 0 0 .294-.065 2.291 2.291 0 0 0 .257-1.176" transform="translate(-51.239 -8.511)" style="fill:#fff"/>
        <path data-name="패스 1307" d="M88.623 20.511a.651.651 0 0 0-.63-.706.636.636 0 0 0-.677.661 2.289 2.289 0 0 0 .465 1.11.187.187 0 0 0 .3.011 2.293 2.293 0 0 0 .541-1.075" transform="translate(-67.05 -13.947)" style="fill:#fff"/>
        <path data-name="패스 1308" d="M33.53 8.466a.651.651 0 0 0-.63-.706.636.636 0 0 0-.677.661 2.289 2.289 0 0 0 .465 1.11.187.187 0 0 0 .3.011 2.293 2.293 0 0 0 .541-1.075" transform="translate(-23.695 -4.396)" style="fill:#fff"/>
        <path data-name="패스 1309" d="M101.192 33.487a.651.651 0 0 0 .039.946.636.636 0 0 0 .943-.082 2.29 2.29 0 0 0 .344-1.153.187.187 0 0 0-.226-.2 2.29 2.29 0 0 0-1.1.488" transform="translate(-77.829 -24.339)" style="fill:#fff"/>
        <path data-name="패스 1310" d="M79.511 30.458a.651.651 0 0 0 .346.881.636.636 0 0 0 .864-.385 2.292 2.292 0 0 0-.051-1.2.187.187 0 0 0-.279-.114 2.291 2.291 0 0 0-.88.821" transform="translate(-60.864 -21.675)" style="fill:#fff"/>
        <path data-name="패스 1311" d="M51.432 1.423a.651.651 0 0 0 .346.881.636.636 0 0 0 .864-.385 2.292 2.292 0 0 0-.051-1.2.187.187 0 0 0-.279-.119 2.291 2.291 0 0 0-.88.821" transform="translate(-38.767 1.212)" style="fill:#fff"/>
        <path data-name="패스 1312" d="M97.082 26.185a.651.651 0 0 0-.343-.882.636.636 0 0 0-.866.383 2.291 2.291 0 0 0 .048 1.2.187.187 0 0 0 .279.114 2.291 2.291 0 0 0 .883-.818" transform="translate(-73.733 -18.237)" style="fill:#fff"/>
        <path data-name="패스 1313" d="M108.449 42.886a.651.651 0 0 0-.134-.937.636.636 0 0 0-.93.176 2.29 2.29 0 0 0-.226 1.182.187.187 0 0 0 .245.175 2.293 2.293 0 0 0 1.045-.6" transform="translate(-82.776 -31.296)" style="fill:#fff"/>
        <path data-name="패스 1314" d="M42.3 121.425a.651.651 0 0 0-.134-.937.636.636 0 0 0-.93.176 2.293 2.293 0 0 0-.226 1.182.187.187 0 0 0 .245.175 2.293 2.293 0 0 0 1.045-.6" transform="translate(-30.611 -93.222)" style="fill:#fff"/>
        <path data-name="패스 1315" d="M109.622 53.959a.651.651 0 0 0 .878-.354.636.636 0 0 0-.393-.861 2.291 2.291 0 0 0-1.2.062.187.187 0 0 0-.112.28 2.292 2.292 0 0 0 .829.873" transform="translate(-84.031 -39.853)" style="fill:#fff"/>
        <path data-name="패스 1316" d="M8.588 94.681a.651.651 0 0 0 .878-.354.636.636 0 0 0-.393-.861 2.291 2.291 0 0 0-1.2.062.187.187 0 0 0-.112.28 2.292 2.292 0 0 0 .829.873" transform="translate(-4.374 -71.942)" style="fill:#fff"/>
        <path data-name="패스 1317" d="M111.8 62.938a.651.651 0 0 0 .37-.871.636.636 0 0 0-.887-.331 2.291 2.291 0 0 0-.806.894.187.187 0 0 0 .119.277 2.293 2.293 0 0 0 1.2.031" transform="translate(-85.351 -46.933)" style="fill:#fff"/>
        <path data-name="패스 1318" d="M116.538 94.171a.651.651 0 0 0 .37-.871.636.636 0 0 0-.887-.331 2.291 2.291 0 0 0-.806.894.187.187 0 0 0 .119.277 2.293 2.293 0 0 0 1.2.031" transform="translate(-89.049 -71.546)" style="fill:#fff"/>
        <path data-name="패스 1319" d="M88.4 37.461a.651.651 0 0 0 .37-.871.636.636 0 0 0-.887-.331 2.293 2.293 0 0 0-.806.894.187.187 0 0 0 .119.277 2.294 2.294 0 0 0 1.2.031" transform="translate(-66.849 -26.858)" style="fill:#fff"/>
        <path data-name="패스 1320" d="M23.024 110.8a.651.651 0 0 0 .371-.871.636.636 0 0 0-.887-.331 2.291 2.291 0 0 0-.806.894.187.187 0 0 0 .119.277 2.293 2.293 0 0 0 1.2.031" transform="translate(-15.399 -84.771)" style="fill:#fff"/>
        <path data-name="패스 1321" d="M95.362 43.887a.651.651 0 0 0-.1-.941.636.636 0 0 0-.936.141 2.291 2.291 0 0 0-.271 1.173.187.187 0 0 0 .238.184 2.291 2.291 0 0 0 1.067-.556" transform="translate(-72.358 -32.067)" style="fill:#fff"/>
        <path data-name="패스 1322" d="M104.223 15.274a.651.651 0 0 0-.04-.946.636.636 0 0 0-.943.083 2.293 2.293 0 0 0-.343 1.154.187.187 0 0 0 .226.2 2.291 2.291 0 0 0 1.1-.49" transform="translate(-79.317 -9.391)" style="fill:#fff"/>
        <path data-name="패스 1323" d="M85.836 5.275a.651.651 0 0 0 .061-.944.636.636 0 0 0-.946-.019 2.294 2.294 0 0 0-.465 1.11.187.187 0 0 0 .2.222 2.291 2.291 0 0 0 1.146-.369" transform="translate(-64.827 -1.549)" style="fill:#fff"/>
        <path data-name="패스 1324" d="M95.614 8.721a.651.651 0 0 0-.43-.843.636.636 0 0 0-.823.468 2.292 2.292 0 0 0 .168 1.192.187.187 0 0 0 .289.086 2.292 2.292 0 0 0 .8-.9" transform="translate(-72.569 -4.464)" style="fill:#fff"/>
        <path data-name="패스 1325" d="M110.538 74.3a.651.651 0 0 0 .9-.288.636.636 0 0 0-.328-.888 2.29 2.29 0 0 0-1.2-.026.187.187 0 0 0-.132.271 2.291 2.291 0 0 0 .762.931" transform="translate(-84.803 -55.886)" style="fill:#fff"/>
        <path data-name="패스 1326" d="M98.152 74.1a.651.651 0 0 0 .939-.114.636.636 0 0 0-.156-.933 2.29 2.29 0 0 0-1.177-.252.187.187 0 0 0-.181.241 2.293 2.293 0 0 0 .574 1.058" transform="translate(-75.129 -55.711)" style="fill:#fff"/>
        <path data-name="패스 1327" d="M73.267 2.186a.651.651 0 0 0 .9.293.636.636 0 0 0 .252-.912 2.292 2.292 0 0 0-.961-.725.187.187 0 0 0-.265.143 2.292 2.292 0 0 0 .074 1.2" transform="translate(-55.902 1.019)" style="fill:#fff"/>
        <path data-name="패스 1328" d="M111.294 103.969a.651.651 0 0 0 .939-.114.636.636 0 0 0-.156-.933 2.29 2.29 0 0 0-1.177-.252.187.187 0 0 0-.181.241 2.294 2.294 0 0 0 .574 1.058" transform="translate(-85.552 -79.247)" style="fill:#fff"/>
        <path data-name="패스 1329" d="M98 54.279a.651.651 0 0 0 .682-.656.636.636 0 0 0-.682-.652 2.291 2.291 0 0 0-1.092.506.187.187 0 0 0 0 .3 2.293 2.293 0 0 0 1.095.5" transform="translate(-74.55 -40.08)" style="fill:#fff"/>
        <path data-name="패스 1330" d="M123.957 76.014a.651.651 0 0 0 .682-.656.636.636 0 0 0-.686-.652 2.291 2.291 0 0 0-1.092.506.187.187 0 0 0 0 .3 2.293 2.293 0 0 0 1.095.5" transform="translate(-94.978 -57.207)" style="fill:#fff"/>
        <path data-name="패스 1331" d="M96.15 98.79a.651.651 0 0 0 .818.476.636.636 0 0 0 .439-.839 2.291 2.291 0 0 0-.787-.911.187.187 0 0 0-.29.084 2.293 2.293 0 0 0-.18 1.19" transform="translate(-73.978 -75.163)" style="fill:#fff"/>
        <path data-name="패스 1332" d="M72.483 123.656a.651.651 0 0 0 .242.915.636.636 0 0 0 .9-.283 2.294 2.294 0 0 0 .088-1.2.187.187 0 0 0-.264-.146 2.29 2.29 0 0 0-.969.714" transform="translate(-55.304 -95.226)" style="fill:#fff"/>
        <path data-name="패스 1333" d="M84.025 121.13a.651.651 0 0 0 .666.672.636.636 0 0 0 .641-.7 2.293 2.293 0 0 0-.523-1.084.187.187 0 0 0-.3.006 2.293 2.293 0 0 0-.483 1.1" transform="translate(-64.46 -92.901)" style="fill:#fff"/>
        <path data-name="패스 1334" d="M94.855 117.756a.651.651 0 0 0 .931-.169.636.636 0 0 0-.21-.923 2.289 2.289 0 0 0-1.19-.183.187.187 0 0 0-.166.251 2.293 2.293 0 0 0 .635 1.022" transform="translate(-72.483 -90.19)" style="fill:#fff"/>
        <path data-name="패스 1335" d="M103.642 109.431a.651.651 0 0 0-.94.109.636.636 0 0 0 .152.934 2.3 2.3 0 0 0 1.176.257.187.187 0 0 0 .182-.241 2.291 2.291 0 0 0-.569-1.06" transform="translate(-79.055 -84.574)" style="fill:#fff"/>
        <path data-name="패스 1336" d="M51.714 122.522a.651.651 0 0 0-.94.109.636.636 0 0 0 .152.934 2.3 2.3 0 0 0 1.176.257.187.187 0 0 0 .182-.241 2.291 2.291 0 0 0-.569-1.06" transform="translate(-38.187 -94.793)" style="fill:#fff"/>
        <path data-name="패스 1337" d="M88.952 89.258a.651.651 0 0 0 .876.358.636.636 0 0 0 .318-.891 2.291 2.291 0 0 0-.906-.793.187.187 0 0 0-.275.123 2.291 2.291 0 0 0-.013 1.2" transform="translate(-68.277 -67.619)" style="fill:#fff"/>
        <path data-name="패스 1338" d="M67.069 111.32a.651.651 0 0 0 .414.851.636.636 0 0 0 .832-.452 2.291 2.291 0 0 0-.145-1.195.187.187 0 0 0-.287-.092 2.294 2.294 0 0 0-.813.887" transform="translate(-51.088 -85.444)" style="fill:#fff"/>
        <path data-name="패스 1339" d="M46.616 109.372a.651.651 0 0 0 .184.928.636.636 0 0 0 .919-.225 2.293 2.293 0 0 0 .163-1.192.187.187 0 0 0-.254-.162 2.291 2.291 0 0 0-1.012.651" transform="translate(-34.931 -84.127)" style="fill:#fff"/>
        <path data-name="패스 1340" d="M123.887 62.217a.651.651 0 0 0 .184.928.636.636 0 0 0 .919-.225 2.293 2.293 0 0 0 .163-1.192.187.187 0 0 0-.254-.162 2.291 2.291 0 0 0-1.012.651" transform="translate(-95.746 -46.849)" style="fill:#fff"/>
        <path data-name="패스 1341" d="M52.628 97.9a.651.651 0 0 0 .184.928.636.636 0 0 0 .919-.225 2.293 2.293 0 0 0 .163-1.192.187.187 0 0 0-.254-.162 2.291 2.291 0 0 0-1.012.651" transform="translate(-39.661 -74.968)" style="fill:#fff"/>
        <path data-name="패스 1342" d="M30.836 116.462a.651.651 0 0 0 .184.928.636.636 0 0 0 .919-.225 2.293 2.293 0 0 0 .163-1.192.187.187 0 0 0-.254-.162 2.29 2.29 0 0 0-1.012.651" transform="translate(-22.512 -89.662)" style="fill:#fff"/>
        <path data-name="패스 1343" d="M45.666 94.123a.651.651 0 0 0-.368-.872.636.636 0 0 0-.854.407 2.291 2.291 0 0 0 .082 1.2.187.187 0 0 0 .282.107 2.291 2.291 0 0 0 .859-.843" transform="translate(-33.27 -71.793)" style="fill:#fff"/>
        <path data-name="패스 1344" d="M29.472 98.627a.651.651 0 0 0 .184.928.636.636 0 0 0 .919-.225 2.293 2.293 0 0 0 .163-1.192.187.187 0 0 0-.254-.162 2.29 2.29 0 0 0-1.012.651" transform="translate(-21.439 -75.545)" style="fill:#fff"/>
        <path data-name="패스 1345" d="M23.337 91.147a.651.651 0 0 0-.57.756.636.636 0 0 0 .781.535 2.29 2.29 0 0 0 1-.673.187.187 0 0 0-.048-.3 2.293 2.293 0 0 0-1.16-.321" transform="translate(-16.25 -70.156)" style="fill:#fff"/>
        <path data-name="패스 1346" d="M17.857 82.355a.651.651 0 0 0-.124.938.636.636 0 0 0 .943.081 2.291 2.291 0 0 0 .537-1.077.187.187 0 0 0-.189-.235 2.292 2.292 0 0 0-1.167.292" transform="translate(-12.069 -63.008)" style="fill:#fff"/>
        <path data-name="패스 1347" d="M27.29 72.156a.651.651 0 0 0-.238.916.636.636 0 0 0 .926.2 2.29 2.29 0 0 0 .665-1 .187.187 0 0 0-.159-.256 2.292 2.292 0 0 0-1.194.147" transform="translate(-19.549 -55.071)" style="fill:#fff"/>
        <path data-name="패스 1348" d="M109.29 23.382a.651.651 0 0 0-.238.916.636.636 0 0 0 .926.2 2.29 2.29 0 0 0 .665-1 .187.187 0 0 0-.159-.256 2.292 2.292 0 0 0-1.194.147" transform="translate(-84.177 -16.636)" style="fill:#fff"/>
        <path data-name="패스 1349" d="M14.322 102.954a.651.651 0 0 0-.238.916.636.636 0 0 0 .926.2 2.29 2.29 0 0 0 .665-1 .187.187 0 0 0-.159-.256 2.291 2.291 0 0 0-1.194.147" transform="translate(-9.256 -79.341)" style="fill:#fff"/>
        <path data-name="패스 1350" d="M26.656 62.182a.651.651 0 0 0-.816.48.636.636 0 0 0 .516.793 2.292 2.292 0 0 0 1.179-.239.187.187 0 0 0 .069-.293 2.29 2.29 0 0 0-.949-.741" transform="translate(-18.66 -47.322)" style="fill:#fff"/>
        <path data-name="패스 1351" d="M28.21 52.257a.651.651 0 0 0-.935.15.636.636 0 0 0 .192.927 2.289 2.289 0 0 0 1.186.207.187.187 0 0 0 .171-.248 2.291 2.291 0 0 0-.614-1.035" transform="translate(-19.708 -39.416)" style="fill:#fff"/>
        <path data-name="패스 1352" d="M62.612.133a.651.651 0 0 0-.935.15.636.636 0 0 0 .192.927 2.289 2.289 0 0 0 1.186.207.187.187 0 0 0 .171-.248 2.29 2.29 0 0 0-.614-1.036" transform="translate(-46.783 1.662)" style="fill:#fff"/>
        <path data-name="패스 1353" d="M31.668 44.1a.651.651 0 0 0-.689.649.636.636 0 0 0 .679.659 2.289 2.289 0 0 0 1.1-.495.187.187 0 0 0 0-.3 2.29 2.29 0 0 0-1.089-.512" transform="translate(-22.72 -33.085)" style="fill:#fff"/>
        <path data-name="패스 1354" d="M4.433 40.367a.651.651 0 0 0-.689.649.636.636 0 0 0 .679.659 2.289 2.289 0 0 0 1.1-.495.187.187 0 0 0 0-.3 2.29 2.29 0 0 0-1.089-.512" transform="translate(-1.262 -30.147)" style="fill:#fff"/>
        <path data-name="패스 1355" d="M1.262 72.829a.651.651 0 0 0-.689.649.636.636 0 0 0 .679.659 2.289 2.289 0 0 0 1.1-.495.187.187 0 0 0 0-.3 2.29 2.29 0 0 0-1.089-.512" transform="translate(1.214 -55.728)" style="fill:#fff"/>
        <path data-name="패스 1356" d="M14.236 62.455a.651.651 0 0 0-.5.8.636.636 0 0 0 .827.461 2.291 2.291 0 0 0 .932-.762.187.187 0 0 0-.076-.292 2.292 2.292 0 0 0-1.185-.213" transform="translate(-9.048 -47.534)" style="fill:#fff"/>
        <path data-name="패스 1357" d="M18.94 41.9a.651.651 0 0 0-.945-.046.636.636 0 0 0 0 .946 2.29 2.29 0 0 0 1.118.446.187.187 0 0 0 .219-.208 2.291 2.291 0 0 0-.392-1.138" transform="translate(-12.221 -31.181)" style="fill:#fff"/>
        <path data-name="패스 1358" d="M31.021 25.965a.651.651 0 0 0-.914-.246.636.636 0 0 0-.205.924 2.293 2.293 0 0 0 1 .675.187.187 0 0 0 .258-.156 2.292 2.292 0 0 0-.136-1.2" transform="translate(-21.779 -18.528)" style="fill:#fff"/>
        <path data-name="패스 1359" d="M38.7 19.332a.651.651 0 0 0-.926.193.636.636 0 0 0 .235.917 2.292 2.292 0 0 0 1.194.151.187.187 0 0 0 .159-.256 2.293 2.293 0 0 0-.662-1.005" transform="translate(-27.986 -13.34)" style="fill:#fff"/>
        <path data-name="패스 1360" d="M54.7 27.049a.651.651 0 0 0-.727-.606.636.636 0 0 0-.573.753 2.291 2.291 0 0 0 .623 1.03.187.187 0 0 0 .3-.034 2.292 2.292 0 0 0 .377-1.143" transform="translate(-40.353 -19.176)" style="fill:#fff"/>
        <path data-name="패스 1361" d="M16.585 21.782a.651.651 0 0 0-.727-.606.636.636 0 0 0-.573.753 2.291 2.291 0 0 0 .623 1.03.187.187 0 0 0 .3-.034 2.292 2.292 0 0 0 .377-1.143" transform="translate(-10.268 -15.025)" style="fill:#fff"/>
        <path data-name="패스 1362" d="M45.263 30.818a.651.651 0 0 0-.946.005.636.636 0 0 0 .048.945 2.291 2.291 0 0 0 1.14.385.187.187 0 0 0 .207-.219 2.29 2.29 0 0 0-.449-1.117" transform="translate(-33.068 -22.465)" style="fill:#fff"/>
        <path data-name="패스 1363" d="M3.079 50.845a.651.651 0 0 0-.946.005.636.636 0 0 0 .048.945 2.291 2.291 0 0 0 1.14.385.187.187 0 0 0 .207-.219 2.29 2.29 0 0 0-.449-1.117" transform="translate(.143 -38.249)" style="fill:#fff"/>
        <path data-name="패스 1364" d="M48.4 15.661a.651.651 0 0 0-.923-.211.636.636 0 0 0-.169.931 2.291 2.291 0 0 0 1.022.636.187.187 0 0 0 .251-.166 2.291 2.291 0 0 0-.182-1.19" transform="translate(-35.46 -10.316)" style="fill:#fff"/>
        <path data-name="패스 1365" d="M23.62 34.014a.651.651 0 0 0 .94.107.636.636 0 0 0 .065-.944 2.291 2.291 0 0 0-1.086-.518.187.187 0 0 0-.232.193 2.288 2.288 0 0 0 .313 1.162" transform="translate(-16.68 -24.071)" style="fill:#fff"/>
        <path data-name="패스 1366" d="M37.508 37.156a.651.651 0 0 0 .84.436.636.636 0 0 0 .4-.859 2.291 2.291 0 0 0-.83-.872.187.187 0 0 0-.285.1 2.292 2.292 0 0 0-.123 1.2" transform="translate(-27.821 -26.577)" style="fill:#fff"/>
        <path data-name="패스 1367" d="M57.912 14.494a.651.651 0 0 0 .866.382.636.636 0 0 0 .342-.882 2.291 2.291 0 0 0-.883-.818.187.187 0 0 0-.279.115 2.294 2.294 0 0 0-.047 1.2" transform="translate(-43.859 -8.605)" style="fill:#fff"/>
        <path data-name="패스 1368" d="M10.928 31.132a.651.651 0 0 0 .866.382.636.636 0 0 0 .342-.882 2.291 2.291 0 0 0-.883-.818.187.187 0 0 0-.279.115 2.294 2.294 0 0 0-.047 1.2" transform="translate(-6.819 -21.814)" style="fill:#fff"/>
        <path data-name="패스 1369" d="M14.977 52.187a.651.651 0 0 0 .02.946.636.636 0 0 0 .944-.063 2.291 2.291 0 0 0 .367-1.146.187.187 0 0 0-.222-.2 2.292 2.292 0 0 0-1.11.466" transform="translate(-9.881 -39.095)" style="fill:#fff"/>
        <path data-name="패스 1370" d="M79 108.718a.651.651 0 0 0-.9-.292.636.636 0 0 0-.251.912 2.292 2.292 0 0 0 .962.723.187.187 0 0 0 .265-.143 2.29 2.29 0 0 0-.076-1.2" transform="translate(-59.525 -83.843)" style="fill:#fff"/>
        <path data-name="패스 1371" d="M63.522 124.341a.651.651 0 0 0-.9-.292.636.636 0 0 0-.251.912 2.292 2.292 0 0 0 .962.723.187.187 0 0 0 .265-.143 2.291 2.291 0 0 0-.076-1.2" transform="translate(-47.345 -96.042)" style="fill:#fff"/>
        <path data-name="패스 1372" d="M39.422 104.246a.651.651 0 0 0-.394-.861.636.636 0 0 0-.842.432 2.291 2.291 0 0 0 .117 1.2.187.187 0 0 0 .285.1 2.293 2.293 0 0 0 .834-.868" transform="translate(-28.354 -79.788)" style="fill:#fff"/>
        <path data-name="패스 1373" d="M17.435 72.662a.651.651 0 0 0-.057-.945.636.636 0 0 0-.941.1 2.29 2.29 0 0 0-.322 1.16.187.187 0 0 0 .23.195 2.292 2.292 0 0 0 1.09-.509" transform="translate(-10.919 -54.731)" style="fill:#fff"/>
        <path data-name="패스 1374" d="M32.859 80.741a.651.651 0 0 0-.059-.941.636.636 0 0 0-.941.1 2.29 2.29 0 0 0-.322 1.16.187.187 0 0 0 .23.195 2.292 2.292 0 0 0 1.09-.509" transform="translate(-23.157 -61.096)" style="fill:#fff"/>
        <path data-name="패스 1375" d="M124.86 51.8a.651.651 0 0 0-.057-.945.636.636 0 0 0-.941.1 2.29 2.29 0 0 0-.322 1.16.187.187 0 0 0 .23.195 2.292 2.292 0 0 0 1.09-.509" transform="translate(-95.566 -38.286)" style="fill:#fff"/>
        <path data-name="패스 1376" d="M121.292 42.527a.651.651 0 0 0 .628-.708.636.636 0 0 0-.736-.6 2.29 2.29 0 0 0-1.048.592.187.187 0 0 0 .025.3 2.292 2.292 0 0 0 1.131.411" transform="translate(-92.86 -30.82)" style="fill:#fff"/>
        <path data-name="패스 1377" d="M118.773 31.32a.651.651 0 0 0-.025-.946.636.636 0 0 0-.944.067 2.29 2.29 0 0 0-.362 1.148.187.187 0 0 0 .223.2 2.292 2.292 0 0 0 1.107-.471" transform="translate(-90.806 -22.133)" style="fill:#fff"/>
        <path data-name="패스 1378" d="M102.3 92.97a.651.651 0 0 0 .844-.427.636.636 0 0 0-.465-.824 2.292 2.292 0 0 0-1.192.164.187.187 0 0 0-.087.289 2.291 2.291 0 0 0 .9.8" transform="translate(-78.117 -70.587)" style="fill:#fff"/>
        <path data-name="패스 1379" d="M73.123 98.519a.651.651 0 0 0 .9.3.636.636 0 0 0 .254-.912 2.291 2.291 0 0 0-.959-.727.187.187 0 0 0-.266.142 2.291 2.291 0 0 0 .071 1.2" transform="translate(-55.79 -74.91)" style="fill:#fff"/>
        <path data-name="패스 1380" d="M23.723 15.233a.651.651 0 0 0 .9.3.636.636 0 0 0 .254-.912 2.291 2.291 0 0 0-.959-.727.187.187 0 0 0-.266.142 2.291 2.291 0 0 0 .071 1.2" transform="translate(-16.915 -9.169)" style="fill:#fff"/>
        <path data-name="패스 1381" d="M121.293 84.228a.651.651 0 0 0 .9.3.636.636 0 0 0 .254-.912 2.292 2.292 0 0 0-.959-.727.187.187 0 0 0-.266.142 2.291 2.291 0 0 0 .071 1.2" transform="translate(-93.722 -63.647)" style="fill:#fff"/>
        <path data-name="패스 1382" d="M63.436 99.225a.651.651 0 0 0 .846.424.636.636 0 0 0 .386-.864 2.292 2.292 0 0 0-.842-.86.187.187 0 0 0-.284.1 2.291 2.291 0 0 0-.106 1.2" transform="translate(-48.221 -75.49)" style="fill:#fff"/>
        <path data-name="패스 1383" d="M36.531 87.708a.651.651 0 0 0 .3.9.636.636 0 0 0 .884-.339 2.292 2.292 0 0 0 .013-1.2.187.187 0 0 0-.273-.129 2.291 2.291 0 0 0-.923.773" transform="translate(-27.028 -66.837)" style="fill:#fff"/>
        <path data-name="패스 1384" d="M4.978 83.268a.651.651 0 0 0 .3.9.636.636 0 0 0 .884-.339 2.292 2.292 0 0 0 .013-1.2.187.187 0 0 0-.275-.129 2.291 2.291 0 0 0-.923.773" transform="translate(-2.167 -63.338)" style="fill:#fff"/>
        <path data-name="패스 1385" d="M94.191 83.016a.651.651 0 0 0 .844-.427.636.636 0 0 0-.465-.824 2.291 2.291 0 0 0-1.192.164.187.187 0 0 0-.087.288 2.291 2.291 0 0 0 .9.8" transform="translate(-71.734 -62.741)" style="fill:#fff"/>
        <path data-name="패스 1386" d="M.937 63.433a.651.651 0 0 0 .844-.427.636.636 0 0 0-.465-.824 2.291 2.291 0 0 0-1.192.164.187.187 0 0 0-.087.289 2.291 2.291 0 0 0 .9.8" transform="translate(1.662 -47.314)" style="fill:#fff"/>
        <path data-name="패스 1387" d="M87 106.013a.651.651 0 0 0 .844-.427.636.636 0 0 0-.465-.824 2.292 2.292 0 0 0-1.192.164.187.187 0 0 0-.087.289 2.291 2.291 0 0 0 .9.8" transform="translate(-66.073 -80.865)" style="fill:#fff"/>
        <path data-name="패스 1388" d="M57.771 111.49a.651.651 0 0 0 .814.483.636.636 0 0 0 .446-.835 2.289 2.289 0 0 0-.778-.918.187.187 0 0 0-.29.081 2.292 2.292 0 0 0-.191 1.188" transform="translate(-43.779 -85.275)" style="fill:#fff"/>
        <path data-name="패스 1389" d="M41.954 4.774a.651.651 0 0 0 .814.483.636.636 0 0 0 .446-.835 2.289 2.289 0 0 0-.778-.918.187.187 0 0 0-.29.081 2.292 2.292 0 0 0-.191 1.188" transform="translate(-31.332 -1.042)" style="fill:#fff"/>
        <path data-name="패스 1390" d="M107.8 81.114a.651.651 0 0 0-.9.284.636.636 0 0 0 .324.889 2.29 2.29 0 0 0 1.2.032.187.187 0 0 0 .133-.27 2.291 2.291 0 0 0-.758-.935" transform="translate(-82.519 -62.194)" style="fill:#fff"/>
        <path data-name="패스 1391" d="M81.752 93.739a.651.651 0 0 0-.915-.241.636.636 0 0 0-.2.925 2.293 2.293 0 0 0 1 .669.187.187 0 0 0 .257-.158 2.293 2.293 0 0 0-.143-1.2" transform="translate(-61.704 -71.948)" style="fill:#fff"/>
        <path data-name="패스 1392" d="M99.171 61.836a.651.651 0 0 0-.739.592.636.636 0 0 0 .625.711 2.293 2.293 0 0 0 1.133-.406.187.187 0 0 0 .026-.3 2.291 2.291 0 0 0-1.045-.6" transform="translate(-75.809 -47.062)" style="fill:#fff"/>
        <path data-name="패스 1393" d="M78.524 16.8a.651.651 0 0 0 .06-.944.636.636 0 0 0-.946-.018 2.29 2.29 0 0 0-.463 1.111.187.187 0 0 0 .2.222 2.292 2.292 0 0 0 1.145-.371" transform="translate(-59.072 -10.547)" style="fill:#fff"/>
        <path data-name="패스 1394" d="M64.168 26.695a.651.651 0 0 0-.173-.93.636.636 0 0 0-.922.215 2.292 2.292 0 0 0-.176 1.19.187.187 0 0 0 .252.165 2.292 2.292 0 0 0 1.019-.64" transform="translate(-47.83 -18.552)" style="fill:#fff"/>
        <path data-name="패스 1395" d="M73.009 27.068a.651.651 0 0 0-.7-.637.636.636 0 0 0-.605.728 2.293 2.293 0 0 0 .577 1.056.187.187 0 0 0 .3-.021 2.292 2.292 0 0 0 .427-1.125" transform="translate(-54.763 -19.17)" style="fill:#fff"/>
        <path data-name="사각형 1490" style="fill:none" d="M0 0h30v30H0z"/>
    </g>
</svg>
