<svg xmlns="http://www.w3.org/2000/svg" width="30" height="30" viewBox="0 0 30 30">
    <defs>
        <clipPath id="2ldw8gq1ra">
            <path data-name="사각형 1686" style="fill:none" d="M0 0h16.741v23.724H0z"/>
        </clipPath>
    </defs>
    <g data-name="그룹 2389">
        <path data-name="사각형 2588" style="fill:none" d="M0 0h30v30H0z"/>
        <g data-name="그룹 2173">
            <g data-name="그룹 2068" transform="translate(6.63 3)" style="clip-path:url(#2ldw8gq1ra)">
                <path data-name="패스 2998" d="M0 8.755C0 3.531 3.748 0 8.37 0s8.371 3.187 8.371 8.755c0 4.548-3.97 10.64-6.442 13.992a2.393 2.393 0 0 1-3.858 0C3.97 19.395 0 13.3 0 8.755" style="fill:#ff6c00"/>
                <path data-name="패스 2999" d="M16.97 12.838a4 4 0 1 1-4-4 4 4 0 0 1 4 4" transform="translate(-4.599 -4.532)" style="fill:#fff"/>
            </g>
        </g>
    </g>
</svg>
