<svg xmlns="http://www.w3.org/2000/svg" width="69.258" height="20.451" viewBox="0 0 69.258 20.451">
    <g data-name="그룹 2064">
        <path data-name="패스 2992" d="M54.032 0v2.458h12.767V17.99H54.032v2.46h15.226V0z"/>
        <path data-name="패스 2993" d="M0 0v20.451h43.5V17.99H2.458V2.458H43.5V0z"/>
        <path data-name="사각형 1685" transform="translate(47.654 -.001)" style="fill:#56b36b" d="M0 0h2.458v20.451H0z"/>
        <path data-name="패스 2994" d="M12.767 7.035h-2.129l1.506-1.506-.969-.967-1.506 1.506v-2.13H8.3v2.13L6.795 4.562l-.967.967 1.506 1.506H5.2V8.4h2.134L5.828 9.91l.967.969L8.3 9.372V11.5h1.369V9.371l1.506 1.508.969-.969-1.508-1.51h2.131z" transform="translate(3.324 2.516)" style="fill:#56b36b"/>
        <path data-name="패스 2995" d="M20.219 7.035H18.09l1.51-1.506-.969-.967-1.51 1.506v-2.13h-1.368v2.13l-1.506-1.506-.967.967 1.506 1.506h-2.131V8.4h2.131L13.28 9.91l.967.969 1.506-1.506V11.5h1.369V9.371l1.506 1.508.972-.969-1.512-1.51h2.131z" transform="translate(8.086 2.516)" style="fill:#56b36b"/>
        <path data-name="패스 2996" d="M27.671 7.035h-2.129l1.506-1.506-.969-.967-1.506 1.506v-2.13H23.2v2.13l-1.5-1.506-.967.967 1.506 1.506h-2.132V8.4h2.131l-1.507 1.51.967.969L23.2 9.372V11.5h1.369V9.371l1.506 1.508.969-.969L25.54 8.4h2.131z" transform="translate(12.847 2.516)" style="fill:#56b36b"/>
        <path data-name="패스 2997" d="M41.375 7.035h-2.129l1.506-1.506-.969-.967-1.506 1.506v-2.13h-1.368v2.13L35.4 4.562l-.967.967 1.506 1.506h-2.128V8.4h2.131l-1.506 1.51.967.969 1.506-1.506V11.5h1.369V9.371l1.506 1.508.969-.969-1.509-1.51h2.131z" transform="translate(21.603 2.516)" style="fill:#56b36b"/>
    </g>
</svg>
