<svg xmlns="http://www.w3.org/2000/svg" width="30" height="30" viewBox="0 0 30 30">
    <defs>
        <clipPath id="j1sr7l5b4a">
            <path data-name="사각형 1334" transform="translate(-4 -3)" style="fill:none" d="M0 0h26.804v26.804H0z"/>
        </clipPath>
    </defs>
    <g data-name="그룹 1823">
        <path data-name="사각형 1065" style="fill:none" d="M0 0h30v30H0z"/>
        <g data-name="그룹 1822" transform="translate(5.612 4.612)" style="clip-path:url(#j1sr7l5b4a)">
            <path data-name="패스 1613" d="M.75 13.525a12.774 12.774 0 1 1 25.549 0V26.3H.75z" transform="translate(-4.122 -3.122)" style="stroke:#000;stroke-miterlimit:10;stroke-width:1.5px;fill:none"/>
            <path data-name="선 88" transform="translate(9.402 11.331)" style="stroke:#000;stroke-miterlimit:10;stroke-width:1.5px;fill:none" d="M0 0v11.845"/>
            <path data-name="패스 1614" d="M12.514 14.2c0-2.9 2.929-5.258 2.929-5.258s2.93 2.354 2.93 5.258" transform="translate(-6.041 -4.458)" style="stroke:#000;stroke-miterlimit:10;stroke-width:1.5px;fill:none"/>
            <path data-name="패스 1615" d="M21.866 19.839c-2.114 1.991-5.836 1.472-5.836 1.472s-.3-3.747 1.819-5.738 5.836-1.473 5.836-1.473.294 3.748-1.819 5.739z" transform="translate(-6.613 -5.29)" style="stroke:#000;stroke-miterlimit:10;stroke-width:1.5px;fill:none"/>
            <path data-name="패스 1616" d="M8.7 19.839c2.114 1.991 5.836 1.472 5.836 1.472s.3-3.747-1.819-5.738S6.88 14.1 6.88 14.1s-.294 3.748 1.82 5.739z" transform="translate(-5.12 -5.29)" style="stroke:#000;stroke-miterlimit:10;stroke-width:1.5px;fill:none"/>
        </g>
    </g>
</svg>
