<svg xmlns="http://www.w3.org/2000/svg" width="80" height="80" viewBox="0 0 80 80">
    <defs>
        <clipPath id="w8kv87i56a">
            <path data-name="사각형 1684" style="fill:none" d="M0 0h32.39v41.003H0z"/>
        </clipPath>
    </defs>
    <g data-name="그룹 2063">
        <g data-name="타원 495" style="fill:#56b36b;stroke:#56b36b;stroke-width:2px">
            <circle cx="40" cy="40" r="40" style="stroke:none"/>
            <circle cx="40" cy="40" r="39" style="fill:none"/>
        </g>
        <g data-name="그룹 2062">
            <g data-name="그룹 2061" style="clip-path:url(#w8kv87i56a)" transform="translate(24 19)">
                <path data-name="패스 2974" d="M23.134 41H9.417a1 1 0 0 1-.988-.847l-2.48-16a1 1 0 0 1 .988-1.154h18.677a1 1 0 0 1 .986 1.161l-2.48 16a1 1 0 0 1-.988.847m-12.86-2h12l2.17-14H8.1z" style="fill:#fff"/>
                <path data-name="패스 2975" d="M16.275 25.006a1 1 0 0 1-1-1v-7.563a1 1 0 1 1 2 0v7.563a1 1 0 0 1-1 1" style="fill:#fff"/>
                <path data-name="패스 2976" d="M18.194 17.12a17.936 17.936 0 0 1-1.953-.1 1 1 0 0 1-.875-.875c-.039-.33-.912-8.129 3.507-12.548S31.091.057 31.421.095A1 1 0 0 1 32.3.97c.039.33.911 8.129-3.507 12.548-3.119 3.119-7.924 3.6-10.595 3.6M17.3 15.1c1.983.086 7.1-.018 10.079-2.991s3.071-8.098 2.987-10.084c-1.986-.084-7.1.018-10.079 2.991S17.212 13.11 17.3 15.1" style="fill:#fff"/>
                <path data-name="패스 2977" d="M14.2 17.12c-2.671 0-7.475-.483-10.595-3.6C-.817 9.1.056 1.3.095.97A1 1 0 0 1 .97.095C1.3.057 9.1-.817 13.518 3.6s3.546 12.22 3.507 12.55a1 1 0 0 1-.875.875 17.936 17.936 0 0 1-1.953.1M2.025 2.025C1.941 4.01 2.043 9.13 5.016 12.1s8.093 3.079 10.084 3c.084-1.986-.018-7.106-2.991-10.079S4.008 1.939 2.025 2.025" style="fill:#fff"/>
            </g>
        </g>
    </g>
</svg>
