<svg xmlns="http://www.w3.org/2000/svg" width="30" height="30" viewBox="0 0 30 30">
    <defs>
        <clipPath id="p4kebu4ypa">
            <path data-name="사각형 1064" d="M0 0h25.357v19H0z"/>
        </clipPath>
    </defs>
    <g data-name="그룹 2331">
        <g data-name="그룹 1755">
            <path data-name="패스 1450" d="M8.9 11.948H2v5.1h6.9l7.163 6.187V5.762z"/>
            <g data-name="그룹 1754">
                <g data-name="그룹 1753" style="clip-path:url(#p4kebu4ypa)" transform="translate(2 5)">
                    <path data-name="패스 1451" d="m18.499 12.966-.73-.729a3.876 3.876 0 0 0 0-5.474l.73-.729a4.909 4.909 0 0 1 0 6.932"/>
                    <path data-name="패스 1452" d="m20.102 15.315-.729-.729a7.194 7.194 0 0 0 0-10.171l.729-.729a8.225 8.225 0 0 1 0 11.63"/>
                    <path data-name="패스 1453" d="m21.429 19-.73-.729a12.42 12.42 0 0 0 0-17.541l.73-.73a13.453 13.453 0 0 1 0 19"/>
                </g>
            </g>
        </g>
        <path data-name="사각형 2419" style="fill:none" d="M0 0h30v30H0z"/>
    </g>
</svg>
