<svg xmlns="http://www.w3.org/2000/svg" width="40" height="40" viewBox="0 0 40 40">
    <defs>
        <clipPath id="naxcveuoya">
            <path data-name="사각형 1325" style="fill:#fff" d="M0 0h23.831v17.579H0z"/>
        </clipPath>
    </defs>
    <circle data-name="타원 164" cx="20" cy="20" r="20" style="fill:#56b36b"/>
    <g data-name="그룹 1785">
        <g data-name="그룹 1784" transform="translate(8 13)" style="clip-path:url(#naxcveuoya)">
            <path data-name="패스 1578" d="m23.761.856-.084-.7-.7-.084C22.732.04 17-.6 13.733 2.662a8.22 8.22 0 0 0-1.818 2.873A8.22 8.22 0 0 0 10.1 2.662C6.834-.6 1.1.041.856.07l-.7.084-.084.7C.04 1.1-.6 6.834 2.661 10.1c2.306 2.306 5.847 2.662 7.811 2.662.223 0 .423 0 .6-.012v4.832h1.8v-4.831c.149 0 .309.008.485.008 1.964 0 5.506-.356 7.811-2.662 3.263-3.263 2.621-9 2.592-9.241m-12.812 10.1c-1.508.05-4.975-.084-7.017-2.125s-2.17-5.512-2.122-7.023c1.509-.049 4.975.084 7.017 2.125S11 9.44 10.949 10.952M19.9 8.826c-2.034 2.032-5.506 2.17-7.017 2.124-.047-1.513.09-4.983 2.124-7.017s5.5-2.17 7.017-2.124c.047 1.513-.091 4.983-2.124 7.017" style="fill:#fff"/>
        </g>
    </g>
</svg>
