<svg xmlns="http://www.w3.org/2000/svg" width="36" height="36" viewBox="0 0 36 36">
    <defs>
        <clipPath id="r7tw7tmr5a">
            <path data-name="사각형 1331" style="fill:none" d="M0 0h22v13.999H0z"/>
        </clipPath>
        <clipPath id="b1dddbo54b">
            <path data-name="사각형 1457" style="fill:none" d="M0 0h13v13H0z"/>
        </clipPath>
        <clipPath id="ok8v5jiaxc">
            <path data-name="사각형 1333" style="fill:#1f5a2c" d="M0 0h12.118v11.589H0z"/>
        </clipPath>
        <clipPath id="5znpe49avd">
            <path data-name="사각형 1333" style="fill:#f6c0fc" d="M0 0h12.118v11.589H0z"/>
        </clipPath>
        <clipPath id="ddwqlaxf3e">
            <path data-name="사각형 1333" style="fill:#1f5a2c" d="M0 0h8.541v8.168H0z"/>
        </clipPath>
        <clipPath id="3tiv3xd2gf">
            <path data-name="사각형 1333" style="fill:#ffeb00" d="M0 0h8.541v8.168H0z"/>
        </clipPath>
        <clipPath id="2rjtzgfvlg">
            <path data-name="사각형 1333" style="fill:#1f5a2c" d="M0 0h9.346v8.938H0z"/>
        </clipPath>
        <clipPath id="gfn143gjkh">
            <path data-name="사각형 1333" style="fill:#a3d0ff" d="M0 0h9.346v8.938H0z"/>
        </clipPath>
    </defs>
    <path data-name="사각형 1458" style="fill:none" d="M0 0h36v36H0z"/>
    <g data-name="그룹 1840">
        <g data-name="그룹 1798" transform="translate(7 22.001)" style="clip-path:url(#r7tw7tmr5a)">
            <path data-name="패스 1599" d="M19.593 9.167c-2.683 2.778-8.207 2.221-8.207 2.221s-.538-5.718 2.145-8.5S22.387 0 22.387 0s-.111 6.389-2.794 9.167" transform="translate(-.386 -.001)" style="fill:#56b36b"/>
            <path data-name="패스 1600" d="M2.793 9.167C5.477 11.945 11 11.388 11 11.388s.538-5.718-2.146-8.5S0 0 0 0s.11 6.389 2.793 9.167" transform="translate(0 -.001)" style="fill:#56b36b"/>
            <path data-name="패스 1601" d="M0 18.637V0" transform="translate(11.044 -4.637)" style="stroke:#56b36b;fill:none"/>
        </g>
    </g>
    <g data-name="그룹 1925" transform="translate(11.5 9.256)" style="clip-path:url(#b1dddbo54b)">
        <path data-name="패스 2535" d="M26.105 24.2a1.908 1.908 0 1 1-1.905 1.905 1.908 1.908 0 0 1 1.905-1.905" transform="translate(-19.605 -19.605)" style="fill:#ffe474"/>
        <path data-name="패스 2536" d="M28.474 0a1.353 1.353 0 0 1 1.353 1.353C29.828 2.1 29.222 4 28.474 4s-1.353-1.9-1.353-2.645A1.353 1.353 0 0 1 28.474 0" transform="translate(-21.974)" style="fill:#ffe474"/>
        <path data-name="패스 2537" d="M28.474 51.434a1.353 1.353 0 0 1-1.353-1.353c0-.747.606-2.645 1.353-2.645s1.353 1.9 1.353 2.645a1.353 1.353 0 0 1-1.353 1.353" transform="translate(-21.974 -38.434)" style="fill:#ffe474"/>
        <path data-name="패스 2538" d="M51.434 28.474a1.353 1.353 0 0 1-1.353 1.353c-.747 0-2.645-.606-2.645-1.353s1.9-1.353 2.645-1.353a1.353 1.353 0 0 1 1.353 1.353" transform="translate(-38.434 -21.974)" style="fill:#ffe474"/>
        <path data-name="패스 2539" d="M0 28.474a1.353 1.353 0 0 1 1.353-1.353c.747 0 2.647.606 2.647 1.353s-1.9 1.353-2.645 1.353A1.353 1.353 0 0 1 0 28.474" transform="translate(0 -21.974)" style="fill:#ffe474"/>
        <path data-name="패스 2540" d="M45.721 8.34a1.353 1.353 0 0 1 0 1.914c-.528.528-2.3 1.442-2.827.914s.385-2.3.914-2.827a1.353 1.353 0 0 1 1.914 0" transform="translate(-34.625 -6.436)" style="fill:#ffe474"/>
        <path data-name="패스 2541" d="M8.34 45.721a1.353 1.353 0 0 1 0-1.914c.528-.528 2.3-1.442 2.827-.914s-.385 2.3-.914 2.827a1.353 1.353 0 0 1-1.914 0" transform="translate(-6.436 -34.625)" style="fill:#ffe474"/>
        <path data-name="패스 2542" d="M45.721 45.721a1.353 1.353 0 0 1-1.914 0c-.528-.528-1.442-2.3-.914-2.827s2.3.385 2.827.914a1.353 1.353 0 0 1 0 1.914" transform="translate(-34.625 -34.625)" style="fill:#ffe474"/>
        <path data-name="패스 2543" d="M8.34 8.34a1.353 1.353 0 0 1 1.914 0c.528.529 1.442 2.3.914 2.827s-2.3-.385-2.827-.914a1.353 1.353 0 0 1 0-1.914" transform="translate(-6.436 -6.436)" style="fill:#ffe474"/>
    </g>
    <g data-name="그룹 1811">
        <g data-name="그룹 1808">
            <g data-name="그룹 1807" transform="translate(21.058 13.61)" style="clip-path:url(#ok8v5jiaxc)">
                <path data-name="패스 1611" d="M9.936 5.457a1.848 1.848 0 0 0 1.4-1.475c.032-.232-.327-.611-.365-1C10.818 1.355 10.4-1.044 9.011.5a13.4 13.4 0 0 0-2.429 4.689 7.4 7.4 0 0 1-.339-3.334A2.586 2.586 0 0 1 6.812.3a.958.958 0 0 1 .995-.03l.044-.096a1.062 1.062 0 0 0-1.1.042h-.007l-.007.01a2.684 2.684 0 0 0-.6 1.617 7.544 7.544 0 0 0 .391 3.518c-.025.087-.037.135-.037.135l-.133-.041A7.556 7.556 0 0 0 3.6 3.236a2.675 2.675 0 0 0-1.685-.365h-.012a1.057 1.057 0 0 0-.626.906l.1.012a.955.955 0 0 1 .559-.822 2.58 2.58 0 0 1 1.616.355A7.391 7.391 0 0 1 6.182 5.4a13.393 13.393 0 0 0-5.257-.467c-2.044.342-.246 1.986 1.044 2.995.306.24.433.747.645.845a1.848 1.848 0 0 0 2-.394s-.9 3.017.949 2.916 1.4.325 1.932.294.857-2.71.857-2.71 2.436 1.164 2.746.734-.287-.286.789-1.788-1.95-2.367-1.95-2.367" style="fill:#1f5a2c"/>
            </g>
        </g>
        <g data-name="그룹 1809">
            <g data-name="그룹 1807" transform="translate(22.107 11.658)" style="clip-path:url(#5znpe49avd)">
                <path data-name="패스 1611" d="M9.936 5.457a1.848 1.848 0 0 0 1.4-1.475c.032-.232-.327-.611-.365-1C10.818 1.355 10.4-1.044 9.011.5a13.4 13.4 0 0 0-2.429 4.689 7.4 7.4 0 0 1-.339-3.334A2.586 2.586 0 0 1 6.812.3a.958.958 0 0 1 .995-.03l.044-.096a1.062 1.062 0 0 0-1.1.042h-.007l-.007.01a2.684 2.684 0 0 0-.6 1.617 7.544 7.544 0 0 0 .391 3.518c-.025.087-.037.135-.037.135l-.133-.041A7.556 7.556 0 0 0 3.6 3.236a2.675 2.675 0 0 0-1.685-.365h-.012a1.057 1.057 0 0 0-.626.906l.1.012a.955.955 0 0 1 .559-.822 2.58 2.58 0 0 1 1.616.355A7.391 7.391 0 0 1 6.182 5.4a13.393 13.393 0 0 0-5.257-.467c-2.044.342-.246 1.986 1.044 2.995.306.24.433.747.645.845a1.848 1.848 0 0 0 2-.394s-.9 3.017.949 2.916 1.4.325 1.932.294.857-2.71.857-2.71 2.436 1.164 2.746.734-.287-.286.789-1.788-1.95-2.367-1.95-2.367" style="fill:#f6c0fc"/>
            </g>
        </g>
    </g>
    <g data-name="그룹 1886">
        <g data-name="그룹 1808">
            <g data-name="그룹 1807" transform="translate(23 1.376)" style="clip-path:url(#ddwqlaxf3e)">
                <path data-name="패스 1611" d="M7 3.846a1.3 1.3 0 0 0 .99-1.039c.023-.163-.231-.431-.257-.7C7.625.955 7.329-.736 6.351.349a9.447 9.447 0 0 0-1.712 3.309A5.213 5.213 0 0 1 4.4 1.307 1.822 1.822 0 0 1 4.8.209a.675.675 0 0 1 .7-.021l.034-.065a.749.749 0 0 0-.776.029 1.892 1.892 0 0 0-.42 1.14A5.317 5.317 0 0 0 4.6 3.779c-.018.061-.026.1-.026.1L4.48 3.85a5.326 5.326 0 0 0-1.94-1.569 1.885 1.885 0 0 0-1.188-.257h-.006a.745.745 0 0 0-.446.641l.072.009a.673.673 0 0 1 .394-.579 1.818 1.818 0 0 1 1.139.25A5.209 5.209 0 0 1 4.361 3.81a9.44 9.44 0 0 0-3.709-.333c-1.441.241-.174 1.4.736 2.111.216.169.3.526.455.6a1.3 1.3 0 0 0 1.408-.277s-.632 2.127.669 2.056.988.229 1.362.207.6-1.91.6-1.91 1.717.82 1.936.517-.2-.2.556-1.26S7 3.846 7 3.846" style="fill:#1f5a2c"/>
            </g>
        </g>
        <g data-name="그룹 1809">
            <g data-name="그룹 1807" transform="translate(23.739)" style="clip-path:url(#3tiv3xd2gf)">
                <path data-name="패스 1611" d="M7 3.846a1.3 1.3 0 0 0 .99-1.039c.023-.163-.231-.431-.257-.7C7.625.955 7.329-.736 6.351.349a9.447 9.447 0 0 0-1.712 3.309A5.213 5.213 0 0 1 4.4 1.307 1.822 1.822 0 0 1 4.8.209a.675.675 0 0 1 .7-.021l.034-.065a.749.749 0 0 0-.776.029 1.892 1.892 0 0 0-.42 1.14A5.317 5.317 0 0 0 4.6 3.779c-.018.061-.026.1-.026.1L4.48 3.85a5.326 5.326 0 0 0-1.94-1.569 1.885 1.885 0 0 0-1.188-.257h-.006a.745.745 0 0 0-.446.641l.072.009a.673.673 0 0 1 .394-.579 1.818 1.818 0 0 1 1.139.25A5.209 5.209 0 0 1 4.361 3.81a9.44 9.44 0 0 0-3.709-.333c-1.441.241-.174 1.4.736 2.111.216.169.3.526.455.6a1.3 1.3 0 0 0 1.408-.277s-.632 2.127.669 2.056.988.229 1.362.207.6-1.91.6-1.91 1.717.82 1.936.517-.2-.2.556-1.26S7 3.846 7 3.846" style="fill:#ffeb00"/>
            </g>
        </g>
    </g>
    <g data-name="그룹 1813">
        <g data-name="그룹 1808">
            <g data-name="그룹 1807" transform="translate(2.585 14.118)" style="clip-path:url(#2rjtzgfvlg)">
                <path data-name="패스 1611" d="M1.682 4.209A1.425 1.425 0 0 1 .6 3.071C.574 2.893.851 2.6.881 2.3 1 1.045 1.326-.805 2.4.382A10.337 10.337 0 0 1 4.269 4a5.7 5.7 0 0 0 .261-2.57 1.994 1.994 0 0 0-.439-1.2.739.739 0 0 0-.766-.024L3.291.134a.819.819 0 0 1 .849.032h.005a2.07 2.07 0 0 1 .46 1.247 5.818 5.818 0 0 1-.3 2.713l.029.1.1-.032A5.827 5.827 0 0 1 6.567 2.5a2.063 2.063 0 0 1 1.3-.281h.011a.816.816 0 0 1 .483.7l-.079.009a.736.736 0 0 0-.431-.634 1.99 1.99 0 0 0-1.251.271 5.7 5.7 0 0 0-2.028 1.6 10.329 10.329 0 0 1 4.06-.365c1.577.264.19 1.532-.8 2.31-.236.185-.334.576-.5.651a1.425 1.425 0 0 1-1.541-.3s.691 2.327-.732 2.249-1.081.25-1.49.227-.661-2.09-.661-2.09-1.878.9-2.118.566.221-.22-.609-1.379 1.5-1.826 1.5-1.826" style="fill:#1f5a2c"/>
            </g>
        </g>
        <g data-name="그룹 1809">
            <g data-name="그룹 1807" transform="translate(1.776 12.613)" style="clip-path:url(#gfn143gjkh)">
                <path data-name="패스 1611" d="M1.682 4.209A1.425 1.425 0 0 1 .6 3.071C.574 2.893.851 2.6.881 2.3 1 1.045 1.326-.805 2.4.382A10.337 10.337 0 0 1 4.269 4a5.7 5.7 0 0 0 .261-2.57 1.994 1.994 0 0 0-.439-1.2.739.739 0 0 0-.766-.024L3.291.134a.819.819 0 0 1 .849.032h.005a2.07 2.07 0 0 1 .46 1.247 5.818 5.818 0 0 1-.3 2.713l.029.1.1-.032A5.827 5.827 0 0 1 6.567 2.5a2.063 2.063 0 0 1 1.3-.281h.011a.816.816 0 0 1 .483.7l-.079.009a.736.736 0 0 0-.431-.634 1.99 1.99 0 0 0-1.251.271 5.7 5.7 0 0 0-2.028 1.6 10.329 10.329 0 0 1 4.06-.365c1.577.264.19 1.532-.8 2.31-.236.185-.334.576-.5.651a1.425 1.425 0 0 1-1.541-.3s.691 2.327-.732 2.249-1.081.25-1.49.227-.661-2.09-.661-2.09-1.878.9-2.118.566.221-.22-.609-1.379 1.5-1.826 1.5-1.826" style="fill:#a3d0ff"/>
            </g>
        </g>
    </g>
</svg>
