<svg xmlns="http://www.w3.org/2000/svg" width="100" height="100.002" viewBox="0 0 100 100.002">
    <defs>
        <clipPath id="hwshwbwp7a">
            <path data-name="사각형 2729" style="fill:none" d="M0 0h75.003v73.002H0z"/>
        </clipPath>
    </defs>
    <g data-name="그룹 2508">
        <path data-name="사각형 2603" style="fill:none" d="M0 0h100v100H0z"/>
        <g data-name="그룹 2428">
            <g data-name="그룹 2427" style="clip-path:url(#hwshwbwp7a)" transform="translate(12 27)">
                <path data-name="패스 12231" d="m22.767 44.143-9.157 9.01a4.3 4.3 0 0 0-1.283 3.065l9.285-9.285a3.946 3.946 0 0 0 1.155-2.79" style="fill:#6a8e32"/>
                <path data-name="패스 12232" d="m17.961 34.627-4.482 4.334a4.3 4.3 0 0 0-1.279 3.065l4.609-4.609a3.947 3.947 0 0 0 1.156-2.79" style="fill:#6a8e32"/>
                <path data-name="패스 12233" d="m4 38.679 7.71 7.562a4.3 4.3 0 0 1 1.283 3.065l-7.835-7.837A3.947 3.947 0 0 1 4 38.679" style="fill:#6a8e32"/>
                <path data-name="패스 12234" d="M13.041 17.755c.6-.867 1.3-1 1.807-.644s.64 1.051.043 1.918a4.26 4.26 0 0 1-2.2 1.221 4.263 4.263 0 0 1 .355-2.5" style="fill:#9a3bd1"/>
                <path data-name="패스 12235" d="M12.39 17.755c-.6-.867-1.3-1-1.807-.644s-.64 1.051-.043 1.918a4.26 4.26 0 0 0 2.2 1.221 4.263 4.263 0 0 0-.355-2.5" style="fill:#9a3bd1"/>
                <path data-name="패스 12236" d="M13.068 20.284c.647-.939 1.4-1.079 1.958-.7s.693 1.139.046 2.078a4.612 4.612 0 0 1-2.388 1.323 4.615 4.615 0 0 1 .384-2.7" style="fill:#9a3bd1"/>
                <path data-name="패스 12237" d="M12.362 20.284c-.647-.939-1.4-1.079-1.958-.7s-.693 1.139-.046 2.078a4.614 4.614 0 0 0 2.389 1.325 4.615 4.615 0 0 0-.384-2.7" style="fill:#9a3bd1"/>
                <path data-name="패스 12238" d="M13.1 23.09c.713-1.035 1.548-1.189 2.158-.769s.764 1.255.051 2.29a5.088 5.088 0 0 1-2.628 1.458 5.094 5.094 0 0 1 .424-2.979" style="fill:#9a3bd1"/>
                <path data-name="패스 12239" d="M12.327 23.09c-.713-1.035-1.548-1.189-2.158-.769s-.764 1.255-.051 2.29a5.093 5.093 0 0 0 2.632 1.458 5.094 5.094 0 0 0-.424-2.979" style="fill:#9a3bd1"/>
                <path data-name="패스 12240" d="M13.135 26.254c.77-1.118 1.672-1.284 2.33-.831s.825 1.355.055 2.473a5.5 5.5 0 0 1-2.843 1.575 5.5 5.5 0 0 1 .458-3.218" style="fill:#9a3bd1"/>
                <path data-name="패스 12241" d="M12.3 26.254c-.77-1.118-1.672-1.284-2.33-.831s-.83 1.355-.06 2.477a5.5 5.5 0 0 0 2.843 1.575 5.5 5.5 0 0 0-.458-3.218" style="fill:#9a3bd1"/>
                <path data-name="패스 12242" d="m12.53 35.249-1.3-1.3a.437.437 0 0 1 .309-.746h2.606a.437.437 0 0 1 .309.746l-1.3 1.3a.436.436 0 0 1-.618 0" style="fill:#a1d438"/>
                <path data-name="패스 12243" d="M13.215 29.587c.916-1.33 1.988-1.528 2.772-.988s.981 1.612.065 2.942-3.381 1.873-3.381 1.873-.371-2.5.544-3.827" style="fill:#9a3bd1"/>
                <path data-name="패스 12244" d="M12.216 29.587c-.916-1.33-1.988-1.528-2.772-.988s-.981 1.612-.065 2.942 3.381 1.873 3.381 1.873.371-2.5-.544-3.827" style="fill:#9a3bd1"/>
                <path data-name="패스 12245" d="m12.53 30.8-1.3-1.3a.437.437 0 0 1 .309-.746h2.606a.437.437 0 0 1 .309.746l-1.3 1.3a.436.436 0 0 1-.618 0" style="fill:#a1d438"/>
                <path data-name="패스 12246" d="m12.53 27.424-1.3-1.3a.437.437 0 0 1 .309-.746h2.606a.437.437 0 0 1 .309.746l-1.3 1.3a.436.436 0 0 1-.618 0" style="fill:#a1d438"/>
                <path data-name="패스 12247" d="m12.53 24.093-1.3-1.3a.437.437 0 0 1 .309-.746h2.606a.437.437 0 0 1 .309.746l-1.3 1.3a.436.436 0 0 1-.618 0" style="fill:#a1d438"/>
                <path data-name="패스 12248" d="m12.53 21.485-1.3-1.3a.437.437 0 0 1 .309-.746h2.606a.437.437 0 0 1 .309.746l-1.3 1.3a.436.436 0 0 1-.618 0" style="fill:#a1d438"/>
                <path data-name="패스 12249" d="m12.53 18.187-1.3-1.3a.437.437 0 0 1 .309-.746h2.606a.437.437 0 0 1 .309.746l-1.3 1.3a.436.436 0 0 1-.618 0" style="fill:#a1d438"/>
                <path data-name="사각형 2723" transform="translate(12.327 15.64)" style="fill:#a1d438" d="M0 0h.978v44.734H0z"/>
                <path data-name="패스 12250" d="M10.277 30.52c-1.5-.608-2.5-.184-2.859.7s.066 1.886 1.562 2.494 3.854-.292 3.854-.292-1.062-2.291-2.557-2.9" style="fill:#d8a0f2"/>
                <path data-name="패스 12251" d="M15.153 30.52c1.5-.608 2.5-.184 2.859.7s-.066 1.886-1.562 2.494-3.85-.294-3.85-.294 1.062-2.291 2.557-2.9" style="fill:#d8a0f2"/>
                <path data-name="패스 12252" d="M10.665 27.039c-1.257-.511-2.1-.155-2.4.586s.056 1.586 1.313 2.1a5.5 5.5 0 0 0 3.241-.246 5.5 5.5 0 0 0-2.15-2.437" style="fill:#d8a0f2"/>
                <path data-name="패스 12253" d="M14.765 27.039c1.257-.511 2.1-.155 2.4.586s-.056 1.586-1.313 2.1a5.5 5.5 0 0 1-3.241-.246 5.5 5.5 0 0 1 2.15-2.437" style="fill:#d8a0f2"/>
                <path data-name="패스 12254" d="M10.817 23.816c-1.164-.473-1.946-.143-2.225.543s.051 1.468 1.216 1.941a5.087 5.087 0 0 0 3-.228 5.087 5.087 0 0 0-1.991-2.257" style="fill:#d8a0f2"/>
                <path data-name="패스 12255" d="M14.613 23.816c1.164-.473 1.947-.143 2.225.543s-.051 1.468-1.216 1.941a5.087 5.087 0 0 1-3-.228 5.087 5.087 0 0 1 1.991-2.257" style="fill:#d8a0f2"/>
                <path data-name="패스 12256" d="M10.993 20.943c-1.056-.429-1.766-.13-2.019.492s.047 1.332 1.1 1.761a4.615 4.615 0 0 0 2.722-.207 4.615 4.615 0 0 0-1.806-2.047" style="fill:#d8a0f2"/>
                <path data-name="패스 12257" d="M14.437 20.943c1.056-.429 1.766-.13 2.019.492s-.047 1.332-1.1 1.761a4.615 4.615 0 0 1-2.722-.207 4.615 4.615 0 0 1 1.806-2.047" style="fill:#d8a0f2"/>
                <path data-name="패스 12258" d="M11.126 18.364c-.975-.4-1.63-.12-1.863.454s.043 1.229 1.018 1.626a4.259 4.259 0 0 0 2.513-.191 4.257 4.257 0 0 0-1.667-1.89" style="fill:#d8a0f2"/>
                <path data-name="패스 12259" d="M14.3 18.364c.975-.4 1.63-.12 1.863.454s-.043 1.229-1.018 1.626a4.259 4.259 0 0 1-2.513-.191 4.257 4.257 0 0 1 1.667-1.89" style="fill:#d8a0f2"/>
                <path data-name="패스 12260" d="M13.017 14.834c.554-.8 1.2-.924 1.676-.6s.593.975.039 1.779a3.955 3.955 0 0 1-2.044 1.133 3.957 3.957 0 0 1 .329-2.314" style="fill:#9a3bd1"/>
                <path data-name="패스 12261" d="M12.413 14.834c-.554-.8-1.2-.924-1.676-.6s-.593.975-.039 1.779a3.955 3.955 0 0 0 2.044 1.133 3.957 3.957 0 0 0-.329-2.314" style="fill:#9a3bd1"/>
                <path data-name="패스 12262" d="M11.241 15.4c-.9-.368-1.512-.111-1.729.421s.04 1.14.944 1.508a3.953 3.953 0 0 0 2.331-.177 3.954 3.954 0 0 0-1.546-1.752" style="fill:#d8a0f2"/>
                <path data-name="패스 12263" d="M14.189 15.4c.9-.368 1.512-.111 1.729.421s-.04 1.14-.944 1.508a3.953 3.953 0 0 1-2.331-.177 3.954 3.954 0 0 1 1.546-1.752" style="fill:#d8a0f2"/>
                <path data-name="패스 12264" d="M11.563 14.387c-.222-.693 0-1.13.411-1.261s.846.094 1.068.787a2.951 2.951 0 0 1-.263 1.723s-.994-.559-1.216-1.249" style="fill:#d8a0f2"/>
                <path data-name="패스 12265" d="M14 14.387c.222-.693 0-1.13-.411-1.261s-.846.094-1.068.787a2.951 2.951 0 0 0 .263 1.723s.993-.556 1.215-1.249" style="fill:#d8a0f2"/>
                <path data-name="패스 12266" d="m6.7 36.019 5.368 5.221a4.3 4.3 0 0 1 1.283 3.065l-5.5-5.5a3.947 3.947 0 0 1-1.151-2.79" style="fill:#a1d438"/>
                <path data-name="패스 12267" d="m21.316 38.675-7.7 7.553a4.3 4.3 0 0 0-1.283 3.065l7.828-7.828a3.946 3.946 0 0 0 1.155-2.79" style="fill:#a1d438"/>
                <path data-name="패스 12268" d="m1.484 43.9 10.347 10.2a4.3 4.3 0 0 1 1.283 3.065L2.64 46.695A3.945 3.945 0 0 1 1.484 43.9" style="fill:#a1d438"/>
                <path data-name="패스 12269" d="m32.953 44.143-9.153 9.01a4.3 4.3 0 0 0-1.283 3.065l9.283-9.285a3.946 3.946 0 0 0 1.155-2.79" style="fill:#6a8e32"/>
                <path data-name="패스 12270" d="m28.147 34.627-4.482 4.334a4.3 4.3 0 0 0-1.283 3.065l4.609-4.609a3.947 3.947 0 0 0 1.156-2.79" style="fill:#6a8e32"/>
                <path data-name="패스 12271" d="m14.188 38.679 7.71 7.562a4.3 4.3 0 0 1 1.283 3.065l-7.837-7.837a3.947 3.947 0 0 1-1.156-2.79" style="fill:#6a8e32"/>
                <path data-name="패스 12272" d="M23.227 17.755c.6-.867 1.3-1 1.807-.644s.639 1.051.043 1.918a4.26 4.26 0 0 1-2.2 1.221 4.263 4.263 0 0 1 .355-2.5" style="fill:#9a3bd1"/>
                <path data-name="패스 12273" d="M22.576 17.755c-.6-.867-1.3-1-1.807-.644s-.639 1.051-.043 1.918a4.26 4.26 0 0 0 2.2 1.221 4.263 4.263 0 0 0-.355-2.5" style="fill:#9a3bd1"/>
                <path data-name="패스 12274" d="M23.254 20.284c.647-.939 1.4-1.079 1.958-.7s.693 1.139.046 2.078a4.612 4.612 0 0 1-2.388 1.323 4.615 4.615 0 0 1 .384-2.7" style="fill:#9a3bd1"/>
                <path data-name="패스 12275" d="M22.548 20.284c-.647-.939-1.4-1.079-1.958-.7s-.693 1.139-.046 2.078a4.612 4.612 0 0 0 2.388 1.323 4.615 4.615 0 0 0-.384-2.7" style="fill:#9a3bd1"/>
                <path data-name="패스 12276" d="M23.29 23.09c.713-1.035 1.548-1.189 2.158-.769s.764 1.255.051 2.29a5.09 5.09 0 0 1-2.631 1.458 5.094 5.094 0 0 1 .424-2.979" style="fill:#9a3bd1"/>
                <path data-name="패스 12277" d="M22.51 23.09c-.713-1.035-1.548-1.189-2.158-.769s-.764 1.255-.051 2.29a5.093 5.093 0 0 0 2.632 1.458 5.094 5.094 0 0 0-.424-2.979" style="fill:#9a3bd1"/>
                <path data-name="패스 12278" d="M23.321 26.254c.77-1.118 1.672-1.284 2.33-.831s.825 1.355.055 2.473a5.5 5.5 0 0 1-2.843 1.575 5.5 5.5 0 0 1 .458-3.218" style="fill:#9a3bd1"/>
                <path data-name="패스 12279" d="M22.481 26.254c-.77-1.118-1.672-1.284-2.33-.831s-.825 1.355-.055 2.473a5.5 5.5 0 0 0 2.843 1.575 5.5 5.5 0 0 0-.458-3.218" style="fill:#9a3bd1"/>
                <path data-name="패스 12280" d="m22.716 35.249-1.3-1.3a.437.437 0 0 1 .309-.746h2.606a.437.437 0 0 1 .309.746l-1.3 1.3a.436.436 0 0 1-.618 0" style="fill:#a1d438"/>
                <path data-name="패스 12281" d="M23.4 29.587c.916-1.33 1.988-1.528 2.772-.988s.981 1.612.065 2.942-3.381 1.873-3.381 1.873-.371-2.5.544-3.827" style="fill:#9a3bd1"/>
                <path data-name="패스 12282" d="M22.4 29.587c-.916-1.33-1.988-1.528-2.772-.988s-.981 1.612-.065 2.942 3.381 1.873 3.381 1.873.371-2.5-.544-3.827" style="fill:#9a3bd1"/>
                <path data-name="패스 12283" d="m22.716 30.8-1.3-1.3a.437.437 0 0 1 .309-.746h2.606a.437.437 0 0 1 .309.746l-1.3 1.3a.436.436 0 0 1-.618 0" style="fill:#a1d438"/>
                <path data-name="패스 12284" d="m22.716 27.424-1.3-1.3a.437.437 0 0 1 .309-.746h2.606a.437.437 0 0 1 .309.746l-1.3 1.3a.436.436 0 0 1-.618 0" style="fill:#a1d438"/>
                <path data-name="패스 12285" d="m22.716 24.093-1.3-1.3a.437.437 0 0 1 .309-.746h2.606a.437.437 0 0 1 .309.746l-1.3 1.3a.436.436 0 0 1-.618 0" style="fill:#a1d438"/>
                <path data-name="패스 12286" d="m22.716 21.485-1.3-1.3a.437.437 0 0 1 .309-.746h2.606a.437.437 0 0 1 .309.746l-1.3 1.3a.436.436 0 0 1-.618 0" style="fill:#a1d438"/>
                <path data-name="패스 12287" d="m22.716 18.187-1.3-1.3a.437.437 0 0 1 .309-.746h2.606a.437.437 0 0 1 .309.746l-1.3 1.3a.436.436 0 0 1-.618 0" style="fill:#a1d438"/>
                <path data-name="사각형 2724" transform="translate(22.513 15.64)" style="fill:#a1d438" d="M0 0h.978v44.734H0z"/>
                <path data-name="패스 12288" d="M20.463 30.52c-1.5-.608-2.5-.184-2.859.7s.066 1.886 1.562 2.494 3.854-.292 3.854-.292-1.062-2.291-2.557-2.9" style="fill:#d8a0f2"/>
                <path data-name="패스 12289" d="M25.339 30.52c1.5-.608 2.5-.184 2.859.7s-.066 1.886-1.562 2.494-3.854-.292-3.854-.292 1.062-2.291 2.557-2.9" style="fill:#d8a0f2"/>
                <path data-name="패스 12290" d="M20.856 27.039c-1.257-.511-2.1-.155-2.4.586s.056 1.586 1.313 2.1a5.5 5.5 0 0 0 3.241-.246 5.5 5.5 0 0 0-2.15-2.437" style="fill:#d8a0f2"/>
                <path data-name="패스 12291" d="M24.951 27.039c1.257-.511 2.1-.155 2.4.586s-.056 1.586-1.313 2.1a5.5 5.5 0 0 1-3.241-.246 5.5 5.5 0 0 1 2.15-2.437" style="fill:#d8a0f2"/>
                <path data-name="패스 12292" d="M21 23.816c-1.164-.473-1.946-.143-2.225.543S18.83 25.827 20 26.3a5.087 5.087 0 0 0 3-.228 5.087 5.087 0 0 0-2-2.257" style="fill:#d8a0f2"/>
                <path data-name="패스 12293" d="M24.8 23.816c1.164-.473 1.946-.143 2.225.543s-.051 1.468-1.216 1.941a5.087 5.087 0 0 1-3-.228 5.087 5.087 0 0 1 1.991-2.257" style="fill:#d8a0f2"/>
                <path data-name="패스 12294" d="M21.179 20.943c-1.056-.429-1.766-.13-2.019.492s.047 1.332 1.1 1.761a4.615 4.615 0 0 0 2.722-.207 4.615 4.615 0 0 0-1.806-2.047" style="fill:#d8a0f2"/>
                <path data-name="패스 12295" d="M24.623 20.943c1.056-.429 1.766-.13 2.019.492s-.047 1.332-1.1 1.761a4.615 4.615 0 0 1-2.722-.207 4.615 4.615 0 0 1 1.806-2.047" style="fill:#d8a0f2"/>
                <path data-name="패스 12296" d="M21.312 18.364c-.975-.4-1.63-.12-1.863.454s.043 1.229 1.018 1.626a4.259 4.259 0 0 0 2.513-.191 4.257 4.257 0 0 0-1.667-1.89" style="fill:#d8a0f2"/>
                <path data-name="패스 12297" d="M24.49 18.364c.975-.4 1.63-.12 1.863.454s-.043 1.229-1.018 1.626a4.259 4.259 0 0 1-2.513-.191 4.257 4.257 0 0 1 1.667-1.89" style="fill:#d8a0f2"/>
                <path data-name="패스 12298" d="M23.2 14.834c.554-.8 1.2-.924 1.676-.6s.593.975.039 1.779a3.955 3.955 0 0 1-2.044 1.133 3.957 3.957 0 0 1 .329-2.314" style="fill:#9a3bd1"/>
                <path data-name="패스 12299" d="M22.6 14.834c-.554-.8-1.2-.924-1.676-.6s-.593.975-.04 1.779a3.955 3.955 0 0 0 2.044 1.133 3.949 3.949 0 0 0-.329-2.314" style="fill:#9a3bd1"/>
                <path data-name="패스 12300" d="M21.427 15.4c-.9-.368-1.512-.111-1.729.421s.04 1.14.944 1.508a3.953 3.953 0 0 0 2.331-.177 3.954 3.954 0 0 0-1.546-1.752" style="fill:#d8a0f2"/>
                <path data-name="패스 12301" d="M24.375 15.4c.9-.368 1.512-.111 1.729.421s-.04 1.14-.944 1.508a3.953 3.953 0 0 1-2.331-.177 3.954 3.954 0 0 1 1.546-1.752" style="fill:#d8a0f2"/>
                <path data-name="패스 12302" d="M21.749 14.387c-.222-.693 0-1.13.411-1.261s.846.094 1.068.787a2.951 2.951 0 0 1-.263 1.723s-.993-.556-1.215-1.249" style="fill:#d8a0f2"/>
                <path data-name="패스 12303" d="M24.183 14.387c.222-.693 0-1.13-.411-1.261s-.846.094-1.068.787a2.951 2.951 0 0 0 .263 1.723s.993-.556 1.215-1.249" style="fill:#d8a0f2"/>
                <path data-name="패스 12304" d="m16.89 36.019 5.368 5.221a4.3 4.3 0 0 1 1.283 3.065l-5.5-5.5a3.947 3.947 0 0 1-1.156-2.79" style="fill:#a1d438"/>
                <path data-name="패스 12305" d="m31.5 38.675-7.7 7.553a4.3 4.3 0 0 0-1.283 3.065l7.828-7.828a3.946 3.946 0 0 0 1.155-2.79" style="fill:#a1d438"/>
                <path data-name="패스 12306" d="m11.67 43.9 10.347 10.2a4.3 4.3 0 0 1 1.283 3.07L12.826 46.695A3.945 3.945 0 0 1 11.67 43.9" style="fill:#a1d438"/>
                <path data-name="패스 12307" d="m42.143 44.143-9.157 9.01a4.3 4.3 0 0 0-1.286 3.065l9.285-9.285a3.946 3.946 0 0 0 1.155-2.79" style="fill:#6a8e32"/>
                <path data-name="패스 12308" d="m37.337 34.627-4.482 4.334a4.3 4.3 0 0 0-1.283 3.065l4.609-4.609a3.947 3.947 0 0 0 1.156-2.79" style="fill:#6a8e32"/>
                <path data-name="패스 12309" d="m23.379 38.679 7.71 7.562a4.3 4.3 0 0 1 1.283 3.065l-7.837-7.837a3.947 3.947 0 0 1-1.156-2.79" style="fill:#6a8e32"/>
                <path data-name="패스 12310" d="M32.414 17.755c.6-.867 1.3-1 1.807-.644s.639 1.051.043 1.918a4.26 4.26 0 0 1-2.2 1.221 4.263 4.263 0 0 1 .355-2.5" style="fill:#9a3bd1"/>
                <path data-name="패스 12311" d="M31.767 17.755c-.6-.867-1.3-1-1.807-.644s-.639 1.051-.043 1.918a4.26 4.26 0 0 0 2.2 1.221 4.263 4.263 0 0 0-.355-2.5" style="fill:#9a3bd1"/>
                <path data-name="패스 12312" d="M32.441 20.284c.647-.939 1.4-1.079 1.958-.7s.693 1.139.046 2.078a4.612 4.612 0 0 1-2.388 1.323 4.615 4.615 0 0 1 .384-2.7" style="fill:#9a3bd1"/>
                <path data-name="패스 12313" d="M31.739 20.284c-.647-.939-1.4-1.079-1.958-.7s-.693 1.139-.046 2.078a4.612 4.612 0 0 0 2.388 1.323 4.615 4.615 0 0 0-.384-2.7" style="fill:#9a3bd1"/>
                <path data-name="패스 12314" d="M32.476 23.09c.713-1.035 1.548-1.189 2.158-.769s.764 1.255.051 2.29a5.093 5.093 0 0 1-2.632 1.458 5.094 5.094 0 0 1 .424-2.979" style="fill:#9a3bd1"/>
                <path data-name="패스 12315" d="M31.7 23.09c-.713-1.035-1.548-1.189-2.158-.769s-.764 1.255-.051 2.29a5.093 5.093 0 0 0 2.632 1.458 5.094 5.094 0 0 0-.423-2.979" style="fill:#9a3bd1"/>
                <path data-name="패스 12316" d="M32.507 26.254c.77-1.118 1.672-1.284 2.33-.831s.825 1.355.055 2.473a5.5 5.5 0 0 1-2.843 1.575 5.5 5.5 0 0 1 .458-3.218" style="fill:#9a3bd1"/>
                <path data-name="패스 12317" d="M31.672 26.254c-.77-1.118-1.672-1.284-2.33-.831s-.825 1.355-.055 2.473a5.5 5.5 0 0 0 2.843 1.575 5.5 5.5 0 0 0-.458-3.218" style="fill:#9a3bd1"/>
                <path data-name="패스 12318" d="m31.906 35.249-1.3-1.3a.437.437 0 0 1 .309-.746h2.606a.437.437 0 0 1 .309.746l-1.3 1.3a.436.436 0 0 1-.618 0" style="fill:#a1d438"/>
                <path data-name="패스 12319" d="M32.586 29.587c.916-1.33 1.988-1.528 2.772-.988s.981 1.612.065 2.942-3.381 1.873-3.381 1.873-.371-2.5.544-3.827" style="fill:#9a3bd1"/>
                <path data-name="패스 12320" d="M31.592 29.587c-.916-1.33-1.988-1.528-2.772-.988s-.981 1.612-.065 2.942 3.386 1.873 3.386 1.873.371-2.5-.544-3.827" style="fill:#9a3bd1"/>
                <path data-name="패스 12321" d="m31.906 30.8-1.3-1.3a.437.437 0 0 1 .309-.746h2.606a.437.437 0 0 1 .309.746l-1.3 1.3a.436.436 0 0 1-.618 0" style="fill:#a1d438"/>
                <path data-name="패스 12322" d="m31.906 27.424-1.3-1.3a.437.437 0 0 1 .309-.746h2.606a.437.437 0 0 1 .309.746l-1.3 1.3a.436.436 0 0 1-.618 0" style="fill:#a1d438"/>
                <path data-name="패스 12323" d="m31.906 24.093-1.3-1.3a.437.437 0 0 1 .309-.746h2.606a.437.437 0 0 1 .309.746l-1.3 1.3a.436.436 0 0 1-.618 0" style="fill:#a1d438"/>
                <path data-name="패스 12324" d="m31.906 21.485-1.3-1.3a.437.437 0 0 1 .309-.746h2.606a.437.437 0 0 1 .309.746l-1.3 1.3a.436.436 0 0 1-.618 0" style="fill:#a1d438"/>
                <path data-name="패스 12325" d="m31.906 18.187-1.3-1.3a.437.437 0 0 1 .309-.746h2.606a.437.437 0 0 1 .309.746l-1.3 1.3a.436.436 0 0 1-.618 0" style="fill:#a1d438"/>
                <path data-name="사각형 2725" transform="translate(31.703 15.64)" style="fill:#a1d438" d="M0 0h.978v44.734H0z"/>
                <path data-name="패스 12326" d="M29.653 30.52c-1.5-.608-2.5-.184-2.859.7s.066 1.886 1.562 2.494 3.854-.292 3.854-.292-1.062-2.291-2.557-2.9" style="fill:#d8a0f2"/>
                <path data-name="패스 12327" d="M34.529 30.52c1.5-.608 2.5-.184 2.859.7s-.066 1.886-1.562 2.494-3.854-.292-3.854-.292 1.062-2.291 2.557-2.9" style="fill:#d8a0f2"/>
                <path data-name="패스 12328" d="M30.042 27.039c-1.257-.511-2.1-.155-2.4.586s.056 1.586 1.313 2.1a5.5 5.5 0 0 0 3.241-.246 5.5 5.5 0 0 0-2.15-2.437" style="fill:#d8a0f2"/>
                <path data-name="패스 12329" d="M34.141 27.039c1.257-.511 2.1-.155 2.4.586s-.056 1.586-1.313 2.1a5.5 5.5 0 0 1-3.241-.246 5.5 5.5 0 0 1 2.15-2.437" style="fill:#d8a0f2"/>
                <path data-name="패스 12330" d="M30.194 23.816c-1.164-.473-1.946-.143-2.225.543s.051 1.468 1.216 1.941a5.087 5.087 0 0 0 3-.228 5.087 5.087 0 0 0-1.991-2.257" style="fill:#d8a0f2"/>
                <path data-name="패스 12331" d="M33.99 23.816c1.164-.473 1.947-.143 2.225.543S36.164 25.827 35 26.3a5.087 5.087 0 0 1-3-.228 5.087 5.087 0 0 1 1.991-2.257" style="fill:#d8a0f2"/>
                <path data-name="패스 12332" d="M30.37 20.943c-1.056-.429-1.766-.13-2.019.492s.047 1.332 1.1 1.761a4.615 4.615 0 0 0 2.722-.207 4.615 4.615 0 0 0-1.806-2.047" style="fill:#d8a0f2"/>
                <path data-name="패스 12333" d="M33.813 20.943c1.056-.429 1.766-.13 2.019.492s-.047 1.332-1.1 1.761a4.615 4.615 0 0 1-2.722-.207 4.615 4.615 0 0 1 1.806-2.047" style="fill:#d8a0f2"/>
                <path data-name="패스 12334" d="M30.5 18.364c-.975-.4-1.63-.12-1.863.454s.043 1.229 1.018 1.626a4.259 4.259 0 0 0 2.513-.191 4.257 4.257 0 0 0-1.667-1.89" style="fill:#d8a0f2"/>
                <path data-name="패스 12335" d="M33.681 18.364c.975-.4 1.63-.12 1.864.454s-.043 1.229-1.018 1.626a4.259 4.259 0 0 1-2.513-.191 4.257 4.257 0 0 1 1.667-1.89" style="fill:#d8a0f2"/>
                <path data-name="패스 12336" d="M32.391 14.834c.554-.8 1.2-.924 1.676-.6s.593.975.039 1.779a3.955 3.955 0 0 1-2.044 1.133 3.957 3.957 0 0 1 .329-2.314" style="fill:#9a3bd1"/>
                <path data-name="패스 12337" d="M31.79 14.834c-.554-.8-1.2-.924-1.676-.6s-.593.975-.039 1.779a3.955 3.955 0 0 0 2.044 1.133 3.957 3.957 0 0 0-.329-2.314" style="fill:#9a3bd1"/>
                <path data-name="패스 12338" d="M30.618 15.4c-.9-.368-1.512-.111-1.729.421s.04 1.14.944 1.508a3.953 3.953 0 0 0 2.331-.177 3.954 3.954 0 0 0-1.546-1.752" style="fill:#d8a0f2"/>
                <path data-name="패스 12339" d="M33.566 15.4c.9-.368 1.512-.111 1.729.421s-.04 1.14-.944 1.508a3.953 3.953 0 0 1-2.331-.177 3.954 3.954 0 0 1 1.546-1.752" style="fill:#d8a0f2"/>
                <path data-name="패스 12340" d="M30.939 14.387c-.222-.693 0-1.13.411-1.261s.846.094 1.068.787a2.951 2.951 0 0 1-.263 1.723s-.993-.556-1.215-1.249" style="fill:#d8a0f2"/>
                <path data-name="패스 12341" d="M33.373 14.387c.222-.693 0-1.13-.411-1.261s-.846.094-1.068.787a2.951 2.951 0 0 0 .263 1.723s.993-.556 1.215-1.249" style="fill:#d8a0f2"/>
                <path data-name="패스 12342" d="m26.081 36.019 5.368 5.221a4.3 4.3 0 0 1 1.283 3.065l-5.5-5.5a3.947 3.947 0 0 1-1.156-2.79" style="fill:#a1d438"/>
                <path data-name="패스 12343" d="m40.693 38.675-7.7 7.553a4.3 4.3 0 0 0-1.283 3.065l7.828-7.828a3.946 3.946 0 0 0 1.155-2.79" style="fill:#a1d438"/>
                <path data-name="패스 12344" d="m20.86 43.9 10.347 10.2a4.3 4.3 0 0 1 1.283 3.07L22.016 46.7a3.945 3.945 0 0 1-1.156-2.79" style="fill:#a1d438"/>
                <path data-name="패스 12345" d="m53.255 44.143-9.155 9.01a4.3 4.3 0 0 0-1.283 3.065l9.283-9.285a3.946 3.946 0 0 0 1.155-2.79" style="fill:#6a8e32"/>
                <path data-name="패스 12346" d="m48.449 34.627-4.482 4.334a4.3 4.3 0 0 0-1.283 3.065l4.609-4.609a3.947 3.947 0 0 0 1.156-2.79" style="fill:#6a8e32"/>
                <path data-name="패스 12347" d="m34.491 38.679 7.71 7.562a4.3 4.3 0 0 1 1.283 3.065l-7.837-7.837a3.947 3.947 0 0 1-1.156-2.79" style="fill:#6a8e32"/>
                <path data-name="패스 12348" d="M43.53 17.755c.6-.867 1.3-1 1.807-.644s.64 1.051.043 1.918a4.26 4.26 0 0 1-2.2 1.221 4.263 4.263 0 0 1 .355-2.5" style="fill:#9a3bd1"/>
                <path data-name="패스 12349" d="M42.879 17.755c-.6-.867-1.3-1-1.807-.644s-.64 1.051-.043 1.918a4.26 4.26 0 0 0 2.2 1.221 4.263 4.263 0 0 0-.355-2.5" style="fill:#9a3bd1"/>
                <path data-name="패스 12350" d="M43.557 20.284c.647-.939 1.4-1.079 1.958-.7s.693 1.139.046 2.078a4.612 4.612 0 0 1-2.388 1.323 4.615 4.615 0 0 1 .384-2.7" style="fill:#9a3bd1"/>
                <path data-name="패스 12351" d="M42.851 20.284c-.647-.939-1.4-1.079-1.958-.7s-.693 1.139-.046 2.078a4.612 4.612 0 0 0 2.388 1.323 4.615 4.615 0 0 0-.384-2.7" style="fill:#9a3bd1"/>
                <path data-name="패스 12352" d="M43.592 23.09c.713-1.035 1.548-1.189 2.158-.769s.764 1.255.051 2.29a5.093 5.093 0 0 1-2.632 1.458 5.094 5.094 0 0 1 .424-2.979" style="fill:#9a3bd1"/>
                <path data-name="패스 12353" d="M42.815 23.09c-.713-1.035-1.548-1.189-2.158-.769s-.764 1.255-.051 2.29a5.093 5.093 0 0 0 2.632 1.458 5.094 5.094 0 0 0-.424-2.979" style="fill:#9a3bd1"/>
                <path data-name="패스 12354" d="M43.623 26.254c.77-1.118 1.672-1.284 2.33-.831s.825 1.355.055 2.473a5.5 5.5 0 0 1-2.843 1.575 5.5 5.5 0 0 1 .458-3.218" style="fill:#9a3bd1"/>
                <path data-name="패스 12355" d="M42.782 26.254c-.77-1.118-1.672-1.284-2.33-.831s-.825 1.355-.055 2.473a5.5 5.5 0 0 0 2.843 1.575 5.5 5.5 0 0 0-.458-3.218" style="fill:#9a3bd1"/>
                <path data-name="패스 12356" d="m43.018 35.249-1.3-1.3a.437.437 0 0 1 .309-.746h2.606a.437.437 0 0 1 .309.746l-1.3 1.3a.436.436 0 0 1-.618 0" style="fill:#a1d438"/>
                <path data-name="패스 12357" d="M43.7 29.587c.916-1.33 1.988-1.528 2.772-.988s.981 1.612.065 2.942-3.381 1.873-3.381 1.873-.371-2.5.544-3.827" style="fill:#9a3bd1"/>
                <path data-name="패스 12358" d="M42.7 29.587c-.916-1.33-1.988-1.528-2.772-.988s-.981 1.612-.065 2.942 3.381 1.873 3.381 1.873.371-2.5-.544-3.827" style="fill:#9a3bd1"/>
                <path data-name="패스 12359" d="m43.018 30.8-1.3-1.3a.437.437 0 0 1 .309-.746h2.606a.437.437 0 0 1 .309.746l-1.3 1.3a.436.436 0 0 1-.618 0" style="fill:#a1d438"/>
                <path data-name="패스 12360" d="m43.018 27.424-1.3-1.3a.437.437 0 0 1 .309-.746h2.606a.437.437 0 0 1 .309.746l-1.3 1.3a.436.436 0 0 1-.618 0" style="fill:#a1d438"/>
                <path data-name="패스 12361" d="m43.018 24.093-1.3-1.3a.437.437 0 0 1 .309-.746h2.606a.437.437 0 0 1 .309.746l-1.3 1.3a.436.436 0 0 1-.618 0" style="fill:#a1d438"/>
                <path data-name="패스 12362" d="m43.018 21.485-1.3-1.3a.437.437 0 0 1 .309-.746h2.606a.437.437 0 0 1 .309.746l-1.3 1.3a.436.436 0 0 1-.618 0" style="fill:#a1d438"/>
                <path data-name="패스 12363" d="m43.018 18.187-1.3-1.3a.437.437 0 0 1 .309-.746h2.606a.437.437 0 0 1 .309.746l-1.3 1.3a.436.436 0 0 1-.618 0" style="fill:#a1d438"/>
                <path data-name="사각형 2726" transform="translate(42.815 15.64)" style="fill:#a1d438" d="M0 0h.978v44.734H0z"/>
                <path data-name="패스 12364" d="M40.765 30.52c-1.5-.608-2.5-.184-2.859.7s.066 1.886 1.562 2.494 3.854-.292 3.854-.292-1.062-2.291-2.557-2.9" style="fill:#d8a0f2"/>
                <path data-name="패스 12365" d="M45.642 30.52c1.5-.608 2.5-.184 2.859.7s-.066 1.886-1.562 2.494-3.854-.292-3.854-.292 1.062-2.291 2.557-2.9" style="fill:#d8a0f2"/>
                <path data-name="패스 12366" d="M41.154 27.039c-1.257-.511-2.1-.155-2.4.586s.056 1.586 1.313 2.1a5.5 5.5 0 0 0 3.241-.246 5.5 5.5 0 0 0-2.15-2.437" style="fill:#d8a0f2"/>
                <path data-name="패스 12367" d="M45.252 27.039c1.257-.511 2.1-.155 2.4.586s-.056 1.586-1.313 2.1a5.5 5.5 0 0 1-3.241-.246 5.5 5.5 0 0 1 2.15-2.437" style="fill:#d8a0f2"/>
                <path data-name="패스 12368" d="M41.306 23.816c-1.164-.473-1.946-.143-2.225.543s.051 1.468 1.216 1.941a5.087 5.087 0 0 0 3-.228 5.087 5.087 0 0 0-1.991-2.257" style="fill:#d8a0f2"/>
                <path data-name="패스 12369" d="M45.1 23.816c1.164-.473 1.947-.143 2.225.543s-.051 1.468-1.216 1.941a5.087 5.087 0 0 1-3-.228 5.087 5.087 0 0 1 1.991-2.257" style="fill:#d8a0f2"/>
                <path data-name="패스 12370" d="M41.482 20.943c-1.056-.429-1.766-.13-2.019.492s.047 1.332 1.1 1.761a4.615 4.615 0 0 0 2.722-.207 4.615 4.615 0 0 0-1.806-2.047" style="fill:#d8a0f2"/>
                <path data-name="패스 12371" d="M44.926 20.943c1.056-.429 1.766-.13 2.019.492s-.047 1.332-1.1 1.761a4.615 4.615 0 0 1-2.722-.207 4.615 4.615 0 0 1 1.806-2.047" style="fill:#d8a0f2"/>
                <path data-name="패스 12372" d="M41.615 18.364c-.975-.4-1.63-.12-1.863.454s.043 1.229 1.018 1.626a4.259 4.259 0 0 0 2.513-.191 4.257 4.257 0 0 0-1.667-1.89" style="fill:#d8a0f2"/>
                <path data-name="패스 12373" d="M44.793 18.364c.975-.4 1.63-.12 1.864.454s-.043 1.229-1.018 1.626a4.259 4.259 0 0 1-2.513-.191 4.257 4.257 0 0 1 1.667-1.89" style="fill:#d8a0f2"/>
                <path data-name="패스 12374" d="M43.506 14.834c.554-.8 1.2-.924 1.676-.6s.593.975.039 1.779a3.955 3.955 0 0 1-2.044 1.133 3.957 3.957 0 0 1 .329-2.314" style="fill:#9a3bd1"/>
                <path data-name="패스 12375" d="M42.9 14.834c-.554-.8-1.2-.924-1.676-.6s-.593.975-.039 1.779a3.955 3.955 0 0 0 2.044 1.133 3.957 3.957 0 0 0-.329-2.314" style="fill:#9a3bd1"/>
                <path data-name="패스 12376" d="M41.73 15.4c-.9-.368-1.512-.111-1.729.421s.04 1.14.944 1.508a3.953 3.953 0 0 0 2.331-.177A3.954 3.954 0 0 0 41.73 15.4" style="fill:#d8a0f2"/>
                <path data-name="패스 12377" d="M44.678 15.4c.9-.368 1.512-.111 1.729.421s-.04 1.14-.944 1.508a3.953 3.953 0 0 1-2.331-.177 3.954 3.954 0 0 1 1.546-1.752" style="fill:#d8a0f2"/>
                <path data-name="패스 12378" d="M42.051 14.387c-.222-.693 0-1.13.411-1.261s.846.094 1.068.787a2.951 2.951 0 0 1-.263 1.723s-.995-.559-1.216-1.249" style="fill:#d8a0f2"/>
                <path data-name="패스 12379" d="M44.485 14.387c.222-.693 0-1.13-.411-1.261s-.846.094-1.068.787a2.951 2.951 0 0 0 .263 1.723s.993-.556 1.215-1.249" style="fill:#d8a0f2"/>
                <path data-name="패스 12380" d="m37.193 36.019 5.368 5.221a4.3 4.3 0 0 1 1.283 3.065l-5.5-5.5a3.947 3.947 0 0 1-1.156-2.79" style="fill:#a1d438"/>
                <path data-name="패스 12381" d="m51.805 38.675-7.7 7.553a4.3 4.3 0 0 0-1.283 3.065l7.828-7.828a3.946 3.946 0 0 0 1.155-2.79" style="fill:#a1d438"/>
                <path data-name="패스 12382" d="m31.972 43.9 10.347 10.2a4.3 4.3 0 0 1 1.281 3.07L33.128 46.7a3.945 3.945 0 0 1-1.156-2.79" style="fill:#a1d438"/>
                <path data-name="패스 12383" d="m63.441 44.143-9.157 9.01A4.3 4.3 0 0 0 53 56.218l9.285-9.285a3.946 3.946 0 0 0 1.155-2.79" style="fill:#6a8e32"/>
                <path data-name="패스 12384" d="m58.635 34.627-4.482 4.334a4.3 4.3 0 0 0-1.282 3.065l4.609-4.609a3.947 3.947 0 0 0 1.156-2.79" style="fill:#6a8e32"/>
                <path data-name="패스 12385" d="m44.677 38.679 7.71 7.562a4.3 4.3 0 0 1 1.283 3.065l-7.839-7.837a3.949 3.949 0 0 1-1.154-2.79" style="fill:#6a8e32"/>
                <path data-name="패스 12386" d="M53.716 17.755c.6-.867 1.3-1 1.807-.644s.639 1.051.043 1.918a4.26 4.26 0 0 1-2.2 1.221 4.263 4.263 0 0 1 .355-2.5" style="fill:#9a3bd1"/>
                <path data-name="패스 12387" d="M53.065 17.755c-.6-.867-1.3-1-1.807-.644s-.64 1.051-.043 1.918a4.26 4.26 0 0 0 2.2 1.221 4.263 4.263 0 0 0-.355-2.5" style="fill:#9a3bd1"/>
                <path data-name="패스 12388" d="M53.743 20.284c.647-.939 1.4-1.079 1.958-.7s.693 1.139.046 2.078a4.612 4.612 0 0 1-2.388 1.323 4.615 4.615 0 0 1 .384-2.7" style="fill:#9a3bd1"/>
                <path data-name="패스 12389" d="M53.037 20.284c-.647-.939-1.4-1.079-1.958-.7s-.693 1.139-.046 2.078a4.612 4.612 0 0 0 2.388 1.323 4.615 4.615 0 0 0-.384-2.7" style="fill:#9a3bd1"/>
                <path data-name="패스 12390" d="M53.779 23.09c.713-1.035 1.548-1.189 2.157-.769s.764 1.255.051 2.29a5.1 5.1 0 0 1-2.633 1.458 5.094 5.094 0 0 1 .424-2.979" style="fill:#9a3bd1"/>
                <path data-name="패스 12391" d="M53 23.09c-.713-1.035-1.548-1.189-2.158-.769s-.764 1.255-.051 2.29a5.093 5.093 0 0 0 2.632 1.458A5.094 5.094 0 0 0 53 23.09" style="fill:#9a3bd1"/>
                <path data-name="패스 12392" d="M53.81 26.254c.77-1.118 1.671-1.284 2.33-.831s.825 1.355.055 2.473a5.5 5.5 0 0 1-2.843 1.575 5.5 5.5 0 0 1 .458-3.218" style="fill:#9a3bd1"/>
                <path data-name="패스 12393" d="M52.97 26.254c-.77-1.118-1.672-1.284-2.33-.831s-.825 1.355-.055 2.473a5.5 5.5 0 0 0 2.843 1.575 5.5 5.5 0 0 0-.458-3.218" style="fill:#9a3bd1"/>
                <path data-name="패스 12394" d="m53.2 35.249-1.3-1.3a.437.437 0 0 1 .309-.746h2.606a.437.437 0 0 1 .309.746l-1.3 1.3a.436.436 0 0 1-.618 0" style="fill:#a1d438"/>
                <path data-name="패스 12395" d="M53.889 29.587c.916-1.33 1.988-1.528 2.772-.988s.981 1.612.065 2.942-3.381 1.873-3.381 1.873-.371-2.5.544-3.827" style="fill:#9a3bd1"/>
                <path data-name="패스 12396" d="M52.89 29.587c-.916-1.33-1.988-1.528-2.772-.988s-.981 1.612-.065 2.942 3.381 1.873 3.381 1.873.371-2.5-.544-3.827" style="fill:#9a3bd1"/>
                <path data-name="패스 12397" d="m53.2 30.8-1.3-1.3a.437.437 0 0 1 .309-.746h2.606a.437.437 0 0 1 .309.746l-1.3 1.3a.436.436 0 0 1-.618 0" style="fill:#a1d438"/>
                <path data-name="패스 12398" d="m53.2 27.424-1.3-1.3a.437.437 0 0 1 .309-.746h2.606a.437.437 0 0 1 .309.746l-1.3 1.3a.436.436 0 0 1-.618 0" style="fill:#a1d438"/>
                <path data-name="패스 12399" d="m53.2 24.093-1.3-1.3a.437.437 0 0 1 .309-.746h2.606a.437.437 0 0 1 .309.746l-1.3 1.3a.436.436 0 0 1-.618 0" style="fill:#a1d438"/>
                <path data-name="패스 12400" d="m53.2 21.485-1.3-1.3a.437.437 0 0 1 .309-.746h2.606a.437.437 0 0 1 .309.746l-1.3 1.3a.436.436 0 0 1-.618 0" style="fill:#a1d438"/>
                <path data-name="패스 12401" d="m53.2 18.187-1.3-1.3a.437.437 0 0 1 .309-.746h2.606a.437.437 0 0 1 .309.746l-1.3 1.3a.436.436 0 0 1-.618 0" style="fill:#a1d438"/>
                <path data-name="사각형 2727" transform="translate(53.001 15.64)" style="fill:#a1d438" d="M0 0h.978v44.734H0z"/>
                <path data-name="패스 12402" d="M50.952 30.52c-1.5-.608-2.5-.184-2.859.7s.066 1.886 1.562 2.494 3.854-.292 3.854-.292-1.062-2.291-2.557-2.9" style="fill:#d8a0f2"/>
                <path data-name="패스 12403" d="M55.827 30.52c1.5-.608 2.5-.184 2.859.7s-.066 1.886-1.562 2.494-3.854-.292-3.854-.292 1.062-2.291 2.557-2.9" style="fill:#d8a0f2"/>
                <path data-name="패스 12404" d="M51.34 27.039c-1.257-.511-2.1-.155-2.4.586s.056 1.586 1.313 2.1a5.5 5.5 0 0 0 3.241-.246 5.5 5.5 0 0 0-2.15-2.437" style="fill:#d8a0f2"/>
                <path data-name="패스 12405" d="M55.435 27.039c1.257-.511 2.1-.155 2.4.586s-.056 1.586-1.313 2.1a5.5 5.5 0 0 1-3.241-.246 5.5 5.5 0 0 1 2.15-2.437" style="fill:#d8a0f2"/>
                <path data-name="패스 12406" d="M51.495 23.816c-1.164-.473-1.947-.143-2.225.543s.051 1.468 1.216 1.941a5.087 5.087 0 0 0 3-.228 5.087 5.087 0 0 0-1.991-2.257" style="fill:#d8a0f2"/>
                <path data-name="패스 12407" d="M55.288 23.816c1.164-.473 1.947-.143 2.225.543s-.051 1.468-1.213 1.941a5.087 5.087 0 0 1-3-.228 5.087 5.087 0 0 1 1.991-2.257" style="fill:#d8a0f2"/>
                <path data-name="패스 12408" d="M51.668 20.943c-1.056-.429-1.766-.13-2.019.492s.047 1.332 1.1 1.761a4.615 4.615 0 0 0 2.722-.207 4.615 4.615 0 0 0-1.806-2.047" style="fill:#d8a0f2"/>
                <path data-name="패스 12409" d="M55.111 20.943c1.056-.429 1.766-.13 2.019.492s-.047 1.332-1.1 1.761a4.615 4.615 0 0 1-2.722-.207 4.615 4.615 0 0 1 1.806-2.047" style="fill:#d8a0f2"/>
                <path data-name="패스 12410" d="M51.8 18.364c-.975-.4-1.63-.12-1.863.454s.043 1.229 1.018 1.626a4.264 4.264 0 0 0 2.512-.191 4.257 4.257 0 0 0-1.667-1.89" style="fill:#d8a0f2"/>
                <path data-name="패스 12411" d="M54.979 18.364c.975-.4 1.63-.12 1.863.454s-.043 1.229-1.018 1.626a4.259 4.259 0 0 1-2.513-.191 4.257 4.257 0 0 1 1.667-1.89" style="fill:#d8a0f2"/>
                <path data-name="패스 12412" d="M53.692 14.834c.554-.8 1.2-.924 1.676-.6s.593.975.039 1.779a3.955 3.955 0 0 1-2.044 1.133 3.957 3.957 0 0 1 .329-2.314" style="fill:#9a3bd1"/>
                <path data-name="패스 12413" d="M53.088 14.834c-.554-.8-1.2-.924-1.676-.6s-.593.975-.039 1.779a3.957 3.957 0 0 0 2.045 1.133 3.957 3.957 0 0 0-.329-2.314" style="fill:#9a3bd1"/>
                <path data-name="패스 12414" d="M51.916 15.4c-.9-.368-1.512-.111-1.729.421s.04 1.14.944 1.508a3.953 3.953 0 0 0 2.331-.177 3.954 3.954 0 0 0-1.546-1.752" style="fill:#d8a0f2"/>
                <path data-name="패스 12415" d="M54.864 15.4c.9-.368 1.512-.111 1.729.421s-.04 1.14-.944 1.508a3.953 3.953 0 0 1-2.331-.177 3.954 3.954 0 0 1 1.546-1.752" style="fill:#d8a0f2"/>
                <path data-name="패스 12416" d="M52.238 14.387c-.222-.693 0-1.13.411-1.261s.845.094 1.067.787a2.951 2.951 0 0 1-.263 1.723s-.993-.556-1.215-1.249" style="fill:#d8a0f2"/>
                <path data-name="패스 12417" d="M54.671 14.387c.222-.693 0-1.13-.411-1.261s-.846.094-1.068.787a2.951 2.951 0 0 0 .263 1.723s.993-.556 1.215-1.249" style="fill:#d8a0f2"/>
                <path data-name="패스 12418" d="m47.379 36.019 5.368 5.221a4.3 4.3 0 0 1 1.283 3.065l-5.5-5.5a3.947 3.947 0 0 1-1.156-2.79" style="fill:#a1d438"/>
                <path data-name="패스 12419" d="m61.991 38.675-7.7 7.553a4.3 4.3 0 0 0-1.283 3.065l7.828-7.828a3.946 3.946 0 0 0 1.155-2.79" style="fill:#a1d438"/>
                <path data-name="패스 12420" d="m42.158 43.9 10.347 10.2a4.3 4.3 0 0 1 1.283 3.065L43.314 46.7a3.945 3.945 0 0 1-1.156-2.79" style="fill:#a1d438"/>
                <path data-name="패스 12421" d="m72.632 44.143-9.157 9.01a4.3 4.3 0 0 0-1.283 3.065l9.285-9.285a3.946 3.946 0 0 0 1.155-2.79" style="fill:#6a8e32"/>
                <path data-name="패스 12422" d="m67.826 34.627-4.482 4.334a4.3 4.3 0 0 0-1.283 3.065l4.609-4.609a3.945 3.945 0 0 0 1.156-2.79" style="fill:#6a8e32"/>
                <path data-name="패스 12423" d="m53.867 38.679 7.71 7.562a4.3 4.3 0 0 1 1.283 3.065l-7.837-7.837a3.947 3.947 0 0 1-1.156-2.79" style="fill:#6a8e32"/>
                <path data-name="패스 12424" d="M62.906 17.755c.6-.867 1.3-1 1.807-.644s.639 1.051.043 1.918a4.26 4.26 0 0 1-2.2 1.221 4.263 4.263 0 0 1 .355-2.5" style="fill:#9a3bd1"/>
                <path data-name="패스 12425" d="M62.255 17.755c-.6-.867-1.3-1-1.807-.644s-.639 1.051-.043 1.918a4.26 4.26 0 0 0 2.2 1.221 4.263 4.263 0 0 0-.355-2.5" style="fill:#9a3bd1"/>
                <path data-name="패스 12426" d="M62.934 20.284c.647-.939 1.4-1.079 1.958-.7s.693 1.139.046 2.078a4.612 4.612 0 0 1-2.388 1.323 4.615 4.615 0 0 1 .384-2.7" style="fill:#9a3bd1"/>
                <path data-name="패스 12427" d="M62.227 20.284c-.647-.939-1.4-1.079-1.958-.7s-.693 1.139-.046 2.078a4.612 4.612 0 0 0 2.388 1.323 4.615 4.615 0 0 0-.384-2.7" style="fill:#9a3bd1"/>
                <path data-name="패스 12428" d="M62.97 23.09c.713-1.035 1.548-1.189 2.158-.769s.764 1.255.051 2.29a5.093 5.093 0 0 1-2.632 1.458 5.094 5.094 0 0 1 .424-2.979" style="fill:#9a3bd1"/>
                <path data-name="패스 12429" d="M62.191 23.09c-.713-1.035-1.548-1.189-2.158-.769s-.764 1.255-.051 2.29a5.093 5.093 0 0 0 2.632 1.458 5.094 5.094 0 0 0-.424-2.979" style="fill:#9a3bd1"/>
                <path data-name="패스 12430" d="M63 26.254c.77-1.118 1.672-1.284 2.33-.831s.825 1.355.055 2.473a5.5 5.5 0 0 1-2.843 1.575A5.5 5.5 0 0 1 63 26.253" style="fill:#9a3bd1"/>
                <path data-name="패스 12431" d="M62.16 26.254c-.77-1.118-1.672-1.284-2.33-.831s-.825 1.355-.055 2.473a5.5 5.5 0 0 0 2.843 1.575 5.5 5.5 0 0 0-.458-3.218" style="fill:#9a3bd1"/>
                <path data-name="패스 12432" d="m62.4 35.249-1.3-1.3a.437.437 0 0 1 .3-.749h2.61a.437.437 0 0 1 .309.746l-1.3 1.3a.436.436 0 0 1-.618 0" style="fill:#a1d438"/>
                <path data-name="패스 12433" d="M63.08 29.587c.916-1.33 1.988-1.528 2.772-.988s.981 1.612.065 2.942-3.381 1.873-3.381 1.873-.371-2.5.544-3.827" style="fill:#9a3bd1"/>
                <path data-name="패스 12434" d="M62.077 29.587c-.916-1.33-1.988-1.528-2.772-.988s-.981 1.612-.065 2.942 3.381 1.873 3.381 1.873.371-2.5-.544-3.827" style="fill:#9a3bd1"/>
                <path data-name="패스 12435" d="m62.4 30.8-1.3-1.3a.437.437 0 0 1 .309-.746h2.601a.437.437 0 0 1 .309.746l-1.3 1.3a.436.436 0 0 1-.618 0" style="fill:#a1d438"/>
                <path data-name="패스 12436" d="m62.4 27.424-1.3-1.3a.437.437 0 0 1 .309-.746h2.601a.437.437 0 0 1 .309.746l-1.3 1.3a.436.436 0 0 1-.618 0" style="fill:#a1d438"/>
                <path data-name="패스 12437" d="m62.4 24.093-1.3-1.3a.437.437 0 0 1 .309-.746h2.601a.437.437 0 0 1 .309.746l-1.3 1.3a.436.436 0 0 1-.618 0" style="fill:#a1d438"/>
                <path data-name="패스 12438" d="m62.4 21.485-1.3-1.3a.437.437 0 0 1 .309-.746h2.601a.437.437 0 0 1 .309.746l-1.3 1.3a.436.436 0 0 1-.618 0" style="fill:#a1d438"/>
                <path data-name="패스 12439" d="m62.4 18.187-1.3-1.3a.437.437 0 0 1 .309-.746h2.601a.437.437 0 0 1 .309.746l-1.3 1.3a.436.436 0 0 1-.618 0" style="fill:#a1d438"/>
                <path data-name="사각형 2728" transform="translate(62.192 15.64)" style="fill:#a1d438" d="M0 0h.978v44.734H0z"/>
                <path data-name="패스 12440" d="M60.142 30.52c-1.5-.608-2.5-.184-2.859.7s.066 1.886 1.562 2.494 3.854-.292 3.854-.292-1.062-2.291-2.557-2.9" style="fill:#d8a0f2"/>
                <path data-name="패스 12441" d="M65.022 30.52c1.5-.608 2.5-.184 2.859.7s-.066 1.886-1.562 2.494-3.854-.292-3.854-.292 1.062-2.291 2.557-2.9" style="fill:#d8a0f2"/>
                <path data-name="패스 12442" d="M60.53 27.039c-1.257-.511-2.1-.155-2.4.586s.056 1.586 1.313 2.1a5.5 5.5 0 0 0 3.241-.246 5.5 5.5 0 0 0-2.15-2.437" style="fill:#d8a0f2"/>
                <path data-name="패스 12443" d="M64.63 27.039c1.257-.511 2.1-.155 2.4.586s-.056 1.586-1.313 2.1a5.5 5.5 0 0 1-3.241-.246 5.5 5.5 0 0 1 2.15-2.437" style="fill:#d8a0f2"/>
                <path data-name="패스 12444" d="M60.683 23.816c-1.164-.473-1.947-.143-2.225.543s.051 1.468 1.216 1.941a5.087 5.087 0 0 0 3-.228 5.087 5.087 0 0 0-1.991-2.257" style="fill:#d8a0f2"/>
                <path data-name="패스 12445" d="M64.478 23.816c1.164-.473 1.946-.143 2.225.543s-.051 1.468-1.216 1.941a5.087 5.087 0 0 1-3-.228 5.087 5.087 0 0 1 1.991-2.257" style="fill:#d8a0f2"/>
                <path data-name="패스 12446" d="M60.858 20.943c-1.056-.429-1.766-.13-2.019.492s.047 1.332 1.1 1.761a4.615 4.615 0 0 0 2.722-.207 4.615 4.615 0 0 0-1.806-2.047" style="fill:#d8a0f2"/>
                <path data-name="패스 12447" d="M64.3 20.943c1.056-.429 1.766-.13 2.019.492s-.047 1.332-1.1 1.761a4.615 4.615 0 0 1-2.722-.207 4.615 4.615 0 0 1 1.806-2.047" style="fill:#d8a0f2"/>
                <path data-name="패스 12448" d="M60.991 18.364c-.975-.4-1.63-.12-1.863.454s.043 1.229 1.018 1.626a4.259 4.259 0 0 0 2.513-.191 4.257 4.257 0 0 0-1.667-1.89" style="fill:#d8a0f2"/>
                <path data-name="패스 12449" d="M64.17 18.364c.975-.4 1.63-.12 1.863.454s-.043 1.229-1.018 1.626a4.259 4.259 0 0 1-2.513-.191 4.257 4.257 0 0 1 1.667-1.89" style="fill:#d8a0f2"/>
                <path data-name="패스 12450" d="M62.882 14.834c.554-.8 1.2-.924 1.676-.6s.593.975.039 1.779a3.955 3.955 0 0 1-2.044 1.133 3.957 3.957 0 0 1 .329-2.314" style="fill:#9a3bd1"/>
                <path data-name="패스 12451" d="M62.279 14.834c-.554-.8-1.2-.924-1.676-.6s-.593.975-.039 1.779a3.957 3.957 0 0 0 2.045 1.133 3.957 3.957 0 0 0-.329-2.314" style="fill:#9a3bd1"/>
                <path data-name="패스 12452" d="M61.1 15.4c-.9-.368-1.512-.111-1.729.421s.04 1.14.944 1.508a3.953 3.953 0 0 0 2.331-.177A3.954 3.954 0 0 0 61.1 15.4" style="fill:#d8a0f2"/>
                <path data-name="패스 12453" d="M64.054 15.4c.9-.368 1.512-.111 1.729.421s-.04 1.14-.944 1.508a3.953 3.953 0 0 1-2.331-.177 3.954 3.954 0 0 1 1.546-1.752" style="fill:#d8a0f2"/>
                <path data-name="패스 12454" d="M61.428 14.387c-.222-.693 0-1.13.411-1.261s.846.094 1.068.787a2.951 2.951 0 0 1-.263 1.723s-.993-.556-1.215-1.249" style="fill:#d8a0f2"/>
                <path data-name="패스 12455" d="M63.862 14.387c.222-.693 0-1.13-.411-1.261s-.846.094-1.068.787a2.951 2.951 0 0 0 .263 1.723s.993-.556 1.215-1.249" style="fill:#d8a0f2"/>
                <path data-name="패스 12456" d="m56.569 36.019 5.372 5.223a4.3 4.3 0 0 1 1.283 3.065l-5.5-5.5a3.947 3.947 0 0 1-1.156-2.79" style="fill:#a1d438"/>
                <path data-name="패스 12457" d="m71.181 38.675-7.7 7.553a4.3 4.3 0 0 0-1.281 3.065l7.828-7.828a3.946 3.946 0 0 0 1.155-2.79" style="fill:#a1d438"/>
                <path data-name="패스 12458" d="M51.349 43.9 61.7 54.1a4.3 4.3 0 0 1 1.283 3.065L52.505 46.7a3.945 3.945 0 0 1-1.156-2.79" style="fill:#a1d438"/>
                <path data-name="패스 12459" d="M0 58.589v11.683A2.73 2.73 0 0 0 2.73 73h31.13v-1.536h1.592V73h1.539v-1.536h1.593V73h1.539v-1.536h1.592V73h30.558A2.73 2.73 0 0 0 75 70.272V58.589z" style="fill:#fff"/>
                <path data-name="패스 12460" d="M24.487 7.716a1.923 1.923 0 0 1-1.461-1.536c-.034-.241.34-.637.38-1.039.162-1.7.6-4.2 2.045-2.591a13.992 13.992 0 0 1 2.53 4.889 7.687 7.687 0 0 0 .353-3.471 2.694 2.694 0 0 0-.594-1.62 1 1 0 0 0-1.04-.037l-.046-.1a1.108 1.108 0 0 1 1.147.044h.007l.006.006a2.8 2.8 0 0 1 .622 1.685 7.86 7.86 0 0 1-.407 3.664c.026.091.038.141.038.141l.139-.043A7.863 7.863 0 0 1 31.085 5.4a2.782 2.782 0 0 1 1.755-.38h.008l.007.005a1.1 1.1 0 0 1 .653.942l-.107.013a.992.992 0 0 0-.584-.855 2.69 2.69 0 0 0-1.683.369 7.7 7.7 0 0 0-2.74 2.165 13.943 13.943 0 0 1 5.482-.493c2.133.357.259 2.069-1.088 3.119-.318.25-.45.777-.673.881a1.926 1.926 0 0 1-2.082-.41s.933 3.143-.989 3.038-1.46.338-2.012.306-.893-2.823-.893-2.823-2.538 1.213-2.861.764.3-.3-.822-1.862 2.031-2.466 2.031-2.466" style="fill:#1f5a2c"/>
                <path data-name="패스 12461" d="M23.4 5.683a1.923 1.923 0 0 1-1.461-1.536c-.034-.241.34-.637.38-1.039.162-1.7.6-4.2 2.045-2.591a13.991 13.991 0 0 1 2.53 4.889 7.687 7.687 0 0 0 .353-3.471A2.694 2.694 0 0 0 26.648.31a1 1 0 0 0-1.036-.032l-.046-.1a1.108 1.108 0 0 1 1.147.044h.007l.006.006a2.8 2.8 0 0 1 .622 1.685 7.86 7.86 0 0 1-.407 3.664c.026.091.038.141.038.141l.139-.043a7.863 7.863 0 0 1 2.875-2.313 2.782 2.782 0 0 1 1.755-.38h.015a1.1 1.1 0 0 1 .653.942l-.107.013a.992.992 0 0 0-.584-.855 2.69 2.69 0 0 0-1.683.369A7.7 7.7 0 0 0 27.3 5.628a13.943 13.943 0 0 1 5.482-.493c2.133.357.259 2.069-1.088 3.119-.318.25-.45.777-.673.881a1.926 1.926 0 0 1-2.082-.41s.933 3.143-.989 3.038-1.46.338-2.012.306-.893-2.823-.893-2.823-2.538 1.213-2.861.764.3-.3-.822-1.862S23.4 5.682 23.4 5.682" style="fill:#ffeb00"/>
            </g>
        </g>
    </g>
</svg>
