<svg xmlns="http://www.w3.org/2000/svg" width="100" height="100" viewBox="0 0 100 100">
    <defs>
        <clipPath id="49avr5jj0a">
            <path data-name="사각형 2779" style="fill:none" d="M0 0h46.804v54.855H0z"/>
        </clipPath>
    </defs>
    <g data-name="그룹 2490">
        <path data-name="사각형 2623" style="fill:none" d="M0 0h100v100H0z"/>
        <g data-name="그룹 2451">
            <path data-name="사각형 2774" transform="translate(50.249 59.021)" style="fill:#418c48" d="M0 0h1.974v15.765H0z"/>
            <path data-name="사각형 2775" transform="translate(39.015 61.967)" style="fill:#418c48" d="M0 0h1.285v12.819H0z"/>
            <path data-name="사각형 2776" transform="translate(62.838 61.967)" style="fill:#418c48" d="M0 0h1.285v12.819H0z"/>
            <g data-name="그룹 2450">
                <g data-name="그룹 2449" style="clip-path:url(#49avr5jj0a)" transform="translate(27 45)">
                    <path data-name="패스 13222" d="M3.34 18.176a.3.3 0 0 0-.167.216c-.274-.471-.573-.753-.777-.68-.189.068-.25.418-.19.9-.406-.412-.789-.612-.971-.484s-.122.5.086.972c-.631-.226-1.148-.254-1.26-.033s.241.648.83 1.034c-.537.122-.9.32-.89.541s.441.415 1.051.481c-.481.261-.768.551-.7.756s.473.269 1.014.2a.3.3 0 0 0-.069.265c.066.206.472.269 1.012.2a.309.309 0 0 0-.068.266c.067.2.473.268 1.013.2a.306.306 0 0 0-.069.265c.067.205.473.269 1.013.2a.307.307 0 0 0-.069.265c.1.305.936.306 1.868 0a3.275 3.275 0 0 0 1.384-.776l1.908.937.171-.345-1.906-.937a3.264 3.264 0 0 0-.241-1.568c-.33-.924-.842-1.585-1.144-1.476a.3.3 0 0 0-.169.208c-.274-.471-.573-.753-.777-.68a.3.3 0 0 0-.167.216c-.274-.471-.573-.753-.777-.681a.309.309 0 0 0-.168.217c-.274-.472-.573-.753-.777-.681" style="fill:#418c48"/>
                    <path data-name="패스 13223" d="M30.27 18.828a.3.3 0 0 0-.167.216c-.274-.471-.573-.753-.777-.68s-.25.418-.19.9c-.406-.406-.789-.614-.971-.481s-.122.5.086.972c-.631-.226-1.148-.254-1.26-.033s.241.648.83 1.034c-.537.122-.9.32-.89.541s.441.415 1.051.481c-.481.261-.768.551-.7.756s.473.269 1.014.2a.3.3 0 0 0-.069.265c.066.206.472.269 1.012.2a.309.309 0 0 0-.068.266c.067.2.473.268 1.013.2a.306.306 0 0 0-.069.265c.067.2.473.269 1.013.2a.307.307 0 0 0-.069.265c.1.3.936.306 1.868 0a3.275 3.275 0 0 0 1.384-.776l1.908.937.171-.345-1.906-.937a3.264 3.264 0 0 0-.241-1.568c-.33-.924-.842-1.585-1.144-1.476a.3.3 0 0 0-.167.216c-.274-.471-.573-.753-.777-.68a.3.3 0 0 0-.167.216c-.274-.471-.573-.753-.777-.681a.309.309 0 0 0-.168.217c-.274-.472-.573-.753-.777-.681" style="fill:#418c48"/>
                    <path data-name="패스 13224" d="M20.544 25.345a.3.3 0 0 0-.078-.262c.543.052.946-.025 1.006-.234.055-.192-.194-.447-.617-.677.566-.093.959-.283.957-.508s-.336-.391-.839-.5c.551-.381.876-.785.762-1s-.666-.183-1.324.07c.215-.507.266-.918.081-1.039s-.6.116-1 .572c.069-.542 0-.944-.2-1.01s-.494.227-.752.708a.306.306 0 0 0-.175-.211c-.206-.066-.5.226-.752.706a.308.308 0 0 0-.176-.21c-.206-.065-.494.227-.753.707a.306.306 0 0 0-.174-.212c-.206-.065-.495.227-.752.707a.3.3 0 0 0-.175-.21c-.307-.1-.8.58-1.091 1.516a3.266 3.266 0 0 0-.178 1.576l-1.875 1 .18.34 1.874-1a3.266 3.266 0 0 0 1.407.726c.943.271 1.778.241 1.867-.067a.3.3 0 0 0-.078-.262c.542.053.945-.025 1.006-.234a.3.3 0 0 0-.078-.262c.542.053.945-.025 1.006-.233a.306.306 0 0 0-.078-.263c.543.053.945-.025 1.006-.233" style="fill:#418c48"/>
                    <path data-name="패스 13225" d="M45.106 23.959a.3.3 0 0 0-.035-.271c.527.139.938.127 1.031-.069.085-.181-.119-.472-.5-.768.574 0 .992-.124 1.026-.347s-.268-.44-.748-.625c.606-.288.991-.634.914-.868s-.628-.288-1.318-.145c.294-.466.41-.863.247-1.012s-.6.018-1.083.4c.156-.525.153-.932-.039-1.03s-.525.144-.857.577a.3.3 0 0 0-.138-.236c-.193-.1-.525.144-.856.576a.306.306 0 0 0-.14-.236c-.193-.1-.524.144-.857.576a.306.306 0 0 0-.138-.237c-.192-.1-.525.145-.856.577a.307.307 0 0 0-.139-.236c-.287-.145-.878.445-1.321 1.321a3.264 3.264 0 0 0-.429 1.527l-2.013.687.124.364 2.01-.685a3.271 3.271 0 0 0 1.279.939c.886.419 1.716.525 1.853.235a.305.305 0 0 0-.035-.272c.527.14.938.128 1.03-.068a.3.3 0 0 0-.034-.271c.527.139.937.127 1.031-.068a.305.305 0 0 0-.035-.272c.527.14.937.127 1.031-.068" style="fill:#418c48"/>
                    <path data-name="패스 13226" d="M9.963 7.275a.381.381 0 0 0-.323.111c.038-.68-.081-1.179-.344-1.243-.242-.059-.547.265-.813.8-.145-.7-.4-1.182-.682-1.168s-.471.44-.577 1.073c-.5-.668-1.024-1.052-1.291-.9s-.194.852.155 1.652c-.644-.242-1.158-.284-1.3-.047s.175.736.766 1.223c-.68-.058-1.178.048-1.249.308s.308.6.921.9a.378.378 0 0 0-.254.229c-.072.26.308.6.92.9a.382.382 0 0 0-.253.231c-.071.26.308.6.921.9a.384.384 0 0 0-.255.229c-.071.26.309.606.921.9a.382.382 0 0 0-.254.229c-.105.387.766.961 1.948 1.282a4.088 4.088 0 0 0 1.976.14l1.347 2.287.415-.243-1.346-2.285a4.064 4.064 0 0 0 .826-1.8c.29-1.19.209-2.23-.18-2.325a.381.381 0 0 0-.323.111c.038-.679-.08-1.178-.343-1.243a.381.381 0 0 0-.323.111c.037-.679-.081-1.178-.343-1.243a.382.382 0 0 0-.324.111c.038-.68-.08-1.178-.343-1.243" style="fill:#418c48"/>
                    <path data-name="패스 13227" d="M17.72 3.265a.383.383 0 0 0-.275.2c-.169-.659-.432-1.1-.7-1.081-.249.017-.442.418-.532 1.013-.351-.625-.74-1.005-1-.907s-.316.561-.226 1.2c-.687-.49-1.3-.69-1.508-.467s.069.86.646 1.524c-.687-.036-1.19.079-1.254.348s.39.648 1.1.934c-.666.151-1.109.4-1.1.671s.476.484 1.15.581a.383.383 0 0 0-.173.3c.011.269.477.483 1.15.581a.381.381 0 0 0-.172.3c.011.269.476.483 1.15.582a.385.385 0 0 0-.174.3c.012.269.478.484 1.151.581a.383.383 0 0 0-.173.3c.017.4 1.02.685 2.244.634a4.081 4.081 0 0 0 1.925-.463l1.976 1.774.322-.357-1.973-1.772a4.069 4.069 0 0 0 .244-1.966c-.084-1.221-.474-2.189-.874-2.162a.382.382 0 0 0-.274.2c-.17-.658-.433-1.1-.7-1.08a.376.376 0 0 0-.275.2c-.169-.659-.432-1.1-.7-1.082a.385.385 0 0 0-.275.2c-.169-.66-.432-1.1-.7-1.082" style="fill:#418c48"/>
                    <path data-name="패스 13228" d="M16.827 11.235a.381.381 0 0 0-.209.27c-.342-.588-.715-.94-.97-.849-.235.084-.312.522-.237 1.119-.507-.506-.985-.766-1.212-.6s-.152.626.108 1.213c-.788-.281-1.434-.316-1.573-.041s.3.809 1.036 1.291c-.671.152-1.124.4-1.112.676s.551.518 1.312.6c-.6.326-.958.688-.874.944s.59.336 1.265.247a.379.379 0 0 0-.086.331c.083.257.59.336 1.264.247a.385.385 0 0 0-.085.332c.084.256.59.335 1.265.247a.384.384 0 0 0-.087.331c.084.256.591.336 1.265.247a.383.383 0 0 0-.086.331c.125.381 1.168.382 2.332 0a4.071 4.071 0 0 0 1.727-.971l2.383 1.17.213-.431-2.38-1.169a4.065 4.065 0 0 0-.3-1.958c-.412-1.153-1.051-1.978-1.428-1.843a.381.381 0 0 0-.209.27c-.342-.588-.715-.94-.97-.849a.379.379 0 0 0-.209.27c-.342-.588-.715-.94-.97-.85a.38.38 0 0 0-.209.271c-.342-.589-.715-.94-.97-.85" style="fill:#418c48"/>
                    <path data-name="패스 13229" d="M36.007 4.338a.381.381 0 0 0-.258-.224c.607-.308.98-.66.9-.92-.071-.239-.5-.341-1.1-.3.534-.477.821-.939.668-1.175S35.6 1.53 35 1.756c.326-.77.4-1.413.131-1.568s-.825.253-1.348.96C33.67.47 33.448 0 33.172 0c-.292 0-.549.52-.674 1.275-.292-.618-.632-1-.893-.926s-.369.569-.319 1.248a.379.379 0 0 0-.325-.1c-.262.068-.37.569-.319 1.247a.387.387 0 0 0-.327-.1c-.26.07-.368.57-.319 1.249a.387.387 0 0 0-.325-.106c-.261.07-.37.571-.319 1.249a.385.385 0 0 0-.326-.105c-.387.1-.448 1.145-.133 2.329a4.072 4.072 0 0 0 .868 1.779l-1.3 2.312.418.238 1.3-2.31a4.067 4.067 0 0 0 1.972-.187c1.175-.345 2.035-.936 1.922-1.32a.379.379 0 0 0-.258-.224c.607-.308.98-.66.9-.92a.375.375 0 0 0-.255-.228c.606-.308.979-.66.9-.92a.383.383 0 0 0-.259-.224c.608-.308.98-.66.9-.92" style="fill:#418c48"/>
                    <path data-name="패스 13230" d="M37.047 17.474a.377.377 0 0 0 .129-.316c.487.475.94.715 1.162.559.2-.144.161-.586-.071-1.142.624.353 1.154.476 1.329.255s-.021-.644-.428-1.14c.834.06 1.466-.079 1.526-.381s-.505-.7-1.343-.967c.606-.326.977-.686.891-.949s-.669-.352-1.424-.227c.491-.475.739-.919.59-1.143s-.658-.167-1.285.1a.381.381 0 0 0-.006-.342c-.148-.225-.658-.166-1.284.1a.387.387 0 0 0-.006-.343c-.15-.224-.658-.165-1.285.1a.384.384 0 0 0-.005-.342c-.149-.224-.659-.166-1.285.1a.381.381 0 0 0-.006-.342c-.222-.334-1.227-.057-2.247.622a4.078 4.078 0 0 0-1.405 1.395l-2.609-.491-.09.473 2.6.491a4.077 4.077 0 0 0 .812 1.806c.7 1 1.541 1.626 1.869 1.395a.382.382 0 0 0 .129-.316c.487.475.94.715 1.161.559a.38.38 0 0 0 .13-.316c.486.475.94.715 1.162.56a.384.384 0 0 0 .129-.317c.486.477.94.715 1.161.56" style="fill:#418c48"/>
                    <path data-name="패스 13231" d="M37.231 31.186h-1.5v-2.253c.012-.375.339-8.668 5.656-12.57l.887 1.209c-4.724 3.468-5.041 11.307-5.043 11.385z" style="fill:#418c48"/>
                    <path data-name="패스 13232" d="m13.272 23.232-1.229-.86a19.328 19.328 0 0 1 6.457-5.333l.7 1.324a18.214 18.214 0 0 0-5.927 4.869" style="fill:#418c48"/>
                    <path data-name="패스 13233" d="M12.01 28.132a15.653 15.653 0 0 0-5.632-5.293l.692-1.332a16.914 16.914 0 0 1 6.235 5.868z" style="fill:#418c48"/>
                    <path data-name="패스 13234" d="M23.237 15.486c-.129-3.309-4.417-5.24-4.46-5.26l.8-1.831c.223.1 5.477 2.447 5.655 7.013z" style="fill:#418c48"/>
                    <path data-name="패스 13235" d="M23.24 18.12c-.007-.072-.516-7.3 9.536-8.471l.231 1.987c-8.065.938-7.789 6.1-7.774 6.319z" style="fill:#418c48"/>
                    <path data-name="패스 13236" d="M43.6 54.849H5.728a2.9 2.9 0 0 1-2.9-2.9V34.162h43.665v17.793a2.9 2.9 0 0 1-2.9 2.9" style="fill:#91d09f"/>
                    <path data-name="사각형 2777" transform="translate(2.829 28.933)" style="fill:#91d09f" d="M0 0h43.664v3.967H0z"/>
                    <path data-name="사각형 2778" transform="translate(2.829 32.897)" style="fill:#56b36b" d="M0 0h43.664v1.265H0z"/>
                </g>
            </g>
        </g>
    </g>
</svg>
