<svg xmlns="http://www.w3.org/2000/svg" width="100" height="100" viewBox="0 0 100 100">
    <defs>
        <clipPath id="cwg4txvh8a">
            <path data-name="사각형 2694" style="fill:none" d="M0 0h75.003v24.784H0z"/>
        </clipPath>
    </defs>
    <g data-name="그룹 2503">
        <path data-name="사각형 2608" style="fill:none" d="M0 0h100v100H0z"/>
        <g data-name="그룹 2417">
            <path data-name="사각형 2688" transform="translate(24.076 78.32)" style="fill:#a1d438" d="M0 0h.977v9.836H0z"/>
            <g data-name="그룹 2416">
                <g data-name="그룹 2415" style="clip-path:url(#cwg4txvh8a)" transform="translate(12 75)">
                    <path data-name="패스 11752" d="M15.419 0a3.947 3.947 0 0 1-1.156 2.79l-2.187 2.187a4.3 4.3 0 0 1 1.283-3.065L15.414 0" style="fill:#a1d438"/>
                    <path data-name="패스 11753" d="m17.752 2.647-4.387 4.24a4.3 4.3 0 0 0-1.283 3.065L16.6 5.437a3.946 3.946 0 0 0 1.155-2.79" style="fill:#a1d438"/>
                    <path data-name="패스 11754" d="m9.716 0 2.055 1.908a4.3 4.3 0 0 1 1.283 3.065L10.867 2.79A3.947 3.947 0 0 1 9.711 0" style="fill:#a1d438"/>
                    <path data-name="패스 11755" d="m8.533 5.437 4.515 4.515a4.3 4.3 0 0 0-1.283-3.065l-4.387-4.24a3.946 3.946 0 0 0 1.155 2.79" style="fill:#a1d438"/>
                    <path data-name="사각형 2689" transform="translate(22.262 3.32)" style="fill:#a1d438" d="M0 0h.978v9.837H0z"/>
                    <path data-name="패스 11756" d="M25.6 0a3.947 3.947 0 0 1-1.156 2.79l-2.182 2.187a4.3 4.3 0 0 1 1.283-3.065L25.6 0" style="fill:#a1d438"/>
                    <path data-name="패스 11757" d="m27.938 2.647-4.387 4.24a4.3 4.3 0 0 0-1.283 3.065l4.515-4.515a3.946 3.946 0 0 0 1.155-2.79" style="fill:#a1d438"/>
                    <path data-name="패스 11758" d="m19.9 0 2.055 1.908a4.3 4.3 0 0 1 1.285 3.069L21.053 2.79A3.947 3.947 0 0 1 19.9 0" style="fill:#a1d438"/>
                    <path data-name="패스 11759" d="m18.719 5.437 4.515 4.515a4.3 4.3 0 0 0-1.283-3.065l-4.387-4.24a3.946 3.946 0 0 0 1.155 2.79" style="fill:#a1d438"/>
                    <path data-name="사각형 2690" transform="translate(31.452 3.32)" style="fill:#a1d438" d="M0 0h.978v9.837H0z"/>
                    <path data-name="패스 11760" d="M34.795 0a3.947 3.947 0 0 1-1.156 2.79l-2.187 2.187a4.3 4.3 0 0 1 1.283-3.065L34.79 0" style="fill:#a1d438"/>
                    <path data-name="패스 11761" d="m37.128 2.647-4.387 4.24a4.3 4.3 0 0 0-1.283 3.065l4.515-4.515a3.946 3.946 0 0 0 1.155-2.79" style="fill:#a1d438"/>
                    <path data-name="패스 11762" d="m29.092 0 2.055 1.908a4.3 4.3 0 0 1 1.283 3.069L30.243 2.79A3.947 3.947 0 0 1 29.087 0" style="fill:#a1d438"/>
                    <path data-name="패스 11763" d="m27.909 5.437 4.515 4.515a4.3 4.3 0 0 0-1.283-3.065l-4.387-4.24a3.946 3.946 0 0 0 1.155 2.79" style="fill:#a1d438"/>
                    <path data-name="사각형 2691" transform="translate(42.573 3.32)" style="fill:#a1d438" d="M0 0h.978v9.837H0z"/>
                    <path data-name="패스 11764" d="M45.916 0a3.947 3.947 0 0 1-1.156 2.79l-2.187 2.187a4.3 4.3 0 0 1 1.283-3.065L45.911 0" style="fill:#a1d438"/>
                    <path data-name="패스 11765" d="m48.249 2.647-4.387 4.24a4.3 4.3 0 0 0-1.283 3.065l4.515-4.515a3.946 3.946 0 0 0 1.155-2.79" style="fill:#a1d438"/>
                    <path data-name="패스 11766" d="m40.213 0 2.055 1.908a4.3 4.3 0 0 1 1.283 3.065L41.364 2.79A3.947 3.947 0 0 1 40.208 0" style="fill:#a1d438"/>
                    <path data-name="패스 11767" d="m39.03 5.437 4.515 4.515a4.3 4.3 0 0 0-1.283-3.065l-4.387-4.24a3.946 3.946 0 0 0 1.155 2.79" style="fill:#a1d438"/>
                    <path data-name="사각형 2692" transform="translate(52.759 3.32)" style="fill:#a1d438" d="M0 0h.978v9.837H0z"/>
                    <path data-name="패스 11768" d="M56.1 0a3.947 3.947 0 0 1-1.156 2.79l-2.185 2.187a4.3 4.3 0 0 1 1.283-3.065L56.1 0" style="fill:#a1d438"/>
                    <path data-name="패스 11769" d="m58.435 2.647-4.387 4.24a4.3 4.3 0 0 0-1.283 3.065l4.515-4.515a3.946 3.946 0 0 0 1.155-2.79" style="fill:#a1d438"/>
                    <path data-name="패스 11770" d="m50.4 0 2.055 1.908a4.3 4.3 0 0 1 1.283 3.065L51.55 2.79A3.947 3.947 0 0 1 50.394 0" style="fill:#a1d438"/>
                    <path data-name="패스 11771" d="m49.216 5.437 4.515 4.515a4.3 4.3 0 0 0-1.283-3.065l-4.387-4.24a3.946 3.946 0 0 0 1.155 2.79" style="fill:#a1d438"/>
                    <path data-name="사각형 2693" transform="translate(61.949 3.32)" style="fill:#a1d438" d="M0 0h.978v9.837H0z"/>
                    <path data-name="패스 11772" d="M65.292 0a3.947 3.947 0 0 1-1.156 2.79l-2.187 2.187a4.3 4.3 0 0 1 1.283-3.065L65.287 0" style="fill:#a1d438"/>
                    <path data-name="패스 11773" d="m67.625 2.647-4.387 4.24a4.3 4.3 0 0 0-1.283 3.065l4.515-4.515a3.946 3.946 0 0 0 1.155-2.79" style="fill:#a1d438"/>
                    <path data-name="패스 11774" d="m59.589 0 2.055 1.908a4.3 4.3 0 0 1 1.283 3.065L60.74 2.79A3.947 3.947 0 0 1 59.584 0" style="fill:#a1d438"/>
                    <path data-name="패스 11775" d="m58.406 5.437 4.515 4.515a4.3 4.3 0 0 0-1.283-3.065l-4.387-4.24a3.946 3.946 0 0 0 1.155 2.79" style="fill:#a1d438"/>
                    <path data-name="패스 11776" d="M0 10.371v11.683a2.73 2.73 0 0 0 2.73 2.73h31.13v-1.538h1.592v1.538h1.539v-1.538h1.593v1.538h1.539v-1.538h1.592v1.538h30.558A2.73 2.73 0 0 0 75 22.054V10.371z" style="fill:#fff"/>
                </g>
            </g>
        </g>
    </g>
</svg>
