<svg xmlns="http://www.w3.org/2000/svg" width="100" height="100" viewBox="0 0 100 100">
    <defs>
        <clipPath id="q3kjk9dr9a">
            <path data-name="사각형 2687" style="fill:none" d="M0 0h64.487v96H0z"/>
        </clipPath>
    </defs>
    <g data-name="그룹 2522">
        <path data-name="사각형 2600" style="fill:none" d="M0 0h100v100H0z"/>
        <g data-name="그룹 2414">
            <g data-name="그룹 2413" transform="translate(18 4)" style="clip-path:url(#q3kjk9dr9a)">
                <path data-name="패스 11627" d="M52.156 33.645c2.21-.9 3.7-.272 4.224 1.029s-.1 2.783-2.307 3.68-5.7-.431-5.7-.431 1.568-3.38 3.779-4.278" transform="translate(0 -.045)" style="fill:#94b524"/>
                <path data-name="패스 11628" d="M52.156 39.836c2.21-.9 3.7-.272 4.224 1.029s-.1 2.783-2.307 3.68-5.7-.431-5.7-.431 1.568-3.38 3.779-4.278" transform="translate(0 -.054)" style="fill:#94b524"/>
                <path data-name="패스 11629" d="M52.156 46.028c2.21-.9 3.7-.272 4.224 1.029s-.1 2.783-2.307 3.68-5.7-.431-5.7-.431 1.568-3.38 3.779-4.278" transform="translate(0 -.062)" style="fill:#94b524"/>
                <path data-name="패스 11630" d="M52.156 52.219c2.21-.9 3.7-.272 4.224 1.029s-.1 2.783-2.307 3.68-5.7-.431-5.7-.431 1.568-3.38 3.779-4.278" transform="translate(0 -.071)" style="fill:#94b524"/>
                <path data-name="패스 11631" d="M52.156 58.411c2.21-.9 3.7-.272 4.224 1.029s-.1 2.783-2.307 3.68-5.7-.431-5.7-.431 1.568-3.38 3.779-4.278" transform="translate(0 -.079)" style="fill:#94b524"/>
                <path data-name="패스 11632" d="M44.6 33.645c-2.21-.9-3.695-.272-4.224 1.029s.1 2.783 2.307 3.68 5.7-.431 5.7-.431-1.568-3.38-3.779-4.278" transform="translate(0 -.045)" style="fill:#94b524"/>
                <path data-name="패스 11633" d="M44.6 39.836c-2.21-.9-3.695-.272-4.224 1.029s.1 2.783 2.307 3.68 5.7-.431 5.7-.431-1.568-3.38-3.779-4.278" transform="translate(0 -.054)" style="fill:#94b524"/>
                <path data-name="패스 11634" d="M44.6 46.028c-2.21-.9-3.695-.272-4.224 1.029s.1 2.783 2.307 3.68 5.7-.431 5.7-.431-1.568-3.38-3.779-4.278" transform="translate(0 -.062)" style="fill:#94b524"/>
                <path data-name="패스 11635" d="M44.6 52.219c-2.21-.9-3.695-.272-4.224 1.029s.1 2.783 2.307 3.68 5.7-.431 5.7-.431-1.568-3.38-3.779-4.278" transform="translate(0 -.071)" style="fill:#94b524"/>
                <path data-name="패스 11636" d="M44.6 58.411c-2.21-.9-3.695-.272-4.224 1.029s.1 2.783 2.307 3.68 5.7-.431 5.7-.431-1.568-3.38-3.779-4.278" transform="translate(0 -.079)" style="fill:#94b524"/>
                <path data-name="패스 11637" d="M48.472 27.294h-.222c0-3.385-2.967-9.179-3-9.238l.2-.1c.03.058 3.021 5.9 3.021 9.339" transform="translate(0 -.024)" style="fill:#f4ee22"/>
                <path data-name="패스 11638" d="M45.729 18.005a.379.379 0 1 1-.38-.378.379.379 0 0 1 .38.378z" transform="translate(0 -.024)" style="fill:#f4ee22"/>
                <path data-name="패스 11639" d="M47.55 28.382c-1.3-3.127-6.265-7.342-6.315-7.384l.144-.17c.013.01 1.275 1.08 2.683 2.525a17.617 17.617 0 0 1 3.693 4.947z" transform="translate(0 -.028)" style="fill:#f4ee22"/>
                <path data-name="패스 11640" d="M41.658 20.767a.378.378 0 0 1-.7.286.376.376 0 0 1 .2-.492.381.381 0 0 1 .5.206" transform="translate(0 -.028)" style="fill:#f4ee22"/>
                <path data-name="패스 11641" d="m49.168 28.382-.207-.085a17.555 17.555 0 0 1 3.693-4.944 42.787 42.787 0 0 1 2.683-2.525l.144.17c-.052.042-5.015 4.257-6.315 7.384" transform="translate(0 -.028)" style="fill:#f4ee22"/>
                <path data-name="패스 11642" d="M48.47 27.294h-.222c0-3.439 2.991-9.281 3.021-9.339l.2.1c-.03.058-3 5.852-3 9.237" transform="translate(0 -.024)" style="fill:#f4ee22"/>
                <path data-name="패스 11643" d="M50.989 18.005a.379.379 0 1 0 .38-.378.379.379 0 0 0-.38.378z" transform="translate(0 -.024)" style="fill:#f4ee22"/>
                <path data-name="패스 11644" d="M47.976 15.961a.379.379 0 1 0 .38-.378.379.379 0 0 0-.38.378z" transform="translate(0 -.021)" style="fill:#f4ee22"/>
                <path data-name="사각형 2680" transform="translate(48.248 15.791)" style="fill:#f4ee22" d="M0 0h.222v8.012H0z"/>
                <path data-name="사각형 2681" transform="translate(47.654 29.362)" style="fill:#8c6239" d="M0 0h1.445v40.68H0z"/>
                <path data-name="패스 11645" d="M44.6 31.366c-2.21-.9-3.695-.272-4.224 1.029s.1 2.783 2.307 3.68 5.7-.431 5.7-.431-1.568-3.38-3.779-4.278" transform="translate(0 -.042)" style="fill:#a1d438"/>
                <path data-name="패스 11646" d="M44.6 37.112c-2.21-.9-3.695-.272-4.224 1.029s.1 2.783 2.307 3.68 5.7-.431 5.7-.431-1.568-3.38-3.779-4.278" transform="translate(0 -.05)" style="fill:#a1d438"/>
                <path data-name="패스 11647" d="M44.6 42.857c-2.21-.9-3.695-.272-4.224 1.029s.1 2.783 2.307 3.68 5.7-.431 5.7-.431-1.568-3.38-3.779-4.278" transform="translate(0 -.058)" style="fill:#a1d438"/>
                <path data-name="패스 11648" d="M44.6 48.6c-2.21-.9-3.695-.272-4.224 1.029s.1 2.783 2.307 3.68 5.7-.431 5.7-.431S46.808 49.5 44.6 48.6" transform="translate(0 -.066)" style="fill:#a1d438"/>
                <path data-name="패스 11649" d="M44.6 54.348c-2.21-.9-3.695-.272-4.224 1.029s.1 2.783 2.307 3.68 5.7-.431 5.7-.431-1.568-3.38-3.779-4.278" transform="translate(0 -.074)" style="fill:#a1d438"/>
                <path data-name="패스 11650" d="M44.6 60.093c-2.21-.9-3.695-.272-4.224 1.029s.1 2.783 2.307 3.68 5.7-.431 5.7-.431-1.568-3.38-3.779-4.278" transform="translate(0 -.082)" style="fill:#a1d438"/>
                <path data-name="패스 11651" d="M52.156 31.366c2.21-.9 3.7-.272 4.224 1.029s-.1 2.783-2.307 3.68-5.7-.431-5.7-.431 1.568-3.38 3.779-4.278" transform="translate(0 -.042)" style="fill:#a1d438"/>
                <path data-name="패스 11652" d="M52.156 37.112c2.21-.9 3.7-.272 4.224 1.029s-.1 2.783-2.307 3.68-5.7-.431-5.7-.431 1.568-3.38 3.779-4.278" transform="translate(0 -.05)" style="fill:#a1d438"/>
                <path data-name="패스 11653" d="M52.156 42.857c2.21-.9 3.7-.272 4.224 1.029s-.1 2.783-2.307 3.68-5.7-.431-5.7-.431 1.568-3.38 3.779-4.278" transform="translate(0 -.058)" style="fill:#a1d438"/>
                <path data-name="패스 11654" d="M52.156 48.6c2.21-.9 3.7-.272 4.224 1.029s-.1 2.783-2.307 3.68-5.7-.431-5.7-.431 1.568-3.38 3.779-4.278" transform="translate(0 -.066)" style="fill:#a1d438"/>
                <path data-name="패스 11655" d="M52.156 54.348c2.21-.9 3.7-.272 4.224 1.029s-.1 2.783-2.307 3.68-5.7-.431-5.7-.431 1.568-3.38 3.779-4.278" transform="translate(0 -.074)" style="fill:#a1d438"/>
                <path data-name="패스 11656" d="M52.156 60.093c2.21-.9 3.7-.272 4.224 1.029s-.1 2.783-2.307 3.68-5.7-.431-5.7-.431 1.568-3.38 3.779-4.278" transform="translate(0 -.082)" style="fill:#a1d438"/>
                <path data-name="패스 11657" d="M49.731 24.566c0 2.214-.614 3.272-1.371 3.272s-1.372-1.059-1.372-3.272a12.01 12.01 0 0 1 1.37-4.746 12 12 0 0 1 1.371 4.746" transform="translate(0 -.027)" style="fill:#f4e919"/>
                <path data-name="패스 11658" d="M48.149 24.517c1.135 1.9 1.149 3.126.5 3.512s-1.72-.207-2.855-2.11a12 12 0 0 1-1.253-4.778 12.015 12.015 0 0 1 3.61 3.377" transform="translate(0 -.029)" style="fill:#f4ee22"/>
                <path data-name="패스 11659" d="M48.856 24.517c-1.135 1.9-1.149 3.126-.5 3.512s1.72-.207 2.855-2.11a12 12 0 0 0 1.253-4.778 12.015 12.015 0 0 0-3.61 3.377" transform="translate(0 -.029)" style="fill:#f4ee22"/>
                <path data-name="패스 11660" d="M50.7 25.141c-2.372 1.215-3.168 2.453-2.752 3.26s1.886.884 4.258-.332A14.454 14.454 0 0 0 56.535 24a14.481 14.481 0 0 0-5.837 1.14" transform="translate(0 -.033)" style="fill:#f4e919"/>
                <path data-name="패스 11661" d="M46 25.141c2.372 1.215 3.168 2.453 2.752 3.26s-1.886.884-4.258-.332A14.454 14.454 0 0 1 40.16 24 14.481 14.481 0 0 1 46 25.138" transform="translate(0 -.033)" style="fill:#f4e919"/>
                <path data-name="패스 11662" d="M51.97 26.458c-2.632.424-3.772 1.354-3.626 2.253s1.52 1.423 4.152 1a14.474 14.474 0 0 0 5.379-2.535 14.473 14.473 0 0 0-5.906-.717" transform="translate(0 -.036)" style="fill:#f2d81c"/>
                <path data-name="패스 11663" d="M44.716 26.458c2.632.424 3.772 1.354 3.626 2.253s-1.52 1.423-4.152 1a14.474 14.474 0 0 1-5.379-2.535 14.473 14.473 0 0 1 5.906-.717" transform="translate(0 -.036)" style="fill:#f2d81c"/>
                <path data-name="패스 11664" d="M49.731 28.276c0 1.363-.614 2.014-1.371 2.014s-1.372-.651-1.372-2.014a5.633 5.633 0 0 1 1.37-2.922 5.632 5.632 0 0 1 1.371 2.922" transform="translate(0 -.034)" style="fill:#f2d81c"/>
                <path data-name="패스 11665" d="M21.219 33.645c2.21-.9 3.695-.272 4.225 1.029s-.1 2.783-2.308 3.68-5.7-.431-5.7-.431 1.569-3.38 3.78-4.278" transform="translate(0 -.045)" style="fill:#94b524"/>
                <path data-name="패스 11666" d="M21.219 39.836c2.21-.9 3.695-.272 4.225 1.029s-.1 2.783-2.308 3.68-5.7-.431-5.7-.431 1.569-3.38 3.78-4.278" transform="translate(0 -.054)" style="fill:#94b524"/>
                <path data-name="패스 11667" d="M21.219 46.028c2.21-.9 3.695-.272 4.225 1.029s-.1 2.783-2.308 3.68-5.7-.431-5.7-.431 1.569-3.38 3.78-4.278" transform="translate(0 -.062)" style="fill:#94b524"/>
                <path data-name="패스 11668" d="M21.219 52.219c2.21-.9 3.695-.272 4.225 1.029s-.1 2.783-2.308 3.68-5.7-.431-5.7-.431 1.569-3.38 3.78-4.278" transform="translate(0 -.071)" style="fill:#94b524"/>
                <path data-name="패스 11669" d="M21.219 58.411c2.21-.9 3.695-.272 4.225 1.029s-.1 2.783-2.308 3.68-5.7-.431-5.7-.431 1.569-3.38 3.78-4.278" transform="translate(0 -.079)" style="fill:#94b524"/>
                <path data-name="패스 11670" d="M13.66 33.645c-2.21-.9-3.695-.272-4.224 1.029s.1 2.783 2.307 3.68 5.7-.431 5.7-.431-1.568-3.38-3.779-4.278" transform="translate(0 -.045)" style="fill:#94b524"/>
                <path data-name="패스 11671" d="M13.66 39.836c-2.21-.9-3.695-.272-4.224 1.029s.1 2.783 2.307 3.68 5.7-.431 5.7-.431-1.568-3.38-3.779-4.278" transform="translate(0 -.054)" style="fill:#94b524"/>
                <path data-name="패스 11672" d="M13.66 46.028c-2.21-.9-3.695-.272-4.224 1.029s.1 2.783 2.307 3.68 5.7-.431 5.7-.431-1.568-3.38-3.779-4.278" transform="translate(0 -.062)" style="fill:#94b524"/>
                <path data-name="패스 11673" d="M13.66 52.219c-2.21-.9-3.695-.272-4.224 1.029s.1 2.783 2.307 3.68 5.7-.431 5.7-.431-1.568-3.38-3.779-4.278" transform="translate(0 -.071)" style="fill:#94b524"/>
                <path data-name="패스 11674" d="M13.66 58.411c-2.21-.9-3.695-.272-4.224 1.029s.1 2.783 2.307 3.68 5.7-.431 5.7-.431-1.568-3.38-3.779-4.278" transform="translate(0 -.079)" style="fill:#94b524"/>
                <path data-name="패스 11675" d="M17.534 27.294h-.223c0-3.385-2.966-9.179-3-9.238l.2-.1c.031.058 3.021 5.9 3.021 9.339" transform="translate(0 -.024)" style="fill:#f4ee22"/>
                <path data-name="패스 11676" d="M14.8 18.005a.379.379 0 1 1-.38-.378.379.379 0 0 1 .379.378" transform="translate(0 -.024)" style="fill:#f4ee22"/>
                <path data-name="패스 11677" d="M16.614 28.382c-1.3-3.127-6.265-7.342-6.314-7.382l.144-.17c.013.01 1.275 1.08 2.683 2.525a17.617 17.617 0 0 1 3.692 4.945z" transform="translate(0 -.028)" style="fill:#f4ee22"/>
                <path data-name="패스 11678" d="M10.72 20.767a.378.378 0 1 1-.495-.207.378.378 0 0 1 .495.207" transform="translate(0 -.028)" style="fill:#f4ee22"/>
                <path data-name="패스 11679" d="m18.231 28.382-.207-.085a17.555 17.555 0 0 1 3.693-4.944 42.787 42.787 0 0 1 2.683-2.525l.144.17c-.052.042-5.015 4.257-6.315 7.384" transform="translate(0 -.028)" style="fill:#f4ee22"/>
                <path data-name="패스 11680" d="M17.534 27.294h-.223c0-3.439 2.992-9.281 3.022-9.339l.2.1c-.03.058-3 5.852-3 9.237" transform="translate(0 -.024)" style="fill:#f4ee22"/>
                <path data-name="패스 11681" d="M20.053 18.005a.379.379 0 1 0 .38-.378.379.379 0 0 0-.379.378" transform="translate(0 -.024)" style="fill:#f4ee22"/>
                <path data-name="패스 11682" d="M17.039 15.961a.379.379 0 1 0 .38-.378.379.379 0 0 0-.379.378" transform="translate(0 -.021)" style="fill:#f4ee22"/>
                <path data-name="사각형 2682" transform="translate(17.312 15.791)" style="fill:#f4ee22" d="M0 0h.222v8.012H0z"/>
                <path data-name="사각형 2683" transform="translate(16.717 29.362)" style="fill:#8c6239" d="M0 0h1.445v40.68H0z"/>
                <path data-name="패스 11683" d="M13.66 31.366c-2.21-.9-3.695-.272-4.224 1.029s.1 2.783 2.307 3.68 5.7-.431 5.7-.431-1.568-3.38-3.779-4.278" transform="translate(0 -.042)" style="fill:#a1d438"/>
                <path data-name="패스 11684" d="M13.66 37.112c-2.21-.9-3.695-.272-4.224 1.029s.1 2.783 2.307 3.68 5.7-.431 5.7-.431-1.568-3.38-3.779-4.278" transform="translate(0 -.05)" style="fill:#a1d438"/>
                <path data-name="패스 11685" d="M13.66 42.857c-2.21-.9-3.695-.272-4.224 1.029s.1 2.783 2.307 3.68 5.7-.431 5.7-.431-1.568-3.38-3.779-4.278" transform="translate(0 -.058)" style="fill:#a1d438"/>
                <path data-name="패스 11686" d="M13.66 48.6c-2.21-.9-3.695-.272-4.224 1.029s.1 2.783 2.307 3.68 5.7-.431 5.7-.431S15.871 49.5 13.66 48.6" transform="translate(0 -.066)" style="fill:#a1d438"/>
                <path data-name="패스 11687" d="M13.66 54.348c-2.21-.9-3.695-.272-4.224 1.029s.1 2.783 2.307 3.68 5.7-.431 5.7-.431-1.568-3.38-3.779-4.278" transform="translate(0 -.074)" style="fill:#a1d438"/>
                <path data-name="패스 11688" d="M13.66 60.093c-2.21-.9-3.695-.272-4.224 1.029s.1 2.783 2.307 3.68 5.7-.431 5.7-.431-1.568-3.38-3.779-4.278" transform="translate(0 -.082)" style="fill:#a1d438"/>
                <path data-name="패스 11689" d="M21.219 31.366c2.21-.9 3.695-.272 4.225 1.029s-.1 2.783-2.308 3.68-5.7-.431-5.7-.431 1.569-3.38 3.78-4.278" transform="translate(0 -.042)" style="fill:#a1d438"/>
                <path data-name="패스 11690" d="M21.219 37.112c2.21-.9 3.695-.272 4.225 1.029s-.1 2.783-2.308 3.68-5.7-.431-5.7-.431 1.569-3.38 3.78-4.278" transform="translate(0 -.05)" style="fill:#a1d438"/>
                <path data-name="패스 11691" d="M21.219 42.857c2.21-.9 3.695-.272 4.225 1.029s-.1 2.783-2.308 3.68-5.7-.431-5.7-.431 1.569-3.38 3.78-4.278" transform="translate(0 -.058)" style="fill:#a1d438"/>
                <path data-name="패스 11692" d="M21.219 48.6c2.21-.9 3.695-.272 4.225 1.029s-.1 2.783-2.308 3.68-5.7-.431-5.7-.431 1.569-3.38 3.78-4.278" transform="translate(0 -.066)" style="fill:#a1d438"/>
                <path data-name="패스 11693" d="M21.219 54.348c2.21-.9 3.695-.272 4.225 1.029s-.1 2.783-2.308 3.68-5.7-.431-5.7-.431 1.569-3.38 3.78-4.278" transform="translate(0 -.074)" style="fill:#a1d438"/>
                <path data-name="패스 11694" d="M21.219 60.093c2.21-.9 3.695-.272 4.225 1.029s-.1 2.783-2.308 3.68-5.7-.431-5.7-.431 1.569-3.38 3.78-4.278" transform="translate(0 -.082)" style="fill:#a1d438"/>
                <path data-name="패스 11695" d="M18.794 24.566c0 2.214-.614 3.272-1.371 3.272s-1.372-1.059-1.372-3.272a12 12 0 0 1 1.372-4.746 12 12 0 0 1 1.371 4.746" transform="translate(0 -.027)" style="fill:#f4e919"/>
                <path data-name="패스 11696" d="M17.212 24.517c1.135 1.9 1.149 3.126.5 3.512s-1.72-.207-2.855-2.11a12 12 0 0 1-1.257-4.778 12.015 12.015 0 0 1 3.61 3.377" transform="translate(0 -.029)" style="fill:#f4ee22"/>
                <path data-name="패스 11697" d="M17.919 24.517c-1.135 1.9-1.149 3.126-.5 3.512s1.72-.207 2.855-2.11a12 12 0 0 0 1.253-4.778 12.015 12.015 0 0 0-3.61 3.377" transform="translate(0 -.029)" style="fill:#f4ee22"/>
                <path data-name="패스 11698" d="M19.761 25.141c-2.372 1.215-3.168 2.453-2.752 3.26s1.886.884 4.258-.332A14.454 14.454 0 0 0 25.6 24a14.481 14.481 0 0 0-5.837 1.14" transform="translate(0 -.033)" style="fill:#f4e919"/>
                <path data-name="패스 11699" d="M15.061 25.141c2.372 1.215 3.168 2.453 2.752 3.26s-1.886.884-4.258-.332A14.454 14.454 0 0 1 9.224 24a14.481 14.481 0 0 1 5.837 1.14" transform="translate(0 -.033)" style="fill:#f4e919"/>
                <path data-name="패스 11700" d="M21.033 26.458c-2.632.424-3.772 1.354-3.626 2.253s1.52 1.423 4.152 1a14.474 14.474 0 0 0 5.379-2.535 14.473 14.473 0 0 0-5.906-.717" transform="translate(0 -.036)" style="fill:#f2d81c"/>
                <path data-name="패스 11701" d="M13.781 26.458c2.632.424 3.771 1.354 3.625 2.253s-1.519 1.423-4.151 1a14.482 14.482 0 0 1-5.38-2.535 14.469 14.469 0 0 1 5.906-.717" transform="translate(0 -.036)" style="fill:#f2d81c"/>
                <path data-name="패스 11702" d="M18.794 28.276c0 1.363-.614 2.014-1.371 2.014s-1.372-.651-1.372-2.014a5.63 5.63 0 0 1 1.372-2.922 5.632 5.632 0 0 1 1.371 2.922" transform="translate(0 -.034)" style="fill:#f2d81c"/>
                <path data-name="패스 11703" d="M37.362 23.331c2.855-1.158 4.773-.352 5.457 1.329s-.126 3.6-2.981 4.754-7.356-.557-7.356-.557 2.026-4.367 4.882-5.525" transform="translate(0 -.031)" style="fill:#94b524"/>
                <path data-name="패스 11704" d="M37.362 31.33c2.855-1.158 4.773-.352 5.457 1.329s-.126 3.6-2.981 4.754-7.356-.557-7.356-.557 2.026-4.367 4.882-5.525" transform="translate(0 -.042)" style="fill:#94b524"/>
                <path data-name="패스 11705" d="M37.362 39.328c2.855-1.158 4.773-.352 5.457 1.329s-.126 3.6-2.981 4.754-7.356-.557-7.356-.557 2.026-4.367 4.882-5.525" transform="translate(0 -.053)" style="fill:#94b524"/>
                <path data-name="패스 11706" d="M37.362 47.326c2.855-1.158 4.773-.352 5.457 1.329s-.126 3.6-2.981 4.754-7.356-.557-7.356-.557 2.026-4.367 4.882-5.525" transform="translate(0 -.064)" style="fill:#94b524"/>
                <path data-name="패스 11707" d="M37.362 55.324c2.855-1.158 4.773-.352 5.457 1.329s-.126 3.6-2.981 4.754-7.356-.557-7.356-.557 2.026-4.367 4.882-5.525" transform="translate(0 -.075)" style="fill:#94b524"/>
                <path data-name="패스 11708" d="M27.6 23.331c-2.855-1.158-4.773-.352-5.457 1.329s.126 3.6 2.981 4.754 7.356-.557 7.356-.557-2.026-4.367-4.882-5.525" transform="translate(0 -.031)" style="fill:#94b524"/>
                <path data-name="패스 11709" d="M27.6 31.33c-2.855-1.158-4.773-.352-5.457 1.329s.126 3.6 2.981 4.754 7.356-.557 7.356-.557-2.026-4.366-4.88-5.525" transform="translate(0 -.042)" style="fill:#94b524"/>
                <path data-name="패스 11710" d="M27.6 39.328c-2.855-1.158-4.773-.352-5.457 1.329s.126 3.6 2.981 4.754 7.356-.557 7.356-.557-2.026-4.367-4.882-5.525" transform="translate(0 -.053)" style="fill:#94b524"/>
                <path data-name="패스 11711" d="M27.6 47.326c-2.855-1.158-4.773-.352-5.457 1.329s.126 3.6 2.981 4.754 7.356-.557 7.356-.557-2.026-4.367-4.882-5.525" transform="translate(0 -.064)" style="fill:#94b524"/>
                <path data-name="패스 11712" d="M27.6 55.324c-2.855-1.158-4.773-.352-5.457 1.329s.126 3.6 2.981 4.754 7.356-.557 7.356-.557-2.026-4.367-4.882-5.525" transform="translate(0 -.075)" style="fill:#94b524"/>
                <path data-name="패스 11713" d="M32.6 15.129h-.287c0-4.373-3.834-11.859-3.871-11.934l.255-.131c.039.075 3.9 7.623 3.9 12.064" transform="translate(0 -.004)" style="fill:#f4ee22"/>
                <path data-name="패스 11714" d="M29.063 3.129a.49.49 0 1 1-.49-.489.49.49 0 0 1 .49.489" transform="translate(0 -.003)" style="fill:#f4ee22"/>
                <path data-name="패스 11715" d="M31.414 16.534c-1.678-4.039-8.091-9.485-8.156-9.539l.186-.219c.016.013 1.647 1.4 3.466 3.26a22.734 22.734 0 0 1 4.771 6.385z" transform="translate(0 -.009)" style="fill:#f4ee22"/>
                <path data-name="패스 11716" d="M23.8 6.7a.489.489 0 1 1-.64-.264.488.488 0 0 1 .64.264" transform="translate(0 -.008)" style="fill:#f4ee22"/>
                <path data-name="패스 11717" d="m33.505 16.534-.265-.11a22.734 22.734 0 0 1 4.77-6.386 54.172 54.172 0 0 1 3.467-3.26l.185.22c-.064.054-6.475 5.5-8.156 9.538" transform="translate(0 -.009)" style="fill:#f4ee22"/>
                <path data-name="패스 11718" d="M41.117 6.7a.489.489 0 1 0 .64-.264.488.488 0 0 0-.64.264" transform="translate(0 -.008)" style="fill:#f4ee22"/>
                <path data-name="패스 11719" d="M32.6 15.129h-.287c0-4.442 3.864-11.988 3.9-12.064l.255.131c-.038.075-3.871 7.561-3.871 11.934" transform="translate(0 -.004)" style="fill:#f4ee22"/>
                <path data-name="패스 11720" d="M35.857 3.129a.49.49 0 1 0 .49-.489.49.49 0 0 0-.49.489" transform="translate(0 -.003)" style="fill:#f4ee22"/>
                <path data-name="패스 11721" d="M31.965.489a.49.49 0 1 0 .49-.489.49.49 0 0 0-.49.489" style="fill:#f4ee22"/>
                <path data-name="사각형 2684" transform="translate(32.317 .297)" style="fill:#f4ee22" d="M0 0h.287v10.349H0z"/>
                <path data-name="사각형 2685" transform="translate(31.549 17.826)" style="fill:#8c6239" d="M0 0h1.867v52.215H0z"/>
                <path data-name="패스 11722" d="M27.6 20.389c-2.855-1.158-4.773-.352-5.457 1.329s.126 3.6 2.981 4.754 7.356-.557 7.356-.557-2.026-4.366-4.88-5.525" transform="translate(0 -.027)" style="fill:#a1d438"/>
                <path data-name="패스 11723" d="M27.6 27.81c-2.855-1.158-4.773-.352-5.457 1.329s.126 3.6 2.981 4.754 7.356-.557 7.356-.557-2.026-4.366-4.88-5.525" transform="translate(0 -.037)" style="fill:#a1d438"/>
                <path data-name="패스 11724" d="M27.6 35.232c-2.855-1.158-4.773-.352-5.457 1.329s.126 3.6 2.981 4.754 7.356-.557 7.356-.557-2.026-4.367-4.882-5.525" transform="translate(0 -.047)" style="fill:#a1d438"/>
                <path data-name="패스 11725" d="M27.6 42.656c-2.855-1.158-4.773-.352-5.457 1.329s.126 3.6 2.981 4.754 7.356-.557 7.356-.557-2.025-4.369-4.88-5.526" transform="translate(0 -.057)" style="fill:#a1d438"/>
                <path data-name="패스 11726" d="M27.6 50.075c-2.855-1.158-4.773-.352-5.457 1.329s.126 3.6 2.981 4.754 7.356-.558 7.356-.558-2.026-4.367-4.882-5.525" transform="translate(0 -.068)" style="fill:#a1d438"/>
                <path data-name="패스 11727" d="M27.6 57.5c-2.855-1.158-4.773-.351-5.457 1.329s.126 3.6 2.981 4.754 7.356-.557 7.356-.557-2.026-4.371-4.88-5.526" transform="translate(0 -.078)" style="fill:#a1d438"/>
                <path data-name="패스 11728" d="M37.362 20.389c2.855-1.158 4.773-.352 5.457 1.329s-.126 3.6-2.981 4.754-7.356-.557-7.356-.557 2.026-4.367 4.882-5.525" transform="translate(0 -.027)" style="fill:#a1d438"/>
                <path data-name="패스 11729" d="M37.362 27.81c2.855-1.158 4.773-.352 5.457 1.329s-.126 3.6-2.981 4.754-7.356-.557-7.356-.557 2.026-4.367 4.882-5.525" transform="translate(0 -.037)" style="fill:#a1d438"/>
                <path data-name="패스 11730" d="M37.362 35.232c2.855-1.158 4.773-.352 5.457 1.329s-.126 3.6-2.981 4.754-7.356-.557-7.356-.557 2.026-4.367 4.882-5.525" transform="translate(0 -.047)" style="fill:#a1d438"/>
                <path data-name="패스 11731" d="M37.362 42.656c2.855-1.158 4.773-.352 5.457 1.329s-.126 3.6-2.981 4.754-7.356-.557-7.356-.557 2.027-4.369 4.88-5.526" transform="translate(0 -.057)" style="fill:#a1d438"/>
                <path data-name="패스 11732" d="M37.362 50.075c2.855-1.158 4.773-.352 5.457 1.329s-.126 3.6-2.981 4.754-7.356-.557-7.356-.557 2.026-4.367 4.882-5.525" transform="translate(0 -.068)" style="fill:#a1d438"/>
                <path data-name="패스 11733" d="M37.362 57.5c2.855-1.158 4.773-.351 5.457 1.329s-.126 3.6-2.981 4.754-7.356-.557-7.356-.557 2.026-4.367 4.882-5.525" transform="translate(0 -.078)" style="fill:#a1d438"/>
                <path data-name="패스 11734" d="M34.232 11.6c0 2.86-.793 4.227-1.772 4.227s-1.772-1.367-1.772-4.227a15.5 15.5 0 0 1 1.772-6.127 15.5 15.5 0 0 1 1.772 6.127" transform="translate(0 -.007)" style="fill:#f4e919"/>
                <path data-name="패스 11735" d="M32.188 11.54c1.466 2.458 1.484 4.035.643 4.537s-2.222-.269-3.688-2.726a15.512 15.512 0 0 1-1.62-6.173 15.505 15.505 0 0 1 4.662 4.362" transform="translate(0 -.009)" style="fill:#f4ee22"/>
                <path data-name="패스 11736" d="M33.1 11.54c-1.466 2.458-1.484 4.035-.643 4.537s2.222-.269 3.688-2.726a15.5 15.5 0 0 0 1.619-6.173A15.505 15.505 0 0 0 33.1 11.54" transform="translate(0 -.009)" style="fill:#f4ee22"/>
                <path data-name="패스 11737" d="M35.481 12.348c-3.064 1.571-4.093 3.169-3.554 4.214s2.434 1.142 5.5-.428 5.6-5.26 5.6-5.26-4.477-.1-7.54 1.475" transform="translate(0 -.015)" style="fill:#f4e919"/>
                <path data-name="패스 11738" d="M29.41 12.348c3.063 1.571 4.092 3.169 3.553 4.214s-2.434 1.142-5.5-.428-5.594-5.261-5.594-5.261 4.476-.1 7.541 1.474" transform="translate(0 -.015)" style="fill:#f4e919"/>
                <path data-name="패스 11739" d="M37.123 14.047c-3.4.548-4.872 1.751-4.685 2.91S34.4 18.8 37.8 18.248s6.948-3.275 6.948-3.275-4.227-1.474-7.626-.926" transform="translate(0 -.019)" style="fill:#f2d81c"/>
                <path data-name="패스 11740" d="M27.754 14.047c3.4.548 4.872 1.751 4.685 2.91s-1.964 1.838-5.364 1.292-6.948-3.275-6.948-3.275 4.227-1.474 7.627-.926" transform="translate(0 -.019)" style="fill:#f2d81c"/>
                <path data-name="패스 11741" d="M34.232 16.4c0 1.759-.793 2.6-1.772 2.6s-1.772-.842-1.772-2.6 1.772-3.777 1.772-3.777 1.772 2.013 1.772 3.777" transform="translate(0 -.017)" style="fill:#f2d81c"/>
                <path data-name="사각형 2686" transform="translate(9.259 70.042)" style="fill:#fff" d="M0 0h47.276v5.831H0z"/>
                <path data-name="패스 11742" d="m10.679 75.976.72 3.284h43l.719-3.284z" transform="translate(0 -.104)" style="fill:#e6e6e6"/>
                <path data-name="패스 11743" d="M54.4 79.264h-43l3.688 16.844h9.788V95a1.307 1.307 0 0 1 2.614 0v1.112h3.435V95a1.307 1.307 0 0 1 2.614 0v1.112h3.434V95a1.308 1.308 0 0 1 2.615 0v1.115H50.7z" transform="translate(0 -.109)" style="fill:#fff"/>
                <path data-name="패스 11744" d="M55.962 11.084a1.921 1.921 0 0 0 1.461-1.534c.034-.241-.34-.636-.38-1.038-.162-1.7-.6-4.191-2.045-2.587a13.965 13.965 0 0 0-2.53 4.882 7.666 7.666 0 0 1-.353-3.466 2.688 2.688 0 0 1 .594-1.618 1 1 0 0 1 1.036-.032l.046-.1a1.107 1.107 0 0 0-1.147.044h-.007l-.006.006a2.793 2.793 0 0 0-.622 1.683 7.839 7.839 0 0 0 .407 3.659l-.039.141-.138-.043a7.861 7.861 0 0 0-2.875-2.31 2.785 2.785 0 0 0-1.755-.379h-.016a1.1 1.1 0 0 0-.653.941l.107.013a.991.991 0 0 1 .584-.854 2.693 2.693 0 0 1 1.683.368 7.7 7.7 0 0 1 2.74 2.162 13.961 13.961 0 0 0-5.482-.492c-2.133.357-.259 2.066 1.088 3.115.318.25.45.776.673.88a1.928 1.928 0 0 0 2.082-.409s-.933 3.139.989 3.034 1.46.338 2.012.306.893-2.819.893-2.819 2.538 1.211 2.861.763-.3-.3.822-1.859-2.031-2.463-2.031-2.463" transform="translate(0 -.007)" style="fill:#1f5a2c"/>
                <path data-name="패스 11745" d="M57.054 9.051a1.921 1.921 0 0 0 1.461-1.534c.034-.241-.34-.636-.38-1.038-.162-1.7-.6-4.191-2.045-2.587a13.965 13.965 0 0 0-2.53 4.882 7.666 7.666 0 0 1-.353-3.466 2.688 2.688 0 0 1 .593-1.622 1 1 0 0 1 1.036-.032l.046-.1a1.109 1.109 0 0 0-1.147.044h-.007l-.006.006a2.793 2.793 0 0 0-.622 1.689 7.839 7.839 0 0 0 .407 3.659c-.026.091-.038.141-.038.141l-.139-.043a7.861 7.861 0 0 0-2.875-2.31 2.785 2.785 0 0 0-1.755-.379h-.015a1.1 1.1 0 0 0-.653.941l.107.013a.991.991 0 0 1 .584-.854 2.693 2.693 0 0 1 1.683.368A7.7 7.7 0 0 1 53.147 9a13.961 13.961 0 0 0-5.482-.5c-2.133.357-.259 2.066 1.088 3.115.318.25.45.776.673.88a1.928 1.928 0 0 0 2.082-.409s-.933 3.139.989 3.034 1.46.338 2.012.306.893-2.819.893-2.819 2.538 1.211 2.861.763-.3-.3.822-1.859-2.031-2.461-2.031-2.461" transform="translate(0 -.004)" style="fill:#ffeb00"/>
                <path data-name="패스 11746" d="M62.188 23.813a1.311 1.311 0 0 0 1-1.048c.023-.165-.232-.434-.259-.709-.112-1.158-.411-2.863-1.4-1.768a9.533 9.533 0 0 0-1.729 3.336 5.244 5.244 0 0 1-.241-2.368 1.838 1.838 0 0 1 .406-1.105.681.681 0 0 1 .708-.021l.031-.066a.758.758 0 0 0-.784.029h-.005a1.907 1.907 0 0 0-.424 1.149 5.352 5.352 0 0 0 .278 2.5c-.018.062-.027.1-.027.1l-.094-.03a5.373 5.373 0 0 0-1.964-1.578 1.911 1.911 0 0 0-1.2-.26h-.011a.751.751 0 0 0-.445.643l.072.008a.679.679 0 0 1 .4-.583 1.833 1.833 0 0 1 1.149.253 5.258 5.258 0 0 1 1.872 1.476 9.552 9.552 0 0 0-3.745-.336c-1.457.243-.177 1.411.743 2.127.218.171.308.53.46.6a1.316 1.316 0 0 0 1.422-.28s-.637 2.144.676 2.072 1 .232 1.374.21.61-1.926.61-1.926 1.735.827 1.955.521-.205-.2.561-1.27-1.387-1.682-1.387-1.682" transform="translate(0 -.027)" style="fill:#1f5a2c"/>
                <path data-name="패스 11747" d="M62.935 22.424a1.311 1.311 0 0 0 1-1.048c.024-.165-.231-.434-.258-.709-.112-1.158-.411-2.863-1.4-1.768a9.5 9.5 0 0 0-1.728 3.335 5.231 5.231 0 0 1-.242-2.368 1.839 1.839 0 0 1 .407-1.105.679.679 0 0 1 .707-.021l.031-.066a.758.758 0 0 0-.784.029h-.005a1.9 1.9 0 0 0-.424 1.149 5.326 5.326 0 0 0 .278 2.5c-.019.062-.027.1-.027.1l-.1-.03a5.37 5.37 0 0 0-1.963-1.578 1.911 1.911 0 0 0-1.2-.26h-.012a.752.752 0 0 0-.445.643l.073.008a.678.678 0 0 1 .4-.583 1.834 1.834 0 0 1 1.15.253 5.246 5.246 0 0 1 1.871 1.476 9.544 9.544 0 0 0-3.744-.336c-1.458.243-.178 1.411.743 2.127.217.171.307.53.459.6a1.317 1.317 0 0 0 1.423-.28s-.638 2.144.675 2.072 1 .232 1.374.21.611-1.926.611-1.926 1.735.827 1.954.521-.2-.2.561-1.27-1.386-1.682-1.386-1.682" transform="translate(0 -.025)" style="fill:#fff"/>
                <path data-name="패스 11748" d="M9.84 11.294A1.923 1.923 0 0 1 8.377 9.76c-.032-.242.341-.636.382-1.039.162-1.7.6-4.19 2.045-2.586a13.965 13.965 0 0 1 2.53 4.882 7.666 7.666 0 0 0 .353-3.466 2.683 2.683 0 0 0-.593-1.618 1 1 0 0 0-1.036-.033l-.046-.1a1.107 1.107 0 0 1 1.147.043h.007l.006.006a2.8 2.8 0 0 1 .622 1.683 7.836 7.836 0 0 1-.407 3.659l.039.141.138-.043a7.868 7.868 0 0 1 2.873-2.308 2.785 2.785 0 0 1 1.755-.381h.015a1.1 1.1 0 0 1 .654.941l-.107.013a.991.991 0 0 0-.582-.855 2.69 2.69 0 0 0-1.684.368 7.688 7.688 0 0 0-2.739 2.162 13.961 13.961 0 0 1 5.482-.492c2.132.357.259 2.065-1.088 3.115-.319.25-.451.776-.673.88a1.927 1.927 0 0 1-2.082-.409s.933 3.139-.989 3.034-1.46.338-2.012.306-.893-2.819-.893-2.819-2.539 1.21-2.861.763.3-.3-.822-1.859 2.031-2.463 2.031-2.463" transform="translate(0 -.007)" style="fill:#1f5a2c"/>
                <path data-name="패스 11749" d="M8.748 9.26a1.923 1.923 0 0 1-1.463-1.534c-.032-.242.341-.636.382-1.039.162-1.7.6-4.19 2.045-2.586a13.965 13.965 0 0 1 2.53 4.882 7.666 7.666 0 0 0 .358-3.466 2.683 2.683 0 0 0-.6-1.622 1 1 0 0 0-1.036-.032l-.046-.1a1.107 1.107 0 0 1 1.147.043h.007l.006.006A2.8 2.8 0 0 1 12.7 5.5a7.836 7.836 0 0 1-.4 3.659l.039.141.138-.043a7.868 7.868 0 0 1 2.873-2.308 2.785 2.785 0 0 1 1.75-.379h.016a1.1 1.1 0 0 1 .654.941l-.107.013a.991.991 0 0 0-.582-.855 2.69 2.69 0 0 0-1.684.368A7.688 7.688 0 0 0 12.658 9.2a13.961 13.961 0 0 1 5.482-.492c2.132.357.259 2.065-1.088 3.115-.319.25-.451.776-.673.88A1.927 1.927 0 0 1 14.3 12.3s.933 3.139-.989 3.034-1.46.338-2.012.306-.893-2.819-.893-2.819-2.539 1.21-2.861.763.3-.3-.822-1.859 2.028-2.467 2.028-2.467" transform="translate(0 -.005)" style="fill:#a3d0ff"/>
                <path data-name="패스 11750" d="M2.448 30.773a1.4 1.4 0 0 1-1.065-1.117c-.024-.176.248-.462.278-.756.118-1.234.437-3.052 1.489-1.883a10.164 10.164 0 0 1 1.843 3.556 5.605 5.605 0 0 0 .257-2.525 1.962 1.962 0 0 0-.432-1.178.726.726 0 0 0-.754-.023l-.034-.072a.8.8 0 0 1 .835.032h.006a2.038 2.038 0 0 1 .452 1.225 5.7 5.7 0 0 1-.3 2.665l.028.1.1-.031a5.719 5.719 0 0 1 2.092-1.681 2.028 2.028 0 0 1 1.279-.277h.011a.8.8 0 0 1 .476.685l-.077.009a.724.724 0 0 0-.425-.622 1.954 1.954 0 0 0-1.226.269A5.6 5.6 0 0 0 5.3 30.732a10.185 10.185 0 0 1 3.993-.359c1.553.26.188 1.5-.793 2.269-.232.182-.328.565-.49.64a1.4 1.4 0 0 1-1.516-.3s.679 2.285-.72 2.209-1.074.249-1.474.226-.65-2.053-.65-2.053-1.849.882-2.083.556.217-.217-.6-1.354 1.483-1.794 1.483-1.794" transform="translate(0 -.036)" style="fill:#1f5a2c"/>
                <path data-name="패스 11751" d="M1.653 29.292a1.4 1.4 0 0 1-1.065-1.117c-.024-.176.248-.462.278-.756.118-1.234.437-3.052 1.489-1.883A10.164 10.164 0 0 1 4.2 29.092a5.605 5.605 0 0 0 .257-2.525 1.962 1.962 0 0 0-.432-1.178.726.726 0 0 0-.754-.023l-.034-.072a.8.8 0 0 1 .835.032h.006a2.038 2.038 0 0 1 .452 1.225 5.7 5.7 0 0 1-.3 2.665l.028.1.1-.031a5.719 5.719 0 0 1 2.099-1.675 2.028 2.028 0 0 1 1.279-.277h.011a.8.8 0 0 1 .476.685l-.077.009a.724.724 0 0 0-.425-.622 1.954 1.954 0 0 0-1.226.269A5.6 5.6 0 0 0 4.5 29.251a10.185 10.185 0 0 1 3.993-.359c1.553.26.188 1.5-.793 2.269-.232.182-.328.565-.49.64a1.4 1.4 0 0 1-1.516-.3s.679 2.285-.72 2.209-1.064.246-1.466.223-.65-2.053-.65-2.053-1.849.882-2.083.556.217-.217-.6-1.354 1.479-1.794 1.479-1.794" transform="translate(0 -.034)" style="fill:#f6c0fc"/>
            </g>
        </g>
    </g>
</svg>
