<svg xmlns="http://www.w3.org/2000/svg" width="100" height="100" viewBox="0 0 100 100">
    <defs>
        <clipPath id="ocqg2g58ta">
            <path data-name="사각형 2748" transform="translate(0 .001)" style="fill:none" d="M0 0h47.686v72.95H0z"/>
        </clipPath>
    </defs>
    <g data-name="그룹 2500">
        <path data-name="사각형 2612" style="fill:none" d="M0 0h100v100H0z"/>
        <g data-name="그룹 2437">
            <g data-name="그룹 2436" style="clip-path:url(#ocqg2g58ta)" transform="translate(26 27)">
                <path data-name="패스 12727" d="M20.114 40.844a5.1 5.1 0 0 0-4.078-4.275l.251-.967a6.124 6.124 0 0 1 4.8 5.009z" style="fill:#418c48"/>
                <path data-name="패스 12728" d="M13.5 37.163c2.228.511 3.359-.211 3.623-1.362l-8.068-1.85s2.217 2.7 4.445 3.212" style="fill:#418c48"/>
                <path data-name="패스 12729" d="M14.456 33c-2.228-.511-5.4.954-5.4.954l8.068 1.846c.264-1.15-.439-2.293-2.667-2.8" style="fill:#91d09f"/>
                <path data-name="패스 12730" d="m27.779 40.844-.973-.233a6.124 6.124 0 0 1 4.8-5.009l.251.967a5.1 5.1 0 0 0-4.077 4.275" style="fill:#418c48"/>
                <path data-name="패스 12731" d="M34.392 37.163c-2.228.511-3.359-.211-3.623-1.362l8.068-1.85s-2.217 2.7-4.445 3.212" style="fill:#418c48"/>
                <path data-name="패스 12732" d="M33.437 33c2.228-.511 5.4.954 5.4.954L30.769 35.8c-.264-1.15.439-2.293 2.667-2.8" style="fill:#91d09f"/>
                <path data-name="패스 12733" d="M17.7 31.47a17.745 17.745 0 0 0-13.345-5.42l-.088-1a18.413 18.413 0 0 1 14.159 5.732z" style="fill:#418c48"/>
                <path data-name="패스 12734" d="M23.946 22.227c-.591 0-2.391 0-5.22-12.753l.976-.216c2.178 9.819 3.8 11.969 4.244 11.969s2.066-2.15 4.245-11.969l.977.216c-2.829 12.753-4.629 12.753-5.221 12.753" style="fill:#418c48"/>
                <path data-name="사각형 2745" transform="translate(23.446 6.284)" style="fill:#418c48" d="M0 0h1v48.269H0z"/>
                <path data-name="패스 12735" d="m30.2 31.471-.729-.683a18.409 18.409 0 0 1 14.159-5.732l-.088 1a17.718 17.718 0 0 0-13.342 5.42" style="fill:#418c48"/>
                <path data-name="패스 12736" d="M23.946 22.226z" style="fill:#418c48"/>
                <path data-name="패스 12737" d="m8.865 17.635-.7.712a35.833 35.833 0 0 1 12.26 27.437h1a36.843 36.843 0 0 0-12.56-28.149" style="fill:#418c48"/>
                <path data-name="패스 12738" d="M33.355 12.109a21.2 21.2 0 0 1-1.716 3.591c-1.236 2.065-3.888 5.529-7.7 5.529s-6.461-3.464-7.7-5.529a21.176 21.176 0 0 1-1.739-3.674l-.814.566c1.859 4.893 5.436 9.629 10.257 9.634 4.794 0 8.359-4.689 10.227-9.552z" style="fill:#418c48"/>
                <path data-name="패스 12739" d="M26.464 45.785h1A35.829 35.829 0 0 1 39.64 18.427l-.7-.712a36.843 36.843 0 0 0-12.479 28.07" style="fill:#418c48"/>
                <path data-name="패스 12740" d="M43.241 27.092c-2.228.511-3.359-.211-3.623-1.362l8.068-1.85s-2.217 2.7-4.445 3.212" style="fill:#418c48"/>
                <path data-name="패스 12741" d="M42.286 22.926c2.228-.511 5.4.954 5.4.954l-8.068 1.851c-.264-1.15.439-2.293 2.667-2.8" style="fill:#91d09f"/>
                <path data-name="패스 12742" d="M40.208 19.681c-1.681 1.549-3.02 1.484-3.821.615l6.086-5.609s-.585 3.444-2.265 4.994" style="fill:#418c48"/>
                <path data-name="패스 12743" d="M37.312 16.538c1.681-1.549 5.162-1.851 5.162-1.851L36.388 20.3c-.8-.867-.757-2.208.926-3.754" style="fill:#91d09f"/>
                <path data-name="패스 12744" d="M35.345 13.606c-1.169 1.964-2.472 2.284-3.487 1.68l4.234-7.113s.421 3.468-.747 5.433" style="fill:#418c48"/>
                <path data-name="패스 12745" d="M31.673 11.419c1.169-1.964 4.419-3.247 4.419-3.247l-4.233 7.114c-1.014-.6-1.355-1.9-.183-3.863" style="fill:#91d09f"/>
                <path data-name="패스 12746" d="M30.634 9.877c-.8 2.142-2.024 2.689-3.131 2.276L30.4 4.4s1.035 3.337.237 5.479" style="fill:#418c48"/>
                <path data-name="패스 12747" d="M26.629 8.383C27.428 6.241 30.4 4.4 30.4 4.4l-2.9 7.754c-1.1-.412-1.673-1.628-.87-3.767" style="fill:#91d09f"/>
                <path data-name="패스 12748" d="M26.06 5.095c-.049 2.285-1.026 3.205-2.206 3.18L24.032 0s2.076 2.809 2.028 5.095" style="fill:#418c48"/>
                <path data-name="패스 12749" d="M21.787 5c.049-2.285 2.245-5 2.245-5l-.177 8.276c-1.18-.025-2.116-.986-2.063-3.271" style="fill:#91d09f"/>
                <path data-name="패스 12750" d="M4.445 27.092C2.217 26.58 0 23.88 0 23.88l8.068 1.85c-.268 1.151-1.395 1.87-3.623 1.362" style="fill:#418c48"/>
                <path data-name="패스 12751" d="M5.4 22.931c2.228.507 2.931 1.65 2.667 2.8L0 23.88s3.172-1.465 5.4-.954" style="fill:#91d09f"/>
                <path data-name="패스 12752" d="M20.195 34.382c-1.87-1.314-2.906-4.651-2.906-4.651l6.775 4.756c-.678.966-2 1.208-3.869-.1" style="fill:#418c48"/>
                <path data-name="패스 12753" d="M22.649 30.888c1.872 1.31 2.092 2.633 1.414 3.6l-6.774-4.758s3.49-.16 5.361 1.153" style="fill:#91d09f"/>
                <path data-name="패스 12754" d="M7.478 19.681c-1.68-1.55-2.265-4.994-2.265-4.994L11.3 20.3c-.8.869-2.14.934-3.821-.615" style="fill:#418c48"/>
                <path data-name="패스 12755" d="M10.373 16.543c1.683 1.546 1.726 2.887.926 3.754l-6.086-5.61s3.481.3 5.162 1.851" style="fill:#91d09f"/>
                <path data-name="패스 12756" d="M30.592 22.181c-1.68-1.55-2.265-4.994-2.265-4.994l6.086 5.613c-.8.869-2.14.934-3.821-.615" style="fill:#418c48"/>
                <path data-name="패스 12757" d="M33.487 19.043c1.683 1.546 1.726 2.887.926 3.754l-6.086-5.61s3.481.3 5.162 1.851" style="fill:#91d09f"/>
                <path data-name="패스 12758" d="M12.341 13.606c-1.168-1.965-.747-5.433-.747-5.433l4.234 7.113c-1.015.6-2.318.284-3.487-1.68" style="fill:#418c48"/>
                <path data-name="패스 12759" d="M16.011 11.424c1.172 1.962.831 3.259-.183 3.863L11.6 8.173s3.25 1.283 4.419 3.247" style="fill:#91d09f"/>
                <path data-name="패스 12760" d="M17.053 9.877c-.8-2.142.237-5.479.237-5.479l2.894 7.755c-1.107.413-2.332-.134-3.131-2.276" style="fill:#418c48"/>
                <path data-name="패스 12761" d="M21.053 8.386c.8 2.139.235 3.355-.871 3.768L17.289 4.4s2.969 1.843 3.768 3.984" style="fill:#91d09f"/>
                <path data-name="패스 12762" d="M21.626 5.095C21.578 2.809 23.654 0 23.654 0l.178 8.275c-1.18.025-2.157-.895-2.206-3.18" style="fill:#418c48"/>
                <path data-name="패스 12763" d="M25.9 5.005c.053 2.284-.883 3.245-2.063 3.271L23.654 0s2.2 2.717 2.246 5" style="fill:#91d09f"/>
                <path data-name="패스 12764" d="M27.764 27.023c-1.72 1.506-3.058 1.4-3.836.517l6.229-5.451s-.673 3.428-2.393 4.934" style="fill:#418c48"/>
                <path data-name="패스 12765" d="M24.949 23.807c1.72-1.506 5.208-1.718 5.208-1.718l-6.229 5.452c-.777-.888-.7-2.227 1.022-3.729" style="fill:#91d09f"/>
                <path data-name="패스 12766" d="M18.821 24c-1.162 1.968-2.465 2.292-3.481 1.692l4.209-7.128s.434 3.467-.728 5.436" style="fill:#418c48"/>
                <path data-name="패스 12767" d="M15.141 21.825c1.162-1.968 4.408-3.262 4.408-3.262l-4.209 7.128c-1.016-.6-1.361-1.9-.2-3.862" style="fill:#91d09f"/>
                <path data-name="패스 12768" d="M39.285 68.435H8.331a3.089 3.089 0 0 1-3.088-3.088h37.131a3.089 3.089 0 0 1-3.087 3.089" style="fill:#418c48"/>
                <path data-name="사각형 2746" transform="translate(8.214 68.436)" style="fill:#418c48" d="M0 0h3.195v4.515H0z"/>
                <path data-name="사각형 2747" transform="translate(36.472 68.436)" style="fill:#418c48" d="M0 0h3.195v4.515H0z"/>
                <path data-name="패스 12769" d="m37.1 63.41-3.042-16.135h-20.5l-3.04 16.135a1.638 1.638 0 0 0 1.609 1.94H35.49a1.619 1.619 0 0 0 .3-.028 1.637 1.637 0 0 0 1.31-1.912" style="fill:#91d09f"/>
                <path data-name="패스 12770" d="M33.592 44.8H14.025l-.334 1.773h20.235z" style="fill:#91d09f"/>
                <path data-name="패스 12771" d="M33.926 46.572H13.691l-.133.7h20.5z" style="fill:#56b36b"/>
            </g>
        </g>
    </g>
</svg>
