<svg xmlns="http://www.w3.org/2000/svg" width="100" height="100" viewBox="0 0 100 100">
    <defs>
        <clipPath id="eey9efdm3a">
            <path data-name="사각형 2813" style="fill:none" d="M0 0h42.045v63.905H0z"/>
        </clipPath>
    </defs>
    <g data-name="그룹 2487">
        <path data-name="사각형 2628" style="fill:none" d="M0 0h100v100H0z"/>
        <g data-name="그룹 2471">
            <g data-name="그룹 2470" style="clip-path:url(#eey9efdm3a)" transform="translate(29 36)">
                <path data-name="패스 13713" d="M34.4 2.393c-.328 2.321-2.34 5.529-3.616 6.06S28.2 7.084 28.529 4.768a5.561 5.561 0 0 1 3.405-4.5c1.622-.654 2.8-.2 2.47 2.122" style="fill:#418c48"/>
                <path data-name="패스 13714" d="M36.784 6.339c-1.748 1.561-5.355 2.714-6.673 2.3s-1.095-2.716.654-4.272a5.562 5.562 0 0 1 5.5-1.237c1.662.547 2.265 1.655.518 3.215" style="fill:#418c48"/>
                <path data-name="패스 13715" d="M29.591 25.787c-1.924-1.338-3.882-4.58-3.781-5.958s2.388-1.695 4.307-.355a5.559 5.559 0 0 1 2.483 5.065c-.146 1.743-1.084 2.587-3.007 1.25" style="fill:#418c48"/>
                <path data-name="패스 13716" d="M22.191 12.38c-2.036-1.16-4.277-4.213-4.3-5.6s2.226-1.9 4.257-.74a5.56 5.56 0 0 1 2.924 4.822c.011 1.75-.847 2.674-2.882 1.515" style="fill:#418c48"/>
                <path data-name="패스 13717" d="M15.276 31.126c-5.521 0-8.412-5.063-8.541-5.3l1.745-.976c.113.2 2.814 4.885 7.813 4.2l.273 1.98a9.329 9.329 0 0 1-1.29.091" style="fill:#418c48"/>
                <path data-name="패스 13718" d="M6.466 27.242c-2.34-.136-5.7-1.878-6.336-3.106s1.151-2.693 3.487-2.552a5.562 5.562 0 0 1 4.76 3.024c.785 1.563.427 2.772-1.912 2.636" style="fill:#418c48"/>
                <path data-name="패스 13719" d="M7.994 29.144c-1.671 1.643-5.22 2.966-6.556 2.611s-1.223-2.661.449-4.3a5.563 5.563 0 0 1 5.438-1.5c1.686.467 2.341 1.544.67 3.186" style="fill:#418c48"/>
                <path data-name="사각형 2810" transform="translate(22.542 11.544)" style="fill:#418c48" d="M0 0h2.933v32.375H0z"/>
                <path data-name="사각형 2811" transform="translate(8.821 41.276)" style="fill:#91d09f" d="M0 0h30.374v5.287H0z"/>
                <path data-name="사각형 2812" transform="translate(8.821 46.563)" style="fill:#56b36b" d="M0 0h30.374v.889H0z"/>
                <path data-name="패스 13720" d="M34.322 63.9H13.694a1.85 1.85 0 0 1-1.837-1.636L8.821 47.452h30.374L36.16 62.265a1.851 1.851 0 0 1-1.838 1.64" style="fill:#91d09f"/>
                <path data-name="패스 13721" d="M24.113 14.509 22.6 11.916c.057-.033 5.711-3.374 8.253-8.249l2.66 1.387c-2.95 5.658-9.142 9.3-9.4 9.455" style="fill:#418c48"/>
                <path data-name="패스 13722" d="m24.93 40.145-1.844-2.367.922 1.183-.923-1.182c.1-.08 10.3-8.214 9.807-20.279l3-.123c.561 13.633-10.489 22.4-10.96 22.768" style="fill:#418c48"/>
                <path data-name="패스 13723" d="M23.532 34.09c-4.4 0-7.984-2.5-10.4-7.244a25.673 25.673 0 0 1-2.35-7.346l1.982-.27c.018.133 1.932 13.246 11.2 12.848l.088 2c-.175.008-.348.012-.521.012" style="fill:#418c48"/>
                <path data-name="패스 13724" d="M24.218 19.532c-4-1.2-7.531-6.158-7.68-6.368l1.635-1.153c.032.046 3.282 4.6 6.619 5.6z" style="fill:#418c48"/>
                <path data-name="패스 13725" d="M20.545 24.01c-1.875 1.406-5.568 2.245-6.845 1.716s-.858-2.8 1.017-4.2a5.561 5.561 0 0 1 5.588-.761c1.609.687 2.115 1.842.241 3.247" style="fill:#418c48"/>
                <path data-name="패스 13726" d="M19.431 28.483c-2.34-.136-5.7-1.878-6.336-3.106s1.151-2.693 3.487-2.552a5.562 5.562 0 0 1 4.76 3.024c.785 1.563.427 2.772-1.912 2.636" style="fill:#418c48"/>
                <path data-name="패스 13727" d="M37.805 33.149c-1.875 1.406-5.568 2.245-6.845 1.716s-.858-2.8 1.017-4.2a5.561 5.561 0 0 1 5.588-.761c1.609.687 2.115 1.842.241 3.247" style="fill:#418c48"/>
                <path data-name="패스 13728" d="M36.691 37.622c-2.34-.136-5.7-1.878-6.336-3.106s1.151-2.693 3.487-2.552a5.562 5.562 0 0 1 4.76 3.024c.785 1.563.427 2.772-1.912 2.636" style="fill:#418c48"/>
                <path data-name="패스 13729" d="M38.939 13.983c-.645 2.253-3.081 5.153-4.418 5.5s-2.375-1.713-1.727-3.961a5.562 5.562 0 0 1 3.993-3.983c1.7-.424 2.8.19 2.154 2.442" style="fill:#418c48"/>
                <path data-name="패스 13730" d="M40.754 18.22c-1.946 1.305-5.679 1.948-6.926 1.353s-.709-2.841 1.237-4.141a5.56 5.56 0 0 1 5.62-.465c1.571.771 2.015 1.951.07 3.255" style="fill:#418c48"/>
                <path data-name="패스 13731" d="M13.039 20.975c-2.2.807-2.892-.246-2.593-1.97a5.564 5.564 0 0 1 3.68-4.273c2.195-.811 4.328.074 4.077 1.433s-2.965 4-5.165 4.808" style="fill:#418c48"/>
                <path data-name="패스 13732" d="M5.63 19.884c-1.993-1.23-1.594-2.426-.054-3.255a5.558 5.558 0 0 1 5.634.252c1.994 1.224 2.617 3.448 1.393 4.09s-4.978.141-6.972-1.089" style="fill:#418c48"/>
                <path data-name="패스 13733" d="M19.786 13.688c-2.069 1.1-2.9.15-2.836-1.6a5.561 5.561 0 0 1 3.064-4.734c2.065-1.1 4.3-.515 4.234.866s-2.394 4.366-4.463 5.465" style="fill:#418c48"/>
                <path data-name="패스 13734" d="M16.556 14.4c-2.336.183-5.9-1.085-6.7-2.216s.775-2.824 3.108-3a5.563 5.563 0 0 1 5.127 2.35c.991 1.442.8 2.688-1.535 2.871" style="fill:#418c48"/>
            </g>
        </g>
    </g>
</svg>
