<svg xmlns="http://www.w3.org/2000/svg" width="100" height="100" viewBox="0 0 100 100">
    <defs>
        <clipPath id="xa326zy8da">
            <path data-name="사각형 2767" style="fill:none" d="M0 0h51.845v97.981H0z"/>
        </clipPath>
    </defs>
    <g data-name="그룹 2496">
        <path data-name="사각형 2610" style="fill:none" d="M0 0h100v100H0z"/>
        <g data-name="그룹 2445">
            <g data-name="그룹 2444" style="clip-path:url(#xa326zy8da)" transform="translate(24 2)">
                <path data-name="패스 13088" d="M49.547 25.013a1.312 1.312 0 0 0 1-1.049c.023-.165-.232-.435-.259-.71-.112-1.16-.411-2.867-1.4-1.77a9.552 9.552 0 0 0-1.728 3.34 5.259 5.259 0 0 1-.241-2.371 1.842 1.842 0 0 1 .406-1.107.68.68 0 0 1 .708-.021l.031-.066a.757.757 0 0 0-.784.029 1.911 1.911 0 0 0-.424 1.151 5.366 5.366 0 0 0 .278 2.5c-.018.062-.027.1-.027.1L47 25.012a5.374 5.374 0 0 0-1.964-1.58 1.908 1.908 0 0 0-1.2-.26h-.006a.752.752 0 0 0-.445.644l.072.008a.68.68 0 0 1 .4-.584 1.831 1.831 0 0 1 1.149.253 5.259 5.259 0 0 1 1.872 1.478 9.539 9.539 0 0 0-3.745-.336c-1.457.243-.177 1.413.743 2.13.218.171.308.531.46.6a1.314 1.314 0 0 0 1.422-.28s-.637 2.147.676 2.075 1 .232 1.374.21.61-1.929.61-1.929 1.735.828 1.955.522-.205-.2.561-1.272-1.387-1.684-1.387-1.684" style="fill:#1f5a2c"/>
                <path data-name="패스 13089" d="M50.293 23.624a1.314 1.314 0 0 0 1-1.049c.023-.165-.232-.435-.259-.71-.112-1.16-.411-2.867-1.4-1.77a9.552 9.552 0 0 0-1.728 3.34 5.259 5.259 0 0 1-.241-2.371 1.842 1.842 0 0 1 .406-1.107.68.68 0 0 1 .708-.021l.031-.066a.757.757 0 0 0-.784.029h-.005a1.911 1.911 0 0 0-.424 1.151 5.366 5.366 0 0 0 .278 2.5c-.018.062-.027.1-.027.1l-.094-.03a5.374 5.374 0 0 0-1.964-1.58 1.908 1.908 0 0 0-1.2-.26h-.011a.752.752 0 0 0-.445.644l.072.008a.68.68 0 0 1 .4-.584 1.831 1.831 0 0 1 1.149.253 5.26 5.26 0 0 1 1.872 1.478 9.539 9.539 0 0 0-3.745-.336c-1.457.243-.177 1.413.743 2.13.218.171.308.531.46.6A1.314 1.314 0 0 0 46.5 25.7s-.637 2.147.676 2.075 1 .232 1.374.21.61-1.929.61-1.929 1.735.828 1.955.522-.2-.2.561-1.272-1.387-1.684-1.387-1.684" style="fill:#fff"/>
                <path data-name="패스 13090" d="M21.545 65.874a5.1 5.1 0 0 0-4.078-4.274l.251-.967a6.124 6.124 0 0 1 4.8 5.009z" style="fill:#418c48"/>
                <path data-name="패스 13091" d="M14.932 62.193c2.228.511 3.359-.211 3.623-1.362l-8.068-1.85s2.217 2.7 4.445 3.212" style="fill:#418c48"/>
                <path data-name="패스 13092" d="M15.887 58.027c-2.228-.511-5.4.954-5.4.954l8.068 1.851c.264-1.15-.439-2.293-2.667-2.8" style="fill:#91d09f"/>
                <path data-name="패스 13093" d="m29.21 65.874-.973-.233a6.124 6.124 0 0 1 4.8-5.009l.251.967a5.1 5.1 0 0 0-4.077 4.275" style="fill:#418c48"/>
                <path data-name="패스 13094" d="M35.823 62.193c-2.228.511-3.359-.211-3.623-1.362l8.068-1.85s-2.217 2.7-4.445 3.212" style="fill:#418c48"/>
                <path data-name="패스 13095" d="M34.868 58.027c2.228-.511 5.4.954 5.4.954L32.2 60.832c-.264-1.15.439-2.293 2.667-2.8" style="fill:#91d09f"/>
                <path data-name="패스 13096" d="M19.127 56.5a17.745 17.745 0 0 0-13.341-5.42l-.088-1a18.413 18.413 0 0 1 14.159 5.732z" style="fill:#418c48"/>
                <path data-name="패스 13097" d="M25.377 47.257c-.591 0-2.391 0-5.22-12.753C18.7 27.932 17.6 20.621 17.6 17.5h1c0 3.01 1.113 10.386 2.534 16.791 2.178 9.819 3.8 11.969 4.244 11.969s2.066-2.15 4.245-11.969c1.421-6.4 2.535-13.78 2.535-16.791h1c0 3.123-1.1 10.435-2.558 17.007-2.83 12.75-4.63 12.75-5.222 12.75" style="fill:#418c48"/>
                <path data-name="패스 13098" d="M25.377 47.257c-7.262 0-11.707-10.735-11.707-16.58h1a21.2 21.2 0 0 0 3 10.051c1.239 2.065 3.888 5.529 7.7 5.529s6.464-3.464 7.7-5.529a21.2 21.2 0 0 0 3-10.051h1c0 5.845-4.445 16.58-11.707 16.58" style="fill:#418c48"/>
                <path data-name="사각형 2763" transform="translate(24.877 27.054)" style="fill:#418c48" d="M0 0h1v52.529H0z"/>
                <path data-name="패스 13099" d="M27.081 22.02c0 1.521-.411 5.034-1.7 5.034s-1.7-3.512-1.7-5.034.776-1.559 1.7-1.559 1.7.038 1.7 1.559" style="fill:#fff"/>
                <path data-name="패스 13100" d="M30.309 25c-1.517.122-4.985.814-4.881 2.1s3.638 1.417 5.154 1.3 1.492-.9 1.418-1.823-.174-1.7-1.691-1.577" style="fill:#fff"/>
                <path data-name="패스 13101" d="M20.446 25c1.516.122 4.985.814 4.881 2.1s-3.638 1.417-5.154 1.3-1.492-.9-1.418-1.823.174-1.695 1.691-1.573" style="fill:#fff"/>
                <path data-name="패스 13102" d="M29.68 31.265c-.777-1.308-2.923-4.119-4.034-3.46s.327 3.89 1.1 5.2 1.463.945 2.261.472 1.446-.9.67-2.21" style="fill:#fff"/>
                <path data-name="패스 13103" d="M21.154 31.265c.776-1.308 2.922-4.119 4.034-3.46s-.327 3.89-1.1 5.2-1.464.945-2.261.472-1.446-.9-.669-2.21" style="fill:#fff"/>
                <path data-name="패스 13104" d="M26.65 27.055a1.273 1.273 0 1 1-1.273-1.273 1.273 1.273 0 0 1 1.272 1.273" style="fill:#fff"/>
                <path data-name="패스 13105" d="M26.179 27.052a.8.8 0 1 1-.8-.8.8.8 0 0 1 .8.8" style="fill:#fce09c"/>
                <path data-name="패스 13106" d="M15.359 25.643c0 1.522-.411 5.034-1.7 5.034s-1.7-3.512-1.7-5.034.776-1.559 1.7-1.559 1.7.038 1.7 1.559" style="fill:#fff"/>
                <path data-name="패스 13107" d="M18.587 28.618c-1.516.122-4.985.813-4.881 2.1s3.638 1.417 5.154 1.3 1.492-.9 1.418-1.823-.175-1.7-1.691-1.574" style="fill:#fff"/>
                <path data-name="패스 13108" d="M8.725 28.618c1.516.122 4.985.813 4.881 2.1s-3.638 1.417-5.154 1.3-1.492-.9-1.418-1.823.174-1.7 1.691-1.574" style="fill:#fff"/>
                <path data-name="패스 13109" d="M17.959 34.888c-.776-1.309-2.922-4.119-4.034-3.46s.327 3.89 1.1 5.2 1.463.945 2.261.472 1.446-.9.669-2.21" style="fill:#fff"/>
                <path data-name="패스 13110" d="M9.433 34.888c.777-1.309 2.922-4.119 4.034-3.46s-.327 3.89-1.1 5.2-1.463.945-2.261.472-1.446-.9-.67-2.21" style="fill:#fff"/>
                <path data-name="패스 13111" d="M14.928 30.677a1.273 1.273 0 1 1-1.272-1.277 1.273 1.273 0 0 1 1.272 1.276" style="fill:#fff"/>
                <path data-name="패스 13112" d="M14.457 30.677a.8.8 0 1 1-.8-.8.8.8 0 0 1 .8.8" style="fill:#fce09c"/>
                <path data-name="패스 13113" d="M38.676 25.643c0 1.522-.411 5.034-1.7 5.034s-1.7-3.512-1.7-5.034.776-1.559 1.7-1.559 1.7.038 1.7 1.559" style="fill:#fff"/>
                <path data-name="패스 13114" d="M41.9 28.618c-1.516.122-4.985.813-4.881 2.1s3.638 1.417 5.154 1.3 1.492-.9 1.418-1.823-.174-1.7-1.691-1.574" style="fill:#fff"/>
                <path data-name="패스 13115" d="M32.041 28.618c1.516.122 4.985.813 4.882 2.1s-3.638 1.417-5.155 1.3-1.492-.9-1.418-1.823.175-1.7 1.691-1.574" style="fill:#fff"/>
                <path data-name="패스 13116" d="M41.275 34.888c-.776-1.309-2.922-4.119-4.034-3.46s.327 3.89 1.1 5.2 1.463.945 2.261.472 1.446-.9.67-2.21" style="fill:#fff"/>
                <path data-name="패스 13117" d="M32.749 34.888c.776-1.309 2.922-4.119 4.034-3.46s-.327 3.89-1.1 5.2-1.464.945-2.261.472-1.446-.9-.67-2.21" style="fill:#fff"/>
                <path data-name="패스 13118" d="M38.245 30.677a1.273 1.273 0 1 1-1.272-1.277 1.273 1.273 0 0 1 1.272 1.276" style="fill:#fff"/>
                <path data-name="패스 13119" d="M37.773 30.677a.8.8 0 1 1-.8-.8.8.8 0 0 1 .8.8" style="fill:#fce09c"/>
                <path data-name="패스 13120" d="M19.412 11.662c0 1.521-.411 5.034-1.7 5.034s-1.7-3.512-1.7-5.034.77-1.558 1.7-1.558 1.7.038 1.7 1.559" style="fill:#fff"/>
                <path data-name="패스 13121" d="M22.64 14.637c-1.516.122-4.985.813-4.881 2.1s3.638 1.417 5.154 1.3 1.492-.9 1.418-1.823-.174-1.7-1.691-1.573" style="fill:#fff"/>
                <path data-name="패스 13122" d="M12.777 14.637c1.516.122 4.985.813 4.881 2.1s-3.638 1.417-5.154 1.3-1.492-.9-1.418-1.823.174-1.7 1.691-1.573" style="fill:#fff"/>
                <path data-name="패스 13123" d="M22.012 20.907c-.777-1.308-2.922-4.119-4.034-3.46s.326 3.89 1.1 5.2 1.463.945 2.261.472 1.445-.9.669-2.21" style="fill:#fff"/>
                <path data-name="패스 13124" d="M13.486 20.907c.776-1.308 2.922-4.119 4.033-3.46s-.326 3.89-1.1 5.2-1.463.945-2.261.472-1.446-.9-.669-2.21" style="fill:#fff"/>
                <path data-name="패스 13125" d="M18.981 16.695a1.273 1.273 0 1 1-1.274-1.272 1.274 1.274 0 0 1 1.272 1.272" style="fill:#fff"/>
                <path data-name="패스 13126" d="M18.51 16.695a.8.8 0 1 1-.8-.8.8.8 0 0 1 .8.8" style="fill:#fce09c"/>
                <path data-name="패스 13127" d="M34.531 11.662c0 1.521-.411 5.034-1.7 5.034s-1.7-3.512-1.7-5.034.77-1.558 1.7-1.558 1.7.038 1.7 1.559" style="fill:#fff"/>
                <path data-name="패스 13128" d="M37.759 14.637c-1.517.122-4.985.813-4.882 2.1s3.638 1.417 5.154 1.3 1.492-.9 1.418-1.823-.174-1.7-1.691-1.573" style="fill:#fff"/>
                <path data-name="패스 13129" d="M27.9 14.637c1.516.122 4.985.813 4.881 2.1s-3.638 1.417-5.154 1.3-1.492-.9-1.418-1.823.174-1.7 1.691-1.573" style="fill:#fff"/>
                <path data-name="패스 13130" d="M37.13 20.907c-.776-1.308-2.922-4.119-4.034-3.46s.327 3.89 1.1 5.2 1.464.945 2.261.472 1.446-.9.669-2.21" style="fill:#fff"/>
                <path data-name="패스 13131" d="M28.6 20.907c.776-1.308 2.922-4.119 4.034-3.46s-.327 3.89-1.1 5.2-1.464.945-2.261.472-1.446-.9-.669-2.21" style="fill:#fff"/>
                <path data-name="패스 13132" d="M34.1 16.695a1.273 1.273 0 1 1-1.274-1.272 1.274 1.274 0 0 1 1.274 1.272" style="fill:#fff"/>
                <path data-name="패스 13133" d="M33.628 16.695a.8.8 0 1 1-.8-.8.8.8 0 0 1 .8.8" style="fill:#fce09c"/>
                <path data-name="패스 13134" d="M26.109 46.206c.9.668 2.781 2.453 2.214 3.214s-2.815-.54-3.71-1.208-.576-1.142-.169-1.687.771-.986 1.666-.318" style="fill:#fff"/>
                <path data-name="패스 13135" d="M29.277 45.613c-.6.946-1.711 3.29-.908 3.8S30.8 47.9 31.4 46.949s.126-1.273-.45-1.635-1.074-.642-1.668.3" style="fill:#fff"/>
                <path data-name="패스 13136" d="M24.945 51.417c.738-.839 2.668-2.576 3.38-1.95s-.764 2.763-1.5 3.6-1.184.484-1.7.034-.921-.847-.183-1.686" style="fill:#fff"/>
                <path data-name="패스 13137" d="M32.69 48.738c-1.111-.118-3.707-.09-3.808.854s2.433 1.516 3.543 1.634 1.2-.446 1.271-1.123.1-1.247-1.007-1.365" style="fill:#fff"/>
                <path data-name="패스 13138" d="M28.946 53.754c-.429-1.031-1.14-3.529-.264-3.893s2.146 1.9 2.575 2.932-.087 1.277-.715 1.538-1.166.454-1.595-.577" style="fill:#fff"/>
                <path data-name="패스 13139" d="M28.881 48.67a.935.935 0 1 1-1.308.191.936.936 0 0 1 1.308-.19" style="fill:#fff"/>
                <path data-name="패스 13140" d="M28.669 48.948a.588.588 0 1 1-.823.119.588.588 0 0 1 .823-.119z" style="fill:#fce09c"/>
                <path data-name="패스 13141" d="M32.135 37.837c.641.915 1.875 3.2 1.1 3.744s-2.505-1.393-3.146-2.308-.191-1.264.367-1.656 1.04-.7 1.681.219" style="fill:#fff"/>
                <path data-name="패스 13142" d="m31.627 56.5-.729-.683a18.409 18.409 0 0 1 14.159-5.732l-.088 1a17.718 17.718 0 0 0-13.341 5.42" style="fill:#418c48"/>
                <path data-name="패스 13143" d="M28.9 70.815h-1A36.846 36.846 0 0 1 44.326 39.7l.5.867A35.831 35.831 0 0 0 28.9 70.815" style="fill:#418c48"/>
                <path data-name="패스 13144" d="M35.326 38.265c-.86.712-2.654 2.59-2.048 3.321s2.785-.682 3.645-1.395.518-1.169.084-1.694-.82-.945-1.68-.233" style="fill:#fff"/>
                <path data-name="패스 13145" d="M29.4 42.423c.963-.566 3.34-1.613 3.82-.8s-1.589 2.385-2.552 2.951-1.276.089-1.621-.5-.61-1.093.353-1.659" style="fill:#fff"/>
                <path data-name="패스 13146" d="M37.592 42.3c-1.019-.459-3.494-1.244-3.884-.379s1.837 2.2 2.855 2.66 1.278-.049 1.558-.67.489-1.151-.53-1.611" style="fill:#fff"/>
                <path data-name="패스 13147" d="M32.466 45.894c-.085-1.114.02-3.708.966-3.781s1.443 2.477 1.529 3.59-.481 1.185-1.16 1.237-1.25.067-1.334-1.047" style="fill:#fff"/>
                <path data-name="패스 13148" d="M33.995 41.046a.934.934 0 1 1-1.3-.227.935.935 0 0 1 1.3.228" style="fill:#fff"/>
                <path data-name="패스 13149" d="M33.711 41.244a.588.588 0 1 1-.819-.144.588.588 0 0 1 .819.144" style="fill:#fce09c"/>
                <path data-name="패스 13150" d="M36.987 44.566c.841.734 2.586 2.658 1.962 3.373s-2.766-.754-3.607-1.488-.488-1.182-.04-1.7.844-.924 1.686-.189" style="fill:#fff"/>
                <path data-name="패스 13151" d="M40.191 44.218c-.665.9-1.957 3.151-1.194 3.715s2.54-1.328 3.2-2.226.223-1.259-.324-1.665-1.022-.722-1.687.176" style="fill:#fff"/>
                <path data-name="패스 13152" d="M35.43 49.674c.8-.78 2.857-2.365 3.519-1.686s-.972 2.7-1.772 3.477-1.217.392-1.693-.1-.853-.915-.054-1.7" style="fill:#fff"/>
                <path data-name="패스 13153" d="M43.356 47.592c-1.1-.2-3.69-.372-3.862.561s2.311 1.7 3.409 1.9 1.229-.354 1.353-1.024.2-1.234-.9-1.437" style="fill:#fff"/>
                <path data-name="패스 13154" d="M39.24 52.31c-.349-1.061-.868-3.606.034-3.9s1.994 2.06 2.343 3.12-.184 1.266-.831 1.479-1.2.364-1.546-.7" style="fill:#fff"/>
                <path data-name="패스 13155" d="M39.564 47.236a.934.934 0 1 1-1.318.09.934.934 0 0 1 1.318-.09z" style="fill:#fff"/>
                <path data-name="패스 13156" d="M39.336 47.5a.588.588 0 1 1-.83.056.589.589 0 0 1 .83-.056" style="fill:#fce09c"/>
                <path data-name="패스 13157" d="M44.613 46.7c.465 1.016 1.263 3.487.4 3.882s-2.213-1.822-2.676-2.841.042-1.278.661-1.562 1.149-.5 1.614.521" style="fill:#fff"/>
                <path data-name="패스 13158" d="M47.677 47.7c-.975.544-3.08 2.066-2.617 2.894s2.862-.166 3.837-.71.721-1.056.389-1.65-.634-1.078-1.609-.534" style="fill:#fff"/>
                <path data-name="패스 13159" d="M41.092 50.714c1.05-.382 3.577-.979 3.9-.088s-2 2.057-3.046 2.439-1.271-.145-1.5-.785-.4-1.185.648-1.567" style="fill:#fff"/>
                <path data-name="패스 13160" d="M49.176 52.08c-.918-.637-3.21-1.858-3.751-1.078s1.407 2.5 2.325 3.134 1.266.184 1.654-.375.69-1.044-.228-1.68" style="fill:#fff"/>
                <path data-name="패스 13161" d="M43.479 54.685c.118-1.111.693-3.644 1.636-3.542s.97 2.7.852 3.808-.688 1.078-1.366 1.006-1.241-.161-1.122-1.271" style="fill:#fff"/>
                <path data-name="패스 13162" d="M45.863 50.194a.934.934 0 1 1-1.238-.461.935.935 0 0 1 1.238.461" style="fill:#fff"/>
                <path data-name="패스 13163" d="M45.548 50.338a.588.588 0 1 1-.779-.29.588.588 0 0 1 .779.29" style="fill:#fce09c"/>
                <path data-name="패스 13164" d="M41.777 37.412c1.008.48 3.207 1.862 2.8 2.719s-2.867.02-3.875-.46-.788-1.007-.5-1.622.564-1.118 1.572-.637" style="fill:#fff"/>
                <path data-name="패스 13165" d="M44.769 36.212c-.4 1.044-1.035 3.561-.148 3.9s2.088-1.964 2.486-3.007-.125-1.273-.761-1.516-1.179-.42-1.577.623" style="fill:#fff"/>
                <path data-name="패스 13166" d="M41.653 42.749c.56-.967 2.113-3.047 2.935-2.572s-.21 2.859-.77 3.826-1.067.705-1.656.364-1.069-.651-.509-1.618" style="fill:#fff"/>
                <path data-name="패스 13167" d="M48.727 38.608c-1.112.1-3.654.636-3.568 1.581s2.682 1.012 3.795.911 1.089-.672 1.027-1.35-.142-1.242-1.254-1.142" style="fill:#fff"/>
                <path data-name="패스 13168" d="M46.034 44.261c-.622-.928-1.808-3.238-1.02-3.767s2.475 1.445 3.1 2.373.164 1.269-.4 1.647-1.055.674-1.677-.254" style="fill:#fff"/>
                <path data-name="패스 13169" d="M44.978 39.288a.934.934 0 1 1-1.246.442.933.933 0 0 1 1.246-.442z" style="fill:#fff"/>
                <path data-name="패스 13170" d="M22.86 70.815h-1a35.832 35.832 0 0 0-15.93-30.25l.5-.867a36.845 36.845 0 0 1 16.43 31.117" style="fill:#418c48"/>
                <path data-name="패스 13171" d="M44.829 39.6a.588.588 0 1 1-.784.278.589.589 0 0 1 .784-.278" style="fill:#fce09c"/>
                <path data-name="패스 13172" d="M24.647 46.206c-.9.668-2.782 2.453-2.214 3.214s2.815-.54 3.71-1.208.576-1.142.169-1.687-.771-.986-1.666-.318" style="fill:#fff"/>
                <path data-name="패스 13173" d="M21.479 45.613c.594.946 1.711 3.29.908 3.8s-2.432-1.518-3.026-2.464-.126-1.273.45-1.635 1.074-.642 1.668.3" style="fill:#fff"/>
                <path data-name="패스 13174" d="M25.811 51.417c-.738-.839-2.668-2.576-3.381-1.95s.764 2.763 1.5 3.6 1.184.484 1.7.034.921-.847.183-1.686" style="fill:#fff"/>
                <path data-name="패스 13175" d="M18.065 48.738c1.111-.118 3.707-.09 3.808.854s-2.433 1.516-3.544 1.634-1.2-.446-1.27-1.123-.1-1.247 1.006-1.365" style="fill:#fff"/>
                <path data-name="패스 13176" d="M21.811 53.754c.429-1.031 1.141-3.529.265-3.893s-2.146 1.9-2.575 2.932.087 1.277.715 1.538 1.166.454 1.6-.577" style="fill:#fff"/>
                <path data-name="패스 13177" d="M21.873 48.67a.935.935 0 1 0 1.308.191.936.936 0 0 0-1.308-.19" style="fill:#fff"/>
                <path data-name="패스 13178" d="M22.081 48.948a.588.588 0 1 0 .823.119.588.588 0 0 0-.823-.119z" style="fill:#fce09c"/>
                <path data-name="패스 13179" d="M18.627 37.837c-.642.915-1.875 3.2-1.1 3.744s2.5-1.393 3.146-2.308.191-1.264-.367-1.656-1.04-.7-1.681.219" style="fill:#fff"/>
                <path data-name="패스 13180" d="M15.429 38.265c.861.712 2.654 2.59 2.049 3.321s-2.784-.682-3.644-1.395-.519-1.169-.084-1.694.819-.945 1.68-.233" style="fill:#fff"/>
                <path data-name="패스 13181" d="M21.358 42.423c-.963-.566-3.34-1.613-3.82-.8s1.59 2.385 2.552 2.951 1.276.089 1.621-.5.61-1.093-.353-1.659" style="fill:#fff"/>
                <path data-name="패스 13182" d="M13.164 42.3c1.018-.459 3.494-1.244 3.884-.379s-1.837 2.2-2.855 2.66-1.278-.049-1.558-.67-.489-1.151.529-1.611" style="fill:#fff"/>
                <path data-name="패스 13183" d="M18.29 45.894c.085-1.114-.02-3.708-.967-3.781S15.88 44.59 15.8 45.7s.481 1.185 1.16 1.237 1.249.067 1.335-1.047" style="fill:#fff"/>
                <path data-name="패스 13184" d="M16.76 41.046a.934.934 0 1 0 1.3-.227.933.933 0 0 0-1.3.228" style="fill:#fff"/>
                <path data-name="패스 13185" d="M17.044 41.244a.588.588 0 1 0 .819-.144.588.588 0 0 0-.819.144" style="fill:#fce09c"/>
                <path data-name="패스 13186" d="M13.768 44.566c-.841.734-2.586 2.658-1.962 3.373s2.766-.754 3.607-1.488.488-1.182.04-1.7-.844-.924-1.685-.189" style="fill:#fff"/>
                <path data-name="패스 13187" d="M10.564 44.218c.664.9 1.956 3.151 1.193 3.715s-2.54-1.328-3.2-2.226-.223-1.259.324-1.665 1.022-.722 1.687.176" style="fill:#fff"/>
                <path data-name="패스 13188" d="M15.327 49.674c-.8-.78-2.857-2.365-3.519-1.686s.972 2.7 1.772 3.477 1.218.392 1.693-.1.854-.915.054-1.7" style="fill:#fff"/>
                <path data-name="패스 13189" d="M7.4 47.592c1.1-.2 3.69-.372 3.862.561s-2.31 1.7-3.409 1.9S6.624 49.7 6.5 49.029s-.2-1.234.9-1.437" style="fill:#fff"/>
                <path data-name="패스 13190" d="M11.516 52.31c.349-1.061.868-3.606-.034-3.9s-1.994 2.06-2.343 3.12.184 1.266.831 1.479 1.2.364 1.546-.7" style="fill:#fff"/>
                <path data-name="패스 13191" d="M11.192 47.236a.934.934 0 1 0 1.318.09.934.934 0 0 0-1.318-.09" style="fill:#fff"/>
                <path data-name="패스 13192" d="M11.42 47.5a.588.588 0 1 0 .83.056.589.589 0 0 0-.83-.056" style="fill:#fce09c"/>
                <path data-name="패스 13193" d="M6.145 46.7c-.464 1.016-1.263 3.487-.4 3.882s2.21-1.825 2.675-2.841-.042-1.278-.661-1.562-1.149-.5-1.614.521" style="fill:#fff"/>
                <path data-name="패스 13194" d="M3.079 47.7c.975.544 3.08 2.066 2.617 2.894s-2.862-.166-3.837-.71-.721-1.056-.389-1.65.63-1.076 1.609-.534" style="fill:#fff"/>
                <path data-name="패스 13195" d="M9.665 50.714c-1.05-.382-3.577-.979-3.9-.088s2 2.057 3.046 2.439 1.27-.145 1.5-.785.4-1.185-.648-1.567" style="fill:#fff"/>
                <path data-name="패스 13196" d="M1.584 52.08c.918-.637 3.21-1.858 3.75-1.078s-1.409 2.5-2.325 3.134-1.265.184-1.653-.38-.69-1.044.228-1.68" style="fill:#fff"/>
                <path data-name="패스 13197" d="M7.276 54.685c-.118-1.111-.693-3.644-1.636-3.542s-.97 2.7-.851 3.808.688 1.078 1.365 1.006 1.241-.161 1.122-1.271" style="fill:#fff"/>
                <path data-name="패스 13198" d="M4.9 50.194a.934.934 0 1 0 1.238-.461.935.935 0 0 0-1.238.461" style="fill:#fff"/>
                <path data-name="패스 13199" d="M5.208 50.338a.588.588 0 1 0 .779-.29.588.588 0 0 0-.779.29" style="fill:#fce09c"/>
                <path data-name="패스 13200" d="M8.974 37.412c-1.008.48-3.207 1.862-2.8 2.719s2.866.02 3.875-.46.788-1.007.5-1.622-.563-1.118-1.572-.637" style="fill:#fff"/>
                <path data-name="패스 13201" d="M5.987 36.212c.4 1.044 1.035 3.561.148 3.9S4.048 38.148 3.649 37.1s.125-1.273.761-1.516 1.179-.42 1.577.623" style="fill:#fff"/>
                <path data-name="패스 13202" d="M9.1 42.749c-.56-.967-2.113-3.047-2.935-2.572s.21 2.859.769 3.826 1.067.705 1.656.364 1.069-.651.509-1.618" style="fill:#fff"/>
                <path data-name="패스 13203" d="M2.029 38.608c1.112.1 3.654.636 3.568 1.581S2.915 41.2 1.8 41.1.714 40.428.775 39.75s.142-1.242 1.254-1.142" style="fill:#fff"/>
                <path data-name="패스 13204" d="M4.722 44.261c.622-.928 1.808-3.238 1.019-3.767s-2.475 1.445-3.1 2.373-.164 1.269.4 1.647 1.055.674 1.677-.254" style="fill:#fff"/>
                <path data-name="패스 13205" d="M5.777 39.288a.934.934 0 1 0 1.245.442.935.935 0 0 0-1.245-.442" style="fill:#fff"/>
                <path data-name="패스 13206" d="M5.927 39.6a.588.588 0 1 0 .784.278.589.589 0 0 0-.784-.278" style="fill:#fce09c"/>
                <path data-name="패스 13207" d="M40.716 93.465H9.762a3.089 3.089 0 0 1-3.088-3.088h37.131a3.089 3.089 0 0 1-3.087 3.089" style="fill:#418c48"/>
                <path data-name="사각형 2764" transform="translate(9.645 93.466)" style="fill:#418c48" d="M0 0h3.195v4.515H0z"/>
                <path data-name="사각형 2765" transform="translate(37.903 93.466)" style="fill:#418c48" d="M0 0h3.195v4.515H0z"/>
                <path data-name="패스 13208" d="M36.921 90.381H13.558a1.638 1.638 0 0 1-1.609-1.94l3.507-18.612h19.567l3.507 18.612a1.638 1.638 0 0 1-1.306 1.912 1.619 1.619 0 0 1-.3.028" style="fill:#91d09f"/>
                <path data-name="사각형 2766" transform="translate(14.351 71.602)" style="fill:#56b36b" d="M0 0h21.8v.704H0z"/>
                <path data-name="패스 13209" d="M8.754 7.716A1.925 1.925 0 0 1 7.291 6.18c-.032-.242.341-.637.382-1.04.162-1.7.6-4.2 2.045-2.59a13.992 13.992 0 0 1 2.53 4.889 7.687 7.687 0 0 0 .352-3.471 2.689 2.689 0 0 0-.593-1.62 1 1 0 0 0-1.036-.032l-.046-.1a1.106 1.106 0 0 1 1.147.043h.008l.005.006a2.8 2.8 0 0 1 .622 1.685 7.857 7.857 0 0 1-.407 3.665l.039.141.138-.043A7.87 7.87 0 0 1 15.351 5.4a2.782 2.782 0 0 1 1.755-.38h.009l.007.005a1.1 1.1 0 0 1 .654.942l-.107.013a.992.992 0 0 0-.582-.856 2.687 2.687 0 0 0-1.684.369 7.69 7.69 0 0 0-2.739 2.167 13.943 13.943 0 0 1 5.482-.493c2.132.357.259 2.068-1.088 3.119-.319.25-.451.777-.673.881a1.925 1.925 0 0 1-2.082-.41s.933 3.143-.989 3.038-1.46.338-2.012.306-.893-2.823-.893-2.823-2.539 1.212-2.861.764.3-.3-.822-1.862 2.031-2.466 2.031-2.466" style="fill:#1f5a2c"/>
                <path data-name="패스 13210" d="M7.662 5.683A1.925 1.925 0 0 1 6.2 4.147c-.032-.242.341-.637.382-1.04.162-1.7.6-4.2 2.045-2.59a13.992 13.992 0 0 1 2.53 4.889 7.687 7.687 0 0 0 .353-3.471A2.689 2.689 0 0 0 10.916.31 1 1 0 0 0 9.88.278L9.834.18a1.106 1.106 0 0 1 1.147.043h.007l.006.006a2.8 2.8 0 0 1 .622 1.685 7.857 7.857 0 0 1-.407 3.664l.039.141.138-.043a7.87 7.87 0 0 1 2.873-2.311 2.782 2.782 0 0 1 1.755-.38h.016a1.1 1.1 0 0 1 .654.942l-.107.013a.992.992 0 0 0-.582-.856 2.687 2.687 0 0 0-1.684.369 7.69 7.69 0 0 0-2.739 2.165 13.943 13.943 0 0 1 5.482-.493c2.132.357.259 2.068-1.088 3.119-.319.25-.451.777-.673.881a1.925 1.925 0 0 1-2.082-.41s.933 3.143-.989 3.038-1.46.338-2.012.306-.893-2.823-.893-2.823-2.539 1.212-2.861.764.3-.3-.822-1.862 2.031-2.457 2.031-2.457" style="fill:#a3d0ff"/>
                <path data-name="패스 13211" d="M2.448 24.6a1.4 1.4 0 0 1-1.065-1.119c-.024-.176.248-.463.278-.757.118-1.236.437-3.056 1.489-1.886A10.183 10.183 0 0 1 4.993 24.4a5.62 5.62 0 0 0 .257-2.528 1.966 1.966 0 0 0-.432-1.18.725.725 0 0 0-.754-.023l-.034-.072a.8.8 0 0 1 .835.032h.006a2.042 2.042 0 0 1 .452 1.227 5.715 5.715 0 0 1-.3 2.669l.028.1.1-.031a5.72 5.72 0 0 1 2.092-1.683 2.026 2.026 0 0 1 1.279-.277h.011a.8.8 0 0 1 .476.686l-.077.009a.725.725 0 0 0-.425-.623 1.952 1.952 0 0 0-1.226.269A5.6 5.6 0 0 0 5.3 24.56a10.172 10.172 0 0 1 3.988-.36c1.553.26.188 1.507-.793 2.272-.232.182-.328.566-.49.641a1.4 1.4 0 0 1-1.516-.3s.679 2.288-.72 2.212-1.064.246-1.466.223-.65-2.056-.65-2.056-1.849.883-2.083.557.217-.217-.6-1.356S2.45 24.6 2.45 24.6" style="fill:#1f5a2c"/>
                <path data-name="패스 13212" d="M1.653 23.12A1.4 1.4 0 0 1 .588 22c-.024-.176.248-.463.278-.757.118-1.236.437-3.056 1.489-1.886A10.183 10.183 0 0 1 4.2 22.919a5.62 5.62 0 0 0 .257-2.528 1.966 1.966 0 0 0-.432-1.18.725.725 0 0 0-.754-.023l-.034-.072a.8.8 0 0 1 .835.032h.006a2.042 2.042 0 0 1 .452 1.227 5.715 5.715 0 0 1-.3 2.669l.028.1.1-.031A5.72 5.72 0 0 1 6.45 21.43a2.026 2.026 0 0 1 1.279-.277h.011a.8.8 0 0 1 .476.686l-.077.009a.725.725 0 0 0-.425-.623 1.952 1.952 0 0 0-1.226.269A5.6 5.6 0 0 0 4.5 23.079a10.172 10.172 0 0 1 3.993-.359c1.553.26.188 1.507-.793 2.272-.232.182-.328.566-.49.641a1.4 1.4 0 0 1-1.516-.3s.679 2.288-.72 2.212-1.064.246-1.466.223-.65-2.056-.65-2.056-1.849.883-2.083.557.217-.217-.6-1.356 1.479-1.8 1.479-1.8" style="fill:#f6c0fc"/>
                <path data-name="패스 13213" d="M43.8 11.783a1.923 1.923 0 0 0 1.461-1.536c.034-.241-.34-.637-.38-1.039-.162-1.7-.6-4.2-2.045-2.591a13.992 13.992 0 0 0-2.53 4.889 7.687 7.687 0 0 1-.353-3.471V8.03a2.694 2.694 0 0 1 .594-1.62 1 1 0 0 1 1.036-.032l.046-.1a1.108 1.108 0 0 0-1.147.044h-.007l-.006.006a2.8 2.8 0 0 0-.622 1.685 7.86 7.86 0 0 0 .407 3.664c-.026.091-.038.141-.038.141l-.139-.043A7.863 7.863 0 0 0 37.2 9.469a2.782 2.782 0 0 0-1.755-.38h-.008l-.007.005a1.1 1.1 0 0 0-.653.942l.107.013a.992.992 0 0 1 .584-.855 2.69 2.69 0 0 1 1.683.369 7.7 7.7 0 0 1 2.74 2.165 13.943 13.943 0 0 0-5.482-.493c-2.133.357-.259 2.069 1.088 3.119.318.25.45.777.673.881a1.926 1.926 0 0 0 2.082-.41s-.933 3.143.989 3.038 1.46.338 2.012.306.893-2.823.893-2.823 2.538 1.213 2.861.764-.3-.3.822-1.862-2.029-2.466-2.029-2.466" style="fill:#1f5a2c"/>
                <path data-name="패스 13214" d="M44.888 9.75a1.923 1.923 0 0 0 1.461-1.536c.034-.241-.34-.637-.38-1.039-.162-1.7-.6-4.2-2.045-2.591a13.991 13.991 0 0 0-2.53 4.889A7.687 7.687 0 0 1 41.041 6a2.694 2.694 0 0 1 .594-1.62 1 1 0 0 1 1.036-.032l.046-.1a1.108 1.108 0 0 0-1.147.044h-.007l-.006.006a2.8 2.8 0 0 0-.622 1.685 7.86 7.86 0 0 0 .407 3.664l-.039.141-.138-.043a7.863 7.863 0 0 0-2.875-2.309 2.782 2.782 0 0 0-1.755-.38h-.015a1.1 1.1 0 0 0-.653.944l.107.013a.992.992 0 0 1 .584-.855 2.69 2.69 0 0 1 1.683.369 7.7 7.7 0 0 1 2.74 2.165A13.943 13.943 0 0 0 35.5 9.2c-2.133.357-.259 2.069 1.088 3.119.318.25.45.777.673.881a1.926 1.926 0 0 0 2.082-.41s-.933 3.143.989 3.038 1.46.338 2.012.306.893-2.823.893-2.823 2.538 1.213 2.861.764-.3-.3.822-1.862-2.031-2.466-2.031-2.466" style="fill:#ffeb00"/>
            </g>
        </g>
    </g>
</svg>
