<svg xmlns="http://www.w3.org/2000/svg" xmlns:xlink="http://www.w3.org/1999/xlink" width="100" height="100.004" viewBox="0 0 100 100.004">
  <defs>
    <style>
      .cls-1 {
        fill: none;
      }

      .cls-2 {
        clip-path: url(#clip-path);
      }

      .cls-3 {
        fill: #418c48;
      }

      .cls-4 {
        fill: #409b54;
      }

      .cls-5 {
        fill: #fff;
      }

      .cls-6 {
        fill: #ffa7ff;
      }

      .cls-7 {
        fill: #91d09f;
      }

      .cls-8 {
        fill: #56b36b;
      }
    </style>
    <clipPath id="clip-path">
      <rect id="사각형_2825" data-name="사각형 2825" class="cls-1" width="63.245" height="80.004"/>
    </clipPath>
  </defs>
  <g id="그룹_2484" data-name="그룹 2484" transform="translate(-844 -1189)">
    <rect id="사각형_2631" data-name="사각형 2631" class="cls-1" width="100" height="100" transform="translate(844 1189)"/>
    <g id="그룹_2477" data-name="그룹 2477" transform="translate(862 1209)">
      <g id="그룹_2476" data-name="그룹 2476" class="cls-2">
        <path id="패스_13968" data-name="패스 13968" class="cls-3" d="M29.016,44.115c-1.924-1.338-3.882-4.58-3.781-5.959s2.388-1.694,4.307-.354a5.559,5.559,0,0,1,2.479,5.065c-.146,1.743-1.084,2.587-3.007,1.25"/>
        <path id="패스_13969" data-name="패스 13969" class="cls-3" d="M30.232,45.5c-2.288.509-6-.249-6.944-1.257s.372-2.9,2.657-3.408a5.562,5.562,0,0,1,5.405,1.609c1.183,1.289,1.169,2.55-1.118,3.058"/>
        <path id="패스_13970" data-name="패스 13970" class="cls-3" d="M19.236,48.023c-2.2.8-5.98.536-7.049-.341s-.009-2.927,2.191-3.724a5.564,5.564,0,0,1,5.569.89c1.34,1.124,1.49,2.375-.711,3.177"/>
        <path id="패스_13971" data-name="패스 13971" class="cls-3" d="M21.393,49.164c-.884,2.171-3.618,4.791-4.985,4.995s-2.177-1.958-1.29-4.124a5.559,5.559,0,0,1,4.4-3.529c1.733-.24,2.761.49,1.878,2.659"/>
        <path id="패스_13972" data-name="패스 13972" class="cls-3" d="M42.44,47.946c-1.729-1.58-1.114-2.68.554-3.208a5.56,5.56,0,0,1,5.488,1.3c1.731,1.575,1.928,3.876.606,4.278s-4.917-.789-6.647-2.37"/>
        <path id="패스_13973" data-name="패스 13973" class="cls-3" d="M40.01,48.178c.01-2.342,1.239-2.625,2.75-1.743a5.559,5.559,0,0,1,2.722,4.939c0,2.34-1.578,4.031-2.764,3.321S40,50.521,40.012,48.178"/>
        <path id="패스_13974" data-name="패스 13974" class="cls-3" d="M59.987,28.16c-1.875,1.406-5.568,2.245-6.845,1.716s-.858-2.8,1.017-4.2a5.561,5.561,0,0,1,5.588-.761c1.609.687,2.115,1.842.241,3.247"/>
        <path id="패스_13975" data-name="패스 13975" class="cls-3" d="M58.874,32.633c-2.34-.136-5.7-1.878-6.336-3.106s1.151-2.693,3.487-2.552A5.562,5.562,0,0,1,60.785,30c.785,1.563.427,2.772-1.912,2.636"/>
        <path id="패스_13976" data-name="패스 13976" class="cls-3" d="M2.127,33.275c-1.874-1.405-1.368-2.56.241-3.247a5.561,5.561,0,0,1,5.588.761c1.875,1.4,2.294,3.671,1.017,4.2S4,34.679,2.128,33.273"/>
        <path id="패스_13977" data-name="패스 13977" class="cls-3" d="M3.243,37.748c-2.338.136-2.7-1.073-1.911-2.636a5.563,5.563,0,0,1,4.76-3.025c2.336-.14,4.121,1.325,3.487,2.553s-4,2.97-6.337,3.106"/>
        <rect id="사각형_2822" data-name="사각형 2822" class="cls-3" width="2.933" height="40.162" transform="translate(29.969 19.856)"/>
        <path id="패스_13978" data-name="패스 13978" class="cls-3" d="M46.324,31.723H31.437v-1.76H46.324a7.1,7.1,0,0,0,7.09-7.09h1.76a8.862,8.862,0,0,1-8.85,8.85"/>
        <path id="패스_13979" data-name="패스 13979" class="cls-3" d="M31.587,35.075H16.706a8.86,8.86,0,0,1-8.849-8.85h1.76a7.1,7.1,0,0,0,7.089,7.09H31.587Z"/>
        <path id="패스_13980" data-name="패스 13980" class="cls-3" d="M57.547,16.47c-.024,2.693-1.825,5.625-3.193,5.634s-3.144-3-3.121-5.687,1.447-3.828,3.19-3.813,3.146,1.174,3.125,3.866"/>
        <path id="패스_13981" data-name="패스 13981" class="cls-4" d="M53.11,16.078c1.564,2.1,1.89,5.434.834,6.244s-4.2-.474-5.761-2.575-1.127-3.817.233-4.83,3.129-.94,4.694,1.161"/>
        <path id="패스_13982" data-name="패스 13982" class="cls-4" d="M60.459,19.777c-1.578,2.091-4.685,3.34-5.759,2.553s-.722-4.161.856-6.253,3.347-2.154,4.7-1.132,1.78,2.74.2,4.832"/>
        <path id="패스_13983" data-name="패스 13983" class="cls-3" d="M61.826,21.035c-1.875,1.406-5.568,2.245-6.845,1.716s-.858-2.8,1.017-4.2a5.563,5.563,0,0,1,5.588-.761c1.609.687,2.115,1.842.241,3.247"/>
        <path id="패스_13984" data-name="패스 13984" class="cls-3" d="M46.759,20.724c1.875,1.406,5.568,2.245,6.845,1.716s.858-2.8-1.017-4.2A5.561,5.561,0,0,0,47,17.479c-1.609.687-2.115,1.842-.241,3.247"/>
        <path id="패스_13985" data-name="패스 13985" class="cls-3" d="M57.528,20.612a3.157,3.157,0,0,1-6.314-.053c.013-1.518,1.432-2.152,3.175-2.137s3.152.673,3.139,2.191"/>
        <path id="패스_13986" data-name="패스 13986" class="cls-3" d="M11.99,19.682c-.024,2.693-1.826,5.625-3.194,5.634s-3.142-3-3.12-5.687S7.122,15.8,8.865,15.816s3.147,1.174,3.125,3.866"/>
        <path id="패스_13987" data-name="패스 13987" class="cls-4" d="M7.554,19.289c1.564,2.1,1.89,5.434.834,6.244s-4.2-.479-5.76-2.579-1.128-3.817.232-4.83,3.13-.94,4.694,1.161"/>
        <path id="패스_13988" data-name="패스 13988" class="cls-4" d="M14.9,22.989c-1.578,2.091-4.686,3.34-5.759,2.553s-.722-4.161.856-6.253,3.346-2.154,4.7-1.132,1.779,2.74.2,4.832"/>
        <path id="패스_13989" data-name="패스 13989" class="cls-3" d="M16.27,24.246C14.4,25.652,10.7,26.491,9.425,25.962s-.858-2.8,1.017-4.2A5.559,5.559,0,0,1,16.029,21c1.61.687,2.116,1.842.242,3.247"/>
        <path id="패스_13990" data-name="패스 13990" class="cls-3" d="M1.2,24.246c1.875,1.406,5.568,2.245,6.845,1.716s.858-2.8-1.017-4.2A5.561,5.561,0,0,0,1.441,21c-1.609.687-2.115,1.842-.241,3.247"/>
        <path id="패스_13991" data-name="패스 13991" class="cls-3" d="M11.969,23.827A3.673,3.673,0,0,1,8.8,26.991a3.672,3.672,0,0,1-3.141-3.217c.013-1.518,1.432-2.152,3.175-2.137s3.152.673,3.139,2.191"/>
        <path id="패스_13992" data-name="패스 13992" class="cls-3" d="M34.689,14.094c-.023,2.693-1.825,5.625-3.193,5.634s-3.143-3-3.12-5.687,1.446-3.828,3.189-3.813,3.147,1.174,3.125,3.866"/>
        <path id="패스_13993" data-name="패스 13993" class="cls-4" d="M30.253,13.7c1.564,2.1,1.89,5.434.834,6.244s-4.2-.474-5.761-2.575-1.128-3.817.233-4.83,3.129-.94,4.694,1.161"/>
        <path id="패스_13994" data-name="패스 13994" class="cls-4" d="M37.6,17.4c-1.578,2.091-4.685,3.34-5.759,2.553s-.722-4.161.856-6.253,3.347-2.154,4.7-1.132,1.78,2.74.2,4.832"/>
        <path id="패스_13995" data-name="패스 13995" class="cls-3" d="M38.968,18.658c-1.875,1.406-5.568,2.245-6.845,1.716s-.858-2.8,1.017-4.2a5.561,5.561,0,0,1,5.588-.761c1.609.687,2.115,1.842.241,3.247"/>
        <path id="패스_13996" data-name="패스 13996" class="cls-3" d="M23.9,18.658c1.875,1.406,5.567,2.245,6.844,1.716s.858-2.8-1.017-4.2a5.561,5.561,0,0,0-5.588-.761c-1.609.687-2.114,1.842-.241,3.247"/>
        <path id="패스_13997" data-name="패스 13997" class="cls-3" d="M34.668,18.236a3.157,3.157,0,1,1-6.314-.053c.013-1.518,1.432-2.152,3.175-2.137s3.152.673,3.139,2.191"/>
        <path id="패스_13998" data-name="패스 13998" class="cls-3" d="M48.812,36.3c-.024,2.693-1.826,5.625-3.194,5.634s-3.143-2.995-3.12-5.687,1.446-3.828,3.19-3.813,3.146,1.174,3.125,3.866"/>
        <path id="패스_13999" data-name="패스 13999" class="cls-4" d="M44.375,35.9c1.565,2.1,1.891,5.434.835,6.244s-4.2-.474-5.761-2.575-1.128-3.817.232-4.83,3.13-.94,4.694,1.161"/>
        <path id="패스_14000" data-name="패스 14000" class="cls-4" d="M51.724,39.6c-1.578,2.091-4.685,3.34-5.76,2.553S45.242,38,46.82,35.9s3.347-2.154,4.7-1.132,1.78,2.74.2,4.832"/>
        <path id="패스_14001" data-name="패스 14001" class="cls-3" d="M53.091,40.862c-1.875,1.406-5.568,2.245-6.845,1.716s-.858-2.8,1.017-4.2a5.561,5.561,0,0,1,5.588-.761c1.609.687,2.115,1.842.241,3.247"/>
        <path id="패스_14002" data-name="패스 14002" class="cls-3" d="M38.025,40.862c1.875,1.406,5.567,2.245,6.844,1.716s.859-2.8-1.016-4.2a5.563,5.563,0,0,0-5.589-.761c-1.609.687-2.114,1.842-.241,3.247"/>
        <path id="패스_14003" data-name="패스 14003" class="cls-3" d="M48.791,40.444a3.157,3.157,0,1,1-6.314-.053c.013-1.518,1.432-2.152,3.175-2.137s3.152.673,3.139,2.191"/>
        <path id="패스_14004" data-name="패스 14004" class="cls-3" d="M18.213,34.42c-.023,2.693-1.825,5.625-3.193,5.634s-3.143-3-3.12-5.687,1.446-3.828,3.189-3.813,3.147,1.174,3.125,3.866"/>
        <path id="패스_14005" data-name="패스 14005" class="cls-4" d="M13.779,34.027c1.565,2.1,1.891,5.434.835,6.244s-4.2-.474-5.761-2.575-1.128-3.817.232-4.83,3.13-.94,4.694,1.161"/>
        <path id="패스_14006" data-name="패스 14006" class="cls-4" d="M21.128,37.727c-1.579,2.091-4.686,3.34-5.759,2.553s-.722-4.161.856-6.253,3.346-2.154,4.7-1.132,1.781,2.74.2,4.832"/>
        <path id="패스_14007" data-name="패스 14007" class="cls-3" d="M22.493,38.984c-1.875,1.406-5.568,2.245-6.845,1.716s-.858-2.8,1.017-4.2a5.561,5.561,0,0,1,5.588-.761c1.609.687,2.115,1.842.241,3.247"/>
        <path id="패스_14008" data-name="패스 14008" class="cls-3" d="M7.426,38.984C9.3,40.39,12.994,41.229,14.271,40.7s.858-2.8-1.017-4.2a5.561,5.561,0,0,0-5.588-.761c-1.609.687-2.115,1.842-.241,3.247"/>
        <path id="패스_14009" data-name="패스 14009" class="cls-3" d="M18.194,38.568a3.674,3.674,0,0,1-3.173,3.164,3.671,3.671,0,0,1-3.141-3.217c.012-1.518,1.432-2.152,3.175-2.137s3.151.673,3.139,2.191"/>
        <path id="패스_14010" data-name="패스 14010" class="cls-5" d="M57.317,12.763c-.113-.255-.865-.171-1.681.189a4.822,4.822,0,0,0-.53.273c.014-.15.022-.309.022-.474,0-.891-.226-1.614-.5-1.614s-.505.723-.505,1.614c0,.165.008.324.022.474a4.821,4.821,0,0,0-.53-.273c-.816-.36-1.568-.444-1.681-.189s.458.754,1.273,1.114a4.727,4.727,0,0,0,.673.24,4.6,4.6,0,0,0-.556.487c-.624.637-.968,1.311-.769,1.507s.866-.163,1.49-.8a4.395,4.395,0,0,0,.581-.723,4.448,4.448,0,0,0,.581.723c.624.637,1.291.995,1.491.8s-.145-.87-.769-1.507a4.6,4.6,0,0,0-.556-.487,4.739,4.739,0,0,0,.674-.24c.816-.36,1.386-.859,1.273-1.114"/>
        <path id="패스_14011" data-name="패스 14011" class="cls-6" d="M55.079,13.833a.456.456,0,1,1-.456-.456.456.456,0,0,1,.456.456"/>
        <path id="패스_14012" data-name="패스 14012" class="cls-5" d="M53.365,11.879c-.113-.255-.865-.171-1.681.189a4.822,4.822,0,0,0-.53.273c.014-.15.022-.309.022-.474,0-.891-.226-1.614-.5-1.614s-.505.723-.505,1.614c0,.165.008.324.022.474a4.822,4.822,0,0,0-.53-.273c-.816-.36-1.568-.444-1.681-.189s.458.754,1.273,1.114a4.727,4.727,0,0,0,.673.24,4.6,4.6,0,0,0-.556.487c-.624.637-.968,1.311-.769,1.507s.866-.163,1.49-.8a4.395,4.395,0,0,0,.581-.723,4.448,4.448,0,0,0,.581.723c.624.637,1.291.995,1.491.8s-.145-.87-.769-1.507a4.6,4.6,0,0,0-.556-.487,4.739,4.739,0,0,0,.674-.24c.816-.36,1.386-.859,1.273-1.114"/>
        <path id="패스_14013" data-name="패스 14013" class="cls-6" d="M51.127,12.949a.456.456,0,1,1-.456-.456.456.456,0,0,1,.456.456"/>
        <path id="패스_14014" data-name="패스 14014" class="cls-5" d="M52.025,18.439c-.114-.255-.865-.171-1.682.189a4.913,4.913,0,0,0-.53.273c.014-.15.022-.309.022-.474,0-.891-.225-1.614-.5-1.614s-.505.723-.505,1.614c0,.165.007.324.021.474a4.808,4.808,0,0,0-.529-.273c-.817-.36-1.568-.444-1.681-.189s.458.754,1.273,1.114a4.683,4.683,0,0,0,.673.24,4.52,4.52,0,0,0-.556.487c-.624.637-.969,1.311-.769,1.507s.867-.163,1.491-.8a4.441,4.441,0,0,0,.58-.723,4.5,4.5,0,0,0,.581.723c.625.637,1.291,1,1.492.8s-.145-.87-.77-1.507a4.52,4.52,0,0,0-.556-.487,4.7,4.7,0,0,0,.674-.24c.817-.36,1.387-.859,1.273-1.114"/>
        <path id="패스_14015" data-name="패스 14015" class="cls-6" d="M49.786,19.509a.456.456,0,1,1-.456-.456.456.456,0,0,1,.456.456"/>
        <path id="패스_14016" data-name="패스 14016" class="cls-5" d="M52.025,14.674c-.114-.255-.865-.171-1.682.189a4.913,4.913,0,0,0-.53.273c.014-.15.022-.309.022-.474,0-.891-.225-1.614-.5-1.614s-.505.723-.505,1.614c0,.165.007.324.021.474a4.808,4.808,0,0,0-.529-.273c-.817-.36-1.568-.444-1.681-.189s.458.754,1.273,1.114a4.683,4.683,0,0,0,.673.24,4.52,4.52,0,0,0-.556.487c-.624.637-.969,1.311-.769,1.507s.867-.163,1.491-.8a4.441,4.441,0,0,0,.58-.723,4.5,4.5,0,0,0,.581.723c.625.637,1.291.995,1.492.8s-.145-.87-.77-1.507a4.52,4.52,0,0,0-.556-.487,4.7,4.7,0,0,0,.674-.24c.817-.36,1.387-.859,1.273-1.114"/>
        <path id="패스_14017" data-name="패스 14017" class="cls-6" d="M49.786,15.744a.456.456,0,1,1-.456-.456.456.456,0,0,1,.456.456"/>
        <path id="패스_14018" data-name="패스 14018" class="cls-5" d="M63.232,14.674c-.113-.255-.865-.171-1.681.189a4.822,4.822,0,0,0-.53.273c.014-.15.022-.309.022-.474,0-.891-.226-1.614-.505-1.614s-.5.723-.5,1.614c0,.165.008.324.022.474a4.822,4.822,0,0,0-.53-.273c-.816-.36-1.568-.444-1.681-.189s.458.754,1.273,1.114a4.727,4.727,0,0,0,.673.24,4.594,4.594,0,0,0-.556.487c-.624.637-.968,1.311-.769,1.507s.866-.163,1.49-.8a4.395,4.395,0,0,0,.581-.723,4.447,4.447,0,0,0,.581.723c.624.637,1.291.995,1.491.8s-.145-.87-.769-1.507a4.6,4.6,0,0,0-.556-.487,4.739,4.739,0,0,0,.674-.24c.816-.36,1.386-.859,1.273-1.114"/>
        <path id="패스_14019" data-name="패스 14019" class="cls-6" d="M60.994,15.744a.456.456,0,1,1-.456-.456.456.456,0,0,1,.456.456"/>
        <path id="패스_14020" data-name="패스 14020" class="cls-5" d="M61.4,11.879c-.114-.255-.865-.171-1.682.189a4.913,4.913,0,0,0-.53.273c.014-.15.022-.309.022-.474,0-.891-.225-1.614-.5-1.614s-.505.723-.505,1.614c0,.165.007.324.021.474a4.808,4.808,0,0,0-.529-.273c-.817-.36-1.568-.444-1.681-.189s.458.754,1.273,1.114a4.683,4.683,0,0,0,.673.24,4.52,4.52,0,0,0-.556.487c-.624.637-.969,1.311-.77,1.507s.867-.163,1.491-.8a4.441,4.441,0,0,0,.58-.723,4.453,4.453,0,0,0,.582.723c.624.637,1.291.995,1.491.8s-.145-.87-.769-1.507a4.752,4.752,0,0,0-.556-.487,4.739,4.739,0,0,0,.674-.24c.815-.36,1.385-.859,1.272-1.114"/>
        <path id="패스_14021" data-name="패스 14021" class="cls-6" d="M59.16,12.949a.456.456,0,1,1-.456-.456.456.456,0,0,1,.456.456"/>
        <path id="패스_14022" data-name="패스 14022" class="cls-5" d="M63.232,18.752c-.113-.255-.865-.171-1.681.189a4.822,4.822,0,0,0-.53.273c.014-.15.022-.309.022-.474,0-.891-.226-1.614-.505-1.614s-.5.723-.5,1.614c0,.165.008.324.022.474a4.822,4.822,0,0,0-.53-.273c-.816-.36-1.568-.444-1.681-.189s.458.754,1.273,1.114a4.727,4.727,0,0,0,.673.24,4.594,4.594,0,0,0-.556.487c-.624.637-.968,1.311-.769,1.507s.866-.163,1.49-.8a4.395,4.395,0,0,0,.581-.723,4.447,4.447,0,0,0,.581.723c.624.637,1.291,1,1.491.8s-.145-.87-.769-1.507a4.6,4.6,0,0,0-.556-.487,4.739,4.739,0,0,0,.674-.24c.816-.36,1.386-.859,1.273-1.114"/>
        <path id="패스_14023" data-name="패스 14023" class="cls-6" d="M60.994,19.822a.456.456,0,1,1-.456-.456.456.456,0,0,1,.456.456"/>
        <path id="패스_14024" data-name="패스 14024" class="cls-5" d="M55.406,15.12c-.113-.255-.865-.171-1.681.189a4.822,4.822,0,0,0-.53.273c.014-.15.022-.309.022-.474,0-.891-.226-1.614-.5-1.614s-.505.723-.505,1.614c0,.165.008.324.022.474a4.822,4.822,0,0,0-.53-.273c-.816-.36-1.568-.444-1.681-.189s.458.754,1.273,1.114a4.727,4.727,0,0,0,.673.24,4.594,4.594,0,0,0-.556.487c-.624.637-.968,1.311-.769,1.507s.867-.163,1.49-.8a4.395,4.395,0,0,0,.581-.723,4.447,4.447,0,0,0,.581.723c.624.637,1.291,1,1.491.8s-.145-.87-.769-1.507a4.6,4.6,0,0,0-.556-.487,4.739,4.739,0,0,0,.674-.24c.816-.36,1.386-.859,1.273-1.114"/>
        <path id="패스_14025" data-name="패스 14025" class="cls-6" d="M53.167,16.19a.456.456,0,1,1-.456-.456.456.456,0,0,1,.456.456"/>
        <path id="패스_14026" data-name="패스 14026" class="cls-5" d="M59.315,15.12c-.113-.255-.865-.171-1.681.189a4.822,4.822,0,0,0-.53.273c.014-.15.022-.309.022-.474,0-.891-.226-1.614-.505-1.614s-.5.723-.5,1.614c0,.165.008.324.022.474a4.822,4.822,0,0,0-.53-.273c-.816-.36-1.568-.444-1.681-.189s.458.754,1.273,1.114a4.727,4.727,0,0,0,.673.24,4.594,4.594,0,0,0-.556.487c-.624.637-.968,1.311-.769,1.507s.866-.163,1.49-.8a4.394,4.394,0,0,0,.581-.723,4.447,4.447,0,0,0,.581.723c.624.637,1.291,1,1.491.8s-.145-.87-.769-1.507a4.6,4.6,0,0,0-.556-.487,4.739,4.739,0,0,0,.674-.24c.816-.36,1.386-.859,1.273-1.114"/>
        <path id="패스_14027" data-name="패스 14027" class="cls-6" d="M57.076,16.19a.456.456,0,1,1-.456-.456.456.456,0,0,1,.456.456"/>
        <path id="패스_14028" data-name="패스 14028" class="cls-5" d="M57.317,17c-.113-.255-.865-.171-1.681.189a4.822,4.822,0,0,0-.53.273c.014-.15.022-.309.022-.474,0-.891-.226-1.614-.5-1.614s-.505.723-.505,1.614c0,.165.008.324.022.474a4.822,4.822,0,0,0-.53-.273c-.816-.36-1.568-.444-1.681-.189s.458.754,1.273,1.114a4.727,4.727,0,0,0,.673.24,4.6,4.6,0,0,0-.556.487c-.624.637-.968,1.311-.769,1.507s.866-.163,1.49-.8a4.395,4.395,0,0,0,.581-.723,4.447,4.447,0,0,0,.581.723c.624.637,1.291,1,1.491.8s-.145-.87-.769-1.507a4.6,4.6,0,0,0-.556-.487,4.739,4.739,0,0,0,.674-.24c.816-.36,1.386-.859,1.273-1.114"/>
        <path id="패스_14029" data-name="패스 14029" class="cls-6" d="M55.079,18.075a.456.456,0,1,1-.456-.456.456.456,0,0,1,.456.456"/>
        <path id="패스_14030" data-name="패스 14030" class="cls-5" d="M57.317,10.524c-.113-.255-.865-.171-1.681.189a4.822,4.822,0,0,0-.53.273c.014-.15.022-.309.022-.474,0-.891-.226-1.614-.5-1.614s-.505.723-.505,1.614c0,.165.008.324.022.474a4.821,4.821,0,0,0-.53-.273c-.816-.36-1.568-.444-1.681-.189s.458.754,1.273,1.114a4.727,4.727,0,0,0,.673.24,4.594,4.594,0,0,0-.556.487c-.624.637-.968,1.311-.769,1.507s.866-.163,1.49-.8a4.395,4.395,0,0,0,.581-.723,4.447,4.447,0,0,0,.581.723c.624.637,1.291,1,1.491.8s-.145-.87-.769-1.507a4.594,4.594,0,0,0-.556-.487,4.739,4.739,0,0,0,.674-.24c.816-.36,1.386-.859,1.273-1.114"/>
        <path id="패스_14031" data-name="패스 14031" class="cls-6" d="M55.079,11.593a.456.456,0,1,1-.456-.456.456.456,0,0,1,.456.456"/>
        <path id="패스_14032" data-name="패스 14032" class="cls-5" d="M55.406,19.518c-.113-.255-.865-.17-1.681.189a4.822,4.822,0,0,0-.53.273c.014-.15.022-.309.022-.474,0-.891-.226-1.614-.5-1.614s-.505.723-.505,1.614c0,.165.008.324.022.474a4.822,4.822,0,0,0-.53-.273c-.816-.36-1.568-.444-1.681-.189s.458.754,1.273,1.114a4.853,4.853,0,0,0,.673.24,4.594,4.594,0,0,0-.556.487c-.624.637-.968,1.311-.769,1.507s.867-.163,1.49-.8a4.395,4.395,0,0,0,.581-.723,4.447,4.447,0,0,0,.581.723c.624.637,1.291,1,1.491.8s-.145-.87-.769-1.507a4.6,4.6,0,0,0-.556-.487,4.739,4.739,0,0,0,.674-.24c.816-.36,1.386-.859,1.273-1.114"/>
        <path id="패스_14033" data-name="패스 14033" class="cls-6" d="M53.167,20.588a.456.456,0,1,1-.456-.456.456.456,0,0,1,.456.456"/>
        <path id="패스_14034" data-name="패스 14034" class="cls-5" d="M59.492,19.518c-.113-.255-.865-.17-1.681.189a4.822,4.822,0,0,0-.53.273c.014-.15.022-.309.022-.474,0-.891-.226-1.614-.505-1.614s-.505.723-.505,1.614c0,.165.008.324.022.474a4.822,4.822,0,0,0-.53-.273c-.816-.36-1.568-.444-1.681-.189s.458.754,1.273,1.114a4.853,4.853,0,0,0,.673.24,4.6,4.6,0,0,0-.556.487c-.624.637-.968,1.311-.769,1.507s.866-.163,1.49-.8a4.447,4.447,0,0,0,.581-.723,4.447,4.447,0,0,0,.581.723c.624.637,1.291,1,1.491.8s-.145-.87-.769-1.507a4.594,4.594,0,0,0-.556-.487,4.739,4.739,0,0,0,.674-.24c.816-.36,1.386-.859,1.273-1.114"/>
        <path id="패스_14035" data-name="패스 14035" class="cls-6" d="M57.255,20.588a.457.457,0,1,1-.456-.456.456.456,0,0,1,.456.456"/>
        <path id="패스_14036" data-name="패스 14036" class="cls-5" d="M57.317,21.688c-.113-.255-.865-.171-1.681.189a4.822,4.822,0,0,0-.53.273c.014-.15.022-.309.022-.474,0-.891-.226-1.614-.5-1.614s-.505.723-.505,1.614c0,.165.008.324.022.474a4.822,4.822,0,0,0-.53-.273c-.816-.36-1.568-.444-1.681-.189s.458.754,1.273,1.114a4.727,4.727,0,0,0,.673.24,4.594,4.594,0,0,0-.556.487c-.624.637-.968,1.311-.769,1.507s.866-.163,1.49-.8a4.395,4.395,0,0,0,.581-.723,4.447,4.447,0,0,0,.581.723c.624.637,1.291,1,1.491.8s-.145-.87-.769-1.507a4.594,4.594,0,0,0-.556-.487,4.739,4.739,0,0,0,.674-.24c.816-.36,1.386-.859,1.273-1.114"/>
        <path id="패스_14037" data-name="패스 14037" class="cls-6" d="M55.079,22.757a.456.456,0,1,1-.456-.456.456.456,0,0,1,.456.456"/>
        <path id="패스_14038" data-name="패스 14038" class="cls-5" d="M48.362,29.055c-.113-.255-.865-.171-1.681.189a4.822,4.822,0,0,0-.53.273c.014-.15.022-.309.022-.474,0-.891-.226-1.614-.505-1.614s-.505.723-.505,1.614c0,.165.008.324.022.474a4.822,4.822,0,0,0-.53-.273c-.816-.36-1.568-.444-1.681-.189s.458.754,1.273,1.114a4.726,4.726,0,0,0,.673.24,4.6,4.6,0,0,0-.556.487c-.624.637-.968,1.311-.768,1.507s.866-.163,1.49-.8a4.394,4.394,0,0,0,.581-.723,4.394,4.394,0,0,0,.581.723c.624.637,1.291.995,1.491.8s-.145-.87-.769-1.507a4.6,4.6,0,0,0-.556-.487,4.739,4.739,0,0,0,.674-.24c.816-.36,1.386-.859,1.273-1.114"/>
        <path id="패스_14039" data-name="패스 14039" class="cls-6" d="M46.124,30.123a.457.457,0,1,1-.457-.456.457.457,0,0,1,.457.456"/>
        <path id="패스_14040" data-name="패스 14040" class="cls-5" d="M44.41,28.171c-.114-.255-.866-.171-1.682.189a4.822,4.822,0,0,0-.53.273c.014-.15.022-.309.022-.474,0-.891-.226-1.614-.505-1.614s-.505.723-.505,1.614c0,.165.008.324.022.474a4.822,4.822,0,0,0-.53-.273c-.816-.36-1.568-.444-1.681-.189s.458.754,1.273,1.114a4.727,4.727,0,0,0,.673.24,4.6,4.6,0,0,0-.556.487c-.624.637-.968,1.311-.768,1.507s.866-.163,1.49-.8A4.394,4.394,0,0,0,41.714,30a4.395,4.395,0,0,0,.581.723c.624.637,1.291,1,1.491.8s-.145-.87-.769-1.507a4.52,4.52,0,0,0-.556-.487,4.739,4.739,0,0,0,.674-.24c.816-.36,1.386-.859,1.273-1.114"/>
        <path id="패스_14041" data-name="패스 14041" class="cls-6" d="M42.171,29.24a.456.456,0,1,1-.456-.456.456.456,0,0,1,.456.456"/>
        <path id="패스_14042" data-name="패스 14042" class="cls-5" d="M43.069,34.731c-.113-.255-.865-.171-1.681.189a4.822,4.822,0,0,0-.53.273c.014-.15.022-.309.022-.474,0-.891-.226-1.614-.505-1.614s-.505.723-.505,1.614c0,.165.008.324.022.474a4.822,4.822,0,0,0-.53-.273c-.816-.36-1.568-.444-1.681-.189s.458.754,1.273,1.114a4.727,4.727,0,0,0,.673.24,4.6,4.6,0,0,0-.556.487c-.624.637-.968,1.311-.769,1.507s.866-.163,1.49-.8a4.394,4.394,0,0,0,.581-.723,4.447,4.447,0,0,0,.581.723c.624.637,1.291.995,1.491.8s-.145-.87-.769-1.507a4.594,4.594,0,0,0-.556-.487,4.739,4.739,0,0,0,.674-.24c.816-.36,1.386-.859,1.273-1.114"/>
        <path id="패스_14043" data-name="패스 14043" class="cls-6" d="M40.833,35.8a.457.457,0,1,1-.457-.456.457.457,0,0,1,.457.456"/>
        <path id="패스_14044" data-name="패스 14044" class="cls-5" d="M43.069,30.966c-.113-.255-.865-.171-1.681.189a4.822,4.822,0,0,0-.53.273c.014-.15.022-.309.022-.474,0-.891-.226-1.614-.505-1.614s-.505.723-.505,1.614c0,.165.008.324.022.474a4.822,4.822,0,0,0-.53-.273c-.816-.36-1.568-.444-1.681-.189s.458.754,1.273,1.114a4.727,4.727,0,0,0,.673.24,4.6,4.6,0,0,0-.556.487c-.624.637-.968,1.311-.769,1.507s.866-.163,1.49-.8a4.395,4.395,0,0,0,.581-.723,4.447,4.447,0,0,0,.581.723c.624.637,1.291.995,1.491.8s-.145-.87-.769-1.507a4.594,4.594,0,0,0-.556-.487,4.739,4.739,0,0,0,.674-.24c.816-.36,1.386-.859,1.273-1.114"/>
        <path id="패스_14045" data-name="패스 14045" class="cls-6" d="M40.833,32.036a.457.457,0,1,1-.457-.456.457.457,0,0,1,.457.456"/>
        <path id="패스_14046" data-name="패스 14046" class="cls-5" d="M54.278,30.966c-.114-.255-.866-.171-1.682.189a4.822,4.822,0,0,0-.53.273c.014-.15.022-.309.022-.474,0-.891-.226-1.614-.505-1.614s-.505.723-.505,1.614c0,.165.008.324.022.474a4.822,4.822,0,0,0-.53-.273c-.816-.36-1.568-.444-1.681-.189s.458.754,1.273,1.114a4.727,4.727,0,0,0,.673.24,4.6,4.6,0,0,0-.556.487c-.624.637-.968,1.311-.769,1.507s.866-.163,1.49-.8a4.395,4.395,0,0,0,.581-.723,4.447,4.447,0,0,0,.581.723c.624.637,1.291.995,1.491.8s-.145-.87-.769-1.507a4.594,4.594,0,0,0-.556-.487A4.7,4.7,0,0,0,53,32.08c.816-.36,1.386-.859,1.273-1.114"/>
        <path id="패스_14047" data-name="패스 14047" class="cls-6" d="M52.039,32.036a.457.457,0,1,1-.456-.456.456.456,0,0,1,.456.456"/>
        <path id="패스_14048" data-name="패스 14048" class="cls-5" d="M52.444,28.171c-.114-.255-.866-.171-1.682.189a4.822,4.822,0,0,0-.53.273c.014-.15.022-.309.022-.474,0-.891-.226-1.614-.5-1.614s-.506.723-.506,1.614c0,.165.008.324.022.474a4.822,4.822,0,0,0-.53-.273c-.816-.36-1.568-.444-1.68-.189s.458.754,1.272,1.114a4.727,4.727,0,0,0,.673.24,4.672,4.672,0,0,0-.556.487c-.624.637-.968,1.311-.769,1.507s.866-.163,1.491-.8a4.442,4.442,0,0,0,.58-.723,4.5,4.5,0,0,0,.581.723c.624.637,1.291,1,1.491.8s-.145-.87-.769-1.507a4.6,4.6,0,0,0-.556-.487,4.7,4.7,0,0,0,.674-.24c.816-.36,1.386-.859,1.273-1.114"/>
        <path id="패스_14049" data-name="패스 14049" class="cls-6" d="M50.206,29.24a.457.457,0,1,1-.456-.456.456.456,0,0,1,.456.456"/>
        <path id="패스_14050" data-name="패스 14050" class="cls-5" d="M54.278,35.044c-.114-.255-.866-.171-1.682.189a4.821,4.821,0,0,0-.53.273c.014-.15.022-.309.022-.474,0-.891-.226-1.614-.505-1.614s-.505.723-.505,1.614c0,.165.008.324.022.474a4.821,4.821,0,0,0-.53-.273c-.816-.36-1.568-.444-1.681-.189s.458.754,1.273,1.114a4.727,4.727,0,0,0,.673.24,4.6,4.6,0,0,0-.556.487c-.624.637-.968,1.311-.769,1.507s.866-.163,1.49-.8a4.394,4.394,0,0,0,.581-.723,4.447,4.447,0,0,0,.581.723c.624.637,1.291,1,1.491.8s-.145-.87-.769-1.507a4.594,4.594,0,0,0-.556-.487,4.7,4.7,0,0,0,.674-.24c.816-.36,1.386-.859,1.273-1.114"/>
        <path id="패스_14051" data-name="패스 14051" class="cls-6" d="M52.039,36.114a.457.457,0,1,1-.456-.456.456.456,0,0,1,.456.456"/>
        <path id="패스_14052" data-name="패스 14052" class="cls-5" d="M46.451,31.412c-.114-.255-.866-.171-1.682.189a4.822,4.822,0,0,0-.53.273c.014-.15.022-.309.022-.474,0-.891-.226-1.614-.5-1.614s-.506.723-.506,1.614c0,.165.008.324.022.474a4.821,4.821,0,0,0-.53-.273c-.816-.36-1.568-.444-1.68-.189s.458.754,1.272,1.114a4.727,4.727,0,0,0,.673.24,4.672,4.672,0,0,0-.556.487c-.624.637-.968,1.311-.769,1.507s.866-.163,1.491-.8a4.441,4.441,0,0,0,.58-.723,4.5,4.5,0,0,0,.581.723c.624.637,1.291,1,1.491.8s-.145-.87-.769-1.507a4.6,4.6,0,0,0-.556-.487,4.7,4.7,0,0,0,.674-.24c.816-.36,1.386-.859,1.273-1.114"/>
        <path id="패스_14053" data-name="패스 14053" class="cls-6" d="M44.212,32.481a.456.456,0,1,1-.456-.456.456.456,0,0,1,.456.456"/>
        <path id="패스_14054" data-name="패스 14054" class="cls-5" d="M50.36,31.412c-.114-.255-.866-.171-1.682.189a4.821,4.821,0,0,0-.53.273c.014-.15.022-.309.022-.474,0-.891-.226-1.614-.5-1.614s-.506.723-.506,1.614c0,.165.008.324.022.474a4.9,4.9,0,0,0-.529-.273c-.817-.36-1.569-.444-1.681-.189s.458.754,1.272,1.114a4.771,4.771,0,0,0,.673.24,4.672,4.672,0,0,0-.556.487c-.624.637-.968,1.311-.769,1.507s.866-.163,1.491-.8a4.441,4.441,0,0,0,.58-.723,4.5,4.5,0,0,0,.581.723c.624.637,1.291,1,1.492.8s-.146-.87-.77-1.507a4.6,4.6,0,0,0-.556-.487,4.7,4.7,0,0,0,.674-.24c.816-.36,1.386-.859,1.273-1.114"/>
        <path id="패스_14055" data-name="패스 14055" class="cls-6" d="M48.121,32.481a.456.456,0,1,1-.456-.456.456.456,0,0,1,.456.456"/>
        <path id="패스_14056" data-name="패스 14056" class="cls-5" d="M48.362,33.3c-.113-.255-.865-.171-1.681.189a4.822,4.822,0,0,0-.53.273c.014-.15.022-.309.022-.474,0-.891-.226-1.614-.505-1.614s-.505.723-.505,1.614c0,.165.008.324.022.474a4.822,4.822,0,0,0-.53-.273c-.816-.36-1.568-.444-1.681-.189s.458.754,1.273,1.114a4.726,4.726,0,0,0,.673.24,4.6,4.6,0,0,0-.556.487c-.624.637-.968,1.311-.768,1.507s.866-.163,1.49-.8a4.394,4.394,0,0,0,.581-.723,4.394,4.394,0,0,0,.581.723c.624.637,1.291.995,1.491.8s-.145-.87-.769-1.507a4.6,4.6,0,0,0-.556-.487,4.739,4.739,0,0,0,.674-.24c.816-.36,1.386-.859,1.273-1.114"/>
        <path id="패스_14057" data-name="패스 14057" class="cls-6" d="M46.124,34.367a.457.457,0,1,1-.457-.456.457.457,0,0,1,.457.456"/>
        <path id="패스_14058" data-name="패스 14058" class="cls-5" d="M48.362,26.815c-.113-.255-.865-.171-1.681.189a4.821,4.821,0,0,0-.53.273c.014-.15.022-.309.022-.474,0-.891-.226-1.614-.505-1.614s-.505.723-.505,1.614c0,.165.008.324.022.474a4.821,4.821,0,0,0-.53-.273c-.816-.36-1.568-.444-1.681-.189s.458.754,1.273,1.114a4.727,4.727,0,0,0,.673.24,4.6,4.6,0,0,0-.556.487c-.624.637-.968,1.311-.768,1.507s.866-.163,1.49-.8a4.395,4.395,0,0,0,.581-.723,4.395,4.395,0,0,0,.581.723c.624.637,1.291.995,1.491.8s-.145-.87-.769-1.507a4.6,4.6,0,0,0-.556-.487,4.739,4.739,0,0,0,.674-.24c.816-.36,1.386-.859,1.273-1.114"/>
        <path id="패스_14059" data-name="패스 14059" class="cls-6" d="M46.124,27.885a.457.457,0,1,1-.457-.456.457.457,0,0,1,.457.456"/>
        <path id="패스_14060" data-name="패스 14060" class="cls-5" d="M46.451,35.81c-.114-.255-.866-.171-1.682.189a4.821,4.821,0,0,0-.53.273c.014-.15.022-.309.022-.474,0-.891-.226-1.614-.5-1.614s-.506.723-.506,1.614c0,.165.008.324.022.474a4.821,4.821,0,0,0-.53-.273c-.816-.36-1.568-.444-1.68-.189s.458.754,1.272,1.114a4.727,4.727,0,0,0,.673.24,4.672,4.672,0,0,0-.556.487c-.624.637-.968,1.311-.769,1.507s.866-.163,1.491-.8a4.442,4.442,0,0,0,.58-.723,4.5,4.5,0,0,0,.581.723c.624.637,1.291.995,1.491.8s-.145-.87-.769-1.507a4.594,4.594,0,0,0-.556-.487,4.7,4.7,0,0,0,.674-.24c.816-.36,1.386-.859,1.273-1.114"/>
        <path id="패스_14061" data-name="패스 14061" class="cls-6" d="M44.212,36.88a.456.456,0,1,1-.456-.456.456.456,0,0,1,.456.456"/>
        <path id="패스_14062" data-name="패스 14062" class="cls-5" d="M50.537,35.81c-.113-.255-.865-.171-1.681.189a4.821,4.821,0,0,0-.53.273c.014-.15.022-.309.022-.474,0-.891-.226-1.614-.505-1.614s-.5.723-.5,1.614c0,.165.008.324.022.474A4.821,4.821,0,0,0,46.83,36c-.816-.36-1.568-.444-1.681-.189s.458.754,1.273,1.114a4.727,4.727,0,0,0,.673.24,4.594,4.594,0,0,0-.556.487c-.624.637-.968,1.311-.769,1.507s.866-.163,1.49-.8a4.394,4.394,0,0,0,.581-.723,4.447,4.447,0,0,0,.581.723c.624.637,1.291.995,1.491.8s-.145-.87-.769-1.507a4.6,4.6,0,0,0-.556-.487,4.739,4.739,0,0,0,.674-.24c.816-.36,1.386-.859,1.273-1.114"/>
        <path id="패스_14063" data-name="패스 14063" class="cls-6" d="M48.3,36.88a.456.456,0,1,1-.456-.456.456.456,0,0,1,.456.456"/>
        <path id="패스_14064" data-name="패스 14064" class="cls-5" d="M48.362,37.979c-.113-.255-.865-.171-1.681.189a4.822,4.822,0,0,0-.53.273c.014-.15.022-.309.022-.474,0-.891-.226-1.614-.505-1.614s-.505.723-.505,1.614c0,.165.008.324.022.474a4.822,4.822,0,0,0-.53-.273c-.816-.36-1.568-.444-1.681-.189s.458.754,1.273,1.114a4.726,4.726,0,0,0,.673.24,4.6,4.6,0,0,0-.556.487c-.624.637-.968,1.311-.768,1.507s.866-.163,1.49-.8a4.395,4.395,0,0,0,.581-.723,4.395,4.395,0,0,0,.581.723c.624.637,1.291.995,1.491.8s-.145-.87-.769-1.507a4.6,4.6,0,0,0-.556-.487,4.739,4.739,0,0,0,.674-.24c.816-.36,1.386-.859,1.273-1.114"/>
        <path id="패스_14065" data-name="패스 14065" class="cls-6" d="M46.124,39.049a.457.457,0,1,1-.457-.456.457.457,0,0,1,.457.456"/>
        <path id="패스_14066" data-name="패스 14066" class="cls-5" d="M17.441,25.713c-.114-.255-.866-.171-1.682.189a4.913,4.913,0,0,0-.53.273c.014-.15.023-.309.023-.474,0-.891-.226-1.614-.505-1.614s-.506.723-.506,1.614c0,.165.009.324.023.474a4.928,4.928,0,0,0-.531-.273c-.815-.36-1.568-.444-1.681-.189s.458.754,1.274,1.114a4.714,4.714,0,0,0,.672.24,4.585,4.585,0,0,0-.555.487c-.625.637-.969,1.311-.769,1.507s.866-.163,1.489-.8a4.453,4.453,0,0,0,.582-.723,4.441,4.441,0,0,0,.58.723c.625.637,1.291,1,1.491.8s-.145-.87-.769-1.507a4.6,4.6,0,0,0-.556-.487,4.7,4.7,0,0,0,.674-.24c.816-.36,1.386-.859,1.273-1.114"/>
        <path id="패스_14067" data-name="패스 14067" class="cls-6" d="M15.2,26.783a.456.456,0,1,1-.456-.456.456.456,0,0,1,.456.456"/>
        <path id="패스_14068" data-name="패스 14068" class="cls-5" d="M13.488,24.829c-.114-.255-.866-.171-1.682.189a4.913,4.913,0,0,0-.53.273c.014-.15.023-.309.023-.474,0-.891-.226-1.614-.506-1.614s-.505.723-.505,1.614c0,.165.009.324.023.474a4.927,4.927,0,0,0-.531-.273c-.815-.36-1.568-.444-1.681-.189s.458.754,1.274,1.114a4.714,4.714,0,0,0,.672.24,4.511,4.511,0,0,0-.555.487c-.625.637-.969,1.311-.77,1.507s.867-.163,1.49-.8a4.453,4.453,0,0,0,.582-.723,4.441,4.441,0,0,0,.58.723c.625.637,1.291.995,1.491.8s-.144-.87-.769-1.507a4.6,4.6,0,0,0-.556-.487,4.7,4.7,0,0,0,.674-.24c.816-.36,1.386-.859,1.273-1.114"/>
        <path id="패스_14069" data-name="패스 14069" class="cls-6" d="M11.248,25.9a.456.456,0,1,1-.456-.456.456.456,0,0,1,.456.456"/>
        <path id="패스_14070" data-name="패스 14070" class="cls-5" d="M12.148,31.389c-.114-.255-.866-.171-1.682.189a4.914,4.914,0,0,0-.53.273c.014-.15.022-.309.022-.474,0-.891-.225-1.614-.505-1.614s-.505.723-.505,1.614c0,.165.009.324.022.474a4.822,4.822,0,0,0-.53-.273c-.815-.36-1.568-.444-1.68-.189s.458.754,1.273,1.114a4.714,4.714,0,0,0,.672.24,4.6,4.6,0,0,0-.556.487c-.624.637-.968,1.311-.769,1.507s.867-.163,1.49-.8a4.395,4.395,0,0,0,.581-.723,4.447,4.447,0,0,0,.581.723c.624.637,1.291.995,1.491.8s-.145-.87-.769-1.507a4.6,4.6,0,0,0-.556-.487,4.7,4.7,0,0,0,.674-.24c.816-.36,1.386-.859,1.273-1.114"/>
        <path id="패스_14071" data-name="패스 14071" class="cls-6" d="M9.908,32.458A.456.456,0,1,1,9.452,32a.456.456,0,0,1,.456.456"/>
        <path id="패스_14072" data-name="패스 14072" class="cls-5" d="M12.148,27.624c-.114-.255-.866-.171-1.682.189a4.913,4.913,0,0,0-.53.273c.014-.15.022-.309.022-.474,0-.891-.225-1.614-.505-1.614s-.505.723-.505,1.614c0,.165.009.324.022.474a4.822,4.822,0,0,0-.53-.273c-.815-.36-1.568-.444-1.68-.189s.458.754,1.273,1.114a4.714,4.714,0,0,0,.672.24,4.6,4.6,0,0,0-.556.487c-.624.637-.968,1.311-.769,1.507s.867-.163,1.49-.8a4.395,4.395,0,0,0,.581-.723,4.447,4.447,0,0,0,.581.723c.624.637,1.291.995,1.491.8s-.145-.87-.769-1.507a4.6,4.6,0,0,0-.556-.487,4.7,4.7,0,0,0,.674-.24c.816-.36,1.386-.859,1.273-1.114"/>
        <path id="패스_14073" data-name="패스 14073" class="cls-6" d="M9.908,28.694a.456.456,0,1,1-.456-.456.456.456,0,0,1,.456.456"/>
        <path id="패스_14074" data-name="패스 14074" class="cls-5" d="M23.354,27.624c-.113-.255-.865-.171-1.681.189a4.821,4.821,0,0,0-.53.273c.014-.15.022-.309.022-.474,0-.891-.226-1.614-.505-1.614s-.5.723-.5,1.614c0,.165.008.324.022.474a4.821,4.821,0,0,0-.53-.273c-.816-.36-1.568-.444-1.681-.189s.458.754,1.273,1.114a4.727,4.727,0,0,0,.673.24,4.594,4.594,0,0,0-.556.487c-.624.637-.968,1.311-.769,1.507s.866-.163,1.49-.8a4.395,4.395,0,0,0,.581-.723,4.447,4.447,0,0,0,.581.723c.624.637,1.291.995,1.491.8s-.145-.87-.769-1.507a4.6,4.6,0,0,0-.556-.487,4.739,4.739,0,0,0,.674-.24c.816-.36,1.386-.859,1.273-1.114"/>
        <path id="패스_14075" data-name="패스 14075" class="cls-6" d="M21.117,28.694a.456.456,0,1,1-.457-.456.456.456,0,0,1,.457.456"/>
        <path id="패스_14076" data-name="패스 14076" class="cls-5" d="M21.521,24.829c-.113-.255-.865-.171-1.681.189a4.822,4.822,0,0,0-.53.273c.014-.15.022-.309.022-.474,0-.891-.226-1.614-.505-1.614s-.5.723-.5,1.614c0,.165.008.324.022.474a4.821,4.821,0,0,0-.53-.273c-.816-.36-1.568-.444-1.681-.189s.458.754,1.273,1.114a4.727,4.727,0,0,0,.673.24,4.594,4.594,0,0,0-.556.487c-.624.637-.968,1.311-.769,1.507s.866-.163,1.49-.8a4.395,4.395,0,0,0,.581-.723,4.447,4.447,0,0,0,.581.723c.624.637,1.291.995,1.491.8s-.145-.87-.769-1.507a4.6,4.6,0,0,0-.556-.487,4.739,4.739,0,0,0,.674-.24c.816-.36,1.386-.859,1.273-1.114"/>
        <path id="패스_14077" data-name="패스 14077" class="cls-6" d="M19.284,25.9a.456.456,0,1,1-.457-.456.456.456,0,0,1,.457.456"/>
        <path id="패스_14078" data-name="패스 14078" class="cls-5" d="M23.354,31.7c-.113-.255-.865-.171-1.681.189a4.821,4.821,0,0,0-.53.273c.014-.15.022-.309.022-.474,0-.891-.226-1.614-.505-1.614s-.5.723-.5,1.614c0,.165.008.324.022.474a4.821,4.821,0,0,0-.53-.273c-.816-.36-1.568-.444-1.681-.189s.458.754,1.273,1.114a4.727,4.727,0,0,0,.673.24,4.71,4.71,0,0,0-.558.488c-.624.637-.968,1.311-.769,1.507s.866-.163,1.49-.8a4.394,4.394,0,0,0,.581-.723,4.447,4.447,0,0,0,.581.723c.624.637,1.291.995,1.491.8s-.145-.87-.769-1.507a4.6,4.6,0,0,0-.556-.487,4.739,4.739,0,0,0,.674-.24c.816-.36,1.386-.859,1.273-1.114"/>
        <path id="패스_14079" data-name="패스 14079" class="cls-6" d="M21.117,32.771a.456.456,0,1,1-.457-.456.456.456,0,0,1,.457.456"/>
        <path id="패스_14080" data-name="패스 14080" class="cls-5" d="M15.528,28.07c-.113-.255-.865-.171-1.681.189a4.822,4.822,0,0,0-.53.273c.014-.15.022-.309.022-.474,0-.891-.226-1.614-.505-1.614s-.5.723-.5,1.614c0,.165.008.324.022.474a4.822,4.822,0,0,0-.53-.273c-.816-.36-1.568-.444-1.681-.189s.458.754,1.273,1.114a4.727,4.727,0,0,0,.673.24,4.594,4.594,0,0,0-.556.487c-.624.637-.968,1.311-.769,1.507s.866-.163,1.49-.8a4.395,4.395,0,0,0,.581-.723,4.447,4.447,0,0,0,.581.723c.624.637,1.291,1,1.491.8s-.145-.87-.769-1.507a4.6,4.6,0,0,0-.556-.487,4.739,4.739,0,0,0,.674-.24c.816-.36,1.386-.859,1.273-1.114"/>
        <path id="패스_14081" data-name="패스 14081" class="cls-6" d="M13.29,29.139a.456.456,0,1,1-.456-.456.456.456,0,0,1,.456.456"/>
        <path id="패스_14082" data-name="패스 14082" class="cls-5" d="M19.438,28.07c-.114-.255-.866-.171-1.682.189a4.822,4.822,0,0,0-.53.273c.014-.15.022-.309.022-.474,0-.891-.226-1.614-.5-1.614s-.5.723-.5,1.614c0,.165.009.324.022.474a4.822,4.822,0,0,0-.53-.273c-.815-.36-1.568-.444-1.681-.189s.458.754,1.274,1.114a4.714,4.714,0,0,0,.672.24,4.6,4.6,0,0,0-.556.487c-.624.637-.968,1.311-.769,1.507s.866-.163,1.49-.8a4.394,4.394,0,0,0,.581-.723,4.447,4.447,0,0,0,.581.723c.624.637,1.291,1,1.491.8s-.145-.87-.769-1.507a4.6,4.6,0,0,0-.556-.487,4.739,4.739,0,0,0,.674-.24c.816-.36,1.386-.859,1.273-1.114"/>
        <path id="패스_14083" data-name="패스 14083" class="cls-6" d="M17.2,29.139a.456.456,0,1,1-.456-.456.456.456,0,0,1,.456.456"/>
        <path id="패스_14084" data-name="패스 14084" class="cls-5" d="M17.441,29.952c-.114-.255-.866-.171-1.682.189a4.913,4.913,0,0,0-.53.273c.014-.15.023-.309.023-.474,0-.891-.226-1.614-.505-1.614s-.506.723-.506,1.614c0,.165.009.324.023.474a4.928,4.928,0,0,0-.531-.273c-.815-.36-1.568-.444-1.681-.189s.458.754,1.274,1.114a4.714,4.714,0,0,0,.672.24,4.585,4.585,0,0,0-.555.487c-.625.637-.969,1.311-.769,1.507s.866-.163,1.489-.8a4.453,4.453,0,0,0,.582-.723,4.441,4.441,0,0,0,.58.723c.625.637,1.291.995,1.491.8s-.145-.87-.769-1.507a4.6,4.6,0,0,0-.556-.487,4.7,4.7,0,0,0,.674-.24c.816-.36,1.386-.859,1.273-1.114"/>
        <path id="패스_14085" data-name="패스 14085" class="cls-6" d="M15.2,31.025a.456.456,0,1,1-.456-.456.456.456,0,0,1,.456.456"/>
        <path id="패스_14086" data-name="패스 14086" class="cls-5" d="M17.441,23.473c-.114-.255-.866-.171-1.682.189a4.913,4.913,0,0,0-.53.273c.014-.15.023-.309.023-.474,0-.891-.226-1.614-.505-1.614s-.506.723-.506,1.614c0,.165.009.324.023.474a4.928,4.928,0,0,0-.531-.273c-.815-.36-1.568-.444-1.681-.189s.458.754,1.274,1.114a4.714,4.714,0,0,0,.672.24,4.585,4.585,0,0,0-.555.487c-.625.637-.969,1.311-.769,1.507s.866-.163,1.489-.8a4.453,4.453,0,0,0,.582-.723,4.441,4.441,0,0,0,.58.723c.625.637,1.291,1,1.491.8s-.145-.87-.769-1.507a4.6,4.6,0,0,0-.556-.487,4.7,4.7,0,0,0,.674-.24c.816-.36,1.386-.859,1.273-1.114"/>
        <path id="패스_14087" data-name="패스 14087" class="cls-6" d="M15.2,24.543a.456.456,0,1,1-.456-.456.456.456,0,0,1,.456.456"/>
        <path id="패스_14088" data-name="패스 14088" class="cls-5" d="M15.528,32.468c-.113-.255-.865-.17-1.681.189a4.821,4.821,0,0,0-.53.273c.014-.15.022-.309.022-.474,0-.891-.226-1.614-.505-1.614s-.5.723-.5,1.614c0,.165.008.324.022.474a4.821,4.821,0,0,0-.53-.273c-.816-.36-1.568-.444-1.681-.189s.458.754,1.273,1.114a4.853,4.853,0,0,0,.673.24,4.6,4.6,0,0,0-.556.487c-.624.637-.968,1.311-.769,1.507s.866-.163,1.49-.8a4.447,4.447,0,0,0,.581-.723,4.447,4.447,0,0,0,.581.723c.624.637,1.291,1,1.491.8s-.145-.87-.769-1.507a4.6,4.6,0,0,0-.556-.487,4.739,4.739,0,0,0,.674-.24c.816-.36,1.386-.859,1.273-1.114"/>
        <path id="패스_14089" data-name="패스 14089" class="cls-6" d="M13.29,33.538a.456.456,0,1,1-.456-.456.456.456,0,0,1,.456.456"/>
        <path id="패스_14090" data-name="패스 14090" class="cls-5" d="M19.615,32.468c-.113-.255-.865-.17-1.681.189a4.821,4.821,0,0,0-.53.273c.014-.15.022-.309.022-.474,0-.891-.226-1.614-.505-1.614s-.5.723-.5,1.614c0,.165.008.324.023.474a4.821,4.821,0,0,0-.53-.273c-.816-.36-1.568-.444-1.681-.189s.457.754,1.273,1.114a4.853,4.853,0,0,0,.673.24,4.586,4.586,0,0,0-.555.487c-.624.637-.968,1.311-.769,1.507s.867-.163,1.491-.8a4.447,4.447,0,0,0,.581-.723,4.441,4.441,0,0,0,.58.723c.624.637,1.292,1,1.491.8s-.145-.87-.769-1.507a4.6,4.6,0,0,0-.556-.487,4.866,4.866,0,0,0,.674-.24c.815-.36,1.385-.859,1.273-1.114"/>
        <path id="패스_14091" data-name="패스 14091" class="cls-6" d="M17.376,33.538a.456.456,0,1,1-.456-.456.456.456,0,0,1,.456.456"/>
        <path id="패스_14092" data-name="패스 14092" class="cls-5" d="M17.441,34.637c-.114-.255-.866-.171-1.682.189a4.913,4.913,0,0,0-.53.273c.014-.15.023-.309.023-.474,0-.891-.226-1.614-.505-1.614s-.506.723-.506,1.614c0,.165.009.324.023.474a4.928,4.928,0,0,0-.531-.273c-.815-.36-1.568-.444-1.681-.189s.458.754,1.274,1.114a4.714,4.714,0,0,0,.672.24,4.585,4.585,0,0,0-.555.487c-.625.637-.969,1.311-.769,1.507s.866-.163,1.489-.8a4.453,4.453,0,0,0,.582-.723,4.441,4.441,0,0,0,.58.723c.625.637,1.291.995,1.491.8s-.145-.87-.769-1.507a4.594,4.594,0,0,0-.556-.487,4.7,4.7,0,0,0,.674-.24c.816-.36,1.386-.859,1.273-1.114"/>
        <path id="패스_14093" data-name="패스 14093" class="cls-6" d="M15.2,35.707a.456.456,0,1,1-.456-.456.456.456,0,0,1,.456.456"/>
        <path id="패스_14094" data-name="패스 14094" class="cls-5" d="M11.413,9.189c-.114-.255-.866-.171-1.682.189a4.913,4.913,0,0,0-.53.273c.014-.15.023-.309.023-.474,0-.891-.226-1.614-.505-1.614s-.505.723-.505,1.614c0,.165.008.324.022.474a4.913,4.913,0,0,0-.53-.273c-.816-.36-1.568-.444-1.681-.189S6.483,9.943,7.3,10.3a4.727,4.727,0,0,0,.673.24,4.594,4.594,0,0,0-.556.487c-.624.637-.968,1.311-.769,1.507s.866-.163,1.489-.8a4.4,4.4,0,0,0,.582-.723,4.441,4.441,0,0,0,.58.723c.625.637,1.292.995,1.491.8s-.144-.87-.769-1.507a4.662,4.662,0,0,0-.555-.487,4.727,4.727,0,0,0,.673-.24c.816-.36,1.386-.859,1.273-1.114"/>
        <path id="패스_14095" data-name="패스 14095" class="cls-6" d="M9.175,10.258A.457.457,0,1,1,8.719,9.8a.456.456,0,0,1,.456.456"/>
        <path id="패스_14096" data-name="패스 14096" class="cls-5" d="M7.46,8.3c-.113-.255-.865-.171-1.681.189a4.822,4.822,0,0,0-.53.273c.014-.15.022-.309.022-.474,0-.891-.226-1.614-.505-1.614s-.5.723-.5,1.614c0,.165.008.324.022.474a4.822,4.822,0,0,0-.53-.273c-.816-.36-1.568-.444-1.681-.189s.458.754,1.273,1.114a4.727,4.727,0,0,0,.673.24,4.6,4.6,0,0,0-.556.487c-.624.637-.968,1.311-.769,1.507s.866-.163,1.49-.8a4.395,4.395,0,0,0,.581-.723,4.447,4.447,0,0,0,.581.723c.624.637,1.291.995,1.491.8s-.145-.87-.769-1.507a4.6,4.6,0,0,0-.556-.487,4.739,4.739,0,0,0,.674-.24C7,9.058,7.571,8.559,7.458,8.3"/>
        <path id="패스_14097" data-name="패스 14097" class="cls-6" d="M5.22,9.374a.457.457,0,1,1-.457-.456.456.456,0,0,1,.457.456"/>
        <path id="패스_14098" data-name="패스 14098" class="cls-5" d="M6.121,14.864c-.114-.255-.866-.171-1.682.189a4.807,4.807,0,0,0-.529.273c.014-.15.022-.309.022-.474,0-.891-.226-1.614-.5-1.614s-.505.723-.505,1.614c0,.165.008.324.022.474a4.913,4.913,0,0,0-.53-.273c-.816-.36-1.569-.444-1.681-.189s.458.754,1.273,1.114a4.726,4.726,0,0,0,.673.24,4.52,4.52,0,0,0-.556.487c-.625.637-.968,1.311-.77,1.507s.867-.163,1.491-.8a4.337,4.337,0,0,0,.58-.723,4.5,4.5,0,0,0,.581.723c.624.637,1.291.995,1.492.8s-.145-.87-.77-1.507a4.653,4.653,0,0,0-.552-.488,4.739,4.739,0,0,0,.674-.24c.816-.36,1.386-.859,1.273-1.114"/>
        <path id="패스_14099" data-name="패스 14099" class="cls-6" d="M3.882,15.934a.457.457,0,1,1-.457-.456.456.456,0,0,1,.457.456"/>
        <path id="패스_14100" data-name="패스 14100" class="cls-5" d="M6.121,11.1c-.114-.255-.866-.171-1.682.189a4.807,4.807,0,0,0-.529.273c.014-.15.022-.309.022-.474,0-.891-.226-1.614-.5-1.614s-.505.723-.505,1.614c0,.165.008.324.022.474a4.913,4.913,0,0,0-.53-.273C1.6,10.928.845,10.844.733,11.1s.458.754,1.273,1.114a4.727,4.727,0,0,0,.673.24,4.52,4.52,0,0,0-.556.487c-.625.637-.968,1.311-.77,1.507s.867-.163,1.491-.8a4.337,4.337,0,0,0,.58-.723,4.5,4.5,0,0,0,.581.723c.624.637,1.291.995,1.492.8s-.145-.87-.77-1.507a4.52,4.52,0,0,0-.556-.487,4.7,4.7,0,0,0,.674-.24c.816-.36,1.386-.859,1.273-1.114"/>
        <path id="패스_14101" data-name="패스 14101" class="cls-6" d="M3.882,12.169a.457.457,0,1,1-.457-.456.456.456,0,0,1,.457.456"/>
        <path id="패스_14102" data-name="패스 14102" class="cls-5" d="M17.327,11.1c-.113-.255-.865-.171-1.681.189a4.822,4.822,0,0,0-.53.273c.014-.15.022-.309.022-.474,0-.891-.226-1.614-.5-1.614s-.505.723-.505,1.614c0,.165.008.324.022.474a4.822,4.822,0,0,0-.53-.273c-.816-.36-1.568-.444-1.681-.189s.458.754,1.273,1.114a4.727,4.727,0,0,0,.673.24,4.6,4.6,0,0,0-.556.487c-.624.637-.968,1.311-.769,1.507s.866-.163,1.49-.8a4.395,4.395,0,0,0,.581-.723,4.447,4.447,0,0,0,.581.723c.624.637,1.291.995,1.491.8s-.145-.87-.769-1.507a4.6,4.6,0,0,0-.556-.487,4.739,4.739,0,0,0,.674-.24c.816-.36,1.386-.859,1.273-1.114"/>
        <path id="패스_14103" data-name="패스 14103" class="cls-6" d="M15.09,12.169a.457.457,0,1,1-.456-.456.456.456,0,0,1,.456.456"/>
        <path id="패스_14104" data-name="패스 14104" class="cls-5" d="M15.49,8.3c-.113-.255-.865-.171-1.681.189a4.822,4.822,0,0,0-.53.273c.014-.15.022-.309.022-.474,0-.891-.226-1.614-.505-1.614s-.5.723-.5,1.614c0,.165.008.324.022.474a4.822,4.822,0,0,0-.53-.273c-.816-.36-1.568-.444-1.681-.189s.458.754,1.273,1.114a4.727,4.727,0,0,0,.673.24,4.6,4.6,0,0,0-.556.487c-.624.637-.968,1.311-.769,1.507s.866-.163,1.49-.8a4.395,4.395,0,0,0,.581-.723,4.447,4.447,0,0,0,.581.723c.624.637,1.291.995,1.491.8s-.145-.87-.769-1.507a4.6,4.6,0,0,0-.556-.487,4.739,4.739,0,0,0,.674-.24c.816-.36,1.386-.859,1.273-1.114"/>
        <path id="패스_14105" data-name="패스 14105" class="cls-6" d="M13.257,9.374a.457.457,0,1,1-.457-.456.457.457,0,0,1,.457.456"/>
        <path id="패스_14106" data-name="패스 14106" class="cls-5" d="M17.327,15.177c-.113-.255-.865-.171-1.681.189a4.822,4.822,0,0,0-.53.273c.014-.15.022-.309.022-.474,0-.891-.226-1.614-.5-1.614s-.505.723-.505,1.614c0,.165.008.324.022.474a4.822,4.822,0,0,0-.53-.273c-.816-.36-1.568-.444-1.681-.189s.458.754,1.273,1.114a4.727,4.727,0,0,0,.673.24,4.6,4.6,0,0,0-.556.487c-.624.637-.968,1.311-.769,1.507s.866-.163,1.49-.8A4.395,4.395,0,0,0,14.631,17a4.447,4.447,0,0,0,.581.723c.624.637,1.291.995,1.491.8s-.145-.87-.769-1.507a4.6,4.6,0,0,0-.556-.487,4.739,4.739,0,0,0,.674-.24c.816-.36,1.386-.859,1.273-1.114"/>
        <circle id="타원_691" data-name="타원 691" class="cls-6" cx="0.456" cy="0.456" r="0.456" transform="translate(14.177 15.791)"/>
        <path id="패스_14107" data-name="패스 14107" class="cls-5" d="M9.5,11.545c-.113-.255-.865-.171-1.681.189a4.822,4.822,0,0,0-.53.273c.014-.15.022-.309.022-.474,0-.891-.226-1.614-.5-1.614s-.505.723-.505,1.614c0,.165.008.324.022.474a4.822,4.822,0,0,0-.53-.273c-.816-.36-1.568-.444-1.681-.189s.458.754,1.273,1.114a4.727,4.727,0,0,0,.673.24,4.6,4.6,0,0,0-.556.487c-.624.637-.968,1.311-.769,1.507s.866-.163,1.49-.8A4.395,4.395,0,0,0,6.8,13.37a4.447,4.447,0,0,0,.581.723c.624.637,1.291.995,1.491.8s-.145-.87-.769-1.507a4.6,4.6,0,0,0-.556-.487,4.739,4.739,0,0,0,.674-.24c.816-.36,1.386-.859,1.273-1.114"/>
        <path id="패스_14108" data-name="패스 14108" class="cls-6" d="M7.264,12.615a.456.456,0,1,1-.457-.456.456.456,0,0,1,.457.456"/>
        <path id="패스_14109" data-name="패스 14109" class="cls-5" d="M13.413,11.545c-.114-.255-.866-.171-1.682.189a4.913,4.913,0,0,0-.53.273c.014-.15.023-.309.023-.474,0-.891-.226-1.614-.505-1.614s-.505.723-.505,1.614c0,.165.008.324.022.474a4.927,4.927,0,0,0-.531-.273c-.815-.36-1.568-.444-1.681-.189s.459.754,1.274,1.114a4.758,4.758,0,0,0,.672.24,4.662,4.662,0,0,0-.555.487c-.625.637-.969,1.311-.769,1.507s.866-.163,1.489-.8a4.327,4.327,0,0,0,.577-.724,4.5,4.5,0,0,0,.581.723c.624.637,1.292.995,1.492.8s-.146-.87-.769-1.507a4.6,4.6,0,0,0-.556-.487,4.829,4.829,0,0,0,.674-.24c.816-.36,1.385-.859,1.272-1.114"/>
        <path id="패스_14110" data-name="패스 14110" class="cls-6" d="M11.172,12.615a.457.457,0,1,1-.457-.456A.457.457,0,0,1,11.172,12.615Z"/>
        <path id="패스_14111" data-name="패스 14111" class="cls-5" d="M11.413,13.43c-.114-.255-.866-.171-1.682.189a4.913,4.913,0,0,0-.53.273c.014-.15.023-.309.023-.474,0-.891-.226-1.614-.505-1.614s-.505.723-.505,1.614c0,.165.008.324.022.474a4.913,4.913,0,0,0-.53-.273c-.816-.36-1.568-.444-1.681-.189s.458.754,1.273,1.114a4.727,4.727,0,0,0,.673.24,4.594,4.594,0,0,0-.556.487c-.624.637-.968,1.311-.769,1.507s.866-.163,1.489-.8a4.4,4.4,0,0,0,.582-.723,4.441,4.441,0,0,0,.58.723c.625.637,1.292.995,1.491.8s-.144-.87-.769-1.507a4.662,4.662,0,0,0-.555-.487,4.727,4.727,0,0,0,.673-.24c.816-.36,1.386-.859,1.273-1.114"/>
        <path id="패스_14112" data-name="패스 14112" class="cls-6" d="M9.175,14.5a.457.457,0,1,1-.456-.456.456.456,0,0,1,.456.456"/>
        <path id="패스_14113" data-name="패스 14113" class="cls-5" d="M11.413,6.949c-.114-.255-.866-.171-1.682.189a4.913,4.913,0,0,0-.53.273c.014-.15.023-.309.023-.474,0-.891-.226-1.614-.505-1.614s-.505.723-.505,1.614c0,.165.008.324.022.474a4.913,4.913,0,0,0-.53-.273c-.816-.36-1.568-.444-1.681-.189S6.483,7.7,7.3,8.063a4.727,4.727,0,0,0,.673.24,4.594,4.594,0,0,0-.556.487c-.624.637-.968,1.311-.769,1.507s.866-.163,1.489-.8a4.4,4.4,0,0,0,.582-.723A4.441,4.441,0,0,0,9.3,9.5c.625.637,1.292.995,1.491.8s-.144-.87-.769-1.507A4.662,4.662,0,0,0,9.464,8.3a4.727,4.727,0,0,0,.673-.24c.816-.36,1.386-.859,1.273-1.114"/>
        <path id="패스_14114" data-name="패스 14114" class="cls-6" d="M9.175,8.018a.457.457,0,1,1-.456-.456.456.456,0,0,1,.456.456"/>
        <path id="패스_14115" data-name="패스 14115" class="cls-5" d="M9.5,15.944c-.113-.255-.865-.171-1.681.189a4.822,4.822,0,0,0-.53.273c.014-.15.022-.309.022-.474,0-.891-.226-1.614-.5-1.614s-.505.723-.505,1.614c0,.165.008.324.022.474a4.822,4.822,0,0,0-.53-.273c-.816-.36-1.568-.444-1.681-.189s.458.754,1.273,1.114a4.727,4.727,0,0,0,.673.24,4.6,4.6,0,0,0-.556.487c-.624.637-.968,1.311-.769,1.507s.866-.163,1.49-.8a4.395,4.395,0,0,0,.581-.723,4.447,4.447,0,0,0,.581.723c.624.637,1.291.995,1.491.8s-.145-.87-.769-1.507a4.6,4.6,0,0,0-.556-.487,4.739,4.739,0,0,0,.674-.24c.816-.36,1.386-.859,1.273-1.114"/>
        <path id="패스_14116" data-name="패스 14116" class="cls-6" d="M7.264,17.01a.456.456,0,1,1-.457-.456.456.456,0,0,1,.457.456"/>
        <path id="패스_14117" data-name="패스 14117" class="cls-5" d="M13.585,15.944c-.114-.255-.866-.171-1.682.189a4.913,4.913,0,0,0-.53.273c.014-.15.023-.309.023-.474,0-.891-.226-1.614-.505-1.614s-.506.723-.506,1.614c0,.165.009.324.023.474a4.928,4.928,0,0,0-.531-.273c-.815-.36-1.568-.444-1.681-.189s.459.754,1.274,1.114a4.758,4.758,0,0,0,.672.24,4.585,4.585,0,0,0-.555.487c-.625.637-.969,1.311-.769,1.507s.866-.163,1.489-.8a4.453,4.453,0,0,0,.582-.723,4.441,4.441,0,0,0,.58.723c.625.637,1.291.995,1.491.8s-.144-.87-.769-1.507a4.6,4.6,0,0,0-.556-.487,4.7,4.7,0,0,0,.674-.24c.816-.36,1.386-.859,1.273-1.114"/>
        <circle id="타원_692" data-name="타원 692" class="cls-6" cx="0.456" cy="0.456" r="0.456" transform="translate(10.437 16.554)"/>
        <path id="패스_14118" data-name="패스 14118" class="cls-5" d="M11.413,18.113c-.114-.255-.866-.171-1.682.189a4.913,4.913,0,0,0-.53.273c.014-.15.023-.309.023-.474,0-.891-.226-1.614-.505-1.614s-.505.723-.505,1.614c0,.165.008.324.022.474a4.913,4.913,0,0,0-.53-.273c-.816-.36-1.568-.444-1.681-.189s.458.754,1.273,1.114a4.727,4.727,0,0,0,.673.24,4.6,4.6,0,0,0-.556.487c-.624.637-.968,1.311-.769,1.507s.866-.163,1.489-.8a4.4,4.4,0,0,0,.582-.723,4.441,4.441,0,0,0,.58.723c.625.637,1.292,1,1.491.8s-.144-.87-.769-1.507a4.663,4.663,0,0,0-.555-.487,4.727,4.727,0,0,0,.673-.24c.816-.36,1.386-.859,1.273-1.114"/>
        <path id="패스_14119" data-name="패스 14119" class="cls-6" d="M9.175,19.185a.457.457,0,1,1-.456-.456.456.456,0,0,1,.456.456"/>
        <path id="패스_14120" data-name="패스 14120" class="cls-5" d="M33.912,3.866c-.113-.255-.865-.171-1.681.189a4.822,4.822,0,0,0-.53.273c.014-.15.022-.309.022-.474,0-.891-.226-1.614-.5-1.614s-.506.723-.506,1.614c0,.165.008.324.022.474a4.822,4.822,0,0,0-.53-.273c-.816-.36-1.568-.444-1.681-.189s.458.754,1.273,1.114a4.727,4.727,0,0,0,.673.24,4.6,4.6,0,0,0-.556.487c-.624.637-.968,1.311-.769,1.507s.866-.163,1.49-.8a4.395,4.395,0,0,0,.581-.723,4.447,4.447,0,0,0,.581.723c.624.637,1.291.995,1.491.8s-.145-.87-.769-1.507a4.6,4.6,0,0,0-.556-.487,4.739,4.739,0,0,0,.674-.24c.816-.36,1.386-.859,1.273-1.114"/>
        <path id="패스_14121" data-name="패스 14121" class="cls-6" d="M31.677,4.936a.457.457,0,1,1-.457-.456.457.457,0,0,1,.457.456"/>
        <path id="패스_14122" data-name="패스 14122" class="cls-5" d="M29.963,2.981c-.113-.255-.865-.171-1.681.189a4.822,4.822,0,0,0-.53.273c.014-.15.022-.309.022-.474,0-.891-.226-1.614-.505-1.614s-.5.723-.5,1.614c0,.165.008.324.022.474a4.822,4.822,0,0,0-.53-.273c-.816-.36-1.568-.444-1.681-.189s.459.753,1.273,1.114a4.727,4.727,0,0,0,.673.24,4.594,4.594,0,0,0-.556.487c-.624.637-.968,1.311-.769,1.507s.866-.163,1.49-.8a4.395,4.395,0,0,0,.581-.723,4.447,4.447,0,0,0,.581.723c.624.637,1.291,1,1.491.8s-.145-.87-.769-1.507a4.594,4.594,0,0,0-.556-.487,4.739,4.739,0,0,0,.674-.24c.816-.36,1.386-.859,1.273-1.114"/>
        <path id="패스_14123" data-name="패스 14123" class="cls-6" d="M27.725,4.051a.456.456,0,1,1-.457-.456A.456.456,0,0,1,27.725,4.051Z"/>
        <path id="패스_14124" data-name="패스 14124" class="cls-5" d="M28.622,9.542c-.113-.255-.865-.171-1.681.189a4.822,4.822,0,0,0-.53.273c.014-.15.022-.309.022-.474,0-.891-.226-1.614-.505-1.614s-.5.723-.5,1.614c0,.165.008.324.022.474a4.822,4.822,0,0,0-.53-.273c-.816-.36-1.568-.444-1.681-.189s.458.754,1.273,1.114a4.727,4.727,0,0,0,.673.24,4.6,4.6,0,0,0-.556.487c-.624.637-.968,1.311-.769,1.507s.866-.163,1.49-.8a4.395,4.395,0,0,0,.581-.723,4.447,4.447,0,0,0,.581.723c.624.637,1.291.995,1.491.8s-.145-.87-.769-1.507a4.6,4.6,0,0,0-.556-.487,4.739,4.739,0,0,0,.674-.24c.816-.36,1.386-.859,1.273-1.114"/>
        <path id="패스_14125" data-name="패스 14125" class="cls-6" d="M26.383,10.611a.456.456,0,1,1-.456-.456A.456.456,0,0,1,26.383,10.611Z"/>
        <path id="패스_14126" data-name="패스 14126" class="cls-5" d="M28.622,5.777c-.113-.255-.865-.171-1.681.189a4.822,4.822,0,0,0-.53.273c.014-.15.022-.309.022-.474,0-.891-.226-1.614-.505-1.614s-.5.723-.5,1.614c0,.165.008.324.022.474a4.822,4.822,0,0,0-.53-.273c-.816-.36-1.568-.444-1.681-.189s.458.754,1.273,1.114a4.727,4.727,0,0,0,.673.24,4.594,4.594,0,0,0-.556.487c-.624.637-.968,1.311-.769,1.507s.866-.163,1.49-.8a4.395,4.395,0,0,0,.581-.723,4.447,4.447,0,0,0,.581.723c.624.637,1.291.995,1.491.8s-.145-.87-.769-1.507a4.6,4.6,0,0,0-.556-.487,4.739,4.739,0,0,0,.674-.24c.816-.36,1.386-.859,1.273-1.114"/>
        <path id="패스_14127" data-name="패스 14127" class="cls-6" d="M26.383,6.846a.456.456,0,1,1-.456-.456.456.456,0,0,1,.456.456"/>
        <path id="패스_14128" data-name="패스 14128" class="cls-5" d="M39.83,5.777c-.113-.255-.865-.171-1.681.189a4.822,4.822,0,0,0-.53.273c.014-.15.022-.309.022-.474,0-.891-.226-1.614-.5-1.614s-.505.723-.505,1.614c0,.165.008.324.022.474a4.822,4.822,0,0,0-.53-.273c-.816-.36-1.568-.444-1.681-.189s.458.754,1.273,1.114a4.727,4.727,0,0,0,.673.24,4.594,4.594,0,0,0-.556.487c-.624.637-.968,1.311-.769,1.507s.866-.163,1.49-.8a4.395,4.395,0,0,0,.581-.723,4.447,4.447,0,0,0,.581.723c.624.637,1.291.995,1.491.8s-.145-.87-.769-1.507a4.6,4.6,0,0,0-.556-.487,4.739,4.739,0,0,0,.674-.24c.816-.36,1.386-.859,1.273-1.114"/>
        <path id="패스_14129" data-name="패스 14129" class="cls-6" d="M37.591,6.846a.456.456,0,1,1-.456-.456.456.456,0,0,1,.456.456"/>
        <path id="패스_14130" data-name="패스 14130" class="cls-5" d="M38,2.981c-.114-.255-.866-.171-1.682.189a4.913,4.913,0,0,0-.53.273c.014-.15.022-.309.022-.474,0-.891-.225-1.614-.5-1.614s-.505.723-.505,1.614c0,.165.007.324.021.474a4.9,4.9,0,0,0-.529-.273c-.817-.36-1.569-.444-1.681-.189s.458.754,1.272,1.114a4.739,4.739,0,0,0,.674.24A4.52,4.52,0,0,0,34,4.822c-.625.637-.969,1.311-.77,1.507s.867-.163,1.491-.8a4.441,4.441,0,0,0,.58-.723,4.5,4.5,0,0,0,.581.723c.625.637,1.292,1,1.492.8s-.145-.87-.77-1.507a4.663,4.663,0,0,0-.555-.487,4.727,4.727,0,0,0,.673-.24c.816-.36,1.386-.859,1.273-1.114"/>
        <path id="패스_14131" data-name="패스 14131" class="cls-6" d="M35.758,4.051A.456.456,0,1,1,35.3,3.6.456.456,0,0,1,35.758,4.051Z"/>
        <path id="패스_14132" data-name="패스 14132" class="cls-5" d="M39.83,9.854c-.113-.255-.865-.17-1.681.189a4.822,4.822,0,0,0-.53.273c.014-.15.022-.309.022-.474,0-.891-.226-1.614-.5-1.614s-.505.723-.505,1.614c0,.165.008.324.022.474a4.822,4.822,0,0,0-.53-.273c-.816-.36-1.568-.444-1.681-.189s.458.754,1.273,1.114a4.853,4.853,0,0,0,.673.24,4.594,4.594,0,0,0-.556.487c-.624.637-.968,1.311-.769,1.507s.866-.163,1.49-.8a4.395,4.395,0,0,0,.581-.723,4.447,4.447,0,0,0,.581.723c.624.637,1.291.995,1.491.8s-.145-.87-.769-1.507a4.6,4.6,0,0,0-.556-.487,4.739,4.739,0,0,0,.674-.24c.816-.36,1.386-.859,1.273-1.114"/>
        <path id="패스_14133" data-name="패스 14133" class="cls-6" d="M37.591,10.924a.456.456,0,1,1-.456-.456A.456.456,0,0,1,37.591,10.924Z"/>
        <path id="패스_14134" data-name="패스 14134" class="cls-5" d="M32.005,6.226c-.113-.255-.866-.171-1.682.189a4.9,4.9,0,0,0-.529.273c.014-.15.022-.309.022-.474,0-.891-.226-1.614-.5-1.614s-.505.723-.505,1.614c0,.165.008.324.022.474a5.008,5.008,0,0,0-.53-.273c-.816-.36-1.569-.444-1.681-.189s.458.754,1.273,1.114a4.727,4.727,0,0,0,.673.24,4.6,4.6,0,0,0-.556.487c-.625.637-.969,1.311-.769,1.507s.866-.163,1.49-.8a4.395,4.395,0,0,0,.581-.723,4.441,4.441,0,0,0,.58.723c.625.637,1.292.995,1.492.8s-.145-.87-.77-1.507a4.585,4.585,0,0,0-.555-.487,4.727,4.727,0,0,0,.673-.24c.816-.36,1.386-.859,1.273-1.114"/>
        <path id="패스_14135" data-name="패스 14135" class="cls-6" d="M29.765,7.292a.456.456,0,1,1-.456-.456.456.456,0,0,1,.456.456"/>
        <path id="패스_14136" data-name="패스 14136" class="cls-5" d="M35.912,6.226c-.113-.255-.865-.171-1.681.189a4.822,4.822,0,0,0-.53.273c.014-.15.022-.309.022-.474,0-.891-.226-1.614-.505-1.614s-.5.723-.5,1.614c0,.165.008.324.022.474a4.822,4.822,0,0,0-.53-.273c-.816-.36-1.568-.444-1.681-.189s.458.754,1.273,1.114a4.727,4.727,0,0,0,.673.24,4.594,4.594,0,0,0-.556.487c-.624.637-.968,1.311-.769,1.507s.866-.163,1.49-.8a4.394,4.394,0,0,0,.581-.723,4.447,4.447,0,0,0,.581.723c.624.637,1.291.995,1.491.8s-.145-.87-.769-1.507a4.6,4.6,0,0,0-.556-.487,4.739,4.739,0,0,0,.674-.24c.816-.36,1.386-.859,1.273-1.114"/>
        <path id="패스_14137" data-name="패스 14137" class="cls-6" d="M33.673,7.292a.456.456,0,1,1-.456-.456.456.456,0,0,1,.456.456"/>
        <path id="패스_14138" data-name="패스 14138" class="cls-5" d="M33.912,8.108c-.113-.255-.865-.17-1.681.189a4.822,4.822,0,0,0-.53.273c.014-.15.022-.309.022-.474,0-.891-.226-1.614-.5-1.614s-.505.723-.505,1.614c0,.165.008.324.022.474A4.822,4.822,0,0,0,30.2,8.3c-.816-.36-1.568-.444-1.681-.189s.458.754,1.273,1.114a4.853,4.853,0,0,0,.673.24,4.6,4.6,0,0,0-.556.487c-.624.637-.968,1.311-.769,1.507s.866-.163,1.49-.8a4.395,4.395,0,0,0,.581-.723,4.447,4.447,0,0,0,.581.723c.624.637,1.291.995,1.491.8s-.145-.87-.769-1.507a4.6,4.6,0,0,0-.556-.487,4.739,4.739,0,0,0,.674-.24c.816-.36,1.386-.859,1.273-1.114"/>
        <path id="패스_14139" data-name="패스 14139" class="cls-6" d="M31.677,9.178a.457.457,0,1,1-.457-.456.457.457,0,0,1,.457.456"/>
        <path id="패스_14140" data-name="패스 14140" class="cls-5" d="M33.912,1.626c-.113-.255-.865-.171-1.681.189a4.822,4.822,0,0,0-.53.273c.014-.15.022-.309.022-.474C31.723.723,31.5,0,31.218,0s-.506.723-.506,1.614c0,.165.008.324.022.474a4.822,4.822,0,0,0-.53-.273c-.816-.36-1.568-.444-1.681-.189s.458.754,1.273,1.114a4.727,4.727,0,0,0,.673.24,4.6,4.6,0,0,0-.556.487c-.624.637-.968,1.311-.769,1.507s.866-.163,1.49-.8a4.395,4.395,0,0,0,.581-.723,4.447,4.447,0,0,0,.581.723c.624.637,1.291,1,1.491.8s-.145-.87-.769-1.507a4.6,4.6,0,0,0-.556-.487,4.739,4.739,0,0,0,.674-.24c.816-.36,1.386-.859,1.273-1.114"/>
        <path id="패스_14141" data-name="패스 14141" class="cls-6" d="M31.677,2.7a.457.457,0,1,1-.457-.456.457.457,0,0,1,.457.456"/>
        <path id="패스_14142" data-name="패스 14142" class="cls-5" d="M32.005,10.621c-.113-.255-.866-.171-1.682.189a4.9,4.9,0,0,0-.529.273c.014-.15.022-.309.022-.474,0-.891-.226-1.614-.5-1.614s-.505.723-.505,1.614c0,.165.008.324.022.474a5.008,5.008,0,0,0-.53-.273c-.816-.36-1.569-.444-1.681-.189s.458.754,1.273,1.114a4.727,4.727,0,0,0,.673.24,4.6,4.6,0,0,0-.556.487c-.625.637-.969,1.311-.769,1.507s.866-.163,1.49-.8a4.394,4.394,0,0,0,.581-.723,4.441,4.441,0,0,0,.58.723c.625.637,1.292.995,1.492.8s-.145-.87-.77-1.507a4.585,4.585,0,0,0-.555-.487,4.727,4.727,0,0,0,.673-.24c.816-.36,1.386-.859,1.273-1.114"/>
        <path id="패스_14143" data-name="패스 14143" class="cls-6" d="M29.765,11.691a.456.456,0,1,1-.456-.456A.456.456,0,0,1,29.765,11.691Z"/>
        <path id="패스_14144" data-name="패스 14144" class="cls-5" d="M36.09,10.621c-.113-.255-.865-.171-1.681.189a4.821,4.821,0,0,0-.53.273c.014-.15.022-.309.022-.474,0-.891-.226-1.614-.505-1.614s-.505.723-.505,1.614c0,.165.008.324.022.474a4.821,4.821,0,0,0-.53-.273c-.816-.36-1.568-.444-1.681-.189s.458.754,1.274,1.114a4.671,4.671,0,0,0,.672.24,4.6,4.6,0,0,0-.556.487c-.624.637-.968,1.311-.769,1.507s.866-.163,1.49-.8a4.394,4.394,0,0,0,.581-.723,4.447,4.447,0,0,0,.581.723c.624.637,1.291.995,1.491.8s-.145-.87-.769-1.507a4.594,4.594,0,0,0-.556-.487,4.739,4.739,0,0,0,.674-.24c.816-.36,1.386-.859,1.273-1.114"/>
        <path id="패스_14145" data-name="패스 14145" class="cls-6" d="M33.852,11.691a.457.457,0,1,1-.456-.456A.456.456,0,0,1,33.852,11.691Z"/>
        <path id="패스_14146" data-name="패스 14146" class="cls-5" d="M33.912,12.79c-.113-.255-.865-.171-1.681.189a4.822,4.822,0,0,0-.53.273c.014-.15.022-.309.022-.474,0-.891-.226-1.614-.5-1.614s-.505.723-.505,1.614c0,.165.008.324.022.474a4.822,4.822,0,0,0-.53-.273c-.816-.36-1.568-.444-1.681-.189s.458.754,1.273,1.114a4.727,4.727,0,0,0,.673.24,4.6,4.6,0,0,0-.556.487c-.624.637-.968,1.311-.769,1.507s.866-.163,1.49-.8a4.395,4.395,0,0,0,.581-.723,4.447,4.447,0,0,0,.581.723c.624.637,1.291.995,1.491.8s-.145-.87-.769-1.507a4.6,4.6,0,0,0-.556-.487,4.739,4.739,0,0,0,.674-.24c.816-.36,1.386-.859,1.273-1.114"/>
        <path id="패스_14147" data-name="패스 14147" class="cls-6" d="M31.677,13.86a.457.457,0,1,1-.457-.456.457.457,0,0,1,.457.456"/>
        <path id="패스_14148" data-name="패스 14148" class="cls-5" d="M34.227,20.916c-.114-.255-.866-.171-1.682.189a4.913,4.913,0,0,0-.53.273c.014-.15.022-.309.022-.474,0-.891-.225-1.614-.5-1.614s-.505.723-.505,1.614c0,.165.008.324.022.474a5.007,5.007,0,0,0-.53-.273c-.816-.36-1.569-.444-1.681-.189s.458.754,1.273,1.114a4.727,4.727,0,0,0,.673.24,4.594,4.594,0,0,0-.556.487c-.625.637-.969,1.311-.769,1.507s.866-.163,1.49-.8a4.395,4.395,0,0,0,.581-.723,4.441,4.441,0,0,0,.58.723c.625.637,1.292.995,1.492.8s-.145-.87-.77-1.507a4.663,4.663,0,0,0-.555-.487,4.727,4.727,0,0,0,.673-.24c.816-.36,1.386-.859,1.273-1.114"/>
        <path id="패스_14149" data-name="패스 14149" class="cls-6" d="M31.987,21.991a.456.456,0,1,1-.456-.456.456.456,0,0,1,.456.456"/>
        <path id="패스_14150" data-name="패스 14150" class="cls-5" d="M30.274,20.036c-.114-.255-.866-.171-1.682.189a4.72,4.72,0,0,0-.529.273c.013-.15.021-.309.021-.474,0-.891-.226-1.614-.5-1.614s-.506.723-.506,1.614c0,.165.009.324.023.474a4.928,4.928,0,0,0-.531-.273c-.816-.36-1.568-.444-1.681-.189s.459.754,1.274,1.114a4.671,4.671,0,0,0,.672.24,4.672,4.672,0,0,0-.556.487c-.624.637-.968,1.311-.768,1.507s.865-.163,1.49-.8a4.389,4.389,0,0,0,.58-.723,4.5,4.5,0,0,0,.581.723c.624.637,1.291,1,1.491.8s-.145-.87-.769-1.507a4.6,4.6,0,0,0-.556-.487A4.7,4.7,0,0,0,29,21.15c.816-.36,1.386-.859,1.273-1.114"/>
        <path id="패스_14151" data-name="패스 14151" class="cls-6" d="M28.035,21.106a.456.456,0,1,1-.456-.456.456.456,0,0,1,.456.456"/>
        <path id="패스_14152" data-name="패스 14152" class="cls-5" d="M28.934,26.6c-.114-.255-.866-.171-1.682.189a4.821,4.821,0,0,0-.53.273c.014-.15.022-.309.022-.474,0-.891-.226-1.614-.5-1.614s-.506.723-.506,1.614c0,.165.009.324.023.474a4.927,4.927,0,0,0-.531-.273c-.816-.36-1.568-.444-1.681-.189s.458.754,1.274,1.114a4.671,4.671,0,0,0,.672.24,4.672,4.672,0,0,0-.556.487c-.624.637-.968,1.311-.768,1.507s.865-.163,1.489-.8a4.394,4.394,0,0,0,.581-.723,4.5,4.5,0,0,0,.581.723c.624.637,1.291,1,1.491.8s-.145-.87-.769-1.507a4.6,4.6,0,0,0-.556-.487,4.7,4.7,0,0,0,.674-.24c.816-.36,1.386-.859,1.273-1.114"/>
        <path id="패스_14153" data-name="패스 14153" class="cls-6" d="M26.694,27.666a.456.456,0,1,1-.456-.456.456.456,0,0,1,.456.456"/>
        <path id="패스_14154" data-name="패스 14154" class="cls-5" d="M28.934,22.832c-.114-.255-.866-.171-1.682.189a4.821,4.821,0,0,0-.53.273c.014-.15.022-.309.022-.474,0-.891-.226-1.614-.5-1.614s-.506.723-.506,1.614c0,.165.009.324.023.474a4.927,4.927,0,0,0-.531-.273c-.816-.36-1.568-.444-1.681-.189s.458.754,1.274,1.114a4.671,4.671,0,0,0,.672.24,4.672,4.672,0,0,0-.556.487c-.624.637-.968,1.311-.768,1.507s.865-.163,1.489-.8a4.394,4.394,0,0,0,.581-.723,4.5,4.5,0,0,0,.581.723c.624.637,1.291,1,1.491.8s-.145-.87-.769-1.507a4.6,4.6,0,0,0-.556-.487,4.7,4.7,0,0,0,.674-.24c.816-.36,1.386-.859,1.273-1.114"/>
        <path id="패스_14155" data-name="패스 14155" class="cls-6" d="M26.694,23.9a.456.456,0,1,1-.456-.456.456.456,0,0,1,.456.456"/>
        <path id="패스_14156" data-name="패스 14156" class="cls-5" d="M40.14,22.832c-.113-.255-.865-.171-1.681.189a4.821,4.821,0,0,0-.53.273c.014-.15.022-.309.022-.474,0-.891-.226-1.614-.505-1.614s-.5.723-.5,1.614c0,.165.008.324.022.474a4.821,4.821,0,0,0-.53-.273c-.816-.36-1.568-.444-1.681-.189s.458.754,1.273,1.114a4.727,4.727,0,0,0,.673.24,4.594,4.594,0,0,0-.556.487c-.624.637-.968,1.311-.769,1.507s.866-.163,1.49-.8a4.394,4.394,0,0,0,.581-.723,4.447,4.447,0,0,0,.581.723c.624.637,1.291,1,1.491.8s-.145-.87-.769-1.507a4.6,4.6,0,0,0-.556-.487,4.739,4.739,0,0,0,.674-.24c.816-.36,1.386-.859,1.273-1.114"/>
        <path id="패스_14157" data-name="패스 14157" class="cls-6" d="M37.9,23.9a.456.456,0,1,1-.457-.456.457.457,0,0,1,.457.456"/>
        <path id="패스_14158" data-name="패스 14158" class="cls-5" d="M38.307,20.036c-.113-.255-.865-.171-1.681.189a4.822,4.822,0,0,0-.53.273c.014-.15.022-.309.022-.474,0-.891-.226-1.614-.505-1.614s-.5.723-.5,1.614c0,.165.008.324.022.474a4.822,4.822,0,0,0-.53-.273c-.816-.36-1.568-.444-1.681-.189s.458.754,1.273,1.114a4.726,4.726,0,0,0,.673.24,4.6,4.6,0,0,0-.556.487c-.624.637-.968,1.311-.769,1.507s.867-.163,1.49-.8a4.394,4.394,0,0,0,.581-.723,4.447,4.447,0,0,0,.581.723c.624.637,1.291,1,1.491.8s-.145-.87-.769-1.507a4.6,4.6,0,0,0-.556-.487,4.739,4.739,0,0,0,.674-.24c.816-.36,1.386-.859,1.273-1.114"/>
        <path id="패스_14159" data-name="패스 14159" class="cls-6" d="M36.07,21.106a.456.456,0,1,1-.456-.456.456.456,0,0,1,.456.456"/>
        <path id="패스_14160" data-name="패스 14160" class="cls-5" d="M40.14,26.909c-.113-.255-.865-.171-1.681.189a4.821,4.821,0,0,0-.53.273c.014-.15.022-.309.022-.474,0-.891-.226-1.614-.505-1.614s-.5.723-.5,1.614c0,.165.008.324.022.474a4.821,4.821,0,0,0-.53-.273c-.816-.36-1.568-.444-1.681-.189s.458.754,1.273,1.114a4.726,4.726,0,0,0,.673.24,4.594,4.594,0,0,0-.556.487c-.624.637-.968,1.311-.769,1.507s.866-.163,1.49-.8a4.394,4.394,0,0,0,.581-.723,4.447,4.447,0,0,0,.581.723c.624.637,1.291.995,1.491.8s-.145-.87-.769-1.507a4.6,4.6,0,0,0-.556-.487,4.739,4.739,0,0,0,.674-.24c.816-.36,1.386-.859,1.273-1.114"/>
        <path id="패스_14161" data-name="패스 14161" class="cls-6" d="M37.9,27.979a.456.456,0,1,1-.457-.456.457.457,0,0,1,.457.456"/>
        <path id="패스_14162" data-name="패스 14162" class="cls-5" d="M32.315,23.277c-.113-.255-.865-.171-1.681.189a4.821,4.821,0,0,0-.53.273c.014-.15.022-.309.022-.474,0-.891-.226-1.614-.5-1.614s-.505.723-.505,1.614c0,.165.008.324.022.474a4.822,4.822,0,0,0-.53-.273c-.816-.36-1.568-.444-1.681-.189s.458.754,1.273,1.114a4.727,4.727,0,0,0,.673.24,4.6,4.6,0,0,0-.556.487c-.624.637-.968,1.311-.769,1.507s.866-.163,1.49-.8a4.395,4.395,0,0,0,.581-.723,4.447,4.447,0,0,0,.581.723c.624.637,1.291.995,1.491.8s-.145-.87-.769-1.507a4.6,4.6,0,0,0-.556-.487,4.739,4.739,0,0,0,.674-.24c.816-.36,1.386-.859,1.273-1.114"/>
        <path id="패스_14163" data-name="패스 14163" class="cls-6" d="M30.076,24.342a.456.456,0,1,1-.456-.456.456.456,0,0,1,.456.456"/>
        <path id="패스_14164" data-name="패스 14164" class="cls-5" d="M36.223,23.277c-.113-.255-.865-.171-1.681.189a4.821,4.821,0,0,0-.53.273c.014-.15.022-.309.022-.474,0-.891-.226-1.614-.505-1.614s-.505.723-.505,1.614c0,.165.008.324.022.474a4.821,4.821,0,0,0-.53-.273c-.816-.36-1.568-.444-1.681-.189s.458.754,1.273,1.114a4.726,4.726,0,0,0,.673.24,4.6,4.6,0,0,0-.556.487c-.624.637-.968,1.311-.769,1.507s.866-.163,1.49-.8a4.394,4.394,0,0,0,.581-.723,4.447,4.447,0,0,0,.581.723c.624.637,1.291.995,1.491.8s-.145-.87-.769-1.507a4.594,4.594,0,0,0-.556-.487,4.739,4.739,0,0,0,.674-.24c.816-.36,1.386-.859,1.273-1.114"/>
        <path id="패스_14165" data-name="패스 14165" class="cls-6" d="M33.985,24.342a.457.457,0,1,1-.457-.456.457.457,0,0,1,.457.456"/>
        <path id="패스_14166" data-name="패스 14166" class="cls-5" d="M34.227,25.163c-.114-.255-.866-.171-1.682.189a4.913,4.913,0,0,0-.53.273c.014-.15.022-.309.022-.474,0-.891-.225-1.614-.5-1.614s-.505.723-.505,1.614c0,.165.008.324.022.474a5.008,5.008,0,0,0-.53-.273c-.816-.36-1.569-.444-1.681-.189s.458.754,1.273,1.114a4.727,4.727,0,0,0,.673.24,4.594,4.594,0,0,0-.556.487c-.625.637-.969,1.311-.769,1.507s.866-.163,1.49-.8a4.395,4.395,0,0,0,.581-.723,4.441,4.441,0,0,0,.58.723c.625.637,1.292.995,1.492.8s-.145-.87-.77-1.507a4.663,4.663,0,0,0-.555-.487,4.727,4.727,0,0,0,.673-.24c.816-.36,1.386-.859,1.273-1.114"/>
        <path id="패스_14167" data-name="패스 14167" class="cls-6" d="M31.987,26.232a.456.456,0,1,1-.456-.456.456.456,0,0,1,.456.456"/>
        <path id="패스_14168" data-name="패스 14168" class="cls-5" d="M34.227,18.681c-.114-.255-.866-.171-1.682.189a4.913,4.913,0,0,0-.53.273c.014-.15.022-.309.022-.474,0-.891-.225-1.614-.5-1.614s-.505.723-.505,1.614c0,.165.008.324.022.474a5.008,5.008,0,0,0-.53-.273c-.816-.36-1.569-.444-1.681-.189s.458.754,1.273,1.114a4.727,4.727,0,0,0,.673.24,4.594,4.594,0,0,0-.556.487c-.625.637-.969,1.311-.769,1.507s.866-.163,1.49-.8a4.394,4.394,0,0,0,.581-.723,4.441,4.441,0,0,0,.58.723c.625.637,1.292,1,1.492.8s-.145-.87-.77-1.507a4.663,4.663,0,0,0-.555-.487,4.727,4.727,0,0,0,.673-.24c.816-.36,1.386-.859,1.273-1.114"/>
        <path id="패스_14169" data-name="패스 14169" class="cls-6" d="M31.987,19.751a.456.456,0,1,1-.456-.456.456.456,0,0,1,.456.456"/>
        <path id="패스_14170" data-name="패스 14170" class="cls-5" d="M32.315,27.676c-.113-.255-.865-.171-1.681.189a4.821,4.821,0,0,0-.53.273c.014-.15.022-.309.022-.474,0-.891-.226-1.614-.5-1.614s-.505.723-.505,1.614c0,.165.008.324.022.474a4.822,4.822,0,0,0-.53-.273c-.816-.36-1.568-.444-1.681-.189s.458.754,1.273,1.114a4.727,4.727,0,0,0,.673.24,4.6,4.6,0,0,0-.556.487c-.624.637-.968,1.311-.769,1.507s.866-.163,1.49-.8a4.395,4.395,0,0,0,.581-.723,4.447,4.447,0,0,0,.581.723c.624.637,1.291.995,1.491.8s-.145-.87-.769-1.507a4.6,4.6,0,0,0-.556-.487,4.739,4.739,0,0,0,.674-.24c.816-.36,1.386-.859,1.273-1.114"/>
        <path id="패스_14171" data-name="패스 14171" class="cls-6" d="M30.076,28.746a.456.456,0,1,1-.456-.456.456.456,0,0,1,.456.456"/>
        <path id="패스_14172" data-name="패스 14172" class="cls-5" d="M36.4,27.676c-.114-.255-.866-.171-1.682.189a4.821,4.821,0,0,0-.53.273c.014-.15.022-.309.022-.474,0-.891-.226-1.614-.5-1.614s-.506.723-.506,1.614c0,.165.008.324.022.474a4.821,4.821,0,0,0-.53-.273c-.816-.36-1.568-.444-1.68-.189s.458.754,1.272,1.114a4.727,4.727,0,0,0,.673.24,4.672,4.672,0,0,0-.556.487c-.624.637-.968,1.311-.768,1.507s.866-.163,1.49-.8a4.442,4.442,0,0,0,.58-.723,4.5,4.5,0,0,0,.581.723c.624.637,1.291.995,1.492.8s-.146-.87-.77-1.507a4.594,4.594,0,0,0-.556-.487,4.7,4.7,0,0,0,.674-.24c.816-.36,1.386-.859,1.273-1.114"/>
        <path id="패스_14173" data-name="패스 14173" class="cls-6" d="M34.162,28.746a.456.456,0,1,1-.456-.456.456.456,0,0,1,.456.456"/>
        <path id="패스_14174" data-name="패스 14174" class="cls-5" d="M34.227,29.845c-.114-.255-.866-.171-1.682.189a4.913,4.913,0,0,0-.53.273c.014-.15.022-.309.022-.474,0-.891-.225-1.614-.5-1.614s-.505.723-.505,1.614c0,.165.008.324.022.474a5.008,5.008,0,0,0-.53-.273c-.816-.36-1.569-.444-1.681-.189s.458.754,1.273,1.114a4.727,4.727,0,0,0,.673.24,4.6,4.6,0,0,0-.556.487c-.625.637-.969,1.311-.769,1.507s.866-.163,1.49-.8a4.395,4.395,0,0,0,.581-.723,4.441,4.441,0,0,0,.58.723c.625.637,1.292.995,1.492.8s-.145-.87-.77-1.507a4.663,4.663,0,0,0-.555-.487,4.727,4.727,0,0,0,.673-.24c.816-.36,1.386-.859,1.273-1.114"/>
        <path id="패스_14175" data-name="패스 14175" class="cls-6" d="M31.987,30.915a.456.456,0,1,1-.456-.456.456.456,0,0,1,.456.456"/>
        <rect id="사각형_2823" data-name="사각형 2823" class="cls-7" width="30.374" height="5.287" transform="translate(16.249 57.375)"/>
        <rect id="사각형_2824" data-name="사각형 2824" class="cls-8" width="30.374" height="0.889" transform="translate(16.249 62.662)"/>
        <path id="패스_14176" data-name="패스 14176" class="cls-7" d="M41.75,80H21.122a1.85,1.85,0,0,1-1.837-1.636L16.249,63.551H46.623L43.588,78.364A1.851,1.851,0,0,1,41.75,80"/>
        <path id="패스_14177" data-name="패스 14177" class="cls-3" d="M30.4,52.678c-.461-.213-11.344-5.292-15.575-11.409l1.644-1.139C20.392,45.8,31.133,50.813,31.242,50.864Z"/>
        <path id="패스_14178" data-name="패스 14178" class="cls-3" d="M32.784,48.9c-.8,0-1.3-.049-1.378-.058l.209-1.988c.081.006,8.261.775,13.919-4.974l1.425,1.4C42.02,48.3,35.576,48.9,32.784,48.9"/>
        <path id="패스_14179" data-name="패스 14179" class="cls-3" d="M29.016,44.115c-1.924-1.338-3.882-4.58-3.781-5.959s2.388-1.694,4.307-.354a5.559,5.559,0,0,1,2.479,5.065c-.146,1.743-1.084,2.587-3.007,1.25"/>
        <path id="패스_14180" data-name="패스 14180" class="cls-3" d="M30.232,45.5c-2.288.509-6-.249-6.944-1.257s.372-2.9,2.657-3.408a5.562,5.562,0,0,1,5.405,1.609c1.183,1.289,1.169,2.55-1.118,3.058"/>
        <path id="패스_14181" data-name="패스 14181" class="cls-3" d="M19.236,48.023c-2.2.8-5.98.536-7.049-.341s-.009-2.927,2.191-3.724a5.564,5.564,0,0,1,5.569.89c1.34,1.124,1.49,2.375-.711,3.177"/>
        <path id="패스_14182" data-name="패스 14182" class="cls-3" d="M21.393,49.164c-.884,2.171-3.618,4.791-4.985,4.995s-2.177-1.958-1.29-4.124a5.559,5.559,0,0,1,4.4-3.529c1.733-.24,2.761.49,1.878,2.659"/>
        <path id="패스_14183" data-name="패스 14183" class="cls-3" d="M42.44,47.946c-1.729-1.58-1.114-2.68.554-3.208a5.56,5.56,0,0,1,5.488,1.3c1.731,1.575,1.928,3.876.606,4.278s-4.917-.789-6.647-2.37"/>
        <path id="패스_14184" data-name="패스 14184" class="cls-3" d="M40.01,48.178c.01-2.342,1.239-2.625,2.75-1.743a5.559,5.559,0,0,1,2.722,4.939c0,2.34-1.578,4.031-2.764,3.321S40,50.521,40.012,48.178"/>
        <path id="패스_14185" data-name="패스 14185" class="cls-3" d="M59.987,28.16c-1.875,1.406-5.568,2.245-6.845,1.716s-.858-2.8,1.017-4.2a5.561,5.561,0,0,1,5.588-.761c1.609.687,2.115,1.842.241,3.247"/>
        <path id="패스_14186" data-name="패스 14186" class="cls-3" d="M58.874,32.633c-2.34-.136-5.7-1.878-6.336-3.106s1.151-2.693,3.487-2.552A5.562,5.562,0,0,1,60.785,30c.785,1.563.427,2.772-1.912,2.636"/>
        <path id="패스_14187" data-name="패스 14187" class="cls-3" d="M2.127,33.275c-1.874-1.405-1.368-2.56.241-3.247a5.561,5.561,0,0,1,5.588.761c1.875,1.4,2.294,3.671,1.017,4.2S4,34.679,2.128,33.273"/>
        <path id="패스_14188" data-name="패스 14188" class="cls-3" d="M3.243,37.748c-2.338.136-2.7-1.073-1.911-2.636a5.563,5.563,0,0,1,4.76-3.025c2.336-.14,4.121,1.325,3.487,2.553s-4,2.97-6.337,3.106"/>
      </g>
    </g>
  </g>
</svg>
