<svg xmlns="http://www.w3.org/2000/svg" width="100" height="100" viewBox="0 0 100 100">
    <defs>
        <clipPath id="g12pfx9pya">
            <path data-name="사각형 2744" style="fill:none" d="M0 0h38.874v60.737H0z"/>
        </clipPath>
    </defs>
    <g data-name="그룹 2501">
        <path data-name="사각형 2616" style="fill:none" d="M0 0h100v100H0z"/>
        <g data-name="그룹 2435">
            <path data-name="사각형 2741" transform="translate(34.736 95.222)" style="fill:#418c48" d="M0 0h3.195v4.515H0z"/>
            <g data-name="그룹 2434">
                <g data-name="그룹 2433" style="clip-path:url(#g12pfx9pya)" transform="translate(31 39)">
                    <path data-name="패스 12709" d="M15.636 28.63a5.1 5.1 0 0 0-4.078-4.275l.251-.967a6.124 6.124 0 0 1 4.8 5.009z" style="fill:#418c48"/>
                    <path data-name="패스 12710" d="m23.3 28.63-.973-.233a6.124 6.124 0 0 1 4.8-5.009l.251.967A5.1 5.1 0 0 0 23.3 28.63" style="fill:#418c48"/>
                    <path data-name="사각형 2742" transform="translate(18.968 5.807)" style="fill:#418c48" d="M0 0h1v36.532H0z"/>
                    <path data-name="패스 12711" d="M16.951 33.571A36.839 36.839 0 0 0 7.863 8.914l-.706.707a35.825 35.825 0 0 1 8.794 23.95z" style="fill:#418c48"/>
                    <path data-name="패스 12712" d="M21.986 33.571h1a35.822 35.822 0 0 1 8.775-23.925l-.707-.707a36.835 36.835 0 0 0-9.068 24.632" style="fill:#418c48"/>
                    <path data-name="패스 12713" d="M9.023 24.949c2.228.511 3.359-.211 3.623-1.362l-8.068-1.85s2.217 2.7 4.445 3.212" style="fill:#418c48"/>
                    <path data-name="패스 12714" d="M9.978 20.783c-2.228-.511-5.4.954-5.4.954l8.068 1.851c.264-1.15-.439-2.293-2.667-2.8" style="fill:#91d09f"/>
                    <path data-name="패스 12715" d="M4.126 9.928c2.171.717 3.364.1 3.733-1.018L0 6.315S1.956 9.21 4.126 9.928" style="fill:#418c48"/>
                    <path data-name="패스 12716" d="M5.465 5.87C3.294 5.153 0 6.315 0 6.315l7.859 2.6c.371-1.12-.223-2.324-2.393-3.037" style="fill:#91d09f"/>
                    <path data-name="패스 12717" d="M34.749 9.928c2.17-.718 4.126-3.613 4.126-3.613l-7.86 2.595c.37 1.122 1.563 1.735 3.734 1.018" style="fill:#418c48"/>
                    <path data-name="패스 12718" d="M33.408 5.875c-2.171.713-2.764 1.917-2.394 3.037l7.86-2.6s-3.3-1.162-5.465-.445" style="fill:#91d09f"/>
                    <path data-name="패스 12719" d="M21.467 5.1c.05-2.286-2.024-5.1-2.024-5.1l-.185 8.275c1.181.027 2.158-.893 2.209-3.178" style="fill:#418c48"/>
                    <path data-name="패스 12720" d="M17.2 5c-.055 2.284.881 3.246 2.06 3.272L19.443 0s-2.2 2.716-2.25 5" style="fill:#91d09f"/>
                    <path data-name="패스 12721" d="M29.914 24.949c-2.228.511-3.359-.211-3.623-1.362l8.068-1.85s-2.217 2.7-4.445 3.212" style="fill:#418c48"/>
                    <path data-name="패스 12722" d="M28.959 20.783c2.228-.511 5.4.954 5.4.954l-8.068 1.851c-.264-1.15.439-2.293 2.667-2.8" style="fill:#91d09f"/>
                    <path data-name="패스 12723" d="M34.807 56.221H3.853a3.089 3.089 0 0 1-3.088-3.088H37.9a3.089 3.089 0 0 1-3.087 3.089" style="fill:#418c48"/>
                    <path data-name="사각형 2743" transform="translate(31.994 56.222)" style="fill:#418c48" d="M0 0h3.195v4.515H0z"/>
                    <path data-name="패스 12724" d="M29.114 32.585H9.547l-.334 1.773h20.235z" style="fill:#91d09f"/>
                    <path data-name="패스 12725" d="m32.621 51.2-3.04-16.135H9.08L6.04 51.2a1.638 1.638 0 0 0 1.609 1.94h23.363a1.619 1.619 0 0 0 .3-.028 1.637 1.637 0 0 0 1.309-1.912" style="fill:#91d09f"/>
                    <path data-name="패스 12726" d="M29.448 34.358H9.213l-.133.7h20.5z" style="fill:#56b36b"/>
                </g>
            </g>
        </g>
    </g>
</svg>
