<svg xmlns="http://www.w3.org/2000/svg" width="100" height="100" viewBox="0 0 100 100">
    <defs>
        <clipPath id="flrp0ylgta">
            <path data-name="사각형 2663" style="fill:none" d="M0 0h50v88.733H0z"/>
        </clipPath>
    </defs>
    <g data-name="그룹 2513">
        <path data-name="사각형 2599" style="fill:none" d="M0 0h100v100H0z"/>
        <g data-name="그룹 2408">
            <g data-name="그룹 2407" style="clip-path:url(#flrp0ylgta)" transform="translate(25 11)">
                <path data-name="패스 11293" d="M29.722 20.2c3.02-1.227 5.048-.372 5.772 1.408s-.133 3.807-3.153 5.035-7.78-.59-7.78-.59 2.139-4.629 5.163-5.853" style="fill:#94b524"/>
                <path data-name="패스 11294" d="M29.722 28.655c3.02-1.227 5.048-.372 5.772 1.408s-.133 3.807-3.153 5.035-7.78-.59-7.78-.59 2.143-4.625 5.163-5.852" style="fill:#94b524"/>
                <path data-name="패스 11295" d="M29.722 37.114c3.02-1.227 5.048-.372 5.772 1.408s-.133 3.807-3.153 5.035-7.78-.59-7.78-.59 2.143-4.625 5.163-5.852" style="fill:#94b524"/>
                <path data-name="패스 11296" d="M29.722 45.573c3.02-1.227 5.048-.372 5.772 1.408s-.133 3.807-3.153 5.035-7.78-.59-7.78-.59 2.139-4.626 5.163-5.852" style="fill:#94b524"/>
                <path data-name="패스 11297" d="M19.4 20.2c-3.02-1.227-5.048-.372-5.772 1.408s.133 3.807 3.153 5.035 7.78-.59 7.78-.59-2.145-4.629-5.161-5.853" style="fill:#94b524"/>
                <path data-name="패스 11298" d="M19.4 28.655c-3.02-1.227-5.048-.372-5.772 1.408s.133 3.807 3.153 5.035 7.78-.59 7.78-.59-2.143-4.625-5.163-5.852" style="fill:#94b524"/>
                <path data-name="패스 11299" d="M19.4 37.114c-3.02-1.227-5.048-.372-5.772 1.408s.133 3.807 3.153 5.035 7.78-.59 7.78-.59-2.143-4.625-5.163-5.852" style="fill:#94b524"/>
                <path data-name="패스 11300" d="M19.4 45.573c-3.02-1.227-5.048-.372-5.772 1.408s.133 3.807 3.153 5.035 7.78-.59 7.78-.59-2.145-4.626-5.161-5.852" style="fill:#94b524"/>
                <path data-name="패스 11301" d="M24.69 16.018h-.3c0-4.631-4.054-12.559-4.094-12.638l.271-.139c.041.08 4.127 8.073 4.127 12.777" style="fill:#a1d438"/>
                <path data-name="패스 11302" d="M20.945 3.31a.518.518 0 1 1-.518-.518.518.518 0 0 1 .518.518" style="fill:#a1d438"/>
                <path data-name="패스 11303" d="M24.69 16.018h-.3c0-4.7 4.087-12.7 4.128-12.777l.27.139c-.041.079-4.094 8.007-4.094 12.638" style="fill:#a1d438"/>
                <path data-name="패스 11304" d="M28.131 3.31a.518.518 0 1 0 .518-.518.518.518 0 0 0-.518.518" style="fill:#a1d438"/>
                <path data-name="패스 11305" d="M24.015.518A.518.518 0 1 0 24.533 0a.518.518 0 0 0-.518.518" style="fill:#a1d438"/>
                <path data-name="사각형 2656" transform="translate(24.387 .314)" style="fill:#a1d438" d="M0 0h.304v10.96H0z"/>
                <path data-name="사각형 2657" transform="translate(23.575 15.569)" style="fill:#8c6239" d="M0 0h1.974v45.67H0z"/>
                <path data-name="패스 11306" d="M19.4 16.474c-3.02-1.227-5.048-.372-5.772 1.408s.133 3.807 3.153 5.035 7.78-.59 7.78-.59-2.145-4.627-5.161-5.852" style="fill:#a1d438"/>
                <path data-name="패스 11307" d="M19.4 24.323c-3.02-1.227-5.048-.372-5.772 1.408s.133 3.807 3.153 5.035 7.78-.59 7.78-.59-2.143-4.625-5.163-5.852" style="fill:#a1d438"/>
                <path data-name="패스 11308" d="M19.4 32.175c-3.02-1.227-5.048-.372-5.772 1.408s.133 3.807 3.153 5.035 7.78-.59 7.78-.59-2.143-4.628-5.161-5.853" style="fill:#a1d438"/>
                <path data-name="패스 11309" d="M19.4 40.022c-3.02-1.227-5.048-.372-5.772 1.408s.133 3.807 3.153 5.035 7.78-.59 7.78-.59-2.145-4.625-5.161-5.852" style="fill:#a1d438"/>
                <path data-name="패스 11310" d="M19.4 47.87c-3.02-1.227-5.048-.372-5.772 1.408s.133 3.807 3.153 5.035 7.78-.59 7.78-.59-2.145-4.623-5.161-5.852" style="fill:#a1d438"/>
                <path data-name="패스 11311" d="M29.722 16.474c3.02-1.227 5.048-.372 5.772 1.408s-.133 3.807-3.153 5.035-7.78-.59-7.78-.59 2.139-4.627 5.163-5.852" style="fill:#a1d438"/>
                <path data-name="패스 11312" d="M29.722 24.323c3.02-1.227 5.048-.372 5.772 1.408s-.133 3.807-3.153 5.035-7.78-.59-7.78-.59 2.143-4.625 5.163-5.852" style="fill:#a1d438"/>
                <path data-name="패스 11313" d="M29.722 32.175c3.02-1.227 5.048-.372 5.772 1.408s-.133 3.807-3.153 5.035-7.78-.59-7.78-.59 2.139-4.628 5.161-5.853" style="fill:#a1d438"/>
                <path data-name="패스 11314" d="M29.722 40.022c3.02-1.227 5.048-.372 5.772 1.408s-.133 3.807-3.153 5.035-7.78-.59-7.78-.59 2.143-4.625 5.163-5.852" style="fill:#a1d438"/>
                <path data-name="패스 11315" d="M29.722 47.87c3.02-1.227 5.048-.372 5.772 1.408s-.133 3.807-3.153 5.035-7.78-.59-7.78-.59 2.139-4.623 5.163-5.852" style="fill:#a1d438"/>
                <path data-name="패스 11316" d="M26.412 12.283c0 3.029-.839 4.477-1.874 4.477s-1.874-1.448-1.874-4.477a16.435 16.435 0 0 1 1.874-6.494 16.435 16.435 0 0 1 1.874 6.494" style="fill:#a1d438"/>
                <path data-name="패스 11317" d="M24.251 12.211c1.55 2.6 1.57 4.274.681 4.805s-2.351-.285-3.9-2.887a16.445 16.445 0 0 1-1.714-6.538 16.414 16.414 0 0 1 4.931 4.62" style="fill:#a1d438"/>
                <path data-name="패스 11318" d="M25.217 12.211c-1.55 2.6-1.57 4.274-.681 4.805s2.351-.285 3.9-2.887a16.436 16.436 0 0 0 1.714-6.538 16.414 16.414 0 0 0-4.931 4.62" style="fill:#a1d438"/>
                <path data-name="패스 11319" d="M14.019 27.432c2.487-1.011 4.158-.306 4.754 1.159s-.109 3.137-2.6 4.148-6.408-.486-6.408-.486 1.765-3.81 4.252-4.821" style="fill:#94b524"/>
                <path data-name="패스 11320" d="M14.019 34.4c2.487-1.011 4.158-.306 4.754 1.159s-.109 3.137-2.6 4.148-6.408-.486-6.408-.486 1.765-3.81 4.252-4.821" style="fill:#94b524"/>
                <path data-name="패스 11321" d="M14.019 41.367c2.487-1.011 4.158-.306 4.754 1.159s-.109 3.137-2.6 4.148-6.408-.486-6.408-.486 1.765-3.81 4.252-4.821" style="fill:#94b524"/>
                <path data-name="패스 11322" d="M14.019 48.335c2.487-1.011 4.158-.306 4.754 1.159s-.109 3.137-2.6 4.148-6.408-.486-6.408-.486 1.765-3.81 4.252-4.821" style="fill:#94b524"/>
                <path data-name="패스 11323" d="M5.515 27.432c-2.487-1.011-4.158-.306-4.754 1.159s.109 3.137 2.6 4.148 6.408-.486 6.408-.486S8 28.443 5.514 27.432" style="fill:#94b524"/>
                <path data-name="패스 11324" d="M5.515 34.4c-2.487-1.011-4.158-.306-4.754 1.159s.109 3.137 2.6 4.148 6.408-.486 6.408-.486S8 35.411 5.514 34.4" style="fill:#94b524"/>
                <path data-name="패스 11325" d="M5.515 41.367c-2.487-1.011-4.158-.306-4.754 1.159s.109 3.137 2.6 4.148 6.408-.486 6.408-.486S8 42.378 5.514 41.367" style="fill:#94b524"/>
                <path data-name="패스 11326" d="M5.515 48.335c-2.487-1.011-4.158-.306-4.754 1.159s.109 3.137 2.6 4.148 6.408-.486 6.408-.486S8 49.346 5.514 48.335" style="fill:#94b524"/>
                <path data-name="패스 11327" d="M9.874 23.991h-.25c0-3.815-3.34-10.345-3.372-10.41l.222-.115c.034.066 3.4 6.65 3.4 10.525" style="fill:#a1d438"/>
                <path data-name="패스 11328" d="M6.789 13.523a.427.427 0 1 1-.426-.426.426.426 0 0 1 .426.426" style="fill:#a1d438"/>
                <path data-name="패스 11329" d="M9.874 23.991h-.25c0-3.875 3.366-10.458 3.4-10.525l.222.115c-.033.065-3.372 6.6-3.372 10.41" style="fill:#a1d438"/>
                <path data-name="패스 11330" d="M12.708 13.523a.427.427 0 1 0 .426-.426.426.426 0 0 0-.426.426" style="fill:#a1d438"/>
                <path data-name="패스 11331" d="M9.318 11.223a.427.427 0 1 0 .426-.426.426.426 0 0 0-.426.426" style="fill:#a1d438"/>
                <path data-name="사각형 2658" transform="translate(9.624 11.055)" style="fill:#a1d438" d="M0 0h.25v9.028H0z"/>
                <path data-name="사각형 2659" transform="translate(8.955 23.621)" style="fill:#8c6239" d="M0 0h1.626v37.618H0z"/>
                <path data-name="패스 11332" d="M5.515 24.366c-2.487-1.011-4.158-.306-4.754 1.159s.109 3.137 2.6 4.148 6.408-.486 6.408-.486S8 25.377 5.514 24.366" style="fill:#a1d438"/>
                <path data-name="패스 11333" d="M5.515 30.831C3.028 29.82 1.357 30.525.761 31.99s.109 3.137 2.6 4.148 6.408-.486 6.408-.486S8 31.842 5.514 30.831" style="fill:#a1d438"/>
                <path data-name="패스 11334" d="M5.515 37.3c-2.487-1.011-4.158-.306-4.754 1.159s.109 3.137 2.6 4.148 6.408-.486 6.408-.486S8 38.309 5.515 37.3" style="fill:#a1d438"/>
                <path data-name="패스 11335" d="M5.515 43.762c-2.487-1.011-4.158-.306-4.754 1.159s.109 3.137 2.6 4.148 6.408-.486 6.408-.486S8 44.773 5.514 43.762" style="fill:#a1d438"/>
                <path data-name="패스 11336" d="M5.515 50.227c-2.487-1.011-4.158-.306-4.754 1.159s.109 3.137 2.6 4.148 6.408-.486 6.408-.486S8 51.238 5.514 50.227" style="fill:#a1d438"/>
                <path data-name="패스 11337" d="M14.019 24.366c2.487-1.011 4.158-.306 4.754 1.159s-.109 3.137-2.6 4.148-6.408-.486-6.408-.486 1.765-3.81 4.252-4.821" style="fill:#a1d438"/>
                <path data-name="패스 11338" d="M14.019 30.831c2.487-1.011 4.158-.306 4.754 1.159s-.109 3.137-2.6 4.148-6.408-.486-6.408-.486 1.765-3.81 4.252-4.821" style="fill:#a1d438"/>
                <path data-name="패스 11339" d="M14.019 37.3c2.487-1.011 4.158-.306 4.754 1.159s-.109 3.137-2.6 4.148-6.408-.486-6.408-.486 1.766-3.811 4.251-4.821" style="fill:#a1d438"/>
                <path data-name="패스 11340" d="M14.019 43.762c2.487-1.011 4.158-.306 4.754 1.159s-.109 3.137-2.6 4.148-6.408-.486-6.408-.486 1.765-3.81 4.252-4.821" style="fill:#a1d438"/>
                <path data-name="패스 11341" d="M14.019 50.227c2.487-1.011 4.158-.306 4.754 1.159s-.109 3.137-2.6 4.148-6.408-.486-6.408-.486 1.765-3.81 4.252-4.821" style="fill:#a1d438"/>
                <path data-name="패스 11342" d="M11.293 20.913c0 2.5-.691 3.689-1.544 3.689s-1.543-1.193-1.543-3.689a13.547 13.547 0 0 1 1.543-5.349 13.541 13.541 0 0 1 1.544 5.349" style="fill:#a1d438"/>
                <path data-name="패스 11343" d="M9.512 20.855c1.277 2.144 1.293 3.52.561 3.958s-1.937-.235-3.213-2.378a13.544 13.544 0 0 1-1.412-5.386 13.527 13.527 0 0 1 4.062 3.806" style="fill:#a1d438"/>
                <path data-name="패스 11344" d="M10.308 20.855c-1.277 2.145-1.293 3.52-.561 3.958s1.937-.235 3.213-2.378a13.535 13.535 0 0 0 1.411-5.386 13.527 13.527 0 0 0-4.062 3.806" style="fill:#a1d438"/>
                <path data-name="패스 11345" d="M45.047 27.432c2.487-1.011 4.158-.306 4.754 1.159s-.109 3.137-2.6 4.148-6.408-.486-6.408-.486 1.765-3.81 4.252-4.821" style="fill:#94b524"/>
                <path data-name="패스 11346" d="M45.047 34.4c2.487-1.011 4.158-.306 4.754 1.159s-.109 3.137-2.6 4.148-6.408-.486-6.408-.486 1.765-3.81 4.252-4.821" style="fill:#94b524"/>
                <path data-name="패스 11347" d="M45.047 41.367c2.487-1.011 4.158-.306 4.754 1.159s-.109 3.137-2.6 4.148-6.408-.486-6.408-.486 1.765-3.81 4.252-4.821" style="fill:#94b524"/>
                <path data-name="패스 11348" d="M45.047 48.335c2.487-1.011 4.158-.306 4.754 1.159s-.109 3.137-2.6 4.148-6.408-.486-6.408-.486 1.765-3.81 4.252-4.821" style="fill:#94b524"/>
                <path data-name="패스 11349" d="M36.543 27.432c-2.487-1.011-4.158-.306-4.754 1.159s.109 3.137 2.6 4.148 6.408-.486 6.408-.486-1.765-3.81-4.252-4.821" style="fill:#94b524"/>
                <path data-name="패스 11350" d="M36.543 34.4c-2.487-1.011-4.158-.306-4.754 1.159s.109 3.137 2.6 4.148 6.408-.486 6.408-.486-1.765-3.81-4.252-4.821" style="fill:#94b524"/>
                <path data-name="패스 11351" d="M36.543 41.367c-2.487-1.011-4.158-.306-4.754 1.159s.109 3.137 2.6 4.148 6.408-.486 6.408-.486-1.765-3.81-4.252-4.821" style="fill:#94b524"/>
                <path data-name="패스 11352" d="M36.543 48.335c-2.487-1.011-4.158-.306-4.754 1.159s.109 3.137 2.6 4.148 6.408-.486 6.408-.486-1.765-3.81-4.252-4.821" style="fill:#94b524"/>
                <path data-name="패스 11353" d="M40.9 23.991h-.25c0-3.815-3.34-10.345-3.372-10.41l.222-.115c.034.066 3.4 6.65 3.4 10.525" style="fill:#a1d438"/>
                <path data-name="패스 11354" d="M37.817 13.523a.427.427 0 1 1-.426-.426.426.426 0 0 1 .426.426" style="fill:#a1d438"/>
                <path data-name="패스 11355" d="M40.9 23.991h-.25c0-3.875 3.366-10.458 3.4-10.525l.222.115c-.033.065-3.372 6.6-3.372 10.41" style="fill:#a1d438"/>
                <path data-name="패스 11356" d="M43.736 13.523a.427.427 0 1 0 .426-.426.426.426 0 0 0-.426.426" style="fill:#a1d438"/>
                <path data-name="패스 11357" d="M40.345 11.223a.427.427 0 1 0 .426-.426.426.426 0 0 0-.426.426" style="fill:#a1d438"/>
                <path data-name="사각형 2660" transform="translate(40.652 11.055)" style="fill:#a1d438" d="M0 0h.25v9.028H0z"/>
                <path data-name="사각형 2661" transform="translate(39.983 23.621)" style="fill:#8c6239" d="M0 0h1.626v37.618H0z"/>
                <path data-name="패스 11358" d="M36.543 24.366c-2.487-1.011-4.158-.306-4.754 1.159s.109 3.137 2.6 4.148 6.408-.486 6.408-.486-1.765-3.81-4.252-4.821" style="fill:#a1d438"/>
                <path data-name="패스 11359" d="M36.543 30.831c-2.487-1.011-4.158-.306-4.754 1.159s.109 3.137 2.6 4.148 6.408-.486 6.408-.486-1.765-3.81-4.252-4.821" style="fill:#a1d438"/>
                <path data-name="패스 11360" d="M36.543 37.3c-2.487-1.011-4.158-.306-4.754 1.159s.109 3.137 2.6 4.148 6.408-.486 6.408-.486-1.767-3.812-4.254-4.821" style="fill:#a1d438"/>
                <path data-name="패스 11361" d="M36.543 43.762c-2.487-1.011-4.158-.306-4.754 1.159s.109 3.137 2.6 4.148 6.408-.486 6.408-.486-1.765-3.81-4.252-4.821" style="fill:#a1d438"/>
                <path data-name="패스 11362" d="M36.543 50.227c-2.487-1.011-4.158-.306-4.754 1.159s.109 3.137 2.6 4.148 6.408-.486 6.408-.486-1.765-3.81-4.252-4.821" style="fill:#a1d438"/>
                <path data-name="패스 11363" d="M45.047 24.366c2.487-1.011 4.158-.306 4.754 1.159s-.109 3.137-2.6 4.148-6.408-.486-6.408-.486 1.765-3.81 4.252-4.821" style="fill:#a1d438"/>
                <path data-name="패스 11364" d="M45.047 30.831c2.487-1.011 4.158-.306 4.754 1.159s-.109 3.137-2.6 4.148-6.408-.486-6.408-.486 1.765-3.81 4.252-4.821" style="fill:#a1d438"/>
                <path data-name="패스 11365" d="M45.047 37.3c2.487-1.011 4.158-.306 4.754 1.159s-.109 3.137-2.6 4.148-6.401-.487-6.401-.487 1.766-3.811 4.251-4.821" style="fill:#a1d438"/>
                <path data-name="패스 11366" d="M45.047 43.762c2.487-1.011 4.158-.306 4.754 1.159s-.109 3.137-2.6 4.148-6.408-.486-6.408-.486 1.765-3.81 4.252-4.821" style="fill:#a1d438"/>
                <path data-name="패스 11367" d="M45.047 50.227c2.487-1.011 4.158-.306 4.754 1.159s-.109 3.137-2.6 4.148-6.408-.486-6.408-.486 1.765-3.81 4.252-4.821" style="fill:#a1d438"/>
                <path data-name="패스 11368" d="M42.32 20.913c0 2.5-.691 3.689-1.544 3.689s-1.543-1.193-1.543-3.689a13.547 13.547 0 0 1 1.543-5.349 13.541 13.541 0 0 1 1.544 5.349" style="fill:#a1d438"/>
                <path data-name="패스 11369" d="M40.54 20.855c1.277 2.144 1.293 3.52.561 3.958s-1.937-.235-3.213-2.378a13.544 13.544 0 0 1-1.412-5.386 13.527 13.527 0 0 1 4.062 3.806" style="fill:#a1d438"/>
                <path data-name="패스 11370" d="M41.336 20.855c-1.277 2.144-1.293 3.52-.561 3.958s1.937-.235 3.213-2.378a13.535 13.535 0 0 0 1.412-5.386 13.527 13.527 0 0 0-4.062 3.806" style="fill:#a1d438"/>
                <path data-name="사각형 2662" transform="translate(0 61.239)" style="fill:#fff" d="M0 0h50v6.175H0z"/>
                <path data-name="패스 11371" d="m1.5 67.414.761 3.478h45.476l.761-3.478z" style="fill:#e6e6e6"/>
                <path data-name="패스 11372" d="M47.737 70.892H2.263l3.9 17.839h10.353v-1.179a1.382 1.382 0 1 1 2.764 0v1.179h3.633v-1.179a1.382 1.382 0 0 1 2.765 0v1.179h3.633v-1.179a1.382 1.382 0 1 1 2.764 0v1.181h11.758z" style="fill:#fff"/>
                <path data-name="패스 11373" d="M17.9 86.169a1.382 1.382 0 0 0-1.382 1.382v1.181h2.762v-1.178a1.383 1.383 0 0 0-1.38-1.383" style="fill:#e6e6e6"/>
                <path data-name="패스 11374" d="M24.3 86.169a1.382 1.382 0 0 0-1.382 1.382v1.181h2.764v-1.178a1.383 1.383 0 0 0-1.382-1.383" style="fill:#e6e6e6"/>
                <path data-name="패스 11375" d="M30.693 86.169a1.382 1.382 0 0 0-1.382 1.382v1.181h2.764v-1.178a1.383 1.383 0 0 0-1.382-1.383" style="fill:#e6e6e6"/>
                <path data-name="패스 11376" d="M17.9 86.169a1.382 1.382 0 0 0-1.382 1.382v1.181h2.762v-1.178a1.383 1.383 0 0 0-1.38-1.383" style="fill:#56b36b"/>
                <path data-name="패스 11377" d="M24.3 86.169a1.382 1.382 0 0 0-1.382 1.382v1.181h2.764v-1.178a1.383 1.383 0 0 0-1.382-1.383" style="fill:#56b36b"/>
                <path data-name="패스 11378" d="M30.693 86.169a1.382 1.382 0 0 0-1.382 1.382v1.181h2.764v-1.178a1.383 1.383 0 0 0-1.382-1.383" style="fill:#56b36b"/>
            </g>
        </g>
    </g>
</svg>
