<svg xmlns="http://www.w3.org/2000/svg" width="100" height="100" viewBox="0 0 100 100">
    <defs>
        <clipPath id="lyauqmojja">
            <path data-name="사각형 2640" style="fill:none" d="M0 0h50v80.572H0z"/>
        </clipPath>
    </defs>
    <g data-name="그룹 2517">
        <path data-name="사각형 2594" style="fill:none" d="M0 0h100v100H0z"/>
        <g data-name="그룹 2399">
            <g data-name="그룹 2398" style="clip-path:url(#lyauqmojja)" transform="translate(25 19)">
                <path data-name="패스 11184" d="M37.5 53.075v-4.122a6.386 6.386 0 0 0 3.767.148c1.67-.678 2.145-1.8 1.75-2.785a1.73 1.73 0 0 0-.74-2.135 1.843 1.843 0 0 0 .738-2.225 1.552 1.552 0 0 0-.078-.145 1.688 1.688 0 0 0 .078-1.467 1.714 1.714 0 0 0-.534-.706 1.781 1.781 0 0 0 .534-2.039 1.856 1.856 0 0 0-.174-.327 1.7 1.7 0 0 0 .174-1.619 1.743 1.743 0 0 0-.35-.537 1.738 1.738 0 0 0 .35-1.865 1.763 1.763 0 0 0-.306-.486 1.725 1.725 0 0 0 .306-1.8 1.808 1.808 0 0 0-.218-.384 1.7 1.7 0 0 0 .218-1.68 1.737 1.737 0 0 0-.463-.655 1.762 1.762 0 0 0 .463-1.972 1.736 1.736 0 0 0-.107-.2 1.692 1.692 0 0 0 .107-1.526c-.4-.986-1.526-1.461-3.2-.78a5.711 5.711 0 0 0-2.315 2.26v-3.3a.986.986 0 0 0 .219-.245 5.307 5.307 0 0 0 2.354.031 10.939 10.939 0 0 0 4.075-1.923 10.956 10.956 0 0 0-2.677-.537 10.94 10.94 0 0 0 1.663-1.872 10.938 10.938 0 0 0-3.651.586c.01-.028.016-.057.027-.085a31.853 31.853 0 0 1 2.827-2.772l-.109-.129c-.009.008-.966.816-2.033 1.916-.193.18-.371.374-.552.565a9.125 9.125 0 0 0 .408-2.243 9.114 9.114 0 0 0-2.17 1.838 9.186 9.186 0 0 0-.115-.572 31.961 31.961 0 0 1 1.416-3.37c.014 0 .023.015.037.015a.287.287 0 1 0-.287-.288.278.278 0 0 0 .094.207 32.983 32.983 0 0 0-1.331 3.132 9.078 9.078 0 0 0-.675-1.782v-2.856a.272.272 0 0 0 .2-.25.287.287 0 0 0-.574 0 .273.273 0 0 0 .209.255v2.846a9.1 9.1 0 0 0-.67 1.77 32.53 32.53 0 0 0-1.325-3.118.283.283 0 0 0 .088-.2.287.287 0 1 0-.287.288c.016 0 .026-.015.042-.018a32.116 32.116 0 0 1 1.412 3.355c-.03.13-.067.259-.091.39a9.1 9.1 0 0 0-1.982-1.638 9.112 9.112 0 0 0 .516 2.585 13.311 13.311 0 0 0-.873-.905c-.287-.3-.564-.566-.818-.81a2.345 2.345 0 0 0-.125-.431c-.519-1.275-1.972-1.887-4.135-1.008a7.381 7.381 0 0 0-2.992 2.926v-4.237a1.33 1.33 0 0 0 .3-.349 6.9 6.9 0 0 0 3.028.035 14.156 14.156 0 0 0 5.257-2.485 14.164 14.164 0 0 0-3.453-.692 14.175 14.175 0 0 0 2.143-2.411A14.148 14.148 0 0 0 28.173 9c.014-.038.023-.077.036-.114A41.437 41.437 0 0 1 31.6 5.527a.364.364 0 0 0 .048.032.371.371 0 1 0-.2-.485.366.366 0 0 0 0 .292 42.062 42.062 0 0 0-2.359 2.241c-.248.233-.478.483-.712.73a11.77 11.77 0 0 0 .527-2.9 11.748 11.748 0 0 0-2.8 2.373c-.04-.253-.094-.5-.151-.75a41.428 41.428 0 0 1 1.821-4.331.275.275 0 0 0 .057.012.374.374 0 1 0-.256-.1 42.263 42.263 0 0 0-1.713 4.032A11.721 11.721 0 0 0 25 4.38V.72a.372.372 0 1 0-.217 0v3.662a11.754 11.754 0 0 0-.867 2.292A42.181 42.181 0 0 0 22.2 2.64a.37.37 0 1 0-.255.1.386.386 0 0 0 .059-.012 41 41 0 0 1 1.82 4.33c-.038.165-.085.329-.116.5a11.743 11.743 0 0 0-2.56-2.118 11.785 11.785 0 0 0 .668 3.341c-.358-.407-.733-.8-1.13-1.173a42.784 42.784 0 0 0-2.36-2.241.369.369 0 1 0-.195.193.323.323 0 0 0 .049-.033 40.766 40.766 0 0 1 3.533 3.52 14.155 14.155 0 0 0-4.848-.8 14.1 14.1 0 0 0 2.143 2.413 14.12 14.12 0 0 0-3.464.692 14.125 14.125 0 0 0 5.264 2.485 6.815 6.815 0 0 0 3.057-.046 1.313 1.313 0 0 0 .334.381v4.212a7.387 7.387 0 0 0-2.994-2.929c-2.163-.879-3.616-.267-4.135 1.008a2.212 2.212 0 0 0-.153 1.07l-.168.169c-.193.18-.371.374-.552.565a9.125 9.125 0 0 0 .408-2.243 9.1 9.1 0 0 0-2.169 1.837 8.884 8.884 0 0 0-.117-.58 32.028 32.028 0 0 1 1.413-3.361c.014 0 .023.015.037.015a.287.287 0 1 0-.286-.287.278.278 0 0 0 .094.207 33.017 33.017 0 0 0-1.328 3.124 9.07 9.07 0 0 0-.671-1.776v-2.858a.271.271 0 0 0 .2-.251.287.287 0 1 0-.573 0 .275.275 0 0 0 .206.254V15.2a9.1 9.1 0 0 0-.67 1.77 32.9 32.9 0 0 0-1.326-3.119.283.283 0 0 0 .09-.206.287.287 0 1 0-.286.287c.016 0 .025-.014.041-.017a32.116 32.116 0 0 1 1.411 3.356c-.029.129-.066.257-.09.387a9.09 9.09 0 0 0-1.98-1.637 9.079 9.079 0 0 0 .518 2.591c-.279-.316-.57-.622-.878-.911a33.635 33.635 0 0 0-1.83-1.74.283.283 0 0 0 .007-.225.287.287 0 1 0-.157.375c.014-.006.017-.022.03-.03A31.549 31.549 0 0 1 11.03 18.8a10.938 10.938 0 0 0-3.744-.62 10.935 10.935 0 0 0 1.663 1.872 10.893 10.893 0 0 0-2.682.537 10.958 10.958 0 0 0 4.074 1.923 5.248 5.248 0 0 0 2.374-.038.992.992 0 0 0 .249.275v3.286a5.709 5.709 0 0 0-2.32-2.27c-1.674-.681-2.8-.206-3.2.78a1.692 1.692 0 0 0 .107 1.526 1.737 1.737 0 0 0-.107.2 1.76 1.76 0 0 0 .465 1.971 1.727 1.727 0 0 0-.465.656 1.7 1.7 0 0 0 .218 1.68 1.808 1.808 0 0 0-.218.384 1.725 1.725 0 0 0 .306 1.8 1.73 1.73 0 0 0 .044 2.351 1.743 1.743 0 0 0-.35.537 1.7 1.7 0 0 0 .174 1.619 1.765 1.765 0 0 0 .359 2.366 1.72 1.72 0 0 0-.533.706 1.691 1.691 0 0 0 .077 1.467c-.025.049-.056.093-.077.145a1.843 1.843 0 0 0 .738 2.225 1.73 1.73 0 0 0-.74 2.135c-.395.985.08 2.107 1.75 2.785a6.4 6.4 0 0 0 3.772-.149v4.123H0v6.178h1.5l.758 3.478 3.9 17.839h10.358v-1.176a1.382 1.382 0 0 1 2.765 0v1.179h3.633v-1.179a1.383 1.383 0 0 1 2.765 0v1.179h3.633v-1.179a1.382 1.382 0 0 1 2.765 0v1.181h11.756l3.9-17.844.767-3.478H50v-6.175zm-11.882 0v-5.091c1.114.329 3.313.825 4.866.192.2-.084.384-.177.562-.271a3.279 3.279 0 0 0 1.591 1.2 6.381 6.381 0 0 0 3.768-.148v4.122zm-12.651-6.55a7.742 7.742 0 0 0-1.33-1.627 10.172 10.172 0 0 0 1.33-.3zm0-3.078a11.657 11.657 0 0 0-.256-.389c.092-.024.177-.048.256-.071zm0-1.612a8.377 8.377 0 0 0-1.036-1.344 10.444 10.444 0 0 0 1.036-.249zm0-2.745a9.468 9.468 0 0 0-.461-.67c.172-.042.326-.085.461-.124zm0-1.946a8.942 8.942 0 0 0-.771-1.054c.3-.064.558-.134.771-.2zm0-2.4a9.152 9.152 0 0 0-.688-.958c.263-.06.495-.123.688-.179zm0-2.29c-.152-.241-.332-.5-.538-.769.2-.048.383-.1.538-.142zm0-2.065a8.476 8.476 0 0 0-.941-1.246c.365-.072.688-.157.941-.231zM24.2 40.879c-.1-.162-.21-.329-.331-.5.119-.032.229-.063.331-.093zm1.414-6.659c.174.051.372.106.593.161-.224.3-.421.591-.593.863zm10.1-.436c.261-.059.491-.122.684-.178v1.13a9.126 9.126 0 0 0-.684-.952M36.4 35.9v1.243a8.992 8.992 0 0 0-.767-1.048c.294-.064.555-.133.767-.195m-10.785-3.177v-1.607c.274.081.612.17.992.253a11.57 11.57 0 0 0-.992 1.354M24.2 35.246c-.172-.273-.37-.567-.595-.866.222-.055.42-.11.595-.161zm0-2.515a11.663 11.663 0 0 0-1-1.362 14.38 14.38 0 0 0 1-.253zm0 4.01v2.049a10.8 10.8 0 0 0-1.333-1.728 13.7 13.7 0 0 0 1.333-.321m1.414 0a13.4 13.4 0 0 0 1.33.321 10.833 10.833 0 0 0-1.33 1.725zm.322 3.634c-.117.168-.223.331-.322.488v-.579c.1.029.206.06.322.091m9.434.116a10.476 10.476 0 0 0 1.031-.248v1.585a8.455 8.455 0 0 0-1.031-1.337m1.031 2.5v.453c-.078-.123-.16-.251-.252-.383.09-.024.174-.047.252-.07m-.456-4.568c.17-.042.322-.084.456-.123v.787a9.378 9.378 0 0 0-.456-.664M37.5 35.9c.212.062.472.131.766.195a8.964 8.964 0 0 0-.766 1.046zm0-1.161v-1.133c.192.057.422.119.683.178a9.053 9.053 0 0 0-.683.95m-1.629-3.05c.2-.048.38-.1.534-.142v.9c-.151-.24-.33-.5-.534-.763m-.4-2.54c.363-.071.683-.155.935-.229v1.467a8.619 8.619 0 0 0-.935-1.238m-9.852.475v-1.453c.248.073.545.154.883.23a11.733 11.733 0 0 0-.883 1.228m-1.414 0a11.787 11.787 0 0 0-.885-1.231c.338-.076.636-.157.885-.23zm1.41 12.741a13.026 13.026 0 0 0 1.716.387 9.925 9.925 0 0 0-1.716 2.095zm9.461 2.54a10.188 10.188 0 0 0 1.326-.3v1.918a7.724 7.724 0 0 0-1.326-1.62m2.421-1.91c.077.023.161.046.251.07a9.156 9.156 0 0 0-.251.381zm0-1.161v-1.584a10.448 10.448 0 0 0 1.03.248 8.35 8.35 0 0 0-1.03 1.336m0-2.745V38.3c.134.039.286.081.455.123a9.333 9.333 0 0 0-.455.662m0-6.637v-.9c.154.045.333.094.533.142-.2.261-.382.522-.533.761m-1.416-5.167c.117-.031.223-.06.321-.089v.567c-.1-.153-.2-.313-.321-.478m-10.466-.614V25.5c.2.059.431.122.69.184a11.908 11.908 0 0 0-.69.985m-1.414 0c-.2-.311-.428-.649-.692-.988.259-.062.492-.125.692-.184zM15 29.14a8.613 8.613 0 0 0-.938 1.241V28.91c.253.074.574.159.938.23m-.938-1.388v-.563c.1.029.2.058.318.089a8.94 8.94 0 0 0-.318.474m0 3.79c.154.045.333.094.533.142-.2.261-.382.522-.533.761zm0 2.064c.192.057.422.119.683.178a9.054 9.054 0 0 0-.683.95zm0 2.289c.212.062.472.131.766.195a8.964 8.964 0 0 0-.766 1.046zm0 2.4c.134.039.286.081.455.123a9.333 9.333 0 0 0-.455.662zm0 1.946a10.449 10.449 0 0 0 1.03.248 8.35 8.35 0 0 0-1.03 1.336zm0 2.745c.077.023.161.046.251.07a9.156 9.156 0 0 0-.251.381zm0 1.612a10.169 10.169 0 0 0 1.325.3 7.713 7.713 0 0 0-1.325 1.619zm8.427-1.85a13.352 13.352 0 0 0 1.715-.384v2.479a9.969 9.969 0 0 0-1.715-2.1m3.129 3.589.078.023-.078.125zM36.4 47.678v.116l-.062-.1.062-.018m1.1-3.076a10.169 10.169 0 0 0 1.325.3 7.713 7.713 0 0 0-1.325 1.617zm0-14.219V28.91c.253.074.574.159.938.23a8.613 8.613 0 0 0-.938 1.241m-3.41-6.617a4.062 4.062 0 0 0-1.248-.306 2.159 2.159 0 0 0-.059-1.24c.328.111.661.213 1 .293a5.248 5.248 0 0 0 2.374-.038 1 1 0 0 0 .249.276v3.28a5.712 5.712 0 0 0-2.315-2.266M25.615 24v-1.9c.326.1.74.206 1.208.3a11.121 11.121 0 0 0-1.208 1.6M24.2 24a11.1 11.1 0 0 0-1.211-1.6c.47-.093.885-.2 1.211-.3zm-9.922-1.52a5.293 5.293 0 0 0 2.355.032c.117-.028.23-.07.346-.1A2.136 2.136 0 0 0 17 23.559a4.909 4.909 0 0 0-.622.206 5.711 5.711 0 0 0-2.314 2.264v-3.3a.991.991 0 0 0 .219-.246m-.219 25.2.06.018-.06.1zM24.2 46.339v.151l-.08-.128.08-.023m13.3 1.339.06.018-.06.1zm.318-20.4a8.94 8.94 0 0 0-.318.474v-.563c.1.029.2.058.318.089M34.469 18.8a10.939 10.939 0 0 0-1.824-.465 2.148 2.148 0 0 0 .247-1.185c.486.471 1.043 1.04 1.577 1.65m-8.44 1.188c-.152.213-.29.419-.414.616v-.732c.126.038.263.076.414.116m-1.828.619c-.125-.2-.264-.405-.416-.619.151-.04.289-.079.416-.117zm-7.243-2.875a2.243 2.243 0 0 0 .255.695l-.007.014a10.913 10.913 0 0 0-1.164.325c.01-.028.017-.057.027-.085.3-.333.6-.652.889-.949m-3.994 10.022c-.1-.152-.2-.312-.322-.477.118-.031.224-.06.322-.09zM12.9 47.7l.066-.019v.119c-.022-.034-.043-.069-.066-.1m1.161 1.257a6.386 6.386 0 0 0 3.767.148 3.59 3.59 0 0 0 1.425-.964c.029.012.052.027.082.039 1.554.634 3.755.136 4.868-.192v5.091H14.059z" style="fill:#aaa"/>
            </g>
        </g>
    </g>
</svg>
