<svg xmlns="http://www.w3.org/2000/svg" width="100" height="100" viewBox="0 0 100 100">
    <defs>
        <clipPath id="um7zdj5wha">
            <path data-name="사각형 2708" style="fill:none" d="M0 0h75.003v45.553H0z"/>
        </clipPath>
    </defs>
    <g data-name="그룹 2505">
        <path data-name="사각형 2606" style="fill:none" d="M0 0h100v100H0z"/>
        <g data-name="그룹 2422">
            <g data-name="그룹 2421" style="clip-path:url(#um7zdj5wha)" transform="translate(12 54)">
                <path data-name="패스 11814" d="M22.516 16.694 13.359 25.7a4.3 4.3 0 0 0-1.283 3.065l9.285-9.285a3.946 3.946 0 0 0 1.155-2.79" style="fill:#6a8e32"/>
                <path data-name="패스 11815" d="m17.71 7.178-4.482 4.334a4.3 4.3 0 0 0-1.283 3.065l4.609-4.609a3.947 3.947 0 0 0 1.156-2.79" style="fill:#6a8e32"/>
                <path data-name="패스 11816" d="m3.751 11.23 7.71 7.562a4.3 4.3 0 0 1 1.283 3.065L4.907 14.02a3.947 3.947 0 0 1-1.156-2.79" style="fill:#6a8e32"/>
                <path data-name="패스 11817" d="m12.279 7.8-1.3-1.3a.437.437 0 0 1 .309-.746h2.606a.437.437 0 0 1 .306.746l-1.3 1.3a.436.436 0 0 1-.618 0" style="fill:#a1d438"/>
                <path data-name="사각형 2702" transform="translate(12.076 5.754)" style="fill:#a1d438" d="M0 0h.978v27.171H0z"/>
                <path data-name="패스 11818" d="m6.453 8.57 5.368 5.221a4.3 4.3 0 0 1 1.279 3.065l-5.5-5.5a3.947 3.947 0 0 1-1.156-2.79" style="fill:#a1d438"/>
                <path data-name="패스 11819" d="m21.065 11.226-7.7 7.553a4.3 4.3 0 0 0-1.283 3.065l7.828-7.828a3.946 3.946 0 0 0 1.155-2.79" style="fill:#a1d438"/>
                <path data-name="패스 11820" d="m1.233 16.456 10.347 10.2a4.3 4.3 0 0 1 1.283 3.065L2.389 19.246a3.945 3.945 0 0 1-1.156-2.79" style="fill:#a1d438"/>
                <path data-name="패스 11821" d="M14.376 3.644c-.008 1.694-.813 2.508-1.816 2.512s-1.812-.816-1.808-2.516A6.881 6.881 0 0 1 12.572 0a6.885 6.885 0 0 1 1.806 3.647" style="fill:#9a3bd1"/>
                <path data-name="패스 11822" d="M11.958 3.588c-.317 1.58.168 2.553.955 2.821s1.577-.269 1.895-1.845a7.974 7.974 0 0 0-.744-3.873 6.027 6.027 0 0 0-2.107 2.9" style="fill:#d8a0f2"/>
                <path data-name="패스 11823" d="M13.172 3.593a6.027 6.027 0 0 0-2.106-2.9 7.964 7.964 0 0 0-.745 3.873c.318 1.575 1.109 2.113 1.895 1.845s1.273-1.242.955-2.821" style="fill:#d8a0f2"/>
                <path data-name="패스 11824" d="M32.708 16.694 23.551 25.7a4.3 4.3 0 0 0-1.283 3.065l9.285-9.285a3.946 3.946 0 0 0 1.155-2.79" style="fill:#6a8e32"/>
                <path data-name="패스 11825" d="m27.9 7.178-4.48 4.334a4.3 4.3 0 0 0-1.283 3.065l4.609-4.609a3.947 3.947 0 0 0 1.154-2.79" style="fill:#6a8e32"/>
                <path data-name="패스 11826" d="m13.943 11.23 7.71 7.562a4.3 4.3 0 0 1 1.283 3.065L15.1 14.02a3.947 3.947 0 0 1-1.156-2.79" style="fill:#6a8e32"/>
                <path data-name="패스 11827" d="m22.471 7.8-1.3-1.3a.437.437 0 0 1 .309-.746h2.606a.437.437 0 0 1 .314.746l-1.3 1.3a.436.436 0 0 1-.618 0" style="fill:#a1d438"/>
                <path data-name="사각형 2703" transform="translate(22.268 5.754)" style="fill:#a1d438" d="M0 0h.978v27.171H0z"/>
                <path data-name="패스 11828" d="m16.645 8.57 5.368 5.221a4.3 4.3 0 0 1 1.287 3.065l-5.5-5.5a3.947 3.947 0 0 1-1.156-2.79" style="fill:#a1d438"/>
                <path data-name="패스 11829" d="m31.257 11.226-7.7 7.553a4.3 4.3 0 0 0-1.283 3.065l7.826-7.828a3.946 3.946 0 0 0 1.155-2.79" style="fill:#a1d438"/>
                <path data-name="패스 11830" d="m11.425 16.456 10.347 10.2a4.3 4.3 0 0 1 1.283 3.065L12.581 19.246a3.945 3.945 0 0 1-1.156-2.79" style="fill:#a1d438"/>
                <path data-name="패스 11831" d="M24.568 3.644c-.008 1.694-.813 2.508-1.816 2.512S20.94 5.34 20.944 3.64A6.881 6.881 0 0 1 22.764 0a6.885 6.885 0 0 1 1.806 3.647" style="fill:#9a3bd1"/>
                <path data-name="패스 11832" d="M22.151 3.588c-.317 1.58.168 2.553.955 2.821S24.683 6.14 25 4.564a7.974 7.974 0 0 0-.743-3.873 6.027 6.027 0 0 0-2.107 2.9" style="fill:#d8a0f2"/>
                <path data-name="패스 11833" d="M23.364 3.593a6.027 6.027 0 0 0-2.106-2.9 7.964 7.964 0 0 0-.745 3.873c.318 1.575 1.109 2.113 1.9 1.845s1.273-1.242.955-2.821" style="fill:#d8a0f2"/>
                <path data-name="패스 11834" d="M41.9 16.694 32.742 25.7a4.3 4.3 0 0 0-1.283 3.065l9.285-9.285a3.946 3.946 0 0 0 1.155-2.79" style="fill:#6a8e32"/>
                <path data-name="패스 11835" d="m37.093 7.178-4.482 4.334a4.3 4.3 0 0 0-1.283 3.065l4.609-4.609a3.947 3.947 0 0 0 1.156-2.79" style="fill:#6a8e32"/>
                <path data-name="패스 11836" d="m23.134 11.23 7.71 7.562a4.3 4.3 0 0 1 1.283 3.065L24.29 14.02a3.947 3.947 0 0 1-1.156-2.79" style="fill:#6a8e32"/>
                <path data-name="패스 11837" d="m31.662 7.8-1.3-1.3a.437.437 0 0 1 .309-.746h2.606a.437.437 0 0 1 .309.746l-1.3 1.3a.436.436 0 0 1-.618 0" style="fill:#a1d438"/>
                <path data-name="사각형 2704" transform="translate(31.459 5.754)" style="fill:#a1d438" d="M0 0h.978v27.171H0z"/>
                <path data-name="패스 11838" d="m25.836 8.57 5.364 5.221a4.3 4.3 0 0 1 1.283 3.065l-5.5-5.5a3.947 3.947 0 0 1-1.156-2.79" style="fill:#a1d438"/>
                <path data-name="패스 11839" d="m40.448 11.226-7.7 7.553a4.3 4.3 0 0 0-1.283 3.065l7.828-7.828a3.946 3.946 0 0 0 1.155-2.79" style="fill:#a1d438"/>
                <path data-name="패스 11840" d="m20.616 16.456 10.347 10.2a4.3 4.3 0 0 1 1.283 3.065L21.772 19.246a3.945 3.945 0 0 1-1.156-2.79" style="fill:#a1d438"/>
                <path data-name="패스 11841" d="M33.759 3.644c-.008 1.694-.813 2.508-1.816 2.512s-1.812-.816-1.808-2.516A6.881 6.881 0 0 1 31.955 0a6.885 6.885 0 0 1 1.806 3.647" style="fill:#9a3bd1"/>
                <path data-name="패스 11842" d="M31.341 3.588c-.317 1.58.168 2.553.955 2.821s1.577-.269 1.9-1.845a7.974 7.974 0 0 0-.749-3.873 6.027 6.027 0 0 0-2.107 2.9" style="fill:#d8a0f2"/>
                <path data-name="패스 11843" d="M32.555 3.593a6.027 6.027 0 0 0-2.106-2.9 7.964 7.964 0 0 0-.749 3.872c.318 1.575 1.109 2.113 1.9 1.845s1.273-1.242.955-2.821" style="fill:#d8a0f2"/>
                <path data-name="패스 11844" d="M53.006 16.694 43.849 25.7a4.3 4.3 0 0 0-1.283 3.065l9.285-9.285a3.946 3.946 0 0 0 1.155-2.79" style="fill:#6a8e32"/>
                <path data-name="패스 11845" d="m48.2 7.178-4.482 4.334a4.3 4.3 0 0 0-1.283 3.065l4.609-4.609a3.947 3.947 0 0 0 1.156-2.79" style="fill:#6a8e32"/>
                <path data-name="패스 11846" d="m34.241 11.23 7.71 7.562a4.3 4.3 0 0 1 1.283 3.065L35.4 14.02a3.947 3.947 0 0 1-1.156-2.79" style="fill:#6a8e32"/>
                <path data-name="패스 11847" d="m42.769 7.8-1.3-1.3a.437.437 0 0 1 .309-.746h2.606a.437.437 0 0 1 .309.746l-1.3 1.3a.436.436 0 0 1-.618 0" style="fill:#a1d438"/>
                <path data-name="사각형 2705" transform="translate(42.566 5.754)" style="fill:#a1d438" d="M0 0h.978v27.171H0z"/>
                <path data-name="패스 11848" d="m36.943 8.57 5.368 5.221a4.3 4.3 0 0 1 1.283 3.065l-5.5-5.5a3.947 3.947 0 0 1-1.156-2.79" style="fill:#a1d438"/>
                <path data-name="패스 11849" d="m51.555 11.226-7.7 7.553a4.3 4.3 0 0 0-1.283 3.065l7.828-7.828a3.946 3.946 0 0 0 1.155-2.79" style="fill:#a1d438"/>
                <path data-name="패스 11850" d="m31.723 16.456 10.347 10.2a4.3 4.3 0 0 1 1.283 3.065L32.879 19.246a3.945 3.945 0 0 1-1.156-2.79" style="fill:#a1d438"/>
                <path data-name="패스 11851" d="M44.866 3.644c-.008 1.694-.813 2.508-1.816 2.512s-1.812-.816-1.808-2.516A6.881 6.881 0 0 1 43.062 0a6.885 6.885 0 0 1 1.806 3.647" style="fill:#9a3bd1"/>
                <path data-name="패스 11852" d="M42.449 3.588c-.317 1.58.168 2.553.954 2.821s1.577-.269 1.9-1.845a8 8 0 0 0-.748-3.873 6.029 6.029 0 0 0-2.108 2.9" style="fill:#d8a0f2"/>
                <path data-name="패스 11853" d="M43.662 3.593a6.027 6.027 0 0 0-2.106-2.9 7.964 7.964 0 0 0-.745 3.873c.318 1.575 1.109 2.113 1.9 1.845s1.273-1.242.955-2.821" style="fill:#d8a0f2"/>
                <path data-name="패스 11854" d="M63.2 16.694 54.041 25.7a4.3 4.3 0 0 0-1.283 3.065l9.285-9.285a3.946 3.946 0 0 0 1.155-2.79" style="fill:#6a8e32"/>
                <path data-name="패스 11855" d="m58.392 7.178-4.482 4.334a4.3 4.3 0 0 0-1.283 3.065l4.609-4.609a3.947 3.947 0 0 0 1.156-2.79" style="fill:#6a8e32"/>
                <path data-name="패스 11856" d="m44.433 11.23 7.71 7.562a4.3 4.3 0 0 1 1.283 3.065l-7.837-7.837a3.947 3.947 0 0 1-1.156-2.79" style="fill:#6a8e32"/>
                <path data-name="패스 11857" d="m52.961 7.8-1.3-1.3a.437.437 0 0 1 .309-.746h2.606a.437.437 0 0 1 .309.746l-1.3 1.3a.436.436 0 0 1-.618 0" style="fill:#a1d438"/>
                <path data-name="사각형 2706" transform="translate(52.758 5.754)" style="fill:#a1d438" d="M0 0h.978v27.171H0z"/>
                <path data-name="패스 11858" d="m47.135 8.57 5.365 5.221a4.3 4.3 0 0 1 1.283 3.065l-5.5-5.5a3.947 3.947 0 0 1-1.156-2.79" style="fill:#a1d438"/>
                <path data-name="패스 11859" d="m61.747 11.226-7.7 7.553a4.3 4.3 0 0 0-1.283 3.065l7.828-7.828a3.946 3.946 0 0 0 1.155-2.79" style="fill:#a1d438"/>
                <path data-name="패스 11860" d="m41.915 16.456 10.347 10.2a4.3 4.3 0 0 1 1.283 3.065L43.071 19.246a3.945 3.945 0 0 1-1.156-2.79" style="fill:#a1d438"/>
                <path data-name="패스 11861" d="M55.058 3.644c-.008 1.694-.813 2.508-1.816 2.512S51.43 5.34 51.434 3.64A6.881 6.881 0 0 1 53.254 0a6.885 6.885 0 0 1 1.806 3.647" style="fill:#9a3bd1"/>
                <path data-name="패스 11862" d="M52.641 3.588c-.317 1.58.168 2.553.955 2.821s1.577-.269 1.9-1.845a7.974 7.974 0 0 0-.749-3.873 6.027 6.027 0 0 0-2.107 2.9" style="fill:#d8a0f2"/>
                <path data-name="패스 11863" d="M53.854 3.593a6.027 6.027 0 0 0-2.106-2.9A7.964 7.964 0 0 0 51 4.565c.318 1.575 1.109 2.113 1.9 1.845s1.273-1.242.955-2.821" style="fill:#d8a0f2"/>
                <path data-name="패스 11864" d="M72.389 16.694 63.232 25.7a4.3 4.3 0 0 0-1.283 3.065l9.285-9.285a3.946 3.946 0 0 0 1.155-2.79" style="fill:#6a8e32"/>
                <path data-name="패스 11865" d="M67.583 7.178 63.1 11.512a4.3 4.3 0 0 0-1.283 3.065l4.609-4.609a3.947 3.947 0 0 0 1.156-2.79" style="fill:#6a8e32"/>
                <path data-name="패스 11866" d="m53.624 11.23 7.71 7.562a4.3 4.3 0 0 1 1.283 3.065L54.78 14.02a3.947 3.947 0 0 1-1.156-2.79" style="fill:#6a8e32"/>
                <path data-name="패스 11867" d="m62.152 7.8-1.3-1.3a.437.437 0 0 1 .309-.746h2.606a.437.437 0 0 1 .309.746l-1.3 1.3a.436.436 0 0 1-.618 0" style="fill:#a1d438"/>
                <path data-name="사각형 2707" transform="translate(61.949 5.754)" style="fill:#a1d438" d="M0 0h.978v27.171H0z"/>
                <path data-name="패스 11868" d="m56.326 8.57 5.368 5.221a4.3 4.3 0 0 1 1.283 3.065l-5.5-5.5a3.947 3.947 0 0 1-1.156-2.79" style="fill:#a1d438"/>
                <path data-name="패스 11869" d="m70.938 11.226-7.7 7.553a4.3 4.3 0 0 0-1.283 3.065l7.828-7.828a3.946 3.946 0 0 0 1.155-2.79" style="fill:#a1d438"/>
                <path data-name="패스 11870" d="m51.106 16.456 10.347 10.2a4.3 4.3 0 0 1 1.283 3.065L52.262 19.246a3.945 3.945 0 0 1-1.156-2.79" style="fill:#a1d438"/>
                <path data-name="패스 11871" d="M64.249 3.644c-.008 1.694-.813 2.508-1.816 2.512s-1.812-.816-1.808-2.516A6.881 6.881 0 0 1 62.445 0a6.885 6.885 0 0 1 1.806 3.647" style="fill:#9a3bd1"/>
                <path data-name="패스 11872" d="M61.831 3.588c-.317 1.58.168 2.553.955 2.821s1.577-.269 1.9-1.845a7.974 7.974 0 0 0-.749-3.873 6.027 6.027 0 0 0-2.107 2.9" style="fill:#d8a0f2"/>
                <path data-name="패스 11873" d="M63.045 3.593a6.027 6.027 0 0 0-2.106-2.9 7.964 7.964 0 0 0-.745 3.873c.318 1.575 1.109 2.113 1.9 1.845s1.273-1.242.955-2.821" style="fill:#d8a0f2"/>
                <path data-name="패스 11874" d="M0 31.14v11.683a2.73 2.73 0 0 0 2.73 2.73h31.13v-1.538h1.592v1.538h1.539v-1.538h1.593v1.538h1.539v-1.538h1.592v1.538h30.558A2.73 2.73 0 0 0 75 42.823V31.14z" style="fill:#fff"/>
            </g>
        </g>
    </g>
</svg>
