<svg xmlns="http://www.w3.org/2000/svg" width="100" height="100.004" viewBox="0 0 100 100.004">
    <defs>
        <clipPath id="ucnul42b8a">
            <path data-name="사각형 2634" style="fill:none" d="M0 0h63.245v80.004H0z"/>
        </clipPath>
    </defs>
    <g data-name="그룹 2521">
        <path data-name="사각형 2626" style="fill:none" d="M0 0h100v100H0z"/>
        <g data-name="그룹 2391">
            <g data-name="그룹 2390" style="clip-path:url(#ucnul42b8a)" transform="translate(18 20)">
                <path data-name="패스 11178" d="M19.284 78.368A1.849 1.849 0 0 0 21.121 80h20.628a1.85 1.85 0 0 0 1.838-1.64l3.035-14.813H16.248z" style="fill:#aaa"/>
                <path data-name="패스 11179" d="M63.232 18.752c-.05-.114-.231-.156-.483-.141a2.859 2.859 0 0 0-1.163-.821c-.057-.024-.116-.037-.174-.059.013-.072.026-.144.033-.214.514.438 1 .666 1.163.5.2-.195-.145-.87-.769-1.507a4.6 4.6 0 0 0-.556-.487 4.739 4.739 0 0 0 .674-.24c.816-.36 1.386-.859 1.273-1.114-.113-.255-.865-.171-1.681.189a4.822 4.822 0 0 0-.53.273c.014-.15.022-.309.022-.474 0-.891-.226-1.614-.505-1.614-.184 0-.344.318-.432.788-.036-.039-.062-.077-.1-.116a4.6 4.6 0 0 0-.556-.487 4.7 4.7 0 0 0 .674-.24c.816-.36 1.386-.859 1.273-1.114-.113-.255-.864-.171-1.681.189a4.822 4.822 0 0 0-.53.273c.014-.15.022-.309.022-.474 0-.891-.226-1.614-.5-1.614s-.505.723-.505 1.614c0 .165.008.324.022.474a4.822 4.822 0 0 0-.53-.273c-.816-.36-1.568-.444-1.681-.189-.079.179.183.478.625.765a3.145 3.145 0 0 0-.4.087 4.652 4.652 0 0 0-.316-.366 4.594 4.594 0 0 0-.556-.487 4.739 4.739 0 0 0 .674-.24c.816-.36 1.386-.859 1.273-1.114-.113-.255-.865-.171-1.681.189a4.822 4.822 0 0 0-.53.273c.014-.15.022-.309.022-.474 0-.891-.226-1.614-.5-1.614s-.505.723-.505 1.614c0 .165.008.324.022.474a4.821 4.821 0 0 0-.53-.273c-.816-.36-1.568-.444-1.681-.189s.458.754 1.273 1.114a4.727 4.727 0 0 0 .673.24 4.594 4.594 0 0 0-.556.487 4.682 4.682 0 0 0-.316.366c-.1-.03-.2-.052-.29-.07.458-.293.731-.6.65-.782-.113-.255-.865-.171-1.681.189a4.822 4.822 0 0 0-.53.273c.014-.15.022-.309.022-.474 0-.891-.226-1.614-.5-1.614s-.505.723-.505 1.614c0 .165.008.324.022.474a4.822 4.822 0 0 0-.53-.273c-.816-.36-1.568-.444-1.681-.189s.458.754 1.273 1.114a4.727 4.727 0 0 0 .673.24c-.092.069-.172.152-.259.227-.089-.254-.205-.412-.334-.412-.25 0-.455.58-.5 1.34a2.24 2.24 0 0 0-.213.4c-.067.043-.137.076-.2.125-.034-.016-.066-.037-.1-.052-.816-.36-1.568-.444-1.681-.189-.1.23.356.658 1.045 1a2.65 2.65 0 0 0-.471 1.729c-.07.026-.142.043-.211.072-1.609.687-2.115 1.842-.241 3.247a6.666 6.666 0 0 0 .623.4c-.171.306-.233.558-.124.665.133.13.476 0 .871-.278a12.424 12.424 0 0 0 2.556.854c-.1.228-.134.417-.046.5.143.141.53-.013.966-.341.11.014.214.023.319.033a3.143 3.143 0 0 0 1.382.986c-.615.633-.953 1.3-.756 1.492.094.093.3.053.546-.073a7.092 7.092 0 0 1-2.249 3.362l-.085.035a4.822 4.822 0 0 0-.53.273c.014-.15.022-.309.022-.474 0-.891-.226-1.614-.505-1.614s-.505.723-.505 1.614c0 .165.008.324.022.474a4.822 4.822 0 0 0-.53-.273c-.816-.36-1.568-.444-1.681-.189-.079.179.183.478.625.765a3.106 3.106 0 0 0-.393.087c-.1-.122-.2-.244-.317-.367a4.6 4.6 0 0 0-.556-.487 4.739 4.739 0 0 0 .674-.24c.816-.36 1.386-.859 1.273-1.114-.113-.255-.865-.171-1.681.189a4.821 4.821 0 0 0-.53.273c.014-.15.022-.309.022-.474 0-.891-.226-1.614-.505-1.614s-.505.723-.505 1.614c0 .165.008.324.022.474a4.821 4.821 0 0 0-.53-.273c-.816-.36-1.568-.444-1.681-.189s.458.754 1.273 1.114a4.727 4.727 0 0 0 .673.24 4.6 4.6 0 0 0-.556.487 4.84 4.84 0 0 0-.316.366 3.53 3.53 0 0 0-.29-.069c.458-.292.731-.6.65-.782-.113-.255-.865-.171-1.681.189a4.822 4.822 0 0 0-.53.273c.014-.15.022-.309.022-.474 0-.891-.226-1.614-.505-1.614s-.505.723-.505 1.614c0 .165.008.324.022.474a4.822 4.822 0 0 0-.53-.273c-.816-.36-1.568-.444-1.681-.189s.458.754 1.273 1.114a4.727 4.727 0 0 0 .673.24c-.092.069-.172.151-.258.226-.089-.253-.206-.411-.334-.411-.162 0-.3.246-.4.623h-.435a2.977 2.977 0 0 0-.8-1.213 4.6 4.6 0 0 0-.556-.487 4.783 4.783 0 0 0 .674-.24c.816-.36 1.386-.859 1.273-1.114-.112-.255-.865-.171-1.681.189a4.913 4.913 0 0 0-.53.273c.014-.15.022-.309.022-.474 0-.891-.226-1.614-.505-1.614s-.5.723-.5 1.614c0 .165.008.324.022.474a4.821 4.821 0 0 0-.53-.273c-.816-.36-1.568-.444-1.681-.189-.076.172.165.456.578.734a4.753 4.753 0 0 0-.61.222 4.821 4.821 0 0 0-.53.273c.014-.15.022-.309.022-.474 0-.891-.226-1.614-.5-1.614-.256 0-.465.606-.5 1.39a5.024 5.024 0 0 0-.306-.356v-.79c.015-.007.032-.01.048-.017a3.851 3.851 0 0 0 1.016-.627c.05.056.089.122.141.175.624.637 1.291.995 1.491.8.075-.072.052-.223-.009-.4a2.78 2.78 0 0 0 1.273-.844 4.394 4.394 0 0 0 .581-.723 4.394 4.394 0 0 0 .581.723c.624.637 1.291 1 1.491.8s-.145-.87-.769-1.507a4.6 4.6 0 0 0-.556-.487 4.784 4.784 0 0 0 .674-.24c.816-.36 1.386-.859 1.273-1.114-.112-.255-.865-.171-1.681.189a4.913 4.913 0 0 0-.53.273c.014-.15.022-.309.022-.474 0-.891-.226-1.614-.505-1.614-.184 0-.343.318-.432.787-.035-.039-.062-.077-.1-.116a4.6 4.6 0 0 0-.556-.487 4.783 4.783 0 0 0 .674-.24c.816-.36 1.386-.859 1.274-1.114-.113-.255-.865-.171-1.681.189a4.822 4.822 0 0 0-.53.273c.014-.15.022-.309.022-.474v-.01a9.711 9.711 0 0 0 2.85-1.356c1.874-1.405 1.368-2.56-.241-3.247-.057-.024-.115-.037-.172-.059a2.78 2.78 0 0 0-1.151-2.774 3.38 3.38 0 0 0-.67-.387 4.435 4.435 0 0 0 .4-.5 4.447 4.447 0 0 0 .581.723c.624.637 1.291.995 1.491.8s-.145-.87-.768-1.507a4.681 4.681 0 0 0-.557-.487 4.973 4.973 0 0 0 .675-.24c.815-.36 1.385-.859 1.272-1.114-.113-.255-.865-.17-1.681.189a4.822 4.822 0 0 0-.53.273c.014-.15.022-.309.022-.474 0-.891-.226-1.614-.5-1.614s-.505.723-.505 1.614c0 .165.008.324.022.474a4.734 4.734 0 0 0-.53-.273c-.816-.36-1.567-.444-1.681-.189-.077.172.164.456.579.734a4.657 4.657 0 0 0-.611.222 4.748 4.748 0 0 0-.531.273c.014-.15.022-.309.022-.474 0-.891-.226-1.614-.505-1.614-.255 0-.464.607-.5 1.393a4.739 4.739 0 0 0-.935-.926 4.739 4.739 0 0 0 .674-.24 3.877 3.877 0 0 0 1.019-.625c.051.057.09.124.145.179.623.637 1.29.995 1.49.8.075-.073.052-.226-.01-.405a2.764 2.764 0 0 0 1.275-.844 4.447 4.447 0 0 0 .581-.723 4.447 4.447 0 0 0 .581.723c.624.637 1.291.995 1.491.8s-.145-.87-.768-1.507a4.681 4.681 0 0 0-.557-.487 4.8 4.8 0 0 0 .675-.24c.815-.36 1.385-.859 1.272-1.114-.113-.255-.865-.171-1.681.189a4.822 4.822 0 0 0-.53.273c.014-.15.022-.309.022-.474 0-.891-.226-1.614-.5-1.614-.184 0-.343.318-.432.787-.036-.039-.062-.077-.1-.116a4.663 4.663 0 0 0-.555-.487 4.771 4.771 0 0 0 .673-.24c.816-.36 1.386-.859 1.273-1.114-.113-.255-.865-.171-1.681.189a4.822 4.822 0 0 0-.53.273c.014-.15.022-.309.022-.474 0-.891-.226-1.614-.5-1.614s-.5.723-.5 1.614c0 .165.007.324.021.474a4.9 4.9 0 0 0-.529-.273c-.817-.36-1.569-.444-1.682-.189-.079.179.183.478.627.765a3.223 3.223 0 0 0-.4.088 4.651 4.651 0 0 0-.317-.367 4.52 4.52 0 0 0-.556-.487 4.739 4.739 0 0 0 .674-.24c.816-.36 1.386-.859 1.274-1.114-.113-.255-.864-.171-1.681.189a4.822 4.822 0 0 0-.53.273c.014-.15.022-.309.022-.474C31.723.723 31.5 0 31.219 0s-.507.723-.507 1.614c0 .165.008.324.022.474a4.9 4.9 0 0 0-.529-.273c-.816-.36-1.569-.444-1.681-.189s.458.754 1.272 1.114a4.771 4.771 0 0 0 .673.24 4.6 4.6 0 0 0-.556.487 4.66 4.66 0 0 0-.316.367c-.1-.03-.2-.052-.288-.07.46-.293.733-.6.653-.783-.112-.255-.865-.171-1.681.189a4.9 4.9 0 0 0-.529.273c.014-.15.021-.309.021-.474 0-.891-.225-1.614-.505-1.614s-.5.723-.5 1.614c0 .165.008.324.022.474a4.9 4.9 0 0 0-.529-.273c-.816-.36-1.569-.444-1.681-.189s.459.753 1.272 1.114a4.771 4.771 0 0 0 .673.24c-.091.069-.171.152-.259.227-.088-.253-.2-.411-.334-.411-.25 0-.455.579-.5 1.339a1.786 1.786 0 0 0-.283.6c-.078-.04-.152-.086-.233-.121-.816-.36-1.569-.444-1.682-.189s.458.754 1.273 1.114a4.783 4.783 0 0 0 .674.24 4.52 4.52 0 0 0-.556.487c-.625.637-.969 1.311-.77 1.507s.867-.163 1.49-.8a4.507 4.507 0 0 0 .582-.723 4.389 4.389 0 0 0 .58.723 4.052 4.052 0 0 0 .812.65c-.142.278-.183.5-.082.6.016.015.049.005.069.014-.118.042-.24.088-.365.143a5.008 5.008 0 0 0-.53.273c.014-.15.023-.309.023-.474 0-.891-.226-1.614-.506-1.614s-.5.723-.5 1.614c0 .165.007.324.021.474a4.9 4.9 0 0 0-.529-.273c-.816-.36-1.569-.444-1.682-.189s.458.754 1.273 1.114a4.783 4.783 0 0 0 .674.24 4.52 4.52 0 0 0-.556.487c-.625.637-.969 1.311-.77 1.507s.867-.163 1.49-.8a4.507 4.507 0 0 0 .582-.723 4.365 4.365 0 0 0 .556.693 3.3 3.3 0 0 0-.924.48 2.778 2.778 0 0 0-1.17 2.789c-.083.03-.166.05-.247.084-1.608.687-2.114 1.842-.241 3.247a10.033 10.033 0 0 0 3.175 1.449c0 .134.006.267.019.391a4.928 4.928 0 0 0-.531-.273c-.816-.36-1.568-.444-1.681-.189s.459.754 1.274 1.114a4.671 4.671 0 0 0 .672.24c-.091.068-.171.151-.258.226-.09-.252-.2-.41-.333-.41-.25 0-.455.578-.5 1.337a1.784 1.784 0 0 0-.284.6c-.077-.04-.153-.085-.233-.12-.816-.36-1.567-.444-1.681-.189s.458.754 1.274 1.114a4.671 4.671 0 0 0 .672.24 4.672 4.672 0 0 0-.556.487c-.623.637-.968 1.311-.768 1.507s.865-.163 1.489-.8a4.394 4.394 0 0 0 .581-.723 4.507 4.507 0 0 0 .582.723 4.017 4.017 0 0 0 .81.649c-.142.276-.181.5-.08.6.015.016.052.007.074.015a4.41 4.41 0 0 0-.37.145 4.748 4.748 0 0 0-.531.273c.014-.15.022-.309.022-.474 0-.891-.226-1.614-.5-1.614s-.506.723-.506 1.614c0 .165.009.324.023.474a4.836 4.836 0 0 0-.531-.273c-.816-.36-1.567-.444-1.681-.189s.458.754 1.274 1.114a4.8 4.8 0 0 0 .672.24 4.672 4.672 0 0 0-.556.487c-.623.637-.968 1.311-.768 1.507s.865-.163 1.489-.8a4.437 4.437 0 0 0 .581-.723 4.552 4.552 0 0 0 .582.723 3.147 3.147 0 0 0 1.132.8c-.378.488-.558.93-.4 1.082.195.193.847-.156 1.462-.776a3.368 3.368 0 0 0 .958.643V32c-.445.536-.677 1.042-.51 1.207.09.088.281.05.51-.059v.181H21.7c-.1-.087-.19-.18-.3-.258a4.739 4.739 0 0 0 .674-.24c.816-.36 1.386-.859 1.274-1.114-.113-.255-.864-.171-1.68.189a4.748 4.748 0 0 0-.531.273c.014-.15.023-.309.023-.474 0-.891-.227-1.614-.506-1.614s-.5.723-.5 1.614c0 .165.007.324.021.474a4.649 4.649 0 0 0-.53-.273c-.815-.36-1.568-.444-1.681-.189-.07.157.123.407.47.66a2.91 2.91 0 0 0-.512.188 3.2 3.2 0 0 0-.6-1.049c-.091-.4-.237-.659-.4-.659a.284.284 0 0 0-.214.155 1.604 1.604 0 0 0-.193-.1 3.327 3.327 0 0 0 .665-.453c.05.057.089.124.142.178.624.637 1.291 1 1.491.8.075-.073.053-.224-.009-.4a2.766 2.766 0 0 0 1.273-.844 4.507 4.507 0 0 0 .582-.723 4.343 4.343 0 0 0 .581.723c.624.637 1.291.995 1.49.8s-.145-.87-.768-1.507a4.672 4.672 0 0 0-.556-.487 4.829 4.829 0 0 0 .674-.24c.816-.36 1.385-.859 1.272-1.114-.113-.255-.864-.171-1.68.189a4.748 4.748 0 0 0-.531.273c.014-.15.023-.309.023-.474 0-.891-.227-1.614-.506-1.614-.184 0-.344.318-.431.788-.037-.039-.062-.077-.1-.116a4.585 4.585 0 0 0-.555-.487 4.829 4.829 0 0 0 .674-.24c.816-.36 1.385-.859 1.272-1.114-.112-.255-.865-.171-1.681.189a5.008 5.008 0 0 0-.53.273c.014-.15.023-.309.023-.474 0-.891-.227-1.614-.506-1.614s-.5.723-.5 1.614c0 .165.009.324.023.474a4.836 4.836 0 0 0-.531-.273c-.815-.36-1.568-.444-1.681-.189-.078.179.184.478.625.765a3.2 3.2 0 0 0-.394.087c-.1-.122-.2-.245-.316-.367a4.752 4.752 0 0 0-.556-.487 4.783 4.783 0 0 0 .674-.24c.815-.36 1.385-.859 1.272-1.114-.034-.077-.129-.119-.264-.136.667-.991.1-1.805-1.147-2.336-.057-.024-.116-.037-.174-.059a2.779 2.779 0 0 0-1.155-2.806 3.35 3.35 0 0 0-.691-.4c.013-.014.027-.023.041-.037a4.39 4.39 0 0 0 .582-.72 4.333 4.333 0 0 0 .581.723c.623.637 1.29.995 1.49.8s-.145-.87-.769-1.507a4.52 4.52 0 0 0-.556-.487 4.866 4.866 0 0 0 .674-.24c.816-.36 1.386-.859 1.274-1.114-.112-.255-.864-.171-1.681.189a4.807 4.807 0 0 0-.529.273c.014-.15.022-.309.022-.474 0-.891-.227-1.614-.506-1.614s-.505.723-.505 1.614c0 .165.009.324.023.474a4.927 4.927 0 0 0-.531-.273c-.815-.36-1.568-.444-1.681-.189-.076.172.165.456.577.733a4.7 4.7 0 0 0-.613.223 4.808 4.808 0 0 0-.529.273c.014-.15.022-.309.022-.474 0-.891-.227-1.614-.506-1.614-.255 0-.463.6-.5 1.385a4.883 4.883 0 0 0-.372-.432 4.752 4.752 0 0 0-.556-.487 4.829 4.829 0 0 0 .674-.24 3.817 3.817 0 0 0 1.015-.627c.05.056.088.122.14.175.624.637 1.291.995 1.492.8.074-.072.051-.223-.009-.4a2.758 2.758 0 0 0 1.274-.844 4.349 4.349 0 0 0 .582-.723 4.333 4.333 0 0 0 .581.723c.623.637 1.29.995 1.49.8s-.145-.87-.769-1.507a4.52 4.52 0 0 0-.556-.487 4.739 4.739 0 0 0 .674-.24c.816-.36 1.386-.859 1.274-1.114-.112-.255-.864-.171-1.681.189a4.807 4.807 0 0 0-.529.273c.014-.15.022-.309.022-.474 0-.891-.227-1.614-.506-1.614-.184 0-.343.32-.432.792-.036-.041-.064-.08-.1-.12a4.662 4.662 0 0 0-.555-.487 4.853 4.853 0 0 0 .673-.24c.816-.36 1.387-.859 1.273-1.114-.114-.255-.866-.171-1.682.189a4.913 4.913 0 0 0-.53.273c.014-.15.022-.309.022-.474 0-.891-.225-1.614-.5-1.614s-.505.723-.505 1.614c0 .165.007.324.021.474a4.9 4.9 0 0 0-.529-.273c-.817-.36-1.569-.444-1.681-.189-.081.179.182.479.626.766a3.334 3.334 0 0 0-.393.087c-.1-.122-.2-.245-.316-.367a4.752 4.752 0 0 0-.557-.489 4.829 4.829 0 0 0 .674-.24c.815-.36 1.385-.859 1.272-1.114-.113-.255-.864-.171-1.681.189a4.913 4.913 0 0 0-.53.273c.014-.15.022-.309.022-.474 0-.891-.225-1.614-.5-1.614s-.5.723-.5 1.614c0 .165.008.324.022.474a4.913 4.913 0 0 0-.53-.273c-.817-.36-1.568-.444-1.682-.189S6.482 7.7 7.3 8.063a4.807 4.807 0 0 0 .673.24 4.447 4.447 0 0 0-.873.853c-.1-.029-.2-.051-.291-.069.459-.293.733-.6.651-.783-.113-.255-.864-.171-1.681.189a4.72 4.72 0 0 0-.529.273c.014-.15.021-.309.021-.474 0-.891-.226-1.614-.505-1.614s-.5.723-.5 1.614c0 .165.008.324.022.474a4.836 4.836 0 0 0-.531-.273c-.815-.36-1.567-.444-1.681-.189s.458.754 1.274 1.114a4.762 4.762 0 0 0 .673.24c-.093.068-.172.151-.259.226-.088-.253-.2-.411-.334-.411-.249 0-.454.579-.5 1.338a1.77 1.77 0 0 0-.284.6c-.078-.039-.154-.085-.234-.12-.812-.363-1.566-.447-1.68-.191s.458.754 1.274 1.114a4.683 4.683 0 0 0 .673.24 4.447 4.447 0 0 0-.556.487c-.624.637-.969 1.311-.769 1.507s.866-.163 1.489-.8a4.293 4.293 0 0 0 .581-.723 4.39 4.39 0 0 0 .582.723 4.077 4.077 0 0 0 .809.649c-.141.277-.181.5-.08.6.015.016.052.007.074.015a4.696 4.696 0 0 0-.37.145 4.807 4.807 0 0 0-.529.273c.014-.15.021-.309.021-.474 0-.891-.225-1.614-.5-1.614s-.5.723-.5 1.614c0 .165.008.324.022.474a4.836 4.836 0 0 0-.531-.273c-.816-.36-1.567-.444-1.681-.189s.458.754 1.274 1.114a4.807 4.807 0 0 0 .673.24 4.447 4.447 0 0 0-.556.487c-.624.637-.969 1.311-.769 1.507s.866-.163 1.489-.8a4.333 4.333 0 0 0 .581-.723 4.39 4.39 0 0 0 .582.723c.05.052.1.09.153.138a3.106 3.106 0 0 0-1.3.574 2.782 2.782 0 0 0-1.172 2.792c-.082.031-.166.051-.246.085-1.609.687-2.116 1.842-.241 3.247A11.233 11.233 0 0 0 6.9 26.11a3.681 3.681 0 0 0 .986.617 8.562 8.562 0 0 0 .1.912c-.621-.2-1.131-.221-1.222-.015-.113.255.458.754 1.274 1.114.069.03.142.049.212.076.046.147.1.288.154.432-.082.074-.171.139-.25.219-.623.637-.968 1.311-.768 1.507s.829-.149 1.438-.754c.063.124.127.248.2.368a4.629 4.629 0 0 0-.066.791c0 .165.008.324.022.474a4.836 4.836 0 0 0-.531-.273c-.815-.36-1.567-.444-1.681-.189s.458.754 1.274 1.114a4.762 4.762 0 0 0 .673.24 4.529 4.529 0 0 0-.557.487c-.623.637-.968 1.311-.768 1.507.092.091.293.052.538-.07a2.792 2.792 0 0 0 0 .987c-.083.03-.167.051-.249.085-1.61.687-2.116 1.842-.242 3.247a11.235 11.235 0 0 0 5.691 1.864 3.62 3.62 0 0 0 1.077.656 8.855 8.855 0 0 0 8.737 7.507h7.038v8.364H16.249v5.287h30.373v-5.289H32.9v-5.761h4.6a8.856 8.856 0 0 0 8.808-8.114 3.143 3.143 0 0 0 1.489-.787 11.334 11.334 0 0 0 5.294-1.847c1.485-1.113 1.461-2.065.593-2.756a2.989 2.989 0 0 0-.8-1.223c-.055-.056-.119-.1-.176-.155a2.574 2.574 0 0 0-.093-.434c.13-.045.261-.082.387-.138.816-.36 1.386-.859 1.273-1.114-.113-.255-.865-.171-1.681.189a4.689 4.689 0 0 0-.417.215l-.1-.137c.005-.092.013-.182.013-.279 0-.891-.226-1.614-.505-1.614-.222 0-.408.46-.476 1.1a2.93 2.93 0 0 0-.943-.333 4.065 4.065 0 0 0 .834-.673 4.395 4.395 0 0 0 .581-.723 4.395 4.395 0 0 0 .581.723c.624.637 1.291.995 1.491.8s-.145-.87-.769-1.507a4.594 4.594 0 0 0-.556-.487 4.739 4.739 0 0 0 .672-.24c.816-.36 1.386-.859 1.273-1.114-.113-.255-.865-.171-1.681.189a4.822 4.822 0 0 0-.53.273c.014-.15.022-.309.022-.474a3.727 3.727 0 0 0-.179-1.224 8.843 8.843 0 0 0 3.17-5.647c.044.049.077.106.123.153.624.637 1.291 1 1.491.8s-.145-.87-.769-1.507c-.046-.047-.1-.085-.149-.131a3.18 3.18 0 0 0 .753-.515 10.191 10.191 0 0 0 1.546-.244c.36.239.67.348.794.227.079-.077.053-.242-.022-.438a10.946 10.946 0 0 0 2.398-1.018c.586.56 1.181.872 1.368.69s-.079-.7-.555-1.259c.719-.6 1.013-1.155.958-1.639.179-.176.269-.337.219-.45zM49.125 31.431c-.145.048-.294.1-.447.17a4.821 4.821 0 0 0-.53.273c.01-.11.013-.229.016-.348.285-.06.566-.135.84-.222a1.4 1.4 0 0 0 .121.127m-3.025 1.04v-.015l.037.018h-.035m-2.835-.748c0 .049 0 .1.007.151-.095-.056-.195-.1-.293-.151zm-.487 2.748c-.038-.02-.075-.046-.112-.064.075-.058.152-.13.23-.2-.039.089-.084.168-.118.263m-1.15-2.333a4.539 4.539 0 0 0 .706.388 4.727 4.727 0 0 0 .673.24 4.6 4.6 0 0 0-.556.487c-.084.086-.148.17-.221.256a4.232 4.232 0 0 0-.555-.7 4.594 4.594 0 0 0-.556-.487 4.814 4.814 0 0 0 .509-.182m6.892 2.289a3.716 3.716 0 0 0-.153-.355c.1.1.206.195.308.276-.052.022-.1.054-.155.079m-.2-5.144a4.7 4.7 0 0 0 .545.194 6.986 6.986 0 0 1-1.116.337h-.009a1.814 1.814 0 0 0 .577-.529m-2 .146c-.057.031-.116.055-.171.088.008-.082.008-.173.012-.26.031.033.053.074.085.106s.049.042.074.066m-1.149-.174c0 .088 0 .179.012.262-.056-.033-.115-.058-.172-.089.025-.023.049-.041.073-.065s.055-.074.087-.108m-2.137.065a1.952 1.952 0 0 0 .551.492 1.032 1.032 0 0 0-.042.126l-.014.025h-.57a4.518 4.518 0 0 0-.5-.438 4.739 4.739 0 0 0 .575-.2m-5.592-.586a4.437 4.437 0 0 0 .581.723 4.5 4.5 0 0 0 .595.506h-2.349a4.508 4.508 0 0 0 .595-.506 4.394 4.394 0 0 0 .581-.723M27.229 11.383c-.007-.008-.016-.013-.024-.021a4.575 4.575 0 0 0 .684.373 4.784 4.784 0 0 0 .674.24c-.063.046-.115.1-.174.153a2.747 2.747 0 0 0-.695-.185 4.589 4.589 0 0 0-.465-.56m-.547-.491.024.033c-.012-.009-.021-.02-.032-.029h.008m2.735-1.861c.119.066.244.131.381.191a4.794 4.794 0 0 0 .672.24 4.672 4.672 0 0 0-.556.487c-.048.049-.083.1-.126.147a1.682 1.682 0 0 0-.371-1.065m-.893-2.942a2.619 2.619 0 0 0 .283.172c0 .148.007.292.02.427a4.9 4.9 0 0 0-.529-.273c-.027-.012-.052-.021-.079-.031a1.632 1.632 0 0 0 .305-.295m5.918-.309c-.05.116.046.283.239.464-.146.048-.3.1-.45.171a4.822 4.822 0 0 0-.53.273c.012-.13.017-.269.019-.41a3.168 3.168 0 0 0 .722-.5m-3.227-.089a4.244 4.244 0 0 0 .316.393 2.377 2.377 0 0 0-.267.032 2.1 2.1 0 0 0-.361-.037 4.45 4.45 0 0 0 .312-.388m-.6 2.376a4.663 4.663 0 0 0-.555-.487 4.771 4.771 0 0 0 .673-.24l.049-.024a4.717 4.717 0 0 0-.065.78v.094c-.037-.041-.066-.082-.106-.123m1.1.232c0-.068.01-.132.01-.2a4.473 4.473 0 0 0-.074-.827l.149.071a4.671 4.671 0 0 0 .672.24 4.594 4.594 0 0 0-.556.487c-.076.077-.133.154-.2.232m-.5 1.634c.07.109.164.2.243.3a3.67 3.67 0 0 0-.518.04c.09-.115.195-.22.275-.343M33.705 29.5c.046.071.109.129.159.2a1.936 1.936 0 0 0-.343.032c.059-.079.132-.147.184-.229m-.671-6.513c-.045-.051-.083-.1-.131-.151v-.789c.015-.008.032-.011.048-.018.046-.02.088-.042.132-.063a1.235 1.235 0 0 0 .13.048 3.3 3.3 0 0 0-.179.973m-3.065-1.02v.13c-.013-.041-.028-.077-.042-.113l.042-.016M32.9 29.08v-.07c.018 0 .036.015.056.02-.02.015-.036.034-.056.05m.509-8.366c.04.028.084.056.127.084a3.256 3.256 0 0 0-.341.074c.075-.048.143-.1.214-.158m-3.609.142c-.06-.015-.119-.031-.177-.042.02-.012.037-.024.056-.037.04.028.08.053.121.079m4.209 2.883a5.27 5.27 0 0 0 .019-.407 3.167 3.167 0 0 0 .721-.5c-.049.115.047.282.235.462-.144.047-.293.1-.445.169a4.913 4.913 0 0 0-.53.273m.3-1.862a4.788 4.788 0 0 0-.375.434.983.983 0 0 0-.323-.634 1.87 1.87 0 0 0 .579-.527 4.726 4.726 0 0 0 .673.24 4.6 4.6 0 0 0-.556.487M32.9 4.962a3.309 3.309 0 0 0-.181.981c-.069-.079-.127-.157-.2-.236a4.52 4.52 0 0 0-.556-.487 4.739 4.739 0 0 0 .674-.24c.048-.021.093-.044.138-.066a1.1 1.1 0 0 0 .129.048M29.8 4.98a4.771 4.771 0 0 0 .673.24 4.6 4.6 0 0 0-.556.487c-.042.044-.073.087-.113.131a3.121 3.121 0 0 0-.186-.908c.015-.006.028-.009.045-.017.046.022.089.046.137.067m-.893 16.2a1.937 1.937 0 0 0 .549.49.948.948 0 0 0-.043.131 1.529 1.529 0 0 0-.183.471 4.9 4.9 0 0 0-.346-.4 4.6 4.6 0 0 0-.556-.487 4.865 4.865 0 0 0 .579-.206m-.068 1.96a2.575 2.575 0 0 0 .283.173c0 .146.007.288.021.422a4.836 4.836 0 0 0-.531-.273l-.074-.03a1.687 1.687 0 0 0 .3-.292m1.131 3.361a.8.8 0 0 0-.246-.416c.079.043.16.085.246.126zm-.35 3c.069.107.162.2.24.3a3.079 3.079 0 0 0-.411-.085c.055-.074.122-.136.171-.213m5.507-.711a3.59 3.59 0 0 0 1.089-.7 4.623 4.623 0 0 0 .483.172 4.594 4.594 0 0 0-.556.487 3.093 3.093 0 0 0-.783 1.173 4.831 4.831 0 0 0-.351-.406 4.594 4.594 0 0 0-.556-.487 4.82 4.82 0 0 0 .674-.24m1.016-4.117a3.212 3.212 0 0 0-.768 1.129 4.318 4.318 0 0 0-.544-.684 4.52 4.52 0 0 0-.556-.487 4.783 4.783 0 0 0 .674-.24 4.118 4.118 0 0 0 .9-.53c.059.028.116.058.177.085a4.727 4.727 0 0 0 .673.24 4.594 4.594 0 0 0-.556.487m.05-2.089a4.146 4.146 0 0 0 .767.62v.09a4.821 4.821 0 0 0-.53-.273 2.42 2.42 0 0 0-1.574-.283c.058-.054.114-.1.171-.154a4.343 4.343 0 0 0 .581-.723 4.394 4.394 0 0 0 .581.723M35.13 20.5c-.1-.059-.2-.106-.3-.157.1-.02.195-.037.294-.06.005.073.005.148.01.217m-.315-8.763a3.571 3.571 0 0 0 1.089-.7 4.981 4.981 0 0 0 .484.173 4.594 4.594 0 0 0-.556.487c-.078.08-.137.159-.206.239a2.745 2.745 0 0 0-1.21.281l-.033-.028a2.881 2.881 0 0 0-.111-.259 4.733 4.733 0 0 0 .543-.193m1.017-4.117a3.207 3.207 0 0 0-.769 1.133 4.262 4.262 0 0 0-.544-.684 4.6 4.6 0 0 0-.556-.487 4.7 4.7 0 0 0 .674-.24 4.213 4.213 0 0 0 .9-.533c.057.029.113.057.173.084a4.727 4.727 0 0 0 .673.24 4.594 4.594 0 0 0-.556.487M35.3 4.806a4.447 4.447 0 0 0 .581.723 4.213 4.213 0 0 0 .767.62v.09a4.734 4.734 0 0 0-.53-.273 2.421 2.421 0 0 0-1.574-.283c.057-.053.114-.1.171-.154a4.447 4.447 0 0 0 .581-.723m-1.426-.714h.007a4.739 4.739 0 0 0 .674.24 4.447 4.447 0 0 0-.551.49 4.537 4.537 0 0 0-.377.436.963.963 0 0 0-.327-.633 1.811 1.811 0 0 0 .58-.531m-2 .148c-.057.031-.116.055-.17.088.007-.082.008-.171.012-.257.03.032.052.071.083.1s.049.043.075.066m-1.149-.175c0 .088 0 .179.012.263-.056-.033-.116-.058-.171-.089.024-.024.048-.041.072-.065s.056-.075.087-.109m-2.137.067a2 2 0 0 0 .551.491 1.338 1.338 0 0 0-.041.135 1.5 1.5 0 0 0-.179.463 4.709 4.709 0 0 0-.346-.4 4.52 4.52 0 0 0-.556-.487 4.963 4.963 0 0 0 .571-.2m-2.179 2.106c.014-.15.023-.309.023-.474v-.008c.083-.076.168-.142.253-.228a4.337 4.337 0 0 0 .58-.723 4.395 4.395 0 0 0 .581.723c.045.046.09.079.135.122a4.048 4.048 0 0 0-1.042.315 5.008 5.008 0 0 0-.53.273m.818 1.379a4.585 4.585 0 0 0-.555-.487 4.636 4.636 0 0 0 .507-.181 4.509 4.509 0 0 0 .708.39 4.783 4.783 0 0 0 .674.24 4.52 4.52 0 0 0-.556.487c-.084.085-.149.17-.221.255a4.249 4.249 0 0 0-.557-.7m1.5 1.156c.04-.04.068-.091.106-.132a3.509 3.509 0 0 0 .573.384.188.188 0 0 0-.1-.031c-.279 0-.5.723-.5 1.614 0 .165.007.324.021.474a4.9 4.9 0 0 0-.529-.273 4.572 4.572 0 0 0-.741-.255c.7-.348 1.166-.781 1.064-1.013-.063-.145-.34-.177-.712-.114a4.074 4.074 0 0 0 .817-.654m-.449 11.613c-.072.038-.146.069-.215.111 0-.049 0-.1.006-.153.07.014.14.03.209.042m-1.556 2.907c.014-.15.022-.309.022-.474v-.009c.084-.075.169-.141.253-.227a4.389 4.389 0 0 0 .58-.723 4.4 4.4 0 0 0 .582.723c.044.046.089.079.136.122a4.048 4.048 0 0 0-1.042.315 4.748 4.748 0 0 0-.531.273m.819 1.379a4.681 4.681 0 0 0-.557-.487A4.865 4.865 0 0 0 27.5 24a4.471 4.471 0 0 0 .7.387 4.671 4.671 0 0 0 .672.24 4.672 4.672 0 0 0-.556.487c-.084.086-.149.171-.222.257a4.318 4.318 0 0 0-.554-.7m1.5 1.152c.04-.04.067-.09.1-.131a3.6 3.6 0 0 0 .58.389.179.179 0 0 0-.1-.033c-.28 0-.506.723-.506 1.614 0 .165.009.324.023.474a4.836 4.836 0 0 0-.531-.273 4.5 4.5 0 0 0-.74-.255c.7-.348 1.167-.782 1.063-1.014-.066-.146-.343-.177-.719-.113a4.049 4.049 0 0 0 .823-.658m-2.045 2.122.022.03c-.011-.008-.019-.019-.031-.027h.009m.548.49-.02-.017a4.522 4.522 0 0 0 .68.37 4.8 4.8 0 0 0 .672.24 4.672 4.672 0 0 0-.556.487l-.018.022a3.32 3.32 0 0 0-.758-1.1M4.728 16.7l-.017-.014a4.568 4.568 0 0 0 .676.367 4.671 4.671 0 0 0 .672.24 4.832 4.832 0 0 0-.445.39c-.064-.025-.128-.04-.191-.06a3.956 3.956 0 0 0-.695-.923m-.548-.489.01.014-.015-.013m1.841-4.8a2.817 2.817 0 0 0 .284.173c0 .145.008.288.02.422a4.836 4.836 0 0 0-.531-.273c-.024-.011-.05-.019-.074-.03a1.687 1.687 0 0 0 .3-.292m5.921-.315c-.051.116.045.285.236.466-.144.048-.292.1-.444.169a4.913 4.913 0 0 0-.53.273c.013-.129.017-.268.02-.409a3.245 3.245 0 0 0 .721-.5m6.024 16.531c-.049.115.047.282.236.462-.145.047-.292.1-.445.169a4.734 4.734 0 0 0-.53.273c.011-.129.016-.267.018-.407a3.145 3.145 0 0 0 .721-.5m-5.82 3.761c-.047-.107-.21-.151-.439-.144-.032-.03-.06-.064-.09-.1a4.328 4.328 0 0 0 .633-.532c.041-.041.069-.092.109-.134a3.951 3.951 0 0 0 .946.572c-.057.039-.106.094-.16.137-.087-.217-.194-.351-.312-.351-.209 0-.387.4-.464.979-.087-.068-.175-.136-.259-.208a.253.253 0 0 0 .035-.224M9.958 27.6c.084-.075.168-.141.252-.227a4.4 4.4 0 0 0 .582-.723 4.293 4.293 0 0 0 .581.723c.044.046.088.078.134.121a4.082 4.082 0 0 0-1.041.315 4.807 4.807 0 0 0-.529.273c.014-.15.021-.309.021-.474V27.6m4.293-1.692c0 .088 0 .18.013.263-.056-.033-.117-.058-.173-.089.025-.024.048-.04.072-.065s.057-.075.088-.109m-2.721 4c-.084.085-.148.17-.221.256a4.318 4.318 0 0 0-.554-.7 4.672 4.672 0 0 0-.556-.487 4.809 4.809 0 0 0 .509-.181 4.767 4.767 0 0 0 1.378.627 4.672 4.672 0 0 0-.556.487m.519-1.974a2.455 2.455 0 0 0 .283.173c0 .146.007.288.02.422a4.836 4.836 0 0 0-.531-.273c-.024-.011-.05-.019-.075-.03a1.673 1.673 0 0 0 .3-.292m2.2 2.1c-.039-.043-.069-.085-.111-.128a4.447 4.447 0 0 0-.556-.487 4.739 4.739 0 0 0 .674-.24c.018-.008.035-.018.054-.026a4.534 4.534 0 0 0-.065.782v.1m.544-2.079a2.022 2.022 0 0 0-.356-.036 4.4 4.4 0 0 0 .31-.386 4.32 4.32 0 0 0 .314.39 2.157 2.157 0 0 0-.268.032m-1.464-1.133a4.683 4.683 0 0 0 .673.24 4.448 4.448 0 0 0-.556.487c-.046.045-.076.09-.118.136a3.111 3.111 0 0 0-.186-.911c.017-.008.03-.01.049-.019.046.022.09.045.138.067m-.7-.231a1.509 1.509 0 0 0-.185.472 5.219 5.219 0 0 0-.343-.4 4.6 4.6 0 0 0-.557-.487 4.867 4.867 0 0 0 .576-.2 1.915 1.915 0 0 0 .552.491.953.953 0 0 0-.043.127m2.62 3.543c0-.066.008-.129.008-.2a4.649 4.649 0 0 0-.072-.825c.048.023.093.047.143.069a4.771 4.771 0 0 0 .673.24 4.672 4.672 0 0 0-.556.487c-.075.076-.131.152-.2.228m1.184-3.332a3.332 3.332 0 0 0-.179.978c-.067-.077-.124-.154-.2-.231a4.752 4.752 0 0 0-.556-.487 4.783 4.783 0 0 0 .674-.24c.048-.021.091-.044.138-.067a.956.956 0 0 0 .123.047m-1.2-.632c.008-.082.008-.172.013-.259.029.033.051.073.084.1s.049.042.073.066c-.056.031-.114.055-.17.088M8.716 11.014a4.475 4.475 0 0 0 .313.389 2.15 2.15 0 0 0-.266.032 2.021 2.021 0 0 0-.355-.036 4.363 4.363 0 0 0 .308-.385m.5 2.6c0-.067.008-.13.008-.2a4.507 4.507 0 0 0-.074-.83l.149.071a4.683 4.683 0 0 0 .673.24 4.447 4.447 0 0 0-.556.487c-.076.078-.134.154-.2.232m-1.106-.232a4.6 4.6 0 0 0-.557-.487 4.752 4.752 0 0 0 .675-.24l.052-.025a4.55 4.55 0 0 0-.065.784v.094c-.038-.042-.068-.084-.108-.126m2.293-3.1a3.318 3.318 0 0 0-.18.98c-.068-.078-.125-.156-.2-.234a4.752 4.752 0 0 0-.556-.487 4.829 4.829 0 0 0 .674-.24l.138-.066a.989.989 0 0 0 .126.047M7.3 10.3a4.683 4.683 0 0 0 .673.24 4.447 4.447 0 0 0-.556.487c-.045.045-.075.089-.116.135a3.141 3.141 0 0 0-.187-.911c.016-.007.03-.01.048-.017l.138.066m1.855 5.5a1.691 1.691 0 0 0-.282.017h-.037a.93.93 0 0 0-.562.044h-.049a4.424 4.424 0 0 0 .491-.611 4.565 4.565 0 0 0 .437.544m10.2 13.666a3.2 3.2 0 0 0-.768 1.13 4.387 4.387 0 0 0-.545-.684 4.448 4.448 0 0 0-.556-.487 4.739 4.739 0 0 0 .674-.24 4.168 4.168 0 0 0 .9-.53c.058.028.116.057.176.084a4.739 4.739 0 0 0 .674.24 4.52 4.52 0 0 0-.556.487m-.531-2.811a4.389 4.389 0 0 0 .58.723 4.183 4.183 0 0 0 .768.62v.089a4.649 4.649 0 0 0-.53-.273 2.418 2.418 0 0 0-1.572-.283c.057-.054.113-.1.169-.153a4.4 4.4 0 0 0 .582-.723m-1.42-.711a4.771 4.771 0 0 0 .673.24 4.672 4.672 0 0 0-.556.487 4.951 4.951 0 0 0-.375.434.986.986 0 0 0-.322-.634 1.837 1.837 0 0 0 .577-.529m-5.1-8.885a3.559 3.559 0 0 0 1.09-.7 5.017 5.017 0 0 0 .486.173 4.672 4.672 0 0 0-.556.487 4.845 4.845 0 0 0-.43.505 2.673 2.673 0 0 0-.84.147 4.408 4.408 0 0 0-.424-.372 4.7 4.7 0 0 0 .674-.24m1.02-4.118a3.219 3.219 0 0 0-.768 1.132 4.307 4.307 0 0 0-.546-.687 4.52 4.52 0 0 0-.556-.487 4.7 4.7 0 0 0 .674-.24 4.2 4.2 0 0 0 .9-.53c.058.028.116.058.178.085a4.714 4.714 0 0 0 .672.24 4.672 4.672 0 0 0-.556.487m-.535-2.811a4.491 4.491 0 0 0 .581.723 4.106 4.106 0 0 0 .771.623c0 .028 0 .058.005.086a4.927 4.927 0 0 0-.531-.273A2.4 2.4 0 0 0 12.026 11c.056-.054.114-.1.172-.155a4.484 4.484 0 0 0 .58-.723m-1.419-.711a4.866 4.866 0 0 0 .674.24 4.52 4.52 0 0 0-.556.487 4.659 4.659 0 0 0-.37.428.979.979 0 0 0-.324-.628 1.841 1.841 0 0 0 .576-.527zm-2 .145c-.056.031-.114.055-.17.088.007-.082.008-.172.013-.259.03.033.051.073.084.1s.049.042.073.066m-1.136-.164c.005.089.005.181.013.264-.056-.033-.117-.058-.173-.089.025-.024.048-.04.072-.065s.057-.075.088-.11m-2.138.066a1.923 1.923 0 0 0 .553.493.866.866 0 0 0-.043.127 1.5 1.5 0 0 0-.184.47 5.033 5.033 0 0 0-.343-.4 4.672 4.672 0 0 0-.556-.487 4.886 4.886 0 0 0 .573-.2M3.91 11.561c.014-.15.021-.309.021-.474v-.008c.084-.075.168-.141.252-.227a4.333 4.333 0 0 0 .581-.723 4.39 4.39 0 0 0 .582.723c.044.046.09.078.134.121a4.042 4.042 0 0 0-1.041.315 4.807 4.807 0 0 0-.529.273m.818 1.379a4.672 4.672 0 0 0-.556-.487 4.809 4.809 0 0 0 .509-.181 4.8 4.8 0 0 0 1.378.627 4.6 4.6 0 0 0-.556.487c-.084.085-.148.17-.22.256a4.328 4.328 0 0 0-.555-.7m1.5 1.153c.04-.04.068-.09.107-.132a3.975 3.975 0 0 0 .967.583 4.807 4.807 0 0 0 .673.24 4.447 4.447 0 0 0-.556.487c-.049.05-.084.1-.13.151-.068-.64-.255-1.1-.478-1.1-.279 0-.505.723-.505 1.614 0 .165.009.324.023.474a4.836 4.836 0 0 0-.531-.273 4.546 4.546 0 0 0-.738-.255c.7-.348 1.169-.783 1.067-1.015-.064-.146-.342-.178-.718-.113a4.073 4.073 0 0 0 .822-.658m16.7 33.153a7.1 7.1 0 0 1-6.964-5.785 3.677 3.677 0 0 0 .987-.614 11.321 11.321 0 0 0 5.539-1.868c1.874-1.4 1.368-2.56-.241-3.247-.057-.024-.116-.037-.172-.059a3.073 3.073 0 0 0 .041-.6h.316a.386.386 0 0 0 .173 0h7.358v12.173zm14.565 2.6H32.9V33.029c.319.194.586.274.7.164.191-.187-.125-.815-.7-1.427v-.043h5.391a4.783 4.783 0 0 0 1.333.6 4.683 4.683 0 0 0-.556.487c-.624.637-.968 1.311-.769 1.507s.866-.163 1.49-.8a4.447 4.447 0 0 0 .581-.723 4.447 4.447 0 0 0 .581.723 4.142 4.142 0 0 0 .776.626 2.619 2.619 0 0 0-.88.05c-.069-.63-.254-1.085-.475-1.085-.269 0-.487.674-.5 1.52-.063.041-.13.073-.192.119-.089.066-.162.143-.243.215-.026-.012-.05-.028-.076-.039-.816-.36-1.568-.444-1.681-.189-.1.237.383.683 1.107 1.034a2.652 2.652 0 0 0-.311 1.57 2.05 2.05 0 0 0-.134.255c-.026.01-.053.016-.079.027-1.609.687-2.115 1.842-.241 3.247a11.362 11.362 0 0 0 5.478 1.861 3.108 3.108 0 0 0 1.055.643 7.1 7.1 0 0 1-7.055 6.483m12.779-17.047a3.222 3.222 0 0 0-.769 1.131 4.169 4.169 0 0 0-.544-.685 4.6 4.6 0 0 0-.556-.487 4.739 4.739 0 0 0 .674-.24 4.185 4.185 0 0 0 .9-.531c.058.029.115.058.176.085a4.727 4.727 0 0 0 .673.24 4.683 4.683 0 0 0-.556.487m.291-1.652a4.843 4.843 0 0 0-.612-.223c.133-.06.265-.124.4-.191a4.046 4.046 0 0 0 .743.6v.088a4.822 4.822 0 0 0-.53-.273M58.7 13.7a4.349 4.349 0 0 0 .582.723.284.284 0 0 0 .025.023 2.63 2.63 0 0 0-1.109-.121 4.434 4.434 0 0 0 .5-.625m-1.419-.711a4.727 4.727 0 0 0 .673.24 4.6 4.6 0 0 0-.556.487 4.779 4.779 0 0 0-.349.4l-.061-.108a.815.815 0 0 0-.289-.5 1.82 1.82 0 0 0 .578-.529m-5.293.035a1.521 1.521 0 0 0 .339.341 2.785 2.785 0 0 0-.334.379l-.024-.028a4.6 4.6 0 0 0-.556-.487 4.74 4.74 0 0 0 .575-.2m-.741 1.4c.045.045.089.078.135.121l-.032.005a2.737 2.737 0 0 0-1.158-.26 4.461 4.461 0 0 0 .474-.589 4.395 4.395 0 0 0 .581.723" style="fill:#aaa"/>
            </g>
        </g>
    </g>
</svg>
