<svg xmlns="http://www.w3.org/2000/svg" xmlns:xlink="http://www.w3.org/1999/xlink" width="100" height="100" viewBox="0 0 100 100">
  <defs>
    <style>
      .cls-1 {
        fill: none;
      }

      .cls-2 {
        clip-path: url(#clip-path);
      }

      .cls-3 {
        fill: #418c48;
      }

      .cls-4 {
        fill: #409b54;
      }

      .cls-5 {
        fill: #fff;
      }

      .cls-6 {
        fill: #ffa7ff;
      }

      .cls-7 {
        fill: #91d09f;
      }

      .cls-8 {
        fill: #56b36b;
      }

      .cls-9 {
        fill: #1f5a2c;
      }

      .cls-10 {
        fill: #a3d0ff;
      }
    </style>
    <clipPath id="clip-path">
      <rect id="사각형_2829" data-name="사각형 2829" class="cls-1" width="63.245" height="88.772"/>
    </clipPath>
  </defs>
  <g id="그룹_2483" data-name="그룹 2483" transform="translate(-964 -1189)">
    <rect id="사각형_2632" data-name="사각형 2632" class="cls-1" width="100" height="100" transform="translate(964 1189)"/>
    <g id="그룹_2479" data-name="그룹 2479" transform="translate(982 1200)">
      <g id="그룹_2478" data-name="그룹 2478" class="cls-2">
        <path id="패스_14189" data-name="패스 14189" class="cls-3" d="M29.016,52.883c-1.924-1.338-3.882-4.58-3.781-5.959s2.388-1.694,4.307-.354a5.559,5.559,0,0,1,2.479,5.065c-.146,1.743-1.084,2.587-3.007,1.25"/>
        <path id="패스_14190" data-name="패스 14190" class="cls-3" d="M30.232,54.268c-2.288.509-6-.249-6.944-1.257s.372-2.905,2.657-3.408a5.562,5.562,0,0,1,5.405,1.609c1.183,1.289,1.169,2.55-1.118,3.058"/>
        <path id="패스_14191" data-name="패스 14191" class="cls-3" d="M19.236,56.792c-2.2.8-5.98.535-7.049-.341s-.009-2.928,2.191-3.725a5.562,5.562,0,0,1,5.569.891c1.34,1.123,1.49,2.375-.711,3.177"/>
        <path id="패스_14192" data-name="패스 14192" class="cls-3" d="M21.393,57.932c-.884,2.171-3.618,4.791-4.985,4.995s-2.177-1.958-1.29-4.124a5.559,5.559,0,0,1,4.4-3.529c1.733-.24,2.761.49,1.878,2.659"/>
        <path id="패스_14193" data-name="패스 14193" class="cls-3" d="M42.44,56.714c-1.729-1.58-1.114-2.68.554-3.208a5.56,5.56,0,0,1,5.488,1.3c1.731,1.575,1.928,3.876.606,4.278s-4.917-.789-6.647-2.37"/>
        <path id="패스_14194" data-name="패스 14194" class="cls-3" d="M40.01,56.946c.01-2.342,1.239-2.625,2.75-1.743a5.559,5.559,0,0,1,2.722,4.939c0,2.34-1.578,4.031-2.764,3.321S40,59.289,40.012,56.946"/>
        <path id="패스_14195" data-name="패스 14195" class="cls-3" d="M59.987,36.928c-1.875,1.406-5.568,2.245-6.845,1.716s-.858-2.8,1.017-4.2a5.561,5.561,0,0,1,5.588-.761c1.609.687,2.115,1.842.241,3.247"/>
        <path id="패스_14196" data-name="패스 14196" class="cls-3" d="M58.874,41.4c-2.34-.136-5.7-1.878-6.336-3.106s1.151-2.693,3.487-2.552a5.562,5.562,0,0,1,4.76,3.024c.785,1.563.427,2.772-1.912,2.636"/>
        <path id="패스_14197" data-name="패스 14197" class="cls-3" d="M2.127,42.043c-1.874-1.4-1.368-2.56.241-3.247a5.561,5.561,0,0,1,5.588.761c1.875,1.4,2.294,3.671,1.017,4.2S4,43.447,2.128,42.041"/>
        <path id="패스_14198" data-name="패스 14198" class="cls-3" d="M3.243,46.516C.9,46.652.546,45.443,1.332,43.88a5.563,5.563,0,0,1,4.76-3.025c2.336-.14,4.121,1.325,3.487,2.553s-4,2.97-6.337,3.106"/>
        <rect id="사각형_2826" data-name="사각형 2826" class="cls-3" width="2.933" height="40.162" transform="translate(29.969 28.624)"/>
        <path id="패스_14199" data-name="패스 14199" class="cls-3" d="M46.324,40.491H31.437v-1.76H46.324a7.1,7.1,0,0,0,7.09-7.09h1.76a8.862,8.862,0,0,1-8.85,8.85"/>
        <path id="패스_14200" data-name="패스 14200" class="cls-3" d="M31.587,43.843H16.706a8.86,8.86,0,0,1-8.849-8.85h1.76a7.1,7.1,0,0,0,7.089,7.09H31.587Z"/>
        <path id="패스_14201" data-name="패스 14201" class="cls-3" d="M57.547,25.238c-.024,2.693-1.825,5.625-3.193,5.634s-3.144-2.995-3.121-5.687,1.447-3.828,3.19-3.813,3.146,1.174,3.125,3.866"/>
        <path id="패스_14202" data-name="패스 14202" class="cls-4" d="M53.11,24.846c1.564,2.1,1.89,5.434.834,6.244s-4.2-.474-5.761-2.575-1.127-3.817.233-4.83,3.129-.94,4.694,1.161"/>
        <path id="패스_14203" data-name="패스 14203" class="cls-4" d="M60.459,28.545c-1.578,2.091-4.685,3.34-5.759,2.553s-.722-4.161.856-6.253,3.347-2.154,4.7-1.132,1.78,2.74.2,4.832"/>
        <path id="패스_14204" data-name="패스 14204" class="cls-3" d="M61.826,29.8c-1.875,1.406-5.568,2.245-6.845,1.716s-.858-2.8,1.017-4.2a5.563,5.563,0,0,1,5.588-.761c1.609.687,2.115,1.842.241,3.247"/>
        <path id="패스_14205" data-name="패스 14205" class="cls-3" d="M46.759,29.492c1.875,1.406,5.568,2.245,6.845,1.716s.858-2.8-1.017-4.2A5.561,5.561,0,0,0,47,26.247c-1.609.687-2.115,1.842-.241,3.247"/>
        <path id="패스_14206" data-name="패스 14206" class="cls-3" d="M57.528,29.38a3.157,3.157,0,0,1-6.314-.053c.013-1.518,1.432-2.152,3.175-2.137s3.152.673,3.139,2.191"/>
        <path id="패스_14207" data-name="패스 14207" class="cls-3" d="M11.99,28.45c-.024,2.693-1.826,5.625-3.194,5.634S5.654,31.089,5.676,28.4s1.446-3.828,3.189-3.813,3.147,1.174,3.125,3.866"/>
        <path id="패스_14208" data-name="패스 14208" class="cls-4" d="M7.554,28.057c1.564,2.1,1.89,5.434.834,6.244s-4.2-.479-5.76-2.579-1.128-3.817.232-4.83,3.13-.94,4.694,1.161"/>
        <path id="패스_14209" data-name="패스 14209" class="cls-4" d="M14.9,31.757c-1.578,2.091-4.686,3.34-5.759,2.553s-.722-4.161.856-6.253,3.346-2.154,4.7-1.132,1.779,2.74.2,4.832"/>
        <path id="패스_14210" data-name="패스 14210" class="cls-3" d="M16.27,33.014C14.4,34.42,10.7,35.259,9.425,34.73s-.858-2.8,1.017-4.2a5.559,5.559,0,0,1,5.587-.761c1.61.687,2.116,1.842.242,3.247"/>
        <path id="패스_14211" data-name="패스 14211" class="cls-3" d="M1.2,33.014c1.875,1.406,5.568,2.245,6.845,1.716s.858-2.8-1.017-4.2a5.561,5.561,0,0,0-5.588-.761c-1.609.687-2.115,1.842-.241,3.247"/>
        <path id="패스_14212" data-name="패스 14212" class="cls-3" d="M11.969,32.6A3.673,3.673,0,0,1,8.8,35.759a3.672,3.672,0,0,1-3.141-3.217c.013-1.518,1.432-2.152,3.175-2.137s3.152.673,3.139,2.191"/>
        <path id="패스_14213" data-name="패스 14213" class="cls-3" d="M34.689,22.862c-.023,2.693-1.825,5.625-3.193,5.634s-3.143-3-3.12-5.687S29.822,18.981,31.565,19s3.147,1.174,3.125,3.866"/>
        <path id="패스_14214" data-name="패스 14214" class="cls-4" d="M30.253,22.469c1.564,2.1,1.89,5.434.834,6.244s-4.2-.474-5.761-2.575-1.128-3.817.233-4.83,3.129-.94,4.694,1.161"/>
        <path id="패스_14215" data-name="패스 14215" class="cls-4" d="M37.6,26.169c-1.578,2.091-4.685,3.34-5.759,2.553s-.722-4.161.856-6.253,3.347-2.154,4.7-1.132,1.78,2.74.2,4.832"/>
        <path id="패스_14216" data-name="패스 14216" class="cls-3" d="M38.968,27.426c-1.875,1.406-5.568,2.245-6.845,1.716s-.858-2.8,1.017-4.2a5.561,5.561,0,0,1,5.588-.761c1.609.687,2.115,1.842.241,3.247"/>
        <path id="패스_14217" data-name="패스 14217" class="cls-3" d="M23.9,27.426c1.875,1.406,5.567,2.245,6.844,1.716s.858-2.8-1.017-4.2a5.561,5.561,0,0,0-5.588-.761c-1.609.687-2.114,1.842-.241,3.247"/>
        <path id="패스_14218" data-name="패스 14218" class="cls-3" d="M34.668,27a3.157,3.157,0,1,1-6.314-.053c.013-1.518,1.432-2.152,3.175-2.137s3.152.673,3.139,2.191"/>
        <path id="패스_14219" data-name="패스 14219" class="cls-3" d="M48.812,45.066c-.024,2.693-1.826,5.625-3.194,5.634s-3.143-2.995-3.12-5.687,1.446-3.828,3.19-3.813,3.146,1.174,3.125,3.866"/>
        <path id="패스_14220" data-name="패스 14220" class="cls-4" d="M44.375,44.673c1.565,2.1,1.891,5.434.835,6.244s-4.2-.474-5.761-2.575-1.128-3.817.232-4.83,3.13-.94,4.694,1.161"/>
        <path id="패스_14221" data-name="패스 14221" class="cls-4" d="M51.724,48.373c-1.578,2.091-4.685,3.34-5.76,2.553s-.722-4.161.856-6.253,3.347-2.154,4.7-1.132,1.78,2.74.2,4.832"/>
        <path id="패스_14222" data-name="패스 14222" class="cls-3" d="M53.091,49.63c-1.875,1.406-5.568,2.245-6.845,1.716s-.858-2.8,1.017-4.2a5.561,5.561,0,0,1,5.588-.761c1.609.687,2.115,1.842.241,3.247"/>
        <path id="패스_14223" data-name="패스 14223" class="cls-3" d="M38.025,49.63c1.875,1.406,5.567,2.245,6.844,1.716s.859-2.8-1.016-4.2a5.563,5.563,0,0,0-5.589-.761c-1.609.687-2.114,1.842-.241,3.247"/>
        <path id="패스_14224" data-name="패스 14224" class="cls-3" d="M48.791,49.212a3.157,3.157,0,1,1-6.314-.053c.013-1.518,1.432-2.152,3.175-2.137s3.152.673,3.139,2.191"/>
        <path id="패스_14225" data-name="패스 14225" class="cls-3" d="M18.213,43.188c-.023,2.693-1.825,5.625-3.193,5.634s-3.143-2.995-3.12-5.687,1.446-3.828,3.189-3.813,3.147,1.174,3.125,3.866"/>
        <path id="패스_14226" data-name="패스 14226" class="cls-4" d="M13.779,42.795c1.565,2.1,1.891,5.434.835,6.244s-4.2-.474-5.761-2.575-1.128-3.817.232-4.83,3.13-.94,4.694,1.161"/>
        <path id="패스_14227" data-name="패스 14227" class="cls-4" d="M21.128,46.495c-1.579,2.091-4.686,3.34-5.759,2.553s-.722-4.161.856-6.253,3.346-2.154,4.7-1.132,1.781,2.74.2,4.832"/>
        <path id="패스_14228" data-name="패스 14228" class="cls-3" d="M22.493,47.752c-1.875,1.406-5.568,2.245-6.845,1.716s-.858-2.8,1.017-4.2a5.561,5.561,0,0,1,5.588-.761c1.609.687,2.115,1.842.241,3.247"/>
        <path id="패스_14229" data-name="패스 14229" class="cls-3" d="M7.426,47.752C9.3,49.158,12.994,50,14.271,49.468s.858-2.8-1.017-4.2a5.561,5.561,0,0,0-5.588-.761c-1.609.687-2.115,1.842-.241,3.247"/>
        <path id="패스_14230" data-name="패스 14230" class="cls-3" d="M18.194,47.336A3.674,3.674,0,0,1,15.021,50.5a3.671,3.671,0,0,1-3.141-3.217c.012-1.518,1.432-2.152,3.175-2.137s3.151.673,3.139,2.191"/>
        <path id="패스_14231" data-name="패스 14231" class="cls-5" d="M57.317,21.531c-.113-.255-.865-.171-1.681.189a4.822,4.822,0,0,0-.53.273c.014-.15.022-.309.022-.474,0-.891-.226-1.614-.5-1.614s-.505.723-.505,1.614c0,.165.008.324.022.474a4.822,4.822,0,0,0-.53-.273c-.816-.36-1.568-.444-1.681-.189s.458.754,1.273,1.114a4.727,4.727,0,0,0,.673.24,4.594,4.594,0,0,0-.556.487c-.624.637-.968,1.311-.769,1.507s.866-.163,1.49-.8a4.395,4.395,0,0,0,.581-.723,4.448,4.448,0,0,0,.581.723c.624.637,1.291.995,1.491.8s-.145-.87-.769-1.507a4.594,4.594,0,0,0-.556-.487,4.739,4.739,0,0,0,.674-.24c.816-.36,1.386-.859,1.273-1.114"/>
        <path id="패스_14232" data-name="패스 14232" class="cls-6" d="M55.079,22.6a.456.456,0,1,1-.456-.456.456.456,0,0,1,.456.456"/>
        <path id="패스_14233" data-name="패스 14233" class="cls-5" d="M53.365,20.647c-.113-.255-.865-.171-1.681.189a4.822,4.822,0,0,0-.53.273c.014-.15.022-.309.022-.474,0-.891-.226-1.614-.5-1.614s-.505.723-.505,1.614c0,.165.008.324.022.474a4.822,4.822,0,0,0-.53-.273c-.816-.36-1.568-.444-1.681-.189s.458.754,1.273,1.114a4.727,4.727,0,0,0,.673.24,4.6,4.6,0,0,0-.556.487C48.743,23.125,48.4,23.8,48.6,24s.866-.163,1.49-.8a4.395,4.395,0,0,0,.581-.723,4.447,4.447,0,0,0,.581.723c.624.637,1.291,1,1.491.8s-.145-.87-.769-1.507A4.6,4.6,0,0,0,51.416,22a4.739,4.739,0,0,0,.674-.24c.816-.36,1.386-.859,1.273-1.114"/>
        <path id="패스_14234" data-name="패스 14234" class="cls-6" d="M51.127,21.717a.456.456,0,1,1-.456-.456.456.456,0,0,1,.456.456"/>
        <path id="패스_14235" data-name="패스 14235" class="cls-5" d="M52.025,27.207c-.114-.255-.865-.171-1.682.189a4.913,4.913,0,0,0-.53.273c.014-.15.022-.309.022-.474,0-.891-.225-1.614-.5-1.614s-.505.723-.505,1.614c0,.165.007.324.021.474a4.807,4.807,0,0,0-.529-.273c-.817-.36-1.568-.444-1.681-.189s.458.754,1.273,1.114a4.683,4.683,0,0,0,.673.24,4.52,4.52,0,0,0-.556.487c-.624.637-.969,1.311-.769,1.507s.867-.163,1.491-.8a4.441,4.441,0,0,0,.58-.723,4.5,4.5,0,0,0,.581.723c.625.637,1.291,1,1.492.8s-.145-.87-.77-1.507a4.52,4.52,0,0,0-.556-.487,4.7,4.7,0,0,0,.674-.24c.817-.36,1.387-.859,1.273-1.114"/>
        <path id="패스_14236" data-name="패스 14236" class="cls-6" d="M49.786,28.277a.456.456,0,1,1-.456-.456.456.456,0,0,1,.456.456"/>
        <path id="패스_14237" data-name="패스 14237" class="cls-5" d="M52.025,23.442c-.114-.255-.865-.171-1.682.189a4.913,4.913,0,0,0-.53.273c.014-.15.022-.309.022-.474,0-.891-.225-1.614-.5-1.614s-.505.723-.505,1.614c0,.165.007.324.021.474a4.808,4.808,0,0,0-.529-.273c-.817-.36-1.568-.444-1.681-.189s.458.754,1.273,1.114a4.683,4.683,0,0,0,.673.24,4.52,4.52,0,0,0-.556.487c-.624.637-.969,1.311-.769,1.507s.867-.163,1.491-.8a4.441,4.441,0,0,0,.58-.723,4.5,4.5,0,0,0,.581.723c.625.637,1.291,1,1.492.8s-.145-.87-.77-1.507a4.52,4.52,0,0,0-.556-.487,4.7,4.7,0,0,0,.674-.24c.817-.36,1.387-.859,1.273-1.114"/>
        <path id="패스_14238" data-name="패스 14238" class="cls-6" d="M49.786,24.512a.456.456,0,1,1-.456-.456.456.456,0,0,1,.456.456"/>
        <path id="패스_14239" data-name="패스 14239" class="cls-5" d="M63.232,23.442c-.113-.255-.865-.171-1.681.189a4.822,4.822,0,0,0-.53.273c.014-.15.022-.309.022-.474,0-.891-.226-1.614-.505-1.614s-.5.723-.5,1.614c0,.165.008.324.022.474a4.822,4.822,0,0,0-.53-.273c-.816-.36-1.568-.444-1.681-.189s.458.754,1.273,1.114a4.727,4.727,0,0,0,.673.24,4.594,4.594,0,0,0-.556.487c-.624.637-.968,1.311-.769,1.507s.866-.163,1.49-.8a4.395,4.395,0,0,0,.581-.723,4.447,4.447,0,0,0,.581.723c.624.637,1.291,1,1.491.8s-.145-.87-.769-1.507a4.6,4.6,0,0,0-.556-.487,4.739,4.739,0,0,0,.674-.24c.816-.36,1.386-.859,1.273-1.114"/>
        <path id="패스_14240" data-name="패스 14240" class="cls-6" d="M60.994,24.512a.456.456,0,1,1-.456-.456.456.456,0,0,1,.456.456"/>
        <path id="패스_14241" data-name="패스 14241" class="cls-5" d="M61.4,20.647c-.114-.255-.865-.171-1.682.189a4.913,4.913,0,0,0-.53.273c.014-.15.022-.309.022-.474,0-.891-.225-1.614-.5-1.614s-.505.723-.505,1.614c0,.165.007.324.021.474a4.808,4.808,0,0,0-.529-.273c-.817-.36-1.568-.444-1.681-.189s.458.754,1.273,1.114a4.683,4.683,0,0,0,.673.24,4.52,4.52,0,0,0-.556.487c-.624.637-.969,1.311-.77,1.507s.867-.163,1.491-.8a4.441,4.441,0,0,0,.58-.723,4.453,4.453,0,0,0,.582.723c.624.637,1.291,1,1.491.8s-.145-.87-.769-1.507A4.752,4.752,0,0,0,59.451,22a4.739,4.739,0,0,0,.674-.24c.815-.36,1.385-.859,1.272-1.114"/>
        <path id="패스_14242" data-name="패스 14242" class="cls-6" d="M59.16,21.717a.456.456,0,1,1-.456-.456.456.456,0,0,1,.456.456"/>
        <path id="패스_14243" data-name="패스 14243" class="cls-5" d="M63.232,27.52c-.113-.255-.865-.171-1.681.189a4.822,4.822,0,0,0-.53.273c.014-.15.022-.309.022-.474,0-.891-.226-1.614-.505-1.614s-.5.723-.5,1.614c0,.165.008.324.022.474a4.822,4.822,0,0,0-.53-.273c-.816-.36-1.568-.444-1.681-.189s.458.754,1.273,1.114a4.727,4.727,0,0,0,.673.24,4.594,4.594,0,0,0-.556.487c-.624.637-.968,1.311-.769,1.507s.866-.163,1.49-.8a4.395,4.395,0,0,0,.581-.723,4.447,4.447,0,0,0,.581.723c.624.637,1.291.995,1.491.8s-.145-.87-.769-1.507a4.6,4.6,0,0,0-.556-.487,4.739,4.739,0,0,0,.674-.24c.816-.36,1.386-.859,1.273-1.114"/>
        <path id="패스_14244" data-name="패스 14244" class="cls-6" d="M60.994,28.59a.456.456,0,1,1-.456-.456.456.456,0,0,1,.456.456"/>
        <path id="패스_14245" data-name="패스 14245" class="cls-5" d="M55.406,23.888c-.113-.255-.865-.171-1.681.189a4.822,4.822,0,0,0-.53.273c.014-.15.022-.309.022-.474,0-.891-.226-1.614-.5-1.614s-.505.723-.505,1.614c0,.165.008.324.022.474a4.822,4.822,0,0,0-.53-.273c-.816-.36-1.568-.444-1.681-.189s.458.754,1.273,1.114a4.727,4.727,0,0,0,.673.24,4.594,4.594,0,0,0-.556.487c-.624.637-.968,1.311-.769,1.507s.867-.163,1.49-.8a4.395,4.395,0,0,0,.581-.723,4.447,4.447,0,0,0,.581.723c.624.637,1.291.995,1.491.8s-.145-.87-.769-1.507a4.6,4.6,0,0,0-.556-.487,4.739,4.739,0,0,0,.674-.24c.816-.36,1.386-.859,1.273-1.114"/>
        <path id="패스_14246" data-name="패스 14246" class="cls-6" d="M53.167,24.958a.456.456,0,1,1-.456-.456.456.456,0,0,1,.456.456"/>
        <path id="패스_14247" data-name="패스 14247" class="cls-5" d="M59.315,23.888c-.113-.255-.865-.171-1.681.189a4.822,4.822,0,0,0-.53.273c.014-.15.022-.309.022-.474,0-.891-.226-1.614-.505-1.614s-.5.723-.5,1.614c0,.165.008.324.022.474a4.822,4.822,0,0,0-.53-.273c-.816-.36-1.568-.444-1.681-.189s.458.754,1.273,1.114a4.727,4.727,0,0,0,.673.24,4.594,4.594,0,0,0-.556.487c-.624.637-.968,1.311-.769,1.507s.866-.163,1.49-.8a4.394,4.394,0,0,0,.581-.723,4.447,4.447,0,0,0,.581.723c.624.637,1.291.995,1.491.8s-.145-.87-.769-1.507a4.6,4.6,0,0,0-.556-.487A4.739,4.739,0,0,0,58.04,25c.816-.36,1.386-.859,1.273-1.114"/>
        <path id="패스_14248" data-name="패스 14248" class="cls-6" d="M57.076,24.958a.456.456,0,1,1-.456-.456.456.456,0,0,1,.456.456"/>
        <path id="패스_14249" data-name="패스 14249" class="cls-5" d="M57.317,25.773c-.113-.255-.865-.171-1.681.189a4.821,4.821,0,0,0-.53.273c.014-.15.022-.309.022-.474,0-.891-.226-1.614-.5-1.614s-.505.723-.505,1.614c0,.165.008.324.022.474a4.821,4.821,0,0,0-.53-.273c-.816-.36-1.568-.444-1.681-.189s.458.754,1.273,1.114a4.727,4.727,0,0,0,.673.24,4.594,4.594,0,0,0-.556.487c-.624.637-.968,1.311-.769,1.507s.866-.163,1.49-.8a4.395,4.395,0,0,0,.581-.723,4.447,4.447,0,0,0,.581.723c.624.637,1.291,1,1.491.8s-.145-.87-.769-1.507a4.594,4.594,0,0,0-.556-.487,4.739,4.739,0,0,0,.674-.24c.816-.36,1.386-.859,1.273-1.114"/>
        <path id="패스_14250" data-name="패스 14250" class="cls-6" d="M55.079,26.843a.456.456,0,1,1-.456-.456.456.456,0,0,1,.456.456"/>
        <path id="패스_14251" data-name="패스 14251" class="cls-5" d="M57.317,19.292c-.113-.255-.865-.171-1.681.189a4.822,4.822,0,0,0-.53.273c.014-.15.022-.309.022-.474,0-.891-.226-1.614-.5-1.614s-.505.723-.505,1.614c0,.165.008.324.022.474a4.822,4.822,0,0,0-.53-.273c-.816-.36-1.568-.444-1.681-.189s.458.754,1.273,1.114a4.727,4.727,0,0,0,.673.24,4.594,4.594,0,0,0-.556.487c-.624.637-.968,1.311-.769,1.507s.866-.163,1.49-.8a4.395,4.395,0,0,0,.581-.723,4.447,4.447,0,0,0,.581.723c.624.637,1.291.995,1.491.8s-.145-.87-.769-1.507a4.594,4.594,0,0,0-.556-.487,4.739,4.739,0,0,0,.674-.24c.816-.36,1.386-.859,1.273-1.114"/>
        <path id="패스_14252" data-name="패스 14252" class="cls-6" d="M55.079,20.361a.456.456,0,1,1-.456-.456.456.456,0,0,1,.456.456"/>
        <path id="패스_14253" data-name="패스 14253" class="cls-5" d="M55.406,28.286c-.113-.255-.865-.17-1.681.189a4.822,4.822,0,0,0-.53.273c.014-.15.022-.309.022-.474,0-.891-.226-1.614-.5-1.614s-.505.723-.505,1.614c0,.165.008.324.022.474a4.822,4.822,0,0,0-.53-.273c-.816-.36-1.568-.444-1.681-.189s.458.754,1.273,1.114a4.853,4.853,0,0,0,.673.24,4.6,4.6,0,0,0-.556.487c-.624.637-.968,1.311-.769,1.507s.867-.163,1.49-.8a4.395,4.395,0,0,0,.581-.723,4.447,4.447,0,0,0,.581.723c.624.637,1.291,1,1.491.8s-.145-.87-.769-1.507a4.6,4.6,0,0,0-.556-.487,4.739,4.739,0,0,0,.674-.24c.816-.36,1.386-.859,1.273-1.114"/>
        <path id="패스_14254" data-name="패스 14254" class="cls-6" d="M53.167,29.356a.456.456,0,1,1-.456-.456.456.456,0,0,1,.456.456"/>
        <path id="패스_14255" data-name="패스 14255" class="cls-5" d="M59.492,28.286c-.113-.255-.865-.17-1.681.189a4.822,4.822,0,0,0-.53.273c.014-.15.022-.309.022-.474,0-.891-.226-1.614-.505-1.614s-.505.723-.505,1.614c0,.165.008.324.022.474a4.822,4.822,0,0,0-.53-.273c-.816-.36-1.568-.444-1.681-.189s.458.754,1.273,1.114a4.853,4.853,0,0,0,.673.24,4.6,4.6,0,0,0-.556.487c-.624.637-.968,1.311-.769,1.507s.866-.163,1.49-.8a4.447,4.447,0,0,0,.581-.723,4.447,4.447,0,0,0,.581.723c.624.637,1.291,1,1.491.8s-.145-.87-.769-1.507a4.6,4.6,0,0,0-.556-.487,4.739,4.739,0,0,0,.674-.24c.816-.36,1.386-.859,1.273-1.114"/>
        <path id="패스_14256" data-name="패스 14256" class="cls-6" d="M57.255,29.356A.457.457,0,1,1,56.8,28.9a.456.456,0,0,1,.456.456"/>
        <path id="패스_14257" data-name="패스 14257" class="cls-5" d="M57.317,30.456c-.113-.255-.865-.171-1.681.189a4.822,4.822,0,0,0-.53.273c.014-.15.022-.309.022-.474,0-.891-.226-1.614-.5-1.614s-.505.723-.505,1.614c0,.165.008.324.022.474a4.822,4.822,0,0,0-.53-.273c-.816-.36-1.568-.444-1.681-.189s.458.754,1.273,1.114a4.727,4.727,0,0,0,.673.24,4.594,4.594,0,0,0-.556.487c-.624.637-.968,1.311-.769,1.507s.866-.163,1.49-.8a4.395,4.395,0,0,0,.581-.723A4.447,4.447,0,0,0,55.2,33c.624.637,1.291.995,1.491.8s-.145-.87-.769-1.507a4.594,4.594,0,0,0-.556-.487,4.739,4.739,0,0,0,.674-.24c.816-.36,1.386-.859,1.273-1.114"/>
        <path id="패스_14258" data-name="패스 14258" class="cls-6" d="M55.079,31.525a.456.456,0,1,1-.456-.456.456.456,0,0,1,.456.456"/>
        <path id="패스_14259" data-name="패스 14259" class="cls-5" d="M48.362,37.823c-.113-.255-.865-.171-1.681.189a4.821,4.821,0,0,0-.53.273c.014-.15.022-.309.022-.474,0-.891-.226-1.614-.505-1.614s-.505.723-.505,1.614c0,.165.008.324.022.474a4.821,4.821,0,0,0-.53-.273c-.816-.36-1.568-.444-1.681-.189s.458.754,1.273,1.114a4.726,4.726,0,0,0,.673.24,4.6,4.6,0,0,0-.556.487c-.624.637-.968,1.311-.768,1.507s.866-.163,1.49-.8a4.394,4.394,0,0,0,.581-.723,4.394,4.394,0,0,0,.581.723c.624.637,1.291,1,1.491.8s-.145-.87-.769-1.507a4.6,4.6,0,0,0-.556-.487,4.739,4.739,0,0,0,.674-.24c.816-.36,1.386-.859,1.273-1.114"/>
        <path id="패스_14260" data-name="패스 14260" class="cls-6" d="M46.124,38.891a.457.457,0,1,1-.457-.456.457.457,0,0,1,.457.456"/>
        <path id="패스_14261" data-name="패스 14261" class="cls-5" d="M44.41,36.939c-.114-.255-.866-.171-1.682.189a4.822,4.822,0,0,0-.53.273c.014-.15.022-.309.022-.474,0-.891-.226-1.614-.505-1.614s-.505.723-.505,1.614c0,.165.008.324.022.474a4.822,4.822,0,0,0-.53-.273c-.816-.36-1.568-.444-1.681-.189s.458.754,1.273,1.114a4.727,4.727,0,0,0,.673.24,4.6,4.6,0,0,0-.556.487c-.624.637-.968,1.311-.768,1.507s.866-.163,1.49-.8a4.394,4.394,0,0,0,.581-.723,4.395,4.395,0,0,0,.581.723c.624.637,1.291.995,1.491.8s-.145-.87-.769-1.507a4.52,4.52,0,0,0-.556-.487,4.739,4.739,0,0,0,.674-.24c.816-.36,1.386-.859,1.273-1.114"/>
        <path id="패스_14262" data-name="패스 14262" class="cls-6" d="M42.171,38.008a.456.456,0,1,1-.456-.456.456.456,0,0,1,.456.456"/>
        <path id="패스_14263" data-name="패스 14263" class="cls-5" d="M43.069,43.5c-.113-.255-.865-.171-1.681.189a4.822,4.822,0,0,0-.53.273c.014-.15.022-.309.022-.474,0-.891-.226-1.614-.505-1.614s-.505.723-.505,1.614c0,.165.008.324.022.474a4.822,4.822,0,0,0-.53-.273c-.816-.36-1.568-.444-1.681-.189s.458.754,1.273,1.114a4.727,4.727,0,0,0,.673.24,4.6,4.6,0,0,0-.556.487c-.624.637-.968,1.311-.769,1.507s.866-.163,1.49-.8a4.395,4.395,0,0,0,.581-.723,4.447,4.447,0,0,0,.581.723c.624.637,1.291.995,1.491.8s-.145-.87-.769-1.507a4.594,4.594,0,0,0-.556-.487,4.739,4.739,0,0,0,.674-.24c.816-.36,1.386-.859,1.273-1.114"/>
        <path id="패스_14264" data-name="패스 14264" class="cls-6" d="M40.833,44.569a.457.457,0,1,1-.457-.456.457.457,0,0,1,.457.456"/>
        <path id="패스_14265" data-name="패스 14265" class="cls-5" d="M43.069,39.734c-.113-.255-.865-.171-1.681.189a4.822,4.822,0,0,0-.53.273c.014-.15.022-.309.022-.474,0-.891-.226-1.614-.505-1.614s-.505.723-.505,1.614c0,.165.008.324.022.474a4.822,4.822,0,0,0-.53-.273c-.816-.36-1.568-.444-1.681-.189s.458.754,1.273,1.114a4.727,4.727,0,0,0,.673.24,4.6,4.6,0,0,0-.556.487c-.624.637-.968,1.311-.769,1.507s.866-.163,1.49-.8a4.394,4.394,0,0,0,.581-.723,4.447,4.447,0,0,0,.581.723c.624.637,1.291.995,1.491.8s-.145-.87-.769-1.507a4.594,4.594,0,0,0-.556-.487,4.739,4.739,0,0,0,.674-.24c.816-.36,1.386-.859,1.273-1.114"/>
        <path id="패스_14266" data-name="패스 14266" class="cls-6" d="M40.833,40.8a.457.457,0,1,1-.457-.456.457.457,0,0,1,.457.456"/>
        <path id="패스_14267" data-name="패스 14267" class="cls-5" d="M54.278,39.734c-.114-.255-.866-.171-1.682.189a4.822,4.822,0,0,0-.53.273c.014-.15.022-.309.022-.474,0-.891-.226-1.614-.505-1.614s-.505.723-.505,1.614c0,.165.008.324.022.474a4.822,4.822,0,0,0-.53-.273c-.816-.36-1.568-.444-1.681-.189s.458.754,1.273,1.114a4.727,4.727,0,0,0,.673.24,4.6,4.6,0,0,0-.556.487c-.624.637-.968,1.311-.769,1.507s.866-.163,1.49-.8a4.395,4.395,0,0,0,.581-.723,4.447,4.447,0,0,0,.581.723c.624.637,1.291.995,1.491.8s-.145-.87-.769-1.507a4.594,4.594,0,0,0-.556-.487,4.7,4.7,0,0,0,.674-.24c.816-.36,1.386-.859,1.273-1.114"/>
        <path id="패스_14268" data-name="패스 14268" class="cls-6" d="M52.039,40.8a.457.457,0,1,1-.456-.456.456.456,0,0,1,.456.456"/>
        <path id="패스_14269" data-name="패스 14269" class="cls-5" d="M52.444,36.939c-.114-.255-.866-.171-1.682.189a4.822,4.822,0,0,0-.53.273c.014-.15.022-.309.022-.474,0-.891-.226-1.614-.5-1.614s-.506.723-.506,1.614c0,.165.008.324.022.474a4.822,4.822,0,0,0-.53-.273c-.816-.36-1.568-.444-1.68-.189s.458.754,1.272,1.114a4.727,4.727,0,0,0,.673.24,4.672,4.672,0,0,0-.556.487c-.624.637-.968,1.311-.769,1.507s.866-.163,1.491-.8a4.442,4.442,0,0,0,.58-.723,4.5,4.5,0,0,0,.581.723c.624.637,1.291.995,1.491.8s-.145-.87-.769-1.507a4.6,4.6,0,0,0-.556-.487,4.7,4.7,0,0,0,.674-.24c.816-.36,1.386-.859,1.273-1.114"/>
        <path id="패스_14270" data-name="패스 14270" class="cls-6" d="M50.206,38.008a.457.457,0,1,1-.456-.456.456.456,0,0,1,.456.456"/>
        <path id="패스_14271" data-name="패스 14271" class="cls-5" d="M54.278,43.812c-.114-.255-.866-.171-1.682.189a4.822,4.822,0,0,0-.53.273c.014-.15.022-.309.022-.474,0-.891-.226-1.614-.505-1.614s-.505.723-.505,1.614c0,.165.008.324.022.474A4.822,4.822,0,0,0,50.57,44c-.816-.36-1.568-.444-1.681-.189s.458.754,1.273,1.114a4.727,4.727,0,0,0,.673.24,4.6,4.6,0,0,0-.556.487c-.624.637-.968,1.311-.769,1.507s.866-.163,1.49-.8a4.395,4.395,0,0,0,.581-.723,4.447,4.447,0,0,0,.581.723c.624.637,1.291.995,1.491.8s-.145-.87-.769-1.507a4.594,4.594,0,0,0-.556-.487,4.7,4.7,0,0,0,.674-.24c.816-.36,1.386-.859,1.273-1.114"/>
        <path id="패스_14272" data-name="패스 14272" class="cls-6" d="M52.039,44.882a.457.457,0,1,1-.456-.456.456.456,0,0,1,.456.456"/>
        <path id="패스_14273" data-name="패스 14273" class="cls-5" d="M46.451,40.18c-.114-.255-.866-.171-1.682.189a4.823,4.823,0,0,0-.53.273c.014-.15.022-.309.022-.474,0-.891-.226-1.614-.5-1.614s-.506.723-.506,1.614c0,.165.008.324.022.474a4.822,4.822,0,0,0-.53-.273c-.816-.36-1.568-.444-1.68-.189s.458.754,1.272,1.114a4.727,4.727,0,0,0,.673.24,4.672,4.672,0,0,0-.556.487c-.624.637-.968,1.311-.769,1.507s.866-.163,1.491-.8a4.442,4.442,0,0,0,.58-.723,4.5,4.5,0,0,0,.581.723c.624.637,1.291.995,1.491.8s-.145-.87-.769-1.507a4.6,4.6,0,0,0-.556-.487,4.7,4.7,0,0,0,.674-.24c.816-.36,1.386-.859,1.273-1.114"/>
        <path id="패스_14274" data-name="패스 14274" class="cls-6" d="M44.212,41.249a.456.456,0,1,1-.456-.456.456.456,0,0,1,.456.456"/>
        <path id="패스_14275" data-name="패스 14275" class="cls-5" d="M50.36,40.18c-.114-.255-.866-.171-1.682.189a4.822,4.822,0,0,0-.53.273c.014-.15.022-.309.022-.474,0-.891-.226-1.614-.5-1.614s-.506.723-.506,1.614c0,.165.008.324.022.474a4.9,4.9,0,0,0-.529-.273c-.817-.36-1.569-.444-1.681-.189s.458.754,1.272,1.114a4.771,4.771,0,0,0,.673.24,4.672,4.672,0,0,0-.556.487c-.624.637-.968,1.311-.769,1.507s.866-.163,1.491-.8a4.441,4.441,0,0,0,.58-.723,4.5,4.5,0,0,0,.581.723c.624.637,1.291.995,1.492.8s-.146-.87-.77-1.507a4.6,4.6,0,0,0-.556-.487,4.7,4.7,0,0,0,.674-.24c.816-.36,1.386-.859,1.273-1.114"/>
        <path id="패스_14276" data-name="패스 14276" class="cls-6" d="M48.121,41.249a.456.456,0,1,1-.456-.456.456.456,0,0,1,.456.456"/>
        <path id="패스_14277" data-name="패스 14277" class="cls-5" d="M48.362,42.068c-.113-.255-.865-.171-1.681.189a4.822,4.822,0,0,0-.53.273c.014-.15.022-.309.022-.474,0-.891-.226-1.614-.505-1.614s-.505.723-.505,1.614c0,.165.008.324.022.474a4.822,4.822,0,0,0-.53-.273c-.816-.36-1.568-.444-1.681-.189s.458.754,1.273,1.114a4.726,4.726,0,0,0,.673.24,4.6,4.6,0,0,0-.556.487c-.624.637-.968,1.311-.768,1.507s.866-.163,1.49-.8a4.395,4.395,0,0,0,.581-.723,4.395,4.395,0,0,0,.581.723c.624.637,1.291.995,1.491.8s-.145-.87-.769-1.507a4.6,4.6,0,0,0-.556-.487,4.739,4.739,0,0,0,.674-.24c.816-.36,1.386-.859,1.273-1.114"/>
        <path id="패스_14278" data-name="패스 14278" class="cls-6" d="M46.124,43.135a.457.457,0,1,1-.457-.456.457.457,0,0,1,.457.456"/>
        <path id="패스_14279" data-name="패스 14279" class="cls-5" d="M48.362,35.583c-.113-.255-.865-.171-1.681.189a4.822,4.822,0,0,0-.53.273c.014-.15.022-.309.022-.474,0-.891-.226-1.614-.505-1.614s-.505.723-.505,1.614c0,.165.008.324.022.474a4.822,4.822,0,0,0-.53-.273c-.816-.36-1.568-.444-1.681-.189s.458.754,1.273,1.114a4.726,4.726,0,0,0,.673.24,4.6,4.6,0,0,0-.556.487c-.624.637-.968,1.311-.768,1.507s.866-.163,1.49-.8a4.395,4.395,0,0,0,.581-.723,4.395,4.395,0,0,0,.581.723c.624.637,1.291.995,1.491.8s-.145-.87-.769-1.507a4.6,4.6,0,0,0-.556-.487,4.739,4.739,0,0,0,.674-.24c.816-.36,1.386-.859,1.273-1.114"/>
        <path id="패스_14280" data-name="패스 14280" class="cls-6" d="M46.124,36.653a.457.457,0,1,1-.457-.456.457.457,0,0,1,.457.456"/>
        <path id="패스_14281" data-name="패스 14281" class="cls-5" d="M46.451,44.578c-.114-.255-.866-.171-1.682.189a4.822,4.822,0,0,0-.53.273c.014-.15.022-.309.022-.474,0-.891-.226-1.614-.5-1.614s-.506.723-.506,1.614c0,.165.008.324.022.474a4.822,4.822,0,0,0-.53-.273c-.816-.36-1.568-.444-1.68-.189s.458.754,1.272,1.114a4.727,4.727,0,0,0,.673.24,4.672,4.672,0,0,0-.556.487c-.624.637-.968,1.311-.769,1.507s.866-.163,1.491-.8a4.442,4.442,0,0,0,.58-.723,4.5,4.5,0,0,0,.581.723c.624.637,1.291.995,1.491.8s-.145-.87-.769-1.507a4.6,4.6,0,0,0-.556-.487,4.7,4.7,0,0,0,.674-.24c.816-.36,1.386-.859,1.273-1.114"/>
        <path id="패스_14282" data-name="패스 14282" class="cls-6" d="M44.212,45.648a.456.456,0,1,1-.456-.456.456.456,0,0,1,.456.456"/>
        <path id="패스_14283" data-name="패스 14283" class="cls-5" d="M50.537,44.578c-.113-.255-.865-.171-1.681.189a4.822,4.822,0,0,0-.53.273c.014-.15.022-.309.022-.474,0-.891-.226-1.614-.505-1.614s-.5.723-.5,1.614c0,.165.008.324.022.474a4.822,4.822,0,0,0-.53-.273c-.816-.36-1.568-.444-1.681-.189s.458.754,1.273,1.114a4.727,4.727,0,0,0,.673.24,4.594,4.594,0,0,0-.556.487c-.624.637-.968,1.311-.769,1.507s.866-.163,1.49-.8a4.394,4.394,0,0,0,.581-.723,4.447,4.447,0,0,0,.581.723c.624.637,1.291.995,1.491.8s-.145-.87-.769-1.507a4.6,4.6,0,0,0-.556-.487,4.739,4.739,0,0,0,.674-.24c.816-.36,1.386-.859,1.273-1.114"/>
        <path id="패스_14284" data-name="패스 14284" class="cls-6" d="M48.3,45.648a.456.456,0,1,1-.456-.456.456.456,0,0,1,.456.456"/>
        <path id="패스_14285" data-name="패스 14285" class="cls-5" d="M48.362,46.747c-.113-.255-.865-.171-1.681.189a4.821,4.821,0,0,0-.53.273c.014-.15.022-.309.022-.474,0-.891-.226-1.614-.505-1.614s-.505.723-.505,1.614c0,.165.008.324.022.474a4.821,4.821,0,0,0-.53-.273c-.816-.36-1.568-.444-1.681-.189s.458.754,1.273,1.114a4.727,4.727,0,0,0,.673.24,4.6,4.6,0,0,0-.556.487c-.624.637-.968,1.311-.768,1.507s.866-.163,1.49-.8a4.394,4.394,0,0,0,.581-.723,4.394,4.394,0,0,0,.581.723c.624.637,1.291,1,1.491.8s-.145-.87-.769-1.507a4.6,4.6,0,0,0-.556-.487,4.74,4.74,0,0,0,.674-.24c.816-.36,1.386-.859,1.273-1.114"/>
        <path id="패스_14286" data-name="패스 14286" class="cls-6" d="M46.124,47.817a.457.457,0,1,1-.457-.456.457.457,0,0,1,.457.456"/>
        <path id="패스_14287" data-name="패스 14287" class="cls-5" d="M17.441,34.481c-.114-.255-.866-.171-1.682.189a4.913,4.913,0,0,0-.53.273c.014-.15.023-.309.023-.474,0-.891-.226-1.614-.505-1.614s-.506.723-.506,1.614c0,.165.009.324.023.474a4.928,4.928,0,0,0-.531-.273c-.815-.36-1.568-.444-1.681-.189s.458.754,1.274,1.114a4.714,4.714,0,0,0,.672.24,4.585,4.585,0,0,0-.555.487c-.625.637-.969,1.311-.769,1.507s.866-.163,1.489-.8a4.453,4.453,0,0,0,.582-.723,4.441,4.441,0,0,0,.58.723c.625.637,1.291.995,1.491.8s-.145-.87-.769-1.507a4.6,4.6,0,0,0-.556-.487,4.7,4.7,0,0,0,.674-.24c.816-.36,1.386-.859,1.273-1.114"/>
        <path id="패스_14288" data-name="패스 14288" class="cls-6" d="M15.2,35.551a.456.456,0,1,1-.456-.456.456.456,0,0,1,.456.456"/>
        <path id="패스_14289" data-name="패스 14289" class="cls-5" d="M13.488,33.6c-.114-.255-.866-.171-1.682.189a4.914,4.914,0,0,0-.53.273c.014-.15.023-.309.023-.474,0-.891-.226-1.614-.506-1.614s-.505.723-.505,1.614c0,.165.009.324.023.474a4.928,4.928,0,0,0-.531-.273c-.815-.36-1.568-.444-1.681-.189s.458.754,1.274,1.114a4.714,4.714,0,0,0,.672.24,4.511,4.511,0,0,0-.555.487c-.625.637-.969,1.311-.77,1.507s.867-.163,1.49-.8a4.453,4.453,0,0,0,.582-.723,4.441,4.441,0,0,0,.58.723c.625.637,1.291.995,1.491.8s-.144-.87-.769-1.507a4.6,4.6,0,0,0-.556-.487,4.7,4.7,0,0,0,.674-.24c.816-.36,1.386-.859,1.273-1.114"/>
        <path id="패스_14290" data-name="패스 14290" class="cls-6" d="M11.248,34.666a.456.456,0,1,1-.456-.456.456.456,0,0,1,.456.456"/>
        <path id="패스_14291" data-name="패스 14291" class="cls-5" d="M12.148,40.157c-.114-.255-.866-.171-1.682.189a4.912,4.912,0,0,0-.53.273c.014-.15.022-.309.022-.474,0-.891-.225-1.614-.505-1.614s-.505.723-.505,1.614c0,.165.009.324.022.474a4.821,4.821,0,0,0-.53-.273c-.815-.36-1.568-.444-1.68-.189s.458.754,1.273,1.114a4.714,4.714,0,0,0,.672.24A4.594,4.594,0,0,0,8.149,42c-.624.637-.968,1.311-.769,1.507s.867-.163,1.49-.8a4.395,4.395,0,0,0,.581-.723,4.447,4.447,0,0,0,.581.723c.624.637,1.291.995,1.491.8s-.145-.87-.769-1.507a4.594,4.594,0,0,0-.556-.487,4.7,4.7,0,0,0,.674-.24c.816-.36,1.386-.859,1.273-1.114"/>
        <path id="패스_14292" data-name="패스 14292" class="cls-6" d="M9.908,41.226a.456.456,0,1,1-.456-.456.456.456,0,0,1,.456.456"/>
        <path id="패스_14293" data-name="패스 14293" class="cls-5" d="M12.148,36.392c-.114-.255-.866-.171-1.682.189a4.912,4.912,0,0,0-.53.273c.014-.15.022-.309.022-.474,0-.891-.225-1.614-.505-1.614s-.505.723-.505,1.614c0,.165.009.324.022.474a4.821,4.821,0,0,0-.53-.273c-.815-.36-1.568-.444-1.68-.189s.458.754,1.273,1.114a4.714,4.714,0,0,0,.672.24,4.6,4.6,0,0,0-.556.487c-.624.637-.968,1.311-.769,1.507s.867-.163,1.49-.8a4.394,4.394,0,0,0,.581-.723,4.447,4.447,0,0,0,.581.723c.624.637,1.291,1,1.491.8s-.145-.87-.769-1.507a4.6,4.6,0,0,0-.556-.487,4.7,4.7,0,0,0,.674-.24c.816-.36,1.386-.859,1.273-1.114"/>
        <path id="패스_14294" data-name="패스 14294" class="cls-6" d="M9.908,37.462a.456.456,0,1,1-.456-.456.456.456,0,0,1,.456.456"/>
        <path id="패스_14295" data-name="패스 14295" class="cls-5" d="M23.354,36.392c-.113-.255-.865-.171-1.681.189a4.821,4.821,0,0,0-.53.273c.014-.15.022-.309.022-.474,0-.891-.226-1.614-.505-1.614s-.5.723-.5,1.614c0,.165.008.324.022.474a4.821,4.821,0,0,0-.53-.273c-.816-.36-1.568-.444-1.681-.189s.458.754,1.273,1.114a4.727,4.727,0,0,0,.673.24,4.6,4.6,0,0,0-.556.487c-.624.637-.968,1.311-.769,1.507s.866-.163,1.49-.8a4.394,4.394,0,0,0,.581-.723,4.447,4.447,0,0,0,.581.723c.624.637,1.291,1,1.491.8s-.145-.87-.769-1.507a4.6,4.6,0,0,0-.556-.487,4.739,4.739,0,0,0,.674-.24c.816-.36,1.386-.859,1.273-1.114"/>
        <path id="패스_14296" data-name="패스 14296" class="cls-6" d="M21.117,37.462a.456.456,0,1,1-.457-.456.456.456,0,0,1,.457.456"/>
        <path id="패스_14297" data-name="패스 14297" class="cls-5" d="M21.521,33.6c-.113-.255-.865-.171-1.681.189a4.823,4.823,0,0,0-.53.273c.014-.15.022-.309.022-.474,0-.891-.226-1.614-.505-1.614s-.5.723-.5,1.614c0,.165.008.324.022.474a4.822,4.822,0,0,0-.53-.273c-.816-.36-1.568-.444-1.681-.189s.458.754,1.273,1.114a4.727,4.727,0,0,0,.673.24,4.6,4.6,0,0,0-.556.487c-.624.637-.968,1.311-.769,1.507s.866-.163,1.49-.8a4.395,4.395,0,0,0,.581-.723,4.447,4.447,0,0,0,.581.723c.624.637,1.291.995,1.491.8s-.145-.87-.769-1.507a4.6,4.6,0,0,0-.556-.487,4.739,4.739,0,0,0,.674-.24c.816-.36,1.386-.859,1.273-1.114"/>
        <path id="패스_14298" data-name="패스 14298" class="cls-6" d="M19.284,34.666a.456.456,0,1,1-.457-.456.456.456,0,0,1,.457.456"/>
        <path id="패스_14299" data-name="패스 14299" class="cls-5" d="M23.354,40.47c-.113-.255-.865-.171-1.681.189a4.822,4.822,0,0,0-.53.273c.014-.15.022-.309.022-.474,0-.891-.226-1.614-.505-1.614s-.5.723-.5,1.614c0,.165.008.324.022.474a4.822,4.822,0,0,0-.53-.273c-.816-.36-1.568-.444-1.681-.189s.458.754,1.273,1.114a4.727,4.727,0,0,0,.673.24,4.71,4.71,0,0,0-.558.488c-.624.637-.968,1.311-.769,1.507s.866-.163,1.49-.8a4.395,4.395,0,0,0,.581-.723,4.447,4.447,0,0,0,.581.723c.624.637,1.291.995,1.491.8s-.145-.87-.769-1.507a4.594,4.594,0,0,0-.556-.487,4.739,4.739,0,0,0,.674-.24c.816-.36,1.386-.859,1.273-1.114"/>
        <path id="패스_14300" data-name="패스 14300" class="cls-6" d="M21.117,41.539a.456.456,0,1,1-.457-.456.456.456,0,0,1,.457.456"/>
        <path id="패스_14301" data-name="패스 14301" class="cls-5" d="M15.528,36.838c-.113-.255-.865-.171-1.681.189a4.822,4.822,0,0,0-.53.273c.014-.15.022-.309.022-.474,0-.891-.226-1.614-.505-1.614s-.5.723-.5,1.614c0,.165.008.324.022.474a4.822,4.822,0,0,0-.53-.273c-.816-.36-1.568-.444-1.681-.189s.458.754,1.273,1.114a4.727,4.727,0,0,0,.673.24,4.594,4.594,0,0,0-.556.487c-.624.637-.968,1.311-.769,1.507s.866-.163,1.49-.8a4.395,4.395,0,0,0,.581-.723,4.447,4.447,0,0,0,.581.723c.624.637,1.291.995,1.491.8s-.145-.87-.769-1.507a4.594,4.594,0,0,0-.556-.487,4.739,4.739,0,0,0,.674-.24c.816-.36,1.386-.859,1.273-1.114"/>
        <path id="패스_14302" data-name="패스 14302" class="cls-6" d="M13.29,37.907a.456.456,0,1,1-.456-.456.456.456,0,0,1,.456.456"/>
        <path id="패스_14303" data-name="패스 14303" class="cls-5" d="M19.438,36.838c-.114-.255-.866-.171-1.682.189a4.822,4.822,0,0,0-.53.273c.014-.15.022-.309.022-.474,0-.891-.226-1.614-.5-1.614s-.5.723-.5,1.614c0,.165.009.324.022.474a4.822,4.822,0,0,0-.53-.273c-.815-.36-1.568-.444-1.681-.189s.458.754,1.274,1.114a4.714,4.714,0,0,0,.672.24,4.594,4.594,0,0,0-.556.487c-.624.637-.968,1.311-.769,1.507s.866-.163,1.49-.8a4.395,4.395,0,0,0,.581-.723,4.447,4.447,0,0,0,.581.723c.624.637,1.291.995,1.491.8s-.145-.87-.769-1.507a4.594,4.594,0,0,0-.556-.487,4.739,4.739,0,0,0,.674-.24c.816-.36,1.386-.859,1.273-1.114"/>
        <path id="패스_14304" data-name="패스 14304" class="cls-6" d="M17.2,37.907a.456.456,0,1,1-.456-.456.456.456,0,0,1,.456.456"/>
        <path id="패스_14305" data-name="패스 14305" class="cls-5" d="M17.441,38.72c-.114-.255-.866-.171-1.682.189a4.913,4.913,0,0,0-.53.273c.014-.15.023-.309.023-.474,0-.891-.226-1.614-.505-1.614s-.506.723-.506,1.614c0,.165.009.324.023.474a4.928,4.928,0,0,0-.531-.273c-.815-.36-1.568-.444-1.681-.189s.458.754,1.274,1.114a4.714,4.714,0,0,0,.672.24,4.585,4.585,0,0,0-.555.487c-.625.637-.969,1.311-.769,1.507s.866-.163,1.489-.8a4.453,4.453,0,0,0,.582-.723,4.441,4.441,0,0,0,.58.723c.625.637,1.291.995,1.491.8s-.145-.87-.769-1.507a4.594,4.594,0,0,0-.556-.487,4.7,4.7,0,0,0,.674-.24c.816-.36,1.386-.859,1.273-1.114"/>
        <path id="패스_14306" data-name="패스 14306" class="cls-6" d="M15.2,39.793a.456.456,0,1,1-.456-.456.456.456,0,0,1,.456.456"/>
        <path id="패스_14307" data-name="패스 14307" class="cls-5" d="M17.441,32.241c-.114-.255-.866-.171-1.682.189a4.913,4.913,0,0,0-.53.273c.014-.15.023-.309.023-.474,0-.891-.226-1.614-.505-1.614s-.506.723-.506,1.614c0,.165.009.324.023.474a4.928,4.928,0,0,0-.531-.273c-.815-.36-1.568-.444-1.681-.189s.458.754,1.274,1.114A4.714,4.714,0,0,0,14,33.6a4.585,4.585,0,0,0-.555.487c-.625.637-.969,1.311-.769,1.507s.866-.163,1.489-.8a4.453,4.453,0,0,0,.582-.723,4.441,4.441,0,0,0,.58.723c.625.637,1.291.995,1.491.8s-.145-.87-.769-1.507a4.594,4.594,0,0,0-.556-.487,4.7,4.7,0,0,0,.674-.24c.816-.36,1.386-.859,1.273-1.114"/>
        <path id="패스_14308" data-name="패스 14308" class="cls-6" d="M15.2,33.311a.456.456,0,1,1-.456-.456.456.456,0,0,1,.456.456"/>
        <path id="패스_14309" data-name="패스 14309" class="cls-5" d="M15.528,41.236c-.113-.255-.865-.17-1.681.189a4.822,4.822,0,0,0-.53.273c.014-.15.022-.309.022-.474,0-.891-.226-1.614-.505-1.614s-.5.723-.5,1.614c0,.165.008.324.022.474a4.822,4.822,0,0,0-.53-.273c-.816-.36-1.568-.444-1.681-.189s.458.754,1.273,1.114a4.853,4.853,0,0,0,.673.24,4.6,4.6,0,0,0-.556.487c-.624.637-.968,1.311-.769,1.507s.866-.163,1.49-.8a4.447,4.447,0,0,0,.581-.723,4.447,4.447,0,0,0,.581.723c.624.637,1.291.995,1.491.8s-.145-.87-.769-1.507a4.6,4.6,0,0,0-.556-.487,4.739,4.739,0,0,0,.674-.24c.816-.36,1.386-.859,1.273-1.114"/>
        <path id="패스_14310" data-name="패스 14310" class="cls-6" d="M13.29,42.306a.456.456,0,1,1-.456-.456.456.456,0,0,1,.456.456"/>
        <path id="패스_14311" data-name="패스 14311" class="cls-5" d="M19.615,41.236c-.113-.255-.865-.17-1.681.189a4.822,4.822,0,0,0-.53.273c.014-.15.022-.309.022-.474,0-.891-.226-1.614-.505-1.614s-.5.723-.5,1.614c0,.165.008.324.023.474a4.822,4.822,0,0,0-.53-.273c-.816-.36-1.568-.444-1.681-.189s.457.754,1.273,1.114a4.853,4.853,0,0,0,.673.24,4.585,4.585,0,0,0-.555.487c-.624.637-.968,1.311-.769,1.507s.867-.163,1.491-.8a4.447,4.447,0,0,0,.581-.723,4.441,4.441,0,0,0,.58.723c.624.637,1.292.995,1.491.8s-.145-.87-.769-1.507a4.6,4.6,0,0,0-.556-.487,4.866,4.866,0,0,0,.674-.24c.815-.36,1.385-.859,1.273-1.114"/>
        <path id="패스_14312" data-name="패스 14312" class="cls-6" d="M17.376,42.306a.456.456,0,1,1-.456-.456.456.456,0,0,1,.456.456"/>
        <path id="패스_14313" data-name="패스 14313" class="cls-5" d="M17.441,43.4c-.114-.255-.866-.171-1.682.189a4.912,4.912,0,0,0-.53.273c.014-.15.023-.309.023-.474,0-.891-.226-1.614-.505-1.614s-.506.723-.506,1.614c0,.165.009.324.023.474a4.927,4.927,0,0,0-.531-.273c-.815-.36-1.568-.444-1.681-.189s.458.754,1.274,1.114a4.714,4.714,0,0,0,.672.24,4.585,4.585,0,0,0-.555.487c-.625.637-.969,1.311-.769,1.507s.866-.163,1.489-.8a4.453,4.453,0,0,0,.582-.723,4.441,4.441,0,0,0,.58.723c.625.637,1.291,1,1.491.8s-.145-.87-.769-1.507a4.6,4.6,0,0,0-.556-.487,4.7,4.7,0,0,0,.674-.24c.816-.36,1.386-.859,1.273-1.114"/>
        <path id="패스_14314" data-name="패스 14314" class="cls-6" d="M15.2,44.475a.456.456,0,1,1-.456-.456.456.456,0,0,1,.456.456"/>
        <path id="패스_14315" data-name="패스 14315" class="cls-5" d="M11.413,17.957c-.114-.255-.866-.171-1.682.189a4.913,4.913,0,0,0-.53.273c.014-.15.023-.309.023-.474,0-.891-.226-1.614-.505-1.614s-.505.723-.505,1.614c0,.165.008.324.022.474a4.913,4.913,0,0,0-.53-.273c-.816-.36-1.568-.444-1.681-.189s.458.754,1.273,1.114a4.727,4.727,0,0,0,.673.24,4.594,4.594,0,0,0-.556.487c-.624.637-.968,1.311-.769,1.507s.866-.163,1.489-.8a4.4,4.4,0,0,0,.582-.723,4.441,4.441,0,0,0,.58.723c.625.637,1.292,1,1.491.8s-.144-.87-.769-1.507a4.662,4.662,0,0,0-.555-.487,4.727,4.727,0,0,0,.673-.24c.816-.36,1.386-.859,1.273-1.114"/>
        <path id="패스_14316" data-name="패스 14316" class="cls-6" d="M9.175,19.026a.457.457,0,1,1-.456-.456.456.456,0,0,1,.456.456"/>
        <path id="패스_14317" data-name="패스 14317" class="cls-5" d="M7.46,17.072c-.113-.255-.865-.171-1.681.189a4.822,4.822,0,0,0-.53.273c.014-.15.022-.309.022-.474,0-.891-.226-1.614-.505-1.614s-.5.723-.5,1.614c0,.165.008.324.022.474a4.821,4.821,0,0,0-.53-.273c-.816-.36-1.568-.444-1.681-.189s.458.754,1.273,1.114a4.727,4.727,0,0,0,.673.24,4.6,4.6,0,0,0-.556.487c-.624.637-.968,1.311-.769,1.507s.866-.163,1.49-.8a4.395,4.395,0,0,0,.581-.723,4.447,4.447,0,0,0,.581.723c.624.637,1.291.995,1.491.8s-.145-.87-.769-1.507a4.6,4.6,0,0,0-.556-.487,4.739,4.739,0,0,0,.674-.24c.816-.36,1.386-.859,1.273-1.114"/>
        <path id="패스_14318" data-name="패스 14318" class="cls-6" d="M5.22,18.142a.457.457,0,1,1-.457-.456.456.456,0,0,1,.457.456"/>
        <path id="패스_14319" data-name="패스 14319" class="cls-5" d="M6.121,23.632c-.114-.255-.866-.171-1.682.189a4.807,4.807,0,0,0-.529.273c.014-.15.022-.309.022-.474,0-.891-.226-1.614-.5-1.614s-.505.723-.505,1.614c0,.165.008.324.022.474a4.913,4.913,0,0,0-.53-.273c-.816-.36-1.569-.444-1.681-.189s.458.754,1.273,1.114a4.727,4.727,0,0,0,.673.24,4.52,4.52,0,0,0-.556.487c-.625.637-.968,1.311-.77,1.507s.867-.163,1.491-.8a4.337,4.337,0,0,0,.58-.723,4.5,4.5,0,0,0,.581.723c.624.637,1.291.995,1.492.8s-.145-.87-.77-1.507a4.653,4.653,0,0,0-.552-.488,4.739,4.739,0,0,0,.674-.24c.816-.36,1.386-.859,1.273-1.114"/>
        <path id="패스_14320" data-name="패스 14320" class="cls-6" d="M3.882,24.7a.457.457,0,1,1-.457-.456.456.456,0,0,1,.457.456"/>
        <path id="패스_14321" data-name="패스 14321" class="cls-5" d="M6.121,19.867c-.114-.255-.866-.171-1.682.189a4.807,4.807,0,0,0-.529.273c.014-.15.022-.309.022-.474,0-.891-.226-1.614-.5-1.614s-.505.723-.505,1.614c0,.165.008.324.022.474a4.913,4.913,0,0,0-.53-.273C1.6,19.7.845,19.612.733,19.867s.458.754,1.273,1.114a4.727,4.727,0,0,0,.673.24,4.52,4.52,0,0,0-.556.487c-.625.637-.968,1.311-.77,1.507s.867-.163,1.491-.8a4.337,4.337,0,0,0,.58-.723,4.5,4.5,0,0,0,.581.723c.624.637,1.291.995,1.492.8s-.145-.87-.77-1.507a4.52,4.52,0,0,0-.556-.487,4.7,4.7,0,0,0,.674-.24c.816-.36,1.386-.859,1.273-1.114"/>
        <path id="패스_14322" data-name="패스 14322" class="cls-6" d="M3.882,20.937a.457.457,0,1,1-.457-.456.456.456,0,0,1,.457.456"/>
        <path id="패스_14323" data-name="패스 14323" class="cls-5" d="M17.327,19.867c-.113-.255-.865-.171-1.681.189a4.821,4.821,0,0,0-.53.273c.014-.15.022-.309.022-.474,0-.891-.226-1.614-.5-1.614s-.505.723-.505,1.614c0,.165.008.324.022.474a4.821,4.821,0,0,0-.53-.273c-.816-.36-1.568-.444-1.681-.189s.458.754,1.273,1.114a4.727,4.727,0,0,0,.673.24,4.6,4.6,0,0,0-.556.487c-.624.637-.968,1.311-.769,1.507s.866-.163,1.49-.8a4.395,4.395,0,0,0,.581-.723,4.447,4.447,0,0,0,.581.723c.624.637,1.291.995,1.491.8s-.145-.87-.769-1.507a4.6,4.6,0,0,0-.556-.487,4.739,4.739,0,0,0,.674-.24c.816-.36,1.386-.859,1.273-1.114"/>
        <path id="패스_14324" data-name="패스 14324" class="cls-6" d="M15.09,20.937a.457.457,0,1,1-.456-.456.456.456,0,0,1,.456.456"/>
        <path id="패스_14325" data-name="패스 14325" class="cls-5" d="M15.49,17.072c-.113-.255-.865-.171-1.681.189a4.821,4.821,0,0,0-.53.273c.014-.15.022-.309.022-.474,0-.891-.226-1.614-.505-1.614s-.5.723-.5,1.614c0,.165.008.324.022.474a4.821,4.821,0,0,0-.53-.273c-.816-.36-1.568-.444-1.681-.189s.458.754,1.273,1.114a4.727,4.727,0,0,0,.673.24,4.6,4.6,0,0,0-.556.487c-.624.637-.968,1.311-.769,1.507s.866-.163,1.49-.8a4.395,4.395,0,0,0,.581-.723,4.447,4.447,0,0,0,.581.723c.624.637,1.291.995,1.491.8s-.145-.87-.769-1.507a4.6,4.6,0,0,0-.556-.487,4.739,4.739,0,0,0,.674-.24c.816-.36,1.386-.859,1.273-1.114"/>
        <path id="패스_14326" data-name="패스 14326" class="cls-6" d="M13.257,18.142a.457.457,0,1,1-.457-.456.457.457,0,0,1,.457.456"/>
        <path id="패스_14327" data-name="패스 14327" class="cls-5" d="M17.327,23.945c-.113-.255-.865-.171-1.681.189a4.822,4.822,0,0,0-.53.273c.014-.15.022-.309.022-.474,0-.891-.226-1.614-.5-1.614s-.505.723-.505,1.614c0,.165.008.324.022.474a4.822,4.822,0,0,0-.53-.273c-.816-.36-1.568-.444-1.681-.189s.458.754,1.273,1.114a4.727,4.727,0,0,0,.673.24,4.6,4.6,0,0,0-.556.487c-.624.637-.968,1.311-.769,1.507s.866-.163,1.49-.8a4.394,4.394,0,0,0,.581-.723,4.447,4.447,0,0,0,.581.723c.624.637,1.291,1,1.491.8s-.145-.87-.769-1.507a4.6,4.6,0,0,0-.556-.487,4.739,4.739,0,0,0,.674-.24c.816-.36,1.386-.859,1.273-1.114"/>
        <circle id="타원_693" data-name="타원 693" class="cls-6" cx="0.456" cy="0.456" r="0.456" transform="translate(14.177 24.559)"/>
        <path id="패스_14328" data-name="패스 14328" class="cls-5" d="M9.5,20.313c-.113-.255-.865-.171-1.681.189a4.822,4.822,0,0,0-.53.273c.014-.15.022-.309.022-.474,0-.891-.226-1.614-.5-1.614S6.3,19.41,6.3,20.3c0,.165.008.324.022.474a4.822,4.822,0,0,0-.53-.273c-.816-.36-1.568-.444-1.681-.189s.458.754,1.273,1.114a4.727,4.727,0,0,0,.673.24,4.6,4.6,0,0,0-.556.487c-.624.637-.968,1.311-.769,1.507s.866-.163,1.49-.8a4.395,4.395,0,0,0,.581-.723,4.447,4.447,0,0,0,.581.723c.624.637,1.291,1,1.491.8s-.145-.87-.769-1.507a4.6,4.6,0,0,0-.556-.487,4.739,4.739,0,0,0,.674-.24c.816-.36,1.386-.859,1.273-1.114"/>
        <path id="패스_14329" data-name="패스 14329" class="cls-6" d="M7.264,21.383a.456.456,0,1,1-.457-.456.456.456,0,0,1,.457.456"/>
        <path id="패스_14330" data-name="패스 14330" class="cls-5" d="M13.413,20.313c-.114-.255-.866-.171-1.682.189a4.913,4.913,0,0,0-.53.273c.014-.15.023-.309.023-.474,0-.891-.226-1.614-.505-1.614s-.505.723-.505,1.614c0,.165.008.324.022.474A4.928,4.928,0,0,0,9.7,20.5c-.815-.36-1.568-.444-1.681-.189s.459.754,1.274,1.114a4.758,4.758,0,0,0,.672.24,4.662,4.662,0,0,0-.555.487c-.625.637-.969,1.311-.769,1.507s.866-.163,1.489-.8a4.327,4.327,0,0,0,.577-.724,4.5,4.5,0,0,0,.581.723c.624.637,1.292.995,1.492.8s-.146-.87-.769-1.507a4.6,4.6,0,0,0-.556-.487,4.829,4.829,0,0,0,.674-.24c.816-.36,1.385-.859,1.272-1.114"/>
        <path id="패스_14331" data-name="패스 14331" class="cls-6" d="M11.172,21.383a.457.457,0,1,1-.457-.456A.457.457,0,0,1,11.172,21.383Z"/>
        <path id="패스_14332" data-name="패스 14332" class="cls-5" d="M11.413,22.2c-.114-.255-.866-.171-1.682.189a4.913,4.913,0,0,0-.53.273c.014-.15.023-.309.023-.474,0-.891-.226-1.614-.505-1.614s-.505.723-.505,1.614c0,.165.008.324.022.474a4.913,4.913,0,0,0-.53-.273c-.816-.36-1.568-.444-1.681-.189s.458.754,1.273,1.114a4.727,4.727,0,0,0,.673.24,4.594,4.594,0,0,0-.556.487c-.624.637-.968,1.311-.769,1.507s.866-.163,1.489-.8a4.4,4.4,0,0,0,.582-.723,4.441,4.441,0,0,0,.58.723c.625.637,1.292.995,1.491.8s-.144-.87-.769-1.507a4.662,4.662,0,0,0-.555-.487,4.727,4.727,0,0,0,.673-.24c.816-.36,1.386-.859,1.273-1.114"/>
        <path id="패스_14333" data-name="패스 14333" class="cls-6" d="M9.175,23.268a.457.457,0,1,1-.456-.456.456.456,0,0,1,.456.456"/>
        <path id="패스_14334" data-name="패스 14334" class="cls-5" d="M11.413,15.717c-.114-.255-.866-.171-1.682.189a4.913,4.913,0,0,0-.53.273c.014-.15.023-.309.023-.474,0-.891-.226-1.614-.505-1.614s-.505.723-.505,1.614c0,.165.008.324.022.474a4.913,4.913,0,0,0-.53-.273c-.816-.36-1.568-.444-1.681-.189s.458.754,1.273,1.114a4.727,4.727,0,0,0,.673.24,4.6,4.6,0,0,0-.556.487c-.624.637-.968,1.311-.769,1.507s.866-.163,1.489-.8a4.4,4.4,0,0,0,.582-.723,4.441,4.441,0,0,0,.58.723c.625.637,1.292,1,1.491.8s-.144-.87-.769-1.507a4.663,4.663,0,0,0-.555-.487,4.727,4.727,0,0,0,.673-.24c.816-.36,1.386-.859,1.273-1.114"/>
        <path id="패스_14335" data-name="패스 14335" class="cls-6" d="M9.175,16.786a.457.457,0,1,1-.456-.456.456.456,0,0,1,.456.456"/>
        <path id="패스_14336" data-name="패스 14336" class="cls-5" d="M9.5,24.712c-.113-.255-.865-.171-1.681.189a4.822,4.822,0,0,0-.53.273c.014-.15.022-.309.022-.474,0-.891-.226-1.614-.5-1.614S6.3,23.809,6.3,24.7c0,.165.008.324.022.474a4.822,4.822,0,0,0-.53-.273c-.816-.36-1.568-.444-1.681-.189s.458.754,1.273,1.114a4.727,4.727,0,0,0,.673.24,4.6,4.6,0,0,0-.556.487c-.624.637-.968,1.311-.769,1.507s.866-.163,1.49-.8a4.395,4.395,0,0,0,.581-.723,4.447,4.447,0,0,0,.581.723c.624.637,1.291.995,1.491.8s-.145-.87-.769-1.507a4.6,4.6,0,0,0-.556-.487,4.739,4.739,0,0,0,.674-.24c.816-.36,1.386-.859,1.273-1.114"/>
        <path id="패스_14337" data-name="패스 14337" class="cls-6" d="M7.264,25.778a.456.456,0,1,1-.457-.456.456.456,0,0,1,.457.456"/>
        <path id="패스_14338" data-name="패스 14338" class="cls-5" d="M13.585,24.712c-.114-.255-.866-.171-1.682.189a4.913,4.913,0,0,0-.53.273c.014-.15.023-.309.023-.474,0-.891-.226-1.614-.505-1.614s-.506.723-.506,1.614c0,.165.009.324.023.474a4.928,4.928,0,0,0-.531-.273c-.815-.36-1.568-.444-1.681-.189s.459.754,1.274,1.114a4.758,4.758,0,0,0,.672.24,4.585,4.585,0,0,0-.555.487c-.625.637-.969,1.311-.769,1.507s.866-.163,1.489-.8a4.453,4.453,0,0,0,.582-.723,4.441,4.441,0,0,0,.58.723c.625.637,1.291.995,1.491.8s-.144-.87-.769-1.507a4.6,4.6,0,0,0-.556-.487,4.7,4.7,0,0,0,.674-.24c.816-.36,1.386-.859,1.273-1.114"/>
        <circle id="타원_694" data-name="타원 694" class="cls-6" cx="0.456" cy="0.456" r="0.456" transform="translate(10.437 25.322)"/>
        <path id="패스_14339" data-name="패스 14339" class="cls-5" d="M11.413,26.881c-.114-.255-.866-.171-1.682.189a4.913,4.913,0,0,0-.53.273c.014-.15.023-.309.023-.474,0-.891-.226-1.614-.505-1.614s-.505.723-.505,1.614c0,.165.008.324.022.474a4.913,4.913,0,0,0-.53-.273c-.816-.36-1.568-.444-1.681-.189S6.483,27.635,7.3,28a4.727,4.727,0,0,0,.673.24,4.594,4.594,0,0,0-.556.487c-.624.637-.968,1.311-.769,1.507s.866-.163,1.489-.8a4.4,4.4,0,0,0,.582-.723,4.441,4.441,0,0,0,.58.723c.625.637,1.292.995,1.491.8s-.144-.87-.769-1.507a4.662,4.662,0,0,0-.555-.487,4.727,4.727,0,0,0,.673-.24c.816-.36,1.386-.859,1.273-1.114"/>
        <path id="패스_14340" data-name="패스 14340" class="cls-6" d="M9.175,27.953a.457.457,0,1,1-.456-.456.456.456,0,0,1,.456.456"/>
        <path id="패스_14341" data-name="패스 14341" class="cls-5" d="M33.912,12.634c-.113-.255-.865-.171-1.681.189a4.822,4.822,0,0,0-.53.273c.014-.15.022-.309.022-.474,0-.891-.226-1.614-.5-1.614s-.506.723-.506,1.614c0,.165.008.324.022.474a4.822,4.822,0,0,0-.53-.273c-.816-.36-1.568-.444-1.681-.189s.458.754,1.273,1.114a4.727,4.727,0,0,0,.673.24,4.6,4.6,0,0,0-.556.487c-.624.637-.968,1.311-.769,1.507s.866-.163,1.49-.8a4.395,4.395,0,0,0,.581-.723,4.447,4.447,0,0,0,.581.723c.624.637,1.291.995,1.491.8s-.145-.87-.769-1.507a4.6,4.6,0,0,0-.556-.487,4.739,4.739,0,0,0,.674-.24c.816-.36,1.386-.859,1.273-1.114"/>
        <path id="패스_14342" data-name="패스 14342" class="cls-6" d="M31.677,13.7a.457.457,0,1,1-.457-.456.457.457,0,0,1,.457.456"/>
        <path id="패스_14343" data-name="패스 14343" class="cls-5" d="M29.963,11.749c-.113-.255-.865-.171-1.681.189a4.822,4.822,0,0,0-.53.273c.014-.15.022-.309.022-.474,0-.891-.226-1.614-.505-1.614s-.5.723-.5,1.614c0,.165.008.324.022.474a4.822,4.822,0,0,0-.53-.273c-.816-.36-1.568-.444-1.681-.189s.459.753,1.273,1.114a4.727,4.727,0,0,0,.673.24,4.6,4.6,0,0,0-.556.487C25.341,14.227,25,14.9,25.2,15.1s.866-.163,1.49-.8a4.395,4.395,0,0,0,.581-.723,4.447,4.447,0,0,0,.581.723c.624.637,1.291.995,1.491.8s-.145-.87-.769-1.507a4.6,4.6,0,0,0-.556-.487,4.739,4.739,0,0,0,.674-.24c.816-.36,1.386-.859,1.273-1.114"/>
        <path id="패스_14344" data-name="패스 14344" class="cls-6" d="M27.725,12.819a.456.456,0,1,1-.457-.456A.456.456,0,0,1,27.725,12.819Z"/>
        <path id="패스_14345" data-name="패스 14345" class="cls-5" d="M28.622,18.31c-.113-.255-.865-.171-1.681.189a4.822,4.822,0,0,0-.53.273c.014-.15.022-.309.022-.474,0-.891-.226-1.614-.505-1.614s-.5.723-.5,1.614c0,.165.008.324.022.474a4.822,4.822,0,0,0-.53-.273c-.816-.36-1.568-.444-1.681-.189s.458.754,1.273,1.114a4.727,4.727,0,0,0,.673.24,4.6,4.6,0,0,0-.556.487c-.624.637-.968,1.311-.769,1.507s.866-.163,1.49-.8a4.395,4.395,0,0,0,.581-.723,4.447,4.447,0,0,0,.581.723c.624.637,1.291,1,1.491.8s-.145-.87-.769-1.507a4.6,4.6,0,0,0-.556-.487,4.739,4.739,0,0,0,.674-.24c.816-.36,1.386-.859,1.273-1.114"/>
        <path id="패스_14346" data-name="패스 14346" class="cls-6" d="M26.383,19.379a.456.456,0,1,1-.456-.456A.456.456,0,0,1,26.383,19.379Z"/>
        <path id="패스_14347" data-name="패스 14347" class="cls-5" d="M28.622,14.545c-.113-.255-.865-.171-1.681.189a4.822,4.822,0,0,0-.53.273c.014-.15.022-.309.022-.474,0-.891-.226-1.614-.505-1.614s-.5.723-.5,1.614c0,.165.008.324.022.474a4.822,4.822,0,0,0-.53-.273c-.816-.36-1.568-.444-1.681-.189s.458.754,1.273,1.114a4.727,4.727,0,0,0,.673.24,4.594,4.594,0,0,0-.556.487c-.624.637-.968,1.311-.769,1.507s.866-.163,1.49-.8a4.395,4.395,0,0,0,.581-.723,4.447,4.447,0,0,0,.581.723c.624.637,1.291.995,1.491.8s-.145-.87-.769-1.507a4.6,4.6,0,0,0-.556-.487,4.739,4.739,0,0,0,.674-.24c.816-.36,1.386-.859,1.273-1.114"/>
        <path id="패스_14348" data-name="패스 14348" class="cls-6" d="M26.383,15.614a.456.456,0,1,1-.456-.456.456.456,0,0,1,.456.456"/>
        <path id="패스_14349" data-name="패스 14349" class="cls-5" d="M39.83,14.545c-.113-.255-.865-.171-1.681.189a4.822,4.822,0,0,0-.53.273c.014-.15.022-.309.022-.474,0-.891-.226-1.614-.5-1.614s-.505.723-.505,1.614c0,.165.008.324.022.474a4.822,4.822,0,0,0-.53-.273c-.816-.36-1.568-.444-1.681-.189s.458.754,1.273,1.114a4.727,4.727,0,0,0,.673.24,4.594,4.594,0,0,0-.556.487c-.624.637-.968,1.311-.769,1.507s.866-.163,1.49-.8a4.395,4.395,0,0,0,.581-.723,4.447,4.447,0,0,0,.581.723c.624.637,1.291.995,1.491.8s-.145-.87-.769-1.507a4.6,4.6,0,0,0-.556-.487,4.739,4.739,0,0,0,.674-.24c.816-.36,1.386-.859,1.273-1.114"/>
        <path id="패스_14350" data-name="패스 14350" class="cls-6" d="M37.591,15.614a.456.456,0,1,1-.456-.456.456.456,0,0,1,.456.456"/>
        <path id="패스_14351" data-name="패스 14351" class="cls-5" d="M38,11.749c-.114-.255-.866-.171-1.682.189a4.913,4.913,0,0,0-.53.273c.014-.15.022-.309.022-.474,0-.891-.225-1.614-.5-1.614s-.505.723-.505,1.614c0,.165.007.324.021.474a4.9,4.9,0,0,0-.529-.273c-.817-.36-1.569-.444-1.681-.189s.458.754,1.272,1.114a4.739,4.739,0,0,0,.674.24A4.52,4.52,0,0,0,34,13.59c-.625.637-.969,1.311-.77,1.507s.867-.163,1.491-.8a4.441,4.441,0,0,0,.58-.723,4.5,4.5,0,0,0,.581.723c.625.637,1.292.995,1.492.8s-.145-.87-.77-1.507a4.663,4.663,0,0,0-.555-.487,4.727,4.727,0,0,0,.673-.24c.816-.36,1.386-.859,1.273-1.114"/>
        <path id="패스_14352" data-name="패스 14352" class="cls-6" d="M35.758,12.819a.456.456,0,1,1-.456-.456A.456.456,0,0,1,35.758,12.819Z"/>
        <path id="패스_14353" data-name="패스 14353" class="cls-5" d="M39.83,18.622c-.113-.255-.865-.17-1.681.189a4.822,4.822,0,0,0-.53.273c.014-.15.022-.309.022-.474,0-.891-.226-1.614-.5-1.614s-.505.723-.505,1.614c0,.165.008.324.022.474a4.822,4.822,0,0,0-.53-.273c-.816-.36-1.568-.444-1.681-.189s.458.754,1.273,1.114a4.853,4.853,0,0,0,.673.24,4.594,4.594,0,0,0-.556.487c-.624.637-.968,1.311-.769,1.507s.866-.163,1.49-.8a4.395,4.395,0,0,0,.581-.723,4.447,4.447,0,0,0,.581.723c.624.637,1.291,1,1.491.8s-.145-.87-.769-1.507a4.6,4.6,0,0,0-.556-.487,4.739,4.739,0,0,0,.674-.24c.816-.36,1.386-.859,1.273-1.114"/>
        <path id="패스_14354" data-name="패스 14354" class="cls-6" d="M37.591,19.692a.456.456,0,1,1-.456-.456A.456.456,0,0,1,37.591,19.692Z"/>
        <path id="패스_14355" data-name="패스 14355" class="cls-5" d="M32.005,14.994c-.113-.255-.866-.171-1.682.189a4.9,4.9,0,0,0-.529.273c.014-.15.022-.309.022-.474,0-.891-.226-1.614-.5-1.614s-.505.723-.505,1.614c0,.165.008.324.022.474a5.008,5.008,0,0,0-.53-.273c-.816-.36-1.569-.444-1.681-.189s.458.754,1.273,1.114a4.727,4.727,0,0,0,.673.24,4.6,4.6,0,0,0-.556.487c-.625.637-.969,1.311-.769,1.507s.866-.163,1.49-.8a4.394,4.394,0,0,0,.581-.723,4.441,4.441,0,0,0,.58.723c.625.637,1.292,1,1.492.8s-.145-.87-.77-1.507a4.585,4.585,0,0,0-.555-.487,4.727,4.727,0,0,0,.673-.24c.816-.36,1.386-.859,1.273-1.114"/>
        <path id="패스_14356" data-name="패스 14356" class="cls-6" d="M29.765,16.06a.456.456,0,1,1-.456-.456.456.456,0,0,1,.456.456"/>
        <path id="패스_14357" data-name="패스 14357" class="cls-5" d="M35.912,14.994c-.113-.255-.865-.171-1.681.189a4.822,4.822,0,0,0-.53.273c.014-.15.022-.309.022-.474,0-.891-.226-1.614-.505-1.614s-.5.723-.5,1.614c0,.165.008.324.022.474a4.822,4.822,0,0,0-.53-.273c-.816-.36-1.568-.444-1.681-.189s.458.754,1.273,1.114a4.727,4.727,0,0,0,.673.24,4.6,4.6,0,0,0-.556.487c-.624.637-.968,1.311-.769,1.507s.866-.163,1.49-.8a4.394,4.394,0,0,0,.581-.723,4.447,4.447,0,0,0,.581.723c.624.637,1.291,1,1.491.8s-.145-.87-.769-1.507a4.6,4.6,0,0,0-.556-.487,4.739,4.739,0,0,0,.674-.24c.816-.36,1.386-.859,1.273-1.114"/>
        <path id="패스_14358" data-name="패스 14358" class="cls-6" d="M33.673,16.06a.456.456,0,1,1-.456-.456.456.456,0,0,1,.456.456"/>
        <path id="패스_14359" data-name="패스 14359" class="cls-5" d="M33.912,16.876c-.113-.255-.865-.17-1.681.189a4.822,4.822,0,0,0-.53.273c.014-.15.022-.309.022-.474,0-.891-.226-1.614-.5-1.614s-.505.723-.505,1.614c0,.165.008.324.022.474a4.822,4.822,0,0,0-.53-.273c-.816-.36-1.568-.444-1.681-.189s.458.754,1.273,1.114a4.853,4.853,0,0,0,.673.24,4.6,4.6,0,0,0-.556.487c-.624.637-.968,1.311-.769,1.507s.866-.163,1.49-.8a4.394,4.394,0,0,0,.581-.723,4.447,4.447,0,0,0,.581.723c.624.637,1.291,1,1.491.8s-.145-.87-.769-1.507a4.6,4.6,0,0,0-.556-.487,4.739,4.739,0,0,0,.674-.24c.816-.36,1.386-.859,1.273-1.114"/>
        <path id="패스_14360" data-name="패스 14360" class="cls-6" d="M31.677,17.946a.457.457,0,1,1-.457-.456.457.457,0,0,1,.457.456"/>
        <path id="패스_14361" data-name="패스 14361" class="cls-5" d="M33.912,10.394c-.113-.255-.865-.171-1.681.189a4.822,4.822,0,0,0-.53.273c.014-.15.022-.309.022-.474,0-.891-.226-1.614-.5-1.614s-.506.723-.506,1.614c0,.165.008.324.022.474a4.822,4.822,0,0,0-.53-.273c-.816-.36-1.568-.444-1.681-.189s.458.754,1.273,1.114a4.727,4.727,0,0,0,.673.24,4.6,4.6,0,0,0-.556.487c-.624.637-.968,1.311-.769,1.507s.866-.163,1.49-.8a4.395,4.395,0,0,0,.581-.723,4.447,4.447,0,0,0,.581.723c.624.637,1.291.995,1.491.8s-.145-.87-.769-1.507a4.6,4.6,0,0,0-.556-.487,4.739,4.739,0,0,0,.674-.24c.816-.36,1.386-.859,1.273-1.114"/>
        <path id="패스_14362" data-name="패스 14362" class="cls-6" d="M31.677,11.464a.457.457,0,1,1-.457-.456.457.457,0,0,1,.457.456"/>
        <path id="패스_14363" data-name="패스 14363" class="cls-5" d="M32.005,19.389c-.113-.255-.866-.171-1.682.189a4.9,4.9,0,0,0-.529.273c.014-.15.022-.309.022-.474,0-.891-.226-1.614-.5-1.614s-.505.723-.505,1.614c0,.165.008.324.022.474a5.008,5.008,0,0,0-.53-.273c-.816-.36-1.569-.444-1.681-.189s.458.754,1.273,1.114a4.727,4.727,0,0,0,.673.24,4.6,4.6,0,0,0-.556.487c-.625.637-.969,1.311-.769,1.507s.866-.163,1.49-.8a4.395,4.395,0,0,0,.581-.723,4.441,4.441,0,0,0,.58.723c.625.637,1.292.995,1.492.8s-.145-.87-.77-1.507a4.585,4.585,0,0,0-.555-.487,4.727,4.727,0,0,0,.673-.24c.816-.36,1.386-.859,1.273-1.114"/>
        <path id="패스_14364" data-name="패스 14364" class="cls-6" d="M29.765,20.459A.456.456,0,1,1,29.309,20,.456.456,0,0,1,29.765,20.459Z"/>
        <path id="패스_14365" data-name="패스 14365" class="cls-5" d="M36.09,19.389c-.113-.255-.865-.171-1.681.189a4.822,4.822,0,0,0-.53.273c.014-.15.022-.309.022-.474,0-.891-.226-1.614-.505-1.614s-.505.723-.505,1.614c0,.165.008.324.022.474a4.822,4.822,0,0,0-.53-.273c-.816-.36-1.568-.444-1.681-.189s.458.754,1.274,1.114a4.671,4.671,0,0,0,.672.24,4.6,4.6,0,0,0-.556.487c-.624.637-.968,1.311-.769,1.507s.866-.163,1.49-.8a4.394,4.394,0,0,0,.581-.723,4.447,4.447,0,0,0,.581.723c.624.637,1.291.995,1.491.8s-.145-.87-.769-1.507a4.594,4.594,0,0,0-.556-.487,4.739,4.739,0,0,0,.674-.24c.816-.36,1.386-.859,1.273-1.114"/>
        <path id="패스_14366" data-name="패스 14366" class="cls-6" d="M33.852,20.459A.457.457,0,1,1,33.4,20,.456.456,0,0,1,33.852,20.459Z"/>
        <path id="패스_14367" data-name="패스 14367" class="cls-5" d="M33.912,21.558c-.113-.255-.865-.171-1.681.189a4.822,4.822,0,0,0-.53.273c.014-.15.022-.309.022-.474,0-.891-.226-1.614-.5-1.614s-.505.723-.505,1.614c0,.165.008.324.022.474a4.822,4.822,0,0,0-.53-.273c-.816-.36-1.568-.444-1.681-.189s.458.754,1.273,1.114a4.727,4.727,0,0,0,.673.24,4.6,4.6,0,0,0-.556.487c-.624.637-.968,1.311-.769,1.507s.866-.163,1.49-.8a4.395,4.395,0,0,0,.581-.723,4.447,4.447,0,0,0,.581.723c.624.637,1.291.995,1.491.8s-.145-.87-.769-1.507a4.6,4.6,0,0,0-.556-.487,4.739,4.739,0,0,0,.674-.24c.816-.36,1.386-.859,1.273-1.114"/>
        <path id="패스_14368" data-name="패스 14368" class="cls-6" d="M31.677,22.628a.457.457,0,1,1-.457-.456.457.457,0,0,1,.457.456"/>
        <path id="패스_14369" data-name="패스 14369" class="cls-5" d="M34.227,29.684c-.114-.255-.866-.171-1.682.189a4.913,4.913,0,0,0-.53.273c.014-.15.022-.309.022-.474,0-.891-.225-1.614-.5-1.614s-.505.723-.505,1.614c0,.165.008.324.022.474a5.008,5.008,0,0,0-.53-.273c-.816-.36-1.569-.444-1.681-.189s.458.754,1.273,1.114a4.727,4.727,0,0,0,.673.24,4.594,4.594,0,0,0-.556.487c-.625.637-.969,1.311-.769,1.507s.866-.163,1.49-.8a4.394,4.394,0,0,0,.581-.723,4.441,4.441,0,0,0,.58.723c.625.637,1.292,1,1.492.8s-.145-.87-.77-1.507a4.663,4.663,0,0,0-.555-.487,4.727,4.727,0,0,0,.673-.24c.816-.36,1.386-.859,1.273-1.114"/>
        <path id="패스_14370" data-name="패스 14370" class="cls-6" d="M31.987,30.759a.456.456,0,1,1-.456-.456.456.456,0,0,1,.456.456"/>
        <path id="패스_14371" data-name="패스 14371" class="cls-5" d="M30.274,28.8c-.114-.255-.866-.171-1.682.189a4.719,4.719,0,0,0-.529.273c.013-.15.021-.309.021-.474,0-.891-.226-1.614-.5-1.614s-.506.723-.506,1.614c0,.165.009.324.023.474a4.927,4.927,0,0,0-.531-.273c-.816-.36-1.568-.444-1.681-.189s.459.754,1.274,1.114a4.671,4.671,0,0,0,.672.24,4.672,4.672,0,0,0-.556.487c-.624.637-.968,1.311-.768,1.507s.865-.163,1.49-.8a4.389,4.389,0,0,0,.58-.723,4.5,4.5,0,0,0,.581.723c.624.637,1.291,1,1.491.8s-.145-.87-.769-1.507a4.594,4.594,0,0,0-.556-.487,4.7,4.7,0,0,0,.674-.24c.816-.36,1.386-.859,1.273-1.114"/>
        <path id="패스_14372" data-name="패스 14372" class="cls-6" d="M28.035,29.874a.456.456,0,1,1-.456-.456.456.456,0,0,1,.456.456"/>
        <path id="패스_14373" data-name="패스 14373" class="cls-5" d="M28.934,35.364c-.114-.255-.866-.171-1.682.189a4.821,4.821,0,0,0-.53.273c.014-.15.022-.309.022-.474,0-.891-.226-1.614-.5-1.614s-.506.723-.506,1.614c0,.165.009.324.023.474a4.927,4.927,0,0,0-.531-.273c-.816-.36-1.568-.444-1.681-.189s.458.754,1.274,1.114a4.671,4.671,0,0,0,.672.24,4.672,4.672,0,0,0-.556.487c-.624.637-.968,1.311-.768,1.507s.865-.163,1.489-.8a4.394,4.394,0,0,0,.581-.723,4.5,4.5,0,0,0,.581.723c.624.637,1.291,1,1.491.8s-.145-.87-.769-1.507a4.6,4.6,0,0,0-.556-.487,4.7,4.7,0,0,0,.674-.24c.816-.36,1.386-.859,1.273-1.114"/>
        <path id="패스_14374" data-name="패스 14374" class="cls-6" d="M26.694,36.434a.456.456,0,1,1-.456-.456.456.456,0,0,1,.456.456"/>
        <path id="패스_14375" data-name="패스 14375" class="cls-5" d="M28.934,31.6c-.114-.255-.866-.171-1.682.189a4.821,4.821,0,0,0-.53.273c.014-.15.022-.309.022-.474,0-.891-.226-1.614-.5-1.614s-.506.723-.506,1.614c0,.165.009.324.023.474a4.927,4.927,0,0,0-.531-.273c-.816-.36-1.568-.444-1.681-.189s.458.754,1.274,1.114a4.671,4.671,0,0,0,.672.24,4.672,4.672,0,0,0-.556.487c-.624.637-.968,1.311-.768,1.507s.865-.163,1.489-.8a4.394,4.394,0,0,0,.581-.723,4.5,4.5,0,0,0,.581.723c.624.637,1.291,1,1.491.8s-.145-.87-.769-1.507a4.6,4.6,0,0,0-.556-.487,4.7,4.7,0,0,0,.674-.24c.816-.36,1.386-.859,1.273-1.114"/>
        <path id="패스_14376" data-name="패스 14376" class="cls-6" d="M26.694,32.669a.456.456,0,1,1-.456-.456.456.456,0,0,1,.456.456"/>
        <path id="패스_14377" data-name="패스 14377" class="cls-5" d="M40.14,31.6c-.113-.255-.865-.171-1.681.189a4.821,4.821,0,0,0-.53.273c.014-.15.022-.309.022-.474,0-.891-.226-1.614-.505-1.614s-.5.723-.5,1.614c0,.165.008.324.022.474a4.821,4.821,0,0,0-.53-.273c-.816-.36-1.568-.444-1.681-.189s.458.754,1.273,1.114a4.726,4.726,0,0,0,.673.24,4.6,4.6,0,0,0-.556.487c-.624.637-.968,1.311-.769,1.507s.866-.163,1.49-.8a4.394,4.394,0,0,0,.581-.723,4.447,4.447,0,0,0,.581.723c.624.637,1.291,1,1.491.8s-.145-.87-.769-1.507a4.6,4.6,0,0,0-.556-.487,4.739,4.739,0,0,0,.674-.24c.816-.36,1.386-.859,1.273-1.114"/>
        <path id="패스_14378" data-name="패스 14378" class="cls-6" d="M37.9,32.669a.456.456,0,1,1-.457-.456.457.457,0,0,1,.457.456"/>
        <path id="패스_14379" data-name="패스 14379" class="cls-5" d="M38.307,28.8c-.113-.255-.865-.171-1.681.189a4.821,4.821,0,0,0-.53.273c.014-.15.022-.309.022-.474,0-.891-.226-1.614-.505-1.614s-.5.723-.5,1.614c0,.165.008.324.022.474a4.821,4.821,0,0,0-.53-.273c-.816-.36-1.568-.444-1.681-.189s.458.754,1.273,1.114a4.727,4.727,0,0,0,.673.24,4.594,4.594,0,0,0-.556.487c-.624.637-.968,1.311-.769,1.507s.867-.163,1.49-.8a4.394,4.394,0,0,0,.581-.723,4.447,4.447,0,0,0,.581.723c.624.637,1.291,1,1.491.8s-.145-.87-.769-1.507a4.6,4.6,0,0,0-.556-.487,4.739,4.739,0,0,0,.674-.24c.816-.36,1.386-.859,1.273-1.114"/>
        <path id="패스_14380" data-name="패스 14380" class="cls-6" d="M36.07,29.874a.456.456,0,1,1-.456-.456.456.456,0,0,1,.456.456"/>
        <path id="패스_14381" data-name="패스 14381" class="cls-5" d="M40.14,35.677c-.113-.255-.865-.171-1.681.189a4.821,4.821,0,0,0-.53.273c.014-.15.022-.309.022-.474,0-.891-.226-1.614-.505-1.614s-.5.723-.5,1.614c0,.165.008.324.022.474a4.821,4.821,0,0,0-.53-.273c-.816-.36-1.568-.444-1.681-.189s.458.754,1.273,1.114a4.726,4.726,0,0,0,.673.24,4.6,4.6,0,0,0-.556.487c-.624.637-.968,1.311-.769,1.507s.866-.163,1.49-.8a4.394,4.394,0,0,0,.581-.723,4.447,4.447,0,0,0,.581.723c.624.637,1.291,1,1.491.8s-.145-.87-.769-1.507a4.6,4.6,0,0,0-.556-.487,4.739,4.739,0,0,0,.674-.24c.816-.36,1.386-.859,1.273-1.114"/>
        <path id="패스_14382" data-name="패스 14382" class="cls-6" d="M37.9,36.747a.456.456,0,1,1-.457-.456.457.457,0,0,1,.457.456"/>
        <path id="패스_14383" data-name="패스 14383" class="cls-5" d="M32.315,32.045c-.113-.255-.865-.171-1.681.189a4.821,4.821,0,0,0-.53.273c.014-.15.022-.309.022-.474,0-.891-.226-1.614-.5-1.614s-.505.723-.505,1.614c0,.165.008.324.022.474a4.821,4.821,0,0,0-.53-.273c-.816-.36-1.568-.444-1.681-.189s.458.754,1.273,1.114a4.727,4.727,0,0,0,.673.24,4.6,4.6,0,0,0-.556.487c-.624.637-.968,1.311-.769,1.507s.866-.163,1.49-.8a4.394,4.394,0,0,0,.581-.723,4.447,4.447,0,0,0,.581.723c.624.637,1.291,1,1.491.8s-.145-.87-.769-1.507a4.6,4.6,0,0,0-.556-.487,4.739,4.739,0,0,0,.674-.24c.816-.36,1.386-.859,1.273-1.114"/>
        <path id="패스_14384" data-name="패스 14384" class="cls-6" d="M30.076,33.11a.456.456,0,1,1-.456-.456.456.456,0,0,1,.456.456"/>
        <path id="패스_14385" data-name="패스 14385" class="cls-5" d="M36.223,32.045c-.113-.255-.865-.171-1.681.189a4.821,4.821,0,0,0-.53.273c.014-.15.022-.309.022-.474,0-.891-.226-1.614-.505-1.614s-.505.723-.505,1.614c0,.165.008.324.022.474a4.821,4.821,0,0,0-.53-.273c-.816-.36-1.568-.444-1.681-.189s.458.754,1.273,1.114a4.726,4.726,0,0,0,.673.24,4.6,4.6,0,0,0-.556.487c-.624.637-.968,1.311-.769,1.507s.866-.163,1.49-.8a4.394,4.394,0,0,0,.581-.723,4.447,4.447,0,0,0,.581.723c.624.637,1.291,1,1.491.8s-.145-.87-.769-1.507a4.6,4.6,0,0,0-.556-.487,4.739,4.739,0,0,0,.674-.24c.816-.36,1.386-.859,1.273-1.114"/>
        <path id="패스_14386" data-name="패스 14386" class="cls-6" d="M33.985,33.11a.457.457,0,1,1-.457-.456.457.457,0,0,1,.457.456"/>
        <path id="패스_14387" data-name="패스 14387" class="cls-5" d="M34.227,33.931c-.114-.255-.866-.171-1.682.189a4.913,4.913,0,0,0-.53.273c.014-.15.022-.309.022-.474,0-.891-.225-1.614-.5-1.614s-.505.723-.505,1.614c0,.165.008.324.022.474a5.008,5.008,0,0,0-.53-.273c-.816-.36-1.569-.444-1.681-.189s.458.754,1.273,1.114a4.727,4.727,0,0,0,.673.24,4.6,4.6,0,0,0-.556.487c-.625.637-.969,1.311-.769,1.507s.866-.163,1.49-.8a4.395,4.395,0,0,0,.581-.723,4.441,4.441,0,0,0,.58.723c.625.637,1.292.995,1.492.8s-.145-.87-.77-1.507a4.663,4.663,0,0,0-.555-.487,4.727,4.727,0,0,0,.673-.24c.816-.36,1.386-.859,1.273-1.114"/>
        <path id="패스_14388" data-name="패스 14388" class="cls-6" d="M31.987,35a.456.456,0,1,1-.456-.456.456.456,0,0,1,.456.456"/>
        <path id="패스_14389" data-name="패스 14389" class="cls-5" d="M34.227,27.449c-.114-.255-.866-.171-1.682.189a4.913,4.913,0,0,0-.53.273c.014-.15.022-.309.022-.474,0-.891-.225-1.614-.5-1.614s-.505.723-.505,1.614c0,.165.008.324.022.474a5.008,5.008,0,0,0-.53-.273c-.816-.36-1.569-.444-1.681-.189s.458.754,1.273,1.114a4.727,4.727,0,0,0,.673.24,4.6,4.6,0,0,0-.556.487c-.625.637-.969,1.311-.769,1.507s.866-.163,1.49-.8a4.394,4.394,0,0,0,.581-.723,4.441,4.441,0,0,0,.58.723c.625.637,1.292,1,1.492.8s-.145-.87-.77-1.507a4.663,4.663,0,0,0-.555-.487,4.727,4.727,0,0,0,.673-.24c.816-.36,1.386-.859,1.273-1.114"/>
        <path id="패스_14390" data-name="패스 14390" class="cls-6" d="M31.987,28.519a.456.456,0,1,1-.456-.456.456.456,0,0,1,.456.456"/>
        <path id="패스_14391" data-name="패스 14391" class="cls-5" d="M32.315,36.444c-.113-.255-.865-.171-1.681.189a4.822,4.822,0,0,0-.53.273c.014-.15.022-.309.022-.474,0-.891-.226-1.614-.5-1.614s-.505.723-.505,1.614c0,.165.008.324.022.474a4.823,4.823,0,0,0-.53-.273c-.816-.36-1.568-.444-1.681-.189s.458.754,1.273,1.114a4.727,4.727,0,0,0,.673.24,4.6,4.6,0,0,0-.556.487c-.624.637-.968,1.311-.769,1.507s.866-.163,1.49-.8a4.395,4.395,0,0,0,.581-.723,4.447,4.447,0,0,0,.581.723c.624.637,1.291.995,1.491.8s-.145-.87-.769-1.507a4.6,4.6,0,0,0-.556-.487,4.739,4.739,0,0,0,.674-.24c.816-.36,1.386-.859,1.273-1.114"/>
        <path id="패스_14392" data-name="패스 14392" class="cls-6" d="M30.076,37.514a.456.456,0,1,1-.456-.456.456.456,0,0,1,.456.456"/>
        <path id="패스_14393" data-name="패스 14393" class="cls-5" d="M36.4,36.444c-.114-.255-.866-.171-1.682.189a4.822,4.822,0,0,0-.53.273c.014-.15.022-.309.022-.474,0-.891-.226-1.614-.5-1.614s-.506.723-.506,1.614c0,.165.008.324.022.474a4.822,4.822,0,0,0-.53-.273c-.816-.36-1.568-.444-1.68-.189s.458.754,1.272,1.114a4.727,4.727,0,0,0,.673.24,4.672,4.672,0,0,0-.556.487c-.624.637-.968,1.311-.768,1.507s.866-.163,1.49-.8a4.442,4.442,0,0,0,.58-.723,4.5,4.5,0,0,0,.581.723c.624.637,1.291.995,1.492.8s-.146-.87-.77-1.507a4.6,4.6,0,0,0-.556-.487,4.7,4.7,0,0,0,.674-.24c.816-.36,1.386-.859,1.273-1.114"/>
        <path id="패스_14394" data-name="패스 14394" class="cls-6" d="M34.162,37.514a.456.456,0,1,1-.456-.456.456.456,0,0,1,.456.456"/>
        <path id="패스_14395" data-name="패스 14395" class="cls-5" d="M34.227,38.613c-.114-.255-.866-.171-1.682.189a4.913,4.913,0,0,0-.53.273c.014-.15.022-.309.022-.474,0-.891-.225-1.614-.5-1.614s-.505.723-.505,1.614c0,.165.008.324.022.474a5.008,5.008,0,0,0-.53-.273c-.816-.36-1.569-.444-1.681-.189s.458.754,1.273,1.114a4.727,4.727,0,0,0,.673.24,4.6,4.6,0,0,0-.556.487c-.625.637-.969,1.311-.769,1.507s.866-.163,1.49-.8a4.394,4.394,0,0,0,.581-.723,4.441,4.441,0,0,0,.58.723c.625.637,1.292.995,1.492.8s-.145-.87-.77-1.507a4.663,4.663,0,0,0-.555-.487,4.727,4.727,0,0,0,.673-.24c.816-.36,1.386-.859,1.273-1.114"/>
        <path id="패스_14396" data-name="패스 14396" class="cls-6" d="M31.987,39.683a.456.456,0,1,1-.456-.456.456.456,0,0,1,.456.456"/>
        <rect id="사각형_2827" data-name="사각형 2827" class="cls-7" width="30.374" height="5.287" transform="translate(16.249 66.143)"/>
        <rect id="사각형_2828" data-name="사각형 2828" class="cls-8" width="30.374" height="0.889" transform="translate(16.249 71.43)"/>
        <path id="패스_14397" data-name="패스 14397" class="cls-7" d="M41.75,88.772H21.122a1.85,1.85,0,0,1-1.837-1.636L16.249,72.319H46.623L43.588,87.132a1.851,1.851,0,0,1-1.838,1.64"/>
        <path id="패스_14398" data-name="패스 14398" class="cls-3" d="M30.4,61.446c-.461-.213-11.344-5.292-15.575-11.409L16.471,48.9c3.921,5.668,14.662,10.683,14.771,10.734Z"/>
        <path id="패스_14399" data-name="패스 14399" class="cls-3" d="M32.784,57.665c-.8,0-1.3-.049-1.378-.058l.209-1.988c.081.006,8.261.775,13.919-4.974l1.425,1.4c-4.939,5.018-11.383,5.617-14.175,5.617"/>
        <path id="패스_14400" data-name="패스 14400" class="cls-3" d="M29.016,52.883c-1.924-1.338-3.882-4.58-3.781-5.959s2.388-1.694,4.307-.354a5.559,5.559,0,0,1,2.479,5.065c-.146,1.743-1.084,2.587-3.007,1.25"/>
        <path id="패스_14401" data-name="패스 14401" class="cls-3" d="M30.232,54.268c-2.288.509-6-.249-6.944-1.257s.372-2.905,2.657-3.408a5.562,5.562,0,0,1,5.405,1.609c1.183,1.289,1.169,2.55-1.118,3.058"/>
        <path id="패스_14402" data-name="패스 14402" class="cls-3" d="M19.236,56.792c-2.2.8-5.98.535-7.049-.341s-.009-2.928,2.191-3.725a5.562,5.562,0,0,1,5.569.891c1.34,1.123,1.49,2.375-.711,3.177"/>
        <path id="패스_14403" data-name="패스 14403" class="cls-3" d="M21.393,57.932c-.884,2.171-3.618,4.791-4.985,4.995s-2.177-1.958-1.29-4.124a5.559,5.559,0,0,1,4.4-3.529c1.733-.24,2.761.49,1.878,2.659"/>
        <path id="패스_14404" data-name="패스 14404" class="cls-3" d="M42.44,56.714c-1.729-1.58-1.114-2.68.554-3.208a5.56,5.56,0,0,1,5.488,1.3c1.731,1.575,1.928,3.876.606,4.278s-4.917-.789-6.647-2.37"/>
        <path id="패스_14405" data-name="패스 14405" class="cls-3" d="M40.01,56.946c.01-2.342,1.239-2.625,2.75-1.743a5.559,5.559,0,0,1,2.722,4.939c0,2.34-1.578,4.031-2.764,3.321S40,59.289,40.012,56.946"/>
        <path id="패스_14406" data-name="패스 14406" class="cls-3" d="M59.987,36.928c-1.875,1.406-5.568,2.245-6.845,1.716s-.858-2.8,1.017-4.2a5.561,5.561,0,0,1,5.588-.761c1.609.687,2.115,1.842.241,3.247"/>
        <path id="패스_14407" data-name="패스 14407" class="cls-3" d="M58.874,41.4c-2.34-.136-5.7-1.878-6.336-3.106s1.151-2.693,3.487-2.552a5.562,5.562,0,0,1,4.76,3.024c.785,1.563.427,2.772-1.912,2.636"/>
        <path id="패스_14408" data-name="패스 14408" class="cls-3" d="M2.127,42.043c-1.874-1.4-1.368-2.56.241-3.247a5.561,5.561,0,0,1,5.588.761c1.875,1.4,2.294,3.671,1.017,4.2S4,43.447,2.128,42.041"/>
        <path id="패스_14409" data-name="패스 14409" class="cls-3" d="M3.243,46.516C.9,46.652.546,45.443,1.332,43.88a5.563,5.563,0,0,1,4.76-3.025c2.336-.14,4.121,1.325,3.487,2.553s-4,2.97-6.337,3.106"/>
        <path id="패스_14410" data-name="패스 14410" class="cls-9" d="M11.532,7.716A1.925,1.925,0,0,1,10.069,6.18c-.032-.242.341-.637.382-1.04.162-1.7.6-4.2,2.045-2.59a13.992,13.992,0,0,1,2.53,4.889,7.687,7.687,0,0,0,.353-3.471v0a2.689,2.689,0,0,0-.593-1.62,1,1,0,0,0-1.036-.032l-.046-.1a1.106,1.106,0,0,1,1.147.043l.007,0,.006.006a2.8,2.8,0,0,1,.622,1.685,7.863,7.863,0,0,1-.407,3.665c.026.09.039.14.039.14l.138-.043A7.87,7.87,0,0,1,18.129,5.4a2.782,2.782,0,0,1,1.755-.38h.009l.007.005a1.1,1.1,0,0,1,.654.942l-.107.013a.992.992,0,0,0-.582-.856,2.693,2.693,0,0,0-1.684.369A7.69,7.69,0,0,0,15.442,7.66a13.943,13.943,0,0,1,5.482-.493c2.132.357.259,2.068-1.088,3.119-.319.25-.451.777-.673.881a1.925,1.925,0,0,1-2.082-.41s.933,3.143-.989,3.038-1.46.338-2.012.306-.893-2.823-.893-2.823-2.539,1.212-2.861.764.3-.3-.822-1.862,2.031-2.466,2.031-2.466"/>
        <path id="패스_14411" data-name="패스 14411" class="cls-10" d="M10.44,5.683A1.925,1.925,0,0,1,8.977,4.147c-.032-.242.341-.637.382-1.04.162-1.7.6-4.2,2.045-2.59a13.992,13.992,0,0,1,2.53,4.889,7.687,7.687,0,0,0,.353-3.471v0A2.689,2.689,0,0,0,13.694.31,1,1,0,0,0,12.658.278l-.046-.1a1.106,1.106,0,0,1,1.147.043l.008,0,.005.006a2.8,2.8,0,0,1,.622,1.685,7.863,7.863,0,0,1-.407,3.665c.026.09.039.14.039.14l.138-.043a7.87,7.87,0,0,1,2.873-2.311,2.782,2.782,0,0,1,1.755-.38H18.8l.007,0a1.1,1.1,0,0,1,.654.942l-.107.013a.992.992,0,0,0-.582-.856,2.687,2.687,0,0,0-1.684.369A7.69,7.69,0,0,0,14.35,5.627a13.943,13.943,0,0,1,5.482-.493c2.132.357.259,2.068-1.088,3.119-.319.25-.451.777-.673.881a1.925,1.925,0,0,1-2.082-.41s.933,3.143-.989,3.038-1.46.338-2.012.306S12.1,9.245,12.1,9.245s-2.539,1.212-2.861.764.3-.3-.822-1.862,2.031-2.466,2.031-2.466"/>
      </g>
    </g>
  </g>
</svg>
