<svg xmlns="http://www.w3.org/2000/svg" width="100" height="100.305" viewBox="0 0 100 100.305">
    <defs>
        <clipPath id="qctxnmlp4a">
            <path data-name="사각형 2715" style="fill:none" d="M0 0h75.003v51.305H0z"/>
        </clipPath>
    </defs>
    <g data-name="그룹 2506">
        <path data-name="사각형 2602" style="fill:none" d="M0 0h100v100H0z"/>
        <g data-name="그룹 2424">
            <g data-name="그룹 2423" style="clip-path:url(#qctxnmlp4a)" transform="translate(12 49)">
                <path data-name="패스 11875" d="m22.767 22.446-9.157 9.01a4.3 4.3 0 0 0-1.283 3.065l9.285-9.285a3.946 3.946 0 0 0 1.155-2.79" style="fill:#6a8e32"/>
                <path data-name="패스 11876" d="m17.961 12.93-4.482 4.334a4.3 4.3 0 0 0-1.279 3.065l4.609-4.609a3.947 3.947 0 0 0 1.156-2.79" style="fill:#6a8e32"/>
                <path data-name="패스 11877" d="m4 16.982 7.71 7.562a4.3 4.3 0 0 1 1.283 3.065l-7.835-7.837A3.947 3.947 0 0 1 4 16.982" style="fill:#6a8e32"/>
                <path data-name="패스 11878" d="m12.53 13.552-1.3-1.3a.437.437 0 0 1 .309-.746h2.606a.437.437 0 0 1 .309.746l-1.3 1.3a.436.436 0 0 1-.618 0" style="fill:#a1d438"/>
                <path data-name="사각형 2709" transform="translate(12.327 4.372)" style="fill:#a1d438" d="M0 0h.978v34.305H0z"/>
                <path data-name="패스 11879" d="m6.7 14.322 5.368 5.221a4.3 4.3 0 0 1 1.283 3.065l-5.5-5.5a3.947 3.947 0 0 1-1.151-2.79" style="fill:#a1d438"/>
                <path data-name="패스 11880" d="m21.316 16.978-7.7 7.553a4.3 4.3 0 0 0-1.283 3.069l7.828-7.828a3.946 3.946 0 0 0 1.155-2.79" style="fill:#a1d438"/>
                <path data-name="패스 11881" d="m1.484 22.208 10.347 10.2a4.3 4.3 0 0 1 1.283 3.065L2.64 25a3.945 3.945 0 0 1-1.156-2.79" style="fill:#a1d438"/>
                <path data-name="패스 11882" d="M12.468 1.35c-.462.855-.272 1.491.234 1.764s1.137.082 1.6-.777A3.955 3.955 0 0 0 14.375 0a3.951 3.951 0 0 0-1.908 1.35" style="fill:#d8a0f2"/>
                <path data-name="패스 11883" d="M13.217 1.35A3.958 3.958 0 0 0 11.309 0a3.955 3.955 0 0 0 .073 2.337c.463.859 1.1 1.05 1.6.777s.7-.908.234-1.764" style="fill:#d8a0f2"/>
                <path data-name="패스 11884" d="M11.257 4.575c.771.594 1.424.516 1.779.063s.269-1.109-.5-1.707a3.953 3.953 0 0 0-2.292-.459 3.949 3.949 0 0 0 1.017 2.105" style="fill:#9a3bd1"/>
                <path data-name="패스 11885" d="M11.257 5.98c.771.594 1.424.516 1.779.063s.269-1.109-.5-1.707a3.953 3.953 0 0 0-2.292-.459 3.949 3.949 0 0 0 1.017 2.1" style="fill:#9a3bd1"/>
                <path data-name="패스 11886" d="M11.257 7.385c.771.594 1.424.516 1.779.063s.269-1.109-.5-1.707a3.953 3.953 0 0 0-2.292-.459 3.949 3.949 0 0 0 1.017 2.105" style="fill:#9a3bd1"/>
                <path data-name="패스 11887" d="M11.257 8.79c.771.594 1.424.516 1.779.063s.269-1.109-.5-1.707a3.953 3.953 0 0 0-2.292-.459 3.949 3.949 0 0 0 1.017 2.105" style="fill:#9a3bd1"/>
                <path data-name="패스 11888" d="M11.257 10.195c.771.594 1.424.516 1.779.063s.269-1.109-.5-1.707a3.953 3.953 0 0 0-2.292-.459 3.949 3.949 0 0 0 1.017 2.1" style="fill:#9a3bd1"/>
                <path data-name="패스 11889" d="M11.257 11.6c.771.594 1.424.516 1.779.063s.269-1.109-.5-1.707a3.953 3.953 0 0 0-2.295-.456 3.949 3.949 0 0 0 1.017 2.1" style="fill:#9a3bd1"/>
                <path data-name="패스 11890" d="M14.4 4.577a3.955 3.955 0 0 0 1.016-2.105 3.959 3.959 0 0 0-2.291.459c-.772.6-.859 1.254-.5 1.707s1.008.531 1.779-.063" style="fill:#9a3bd1"/>
                <path data-name="패스 11891" d="M14.4 5.982a3.955 3.955 0 0 0 1.016-2.1 3.959 3.959 0 0 0-2.291.459c-.772.6-.859 1.254-.5 1.707s1.008.531 1.779-.063" style="fill:#9a3bd1"/>
                <path data-name="패스 11892" d="M14.4 7.387a3.955 3.955 0 0 0 1.016-2.105 3.959 3.959 0 0 0-2.291.459c-.772.6-.859 1.254-.5 1.707s1.008.531 1.779-.063" style="fill:#9a3bd1"/>
                <path data-name="패스 11893" d="M14.4 8.792a3.955 3.955 0 0 0 1.016-2.105 3.959 3.959 0 0 0-2.291.459c-.772.6-.859 1.254-.5 1.707s1.008.531 1.779-.063" style="fill:#9a3bd1"/>
                <path data-name="패스 11894" d="M14.4 10.2a3.955 3.955 0 0 0 1.016-2.1 3.959 3.959 0 0 0-2.291.459c-.772.6-.859 1.254-.5 1.707s1.008.531 1.779-.063" style="fill:#9a3bd1"/>
                <path data-name="패스 11895" d="M14.4 11.6a3.955 3.955 0 0 0 1.011-2.1 3.959 3.959 0 0 0-2.291.459c-.772.6-.859 1.254-.5 1.707s1.008.531 1.779-.063" style="fill:#9a3bd1"/>
                <path data-name="패스 11896" d="m32.949 22.446-9.157 9.01a4.3 4.3 0 0 0-1.283 3.065l9.285-9.285a3.946 3.946 0 0 0 1.155-2.79" style="fill:#6a8e32"/>
                <path data-name="패스 11897" d="m28.143 12.93-4.482 4.334a4.3 4.3 0 0 0-1.283 3.065l4.609-4.609a3.947 3.947 0 0 0 1.156-2.79" style="fill:#6a8e32"/>
                <path data-name="패스 11898" d="m14.184 16.982 7.71 7.562a4.3 4.3 0 0 1 1.283 3.065l-7.837-7.837a3.947 3.947 0 0 1-1.156-2.79" style="fill:#6a8e32"/>
                <path data-name="패스 11899" d="m22.712 13.552-1.3-1.3a.437.437 0 0 1 .309-.746h2.606a.437.437 0 0 1 .309.746l-1.3 1.3a.436.436 0 0 1-.618 0" style="fill:#a1d438"/>
                <path data-name="사각형 2710" transform="translate(22.509 4.372)" style="fill:#a1d438" d="M0 0h.978v34.305H0z"/>
                <path data-name="패스 11900" d="m16.886 14.322 5.368 5.221a4.3 4.3 0 0 1 1.283 3.065l-5.5-5.5a3.947 3.947 0 0 1-1.156-2.79" style="fill:#a1d438"/>
                <path data-name="패스 11901" d="m31.5 16.978-7.7 7.553a4.3 4.3 0 0 0-1.285 3.069l7.828-7.828a3.946 3.946 0 0 0 1.155-2.79" style="fill:#a1d438"/>
                <path data-name="패스 11902" d="m11.666 22.208 10.347 10.2a4.3 4.3 0 0 1 1.287 3.065L12.822 25a3.945 3.945 0 0 1-1.156-2.79" style="fill:#a1d438"/>
                <path data-name="패스 11903" d="M22.651 1.35c-.462.855-.272 1.491.234 1.764s1.137.082 1.6-.777A3.955 3.955 0 0 0 24.558 0a3.951 3.951 0 0 0-1.908 1.35" style="fill:#d8a0f2"/>
                <path data-name="패스 11904" d="M23.4 1.35A3.958 3.958 0 0 0 21.491 0a3.955 3.955 0 0 0 .073 2.337c.463.859 1.1 1.05 1.6.777s.7-.908.234-1.764" style="fill:#d8a0f2"/>
                <path data-name="패스 11905" d="M21.439 4.575c.771.594 1.424.516 1.779.063s.269-1.109-.5-1.707a3.953 3.953 0 0 0-2.292-.459 3.949 3.949 0 0 0 1.014 2.105" style="fill:#9a3bd1"/>
                <path data-name="패스 11906" d="M21.439 5.98c.771.594 1.424.516 1.779.063s.269-1.109-.5-1.707a3.953 3.953 0 0 0-2.292-.459 3.949 3.949 0 0 0 1.017 2.1" style="fill:#9a3bd1"/>
                <path data-name="패스 11907" d="M21.439 7.385c.771.594 1.424.516 1.779.063s.269-1.109-.5-1.707a3.953 3.953 0 0 0-2.292-.459 3.949 3.949 0 0 0 1.014 2.105" style="fill:#9a3bd1"/>
                <path data-name="패스 11908" d="M21.439 8.79c.771.594 1.424.516 1.779.063s.269-1.109-.5-1.707a3.953 3.953 0 0 0-2.292-.459 3.949 3.949 0 0 0 1.014 2.105" style="fill:#9a3bd1"/>
                <path data-name="패스 11909" d="M21.439 10.195c.771.594 1.424.516 1.779.063s.269-1.109-.5-1.707a3.953 3.953 0 0 0-2.292-.459 3.949 3.949 0 0 0 1.017 2.1" style="fill:#9a3bd1"/>
                <path data-name="패스 11910" d="M21.439 11.6c.771.594 1.424.516 1.779.063s.269-1.109-.5-1.707a3.953 3.953 0 0 0-2.295-.456 3.949 3.949 0 0 0 1.017 2.1" style="fill:#9a3bd1"/>
                <path data-name="패스 11911" d="M24.577 4.577a3.955 3.955 0 0 0 1.016-2.105 3.959 3.959 0 0 0-2.291.459c-.772.6-.859 1.254-.5 1.707s1.008.531 1.779-.063" style="fill:#9a3bd1"/>
                <path data-name="패스 11912" d="M24.577 5.982a3.955 3.955 0 0 0 1.016-2.1 3.959 3.959 0 0 0-2.291.459c-.772.6-.859 1.254-.5 1.707s1.008.531 1.779-.063" style="fill:#9a3bd1"/>
                <path data-name="패스 11913" d="M24.577 7.387a3.955 3.955 0 0 0 1.016-2.105 3.959 3.959 0 0 0-2.291.459c-.772.6-.859 1.254-.5 1.707s1.008.531 1.779-.063" style="fill:#9a3bd1"/>
                <path data-name="패스 11914" d="M24.577 8.792a3.955 3.955 0 0 0 1.016-2.105 3.959 3.959 0 0 0-2.291.459c-.772.6-.859 1.254-.5 1.707s1.008.531 1.779-.063" style="fill:#9a3bd1"/>
                <path data-name="패스 11915" d="M24.577 10.2a3.955 3.955 0 0 0 1.016-2.1 3.959 3.959 0 0 0-2.291.459c-.772.6-.859 1.254-.5 1.707s1.008.531 1.779-.063" style="fill:#9a3bd1"/>
                <path data-name="패스 11916" d="M24.577 11.6a3.955 3.955 0 0 0 1.016-2.1 3.959 3.959 0 0 0-2.291.459c-.772.6-.859 1.254-.5 1.707s1.008.531 1.779-.063" style="fill:#9a3bd1"/>
                <path data-name="패스 11917" d="m42.14 22.446-9.157 9.01a4.3 4.3 0 0 0-1.283 3.065l9.285-9.285a3.946 3.946 0 0 0 1.155-2.79" style="fill:#6a8e32"/>
                <path data-name="패스 11918" d="m37.334 12.93-4.482 4.334a4.3 4.3 0 0 0-1.283 3.065l4.609-4.609a3.947 3.947 0 0 0 1.156-2.79" style="fill:#6a8e32"/>
                <path data-name="패스 11919" d="m23.375 16.982 7.71 7.562a4.3 4.3 0 0 1 1.283 3.065l-7.837-7.837a3.947 3.947 0 0 1-1.156-2.79" style="fill:#6a8e32"/>
                <path data-name="패스 11920" d="m31.9 13.552-1.3-1.3a.437.437 0 0 1 .309-.746h2.606a.437.437 0 0 1 .309.746l-1.3 1.3a.436.436 0 0 1-.618 0" style="fill:#a1d438"/>
                <path data-name="사각형 2711" transform="translate(31.7 4.372)" style="fill:#a1d438" d="M0 0h.978v34.305H0z"/>
                <path data-name="패스 11921" d="m26.077 14.322 5.368 5.221a4.3 4.3 0 0 1 1.283 3.065l-5.5-5.5a3.947 3.947 0 0 1-1.156-2.79" style="fill:#a1d438"/>
                <path data-name="패스 11922" d="m40.689 16.978-7.7 7.553a4.3 4.3 0 0 0-1.283 3.069l7.828-7.828a3.946 3.946 0 0 0 1.155-2.79" style="fill:#a1d438"/>
                <path data-name="패스 11923" d="m20.857 22.208 10.343 10.2a4.3 4.3 0 0 1 1.283 3.065L22.013 25a3.945 3.945 0 0 1-1.156-2.79" style="fill:#a1d438"/>
                <path data-name="패스 11924" d="M31.841 1.35c-.462.855-.272 1.491.234 1.764s1.137.082 1.6-.777A3.955 3.955 0 0 0 33.748 0a3.951 3.951 0 0 0-1.908 1.35" style="fill:#d8a0f2"/>
                <path data-name="패스 11925" d="M32.59 1.35A3.958 3.958 0 0 0 30.682 0a3.955 3.955 0 0 0 .073 2.337c.463.859 1.1 1.05 1.6.777s.7-.908.234-1.764" style="fill:#d8a0f2"/>
                <path data-name="패스 11926" d="M30.63 4.575c.771.594 1.424.516 1.779.063s.269-1.109-.5-1.707a3.953 3.953 0 0 0-2.292-.459 3.949 3.949 0 0 0 1.017 2.105" style="fill:#9a3bd1"/>
                <path data-name="패스 11927" d="M30.63 5.98c.771.594 1.424.516 1.779.063s.269-1.109-.5-1.707a3.953 3.953 0 0 0-2.292-.459 3.949 3.949 0 0 0 1.017 2.1" style="fill:#9a3bd1"/>
                <path data-name="패스 11928" d="M30.63 7.385c.771.594 1.424.516 1.779.063s.269-1.109-.5-1.707a3.953 3.953 0 0 0-2.292-.459 3.949 3.949 0 0 0 1.017 2.105" style="fill:#9a3bd1"/>
                <path data-name="패스 11929" d="M30.63 8.79c.771.594 1.424.516 1.779.063s.269-1.109-.5-1.707a3.953 3.953 0 0 0-2.292-.459 3.949 3.949 0 0 0 1.017 2.105" style="fill:#9a3bd1"/>
                <path data-name="패스 11930" d="M30.63 10.195c.771.594 1.424.516 1.779.063s.269-1.109-.5-1.707a3.953 3.953 0 0 0-2.292-.459 3.949 3.949 0 0 0 1.017 2.1" style="fill:#9a3bd1"/>
                <path data-name="패스 11931" d="M30.63 11.6c.771.594 1.424.516 1.779.063s.269-1.109-.5-1.707a3.953 3.953 0 0 0-2.295-.456 3.949 3.949 0 0 0 1.017 2.1" style="fill:#9a3bd1"/>
                <path data-name="패스 11932" d="M33.768 4.577a3.955 3.955 0 0 0 1.016-2.105 3.959 3.959 0 0 0-2.291.459c-.772.6-.859 1.254-.5 1.707s1.008.531 1.779-.063" style="fill:#9a3bd1"/>
                <path data-name="패스 11933" d="M33.768 5.982a3.955 3.955 0 0 0 1.016-2.1 3.959 3.959 0 0 0-2.291.459c-.772.6-.859 1.254-.5 1.707s1.007.526 1.776-.068" style="fill:#9a3bd1"/>
                <path data-name="패스 11934" d="M33.768 7.387a3.955 3.955 0 0 0 1.016-2.105 3.959 3.959 0 0 0-2.291.459c-.772.6-.859 1.254-.5 1.707s1.008.531 1.779-.063" style="fill:#9a3bd1"/>
                <path data-name="패스 11935" d="M33.768 8.792a3.955 3.955 0 0 0 1.016-2.105 3.959 3.959 0 0 0-2.291.459c-.772.6-.859 1.254-.5 1.707s1.007.531 1.776-.063" style="fill:#9a3bd1"/>
                <path data-name="패스 11936" d="M33.768 10.2a3.955 3.955 0 0 0 1.016-2.1 3.959 3.959 0 0 0-2.291.459c-.772.6-.859 1.254-.5 1.707s1.008.531 1.779-.063" style="fill:#9a3bd1"/>
                <path data-name="패스 11937" d="M33.768 11.6a3.955 3.955 0 0 0 1.016-2.1 3.959 3.959 0 0 0-2.291.459c-.772.6-.859 1.254-.5 1.707s1.008.531 1.779-.063" style="fill:#9a3bd1"/>
                <path data-name="패스 11938" d="m53.295 22.446-9.157 9.01a4.3 4.3 0 0 0-1.283 3.065l9.285-9.285a3.946 3.946 0 0 0 1.155-2.79" style="fill:#6a8e32"/>
                <path data-name="패스 11939" d="m48.489 12.93-4.482 4.334a4.3 4.3 0 0 0-1.283 3.065l4.609-4.609a3.947 3.947 0 0 0 1.156-2.79" style="fill:#6a8e32"/>
                <path data-name="패스 11940" d="m34.53 16.982 7.71 7.562a4.3 4.3 0 0 1 1.283 3.065l-7.837-7.837a3.947 3.947 0 0 1-1.156-2.79" style="fill:#6a8e32"/>
                <path data-name="패스 11941" d="m43.058 13.552-1.3-1.3a.437.437 0 0 1 .309-.746h2.606a.437.437 0 0 1 .309.746l-1.3 1.3a.436.436 0 0 1-.618 0" style="fill:#a1d438"/>
                <path data-name="사각형 2712" transform="translate(42.855 4.372)" style="fill:#a1d438" d="M0 0h.978v34.305H0z"/>
                <path data-name="패스 11942" d="m37.232 14.322 5.368 5.221a4.3 4.3 0 0 1 1.283 3.065l-5.5-5.5a3.947 3.947 0 0 1-1.156-2.79" style="fill:#a1d438"/>
                <path data-name="패스 11943" d="m51.844 16.978-7.7 7.553a4.3 4.3 0 0 0-1.283 3.069l7.828-7.828a3.946 3.946 0 0 0 1.155-2.79" style="fill:#a1d438"/>
                <path data-name="패스 11944" d="m32.012 22.208 10.347 10.2a4.3 4.3 0 0 1 1.283 3.065L33.168 25a3.945 3.945 0 0 1-1.156-2.79" style="fill:#a1d438"/>
                <path data-name="패스 11945" d="M43 1.35c-.462.855-.272 1.491.234 1.764s1.137.082 1.6-.777A3.955 3.955 0 0 0 44.9 0a3.951 3.951 0 0 0-1.908 1.35" style="fill:#d8a0f2"/>
                <path data-name="패스 11946" d="M43.745 1.35A3.958 3.958 0 0 0 41.837 0a3.955 3.955 0 0 0 .073 2.337c.463.859 1.1 1.05 1.6.777s.7-.908.234-1.764" style="fill:#d8a0f2"/>
                <path data-name="패스 11947" d="M41.785 4.575c.771.594 1.424.516 1.779.063s.269-1.109-.5-1.707a3.953 3.953 0 0 0-2.292-.459 3.949 3.949 0 0 0 1.017 2.105" style="fill:#9a3bd1"/>
                <path data-name="패스 11948" d="M41.785 5.98c.771.594 1.424.516 1.779.063s.269-1.109-.5-1.707a3.953 3.953 0 0 0-2.292-.459 3.949 3.949 0 0 0 1.017 2.1" style="fill:#9a3bd1"/>
                <path data-name="패스 11949" d="M41.785 7.385c.771.594 1.424.516 1.779.063s.269-1.109-.5-1.707a3.953 3.953 0 0 0-2.292-.459 3.949 3.949 0 0 0 1.017 2.105" style="fill:#9a3bd1"/>
                <path data-name="패스 11950" d="M41.785 8.79c.771.594 1.424.516 1.779.063s.269-1.109-.5-1.707a3.953 3.953 0 0 0-2.292-.459 3.949 3.949 0 0 0 1.017 2.105" style="fill:#9a3bd1"/>
                <path data-name="패스 11951" d="M41.785 10.195c.771.594 1.424.516 1.779.063s.269-1.109-.5-1.707a3.953 3.953 0 0 0-2.292-.459 3.949 3.949 0 0 0 1.017 2.1" style="fill:#9a3bd1"/>
                <path data-name="패스 11952" d="M41.785 11.6c.771.594 1.424.516 1.779.063s.269-1.109-.5-1.707a3.953 3.953 0 0 0-2.295-.456 3.949 3.949 0 0 0 1.017 2.1" style="fill:#9a3bd1"/>
                <path data-name="패스 11953" d="M44.923 4.577a3.961 3.961 0 0 0 1.015-2.105 3.959 3.959 0 0 0-2.291.459c-.772.6-.859 1.254-.5 1.707s1.009.531 1.78-.063" style="fill:#9a3bd1"/>
                <path data-name="패스 11954" d="M44.923 5.982a3.961 3.961 0 0 0 1.015-2.1 3.959 3.959 0 0 0-2.291.459c-.772.6-.859 1.254-.5 1.707s1.009.531 1.78-.063" style="fill:#9a3bd1"/>
                <path data-name="패스 11955" d="M44.923 7.387a3.961 3.961 0 0 0 1.015-2.105 3.959 3.959 0 0 0-2.291.459c-.772.6-.859 1.254-.5 1.707s1.009.531 1.78-.063" style="fill:#9a3bd1"/>
                <path data-name="패스 11956" d="M44.923 8.792a3.961 3.961 0 0 0 1.015-2.105 3.959 3.959 0 0 0-2.291.459c-.772.6-.859 1.254-.5 1.707s1.009.531 1.78-.063" style="fill:#9a3bd1"/>
                <path data-name="패스 11957" d="M44.923 10.2a3.961 3.961 0 0 0 1.015-2.1 3.959 3.959 0 0 0-2.291.459c-.772.6-.859 1.254-.5 1.707s1.009.531 1.78-.063" style="fill:#9a3bd1"/>
                <path data-name="패스 11958" d="M44.923 11.6a3.961 3.961 0 0 0 1.015-2.1 3.959 3.959 0 0 0-2.291.459c-.772.6-.859 1.254-.5 1.707s1.009.531 1.78-.063" style="fill:#9a3bd1"/>
                <path data-name="패스 11959" d="m63.477 22.446-9.157 9.01a4.3 4.3 0 0 0-1.283 3.065l9.285-9.285a3.946 3.946 0 0 0 1.155-2.79" style="fill:#6a8e32"/>
                <path data-name="패스 11960" d="m58.671 12.93-4.482 4.334a4.3 4.3 0 0 0-1.283 3.065l4.609-4.609a3.947 3.947 0 0 0 1.156-2.79" style="fill:#6a8e32"/>
                <path data-name="패스 11961" d="m44.712 16.982 7.71 7.562a4.3 4.3 0 0 1 1.283 3.065l-7.837-7.837a3.947 3.947 0 0 1-1.156-2.79" style="fill:#6a8e32"/>
                <path data-name="패스 11962" d="m53.24 13.552-1.3-1.3a.437.437 0 0 1 .309-.746h2.606a.437.437 0 0 1 .309.746l-1.3 1.3a.436.436 0 0 1-.618 0" style="fill:#a1d438"/>
                <path data-name="사각형 2713" transform="translate(53.037 4.372)" style="fill:#a1d438" d="M0 0h.978v34.305H0z"/>
                <path data-name="패스 11963" d="m47.414 14.322 5.368 5.221a4.3 4.3 0 0 1 1.283 3.065l-5.5-5.5a3.947 3.947 0 0 1-1.156-2.79" style="fill:#a1d438"/>
                <path data-name="패스 11964" d="m62.026 16.978-7.7 7.553a4.3 4.3 0 0 0-1.283 3.069l7.828-7.828a3.946 3.946 0 0 0 1.155-2.79" style="fill:#a1d438"/>
                <path data-name="패스 11965" d="m42.194 22.208 10.347 10.2a4.3 4.3 0 0 1 1.283 3.065L43.35 25a3.945 3.945 0 0 1-1.156-2.79" style="fill:#a1d438"/>
                <path data-name="패스 11966" d="M53.179 1.35c-.463.855-.273 1.491.233 1.764s1.137.082 1.6-.777A3.955 3.955 0 0 0 55.085 0a3.951 3.951 0 0 0-1.908 1.35" style="fill:#d8a0f2"/>
                <path data-name="패스 11967" d="M53.927 1.35A3.958 3.958 0 0 0 52.019 0a3.955 3.955 0 0 0 .073 2.337c.463.859 1.1 1.05 1.6.777s.7-.908.234-1.764" style="fill:#d8a0f2"/>
                <path data-name="패스 11968" d="M51.967 4.575c.771.594 1.424.516 1.779.063s.269-1.109-.5-1.707a3.953 3.953 0 0 0-2.292-.459 3.949 3.949 0 0 0 1.017 2.105" style="fill:#9a3bd1"/>
                <path data-name="패스 11969" d="M51.967 5.98c.771.594 1.424.516 1.779.063s.269-1.109-.5-1.707a3.953 3.953 0 0 0-2.292-.459 3.949 3.949 0 0 0 1.017 2.1" style="fill:#9a3bd1"/>
                <path data-name="패스 11970" d="M51.967 7.385c.771.594 1.424.516 1.779.063s.269-1.109-.5-1.707a3.953 3.953 0 0 0-2.292-.459 3.949 3.949 0 0 0 1.017 2.105" style="fill:#9a3bd1"/>
                <path data-name="패스 11971" d="M51.967 8.79c.771.594 1.424.516 1.779.063s.269-1.109-.5-1.707a3.953 3.953 0 0 0-2.292-.459 3.949 3.949 0 0 0 1.017 2.105" style="fill:#9a3bd1"/>
                <path data-name="패스 11972" d="M51.967 10.195c.771.594 1.424.516 1.779.063s.269-1.109-.5-1.707a3.953 3.953 0 0 0-2.292-.459 3.949 3.949 0 0 0 1.017 2.1" style="fill:#9a3bd1"/>
                <path data-name="패스 11973" d="M51.967 11.6c.771.594 1.424.516 1.779.063s.269-1.109-.5-1.707a3.953 3.953 0 0 0-2.295-.456 3.949 3.949 0 0 0 1.017 2.1" style="fill:#9a3bd1"/>
                <path data-name="패스 11974" d="M55.1 4.577a3.955 3.955 0 0 0 1.016-2.105 3.959 3.959 0 0 0-2.291.459c-.772.6-.859 1.254-.5 1.707s1.008.531 1.779-.063" style="fill:#9a3bd1"/>
                <path data-name="패스 11975" d="M55.1 5.982a3.955 3.955 0 0 0 1.016-2.1 3.959 3.959 0 0 0-2.291.459c-.772.6-.859 1.254-.5 1.707s1.008.531 1.779-.063" style="fill:#9a3bd1"/>
                <path data-name="패스 11976" d="M55.1 7.387a3.955 3.955 0 0 0 1.016-2.105 3.959 3.959 0 0 0-2.291.459c-.772.6-.859 1.254-.5 1.707s1.008.531 1.779-.063" style="fill:#9a3bd1"/>
                <path data-name="패스 11977" d="M55.1 8.792a3.955 3.955 0 0 0 1.016-2.105 3.959 3.959 0 0 0-2.291.459c-.772.6-.859 1.254-.5 1.707s1.008.531 1.779-.063" style="fill:#9a3bd1"/>
                <path data-name="패스 11978" d="M55.1 10.2a3.955 3.955 0 0 0 1.016-2.1 3.959 3.959 0 0 0-2.291.459c-.772.6-.859 1.254-.5 1.707s1.008.531 1.779-.063" style="fill:#9a3bd1"/>
                <path data-name="패스 11979" d="M55.1 11.6a3.955 3.955 0 0 0 1.021-2.1 3.959 3.959 0 0 0-2.291.459c-.772.6-.859 1.254-.5 1.707s1.008.531 1.779-.063" style="fill:#9a3bd1"/>
                <path data-name="패스 11980" d="m72.668 22.446-9.157 9.01a4.3 4.3 0 0 0-1.283 3.065l9.285-9.285a3.946 3.946 0 0 0 1.155-2.79" style="fill:#6a8e32"/>
                <path data-name="패스 11981" d="m67.862 12.93-4.482 4.334a4.3 4.3 0 0 0-1.28 3.065l4.609-4.609a3.947 3.947 0 0 0 1.156-2.79" style="fill:#6a8e32"/>
                <path data-name="패스 11982" d="m53.9 16.982 7.71 7.562a4.3 4.3 0 0 1 1.29 3.065l-7.837-7.837a3.947 3.947 0 0 1-1.156-2.79" style="fill:#6a8e32"/>
                <path data-name="패스 11983" d="m62.431 13.552-1.3-1.3a.437.437 0 0 1 .309-.746h2.606a.437.437 0 0 1 .309.746l-1.3 1.3a.436.436 0 0 1-.618 0" style="fill:#a1d438"/>
                <path data-name="사각형 2714" transform="translate(62.228 4.372)" style="fill:#a1d438" d="M0 0h.978v34.305H0z"/>
                <path data-name="패스 11984" d="m56.6 14.322 5.368 5.221a4.3 4.3 0 0 1 1.283 3.065l-5.5-5.5a3.947 3.947 0 0 1-1.156-2.79" style="fill:#a1d438"/>
                <path data-name="패스 11985" d="m71.217 16.978-7.7 7.553a4.3 4.3 0 0 0-1.283 3.069l7.828-7.828a3.946 3.946 0 0 0 1.155-2.79" style="fill:#a1d438"/>
                <path data-name="패스 11986" d="m51.385 22.208 10.347 10.2a4.3 4.3 0 0 1 1.283 3.065L52.541 25a3.945 3.945 0 0 1-1.156-2.79" style="fill:#a1d438"/>
                <path data-name="패스 11987" d="M62.369 1.35c-.462.855-.272 1.491.234 1.764s1.137.082 1.6-.777A3.955 3.955 0 0 0 64.276 0a3.951 3.951 0 0 0-1.908 1.35" style="fill:#d8a0f2"/>
                <path data-name="패스 11988" d="M63.117 1.35A3.958 3.958 0 0 0 61.209 0a3.955 3.955 0 0 0 .073 2.337c.463.859 1.095 1.05 1.6.777s.7-.908.234-1.764" style="fill:#d8a0f2"/>
                <path data-name="패스 11989" d="M61.158 4.575c.771.594 1.424.516 1.779.063s.269-1.109-.5-1.707a3.953 3.953 0 0 0-2.292-.459 3.949 3.949 0 0 0 1.017 2.105" style="fill:#9a3bd1"/>
                <path data-name="패스 11990" d="M61.158 5.98c.771.594 1.424.516 1.779.063s.269-1.109-.5-1.707a3.953 3.953 0 0 0-2.292-.459 3.949 3.949 0 0 0 1.017 2.1" style="fill:#9a3bd1"/>
                <path data-name="패스 11991" d="M61.158 7.385c.771.594 1.424.516 1.779.063s.269-1.109-.5-1.707a3.953 3.953 0 0 0-2.292-.459 3.949 3.949 0 0 0 1.017 2.105" style="fill:#9a3bd1"/>
                <path data-name="패스 11992" d="M61.158 8.79c.771.594 1.424.516 1.779.063s.269-1.109-.5-1.707a3.953 3.953 0 0 0-2.292-.459 3.949 3.949 0 0 0 1.017 2.105" style="fill:#9a3bd1"/>
                <path data-name="패스 11993" d="M61.158 10.195c.771.594 1.424.516 1.779.063s.269-1.109-.5-1.707a3.953 3.953 0 0 0-2.292-.459 3.949 3.949 0 0 0 1.017 2.1" style="fill:#9a3bd1"/>
                <path data-name="패스 11994" d="M61.158 11.6c.771.594 1.424.516 1.779.063s.269-1.109-.5-1.707a3.953 3.953 0 0 0-2.295-.456 3.949 3.949 0 0 0 1.017 2.1" style="fill:#9a3bd1"/>
                <path data-name="패스 11995" d="M64.295 4.577a3.955 3.955 0 0 0 1.016-2.105 3.959 3.959 0 0 0-2.291.459c-.772.6-.859 1.254-.5 1.707s1.008.531 1.779-.063" style="fill:#9a3bd1"/>
                <path data-name="패스 11996" d="M64.295 5.982a3.955 3.955 0 0 0 1.016-2.1 3.959 3.959 0 0 0-2.291.459c-.772.6-.859 1.254-.5 1.707s1.008.531 1.779-.063" style="fill:#9a3bd1"/>
                <path data-name="패스 11997" d="M64.295 7.387a3.955 3.955 0 0 0 1.016-2.105 3.959 3.959 0 0 0-2.291.459c-.772.6-.859 1.254-.5 1.707s1.008.531 1.779-.063" style="fill:#9a3bd1"/>
                <path data-name="패스 11998" d="M64.295 8.792a3.955 3.955 0 0 0 1.016-2.105 3.959 3.959 0 0 0-2.291.459c-.772.6-.859 1.254-.5 1.707s1.008.531 1.779-.063" style="fill:#9a3bd1"/>
                <path data-name="패스 11999" d="M64.295 10.2a3.955 3.955 0 0 0 1.016-2.1 3.959 3.959 0 0 0-2.291.459c-.772.6-.859 1.254-.5 1.707s1.008.531 1.779-.063" style="fill:#9a3bd1"/>
                <path data-name="패스 12000" d="M64.295 11.6a3.955 3.955 0 0 0 1.016-2.1 3.959 3.959 0 0 0-2.291.459c-.772.6-.859 1.254-.5 1.707s1.008.531 1.779-.063" style="fill:#9a3bd1"/>
                <path data-name="패스 12001" d="M0 36.892v11.683a2.73 2.73 0 0 0 2.73 2.73h31.13v-1.538h1.592v1.538h1.539v-1.538h1.593v1.538h1.539v-1.538h1.592v1.538h30.558A2.73 2.73 0 0 0 75 48.575V36.892z" style="fill:#fff"/>
            </g>
        </g>
    </g>
</svg>
