<svg xmlns="http://www.w3.org/2000/svg" width="100" height="100" viewBox="0 0 100 100">
    <defs>
        <clipPath id="wzf1d84uma">
            <path data-name="사각형 2805" style="fill:none" d="M0 0h61.997v82.669H0z"/>
        </clipPath>
    </defs>
    <g data-name="그룹 2495">
        <path data-name="사각형 2618" style="fill:none" d="M0 0h100v100H0z"/>
        <g data-name="그룹 2466">
            <path data-name="사각형 2801" transform="translate(43.963 36.746)" style="fill:#418c48" d="M0 0h1.779v38.985H0z"/>
            <path data-name="사각형 2802" transform="translate(53.176 28.193)" style="fill:#418c48" d="M0 0h1.779v47.538H0z"/>
            <g data-name="그룹 2465">
                <g data-name="그룹 2464" style="clip-path:url(#wzf1d84uma)" transform="translate(19 17)">
                    <path data-name="패스 13570" d="M20.718 58.73h-1.779c0-22.89-8.807-33.059-8.9-33.159l1.326-1.186c.382.425 9.349 10.708 9.349 34.345" style="fill:#418c48"/>
                    <path data-name="패스 13571" d="M42.07 58.73h-1.779c0-24.709 9-34 9.383-34.38l1.258 1.258-.629-.629.631.627c-.089.089-8.863 9.237-8.863 33.124" style="fill:#418c48"/>
                    <path data-name="패스 13572" d="M16.158 58.73h-1.779c0-15.757-7.584-22.019-7.662-22.08l1.114-1.389c.34.273 8.327 6.867 8.327 23.469" style="fill:#418c48"/>
                    <path data-name="패스 13573" d="M46.355 58.73h-1.779c0-16.6 7.987-23.2 8.327-23.469l1.115 1.387c-.077.062-7.663 6.4-7.663 22.082" style="fill:#418c48"/>
                    <path data-name="패스 13574" d="M6.991 47.216a.381.381 0 0 0-.209.27c-.342-.588-.715-.94-.97-.849-.235.084-.312.522-.237 1.119-.507-.506-.985-.766-1.212-.6s-.152.626.108 1.213c-.788-.281-1.434-.316-1.573-.041s.3.809 1.036 1.291c-.671.152-1.124.4-1.112.676.012.291.551.518 1.312.6-.6.326-.958.688-.874.944s.59.336 1.265.247a.379.379 0 0 0-.086.331c.083.257.59.336 1.264.247a.385.385 0 0 0-.085.336c.084.256.59.335 1.265.247a.384.384 0 0 0-.087.331c.084.256.591.336 1.265.247a.383.383 0 0 0-.086.331c.125.381 1.168.382 2.332 0a4.071 4.071 0 0 0 1.727-.969l2.383 1.17.213-.431-2.38-1.169a4.065 4.065 0 0 0-.3-1.958c-.412-1.153-1.051-1.978-1.428-1.843a.381.381 0 0 0-.209.27c-.342-.588-.715-.94-.97-.849a.379.379 0 0 0-.209.27c-.342-.588-.715-.94-.97-.85a.38.38 0 0 0-.209.271c-.342-.589-.715-.94-.97-.85" style="fill:#418c48"/>
                    <path data-name="패스 13575" d="M4.862 38.226a.381.381 0 0 0-.209.27c-.342-.588-.715-.94-.97-.849-.235.084-.312.522-.237 1.119-.507-.506-.985-.766-1.212-.6s-.152.626.108 1.213c-.788-.288-1.428-.319-1.572-.044s.3.809 1.036 1.291c-.671.152-1.124.4-1.112.676.012.291.551.518 1.312.6-.6.326-.958.688-.874.944s.589.336 1.264.247a.379.379 0 0 0-.086.331c.083.257.59.336 1.264.247a.385.385 0 0 0-.085.329c.084.256.59.335 1.265.247a.384.384 0 0 0-.087.331c.084.256.591.336 1.265.247a.383.383 0 0 0-.086.331c.125.381 1.168.382 2.332 0a4.072 4.072 0 0 0 1.722-.965l2.383 1.17.213-.431-2.386-1.167a4.061 4.061 0 0 0-.291-1.958c-.409-1.153-1.049-1.978-1.426-1.843a.381.381 0 0 0-.209.27c-.342-.588-.715-.94-.97-.849a.379.379 0 0 0-.209.27c-.342-.588-.715-.94-.97-.85a.38.38 0 0 0-.209.271c-.342-.589-.715-.94-.97-.85" style="fill:#418c48"/>
                    <path data-name="패스 13576" d="M53.479 47.6a.381.381 0 0 1 .209.27c.342-.588.715-.94.97-.849.235.084.312.522.237 1.119.507-.506.985-.766 1.212-.6s.152.626-.108 1.213c.788-.281 1.434-.316 1.573-.041s-.3.809-1.036 1.291c.671.152 1.124.4 1.112.676s-.551.518-1.312.6c.6.326.958.688.874.944s-.59.336-1.265.247a.379.379 0 0 1 .086.331c-.083.257-.59.336-1.264.247a.385.385 0 0 1 .085.332c-.083.256-.59.335-1.264.247a.383.383 0 0 1 .086.331c-.084.256-.591.336-1.265.247a.383.383 0 0 1 .086.331c-.125.381-1.168.382-2.332 0a4.071 4.071 0 0 1-1.727-.969l-2.383 1.17-.213-.431 2.384-1.17a4.061 4.061 0 0 1 .291-1.958c.412-1.153 1.051-1.978 1.428-1.843a.381.381 0 0 1 .209.27c.342-.588.716-.94.97-.849a.379.379 0 0 1 .209.27c.342-.588.715-.94.97-.85a.383.383 0 0 1 .209.271c.342-.589.715-.94.97-.85" style="fill:#418c48"/>
                    <path data-name="패스 13577" d="M55.607 38.609a.381.381 0 0 1 .209.27c.342-.588.715-.94.97-.849.235.084.312.522.237 1.119.507-.506.985-.766 1.212-.6s.152.626-.108 1.213c.788-.281 1.434-.316 1.573-.041s-.3.809-1.036 1.291c.671.152 1.123.4 1.112.676s-.551.518-1.312.6c.6.326.958.688.874.944s-.59.336-1.265.247a.379.379 0 0 1 .086.331c-.083.257-.59.336-1.264.247a.385.385 0 0 1 .085.332c-.084.256-.59.335-1.265.247a.384.384 0 0 1 .087.331c-.084.256-.591.336-1.265.247a.383.383 0 0 1 .086.331c-.125.381-1.168.382-2.332 0a4.071 4.071 0 0 1-1.727-.969l-2.383 1.168-.213-.431 2.384-1.17a4.061 4.061 0 0 1 .291-1.958c.412-1.153 1.051-1.978 1.428-1.843a.381.381 0 0 1 .209.27c.342-.588.715-.94.97-.849a.379.379 0 0 1 .209.27c.342-.588.715-.94.97-.85a.38.38 0 0 1 .209.271c.342-.589.715-.94.97-.85" style="fill:#418c48"/>
                    <path data-name="패스 13578" d="M38.971 43.974a.415.415 0 0 1 .345.138c0-.739.151-1.274.439-1.329.267-.051.58.317.839.917.2-.753.5-1.259.8-1.234.281.024.487.5.568 1.195.582-.7 1.167-1.085 1.449-.9s.165.922-.259 1.778c.712-.227 1.274-.24 1.413.02.149.278-.229.787-.9 1.285.738-.024 1.276.116 1.339.4s-.366.64-1.047.929a.413.413 0 0 1 .263.262c.063.286-.366.64-1.047.929a.413.413 0 0 1 .263.262c.063.286-.367.64-1.048.929a.416.416 0 0 1 .263.262c.063.286-.366.64-1.047.929a.416.416 0 0 1 .263.262c.093.424-.882 1-2.18 1.287a4.444 4.444 0 0 1-2.15.046l-1.585 2.408-.436-.287 1.584-2.408a4.449 4.449 0 0 1-.808-1.993c-.249-1.306-.106-2.43.321-2.512a.421.421 0 0 1 .345.138c0-.739.151-1.274.439-1.328a.415.415 0 0 1 .345.138c0-.74.151-1.274.439-1.329a.412.412 0 0 1 .344.138c0-.739.151-1.274.439-1.329" style="fill:#418c48"/>
                    <path data-name="패스 13579" d="M22.09 43.974a.415.415 0 0 0-.345.138c0-.739-.151-1.274-.439-1.329-.267-.051-.58.317-.839.917-.2-.753-.5-1.259-.8-1.234-.281.024-.487.5-.568 1.195-.582-.7-1.167-1.085-1.449-.9s-.165.922.259 1.778c-.712-.227-1.274-.24-1.413.02-.149.278.23.787.9 1.285-.738-.024-1.276.116-1.339.4s.366.64 1.047.929a.413.413 0 0 0-.263.262c-.063.286.366.64 1.047.929a.413.413 0 0 0-.263.262c-.063.286.367.64 1.048.929a.416.416 0 0 0-.263.262c-.063.286.366.64 1.047.929a.416.416 0 0 0-.263.262c-.093.424.882 1 2.18 1.287a4.444 4.444 0 0 0 2.15.046l1.584 2.4.436-.287-1.585-2.408a4.449 4.449 0 0 0 .808-1.993c.249-1.306.106-2.43-.321-2.512a.421.421 0 0 0-.345.138c0-.739-.151-1.274-.439-1.328a.415.415 0 0 0-.345.138c0-.74-.151-1.274-.439-1.329a.412.412 0 0 0-.344.138c0-.739-.151-1.274-.439-1.329" style="fill:#418c48"/>
                    <path data-name="패스 13580" d="M22.314 29.7a.356.356 0 0 0-.3.118c0-.633-.13-1.091-.375-1.138-.229-.044-.5.271-.718.785-.167-.646-.427-1.078-.686-1.057-.24.02-.416.43-.486 1.023-.5-.6-1-.93-1.241-.775s-.141.789.221 1.522c-.608-.194-1.091-.2-1.209.018s.2.674.768 1.1c-.632-.021-1.092.1-1.147.343s.314.547.9.794a.355.355 0 0 0-.225.225c-.054.245.313.547.9.794a.355.355 0 0 0-.225.225c-.054.245.314.547.9.794a.359.359 0 0 0-.226.225c-.053.245.314.547.9.794a.356.356 0 0 0-.225.224c-.08.364.755.857 1.866 1.1a3.794 3.794 0 0 0 1.84.039l1.354 2.058.374-.246L23.92 36.6a3.793 3.793 0 0 0 .691-1.705c.213-1.118.091-2.081-.275-2.15a.355.355 0 0 0-.3.118c0-.633-.129-1.091-.375-1.138a.355.355 0 0 0-.3.118c0-.633-.13-1.091-.376-1.138a.353.353 0 0 0-.294.118c0-.633-.13-1.091-.376-1.138" style="fill:#418c48"/>
                    <path data-name="패스 13581" d="M31.948 25.748a.356.356 0 0 0-.3.118c0-.633-.13-1.091-.375-1.138-.229-.044-.5.271-.718.785-.167-.646-.427-1.078-.686-1.057-.24.02-.416.43-.486 1.023-.5-.6-1-.93-1.241-.775s-.141.789.221 1.522c-.608-.194-1.091-.2-1.209.018-.128.238.2.674.768 1.1-.632-.021-1.092.1-1.147.343s.314.547.9.794a.355.355 0 0 0-.225.225c-.054.245.313.547.9.794a.355.355 0 0 0-.225.225c-.054.245.314.547.9.794a.359.359 0 0 0-.226.225c-.053.245.314.547.9.794a.356.356 0 0 0-.225.224c-.08.364.755.857 1.866 1.1a3.794 3.794 0 0 0 1.84.039l1.357 2.061.374-.246-1.357-2.061a3.793 3.793 0 0 0 .691-1.7c.213-1.118.091-2.081-.275-2.15a.355.355 0 0 0-.3.118c0-.633-.129-1.091-.375-1.138a.355.355 0 0 0-.3.118c0-.633-.13-1.091-.376-1.138a.353.353 0 0 0-.294.118c0-.633-.13-1.091-.376-1.138" style="fill:#418c48"/>
                    <path data-name="패스 13582" d="M28.806 37.576a.356.356 0 0 1 .3.118c0-.633.13-1.091.375-1.138.229-.044.5.271.718.785.167-.646.427-1.078.686-1.057.24.02.416.43.486 1.023.5-.6 1-.93 1.241-.775s.141.789-.221 1.522c.608-.194 1.091-.205 1.209.018.128.238-.2.674-.768 1.1.632-.021 1.092.1 1.147.343s-.314.547-.9.794a.355.355 0 0 1 .225.225c.054.245-.313.547-.9.794a.355.355 0 0 1 .225.225c.054.245-.314.547-.9.794a.359.359 0 0 1 .226.225c.053.245-.314.547-.9.794a.356.356 0 0 1 .225.224c.08.364-.755.857-1.866 1.1a3.794 3.794 0 0 1-1.84.039l-1.357 2.061-.374-.246 1.357-2.061a3.793 3.793 0 0 1-.691-1.705c-.213-1.118-.091-2.081.275-2.15a.355.355 0 0 1 .3.118c0-.633.129-1.091.375-1.138a.355.355 0 0 1 .3.118c0-.633.13-1.091.376-1.138a.353.353 0 0 1 .294.118c0-.633.13-1.091.376-1.138" style="fill:#418c48"/>
                    <path data-name="패스 13583" d="M50.007 32.823a.353.353 0 0 1 .2.246c.3-.557.638-.894.876-.817.221.071.305.476.253 1.034.456-.486.892-.741 1.108-.6.2.133.159.577-.065 1.131.724-.285 1.323-.334 1.46-.084s-.255.76-.925 1.229c.628.121 1.056.343 1.053.6s-.5.5-1.2.6c.565.286.911.611.841.851s-.538.33-1.168.267a.356.356 0 0 1 .09.305c-.07.241-.538.33-1.168.267a.356.356 0 0 1 .09.305c-.07.241-.538.329-1.168.267a.356.356 0 0 1 .09.305c-.07.24-.538.329-1.168.267a.356.356 0 0 1 .09.305c-.1.357-1.074.388-2.166.069a3.8 3.8 0 0 1-1.633-.849l-2.18 1.156-.209-.395 2.18-1.156A3.8 3.8 0 0 1 45.5 36.3c.349-1.083.919-1.868 1.273-1.754a.353.353 0 0 1 .2.246c.3-.556.638-.894.876-.817a.349.349 0 0 1 .2.245c.3-.556.638-.894.876-.817a.353.353 0 0 1 .2.246c.3-.557.638-.9.876-.817" style="fill:#418c48"/>
                    <path data-name="패스 13584" d="M32.754 46.03a.353.353 0 0 1 .2.246c.3-.557.638-.894.876-.817.221.071.3.476.253 1.034.456-.486.892-.741 1.108-.6.2.133.159.577-.065 1.131.724-.285 1.323-.334 1.46-.084s-.255.76-.925 1.229c.628.121 1.056.343 1.053.6s-.5.5-1.2.6c.565.286.911.611.841.851s-.538.33-1.168.267a.356.356 0 0 1 .09.305c-.07.241-.538.33-1.168.267a.356.356 0 0 1 .09.305c-.07.241-.538.329-1.168.267a.356.356 0 0 1 .09.305c-.07.24-.538.329-1.168.267a.356.356 0 0 1 .09.305c-.1.357-1.074.388-2.166.069a3.8 3.8 0 0 1-1.633-.849l-2.18 1.156-.209-.4 2.18-1.156a3.8 3.8 0 0 1 .213-1.828c.349-1.083.919-1.868 1.273-1.754a.353.353 0 0 1 .2.246c.3-.556.638-.894.876-.817a.349.349 0 0 1 .2.245c.3-.556.638-.894.876-.817a.353.353 0 0 1 .2.246c.3-.557.638-.9.876-.817" style="fill:#418c48"/>
                    <path data-name="패스 13585" d="M10.559 33.152a.353.353 0 0 0-.2.246c-.3-.557-.638-.894-.876-.818-.221.071-.3.476-.253 1.034-.456-.486-.892-.741-1.108-.6-.2.133-.159.577.065 1.131-.724-.285-1.323-.334-1.46-.084s.255.76.925 1.229c-.628.121-1.056.343-1.053.6s.5.5 1.2.6c-.565.286-.911.611-.841.851s.538.33 1.168.267a.356.356 0 0 0-.09.3c.07.241.538.33 1.168.267a.356.356 0 0 0-.09.305c.07.241.538.329 1.168.267a.356.356 0 0 0-.09.305c.07.24.538.329 1.168.267a.356.356 0 0 0-.09.305c.1.357 1.074.388 2.166.069a3.8 3.8 0 0 0 1.633-.849L17.249 40l.209-.4-2.177-1.161a3.8 3.8 0 0 0-.213-1.828c-.349-1.083-.919-1.868-1.273-1.754a.353.353 0 0 0-.2.246c-.3-.556-.638-.894-.876-.817a.349.349 0 0 0-.2.245c-.3-.556-.638-.894-.876-.817a.353.353 0 0 0-.2.246c-.3-.557-.638-.9-.876-.817" style="fill:#418c48"/>
                    <path data-name="패스 13586" d="M42.033 36.868a.353.353 0 0 0-.2.246c-.3-.557-.638-.894-.876-.817-.221.071-.305.476-.253 1.034-.456-.486-.892-.741-1.108-.6-.2.133-.159.577.065 1.131-.724-.285-1.323-.334-1.46-.084s.255.76.925 1.229c-.628.121-1.056.343-1.053.6s.5.5 1.2.6c-.565.286-.911.611-.841.851s.538.33 1.168.267a.356.356 0 0 0-.09.305c.07.241.538.33 1.168.267a.356.356 0 0 0-.09.305c.07.241.538.329 1.168.267a.356.356 0 0 0-.09.3c.07.24.538.329 1.168.267a.356.356 0 0 0-.09.305c.1.357 1.074.388 2.166.069a3.8 3.8 0 0 0 1.633-.849l2.18 1.156.209-.4-2.18-1.156a3.8 3.8 0 0 0-.213-1.828c-.349-1.083-.919-1.868-1.273-1.754a.353.353 0 0 0-.2.246c-.3-.556-.638-.894-.876-.817a.349.349 0 0 0-.2.245c-.3-.556-.638-.894-.876-.817a.353.353 0 0 0-.2.246c-.3-.557-.638-.9-.876-.817" style="fill:#418c48"/>
                    <path data-name="패스 13587" d="M41.636 36.868a.353.353 0 0 0-.2.246c-.3-.557-.638-.894-.876-.817-.221.071-.305.476-.253 1.034-.456-.486-.892-.741-1.108-.6-.2.133-.159.577.065 1.131-.724-.285-1.323-.334-1.46-.084s.255.76.925 1.229c-.628.121-1.056.343-1.053.6s.5.5 1.2.6c-.565.286-.911.611-.841.851s.538.33 1.168.267a.356.356 0 0 0-.09.305c.07.241.538.33 1.168.267a.356.356 0 0 0-.09.305c.07.241.538.329 1.168.267a.356.356 0 0 0-.09.3c.07.24.538.329 1.168.267a.356.356 0 0 0-.09.305c.1.357 1.074.388 2.166.069a3.8 3.8 0 0 0 1.633-.849l2.18 1.156.209-.4-2.18-1.156a3.8 3.8 0 0 0-.213-1.828c-.349-1.083-.919-1.868-1.273-1.754a.353.353 0 0 0-.2.246c-.3-.556-.638-.894-.876-.817a.349.349 0 0 0-.2.245c-.3-.556-.638-.894-.876-.817a.353.353 0 0 0-.2.246c-.3-.557-.638-.9-.876-.817" style="fill:#418c48"/>
                    <path data-name="패스 13588" d="M38.02 29.7a.356.356 0 0 1 .3.118c0-.633.13-1.091.375-1.138.229-.044.5.271.718.785.167-.646.427-1.078.686-1.057.24.02.416.43.486 1.023.5-.6 1-.93 1.241-.775s.141.789-.221 1.522c.608-.194 1.091-.2 1.209.018s-.2.674-.768 1.1c.632-.021 1.092.1 1.147.343s-.314.547-.9.794a.355.355 0 0 1 .225.225c.054.245-.313.547-.9.794a.355.355 0 0 1 .225.225c.054.245-.314.547-.9.794a.359.359 0 0 1 .226.225c.053.245-.314.547-.9.794a.356.356 0 0 1 .225.224c.08.364-.755.857-1.866 1.1a3.794 3.794 0 0 1-1.84.039l-1.348 2.064-.374-.246 1.357-2.061a3.793 3.793 0 0 1-.691-1.705c-.213-1.118-.091-2.081.275-2.15a.355.355 0 0 1 .3.118c0-.633.129-1.091.375-1.138a.355.355 0 0 1 .3.118c0-.633.13-1.091.376-1.138a.352.352 0 0 1 .288.122c0-.633.13-1.091.376-1.138" style="fill:#418c48"/>
                    <path data-name="패스 13589" d="M26.752 27.471c.826 1.948 1.841 3.379 2.271 3.2s.108-1.908-.718-3.856-1.842-3.379-2.271-3.2-.108 1.907.718 3.855" style="fill:#fff"/>
                    <path data-name="패스 13590" d="M23.4 19.558c.826 1.948 1.841 3.379 2.271 3.2s.108-1.908-.718-3.856-1.842-3.379-2.271-3.2-.108 1.907.718 3.855" style="fill:#fff"/>
                    <path data-name="패스 13591" d="M29.519 25.58c1.961.793 3.692 1.087 3.867.656s-1.273-1.425-3.234-2.219-3.693-1.087-3.867-.655 1.273 1.425 3.234 2.219" style="fill:#fff"/>
                    <path data-name="패스 13592" d="M21.554 22.356c1.961.793 3.692 1.087 3.867.656s-1.273-1.423-3.234-2.223-3.693-1.087-3.867-.655 1.273 1.425 3.234 2.219" style="fill:#fff"/>
                    <path data-name="패스 13593" d="M30.139 22.286c1.948-.826 3.379-1.841 3.2-2.271s-1.908-.108-3.856.718-3.383 1.842-3.2 2.267 1.907.108 3.855-.718" style="fill:#fff"/>
                    <path data-name="패스 13594" d="M22.226 25.638c1.948-.826 3.379-1.841 3.2-2.271s-1.905-.107-3.858.719-3.379 1.842-3.2 2.271 1.907.108 3.855-.718" style="fill:#fff"/>
                    <path data-name="패스 13595" d="M28.247 19.522c.793-1.961 1.087-3.692.656-3.867s-1.426 1.267-2.22 3.233-1.087 3.692-.655 3.866 1.425-1.273 2.219-3.234" style="fill:#fff"/>
                    <path data-name="패스 13596" d="M25.022 27.484c.793-1.961 1.087-3.692.656-3.867s-1.425 1.273-2.219 3.234-1.087 3.693-.655 3.867 1.425-1.273 2.219-3.234" style="fill:#fff"/>
                    <path data-name="패스 13597" d="M25.01 27.481c0 2.115.377 3.83.843 3.83s.843-1.715.843-3.83-.377-3.83-.843-3.83-.843 1.715-.843 3.83" style="fill:#fff"/>
                    <path data-name="패스 13598" d="M25.01 18.894c0 2.115.377 3.83.843 3.83s.843-1.715.843-3.83-.377-3.83-.843-3.83-.843 1.715-.843 3.83" style="fill:#fff"/>
                    <path data-name="패스 13599" d="M28.3 26.82c1.5 1.5 2.976 2.441 3.3 2.112s-.616-1.808-2.112-3.3-2.976-2.441-3.3-2.112.616 1.809 2.112 3.3" style="fill:#fff"/>
                    <path data-name="패스 13600" d="M22.219 20.745c1.5 1.5 2.976 2.441 3.3 2.112s-.616-1.808-2.112-3.3-2.976-2.441-3.3-2.112.616 1.809 2.112 3.3" style="fill:#fff"/>
                    <path data-name="패스 13601" d="M30.149 24.03c2.115 0 3.83-.377 3.83-.843s-1.715-.843-3.83-.843-3.83.377-3.83.843 1.715.843 3.83.843" style="fill:#fff"/>
                    <path data-name="패스 13602" d="M21.556 24.03c2.115 0 3.83-.377 3.83-.843s-1.715-.843-3.83-.843-3.83.377-3.83.843 1.715.843 3.83.843" style="fill:#fff"/>
                    <path data-name="패스 13603" d="M29.487 20.745c1.5-1.5 2.441-2.976 2.112-3.3s-1.808.616-3.3 2.112-2.441 2.976-2.112 3.3 1.809-.616 3.3-2.112" style="fill:#fff"/>
                    <path data-name="패스 13604" d="M23.412 26.82c1.5-1.5 2.441-2.976 2.112-3.3s-1.808.616-3.3 2.112-2.441 2.976-2.112 3.3 1.809-.616 3.3-2.112" style="fill:#fff"/>
                    <path data-name="패스 13605" d="M24 23.186a1.856 1.856 0 1 0 1.856-1.856A1.856 1.856 0 0 0 24 23.186" style="fill:#fce09c"/>
                    <path data-name="패스 13606" d="M35.966 15.047c.826 1.948 1.841 3.379 2.271 3.2s.108-1.908-.718-3.856-1.842-3.381-2.272-3.2-.108 1.907.718 3.855" style="fill:#fff"/>
                    <path data-name="패스 13607" d="M32.614 7.136c.825 1.948 1.841 3.379 2.27 3.2s.109-1.908-.717-3.856S32.325 3.1 31.9 3.281s-.107 1.907.719 3.855" style="fill:#fff"/>
                    <path data-name="패스 13608" d="M38.733 13.158c1.96.793 3.691 1.087 3.867.656s-1.274-1.425-3.234-2.219-3.693-1.088-3.872-.656 1.273 1.425 3.234 2.219" style="fill:#fff"/>
                    <path data-name="패스 13609" d="M30.768 9.931c1.961.793 3.692 1.087 3.867.656S33.362 9.162 31.4 8.368s-3.693-1.087-3.867-.655 1.273 1.426 3.234 2.218" style="fill:#fff"/>
                    <path data-name="패스 13610" d="M39.351 9.863c1.948-.826 3.379-1.841 3.2-2.271s-1.908-.108-3.856.718-3.379 1.842-3.2 2.271 1.907.108 3.855-.718" style="fill:#fff"/>
                    <path data-name="패스 13611" d="M31.439 13.216c1.948-.826 3.379-1.841 3.2-2.271s-1.908-.108-3.856.718-3.379 1.842-3.2 2.271 1.907.108 3.855-.718" style="fill:#fff"/>
                    <path data-name="패스 13612" d="M37.46 7.1c.789-1.96 1.089-3.692.655-3.867S36.69 4.5 35.9 6.465s-1.087 3.692-.655 3.866S36.666 9.058 37.46 7.1" style="fill:#fff"/>
                    <path data-name="패스 13613" d="M34.236 15.062c.793-1.961 1.087-3.692.656-3.867s-1.425 1.273-2.219 3.234-1.087 3.692-.655 3.866 1.425-1.273 2.219-3.234" style="fill:#fff"/>
                    <path data-name="패스 13614" d="M34.223 15.059c0 2.115.377 3.83.843 3.83s.843-1.715.843-3.83-.377-3.83-.843-3.83-.843 1.715-.843 3.83" style="fill:#fff"/>
                    <path data-name="패스 13615" d="M34.223 6.467c0 2.115.377 3.83.843 3.83s.843-1.715.843-3.83-.377-3.83-.843-3.83-.843 1.715-.843 3.83" style="fill:#fff"/>
                    <path data-name="패스 13616" d="M37.508 14.4c1.5 1.5 2.976 2.441 3.3 2.112s-.616-1.808-2.112-3.3S35.72 10.766 35.4 11.1s.616 1.809 2.112 3.3" style="fill:#fff"/>
                    <path data-name="패스 13617" d="M31.433 8.322c1.5 1.5 2.976 2.441 3.3 2.112s-.616-1.808-2.112-3.3-2.976-2.441-3.3-2.112.616 1.809 2.112 3.3" style="fill:#fff"/>
                    <path data-name="패스 13618" d="M39.362 11.607c2.115 0 3.83-.377 3.83-.843s-1.715-.843-3.83-.843-3.83.377-3.83.843 1.715.843 3.83.843" style="fill:#fff"/>
                    <path data-name="패스 13619" d="M30.77 11.607c2.115 0 3.83-.377 3.83-.843s-1.715-.843-3.83-.843-3.83.377-3.83.843 1.715.843 3.83.843" style="fill:#fff"/>
                    <path data-name="패스 13620" d="M38.7 8.322c1.5-1.5 2.441-2.976 2.112-3.3s-1.808.616-3.3 2.112-2.441 2.976-2.112 3.3 1.809-.616 3.3-2.112" style="fill:#fff"/>
                    <path data-name="패스 13621" d="M32.626 14.4c1.5-1.5 2.441-2.976 2.112-3.3s-1.808.616-3.3 2.112-2.441 2.976-2.112 3.3 1.809-.616 3.3-2.112" style="fill:#fff"/>
                    <path data-name="패스 13622" d="M33.21 10.758A1.856 1.856 0 1 0 35.066 8.9a1.856 1.856 0 0 0-1.856 1.856" style="fill:#fce09c"/>
                    <path data-name="패스 13623" d="M50.36 28.314c.825 1.948 1.841 3.379 2.271 3.2s.108-1.908-.718-3.856-1.842-3.379-2.271-3.2-.108 1.907.718 3.855" style="fill:#fff"/>
                    <path data-name="패스 13624" d="M47.01 20.4c.826 1.948 1.841 3.379 2.271 3.2s.108-1.908-.718-3.856-1.842-3.379-2.271-3.2-.108 1.907.718 3.855" style="fill:#fff"/>
                    <path data-name="패스 13625" d="M53.129 26.424c1.961.793 3.692 1.087 3.867.656s-1.273-1.425-3.234-2.219-3.692-1.087-3.866-.655 1.273 1.425 3.234 2.219" style="fill:#fff"/>
                    <path data-name="패스 13626" d="M45.164 23.2c1.961.793 3.692 1.087 3.867.656s-1.273-1.426-3.236-2.22-3.692-1.087-3.866-.655 1.271 1.424 3.234 2.219" style="fill:#fff"/>
                    <path data-name="패스 13627" d="M53.747 23.13c1.948-.826 3.379-1.841 3.2-2.271s-1.908-.108-3.856.718-3.379 1.842-3.2 2.271 1.907.108 3.855-.718" style="fill:#fff"/>
                    <path data-name="패스 13628" d="M45.835 26.482c1.948-.826 3.379-1.841 3.2-2.271s-1.908-.108-3.856.718-3.379 1.842-3.2 2.271 1.907.108 3.855-.718" style="fill:#fff"/>
                    <path data-name="패스 13629" d="M51.857 20.364c.793-1.961 1.087-3.692.656-3.867s-1.425 1.273-2.219 3.234-1.087 3.692-.655 3.866 1.425-1.273 2.219-3.234" style="fill:#fff"/>
                    <path data-name="패스 13630" d="M48.633 28.329c.793-1.961 1.087-3.692.656-3.867s-1.425 1.273-2.219 3.238-1.087 3.693-.655 3.867 1.425-1.273 2.219-3.234" style="fill:#fff"/>
                    <path data-name="패스 13631" d="M48.619 28.323c0 2.115.377 3.83.843 3.83s.843-1.715.843-3.83-.377-3.83-.843-3.83-.843 1.715-.843 3.83" style="fill:#fff"/>
                    <path data-name="패스 13632" d="M48.619 19.733c0 2.115.377 3.83.843 3.83s.843-1.715.843-3.83-.377-3.83-.843-3.83-.843 1.715-.843 3.83" style="fill:#fff"/>
                    <path data-name="패스 13633" d="M51.9 27.664c1.5 1.5 2.976 2.441 3.3 2.112s-.616-1.808-2.112-3.3-2.976-2.441-3.3-2.112.616 1.809 2.112 3.3" style="fill:#fff"/>
                    <path data-name="패스 13634" d="M45.829 21.588c1.5 1.5 2.976 2.441 3.3 2.112s-.616-1.808-2.112-3.3-2.976-2.441-3.3-2.112.616 1.809 2.112 3.3" style="fill:#fff"/>
                    <path data-name="패스 13635" d="M53.759 24.873c2.115 0 3.83-.377 3.83-.843s-1.715-.843-3.83-.843-3.83.377-3.83.843 1.715.843 3.83.843" style="fill:#fff"/>
                    <path data-name="패스 13636" d="M45.167 24.873c2.115 0 3.83-.377 3.83-.843s-1.715-.845-3.83-.845-3.83.377-3.83.843 1.715.843 3.83.843" style="fill:#fff"/>
                    <path data-name="패스 13637" d="M53.1 21.588c1.5-1.5 2.441-2.976 2.112-3.3S53.4 18.9 51.91 20.4s-2.441 2.976-2.112 3.3 1.809-.616 3.3-2.112" style="fill:#fff"/>
                    <path data-name="패스 13638" d="M47.022 27.664c1.5-1.5 2.441-2.976 2.111-3.3s-1.808.616-3.3 2.112-2.441 2.976-2.111 3.3 1.808-.616 3.3-2.112" style="fill:#fff"/>
                    <path data-name="패스 13639" d="M47.606 24.029a1.856 1.856 0 1 0 1.856-1.856 1.856 1.856 0 0 0-1.856 1.856" style="fill:#fce09c"/>
                    <path data-name="패스 13640" d="M11.173 26.263c.826 1.948 1.841 3.379 2.271 3.2s.108-1.908-.718-3.856-1.842-3.379-2.271-3.2-.108 1.907.718 3.855" style="fill:#fff"/>
                    <path data-name="패스 13641" d="M7.821 18.35c.826 1.948 1.841 3.379 2.271 3.2s.108-1.908-.718-3.856-1.842-3.379-2.271-3.2-.108 1.907.718 3.855" style="fill:#fff"/>
                    <path data-name="패스 13642" d="M13.94 24.372c1.961.793 3.692 1.087 3.867.656s-1.273-1.426-3.235-2.22-3.693-1.087-3.867-.655 1.273 1.425 3.234 2.219" style="fill:#fff"/>
                    <path data-name="패스 13643" d="M5.975 21.148c1.961.793 3.692 1.087 3.867.656s-1.273-1.425-3.234-2.219-3.692-1.085-3.867-.656 1.273 1.425 3.234 2.219" style="fill:#fff"/>
                    <path data-name="패스 13644" d="M14.559 21.078c1.947-.826 3.379-1.841 3.2-2.271s-1.909-.108-3.856.718-3.379 1.842-3.2 2.271 1.907.108 3.855-.718" style="fill:#fff"/>
                    <path data-name="패스 13645" d="M6.646 24.43c1.948-.826 3.379-1.841 3.2-2.271s-1.908-.108-3.856.718-3.379 1.842-3.2 2.271 1.907.108 3.855-.718" style="fill:#fff"/>
                    <path data-name="패스 13646" d="M12.668 18.312c.793-1.961 1.087-3.692.656-3.867S11.9 15.718 11.1 17.679s-1.087 3.693-.655 3.867 1.425-1.273 2.219-3.234" style="fill:#fff"/>
                    <path data-name="패스 13647" d="M9.444 26.276c.793-1.961 1.087-3.692.656-3.867s-1.426 1.274-2.22 3.234-1.087 3.692-.652 3.867 1.425-1.273 2.219-3.234" style="fill:#fff"/>
                    <path data-name="패스 13648" d="M9.429 26.277c0 2.115.377 3.83.843 3.83s.843-1.715.843-3.83-.377-3.83-.843-3.83-.843 1.711-.843 3.83" style="fill:#fff"/>
                    <path data-name="패스 13649" d="M9.429 17.681c0 2.115.377 3.83.843 3.83s.843-1.715.843-3.83-.377-3.83-.843-3.83-.843 1.715-.843 3.83" style="fill:#fff"/>
                    <path data-name="패스 13650" d="M12.716 25.612c1.5 1.5 2.976 2.441 3.3 2.112s-.616-1.808-2.112-3.3-2.976-2.441-3.3-2.112.616 1.809 2.112 3.3" style="fill:#fff"/>
                    <path data-name="패스 13651" d="M6.64 19.537c1.5 1.5 2.976 2.441 3.3 2.112s-.616-1.808-2.112-3.3-2.976-2.441-3.3-2.112.616 1.809 2.112 3.3" style="fill:#fff"/>
                    <path data-name="패스 13652" d="M14.567 22.822c2.115 0 3.83-.377 3.83-.843s-1.715-.843-3.83-.843-3.83.377-3.83.843 1.715.843 3.83.843" style="fill:#fff"/>
                    <path data-name="패스 13653" d="M5.977 22.822c2.115 0 3.83-.377 3.83-.843s-1.715-.843-3.83-.843-3.83.377-3.83.843 1.715.843 3.83.843" style="fill:#fff"/>
                    <path data-name="패스 13654" d="M13.909 19.537c1.5-1.5 2.441-2.976 2.112-3.3s-1.808.616-3.3 2.112-2.441 2.976-2.112 3.3 1.809-.616 3.3-2.112" style="fill:#fff"/>
                    <path data-name="패스 13655" d="M7.833 25.612c1.5-1.5 2.441-2.976 2.112-3.3s-1.808.616-3.3 2.112-2.445 2.976-2.112 3.3 1.809-.616 3.3-2.112" style="fill:#fff"/>
                    <path data-name="패스 13656" d="M8.417 21.978a1.856 1.856 0 1 0 1.856-1.856 1.856 1.856 0 0 0-1.856 1.856" style="fill:#fce09c"/>
                    <path data-name="패스 13657" d="M9.026 41.887c.826 1.948 1.841 3.379 2.271 3.2s.108-1.908-.718-3.856-1.842-3.379-2.271-3.2-.108 1.907.718 3.855" style="fill:#fff"/>
                    <path data-name="패스 13658" d="M5.673 33.975c.826 1.948 1.841 3.379 2.271 3.2s.108-1.908-.718-3.856-1.842-3.379-2.271-3.2-.108 1.907.718 3.855" style="fill:#fff"/>
                    <path data-name="패스 13659" d="M11.793 40c1.96.793 3.691 1.087 3.867.656s-1.274-1.425-3.235-2.219-3.691-1.089-3.865-.657S9.831 39.2 11.793 40" style="fill:#fff"/>
                    <path data-name="패스 13660" d="M3.828 36.773c1.961.793 3.692 1.087 3.867.656S6.422 36 4.46 35.209.769 34.122.594 34.554s1.273 1.425 3.234 2.219" style="fill:#fff"/>
                    <path data-name="패스 13661" d="M12.411 36.7c1.948-.826 3.379-1.841 3.2-2.271s-1.908-.108-3.856.718-3.379 1.842-3.2 2.271 1.907.108 3.855-.718" style="fill:#fff"/>
                    <path data-name="패스 13662" d="M4.5 40.054c1.948-.826 3.379-1.841 3.2-2.271s-1.908-.108-3.856.718-3.382 1.843-3.2 2.271 1.907.108 3.855-.718" style="fill:#fff"/>
                    <path data-name="패스 13663" d="M10.52 33.932c.793-1.961 1.087-3.692.656-3.867S9.751 31.338 8.957 33.3 7.87 36.991 8.3 37.165s1.425-1.273 2.219-3.234" style="fill:#fff"/>
                    <path data-name="패스 13664" d="M7.294 41.9c.793-1.961 1.087-3.692.656-3.867s-1.425 1.273-2.219 3.234-1.087 3.692-.655 3.866S6.5 43.862 7.294 41.9" style="fill:#fff"/>
                    <path data-name="패스 13665" d="M7.283 41.9c0 2.115.377 3.83.843 3.83s.843-1.715.843-3.83-.377-3.83-.843-3.83-.843 1.715-.843 3.83" style="fill:#fff"/>
                    <path data-name="패스 13666" d="M7.283 33.3c0 2.115.377 3.83.843 3.83s.843-1.715.843-3.83-.377-3.83-.843-3.83-.843 1.717-.843 3.83" style="fill:#fff"/>
                    <path data-name="패스 13667" d="M10.568 41.237c1.5 1.5 2.976 2.441 3.3 2.112s-.616-1.808-2.112-3.3-2.971-2.446-3.3-2.117.616 1.809 2.112 3.3" style="fill:#fff"/>
                    <path data-name="패스 13668" d="M4.493 35.162c1.5 1.5 2.976 2.441 3.3 2.112s-.616-1.808-2.112-3.3-2.968-2.446-3.3-2.117.616 1.809 2.112 3.3" style="fill:#fff"/>
                    <path data-name="패스 13669" d="M12.422 38.446c2.115 0 3.83-.377 3.83-.843s-1.715-.843-3.83-.843-3.83.377-3.83.843 1.715.843 3.83.843" style="fill:#fff"/>
                    <path data-name="패스 13670" d="M3.83 38.446c2.115 0 3.83-.377 3.83-.843s-1.715-.843-3.83-.843S0 37.136 0 37.6s1.715.843 3.83.843" style="fill:#fff"/>
                    <path data-name="패스 13671" d="M11.758 35.162c1.5-1.5 2.441-2.976 2.112-3.3s-1.808.616-3.3 2.112-2.441 2.976-2.112 3.3 1.809-.616 3.3-2.112" style="fill:#fff"/>
                    <path data-name="패스 13672" d="M5.686 41.237c1.5-1.5 2.441-2.976 2.112-3.3s-1.808.616-3.3 2.112-2.441 2.976-2.112 3.3 1.809-.616 3.3-2.112" style="fill:#fff"/>
                    <path data-name="패스 13673" d="M6.27 37.6a1.856 1.856 0 1 0 1.856-1.856 1.856 1.856 0 0 0-1.86 1.856" style="fill:#fce09c"/>
                    <path data-name="패스 13674" d="M54.771 42.3c.826 1.948 1.841 3.379 2.271 3.2s.108-1.908-.718-3.856-1.842-3.379-2.271-3.2-.108 1.907.718 3.855" style="fill:#fff"/>
                    <path data-name="패스 13675" d="M51.419 34.389c.826 1.948 1.841 3.379 2.271 3.2s.108-1.908-.718-3.856-1.842-3.379-2.271-3.2-.108 1.907.718 3.855" style="fill:#fff"/>
                    <path data-name="패스 13676" d="M57.538 40.411c1.961.793 3.692 1.087 3.867.656s-1.273-1.425-3.234-2.219-3.693-1.087-3.867-.655 1.273 1.425 3.234 2.219" style="fill:#fff"/>
                    <path data-name="패스 13677" d="M49.573 37.186c1.961.793 3.692 1.087 3.867.656s-1.273-1.425-3.234-2.219-3.692-1.087-3.866-.655 1.273 1.425 3.234 2.219" style="fill:#fff"/>
                    <path data-name="패스 13678" d="M58.16 37.117c1.947-.826 3.379-1.841 3.2-2.271s-1.908-.108-3.856.718-3.379 1.842-3.2 2.271 1.908.108 3.856-.718" style="fill:#fff"/>
                    <path data-name="패스 13679" d="M50.242 40.469c1.948-.826 3.379-1.841 3.2-2.271s-1.908-.108-3.856.718-3.379 1.842-3.2 2.271 1.907.108 3.855-.718" style="fill:#fff"/>
                    <path data-name="패스 13680" d="M56.266 34.351c.793-1.961 1.087-3.692.656-3.867S55.5 31.757 54.7 33.718s-1.089 3.692-.656 3.863 1.425-1.273 2.219-3.234" style="fill:#fff"/>
                    <path data-name="패스 13681" d="M53.041 42.315c.793-1.961 1.087-3.692.656-3.867s-1.425 1.273-2.219 3.234-1.087 3.692-.655 3.866 1.425-1.273 2.219-3.234" style="fill:#fff"/>
                    <path data-name="패스 13682" d="M53.029 42.312c0 2.115.377 3.83.843 3.83s.843-1.715.843-3.83-.377-3.83-.843-3.83-.843 1.715-.843 3.83" style="fill:#fff"/>
                    <path data-name="패스 13683" d="M53.029 33.72c0 2.115.377 3.83.843 3.83s.843-1.715.843-3.83-.377-3.83-.843-3.83-.843 1.715-.843 3.83" style="fill:#fff"/>
                    <path data-name="패스 13684" d="M56.313 41.651c1.5 1.5 2.976 2.441 3.3 2.112s-.613-1.808-2.113-3.3-2.976-2.441-3.3-2.112.616 1.809 2.112 3.3" style="fill:#fff"/>
                    <path data-name="패스 13685" d="M50.233 35.575c1.5 1.5 2.976 2.441 3.3 2.112s-.616-1.808-2.112-3.3-2.976-2.441-3.3-2.112.616 1.809 2.112 3.3" style="fill:#fff"/>
                    <path data-name="패스 13686" d="M58.167 38.86c2.115 0 3.83-.377 3.83-.843s-1.715-.843-3.83-.843-3.83.377-3.83.843 1.715.843 3.83.843" style="fill:#fff"/>
                    <path data-name="패스 13687" d="M49.575 38.86c2.115 0 3.83-.377 3.83-.843s-1.715-.843-3.83-.843-3.83.377-3.83.843 1.715.843 3.83.843" style="fill:#fff"/>
                    <path data-name="패스 13688" d="M57.506 35.575c1.5-1.5 2.441-2.976 2.112-3.3s-1.808.616-3.3 2.112-2.441 2.976-2.112 3.3 1.809-.616 3.3-2.112" style="fill:#fff"/>
                    <path data-name="패스 13689" d="M51.433 41.651c1.5-1.5 2.441-2.976 2.112-3.3s-1.808.616-3.3 2.112-2.441 2.976-2.112 3.3 1.809-.616 3.3-2.112" style="fill:#fff"/>
                    <path data-name="패스 13690" d="M52.016 38.016a1.856 1.856 0 1 0 1.856-1.856 1.856 1.856 0 0 0-1.856 1.856" style="fill:#fce09c"/>
                    <path data-name="패스 13691" d="M49.772 82.663H11.9a2.9 2.9 0 0 1-2.9-2.9V61.976h43.671v17.793a2.9 2.9 0 0 1-2.9 2.9" style="fill:#91d09f"/>
                    <path data-name="사각형 2803" transform="translate(9.007 56.747)" style="fill:#91d09f" d="M0 0h43.664v3.967H0z"/>
                    <path data-name="패스 13692" d="M3.108 16.095a1.312 1.312 0 0 1-1-1.049c-.023-.165.232-.435.259-.71.112-1.16.411-2.867 1.4-1.77a9.551 9.551 0 0 1 1.728 3.34 5.258 5.258 0 0 0 .241-2.371 1.842 1.842 0 0 0-.406-1.107.68.68 0 0 0-.708-.021l-.031-.066a.757.757 0 0 1 .784.029h.005a1.911 1.911 0 0 1 .424 1.151 5.366 5.366 0 0 1-.278 2.5c.018.062.027.1.027.1l.094-.03a5.374 5.374 0 0 1 1.964-1.58 1.908 1.908 0 0 1 1.2-.26H8.825a.752.752 0 0 1 .445.644l-.07.015a.68.68 0 0 0-.4-.584 1.831 1.831 0 0 0-1.149.253 5.26 5.26 0 0 0-1.872 1.478 9.539 9.539 0 0 1 3.745-.336c1.457.243.177 1.413-.743 2.13-.218.171-.308.531-.46.6a1.314 1.314 0 0 1-1.422-.28s.637 2.147-.676 2.075-1 .232-1.374.21-.61-1.929-.61-1.929-1.735.828-1.955.522.2-.2-.561-1.272 1.387-1.684 1.387-1.684" style="fill:#1f5a2c"/>
                    <path data-name="패스 13693" d="M2.362 14.706a1.314 1.314 0 0 1-1-1.049c-.023-.165.232-.435.259-.71.112-1.16.411-2.867 1.4-1.77a9.551 9.551 0 0 1 1.728 3.34 5.258 5.258 0 0 0 .241-2.371 1.842 1.842 0 0 0-.406-1.107.68.68 0 0 0-.708-.021l-.031-.066a.757.757 0 0 1 .784.029 1.911 1.911 0 0 1 .424 1.151 5.366 5.366 0 0 1-.278 2.5c.018.062.027.1.027.1l.094-.03a5.374 5.374 0 0 1 1.964-1.58 1.908 1.908 0 0 1 1.2-.26h.011a.752.752 0 0 1 .445.644l-.072.008a.68.68 0 0 0-.4-.584 1.831 1.831 0 0 0-1.144.26 5.26 5.26 0 0 0-1.872 1.478 9.539 9.539 0 0 1 3.745-.336c1.457.243.177 1.413-.743 2.13-.218.171-.308.531-.46.6a1.314 1.314 0 0 1-1.422-.28s.637 2.147-.676 2.075-1 .232-1.374.21-.61-1.929-.61-1.929-1.735.828-1.955.522.205-.2-.561-1.272 1.387-1.684 1.387-1.684" style="fill:#fff"/>
                    <path data-name="패스 13694" d="M56.97 15.489a1.925 1.925 0 0 0 1.463-1.536c.032-.242-.341-.637-.382-1.04-.162-1.7-.6-4.2-2.045-2.59a13.991 13.991 0 0 0-2.53 4.889 7.687 7.687 0 0 1-.353-3.471v-.005a2.689 2.689 0 0 1 .593-1.62 1 1 0 0 1 1.036-.032l.046-.1a1.106 1.106 0 0 0-1.147.043h-.007l-.006.006a2.8 2.8 0 0 0-.622 1.685 7.857 7.857 0 0 0 .407 3.664l-.039.141-.138-.043a7.87 7.87 0 0 0-2.873-2.311 2.782 2.782 0 0 0-1.755-.38h-.009l-.009.011a1.1 1.1 0 0 0-.654.942l.107.013a.992.992 0 0 1 .582-.856 2.687 2.687 0 0 1 1.684.369 7.69 7.69 0 0 1 2.739 2.165 13.943 13.943 0 0 0-5.482-.493c-2.132.357-.259 2.068 1.088 3.119.319.25.451.777.673.881a1.925 1.925 0 0 0 2.082-.41s-.933 3.143.989 3.038 1.46.338 2.012.306.893-2.823.893-2.823 2.539 1.212 2.861.764-.3-.3.822-1.862-2.031-2.466-2.031-2.466" style="fill:#1f5a2c"/>
                    <path data-name="패스 13695" d="M58.062 13.456a1.925 1.925 0 0 0 1.463-1.536c.032-.242-.341-.637-.382-1.04-.162-1.7-.6-4.2-2.045-2.59a13.991 13.991 0 0 0-2.53 4.889 7.687 7.687 0 0 1-.353-3.471V9.7a2.689 2.689 0 0 1 .593-1.62 1 1 0 0 1 1.036-.032l.046-.1A1.106 1.106 0 0 0 54.743 8h-.007l-.006.006a2.8 2.8 0 0 0-.622 1.685 7.857 7.857 0 0 0 .407 3.664l-.039.141-.138-.043a7.87 7.87 0 0 0-2.873-2.311 2.782 2.782 0 0 0-1.755-.38h-.01l-.007.005a1.1 1.1 0 0 0-.654.942l.107.013a.992.992 0 0 1 .582-.856 2.687 2.687 0 0 1 1.684.369 7.69 7.69 0 0 1 2.74 2.165 13.943 13.943 0 0 0-5.482-.493c-2.132.357-.259 2.068 1.088 3.119.319.25.451.777.673.881a1.925 1.925 0 0 0 2.082-.41s-.933 3.143.989 3.038 1.46.338 2.012.306.893-2.823.893-2.823 2.539 1.212 2.861.764-.3-.3.822-1.862-2.031-2.466-2.031-2.466" style="fill:#a3d0ff"/>
                    <path data-name="패스 13696" d="M47.006 5.619A1.4 1.4 0 0 0 48.071 4.5c.024-.176-.248-.463-.278-.757-.118-1.236-.437-3.056-1.493-1.886a10.183 10.183 0 0 0-1.843 3.561A5.62 5.62 0 0 1 44.2 2.89a1.966 1.966 0 0 1 .432-1.18.725.725 0 0 1 .754-.023l.034-.072a.8.8 0 0 0-.835.032h-.006a2.042 2.042 0 0 0-.452 1.227 5.715 5.715 0 0 0 .3 2.669l-.028.1-.1-.031A5.72 5.72 0 0 0 42.2 3.934a2.026 2.026 0 0 0-1.279-.277h-.011a.8.8 0 0 0-.476.686l.077.009a.725.725 0 0 1 .425-.623A1.952 1.952 0 0 1 42.164 4a5.6 5.6 0 0 1 1.995 1.576 10.172 10.172 0 0 0-3.993-.359c-1.553.26-.188 1.507.793 2.272.232.182.328.566.49.641a1.4 1.4 0 0 0 1.516-.3s-.679 2.288.72 2.212 1.064.246 1.466.223.65-2.056.65-2.056 1.849.883 2.083.557-.217-.217.6-1.356S47 5.618 47 5.618" style="fill:#1f5a2c"/>
                    <path data-name="패스 13697" d="M47.8 4.138a1.4 1.4 0 0 0 1.065-1.119c.024-.176-.248-.463-.278-.757C48.47 1.026 48.151-.794 47.1.376a10.183 10.183 0 0 0-1.843 3.561A5.62 5.62 0 0 1 45 1.409a1.966 1.966 0 0 1 .432-1.18.725.725 0 0 1 .753-.029l.034-.07a.8.8 0 0 0-.835.032h-.006a2.042 2.042 0 0 0-.456 1.238 5.715 5.715 0 0 0 .3 2.669l-.028.1-.1-.031A5.72 5.72 0 0 0 43 2.453a2.026 2.026 0 0 0-1.279-.277h-.011a.8.8 0 0 0-.476.686l.077.009a.725.725 0 0 1 .425-.623 1.952 1.952 0 0 1 1.226.269A5.6 5.6 0 0 1 44.954 4.1a10.172 10.172 0 0 0-3.993-.359c-1.553.26-.188 1.507.793 2.272.232.182.328.566.49.641a1.4 1.4 0 0 0 1.516-.3s-.679 2.288.72 2.212 1.064.246 1.466.223.65-2.056.65-2.056 1.849.883 2.083.557-.217-.217.6-1.356-1.479-1.8-1.479-1.8" style="fill:#f6c0fc"/>
                    <path data-name="패스 13698" d="M14.21 8.437A1.923 1.923 0 0 1 12.749 6.9c-.034-.241.34-.637.38-1.039.162-1.7.6-4.2 2.045-2.591A13.992 13.992 0 0 1 17.7 8.16a7.687 7.687 0 0 0 .353-3.471v-.005a2.694 2.694 0 0 0-.594-1.62 1 1 0 0 0-1.036-.032l-.046-.1a1.106 1.106 0 0 1 1.147.044h.007l.006.006a2.8 2.8 0 0 1 .622 1.685 7.86 7.86 0 0 1-.407 3.664l.039.141.138-.043a7.863 7.863 0 0 1 2.875-2.313 2.782 2.782 0 0 1 1.755-.38h.008l.007.005a1.1 1.1 0 0 1 .653.942l-.107.013a.992.992 0 0 0-.584-.855 2.69 2.69 0 0 0-1.683.369 7.7 7.7 0 0 0-2.74 2.165 13.943 13.943 0 0 1 5.487-.486c2.133.357.259 2.069-1.088 3.119-.318.25-.45.777-.673.881a1.926 1.926 0 0 1-2.082-.41s.933 3.143-.989 3.038-1.46.338-2.012.306S15.862 12 15.862 12s-2.538 1.213-2.861.764.3-.3-.822-1.862 2.031-2.466 2.031-2.466" style="fill:#1f5a2c"/>
                    <path data-name="패스 13699" d="M13.118 6.4a1.923 1.923 0 0 1-1.461-1.536c-.034-.241.34-.637.38-1.039.162-1.7.6-4.2 2.045-2.591a13.991 13.991 0 0 1 2.53 4.889 7.687 7.687 0 0 0 .353-3.471 2.694 2.694 0 0 0-.594-1.62A1 1 0 0 0 15.335 1l-.046-.1a1.108 1.108 0 0 1 1.147.044h.007l.006.006a2.8 2.8 0 0 1 .622 1.685 7.86 7.86 0 0 1-.407 3.665c.026.091.038.141.038.141l.139-.043a7.863 7.863 0 0 1 2.875-2.313 2.782 2.782 0 0 1 1.755-.38h.015a1.1 1.1 0 0 1 .653.942l-.107.013a.992.992 0 0 0-.584-.855 2.69 2.69 0 0 0-1.683.369 7.7 7.7 0 0 0-2.74 2.165 13.943 13.943 0 0 1 5.482-.493c2.133.357.259 2.069-1.088 3.119-.318.25-.45.777-.673.881a1.926 1.926 0 0 1-2.082-.41s.933 3.143-.989 3.038-1.46.338-2.012.306-.893-2.823-.893-2.823-2.538 1.213-2.861.764.3-.3-.822-1.862S13.118 6.4 13.118 6.4" style="fill:#ffeb00"/>
                    <path data-name="사각형 2804" transform="translate(9.007 60.711)" style="fill:#56b36b" d="M0 0h43.664v1.265H0z"/>
                </g>
            </g>
        </g>
    </g>
</svg>
