<svg xmlns="http://www.w3.org/2000/svg" width="100" height="100.032" viewBox="0 0 100 100.032">
    <defs>
        <clipPath id="4e08enb0ya">
            <path data-name="사각형 2795" style="fill:none" d="M0 0h61.997v80.032H0z"/>
        </clipPath>
    </defs>
    <g data-name="그룹 2493">
        <path data-name="사각형 2620" style="fill:none" d="M0 0h100v100H0z"/>
        <g data-name="그룹 2460">
            <path data-name="사각형 2791" transform="translate(43.963 37.109)" style="fill:#418c48" d="M0 0h1.779v38.985H0z"/>
            <path data-name="사각형 2792" transform="translate(53.176 28.556)" style="fill:#418c48" d="M0 0h1.779v47.538H0z"/>
            <g data-name="그룹 2459">
                <g data-name="그룹 2458" style="clip-path:url(#4e08enb0ya)" transform="translate(19 20)">
                    <path data-name="패스 13324" d="M20.718 56.093h-1.779c0-22.89-8.807-33.059-8.9-33.159l1.326-1.186c.382.425 9.349 10.708 9.349 34.345" style="fill:#418c48"/>
                    <path data-name="패스 13325" d="M42.07 56.093h-1.779c0-24.709 9-34 9.383-34.38l1.258 1.258-.629-.629.631.627c-.089.089-8.863 9.237-8.863 33.124" style="fill:#418c48"/>
                    <path data-name="패스 13326" d="M16.158 56.093h-1.779c0-15.757-7.584-22.019-7.662-22.08l1.114-1.389c.34.273 8.327 6.867 8.327 23.469" style="fill:#418c48"/>
                    <path data-name="패스 13327" d="M46.355 56.093h-1.779c0-16.6 7.987-23.2 8.327-23.469l1.115 1.387c-.077.062-7.663 6.4-7.663 22.082" style="fill:#418c48"/>
                    <path data-name="패스 13328" d="M6.991 44.579a.381.381 0 0 0-.209.27c-.342-.588-.715-.94-.97-.849-.235.084-.312.522-.237 1.119-.507-.506-.985-.766-1.212-.6s-.152.626.108 1.213c-.788-.281-1.434-.316-1.573-.041s.3.809 1.036 1.291c-.671.152-1.124.4-1.112.676s.551.518 1.312.6c-.6.326-.958.688-.874.944s.59.336 1.265.247a.379.379 0 0 0-.086.331c.083.257.59.336 1.264.247a.385.385 0 0 0-.085.332c.084.256.59.335 1.265.247a.384.384 0 0 0-.087.331c.084.256.591.336 1.265.247a.383.383 0 0 0-.086.331c.125.381 1.168.382 2.332 0a4.071 4.071 0 0 0 1.727-.969l2.383 1.17.213-.431-2.38-1.169a4.065 4.065 0 0 0-.3-1.958c-.412-1.153-1.051-1.978-1.428-1.843a.381.381 0 0 0-.209.27c-.342-.588-.715-.94-.97-.849a.379.379 0 0 0-.209.27c-.342-.588-.715-.94-.97-.85a.38.38 0 0 0-.209.271c-.342-.589-.715-.94-.97-.85" style="fill:#418c48"/>
                    <path data-name="패스 13329" d="M4.862 35.589a.381.381 0 0 0-.209.27c-.342-.588-.715-.94-.97-.849-.235.084-.312.522-.237 1.119-.507-.506-.985-.766-1.212-.6s-.152.626.108 1.213C1.554 36.454.914 36.423.77 36.7s.3.809 1.036 1.291c-.671.152-1.124.4-1.112.676s.551.518 1.312.6c-.6.326-.958.688-.874.944s.589.336 1.264.247a.379.379 0 0 0-.086.331c.083.257.59.336 1.264.247a.385.385 0 0 0-.085.332c.084.256.59.335 1.265.247a.384.384 0 0 0-.087.331c.084.256.591.336 1.265.247a.383.383 0 0 0-.086.331c.125.381 1.168.382 2.332 0a4.072 4.072 0 0 0 1.722-.97l2.383 1.17.213-.431-2.386-1.167a4.061 4.061 0 0 0-.291-1.958c-.405-1.153-1.045-1.978-1.419-1.843a.381.381 0 0 0-.209.27c-.342-.588-.715-.94-.97-.849a.379.379 0 0 0-.209.27c-.342-.588-.715-.94-.97-.85a.38.38 0 0 0-.209.271c-.342-.589-.715-.94-.97-.85" style="fill:#418c48"/>
                    <path data-name="패스 13330" d="M53.479 44.962a.381.381 0 0 1 .209.27c.342-.588.715-.94.97-.849.235.084.312.522.237 1.119.507-.506.985-.766 1.212-.6s.152.626-.108 1.213c.788-.281 1.434-.316 1.573-.041s-.3.809-1.036 1.291c.671.152 1.124.4 1.112.676s-.551.518-1.312.6c.6.326.958.688.874.944s-.59.336-1.265.247a.379.379 0 0 1 .086.331c-.083.257-.59.336-1.264.247a.385.385 0 0 1 .085.332c-.083.256-.59.335-1.264.247a.383.383 0 0 1 .086.331c-.084.256-.591.336-1.265.247a.383.383 0 0 1 .086.331c-.125.381-1.168.382-2.332 0a4.071 4.071 0 0 1-1.727-.969L46.053 52.1l-.213-.431 2.384-1.17a4.061 4.061 0 0 1 .291-1.958c.412-1.153 1.051-1.978 1.428-1.843a.381.381 0 0 1 .209.27c.342-.588.716-.94.97-.849a.379.379 0 0 1 .209.27c.342-.588.715-.94.97-.85a.383.383 0 0 1 .209.271c.342-.589.715-.94.97-.85" style="fill:#418c48"/>
                    <path data-name="패스 13331" d="M55.607 35.972a.381.381 0 0 1 .209.27c.342-.588.715-.94.97-.849.235.084.312.522.237 1.119.507-.506.985-.766 1.212-.6s.152.626-.108 1.213c.788-.281 1.434-.316 1.573-.041s-.3.809-1.036 1.291c.671.152 1.123.4 1.112.676-.012.291-.551.518-1.312.6.6.326.958.688.874.944s-.59.336-1.265.247a.379.379 0 0 1 .086.331c-.083.257-.59.336-1.264.247a.385.385 0 0 1 .085.332c-.084.256-.59.335-1.265.247a.384.384 0 0 1 .087.331c-.084.256-.591.336-1.265.247a.383.383 0 0 1 .086.331c-.125.381-1.168.382-2.332 0a4.071 4.071 0 0 1-1.727-.969l-2.383 1.168-.213-.431 2.384-1.17a4.061 4.061 0 0 1 .291-1.958c.412-1.153 1.051-1.978 1.428-1.843a.381.381 0 0 1 .209.27c.342-.588.715-.94.97-.849a.379.379 0 0 1 .209.27c.342-.588.715-.94.97-.85a.38.38 0 0 1 .209.271c.342-.589.715-.94.97-.85" style="fill:#418c48"/>
                    <path data-name="패스 13332" d="M38.971 41.337a.415.415 0 0 1 .345.138c0-.739.151-1.274.439-1.329.267-.051.58.317.839.917.2-.753.5-1.259.8-1.234.281.024.487.5.568 1.195.582-.7 1.167-1.085 1.449-.9s.165.922-.259 1.778c.712-.227 1.274-.24 1.413.02.149.278-.229.787-.9 1.285.738-.024 1.276.116 1.339.4s-.366.64-1.047.929a.413.413 0 0 1 .263.262c.063.286-.366.64-1.047.929a.413.413 0 0 1 .263.262c.063.286-.367.64-1.048.929a.416.416 0 0 1 .263.262c.063.286-.366.64-1.047.929a.416.416 0 0 1 .263.262c.093.424-.882 1-2.18 1.287a4.444 4.444 0 0 1-2.15.046l-1.585 2.408-.436-.287 1.584-2.408a4.449 4.449 0 0 1-.808-1.993c-.249-1.306-.106-2.43.321-2.512a.421.421 0 0 1 .345.138c0-.739.151-1.274.439-1.328a.415.415 0 0 1 .345.138c0-.74.151-1.274.439-1.329a.412.412 0 0 1 .344.138c0-.739.151-1.274.439-1.329" style="fill:#418c48"/>
                    <path data-name="패스 13333" d="M22.09 41.337a.415.415 0 0 0-.345.138c0-.739-.151-1.274-.439-1.329-.267-.051-.58.317-.839.917-.2-.753-.5-1.259-.8-1.234-.281.024-.487.5-.568 1.195-.582-.7-1.167-1.085-1.449-.9s-.165.922.259 1.778c-.712-.227-1.274-.24-1.413.02-.149.278.23.787.9 1.285-.738-.024-1.276.116-1.339.4s.366.64 1.047.929a.413.413 0 0 0-.263.262c-.063.286.366.64 1.047.929a.413.413 0 0 0-.263.262c-.063.286.367.64 1.048.929a.416.416 0 0 0-.263.262c-.063.286.366.64 1.047.929a.416.416 0 0 0-.263.262c-.093.424.882 1 2.18 1.287a4.444 4.444 0 0 0 2.15.046l1.584 2.405.436-.287-1.585-2.408a4.449 4.449 0 0 0 .808-1.993c.249-1.306.106-2.43-.321-2.512a.421.421 0 0 0-.345.138c0-.739-.151-1.274-.439-1.328a.415.415 0 0 0-.345.138c0-.74-.151-1.274-.439-1.329a.412.412 0 0 0-.344.138c0-.739-.151-1.274-.439-1.329" style="fill:#418c48"/>
                    <path data-name="패스 13334" d="M22.314 27.06a.356.356 0 0 0-.3.118c0-.633-.13-1.091-.375-1.138-.229-.044-.5.271-.718.785-.167-.646-.427-1.078-.686-1.057-.24.02-.416.43-.486 1.023-.5-.6-1-.93-1.241-.775s-.141.789.221 1.522c-.608-.194-1.091-.2-1.209.018-.128.238.2.674.768 1.1-.632-.021-1.092.1-1.147.343s.314.547.9.794a.355.355 0 0 0-.225.225c-.054.245.313.547.9.794a.355.355 0 0 0-.225.225c-.054.245.314.547.9.794a.359.359 0 0 0-.226.225c-.053.245.314.547.9.794a.356.356 0 0 0-.225.224c-.08.364.755.857 1.866 1.1a3.794 3.794 0 0 0 1.84.039l1.354 2.061.374-.246-1.354-2.061a3.793 3.793 0 0 0 .691-1.7c.213-1.118.091-2.081-.275-2.15a.355.355 0 0 0-.3.118c0-.633-.129-1.091-.375-1.138a.355.355 0 0 0-.3.118c0-.633-.13-1.091-.376-1.138a.353.353 0 0 0-.294.118c0-.633-.13-1.091-.376-1.138" style="fill:#418c48"/>
                    <path data-name="패스 13335" d="M31.948 23.111a.356.356 0 0 0-.3.118c0-.633-.13-1.091-.375-1.138-.229-.044-.5.271-.718.785-.167-.646-.427-1.078-.686-1.057-.24.02-.416.43-.486 1.023-.5-.6-1-.93-1.241-.775s-.141.789.221 1.522c-.608-.194-1.091-.2-1.209.018s.2.674.768 1.1c-.632-.021-1.092.1-1.147.343s.314.547.9.794a.355.355 0 0 0-.225.225c-.054.245.313.547.9.794a.355.355 0 0 0-.225.225c-.054.245.314.547.9.794a.359.359 0 0 0-.226.225c-.053.245.314.547.9.794a.356.356 0 0 0-.225.224c-.08.364.755.857 1.866 1.1a3.794 3.794 0 0 0 1.84.039l1.357 2.061.374-.246-1.357-2.061a3.793 3.793 0 0 0 .691-1.7c.213-1.118.091-2.081-.275-2.15a.355.355 0 0 0-.3.118c0-.633-.129-1.091-.375-1.138a.355.355 0 0 0-.3.118c0-.633-.13-1.091-.376-1.138a.353.353 0 0 0-.294.118c0-.633-.13-1.091-.376-1.138" style="fill:#418c48"/>
                    <path data-name="패스 13336" d="M28.806 34.939a.356.356 0 0 1 .3.118c0-.633.13-1.091.375-1.138.229-.044.5.271.718.785.167-.646.427-1.078.686-1.057.24.02.416.43.486 1.023.5-.6 1-.93 1.241-.775s.141.789-.221 1.522c.608-.194 1.091-.2 1.209.018s-.2.674-.768 1.1c.632-.021 1.092.1 1.147.343s-.314.547-.9.794a.355.355 0 0 1 .225.225c.054.245-.313.547-.9.794a.355.355 0 0 1 .225.225c.054.245-.314.547-.9.794a.359.359 0 0 1 .226.225c.053.245-.314.547-.9.794a.356.356 0 0 1 .225.224c.08.364-.755.857-1.866 1.1a3.794 3.794 0 0 1-1.84.039l-1.357 2.061-.374-.246 1.357-2.061a3.793 3.793 0 0 1-.691-1.705c-.213-1.118-.091-2.081.275-2.15a.355.355 0 0 1 .3.118c0-.633.129-1.091.375-1.138a.355.355 0 0 1 .3.118c0-.633.13-1.091.376-1.138a.353.353 0 0 1 .294.118c0-.633.13-1.091.376-1.138" style="fill:#418c48"/>
                    <path data-name="패스 13337" d="M50.007 30.186a.353.353 0 0 1 .2.246c.3-.557.638-.894.876-.817.221.071.305.476.253 1.034.456-.486.892-.741 1.108-.6.2.133.159.577-.065 1.131.724-.285 1.323-.334 1.46-.084s-.255.76-.925 1.229c.628.121 1.056.343 1.053.6s-.5.5-1.2.6c.565.286.911.611.841.851s-.538.33-1.168.267a.356.356 0 0 1 .09.305c-.07.241-.538.33-1.168.267a.356.356 0 0 1 .09.305c-.07.241-.538.329-1.168.267a.356.356 0 0 1 .09.305c-.07.24-.538.329-1.168.267a.356.356 0 0 1 .09.305c-.1.357-1.074.388-2.166.069a3.8 3.8 0 0 1-1.633-.849l-2.18 1.156-.209-.4 2.18-1.156a3.8 3.8 0 0 1 .213-1.828c.349-1.083.919-1.868 1.273-1.754a.353.353 0 0 1 .2.246c.3-.556.638-.894.876-.817a.349.349 0 0 1 .2.245c.3-.556.638-.894.876-.817a.353.353 0 0 1 .2.246c.3-.557.638-.9.876-.817" style="fill:#418c48"/>
                    <path data-name="패스 13338" d="M32.754 43.393a.353.353 0 0 1 .2.246c.3-.557.638-.894.876-.817.221.071.3.476.253 1.034.456-.486.892-.741 1.108-.6.2.133.159.577-.065 1.131.724-.285 1.323-.334 1.46-.084s-.255.76-.925 1.229c.628.121 1.056.343 1.053.6s-.5.5-1.2.6c.565.286.911.611.841.851s-.538.33-1.168.267a.356.356 0 0 1 .09.305c-.07.241-.538.33-1.168.267a.356.356 0 0 1 .09.305c-.07.241-.538.329-1.168.267a.356.356 0 0 1 .09.305c-.07.24-.538.329-1.168.267a.356.356 0 0 1 .09.3c-.1.357-1.074.388-2.166.069a3.8 3.8 0 0 1-1.633-.849l-2.18 1.156-.209-.4 2.18-1.156a3.8 3.8 0 0 1 .213-1.828c.349-1.083.919-1.868 1.273-1.754a.353.353 0 0 1 .2.246c.3-.556.638-.894.876-.817a.349.349 0 0 1 .2.245c.3-.556.638-.894.876-.817a.353.353 0 0 1 .2.246c.3-.557.638-.9.876-.817" style="fill:#418c48"/>
                    <path data-name="패스 13339" d="M10.559 30.515a.353.353 0 0 0-.2.246c-.3-.557-.638-.894-.876-.818-.221.071-.3.476-.253 1.034-.456-.486-.892-.741-1.108-.6-.2.133-.159.577.065 1.131-.724-.285-1.323-.334-1.46-.084s.255.76.925 1.229c-.628.121-1.056.343-1.053.6s.5.5 1.2.6c-.565.286-.911.611-.841.851s.538.33 1.168.267a.356.356 0 0 0-.09.305c.07.241.538.33 1.168.267a.356.356 0 0 0-.09.305c.07.241.538.329 1.168.267a.356.356 0 0 0-.09.3c.07.24.538.329 1.168.267a.356.356 0 0 0-.09.305c.1.357 1.074.388 2.166.069a3.8 3.8 0 0 0 1.633-.849l2.18 1.156.209-.4-2.177-1.161a3.8 3.8 0 0 0-.213-1.828c-.349-1.083-.919-1.868-1.273-1.754a.353.353 0 0 0-.2.246c-.3-.556-.638-.894-.876-.817a.349.349 0 0 0-.2.245c-.3-.556-.638-.894-.876-.817a.353.353 0 0 0-.2.246c-.3-.557-.638-.9-.876-.817" style="fill:#418c48"/>
                    <path data-name="패스 13340" d="M42.033 34.231a.353.353 0 0 0-.2.246c-.3-.557-.638-.894-.876-.817-.221.071-.305.476-.253 1.034-.456-.486-.892-.741-1.108-.6-.2.133-.159.577.065 1.131-.724-.285-1.323-.334-1.46-.084s.255.76.925 1.229c-.628.121-1.056.343-1.053.6s.5.5 1.2.6c-.565.286-.911.611-.841.851s.538.33 1.168.267a.356.356 0 0 0-.09.305c.07.241.538.33 1.168.267a.356.356 0 0 0-.09.305c.07.241.538.329 1.168.267a.356.356 0 0 0-.09.305c.07.24.538.329 1.168.267a.356.356 0 0 0-.09.305c.1.357 1.074.388 2.166.069a3.8 3.8 0 0 0 1.633-.849l2.18 1.156.209-.4-2.18-1.156a3.8 3.8 0 0 0-.213-1.828c-.349-1.083-.919-1.868-1.273-1.754a.353.353 0 0 0-.2.246c-.3-.556-.638-.894-.876-.817a.349.349 0 0 0-.2.245c-.3-.556-.638-.894-.876-.817a.353.353 0 0 0-.2.246c-.3-.557-.638-.9-.876-.817" style="fill:#418c48"/>
                    <path data-name="패스 13341" d="M41.636 34.231a.353.353 0 0 0-.2.246c-.3-.557-.638-.894-.876-.817-.221.071-.305.476-.253 1.034-.456-.486-.892-.741-1.108-.6-.2.133-.159.577.065 1.131-.724-.285-1.323-.334-1.46-.084s.255.76.925 1.229c-.628.121-1.056.343-1.053.6s.5.5 1.2.6c-.565.286-.911.611-.841.851s.538.33 1.168.267a.356.356 0 0 0-.09.305c.07.241.538.33 1.168.267a.356.356 0 0 0-.09.305c.07.241.538.329 1.168.267a.356.356 0 0 0-.09.305c.07.24.538.329 1.168.267a.356.356 0 0 0-.09.305c.1.357 1.074.388 2.166.069a3.8 3.8 0 0 0 1.633-.849l2.18 1.156.209-.4-2.18-1.156a3.8 3.8 0 0 0-.213-1.828c-.349-1.083-.919-1.868-1.273-1.754a.353.353 0 0 0-.2.246c-.3-.556-.638-.894-.876-.817a.349.349 0 0 0-.2.245c-.3-.556-.638-.894-.876-.817a.353.353 0 0 0-.2.246c-.3-.557-.638-.9-.876-.817" style="fill:#418c48"/>
                    <path data-name="패스 13342" d="M38.02 27.06a.356.356 0 0 1 .3.118c0-.633.13-1.091.375-1.138.229-.044.5.271.718.785.167-.646.427-1.078.686-1.057.24.02.416.43.486 1.023.5-.6 1-.93 1.241-.775s.141.789-.221 1.522c.608-.194 1.091-.2 1.209.018.128.238-.2.674-.768 1.1.632-.021 1.092.1 1.147.343s-.314.547-.9.794a.355.355 0 0 1 .225.225c.054.245-.313.547-.9.794a.355.355 0 0 1 .225.225c.054.245-.314.547-.9.794a.359.359 0 0 1 .226.225c.053.245-.314.547-.9.794a.356.356 0 0 1 .225.224c.08.364-.755.857-1.866 1.1a3.794 3.794 0 0 1-1.84.039L35.44 36.28l-.374-.246 1.357-2.061a3.793 3.793 0 0 1-.691-1.7c-.213-1.118-.091-2.081.275-2.15a.355.355 0 0 1 .3.118c0-.633.129-1.091.375-1.138a.355.355 0 0 1 .3.118c0-.633.13-1.091.376-1.138a.352.352 0 0 1 .288.122c0-.633.13-1.091.376-1.138" style="fill:#418c48"/>
                    <path data-name="패스 13343" d="M26.752 24.834c.826 1.948 1.841 3.379 2.271 3.2s.108-1.908-.718-3.856-1.842-3.379-2.271-3.2-.108 1.907.718 3.855" style="fill:#fff"/>
                    <path data-name="패스 13344" d="M23.4 16.921c.826 1.948 1.841 3.379 2.271 3.2s.108-1.908-.718-3.856-1.842-3.379-2.271-3.2-.108 1.907.718 3.855" style="fill:#fff"/>
                    <path data-name="패스 13345" d="M29.519 22.943c1.961.793 3.692 1.087 3.867.656s-1.273-1.425-3.234-2.219-3.693-1.087-3.867-.655 1.273 1.425 3.234 2.219" style="fill:#fff"/>
                    <path data-name="패스 13346" d="M21.554 19.719c1.961.793 3.692 1.087 3.867.656s-1.273-1.423-3.234-2.223-3.693-1.087-3.867-.655 1.273 1.425 3.234 2.219" style="fill:#fff"/>
                    <path data-name="패스 13347" d="M30.139 19.649c1.948-.826 3.379-1.841 3.2-2.271s-1.908-.108-3.856.718-3.379 1.842-3.2 2.271 1.907.108 3.855-.718" style="fill:#fff"/>
                    <path data-name="패스 13348" d="M22.226 23c1.948-.826 3.379-1.841 3.2-2.271s-1.905-.107-3.858.719-3.379 1.842-3.2 2.271 1.907.108 3.855-.718" style="fill:#fff"/>
                    <path data-name="패스 13349" d="M28.247 16.885c.793-1.961 1.087-3.692.656-3.867s-1.426 1.267-2.22 3.233-1.087 3.692-.655 3.866 1.425-1.273 2.219-3.234" style="fill:#fff"/>
                    <path data-name="패스 13350" d="M25.022 24.847c.793-1.961 1.087-3.692.656-3.867s-1.425 1.273-2.219 3.234-1.087 3.693-.655 3.867 1.425-1.273 2.219-3.234" style="fill:#fff"/>
                    <path data-name="패스 13351" d="M25.01 24.844c0 2.115.377 3.83.843 3.83s.843-1.715.843-3.83-.377-3.83-.843-3.83-.843 1.715-.843 3.83" style="fill:#fff"/>
                    <path data-name="패스 13352" d="M25.01 16.257c0 2.115.377 3.83.843 3.83s.843-1.715.843-3.83-.377-3.83-.843-3.83-.843 1.715-.843 3.83" style="fill:#fff"/>
                    <path data-name="패스 13353" d="M28.3 24.183c1.5 1.5 2.976 2.441 3.3 2.112s-.616-1.808-2.112-3.3-2.976-2.441-3.3-2.112.616 1.809 2.112 3.3" style="fill:#fff"/>
                    <path data-name="패스 13354" d="M22.219 18.108c1.5 1.5 2.976 2.441 3.3 2.112s-.616-1.808-2.112-3.3-2.976-2.441-3.3-2.112.616 1.809 2.112 3.3" style="fill:#fff"/>
                    <path data-name="패스 13355" d="M30.149 21.393c2.115 0 3.83-.377 3.83-.843s-1.715-.843-3.83-.843-3.83.377-3.83.843 1.715.843 3.83.843" style="fill:#fff"/>
                    <path data-name="패스 13356" d="M21.556 21.393c2.115 0 3.83-.377 3.83-.843s-1.715-.843-3.83-.843-3.83.377-3.83.843 1.715.843 3.83.843" style="fill:#fff"/>
                    <path data-name="패스 13357" d="M29.487 18.108c1.5-1.5 2.441-2.976 2.112-3.3s-1.808.616-3.3 2.112-2.441 2.976-2.112 3.3 1.809-.616 3.3-2.112" style="fill:#fff"/>
                    <path data-name="패스 13358" d="M23.412 24.183c1.5-1.5 2.441-2.976 2.112-3.3s-1.808.616-3.3 2.112-2.441 2.976-2.112 3.3 1.809-.616 3.3-2.112" style="fill:#fff"/>
                    <path data-name="패스 13359" d="M24 20.549a1.856 1.856 0 1 0 1.856-1.856A1.856 1.856 0 0 0 24 20.549" style="fill:#fce09c"/>
                    <path data-name="패스 13360" d="M35.966 12.41c.826 1.948 1.841 3.379 2.271 3.2s.108-1.908-.718-3.856-1.842-3.381-2.272-3.2-.108 1.907.718 3.855" style="fill:#fff"/>
                    <path data-name="패스 13361" d="M32.614 4.5c.825 1.948 1.841 3.379 2.27 3.2s.109-1.908-.717-3.856S32.325.462 31.9.644s-.107 1.907.719 3.855" style="fill:#fff"/>
                    <path data-name="패스 13362" d="M38.733 10.521c1.96.793 3.691 1.087 3.867.656s-1.274-1.425-3.234-2.219-3.693-1.088-3.872-.658 1.273 1.425 3.234 2.219" style="fill:#fff"/>
                    <path data-name="패스 13363" d="M30.768 7.294c1.961.793 3.692 1.087 3.867.656S33.362 6.525 31.4 5.731s-3.693-1.087-3.867-.655 1.274 1.424 3.235 2.218" style="fill:#fff"/>
                    <path data-name="패스 13364" d="M39.351 7.226c1.948-.826 3.379-1.841 3.2-2.271s-1.908-.108-3.856.718-3.379 1.842-3.2 2.271 1.907.108 3.855-.718" style="fill:#fff"/>
                    <path data-name="패스 13365" d="M31.439 10.579c1.948-.826 3.379-1.841 3.2-2.271s-1.908-.108-3.856.718-3.379 1.842-3.2 2.271 1.907.108 3.855-.718" style="fill:#fff"/>
                    <path data-name="패스 13366" d="M37.46 4.46c.789-1.96 1.089-3.692.655-3.867S36.69 1.866 35.9 3.828s-1.087 3.692-.655 3.866 1.421-1.273 2.215-3.234" style="fill:#fff"/>
                    <path data-name="패스 13367" d="M34.236 12.425c.793-1.961 1.087-3.692.656-3.867s-1.425 1.273-2.219 3.234-1.087 3.692-.655 3.866 1.425-1.273 2.219-3.234" style="fill:#fff"/>
                    <path data-name="패스 13368" d="M34.223 12.422c0 2.115.377 3.83.843 3.83s.843-1.715.843-3.83-.377-3.83-.843-3.83-.843 1.715-.843 3.83" style="fill:#fff"/>
                    <path data-name="패스 13369" d="M34.223 3.83c0 2.115.377 3.83.843 3.83s.843-1.715.843-3.83S35.532 0 35.066 0s-.843 1.715-.843 3.83" style="fill:#fff"/>
                    <path data-name="패스 13370" d="M37.508 11.758c1.5 1.5 2.976 2.441 3.3 2.112s-.616-1.808-2.112-3.3S35.72 8.129 35.4 8.458s.616 1.809 2.112 3.3" style="fill:#fff"/>
                    <path data-name="패스 13371" d="M31.433 5.685c1.5 1.5 2.976 2.441 3.3 2.112s-.616-1.808-2.112-3.3-2.976-2.441-3.3-2.112.616 1.809 2.112 3.3" style="fill:#fff"/>
                    <path data-name="패스 13372" d="M39.362 8.97c2.115 0 3.83-.377 3.83-.843s-1.715-.843-3.83-.843-3.83.377-3.83.843 1.715.843 3.83.843" style="fill:#fff"/>
                    <path data-name="패스 13373" d="M30.77 8.97c2.115 0 3.83-.377 3.83-.843s-1.715-.843-3.83-.843-3.83.377-3.83.843 1.715.843 3.83.843" style="fill:#fff"/>
                    <path data-name="패스 13374" d="M38.7 5.685c1.5-1.5 2.441-2.976 2.112-3.3S39.005 3 37.513 4.5 35.072 7.473 35.4 7.8s1.809-.616 3.3-2.112" style="fill:#fff"/>
                    <path data-name="패스 13375" d="M32.626 11.758c1.5-1.5 2.441-2.976 2.112-3.3s-1.808.616-3.3 2.112-2.438 2.976-2.112 3.3 1.809-.616 3.3-2.112" style="fill:#fff"/>
                    <path data-name="패스 13376" d="M33.21 8.121a1.856 1.856 0 1 0 1.856-1.856 1.856 1.856 0 0 0-1.856 1.856" style="fill:#fce09c"/>
                    <path data-name="패스 13377" d="M50.36 25.677c.825 1.948 1.841 3.379 2.271 3.2s.108-1.908-.718-3.856-1.842-3.379-2.271-3.2-.108 1.907.718 3.855" style="fill:#fff"/>
                    <path data-name="패스 13378" d="M47.01 17.765c.826 1.948 1.841 3.379 2.271 3.2s.108-1.908-.718-3.856-1.842-3.379-2.271-3.2-.108 1.907.718 3.855" style="fill:#fff"/>
                    <path data-name="패스 13379" d="M53.129 23.787c1.961.793 3.692 1.087 3.867.656s-1.273-1.425-3.234-2.219-3.692-1.087-3.866-.655 1.273 1.425 3.234 2.219" style="fill:#fff"/>
                    <path data-name="패스 13380" d="M45.164 20.562c1.961.793 3.692 1.087 3.867.656S47.758 19.792 45.795 19s-3.692-1.087-3.866-.655 1.273 1.425 3.234 2.219" style="fill:#fff"/>
                    <path data-name="패스 13381" d="M53.747 20.493c1.948-.826 3.379-1.841 3.2-2.271s-1.908-.108-3.856.718-3.379 1.842-3.2 2.271 1.907.108 3.855-.718" style="fill:#fff"/>
                    <path data-name="패스 13382" d="M45.835 23.845c1.948-.826 3.379-1.841 3.2-2.271s-1.908-.108-3.856.718-3.379 1.842-3.2 2.271 1.907.108 3.855-.718" style="fill:#fff"/>
                    <path data-name="패스 13383" d="M51.857 17.727c.793-1.961 1.087-3.692.656-3.867s-1.425 1.273-2.219 3.234-1.087 3.692-.655 3.866 1.425-1.273 2.219-3.234" style="fill:#fff"/>
                    <path data-name="패스 13384" d="M48.633 25.692c.793-1.961 1.087-3.692.656-3.867s-1.425 1.275-2.219 3.234-1.087 3.693-.655 3.867 1.425-1.273 2.219-3.234" style="fill:#fff"/>
                    <path data-name="패스 13385" d="M48.619 25.686c0 2.115.377 3.83.843 3.83s.843-1.715.843-3.83-.377-3.83-.843-3.83-.843 1.715-.843 3.83" style="fill:#fff"/>
                    <path data-name="패스 13386" d="M48.619 17.1c0 2.115.377 3.83.843 3.83s.843-1.715.843-3.83-.377-3.83-.843-3.83-.843 1.715-.843 3.83" style="fill:#fff"/>
                    <path data-name="패스 13387" d="M51.9 25.027c1.5 1.5 2.976 2.441 3.3 2.112s-.616-1.808-2.112-3.3-2.976-2.441-3.3-2.112.616 1.809 2.112 3.3" style="fill:#fff"/>
                    <path data-name="패스 13388" d="M45.829 18.951c1.5 1.5 2.976 2.441 3.3 2.112s-.616-1.808-2.112-3.3-2.976-2.441-3.3-2.112.616 1.809 2.112 3.3" style="fill:#fff"/>
                    <path data-name="패스 13389" d="M53.759 22.236c2.115 0 3.83-.377 3.83-.843s-1.715-.843-3.83-.843-3.83.377-3.83.843 1.715.843 3.83.843" style="fill:#fff"/>
                    <path data-name="패스 13390" d="M45.167 22.236c2.115 0 3.83-.377 3.83-.843s-1.715-.845-3.83-.845-3.83.377-3.83.843 1.715.843 3.83.843" style="fill:#fff"/>
                    <path data-name="패스 13391" d="M53.1 18.951c1.5-1.5 2.441-2.976 2.112-3.3s-1.808.616-3.3 2.112-2.441 2.976-2.112 3.3 1.809-.616 3.3-2.112" style="fill:#fff"/>
                    <path data-name="패스 13392" d="M47.022 25.027c1.5-1.5 2.441-2.976 2.111-3.3s-1.808.616-3.3 2.112-2.441 2.976-2.111 3.3 1.808-.616 3.3-2.112" style="fill:#fff"/>
                    <path data-name="패스 13393" d="M47.606 21.392a1.856 1.856 0 1 0 1.856-1.856 1.856 1.856 0 0 0-1.856 1.856" style="fill:#fce09c"/>
                    <path data-name="패스 13394" d="M11.173 23.626c.826 1.948 1.841 3.379 2.271 3.2s.108-1.908-.718-3.856-1.842-3.379-2.271-3.2-.108 1.907.718 3.855" style="fill:#fff"/>
                    <path data-name="패스 13395" d="M7.821 15.713c.826 1.948 1.841 3.379 2.271 3.2S10.2 17 9.374 15.057s-1.842-3.379-2.271-3.2-.108 1.907.718 3.855" style="fill:#fff"/>
                    <path data-name="패스 13396" d="M13.94 21.735c1.961.793 3.692 1.087 3.867.656s-1.273-1.426-3.235-2.22-3.693-1.087-3.867-.655 1.273 1.425 3.234 2.219" style="fill:#fff"/>
                    <path data-name="패스 13397" d="M5.975 18.511c1.961.793 3.692 1.087 3.867.656s-1.273-1.425-3.234-2.219-3.692-1.088-3.867-.656 1.273 1.425 3.234 2.219" style="fill:#fff"/>
                    <path data-name="패스 13398" d="M14.559 18.441c1.947-.826 3.379-1.841 3.2-2.271s-1.909-.108-3.856.718-3.379 1.842-3.2 2.271 1.907.108 3.855-.718" style="fill:#fff"/>
                    <path data-name="패스 13399" d="M6.646 21.793c1.948-.826 3.379-1.841 3.2-2.271s-1.908-.108-3.856.718-3.379 1.842-3.2 2.271 1.907.108 3.855-.718" style="fill:#fff"/>
                    <path data-name="패스 13400" d="M12.668 15.675c.793-1.961 1.087-3.692.656-3.867S11.9 13.081 11.1 15.042s-1.087 3.693-.655 3.867 1.425-1.273 2.219-3.234" style="fill:#fff"/>
                    <path data-name="패스 13401" d="M9.444 23.639c.793-1.961 1.087-3.692.656-3.867s-1.426 1.274-2.22 3.234-1.087 3.694-.652 3.867 1.425-1.273 2.219-3.234" style="fill:#fff"/>
                    <path data-name="패스 13402" d="M9.429 23.64c0 2.115.377 3.83.843 3.83s.843-1.715.843-3.83-.377-3.83-.843-3.83-.843 1.711-.843 3.83" style="fill:#fff"/>
                    <path data-name="패스 13403" d="M9.429 15.044c0 2.115.377 3.83.843 3.83s.843-1.715.843-3.83-.377-3.83-.843-3.83-.843 1.715-.843 3.83" style="fill:#fff"/>
                    <path data-name="패스 13404" d="M12.716 22.975c1.5 1.5 2.976 2.441 3.3 2.112s-.616-1.808-2.112-3.3-2.976-2.441-3.3-2.112.616 1.809 2.112 3.3" style="fill:#fff"/>
                    <path data-name="패스 13405" d="M6.64 16.9c1.5 1.5 2.976 2.441 3.3 2.112s-.616-1.808-2.112-3.3-2.976-2.441-3.3-2.112.616 1.809 2.112 3.3" style="fill:#fff"/>
                    <path data-name="패스 13406" d="M14.567 20.185c2.115 0 3.83-.377 3.83-.843s-1.715-.843-3.83-.843-3.83.377-3.83.843 1.715.843 3.83.843" style="fill:#fff"/>
                    <path data-name="패스 13407" d="M5.977 20.185c2.115 0 3.83-.377 3.83-.843s-1.715-.842-3.83-.842-3.83.377-3.83.843 1.715.843 3.83.843" style="fill:#fff"/>
                    <path data-name="패스 13408" d="M13.909 16.9c1.5-1.5 2.441-2.976 2.112-3.3s-1.808.616-3.3 2.112-2.441 2.976-2.112 3.3 1.809-.616 3.3-2.112" style="fill:#fff"/>
                    <path data-name="패스 13409" d="M7.833 22.975c1.5-1.5 2.441-2.976 2.112-3.3s-1.808.616-3.3 2.112-2.441 2.976-2.112 3.3 1.809-.616 3.3-2.112" style="fill:#fff"/>
                    <path data-name="패스 13410" d="M8.417 19.341a1.856 1.856 0 1 0 1.856-1.856 1.856 1.856 0 0 0-1.856 1.856" style="fill:#fce09c"/>
                    <path data-name="패스 13411" d="M9.026 39.25c.826 1.948 1.841 3.379 2.271 3.2s.108-1.908-.718-3.856-1.842-3.379-2.271-3.2-.108 1.906.718 3.855" style="fill:#fff"/>
                    <path data-name="패스 13412" d="M5.673 31.338c.826 1.948 1.841 3.379 2.271 3.2s.108-1.908-.718-3.856-1.842-3.379-2.271-3.2-.108 1.907.718 3.855" style="fill:#fff"/>
                    <path data-name="패스 13413" d="M11.793 37.361c1.96.793 3.691 1.087 3.867.656s-1.274-1.425-3.235-2.219-3.691-1.087-3.865-.655 1.271 1.418 3.233 2.218" style="fill:#fff"/>
                    <path data-name="패스 13414" d="M3.828 34.136c1.961.793 3.692 1.087 3.867.656s-1.273-1.43-3.235-2.22-3.691-1.087-3.866-.655 1.273 1.425 3.234 2.219" style="fill:#fff"/>
                    <path data-name="패스 13415" d="M12.411 34.065c1.948-.826 3.379-1.841 3.2-2.271s-1.908-.108-3.856.718-3.379 1.842-3.2 2.271 1.907.108 3.855-.718" style="fill:#fff"/>
                    <path data-name="패스 13416" d="M4.5 37.417c1.948-.826 3.379-1.841 3.2-2.271s-1.908-.108-3.856.718-3.382 1.843-3.2 2.271 1.907.108 3.855-.718" style="fill:#fff"/>
                    <path data-name="패스 13417" d="M10.52 31.3c.793-1.961 1.087-3.692.656-3.867S9.751 28.7 8.957 30.662 7.87 34.354 8.3 34.528s1.425-1.273 2.219-3.234" style="fill:#fff"/>
                    <path data-name="패스 13418" d="M7.294 39.264c.793-1.961 1.087-3.692.656-3.867s-1.425 1.273-2.219 3.234-1.087 3.692-.655 3.869 1.424-1.275 2.218-3.236" style="fill:#fff"/>
                    <path data-name="패스 13419" d="M7.283 39.261c0 2.115.377 3.83.843 3.83s.843-1.715.843-3.83-.377-3.83-.843-3.83-.843 1.715-.843 3.83" style="fill:#fff"/>
                    <path data-name="패스 13420" d="M7.283 30.667c0 2.115.377 3.83.843 3.83s.843-1.715.843-3.83-.377-3.83-.843-3.83-.843 1.717-.843 3.83" style="fill:#fff"/>
                    <path data-name="패스 13421" d="M10.568 38.6c1.5 1.5 2.976 2.441 3.3 2.112s-.616-1.808-2.112-3.3-2.971-2.446-3.3-2.117.616 1.809 2.112 3.3" style="fill:#fff"/>
                    <path data-name="패스 13422" d="M4.493 32.525c1.5 1.5 2.976 2.441 3.3 2.112s-.616-1.808-2.112-3.3-2.968-2.446-3.3-2.117.619 1.809 2.112 3.3" style="fill:#fff"/>
                    <path data-name="패스 13423" d="M12.422 35.809c2.115 0 3.83-.377 3.83-.843s-1.715-.843-3.83-.843-3.83.377-3.83.843 1.715.843 3.83.843" style="fill:#fff"/>
                    <path data-name="패스 13424" d="M3.83 35.809c2.115 0 3.83-.377 3.83-.843s-1.715-.843-3.83-.843S0 34.5 0 34.963s1.715.843 3.83.843" style="fill:#fff"/>
                    <path data-name="패스 13425" d="M11.758 32.525c1.5-1.5 2.441-2.976 2.112-3.3s-1.808.616-3.3 2.112-2.441 2.976-2.112 3.3 1.809-.616 3.3-2.112" style="fill:#fff"/>
                    <path data-name="패스 13426" d="M5.686 38.6c1.5-1.5 2.441-2.976 2.112-3.3s-1.808.616-3.3 2.112-2.441 2.976-2.112 3.3S4.2 40.1 5.686 38.6" style="fill:#fff"/>
                    <path data-name="패스 13427" d="M6.27 34.965a1.856 1.856 0 1 0 1.856-1.856 1.856 1.856 0 0 0-1.856 1.856" style="fill:#fce09c"/>
                    <path data-name="패스 13428" d="M54.771 39.664c.826 1.948 1.841 3.379 2.271 3.2s.108-1.908-.718-3.856-1.842-3.379-2.271-3.2-.108 1.907.718 3.855" style="fill:#fff"/>
                    <path data-name="패스 13429" d="M51.419 31.752c.826 1.948 1.841 3.379 2.271 3.2s.108-1.908-.718-3.856S51.13 27.717 50.7 27.9s-.108 1.907.718 3.855" style="fill:#fff"/>
                    <path data-name="패스 13430" d="M57.538 37.774c1.961.793 3.692 1.087 3.867.656s-1.273-1.425-3.234-2.219-3.693-1.087-3.867-.655 1.273 1.425 3.234 2.219" style="fill:#fff"/>
                    <path data-name="패스 13431" d="M49.573 34.549c1.961.793 3.692 1.087 3.867.656s-1.273-1.425-3.234-2.219-3.692-1.087-3.866-.655 1.273 1.425 3.234 2.219" style="fill:#fff"/>
                    <path data-name="패스 13432" d="M58.16 34.48c1.947-.826 3.379-1.841 3.2-2.271s-1.908-.108-3.856.718-3.379 1.842-3.2 2.271 1.908.108 3.856-.718" style="fill:#fff"/>
                    <path data-name="패스 13433" d="M50.242 37.832c1.948-.826 3.379-1.841 3.2-2.271s-1.908-.108-3.856.718-3.379 1.842-3.2 2.271 1.907.108 3.855-.718" style="fill:#fff"/>
                    <path data-name="패스 13434" d="M56.266 31.714c.793-1.961 1.087-3.692.656-3.867S55.5 29.12 54.7 31.081s-1.089 3.692-.656 3.863 1.425-1.273 2.219-3.234" style="fill:#fff"/>
                    <path data-name="패스 13435" d="M53.041 39.678c.793-1.961 1.087-3.692.656-3.867s-1.425 1.273-2.219 3.234-1.087 3.692-.655 3.866 1.425-1.273 2.219-3.234" style="fill:#fff"/>
                    <path data-name="패스 13436" d="M53.029 39.675c0 2.115.377 3.83.843 3.83s.843-1.715.843-3.83-.377-3.83-.843-3.83-.843 1.715-.843 3.83" style="fill:#fff"/>
                    <path data-name="패스 13437" d="M53.029 31.083c0 2.115.377 3.83.843 3.83s.843-1.715.843-3.83-.377-3.83-.843-3.83-.843 1.715-.843 3.83" style="fill:#fff"/>
                    <path data-name="패스 13438" d="M56.313 39.014c1.5 1.5 2.976 2.441 3.3 2.112s-.613-1.808-2.113-3.3-2.976-2.441-3.3-2.112.616 1.809 2.112 3.3" style="fill:#fff"/>
                    <path data-name="패스 13439" d="M50.233 32.938c1.5 1.5 2.976 2.441 3.3 2.112s-.616-1.808-2.112-3.3-2.976-2.441-3.3-2.112.616 1.809 2.112 3.3" style="fill:#fff"/>
                    <path data-name="패스 13440" d="M58.167 36.223c2.115 0 3.83-.377 3.83-.843s-1.715-.843-3.83-.843-3.83.377-3.83.843 1.715.843 3.83.843" style="fill:#fff"/>
                    <path data-name="패스 13441" d="M49.575 36.223c2.115 0 3.83-.377 3.83-.843s-1.715-.843-3.83-.843-3.83.377-3.83.843 1.715.843 3.83.843" style="fill:#fff"/>
                    <path data-name="패스 13442" d="M57.506 32.938c1.5-1.5 2.441-2.976 2.112-3.3s-1.808.616-3.3 2.112-2.441 2.976-2.112 3.3 1.809-.616 3.3-2.112" style="fill:#fff"/>
                    <path data-name="패스 13443" d="M51.433 39.014c1.5-1.5 2.441-2.976 2.112-3.3s-1.808.616-3.3 2.112-2.441 2.976-2.112 3.3 1.809-.616 3.3-2.112" style="fill:#fff"/>
                    <path data-name="패스 13444" d="M52.016 35.379a1.856 1.856 0 1 0 1.856-1.856 1.856 1.856 0 0 0-1.856 1.856" style="fill:#fce09c"/>
                    <path data-name="패스 13445" d="M49.772 80.026H11.9a2.9 2.9 0 0 1-2.9-2.9V59.339h43.671v17.793a2.9 2.9 0 0 1-2.9 2.9" style="fill:#91d09f"/>
                    <path data-name="사각형 2793" transform="translate(9.007 54.11)" style="fill:#91d09f" d="M0 0h43.664v3.967H0z"/>
                    <path data-name="사각형 2794" transform="translate(9.007 58.074)" style="fill:#56b36b" d="M0 0h43.664v1.265H0z"/>
                </g>
            </g>
        </g>
    </g>
</svg>
