<svg xmlns="http://www.w3.org/2000/svg" width="100" height="100.212" viewBox="0 0 100 100.212">
    <defs>
        <clipPath id="gatcjcbm5a">
            <path data-name="사각형 2817" style="fill:none" d="M0 0h49.949v73.212H0z"/>
        </clipPath>
    </defs>
    <g data-name="그룹 2486">
        <path data-name="사각형 2629" style="fill:none" d="M0 0h100v100H0z"/>
        <g data-name="그룹 2473">
            <g data-name="그룹 2472" style="clip-path:url(#gatcjcbm5a)" transform="translate(25 27)">
                <path data-name="패스 13735" d="M20.96 27c-1.169 2.031-4.233 4.257-5.615 4.274s-1.892-2.235-.72-4.261a5.56 5.56 0 0 1 4.836-2.9c1.749 0 2.67.86 1.5 2.889" style="fill:#418c48"/>
                <path data-name="패스 13736" d="M29.859 26.985c-1.924-1.338-3.882-4.58-3.781-5.959s2.388-1.694 4.307-.354a5.559 5.559 0 0 1 2.479 5.065c-.146 1.743-1.084 2.587-3.007 1.25" style="fill:#418c48"/>
                <path data-name="패스 13737" d="M32.077 39.588c-1.924-1.338-3.882-4.58-3.781-5.958s2.388-1.7 4.307-.355a5.559 5.559 0 0 1 2.479 5.065c-.146 1.743-1.084 2.587-3.007 1.25" style="fill:#418c48"/>
                <path data-name="패스 13738" d="M35.233 35.575c-2.34.128-5.877-1.224-6.646-2.373s.841-2.806 3.178-2.929a5.561 5.561 0 0 1 5.07 2.47c.957 1.465.736 2.706-1.6 2.834" style="fill:#418c48"/>
                <path data-name="패스 13739" d="M14.031 32.074c-5.521 0-8.412-5.063-8.541-5.3l1.746-.974-.873.488.872-.489c.113.2 2.809 4.894 7.812 4.2l.273 1.98a9.315 9.315 0 0 1-1.289.091" style="fill:#418c48"/>
                <path data-name="패스 13740" d="M31.764 29.682h-.093l.049-2-.024 1 .021-1c.228-.006 5.645.058 7.588-4.593l1.846.772c-2.349 5.62-8.52 5.822-9.387 5.822" style="fill:#418c48"/>
                <path data-name="패스 13741" d="M16.036 34.9c-2.2.8-5.98.535-7.049-.341s-.009-2.928 2.191-3.725a5.562 5.562 0 0 1 5.569.891c1.34 1.123 1.49 2.375-.711 3.177" style="fill:#418c48"/>
                <path data-name="패스 13742" d="M18.193 36.045c-.884 2.171-3.618 4.791-4.985 5s-2.177-1.958-1.29-4.124a5.559 5.559 0 0 1 4.4-3.529c1.733-.24 2.761.49 1.878 2.659" style="fill:#418c48"/>
                <path data-name="사각형 2814" transform="translate(21.624 17.851)" style="fill:#418c48" d="M0 0h2.933v35.375H0z"/>
                <path data-name="사각형 2815" transform="translate(7.903 50.583)" style="fill:#91d09f" d="M0 0h30.374v5.287H0z"/>
                <path data-name="사각형 2816" transform="translate(7.903 55.87)" style="fill:#56b36b" d="M0 0h30.374v.889H0z"/>
                <path data-name="패스 13743" d="M33.4 73.212H12.775a1.851 1.851 0 0 1-1.837-1.636L7.9 56.759h30.376l-3.035 14.813a1.851 1.851 0 0 1-1.838 1.64" style="fill:#91d09f"/>
                <path data-name="패스 13744" d="m23.194 20.817-1.509-2.593c.057-.033 5.712-3.374 8.253-8.249l2.66 1.387c-2.949 5.658-9.142 9.3-9.4 9.455" style="fill:#418c48"/>
                <path data-name="패스 13745" d="m23.767 37.769-1.355-2.676.677 1.338-.683-1.331c.072-.038 7.315-3.9 12.734-16.723l2.76 1.163C32.017 33.466 24.1 37.6 23.767 37.769" style="fill:#418c48"/>
                <path data-name="패스 13746" d="M22.286 35.039c-4.4 0-7.983-2.5-10.4-7.244a25.636 25.636 0 0 1-2.353-7.344l1.982-.27c.018.13 1.876 12.857 10.781 12.857.137 0 .277 0 .419-.009l.088 2c-.175.008-.348.012-.521.012" style="fill:#418c48"/>
                <path data-name="패스 13747" d="M23.461 25.874c-8.69-1.1-10.578-10.131-10.6-10.222l1.961-.39c.064.314 1.643 7.708 8.887 8.628z" style="fill:#418c48"/>
                <path data-name="패스 13748" d="M23.263 20.466C19.28 19.1 17.245 10.437 17.027 9.453l1.952-.434c.734 3.292 2.723 8.8 4.932 9.554z" style="fill:#418c48"/>
                <path data-name="패스 13749" d="M46.7 23.325c-1.875 1.406-5.568 2.245-6.845 1.716s-.858-2.8 1.017-4.2a5.561 5.561 0 0 1 5.588-.761c1.609.687 2.115 1.842.241 3.247" style="fill:#418c48"/>
                <path data-name="패스 13750" d="M45.589 27.8c-2.34-.136-5.7-1.878-6.336-3.106S40.4 22 42.74 22.14a5.562 5.562 0 0 1 4.76 3.024c.785 1.563.427 2.772-1.912 2.636" style="fill:#418c48"/>
                <path data-name="패스 13751" d="M3.33 24.223c-.433-2.3.72-2.812 2.371-2.232a5.561 5.561 0 0 1 3.607 4.335c.437 2.3-.788 4.257-2.087 3.784s-3.456-3.585-3.889-5.888" style="fill:#418c48"/>
                <path data-name="패스 13752" d="M1.132 28.276C-.684 26.8-.132 25.663 1.5 25.041a5.562 5.562 0 0 1 5.553.984c1.82 1.475 2.147 3.76.847 4.238s-4.954-.509-6.771-1.989" style="fill:#418c48"/>
                <path data-name="패스 13753" d="M35.82 7.613c-.645 2.253-3.081 5.153-4.418 5.5s-2.375-1.713-1.727-3.959a5.56 5.56 0 0 1 3.993-3.982c1.7-.424 2.8.19 2.154 2.442" style="fill:#418c48"/>
                <path data-name="패스 13754" d="M37.635 11.85c-1.946 1.3-5.679 1.948-6.926 1.353S30 10.362 31.946 9.062a5.56 5.56 0 0 1 5.62-.465c1.571.771 2.015 1.951.07 3.255" style="fill:#418c48"/>
                <path data-name="패스 13755" d="M40.741 15.276c-.645 2.253-3.081 5.153-4.418 5.5s-2.375-1.713-1.727-3.962a5.56 5.56 0 0 1 3.993-3.982c1.7-.424 2.8.19 2.154 2.442" style="fill:#418c48"/>
                <path data-name="패스 13756" d="M42.556 19.514c-1.946 1.305-5.679 1.948-6.926 1.353s-.709-2.841 1.237-4.141a5.56 5.56 0 0 1 5.62-.465c1.571.771 2.015 1.951.07 3.255" style="fill:#418c48"/>
                <path data-name="패스 13757" d="M12.318 21.6c-2.2.807-2.892-.246-2.593-1.97a5.564 5.564 0 0 1 3.68-4.273c2.2-.811 4.328.074 4.077 1.433s-2.965 4-5.165 4.808" style="fill:#418c48"/>
                <path data-name="패스 13758" d="M4.909 20.5c-1.993-1.23-1.594-2.426-.054-3.255a5.558 5.558 0 0 1 5.634.252c1.994 1.224 2.617 3.448 1.393 4.09S6.9 21.732 4.91 20.5" style="fill:#418c48"/>
                <path data-name="패스 13759" d="M20.841 11.136c-2.068 1.1-2.9.15-2.836-1.6A5.56 5.56 0 0 1 21.07 4.8c2.064-1.1 4.3-.515 4.233.866s-2.394 4.366-4.463 5.465" style="fill:#418c48"/>
                <path data-name="패스 13760" d="M17.611 11.845c-2.336.183-5.9-1.085-6.7-2.216s.775-2.824 3.108-3a5.563 5.563 0 0 1 5.127 2.35c.991 1.442.8 2.688-1.535 2.871" style="fill:#418c48"/>
                <path data-name="패스 13761" d="M34.111 7.685a7.265 7.265 0 0 1-2.213-3.7l.982-.192a6.351 6.351 0 0 0 1.9 3.146z" style="fill:#418c48"/>
                <path data-name="패스 13762" d="m35.377 7.2-.992-.117a12.938 12.938 0 0 0-.722-4.692l.943-.334a13.7 13.7 0 0 1 .771 5.143" style="fill:#418c48"/>
                <path data-name="패스 13763" d="M33.519 7.934A6.754 6.754 0 0 0 30.7 5.742l.405-.914c.1.043 2.493 1.113 3.293 2.641z" style="fill:#418c48"/>
                <path data-name="패스 13764" d="M35.317 1.482A1.183 1.183 0 1 1 34.135.3a1.182 1.182 0 0 1 1.182 1.182" style="fill:#418c48"/>
                <path data-name="패스 13765" d="M33.572 3.577a1.182 1.182 0 1 1-1.182-1.182 1.182 1.182 0 0 1 1.182 1.182" style="fill:#418c48"/>
                <path data-name="패스 13766" d="M31.6 4.755a1.182 1.182 0 1 1-1.658-.22 1.183 1.183 0 0 1 1.658.22" style="fill:#418c48"/>
                <path data-name="패스 13767" d="m37.047 7.685-.664-.748a6.277 6.277 0 0 0 1.894-3.144l.983.19a7.273 7.273 0 0 1-2.213 3.7" style="fill:#418c48"/>
                <path data-name="패스 13768" d="M35.78 7.2a13.681 13.681 0 0 1 .772-5.144l.942.335a12.962 12.962 0 0 0-.722 4.692z" style="fill:#418c48"/>
                <path data-name="패스 13769" d="m37.641 7.933-.887-.463c.8-1.529 3.193-2.6 3.294-2.642l.4.914a6.763 6.763 0 0 0-2.812 2.191" style="fill:#418c48"/>
                <path data-name="패스 13770" d="M35.84 1.482A1.183 1.183 0 1 0 37.022.3a1.182 1.182 0 0 0-1.182 1.182" style="fill:#418c48"/>
                <path data-name="패스 13771" d="M37.586 3.577a1.183 1.183 0 1 0 1.182-1.182 1.182 1.182 0 0 0-1.182 1.182" style="fill:#418c48"/>
                <path data-name="패스 13772" d="M39.558 4.755a1.182 1.182 0 1 0 1.658-.22 1.183 1.183 0 0 0-1.658.22" style="fill:#418c48"/>
                <path data-name="패스 13773" d="M37.586 7.8c0 .528-.918.957-2.05.957s-2.05-.429-2.05-.957.918-.957 2.05-.957 2.05.429 2.05.957" style="fill:#418c48"/>
                <path data-name="패스 13774" d="M16.535 7.385a7.27 7.27 0 0 1-2.213-3.7l.982-.192A6.36 6.36 0 0 0 17.2 6.637z" style="fill:#418c48"/>
                <path data-name="패스 13775" d="m17.8 6.905-.992-.117a12.961 12.961 0 0 0-.72-4.688l.942-.335a13.681 13.681 0 0 1 .77 5.14" style="fill:#418c48"/>
                <path data-name="패스 13776" d="M15.941 7.634a6.763 6.763 0 0 0-2.812-2.191l.405-.914c.1.043 2.493 1.113 3.294 2.64z" style="fill:#418c48"/>
                <path data-name="패스 13777" d="M17.741 1.183A1.182 1.182 0 1 1 16.559 0a1.182 1.182 0 0 1 1.182 1.182" style="fill:#418c48"/>
                <path data-name="패스 13778" d="M16 3.278A1.183 1.183 0 1 1 14.814 2.1 1.182 1.182 0 0 1 16 3.278" style="fill:#418c48"/>
                <path data-name="패스 13779" d="M14.024 4.456a1.182 1.182 0 1 1-1.658-.22 1.185 1.185 0 0 1 1.658.22" style="fill:#418c48"/>
                <path data-name="패스 13780" d="m19.471 7.385-.664-.748a6.35 6.35 0 0 0 1.9-3.145l.982.191a7.261 7.261 0 0 1-2.213 3.7" style="fill:#418c48"/>
                <path data-name="패스 13781" d="M18.2 6.905a13.7 13.7 0 0 1 .771-5.143l.943.334a12.938 12.938 0 0 0-.714 4.692z" style="fill:#418c48"/>
                <path data-name="패스 13782" d="m20.063 7.634-.885-.465c.8-1.527 3.193-2.6 3.294-2.64l.4.914a6.786 6.786 0 0 0-2.813 2.191" style="fill:#418c48"/>
                <path data-name="패스 13783" d="M18.265 1.183A1.182 1.182 0 1 0 19.447 0a1.182 1.182 0 0 0-1.182 1.182" style="fill:#418c48"/>
                <path data-name="패스 13784" d="M20.01 3.278A1.182 1.182 0 1 0 21.192 2.1a1.182 1.182 0 0 0-1.182 1.178" style="fill:#418c48"/>
                <path data-name="패스 13785" d="M21.983 4.456a1.182 1.182 0 1 0 1.658-.22 1.183 1.183 0 0 0-1.658.22" style="fill:#418c48"/>
                <path data-name="패스 13786" d="M20.01 7.5c0 .528-.918.957-2.05.957s-2.05-.429-2.05-.957.918-.957 2.05-.957 2.05.429 2.05.957" style="fill:#418c48"/>
                <path data-name="패스 13787" d="M42.38 20.1a7.265 7.265 0 0 1-2.213-3.7l.982-.192a6.351 6.351 0 0 0 1.9 3.146z" style="fill:#418c48"/>
                <path data-name="패스 13788" d="m43.646 19.615-.992-.117a12.961 12.961 0 0 0-.722-4.692l.942-.335a13.681 13.681 0 0 1 .772 5.144" style="fill:#418c48"/>
                <path data-name="패스 13789" d="M41.787 20.344a6.786 6.786 0 0 0-2.813-2.191l.4-.914c.1.043 2.493 1.113 3.294 2.64z" style="fill:#418c48"/>
                <path data-name="패스 13790" d="M43.586 13.893a1.182 1.182 0 1 1-1.186-1.182 1.182 1.182 0 0 1 1.182 1.182" style="fill:#418c48"/>
                <path data-name="패스 13791" d="M41.841 15.988a1.182 1.182 0 1 1-1.182-1.182 1.182 1.182 0 0 1 1.182 1.182" style="fill:#418c48"/>
                <path data-name="패스 13792" d="M39.868 17.166a1.182 1.182 0 1 1-1.658-.22 1.183 1.183 0 0 1 1.658.22" style="fill:#418c48"/>
                <path data-name="패스 13793" d="m45.315 20.1-.664-.748a6.277 6.277 0 0 0 1.894-3.152l.983.19a7.273 7.273 0 0 1-2.213 3.7" style="fill:#418c48"/>
                <path data-name="패스 13794" d="M44.049 19.615a13.681 13.681 0 0 1 .772-5.144l.942.335a12.962 12.962 0 0 0-.722 4.692z" style="fill:#418c48"/>
                <path data-name="패스 13795" d="m45.908 20.344-.885-.465c.8-1.527 3.193-2.6 3.294-2.64l.4.914a6.786 6.786 0 0 0-2.813 2.191" style="fill:#418c48"/>
                <path data-name="패스 13796" d="M44.109 13.893a1.182 1.182 0 1 0 1.182-1.182 1.182 1.182 0 0 0-1.182 1.182" style="fill:#418c48"/>
                <path data-name="패스 13797" d="M45.854 15.988a1.183 1.183 0 1 0 1.182-1.182 1.182 1.182 0 0 0-1.182 1.182" style="fill:#418c48"/>
                <path data-name="패스 13798" d="M47.827 17.166a1.182 1.182 0 1 0 1.658-.22 1.183 1.183 0 0 0-1.658.22" style="fill:#418c48"/>
                <path data-name="패스 13799" d="M45.854 20.209c0 .528-.918.957-2.05.957s-2.05-.429-2.05-.957.918-.957 2.05-.957 2.05.429 2.05.957" style="fill:#418c48"/>
                <path data-name="패스 13800" d="M9.061 17.05a7.267 7.267 0 0 1-2.214-3.7l.983-.192A6.332 6.332 0 0 0 9.724 16.3z" style="fill:#418c48"/>
                <path data-name="패스 13801" d="m10.327 16.57-.992-.117a12.962 12.962 0 0 0-.722-4.692l.942-.335a13.681 13.681 0 0 1 .772 5.144" style="fill:#418c48"/>
                <path data-name="패스 13802" d="M8.468 17.3a6.786 6.786 0 0 0-2.813-2.191l.4-.914c.1.043 2.493 1.113 3.294 2.64z" style="fill:#418c48"/>
                <path data-name="패스 13803" d="M10.267 10.848a1.183 1.183 0 1 1-1.182-1.182 1.182 1.182 0 0 1 1.182 1.182" style="fill:#418c48"/>
                <path data-name="패스 13804" d="M8.521 12.943a1.182 1.182 0 1 1-1.182-1.182 1.182 1.182 0 0 1 1.182 1.182" style="fill:#418c48"/>
                <path data-name="패스 13805" d="M6.549 14.121a1.182 1.182 0 1 1-1.658-.22 1.183 1.183 0 0 1 1.658.22" style="fill:#418c48"/>
                <path data-name="패스 13806" d="m12 17.05-.664-.748a6.347 6.347 0 0 0 1.9-3.146l.982.192A7.261 7.261 0 0 1 12 17.05" style="fill:#418c48"/>
                <path data-name="패스 13807" d="M10.729 16.57a13.681 13.681 0 0 1 .772-5.144l.942.335a12.962 12.962 0 0 0-.722 4.692z" style="fill:#418c48"/>
                <path data-name="패스 13808" d="m12.589 17.3-.885-.465c.8-1.527 3.193-2.6 3.294-2.64l.4.914a6.786 6.786 0 0 0-2.809 2.191" style="fill:#418c48"/>
                <path data-name="패스 13809" d="M10.79 10.848a1.182 1.182 0 1 0 1.182-1.182 1.182 1.182 0 0 0-1.182 1.182" style="fill:#418c48"/>
                <path data-name="패스 13810" d="M12.535 12.943a1.182 1.182 0 1 0 1.182-1.182 1.182 1.182 0 0 0-1.182 1.182" style="fill:#418c48"/>
                <path data-name="패스 13811" d="M14.508 14.121a1.182 1.182 0 1 0 1.658-.22 1.183 1.183 0 0 0-1.658.22" style="fill:#418c48"/>
                <path data-name="패스 13812" d="M12.535 17.163c0 .528-.918.957-2.05.957s-2.05-.429-2.05-.957.918-.957 2.05-.957 2.05.429 2.05.957" style="fill:#418c48"/>
            </g>
        </g>
    </g>
</svg>
