<svg xmlns="http://www.w3.org/2000/svg" width="100" height="100" viewBox="0 0 100 100">
    <defs>
        <clipPath id="qlmx2wpbra">
            <path data-name="사각형 2650" style="fill:none" d="M0 0h50v62.936H0z"/>
        </clipPath>
    </defs>
    <g data-name="그룹 2515">
        <path data-name="사각형 2596" style="fill:none" d="M0 0h100v100H0z"/>
        <g data-name="그룹 2404">
            <g data-name="그룹 2403" style="clip-path:url(#qlmx2wpbra)" transform="translate(25 37)">
                <path data-name="패스 11199" d="M28.6 12.633c2.364-.961 3.952-.291 4.518 1.1s-.1 2.98-2.468 3.942-6.09-.462-6.09-.462 1.678-3.621 4.041-4.582" style="fill:#94b524"/>
                <path data-name="패스 11200" d="M28.6 19.254c2.364-.961 3.952-.29 4.518 1.1s-.1 2.98-2.468 3.943-6.09-.463-6.09-.463 1.678-3.621 4.041-4.582" style="fill:#94b524"/>
                <path data-name="패스 11201" d="M20.52 12.633c-2.364-.961-3.952-.291-4.518 1.1s.1 2.98 2.468 3.942 6.09-.462 6.09-.462-1.678-3.621-4.041-4.582" style="fill:#94b524"/>
                <path data-name="패스 11202" d="M20.52 19.254c-2.364-.961-3.952-.29-4.518 1.1s.1 2.98 2.468 3.943 6.09-.463 6.09-.463-1.678-3.621-4.041-4.582" style="fill:#94b524"/>
                <path data-name="사각형 2646" transform="translate(23.575 9.78)" style="fill:#4f8512" d="M0 0h1.974v25.662H0z"/>
                <path data-name="패스 11203" d="M20.52 8.766C18.156 7.8 16.568 8.475 16 9.868s.1 2.98 2.468 3.942 6.09-.462 6.09-.462-1.676-3.623-4.04-4.582" style="fill:#a1d438"/>
                <path data-name="패스 11204" d="M20.52 14.909c-2.364-.961-3.952-.291-4.518 1.1s.1 2.98 2.468 3.942 6.09-.462 6.09-.462-1.678-3.621-4.041-4.582" style="fill:#a1d438"/>
                <path data-name="패스 11205" d="M20.52 21.052c-2.364-.961-3.952-.291-4.518 1.1s.1 2.98 2.468 3.942 6.09-.462 6.09-.462-1.678-3.621-4.041-4.582" style="fill:#a1d438"/>
                <path data-name="패스 11206" d="M28.6 8.766c2.364-.961 3.952-.291 4.518 1.1s-.1 2.98-2.468 3.942-6.09-.462-6.09-.462 1.678-3.623 4.04-4.582" style="fill:#a1d438"/>
                <path data-name="패스 11207" d="M28.6 14.909c2.364-.961 3.952-.291 4.518 1.1s-.1 2.98-2.468 3.942-6.09-.462-6.09-.462 1.678-3.621 4.041-4.582" style="fill:#a1d438"/>
                <path data-name="패스 11208" d="M28.6 21.052c2.364-.961 3.952-.291 4.518 1.1s-.1 2.98-2.468 3.942-6.09-.462-6.09-.462 1.678-3.621 4.041-4.582" style="fill:#a1d438"/>
                <path data-name="패스 11209" d="M26.412 6.494c0 3.029-.839 4.477-1.874 4.477s-1.874-1.448-1.874-4.477A16.435 16.435 0 0 1 24.538 0a16.435 16.435 0 0 1 1.874 6.494" style="fill:#a1d438"/>
                <path data-name="패스 11210" d="M16.013 18.77c1.728-.7 2.889-.213 3.3.805s-.076 2.179-1.8 2.882-4.452-.338-4.452-.338 1.226-2.646 2.954-3.349" style="fill:#94b524"/>
                <path data-name="패스 11211" d="M16.013 23.61c1.728-.7 2.889-.213 3.3.805s-.076 2.179-1.8 2.882-4.452-.338-4.452-.338 1.226-2.646 2.954-3.349" style="fill:#94b524"/>
                <path data-name="패스 11212" d="M10.106 18.77c-1.728-.7-2.889-.213-3.3.805s.077 2.179 1.8 2.882 4.452-.338 4.452-.338-1.225-2.646-2.958-3.349" style="fill:#94b524"/>
                <path data-name="패스 11213" d="M10.106 23.61c-1.728-.7-2.889-.213-3.3.805s.077 2.179 1.8 2.882 4.452-.338 4.452-.338-1.225-2.646-2.958-3.349" style="fill:#94b524"/>
                <path data-name="사각형 2647" transform="translate(12.339 16.685)" style="fill:#4f8512" d="M0 0h1.443v18.758H0z"/>
                <path data-name="패스 11214" d="M10.106 15.944c-1.728-.7-2.889-.213-3.3.805s.077 2.179 1.8 2.882 4.452-.338 4.452-.338-1.225-2.648-2.953-3.349" style="fill:#a1d438"/>
                <path data-name="패스 11215" d="M10.106 20.433c-1.728-.7-2.889-.213-3.3.805s.077 2.179 1.8 2.882 4.452-.338 4.452-.338-1.226-2.646-2.954-3.349" style="fill:#a1d438"/>
                <path data-name="패스 11216" d="M10.106 24.924c-1.728-.7-2.889-.213-3.3.805s.077 2.179 1.8 2.882 4.452-.338 4.452-.338-1.226-2.646-2.954-3.349" style="fill:#a1d438"/>
                <path data-name="패스 11217" d="M16.013 15.944c1.728-.7 2.889-.213 3.3.805s-.076 2.179-1.8 2.882-4.452-.338-4.452-.338 1.226-2.648 2.953-3.349" style="fill:#a1d438"/>
                <path data-name="패스 11218" d="M16.013 20.433c1.728-.7 2.889-.213 3.3.805s-.076 2.179-1.8 2.882-4.452-.338-4.452-.338 1.226-2.646 2.954-3.349" style="fill:#a1d438"/>
                <path data-name="패스 11219" d="M16.013 24.924c1.728-.7 2.889-.213 3.3.805s-.076 2.179-1.8 2.882-4.452-.338-4.452-.338 1.226-2.646 2.954-3.349" style="fill:#a1d438"/>
                <path data-name="패스 11220" d="M14.413 14.282c0 2.214-.613 3.273-1.37 3.273s-1.369-1.059-1.369-3.273a12.027 12.027 0 0 1 1.369-4.747 12.02 12.02 0 0 1 1.37 4.747" style="fill:#a1d438"/>
                <path data-name="패스 11221" d="M41.424 18.77c1.727-.7 2.889-.213 3.3.805s-.077 2.179-1.8 2.882-4.452-.338-4.452-.338 1.226-2.646 2.954-3.349" style="fill:#94b524"/>
                <path data-name="패스 11222" d="M41.424 23.61c1.727-.7 2.889-.213 3.3.805s-.077 2.179-1.8 2.882-4.452-.338-4.452-.338 1.226-2.646 2.954-3.349" style="fill:#94b524"/>
                <path data-name="패스 11223" d="M35.516 18.77c-1.728-.7-2.889-.213-3.3.805s.076 2.179 1.8 2.882 4.452-.338 4.452-.338-1.226-2.646-2.954-3.349" style="fill:#94b524"/>
                <path data-name="패스 11224" d="M35.516 23.61c-1.728-.7-2.889-.213-3.3.805s.076 2.179 1.8 2.882 4.452-.338 4.452-.338-1.226-2.646-2.954-3.349" style="fill:#94b524"/>
                <path data-name="사각형 2648" transform="translate(37.749 16.685)" style="fill:#4f8512" d="M0 0h1.443v18.758H0z"/>
                <path data-name="패스 11225" d="M35.516 15.944c-1.728-.7-2.889-.213-3.3.805s.076 2.179 1.8 2.882 4.452-.338 4.452-.338-1.225-2.648-2.953-3.349" style="fill:#a1d438"/>
                <path data-name="패스 11226" d="M35.516 20.433c-1.728-.7-2.889-.213-3.3.805s.076 2.179 1.8 2.882 4.452-.338 4.452-.338-1.226-2.646-2.954-3.349" style="fill:#a1d438"/>
                <path data-name="패스 11227" d="M35.516 24.924c-1.728-.7-2.889-.213-3.3.805s.076 2.179 1.8 2.882 4.452-.338 4.452-.338-1.226-2.646-2.954-3.349" style="fill:#a1d438"/>
                <path data-name="패스 11228" d="M41.424 15.944c1.727-.7 2.889-.213 3.3.805s-.077 2.179-1.8 2.882-4.452-.338-4.452-.338 1.226-2.648 2.954-3.349" style="fill:#a1d438"/>
                <path data-name="패스 11229" d="M41.424 20.433c1.727-.7 2.889-.213 3.3.805s-.077 2.179-1.8 2.882-4.452-.338-4.452-.338 1.226-2.646 2.954-3.349" style="fill:#a1d438"/>
                <path data-name="패스 11230" d="M41.424 24.924c1.727-.7 2.889-.213 3.3.805s-.077 2.179-1.8 2.882-4.452-.338-4.452-.338 1.226-2.646 2.954-3.349" style="fill:#a1d438"/>
                <path data-name="패스 11231" d="M39.824 14.282c0 2.214-.613 3.273-1.37 3.273s-1.369-1.059-1.369-3.273a12.027 12.027 0 0 1 1.369-4.747 12.02 12.02 0 0 1 1.37 4.747" style="fill:#a1d438"/>
                <path data-name="사각형 2649" transform="translate(0 35.442)" style="fill:#fff" d="M0 0h50v6.175H0z"/>
                <path data-name="패스 11232" d="m1.5 41.617.763 3.483h45.474l.761-3.478z" style="fill:#e6e6e6"/>
                <path data-name="패스 11233" d="M47.737 45.1H2.263l3.9 17.839h10.353v-1.184a1.382 1.382 0 0 1 2.764 0v1.179h3.633v-1.179a1.382 1.382 0 0 1 2.765 0v1.179h3.633v-1.179a1.382 1.382 0 0 1 2.764 0v1.181h11.758z" style="fill:#fff"/>
                <path data-name="패스 11234" d="M17.9 60.373a1.382 1.382 0 0 0-1.382 1.382v1.181h2.762v-1.178a1.383 1.383 0 0 0-1.38-1.383" style="fill:#e6e6e6"/>
                <path data-name="패스 11235" d="M24.3 60.373a1.382 1.382 0 0 0-1.382 1.382v1.181h2.764v-1.178a1.383 1.383 0 0 0-1.382-1.383" style="fill:#e6e6e6"/>
                <path data-name="패스 11236" d="M30.693 60.373a1.382 1.382 0 0 0-1.382 1.382v1.181h2.764v-1.178a1.383 1.383 0 0 0-1.382-1.383" style="fill:#e6e6e6"/>
                <path data-name="패스 11237" d="M17.9 60.373a1.382 1.382 0 0 0-1.382 1.382v1.181h2.762v-1.178a1.383 1.383 0 0 0-1.38-1.383" style="fill:#56b36b"/>
                <path data-name="패스 11238" d="M24.3 60.373a1.382 1.382 0 0 0-1.382 1.382v1.181h2.764v-1.178a1.383 1.383 0 0 0-1.382-1.383" style="fill:#56b36b"/>
                <path data-name="패스 11239" d="M30.693 60.373a1.382 1.382 0 0 0-1.382 1.382v1.181h2.764v-1.178a1.383 1.383 0 0 0-1.382-1.383" style="fill:#56b36b"/>
            </g>
        </g>
    </g>
</svg>
