<svg xmlns="http://www.w3.org/2000/svg" width="100" height="100" viewBox="0 0 100 100">
    <defs>
        <clipPath id="i6ettfjr1a">
            <path data-name="사각형 2785" style="fill:none" d="M0 0h52.515v68.677H0z"/>
        </clipPath>
    </defs>
    <g data-name="그룹 2491">
        <path data-name="사각형 2622" style="fill:none" d="M0 0h100v100H0z"/>
        <g data-name="그룹 2454">
            <path data-name="사각형 2780" transform="translate(50.431 52.091)" style="fill:#418c48" d="M0 0h1.974v22.517H0z"/>
            <path data-name="사각형 2781" transform="translate(39.198 53.769)" style="fill:#418c48" d="M0 0h1.285v20.839H0z"/>
            <path data-name="사각형 2782" transform="translate(63.021 60.072)" style="fill:#418c48" d="M0 0h1.285v14.535H0z"/>
            <g data-name="그룹 2453">
                <g data-name="그룹 2452" style="clip-path:url(#i6ettfjr1a)" transform="translate(24 31)">
                    <path data-name="패스 13237" d="M2.935 34.923a.3.3 0 0 0-.105.253c-.388-.384-.75-.578-.928-.454s-.132.469.051.915c-.5-.285-.922-.386-1.062-.21s.014.516.337.915C.56 36.29.053 36.4 0 36.64s.4.562 1.072.781c-.486.258-.786.545-.719.755s.535.286 1.14.19c-.4.377-.6.732-.478.913s.527.136 1.03-.074a.307.307 0 0 0 0 .274c.118.181.526.136 1.029-.074a.3.3 0 0 0 0 .274c.118.181.526.136 1.029-.074a.309.309 0 0 0 0 .275c.118.18.527.136 1.029-.074a.307.307 0 0 0 0 .274c.178.268.983.05 1.8-.489a3.26 3.26 0 0 0 1.132-1.11l2.088.405.074-.378L8.16 38.1a3.257 3.257 0 0 0-.641-1.451c-.56-.805-1.226-1.309-1.489-1.126a.308.308 0 0 0-.107.252c-.387-.375-.749-.575-.923-.45a.3.3 0 0 0-.106.253c-.388-.383-.75-.577-.928-.454a.305.305 0 0 0-.105.253c-.388-.384-.75-.577-.928-.454" style="fill:#418c48"/>
                    <path data-name="패스 13238" d="M9.721 27.994a.3.3 0 0 0-.167.216c-.274-.471-.573-.753-.777-.68s-.25.418-.19.9c-.406-.406-.789-.614-.971-.481s-.122.5.086.972c-.631-.226-1.148-.254-1.26-.033s.241.648.83 1.034c-.537.122-.9.32-.89.541s.441.415 1.051.481c-.481.261-.768.551-.7.756s.473.269 1.014.2a.3.3 0 0 0-.069.265c.066.206.472.269 1.012.2a.309.309 0 0 0-.068.266c.067.2.473.268 1.013.2a.306.306 0 0 0-.069.265c.067.2.473.269 1.013.2a.307.307 0 0 0-.069.265c.1.305.936.306 1.868 0a3.275 3.275 0 0 0 1.384-.776l1.908.937.171-.345-1.906-.937a3.264 3.264 0 0 0-.241-1.568c-.33-.924-.842-1.585-1.144-1.476a.3.3 0 0 0-.167.216c-.274-.471-.573-.753-.777-.68a.3.3 0 0 0-.167.216c-.274-.471-.573-.753-.777-.681a.309.309 0 0 0-.168.217c-.274-.472-.573-.753-.777-.681" style="fill:#418c48"/>
                    <path data-name="패스 13239" d="M18.354 17.745a.306.306 0 0 0-.269-.052c.3-.457.415-.85.259-1s-.486-.035-.887.233c.179-.545.193-.98-.008-1.083s-.5.117-.829.514c-.082-.665-.29-1.139-.537-1.14s-.47.506-.55 1.206c-.351-.425-.691-.66-.884-.552s-.173.581.044 1.155c-.45-.312-.839-.438-.99-.285s-.028.543.278.994a.3.3 0 0 0-.267.057c-.155.152-.028.544.277.994a.3.3 0 0 0-.267.059c-.153.152-.028.542.279.994a.3.3 0 0 0-.269.057c-.152.152-.027.543.28.994a.307.307 0 0 0-.268.057c-.229.227.146.974.839 1.669a3.267 3.267 0 0 0 1.315.884l.021 2.127h.385l-.02-2.127a3.244 3.244 0 0 0 1.292-.92c.677-.71 1.037-1.464.805-1.685a.3.3 0 0 0-.268-.053c.3-.456.414-.85.257-1a.3.3 0 0 0-.268-.053c.3-.456.415-.85.259-1a.306.306 0 0 0-.269-.052c.3-.457.415-.85.258-1" style="fill:#418c48"/>
                    <path data-name="패스 13240" d="M33.528 33.968a.3.3 0 0 0-.167.216c-.274-.471-.573-.753-.777-.68s-.25.418-.19.9c-.406-.406-.789-.614-.971-.481s-.122.5.086.972c-.631-.225-1.148-.254-1.26-.033s.241.648.83 1.034c-.537.122-.9.32-.89.541s.441.415 1.051.481c-.481.261-.768.551-.7.756s.473.269 1.014.2a.3.3 0 0 0-.069.265c.066.206.472.269 1.012.2a.309.309 0 0 0-.068.266c.067.205.473.268 1.013.2a.306.306 0 0 0-.069.265c.067.2.473.269 1.013.2a.307.307 0 0 0-.069.265c.1.305.936.306 1.868 0a3.275 3.275 0 0 0 1.384-.776l1.908.937.171-.345-1.907-.951a3.264 3.264 0 0 0-.241-1.568c-.33-.924-.842-1.585-1.144-1.476a.3.3 0 0 0-.167.216c-.274-.471-.573-.753-.777-.68a.3.3 0 0 0-.167.216c-.274-.471-.573-.753-.777-.681a.309.309 0 0 0-.168.217c-.274-.472-.573-.753-.777-.681" style="fill:#418c48"/>
                    <path data-name="패스 13241" d="M33 26.535a.305.305 0 0 0-.213.171c-.157-.521-.382-.865-.6-.842-.2.022-.34.349-.393.828-.3-.489-.624-.78-.832-.693s-.235.459-.142.965c-.562-.366-1.058-.513-1.218-.325s.083.686.567 1.2c-.551-.007-.95.1-.992.319s.332.506.91.712c-.528.142-.875.357-.857.573s.4.371.94.428a.3.3 0 0 0-.129.241c.017.216.4.372.939.428a.308.308 0 0 0-.128.243c.017.215.4.371.939.428a.3.3 0 0 0-.129.242c.017.215.4.372.939.428a.306.306 0 0 0-.128.242c.026.32.838.515 1.816.434a3.261 3.261 0 0 0 1.526-.433l1.639 1.355.246-.3-1.636-1.354a3.264 3.264 0 0 0 .131-1.581c-.107-.975-.451-1.737-.77-1.7a.3.3 0 0 0-.213.172c-.157-.522-.382-.866-.6-.843a.3.3 0 0 0-.213.172c-.157-.522-.382-.866-.6-.843a.306.306 0 0 0-.213.172c-.157-.522-.382-.865-.6-.843" style="fill:#418c48"/>
                    <path data-name="패스 13242" d="M23.955 39.818a.3.3 0 0 0-.078-.262c.543.052.946-.025 1.006-.234.055-.192-.194-.447-.617-.677.566-.093.959-.283.957-.508s-.336-.391-.839-.5c.551-.381.876-.785.762-1s-.666-.183-1.324.07c.215-.507.266-.918.081-1.039s-.595.116-1 .572c.069-.542 0-.944-.2-1.01s-.494.227-.752.708a.306.306 0 0 0-.175-.211c-.206-.066-.5.226-.752.706a.308.308 0 0 0-.176-.21c-.206-.065-.494.227-.753.707a.306.306 0 0 0-.174-.212c-.206-.065-.5.227-.752.707a.3.3 0 0 0-.175-.21c-.307-.1-.8.58-1.091 1.516a3.266 3.266 0 0 0-.178 1.576l-1.875 1 .18.34 1.874-1a3.266 3.266 0 0 0 1.413.721c.943.271 1.778.241 1.867-.067a.3.3 0 0 0-.078-.262c.542.053.945-.025 1.006-.234a.3.3 0 0 0-.078-.262c.542.053.945-.025 1.006-.233a.306.306 0 0 0-.078-.263c.543.053.945-.025 1.006-.233" style="fill:#418c48"/>
                    <path data-name="패스 13243" d="M24.559 33.285a.3.3 0 0 0-.078-.262c.543.052.946-.025 1.006-.234.055-.192-.194-.447-.617-.677.566-.093.959-.283.957-.508s-.336-.391-.839-.5c.551-.381.876-.785.762-1s-.666-.183-1.324.07c.215-.507.266-.918.081-1.039s-.595.116-1 .572c.069-.542 0-.944-.2-1.01s-.494.227-.752.708a.306.306 0 0 0-.175-.211c-.206-.066-.5.226-.752.706a.308.308 0 0 0-.176-.21c-.206-.065-.494.227-.753.707a.306.306 0 0 0-.174-.212c-.206-.065-.5.227-.752.707a.3.3 0 0 0-.175-.21c-.307-.1-.8.58-1.091 1.516a3.266 3.266 0 0 0-.178 1.576l-1.875 1 .18.34 1.874-1a3.266 3.266 0 0 0 1.413.721c.943.271 1.778.241 1.867-.067a.3.3 0 0 0-.078-.262c.542.053.945-.025 1.006-.234a.3.3 0 0 0-.078-.262c.542.053.945-.025 1.006-.233a.306.306 0 0 0-.078-.263c.543.053.945-.025 1.006-.233" style="fill:#418c48"/>
                    <path data-name="패스 13244" d="M23.121 25.549a.307.307 0 0 0-.154-.226c.533-.115.894-.311.888-.528-.006-.2-.32-.367-.793-.458.511-.261.828-.56.758-.774s-.439-.272-.951-.22c.41-.53.6-1.013.423-1.187s-.691.027-1.241.468c.051-.549-.025-.955-.238-1.015s-.532.291-.783.85c-.1-.538-.286-.9-.5-.9s-.4.366-.5.9a.305.305 0 0 0-.231-.148c-.216 0-.4.366-.5.9a.308.308 0 0 0-.232-.147c-.216 0-.4.366-.5.9a.307.307 0 0 0-.23-.149c-.216 0-.4.367-.5.9a.307.307 0 0 0-.231-.148c-.321 0-.581.8-.58 1.776a3.277 3.277 0 0 0 .309 1.556L15.84 29.43l.276.269 1.484-1.522a3.249 3.249 0 0 0 1.566.258c.98-.027 1.767-.308 1.758-.629a.3.3 0 0 0-.153-.226c.532-.114.893-.311.887-.528a.3.3 0 0 0-.153-.226c.532-.114.893-.311.888-.527a.307.307 0 0 0-.154-.227c.533-.114.893-.311.888-.527" style="fill:#418c48"/>
                    <path data-name="패스 13245" d="M5.639 19.727a.307.307 0 0 0-.139.236c-.331-.433-.663-.675-.856-.577s-.2.446-.076.913c-.454-.351-.86-.509-1.023-.354s-.058.513.208.953c-.654-.144-1.171-.106-1.254.126s.32.613.954.922c-.518.188-.853.431-.815.649s.49.356 1.1.344c-.444.32-.692.644-.6.839s.5.207 1.03.068a.305.305 0 0 0-.035.272c.092.2.5.207 1.029.068a.311.311 0 0 0-.034.273c.093.195.5.206 1.031.068a.306.306 0 0 0-.036.272c.093.195.5.207 1.03.068a.305.305 0 0 0-.035.272c.138.29.967.185 1.853-.236a3.273 3.273 0 0 0 1.275-.944l2.011.688.126-.364-2.009-.688a3.265 3.265 0 0 0-.437-1.526c-.437-.874-1.031-1.469-1.317-1.32a.3.3 0 0 0-.138.236c-.332-.433-.664-.675-.857-.576a.3.3 0 0 0-.139.235c-.331-.432-.663-.674-.857-.577a.306.306 0 0 0-.138.236c-.332-.433-.663-.674-.857-.577" style="fill:#418c48"/>
                    <path data-name="패스 13246" d="M48.352 40.613a.3.3 0 0 0-.035-.271c.527.139.938.127 1.031-.069.085-.181-.119-.472-.5-.768.574 0 .992-.124 1.026-.347s-.268-.44-.748-.625c.606-.288.991-.634.914-.868s-.628-.288-1.318-.145c.294-.466.411-.863.247-1.012s-.605.018-1.083.4c.156-.525.153-.932-.039-1.03s-.525.144-.857.577a.3.3 0 0 0-.138-.236c-.193-.1-.525.144-.856.576a.306.306 0 0 0-.14-.236c-.193-.1-.524.144-.857.576a.306.306 0 0 0-.138-.237c-.192-.1-.525.145-.856.577a.307.307 0 0 0-.139-.236c-.287-.145-.878.445-1.321 1.321a3.264 3.264 0 0 0-.429 1.527l-2.013.687.124.364 2.01-.685a3.271 3.271 0 0 0 1.279.939c.886.419 1.716.525 1.853.235a.305.305 0 0 0-.035-.272c.527.14.938.128 1.03-.068a.3.3 0 0 0-.034-.271c.527.139.937.127 1.031-.068a.3.3 0 0 0-.035-.272c.527.14.937.127 1.031-.068" style="fill:#418c48"/>
                    <path data-name="패스 13247" d="M42 26.861a.3.3 0 0 0-.267-.059c.31-.449.438-.839.285-.993s-.485-.048-.892.21c.194-.54.219-.975.021-1.083s-.505.1-.842.492c-.065-.667-.26-1.147-.507-1.154s-.484.493-.582 1.191c-.339-.435-.673-.679-.869-.576s-.188.576.012 1.156c-.441-.324-.825-.46-.982-.312s-.042.542.252 1a.3.3 0 0 0-.269.051c-.158.148-.042.542.252 1a.308.308 0 0 0-.27.052c-.156.148-.041.542.253 1a.307.307 0 0 0-.27.05c-.157.148-.042.543.252 1a.305.305 0 0 0-.269.05c-.233.221.122.977.795 1.691a3.273 3.273 0 0 0 1.292.921l-.036 2.126.385.008.036-2.124a3.258 3.258 0 0 0 1.317-.885c.695-.692 1.075-1.437.849-1.664a.3.3 0 0 0-.267-.059c.309-.449.437-.839.284-.993a.3.3 0 0 0-.263-.057c.31-.449.438-.839.286-.993a.3.3 0 0 0-.268-.059c.31-.449.438-.839.285-.993" style="fill:#418c48"/>
                    <path data-name="패스 13248" d="M51.3 32.829a.306.306 0 0 0-.086-.26c.544.037.945-.054 1-.264.049-.193-.207-.441-.637-.658.563-.11.95-.311.941-.536s-.348-.382-.854-.472c.54-.4.852-.811.732-1.026s-.672-.163-1.322.11c.2-.514.238-.926.05-1.042s-.591.134-.986.6c.052-.545-.028-.944-.236-1s-.487.241-.731.729a.3.3 0 0 0-.181-.2c-.208-.06-.487.241-.73.728a.308.308 0 0 0-.182-.205c-.208-.059-.487.242-.731.73a.306.306 0 0 0-.181-.206c-.208-.059-.488.242-.731.729a.3.3 0 0 0-.181-.2c-.309-.088-.777.6-1.044 1.548a3.254 3.254 0 0 0-.13 1.581l-1.845 1.059.191.334 1.842-1.057a3.252 3.252 0 0 0 1.435.678c.95.243 1.784.188 1.864-.123a.3.3 0 0 0-.086-.259c.544.036.944-.054 1-.264a.3.3 0 0 0-.086-.26c.544.036.945-.054 1-.263a.308.308 0 0 0-.086-.261c.544.037.945-.053 1-.263" style="fill:#418c48"/>
                    <path data-name="패스 13249" d="M22.921 4.919a.379.379 0 0 0-.34.032c.195-.651.2-1.164-.045-1.288-.222-.114-.594.13-.978.593.022-.716-.115-1.243-.392-1.294s-.56.317-.81.908c-.334-.767-.751-1.262-1.047-1.175s-.384.773-.232 1.639c-.57-.385-1.061-.546-1.254-.348s0 .756.46 1.367c-.648-.214-1.157-.228-1.286.009s.158.66.685 1.091a.38.38 0 0 0-.3.164c-.131.236.159.66.685 1.091a.382.382 0 0 0-.3.165c-.13.236.159.659.685 1.091a.385.385 0 0 0-.3.163c-.129.237.16.661.686 1.092a.382.382 0 0 0-.3.164c-.192.352.521 1.113 1.6 1.7a4.085 4.085 0 0 0 1.889.6l.777 2.538.46-.14-.776-2.535a4.053 4.053 0 0 0 1.212-1.562c.559-1.089.724-2.12.367-2.3a.379.379 0 0 0-.34.032c.195-.652.2-1.164-.044-1.288a.378.378 0 0 0-.34.032c.195-.652.2-1.164-.044-1.289a.384.384 0 0 0-.341.033c.2-.652.2-1.164-.044-1.289" style="fill:#418c48"/>
                    <path data-name="패스 13250" d="M30.123 1.464a.378.378 0 0 0-.321.115C29.829.9 29.7.4 29.44.342c-.243-.056-.544.272-.8.816-.156-.7-.419-1.175-.7-1.157s-.464.446-.561 1.081C26.865.421 26.339.044 26.074.2s-.182.844.179 1.646c-.647-.233-1.162-.267-1.3-.028s.187.733.784 1.211c-.681-.047-1.177.065-1.244.326s.317.6.934.889a.379.379 0 0 0-.251.233c-.068.261.317.6.933.887a.387.387 0 0 0-.25.235c-.067.261.317.6.934.888a.382.382 0 0 0-.251.232c-.067.261.317.6.934.889a.381.381 0 0 0-.251.233c-.1.388.78.95 1.966 1.253a4.08 4.08 0 0 0 1.978.111l1.38 2.268.411-.249-1.379-2.264a4.079 4.079 0 0 0 .8-1.812c.272-1.194.177-2.233-.214-2.322a.379.379 0 0 0-.321.115c.027-.679-.1-1.177-.362-1.237a.379.379 0 0 0-.321.115c.028-.679-.1-1.177-.361-1.238a.383.383 0 0 0-.322.116c.028-.68-.1-1.177-.361-1.238" style="fill:#418c48"/>
                    <path data-name="패스 13251" d="M11.354 10.925a.382.382 0 0 0-.069.334c-.566-.377-1.056-.528-1.245-.334-.173.179-.049.606.281 1.109-.678-.231-1.222-.253-1.352 0s.139.629.631 1.041c-.831.1-1.426.348-1.43.657s.626.593 1.5.7c-.536.432-.833.854-.7 1.1s.723.222 1.443-.04c-.395.557-.557 1.04-.369 1.232s.678.042 1.245-.336a.379.379 0 0 0 .068.335c.188.194.678.042 1.244-.335a.381.381 0 0 0 .07.335c.188.193.677.041 1.244-.336a.385.385 0 0 0 .068.336c.188.192.679.041 1.244-.336a.384.384 0 0 0 .069.335c.28.287 1.217-.172 2.093-1.028a4.072 4.072 0 0 0 1.123-1.631h2.655v-.481h-2.652a4.059 4.059 0 0 0-1.132-1.625c-.878-.853-1.815-1.312-2.094-1.025a.381.381 0 0 0-.069.335c-.566-.377-1.056-.529-1.245-.334a.375.375 0 0 0-.068.334c-.567-.377-1.057-.528-1.246-.335a.384.384 0 0 0-.068.335c-.567-.378-1.056-.528-1.245-.335" style="fill:#418c48"/>
                    <path data-name="패스 13252" d="M42.283 9.84a.379.379 0 0 0-.056-.337c.664.149 1.176.115 1.282-.134.1-.229-.17-.584-.659-.934.716-.028 1.231-.2 1.264-.481s-.356-.537-.963-.746c.742-.387 1.207-.836 1.1-1.125s-.8-.33-1.651-.118c.344-.6.471-1.1.26-1.276s-.754.052-1.332.555c.169-.662.147-1.171-.1-1.283s-.647.2-1.041.759a.383.383 0 0 0-.184-.288c-.245-.114-.648.2-1.041.759a.383.383 0 0 0-.186-.288c-.244-.112-.646.2-1.041.76a.382.382 0 0 0-.183-.289c-.245-.113-.649.2-1.042.759a.383.383 0 0 0-.184-.288c-.364-.167-1.074.6-1.586 1.71a4.081 4.081 0 0 0-.463 1.925L32 10.432l.172.449 2.475-.95a4.074 4.074 0 0 0 1.64 1.112c1.125.481 2.165.574 2.322.206a.379.379 0 0 0-.056-.337c.664.149 1.176.115 1.282-.134a.376.376 0 0 0-.056-.337c.664.149 1.176.115 1.283-.133a.381.381 0 0 0-.056-.338c.664.15 1.175.115 1.283-.133" style="fill:#418c48"/>
                    <path data-name="패스 13253" d="M48.073 17.078a.379.379 0 0 0 0-.341c.627.264 1.136.322 1.285.1.138-.208-.064-.6-.482-1.037.709.1 1.248.021 1.329-.248s-.254-.592-.814-.905c.8-.249 1.336-.609 1.282-.912s-.726-.467-1.6-.41c.446-.525.659-.995.484-1.209s-.752-.083-1.41.309c.284-.621.353-1.126.132-1.28s-.673.085-1.16.562a.377.377 0 0 0-.13-.316c-.22-.156-.673.085-1.159.561a.381.381 0 0 0-.131-.316c-.221-.155-.673.086-1.16.562a.384.384 0 0 0-.129-.317c-.221-.154-.674.086-1.16.562a.38.38 0 0 0-.13-.316c-.329-.23-1.163.4-1.865 1.4a4.088 4.088 0 0 0-.8 1.812l-2.608.5.089.472 2.6-.494a4.07 4.07 0 0 0 1.415 1.385c1.022.675 2.029.951 2.249.616a.379.379 0 0 0 .005-.341c.627.265 1.136.322 1.285.1a.376.376 0 0 0 0-.341c.627.265 1.137.322 1.287.1a.381.381 0 0 0 0-.342c.627.265 1.136.322 1.286.1" style="fill:#418c48"/>
                    <path data-name="패스 13254" d="M41.327 24.271a.381.381 0 0 0 .144-.31c.464.5.906.758 1.134.612.211-.134.188-.578-.017-1.143.606.38 1.13.528 1.315.315s.009-.644-.375-1.158c.83.1 1.468-.011 1.542-.31s-.472-.722-1.3-1.028c.621-.3 1.007-.64.934-.907s-.652-.382-1.412-.293c.512-.451.781-.884.642-1.115s-.65-.2-1.288.041a.381.381 0 0 0 .01-.342c-.138-.232-.65-.2-1.287.04a.387.387 0 0 0 .009-.343c-.139-.231-.65-.195-1.289.041a.382.382 0 0 0 .012-.342c-.139-.231-.651-.2-1.289.04a.385.385 0 0 0 .011-.342c-.207-.343-1.224-.112-2.274.519a4.072 4.072 0 0 0-1.468 1.328l-2.584-.61-.112.467 2.581.611a4.077 4.077 0 0 0 .727 1.842c.658 1.033 1.465 1.695 1.8 1.479a.375.375 0 0 0 .144-.309c.464.5.906.757 1.135.612a.38.38 0 0 0 .143-.31c.465.5.906.758 1.135.613a.384.384 0 0 0 .144-.31c.464.5.906.757 1.134.613" style="fill:#418c48"/>
                    <path data-name="패스 13255" d="M40.413 45.008h-1.5v-2.253s-.6-6.63 6.664-9.976l.627 1.363c-6.271 2.887-5.817 8.308-5.795 8.538z" style="fill:#418c48"/>
                    <path data-name="패스 13256" d="m16.455 37.054-1.229-.86a19.3 19.3 0 0 1 6.452-5.333l.7 1.324a18.186 18.186 0 0 0-5.927 4.869" style="fill:#418c48"/>
                    <path data-name="패스 13257" d="M16.59 43.972h-1.5c0-2.344-3.091-4.309-8.066-5.127l.244-1.48c5.837.961 9.322 3.43 9.322 6.607" style="fill:#418c48"/>
                    <path data-name="패스 13258" d="M39.016 36.608a15.653 15.653 0 0 0-5.632-5.293l.692-1.332a16.914 16.914 0 0 1 6.235 5.868z" style="fill:#418c48"/>
                    <path data-name="패스 13259" d="M15.193 29.485a15.661 15.661 0 0 0-5.632-5.294l.692-1.332a16.921 16.921 0 0 1 6.235 5.869z" style="fill:#418c48"/>
                    <path data-name="패스 13260" d="M26.434 22.053c-1.284-7.178-9.422-7.553-9.5-7.556l.072-2c.1 0 9.835.453 11.4 9.2z" style="fill:#418c48"/>
                    <path data-name="패스 13261" d="m28.289 24.956-1.742-.982c.214-.382 5.368-9.338 15.1-9.338v2c-8.551 0-13.316 8.236-13.363 8.32" style="fill:#418c48"/>
                    <path data-name="패스 13262" d="M26.418 21.883c0-.415.034-10.211 8.583-13.424l.7 1.873c-7.229 2.717-7.287 11.182-7.286 11.54z" style="fill:#418c48"/>
                    <path data-name="패스 13263" d="M46.777 68.671H8.91a2.9 2.9 0 0 1-2.9-2.9V47.984h43.666v17.793a2.9 2.9 0 0 1-2.9 2.9" style="fill:#91d09f"/>
                    <path data-name="사각형 2783" transform="translate(6.011 42.755)" style="fill:#91d09f" d="M0 0h43.664v3.967H0z"/>
                    <path data-name="사각형 2784" transform="translate(6.011 46.719)" style="fill:#56b36b" d="M0 0h43.664v1.265H0z"/>
                </g>
            </g>
        </g>
    </g>
</svg>
