<svg xmlns="http://www.w3.org/2000/svg" width="100" height="100" viewBox="0 0 100 100">
    <defs>
        <clipPath id="dh7djcwm5a">
            <path data-name="사각형 2638" style="fill:none" d="M0 0h49.253v87.877H0z"/>
        </clipPath>
    </defs>
    <g data-name="그룹 2519">
        <path data-name="사각형 2617" style="fill:none" d="M0 0h100v100H0z"/>
        <g data-name="그룹 2395">
            <g data-name="그룹 2394" style="clip-path:url(#dh7djcwm5a)" transform="translate(25 12)">
                <path data-name="패스 11182" d="M48.2 31c1.113-.1 1.089-.671 1.027-1.35s-.14-1.25-1.252-1.15a9.094 9.094 0 0 0-2.829.723A10.017 10.017 0 0 0 46.355 27c.4-1.043-.125-1.274-.761-1.516s-1.179-.42-1.577.623a9.065 9.065 0 0 0-.591 2.855 9.171 9.171 0 0 0-2.4-1.656c-1.008-.481-1.284.022-1.572.638s-.508 1.142.5 1.622a9.764 9.764 0 0 0 2.553.79 36.783 36.783 0 0 0-5.51 4.851c-.2-.213-.382-.4-.553-.557.519.025.719-.378.929-.846.28-.621.489-1.15-.53-1.61a8.987 8.987 0 0 0-2.851-.759 9.919 9.919 0 0 0 2.182-1.349c.86-.714.518-1.169.084-1.695-.422-.51-.8-.913-1.615-.279a24.532 24.532 0 0 0 1.021-3.033 11.672 11.672 0 0 0 .6-1.663 13.906 13.906 0 0 0 1.329 3.107c.773 1.31 1.463.945 2.261.471s1.446-.9.67-2.21a12.4 12.4 0 0 0-2.555-3.06 13.579 13.579 0 0 0 3.457.185c1.516-.122 1.492-.9 1.418-1.822s-.174-1.7-1.691-1.574a12.5 12.5 0 0 0-3.854.94 12.483 12.483 0 0 0 .626-3.915c0-1.521-.776-1.559-1.7-1.559s-1.7.037-1.7 1.559a12.45 12.45 0 0 0 .628 3.919 12.493 12.493 0 0 0-3.863-.944c-.1-.009-.176 0-.263 0 .061-.34.12-.676.177-1.012a1.515 1.515 0 0 0 .068-.39c.459-2.707.806-5.218.989-7.184a14.663 14.663 0 0 0 1.184 2.621c.773 1.309 1.464.945 2.261.471s1.446-.9.669-2.21a12.4 12.4 0 0 0-2.555-3.061 13.67 13.67 0 0 0 3.456.186c1.516-.123 1.492-.9 1.418-1.824s-.174-1.7-1.691-1.572a12.493 12.493 0 0 0-3.854.938 12.481 12.481 0 0 0 .626-3.914C33.775.037 33 0 32.075 0s-1.7.035-1.7 1.557a12.479 12.479 0 0 0 .628 3.919 12.448 12.448 0 0 0-3.863-.943c-1.517-.127-1.617.649-1.691 1.572s-.1 1.7 1.418 1.824a13.437 13.437 0 0 0 3.572-.212 12.275 12.275 0 0 0-2.587 3.083c-.777 1.311-.128 1.738.669 2.21s1.488.838 2.261-.471a9.91 9.91 0 0 0 .214-.385c-.115.9-.253 1.862-.409 2.867a2.032 2.032 0 0 0-1.034-.131 12.528 12.528 0 0 0-3.854.94 12.486 12.486 0 0 0 .626-3.914c0-1.522-.776-1.559-1.7-1.559s-1.7.036-1.7 1.559a12.483 12.483 0 0 0 .628 3.919 12.483 12.483 0 0 0-3.863-.945 2.029 2.029 0 0 0-1.033.131c-.137-.883-.261-1.736-.367-2.538l.032.056c.774 1.309 1.463.945 2.261.471s1.445-.9.669-2.21A12.407 12.407 0 0 0 18.7 7.742a13.678 13.678 0 0 0 3.457.186c1.516-.123 1.492-.9 1.418-1.824s-.174-1.7-1.691-1.572a12.468 12.468 0 0 0-3.854.939 12.492 12.492 0 0 0 .626-3.915c0-1.519-.774-1.556-1.7-1.556s-1.7.035-1.7 1.557a12.479 12.479 0 0 0 .628 3.919 12.448 12.448 0 0 0-3.863-.943c-1.517-.127-1.617.649-1.691 1.572s-.1 1.7 1.418 1.824a13.444 13.444 0 0 0 3.573-.212 12.258 12.258 0 0 0-2.587 3.083c-.777 1.311-.129 1.738.669 2.21s1.487.838 2.261-.471a14.061 14.061 0 0 0 1.295-2.969c.172 2.01.535 4.665 1.021 7.53a1.557 1.557 0 0 0 .07.4q.086.5.176 1.006a3.054 3.054 0 0 0-.391 0 12.5 12.5 0 0 0-3.854.94 12.483 12.483 0 0 0 .626-3.915c0-1.521-.776-1.559-1.7-1.559s-1.7.037-1.7 1.559a12.479 12.479 0 0 0 .628 3.919 12.487 12.487 0 0 0-3.862-.944c-1.517-.126-1.617.65-1.691 1.574s-.1 1.7 1.418 1.822a13.419 13.419 0 0 0 3.571-.21 12.249 12.249 0 0 0-2.59 3.085c-.776 1.311-.128 1.738.67 2.21s1.488.839 2.261-.471a13.906 13.906 0 0 0 1.329-3.107 12.117 12.117 0 0 0 .684 1.853 24.665 24.665 0 0 0 .961 2.826c-.8-.607-1.172-.209-1.591.3-.435.526-.776.981.084 1.695a9.927 9.927 0 0 0 2.183 1.349 8.992 8.992 0 0 0-2.853.759c-1.018.46-.809.989-.529 1.61.211.467.41.871.928.847-.171.16-.357.343-.553.555a36.831 36.831 0 0 0-5.509-4.851 9.726 9.726 0 0 0 2.554-.785c1.009-.48.788-1.008.5-1.622s-.563-1.119-1.572-.638a9.173 9.173 0 0 0-2.395 1.65 9.075 9.075 0 0 0-.592-2.849c-.4-1.044-.941-.866-1.577-.623S2.5 25.953 2.9 27a10.054 10.054 0 0 0 1.21 2.228 9.1 9.1 0 0 0-2.83-.723C.165 28.4.084 28.968.023 29.645S-.063 30.894 1.05 31a10.079 10.079 0 0 0 2.481-.1 10.186 10.186 0 0 0-1.642 1.866c-.625.928-.164 1.269.4 1.646s1.055.675 1.677-.253A8.858 8.858 0 0 0 5.2 31.437a9.764 9.764 0 0 0 .984 2.463c.494.855.949.748 1.455.476-.226.29-.262.645.166 1.227a9.879 9.879 0 0 0 1.77 1.826 7.235 7.235 0 0 0-1.8-.072c.249-.783-.21-1.026-.767-1.281-.619-.284-1.149-.5-1.614.521a9.093 9.093 0 0 0-.774 2.814A9.131 9.131 0 0 0 2.327 37.6c-.975-.543-1.277-.06-1.609.535s-.586 1.106.389 1.65a9.974 9.974 0 0 0 2.391.93 8.995 8.995 0 0 0-2.666 1.26c-.918.637-.616 1.117-.228 1.681s.737 1.017 1.653.38A10.208 10.208 0 0 0 4.1 42.361a10.029 10.029 0 0 0-.061 2.485c.119 1.108.688 1.079 1.365 1.006s1.241-.16 1.122-1.271a8.987 8.987 0 0 0-.789-2.855 9.914 9.914 0 0 0 2.324 1.236c.578.211.9.139 1.117-.071l.042.015c.647.212 1.2.363 1.546-.7a7.5 7.5 0 0 0 .123-.417 17.737 17.737 0 0 1 7.37 4.5 35.759 35.759 0 0 1 1.964 6.1 6.106 6.106 0 0 0-2.431-1.616c0-.013.01-.024.013-.038.264-1.15-.439-2.293-2.667-2.8v-.005c-2.228-.512-5.4.954-5.4.954s2.217 2.7 4.445 3.212c1.529.35 2.53.112 3.1-.438a5.09 5.09 0 0 1 3.513 4.118l.024-.005a35.89 35.89 0 0 1 .272 3.96H14.7l-.33 1.769h-.77v.7h.638L11.2 78.337a1.612 1.612 0 0 0-.028.3 1.633 1.633 0 0 0 1.587 1.631H5.922a3.089 3.089 0 0 0 3.088 3.093h30.956a3.088 3.088 0 0 0 3.087-3.09h-6.83a1.479 1.479 0 0 0 .249-.023 1.636 1.636 0 0 0 1.306-1.911L34.738 62.2h.662v-.7h-.8l-.334-1.773h-6.102a35.665 35.665 0 0 1 .272-3.96l.022.005a5.09 5.09 0 0 1 3.512-4.118c.57.55 1.572.788 3.1.438 2.228-.513 4.445-3.212 4.445-3.212s-3.172-1.466-5.4-.954v.005c-2.228.506-2.931 1.649-2.667 2.8 0 .014.01.025.013.038a6.115 6.115 0 0 0-2.428 1.612 35.745 35.745 0 0 1 1.96-6.085 17.7 17.7 0 0 1 7.373-4.5c.041.152.083.295.122.414.346 1.064.9.913 1.546.7l.043-.015c.216.21.539.282 1.117.071a9.93 9.93 0 0 0 2.32-1.233 9 9 0 0 0-.787 2.852c-.119 1.111.444 1.2 1.122 1.271s1.248.1 1.366-1.006a10.107 10.107 0 0 0-.062-2.488A10.069 10.069 0 0 0 47 44.032c.918.634 1.266.184 1.654-.375s.69-1.044-.228-1.681a8.97 8.97 0 0 0-2.668-1.263 9.956 9.956 0 0 0 2.389-.93c.975-.544.721-1.057.389-1.65s-.634-1.078-1.609-.535a9.143 9.143 0 0 0-2.29 1.81 9.094 9.094 0 0 0-.774-2.811c-.465-1.017-.995-.805-1.614-.521-.556.255-1.016.495-.766 1.281a7.214 7.214 0 0 0-1.805.073 9.99 9.99 0 0 0 1.772-1.83c.428-.577.4-.931.174-1.219.5.266.951.364 1.442-.484a9.764 9.764 0 0 0 .989-2.464 8.881 8.881 0 0 0 1.227 2.722c.622.928 1.113.631 1.677.253s1.025-.718.4-1.646a10.124 10.124 0 0 0-1.64-1.862 10.1 10.1 0 0 0 2.481.1m-8.863 3.263a8.874 8.874 0 0 0-1.24 2.451 5.242 5.242 0 0 0-.465-.727q.821-.889 1.705-1.724M37.07 37.89a8.8 8.8 0 0 0-2.238 1.539q.7-.974 1.459-1.9a5.234 5.234 0 0 0 .779.36m-4.254 2.755a2.533 2.533 0 0 0 .128-.644c.071-.677.1-1.247-1.007-1.365a9.135 9.135 0 0 0-2.911.155 10.046 10.046 0 0 0 1.616-1.944c.594-.946.126-1.273-.45-1.635a5.972 5.972 0 0 0-.275-.163 13.7 13.7 0 0 0 2.036-2.158 9.164 9.164 0 0 0-.24 2.9c.084 1.115.655 1.1 1.334 1.048.607-.047 1.122-.115 1.162-.925a1.834 1.834 0 0 0 .379.435 10.023 10.023 0 0 0 .844.652 36.476 36.476 0 0 0-2.618 3.647m-5.428-2.453a7 7 0 0 0-1.057-1.252 7.955 7.955 0 0 0 1.77-.668 7.72 7.72 0 0 0-.713 1.92m-5.524 0a7.722 7.722 0 0 0-.708-1.909 7.936 7.936 0 0 0 1.762.66 6.959 6.959 0 0 0-1.054 1.249m2.261.708v1.5a6.854 6.854 0 0 0-1.321-.94 6.483 6.483 0 0 0 1.321-.557m1 1.5V38.9a6.387 6.387 0 0 0 1.323.557 6.886 6.886 0 0 0-1.323.943m10.008-6.267a1.989 1.989 0 0 0-.583.514 2.569 2.569 0 0 0-.385.535 9.856 9.856 0 0 0-.466-2.013 9.418 9.418 0 0 0 1.434.964m-4.115-12.225a13.412 13.412 0 0 0 3.57-.21A12.261 12.261 0 0 0 32 24.783c-.776 1.311-.127 1.738.67 2.21a2.061 2.061 0 0 0 1.211.419 21.156 21.156 0 0 1-1.289 2.719 9.714 9.714 0 0 0-1.209-2.4c-.641-.92-1.123-.612-1.681-.219s-1.008.741-.367 1.656a9.135 9.135 0 0 0 2.033 2.092 9.073 9.073 0 0 0-2.725 1.058c-.963.566-.7 1.07-.353 1.658a1.737 1.737 0 0 0 .549.663 7.643 7.643 0 0 1-2.675 1.314c.9-1.437 2.138-4.594 3.681-11.551.191-.861.375-1.734.552-2.608a2.817 2.817 0 0 0 .617.116m-1.184-3.619c.084-.007.147-.023.222-.033l-.111.611a2.114 2.114 0 0 0-.343 1.217 4.654 4.654 0 0 0-.018.691 137.947 137.947 0 0 1-.71 3.406c-1.67 7.517-3.009 10.535-3.745 11.538V21.129a14.717 14.717 0 0 0 .869 1.772c.773 1.31 1.463.945 2.261.471s1.446-.9.67-2.21a12.405 12.405 0 0 0-2.557-3.06 13.764 13.764 0 0 0 3.459.191m-10.409 0a13.538 13.538 0 0 0 3.572-.216 12.25 12.25 0 0 0-2.59 3.083c-.777 1.31-.128 1.738.669 2.21s1.488.839 2.261-.471a14.626 14.626 0 0 0 .789-1.58v14.4c-.736-1-2.076-4.018-3.744-11.538-.306-1.381-.6-2.807-.867-4.226a2.915 2.915 0 0 0-.147-.779l-.167-.92c.075.01.137.026.221.033m-1.313 3.617a2.5 2.5 0 0 0 .737-.159c.179.889.366 1.776.56 2.651 1.545 6.966 2.783 10.122 3.684 11.557a7.613 7.613 0 0 1-2.683-1.314 1.7 1.7 0 0 0 .556-.667c.345-.588.61-1.092-.353-1.658a9.083 9.083 0 0 0-2.72-1.058 9.231 9.231 0 0 0 2.035-2.092c.646-.915.191-1.264-.367-1.656s-1.04-.7-1.681.219a9.625 9.625 0 0 0-1.217 2.425 21.193 21.193 0 0 1-1.3-2.737A2.149 2.149 0 0 0 16.534 27c.8-.472 1.446-.9.669-2.21a12.4 12.4 0 0 0-2.555-3.06 13.573 13.573 0 0 0 3.456.185m-2.553 11.254a9.877 9.877 0 0 0-.464 2.013 2.544 2.544 0 0 0-.386-.536 1.991 1.991 0 0 0-.583-.514 9.281 9.281 0 0 0 1.433-.963m-.89 3.177a1.8 1.8 0 0 0 .38-.437c.041.812.554.88 1.162.927.679.052 1.249.067 1.335-1.048a9.245 9.245 0 0 0-.229-2.866 13.729 13.729 0 0 0 2.016 2.129c-.088.048-.175.1-.266.158-.576.362-1.044.689-.45 1.635a10.051 10.051 0 0 0 1.617 1.945 9.122 9.122 0 0 0-2.913-.156c-1.106.118-1.076.688-1.006 1.365a2.538 2.538 0 0 0 .126.641A36.953 36.953 0 0 0 13.818 37a10.168 10.168 0 0 0 .843-.651m-1.7 1.183q.76.927 1.459 1.9a8.785 8.785 0 0 0-2.238-1.538 5.348 5.348 0 0 0 .779-.361m-1.343-1.547a5.22 5.22 0 0 0-.467.729 8.86 8.86 0 0 0-1.242-2.457q.885.837 1.709 1.728m-3.085-2.32a.837.837 0 0 0-.016-.671c.222.189.438.384.655.578a.781.781 0 0 0-.639.093m.933 5.519a8.226 8.226 0 0 0-.589 1.043 18.38 18.38 0 0 0-2.751-.239c.032-.033.063-.067.1-.1a1.325 1.325 0 0 0 .88.062 10.076 10.076 0 0 0 2.365-.764m1.746.069a9.72 9.72 0 0 0 1.616 2.107c.026.025.048.039.073.062a18.229 18.229 0 0 0-1.792-.649 6.23 6.23 0 0 0 .1-1.52m2.481 2.539a1.4 1.4 0 0 0 .828-.532c.3-.306.552-.585.514-.941a35.853 35.853 0 0 1 2.151 3.658 18.377 18.377 0 0 0-3.493-2.185m5.405 3.919.006-.006a.192.192 0 0 0-.015-.014 36.752 36.752 0 0 0-2.482-4.785 1.133 1.133 0 0 0 .969.212 10.1 10.1 0 0 0 2.416-.581 10.093 10.093 0 0 0-1.244 2.149c-.429 1.032.087 1.277.715 1.537s1.166.454 1.595-.576a8.916 8.916 0 0 0 .673-2.9 9.731 9.731 0 0 0 1.446 2.217c.375.425.675.542.947.495v16.262h-2.037a36.8 36.8 0 0 0-2.99-14.01m6.026 14.01V43.458c.273.047.573-.069.948-.495a9.766 9.766 0 0 0 1.45-2.225 8.851 8.851 0 0 0 .671 2.912c.429 1.03.967.838 1.6.576s1.144-.505.715-1.537a10.068 10.068 0 0 0-1.242-2.147 10.1 10.1 0 0 0 2.41.579 1.124 1.124 0 0 0 .973-.216 36.953 36.953 0 0 0-2.489 4.8l-.011.011a36.8 36.8 0 0 0-2.989 14.006zm9.094-19.4c-.04.356.217.636.513.942a1.385 1.385 0 0 0 .836.533 18.258 18.258 0 0 0-3.5 2.191 35.82 35.82 0 0 1 2.155-3.666m2.121 1.113c.029-.025.055-.042.085-.071a9.678 9.678 0 0 0 1.615-2.1 6.257 6.257 0 0 0 .1 1.523 18.472 18.472 0 0 0-1.8.653m5.811-1.483a1.329 1.329 0 0 0 .881-.062l.1.107a18.316 18.316 0 0 0-2.756.24 8.327 8.327 0 0 0-.591-1.05 10.051 10.051 0 0 0 2.365.765m-2.073-6.374c.217-.194.433-.389.655-.578a.829.829 0 0 0-.016.666.783.783 0 0 0-.639-.088" style="fill:#aaa"/>
                <path data-name="사각형 2636" transform="translate(8.894 83.362)" style="fill:#aaa" d="M0 0h3.195v4.515H0z"/>
                <path data-name="사각형 2637" transform="translate(37.151 83.362)" style="fill:#aaa" d="M0 0h3.195v4.515H0z"/>
            </g>
        </g>
    </g>
</svg>
