<svg xmlns="http://www.w3.org/2000/svg" width="100" height="100.01" viewBox="0 0 100 100.01">
    <defs>
        <clipPath id="stvb4r4hwa">
            <path data-name="사각형 2645" style="fill:none" d="M0 0h50v43.01H0z"/>
        </clipPath>
    </defs>
    <g data-name="그룹 2516">
        <path data-name="사각형 2595" style="fill:none" d="M0 0h100v100H0z"/>
        <g data-name="그룹 2402">
            <path data-name="사각형 2641" transform="translate(48.575 64.074)" style="fill:#a1d438" d="M0 0h1.974v8.443H0z"/>
            <g data-name="그룹 2401">
                <g data-name="그룹 2400" style="clip-path:url(#stvb4r4hwa)" transform="translate(25 57)">
                    <path data-name="패스 11185" d="M22.6 1.439c-1.82-1.788-3.544-1.773-4.6-.7s-1.038 2.8.781 4.584 5.808 1.892 5.808 1.892-.171-3.988-1.989-5.776" style="fill:#a1d438"/>
                    <path data-name="패스 11186" d="M26.856 1.539c1.9-1.7 3.624-1.6 4.626-.481s.9 2.842-1 4.542-5.891 1.612-5.891 1.612.363-3.974 2.266-5.673" style="fill:#a1d438"/>
                    <path data-name="사각형 2642" transform="translate(12.341 10.02)" style="fill:#a1d438" d="M0 0h1.285v5.496H0z"/>
                    <path data-name="패스 11187" d="M11.706 6.352C10.521 5.188 9.4 5.2 8.713 5.9s-.676 1.82.509 2.984S13 10.111 13 10.111s-.113-2.6-1.3-3.759" style="fill:#a1d438"/>
                    <path data-name="패스 11188" d="M14.477 6.418c1.239-1.106 2.359-1.043 3.011-.313s.588 1.85-.65 2.956S13 10.111 13 10.111s.236-2.587 1.475-3.693" style="fill:#a1d438"/>
                    <path data-name="사각형 2643" transform="translate(36.164 10.02)" style="fill:#a1d438" d="M0 0h1.285v5.496H0z"/>
                    <path data-name="패스 11189" d="M35.529 6.352C34.344 5.188 33.222 5.2 32.536 5.9s-.676 1.82.509 2.984 3.781 1.231 3.781 1.231-.113-2.6-1.3-3.759" style="fill:#a1d438"/>
                    <path data-name="패스 11190" d="M38.3 6.418c1.239-1.106 2.359-1.043 3.011-.313s.588 1.85-.65 2.956-3.835 1.05-3.835 1.05.236-2.587 1.475-3.693" style="fill:#a1d438"/>
                    <path data-name="사각형 2644" transform="translate(0 15.516)" style="fill:#fff" d="M0 0h50v6.175H0z"/>
                    <path data-name="패스 11191" d="m1.5 21.692.761 3.478h45.476l.761-3.478z" style="fill:#e6e6e6"/>
                    <path data-name="패스 11192" d="M47.737 25.17H2.263l3.9 17.839h10.353V41.83a1.382 1.382 0 0 1 2.764 0v1.179h3.633V41.83a1.382 1.382 0 0 1 2.765 0v1.179h3.633V41.83a1.382 1.382 0 1 1 2.764 0v1.181h11.758z" style="fill:#fff"/>
                    <path data-name="패스 11193" d="M17.9 40.447a1.382 1.382 0 0 0-1.382 1.382v1.181h2.762v-1.178a1.383 1.383 0 0 0-1.38-1.383" style="fill:#e6e6e6"/>
                    <path data-name="패스 11194" d="M24.3 40.447a1.382 1.382 0 0 0-1.382 1.382v1.181h2.764v-1.178a1.383 1.383 0 0 0-1.382-1.383" style="fill:#e6e6e6"/>
                    <path data-name="패스 11195" d="M30.693 40.447a1.382 1.382 0 0 0-1.382 1.382v1.181h2.764v-1.178a1.383 1.383 0 0 0-1.382-1.383" style="fill:#e6e6e6"/>
                    <path data-name="패스 11196" d="M17.9 40.447a1.382 1.382 0 0 0-1.382 1.382v1.181h2.762v-1.178a1.383 1.383 0 0 0-1.38-1.383" style="fill:#56b36b"/>
                    <path data-name="패스 11197" d="M24.3 40.447a1.382 1.382 0 0 0-1.382 1.382v1.181h2.764v-1.178a1.383 1.383 0 0 0-1.382-1.383" style="fill:#56b36b"/>
                    <path data-name="패스 11198" d="M30.693 40.447a1.382 1.382 0 0 0-1.382 1.382v1.181h2.764v-1.178a1.383 1.383 0 0 0-1.382-1.383" style="fill:#56b36b"/>
                </g>
            </g>
        </g>
    </g>
</svg>
