<svg xmlns="http://www.w3.org/2000/svg" width="100" height="100.032" viewBox="0 0 100 100.032">
    <defs>
        <clipPath id="3epuoq5fta">
            <path data-name="사각형 2635" style="fill:none" d="M0 0h61.997v80.032H0z"/>
        </clipPath>
    </defs>
    <g data-name="그룹 2520">
        <path data-name="사각형 2625" style="fill:none" d="M0 0h100v100H0z"/>
        <g data-name="그룹 2393">
            <g data-name="그룹 2392" style="clip-path:url(#3epuoq5fta)" transform="translate(19 20)">
                <path data-name="패스 11180" d="M62 35.38c0-.466-1.715-.843-3.83-.843h-.159c.051-.021.1-.039.152-.061 1.947-.826 3.379-1.841 3.2-2.271s-1.9-.109-3.835.71c1.488-1.493 2.421-2.958 2.093-3.281s-1.808.616-3.3 2.112l-.126.133c.024-.059.05-.113.074-.173v.005c.793-1.962 1.087-3.693.656-3.868s-1.416 1.261-2.208 3.208c0-2.1-.378-3.8-.842-3.8s-.829 1.665-.841 3.735c-.035.007-.064.009-.1.018-.819-1.9-1.808-3.286-2.23-3.11-.27.113-.242.842.022 1.852a2.338 2.338 0 0 0-.516.684.355.355 0 0 0-.2-.246l-.01.01a.347.347 0 0 0-.289.082c-.782-.565-1.4-.835-1.592-.638-.167.17.008.651.418 1.278a2.487 2.487 0 0 0-.489.665.351.351 0 0 0-.2-.245c-.236-.076-.57.257-.867.8h-.016a.351.351 0 0 0-.193-.232c-.354-.114-.924.671-1.273 1.754a3.8 3.8 0 0 0-.213 1.828l-.508.27a1.567 1.567 0 0 0-.08-.094 41.8 41.8 0 0 1 3.931-9.431c.059 1.853.406 3.282.831 3.282.466 0 .843-1.715.843-3.83v-.157c.02.05.037.1.058.147.825 1.948 1.841 3.379 2.271 3.2s.11-1.9-.709-3.834c1.494 1.49 2.96 2.424 3.283 2.1s-.616-1.808-2.112-3.3c-.043-.043-.085-.081-.128-.123.056.023.108.048.165.071 1.961.793 3.692 1.087 3.867.657s-1.261-1.416-3.208-2.208c2.1 0 3.8-.379 3.8-.843s-1.715-.843-3.83-.843h-.165c.051-.021.1-.039.152-.061 1.948-.826 3.379-1.84 3.2-2.271s-1.891-.11-3.827.707c1.486-1.492 2.417-2.955 2.09-3.277s-1.808.615-3.3 2.111c-.043.044-.081.087-.124.13.024-.057.049-.109.072-.167.793-1.961 1.087-3.692.656-3.866s-1.414 1.266-2.209 3.214c0-2.1-.379-3.8-.843-3.8s-.843 1.715-.843 3.83v.163c-.021-.05-.038-.1-.06-.149-.826-1.949-1.842-3.38-2.271-3.2s-.109 1.9.713 3.843c-1.492-1.485-2.965-2.429-3.288-2.1s.616 1.808 2.112 3.3l.117.113-.147-.07c-1.963-.794-3.692-1.087-3.866-.655s1.259 1.414 3.2 2.206c-2.1 0-3.795.379-3.795.842s1.715.844 3.83.844h.162l-.15.059c-1.948.826-3.379 1.842-3.2 2.271s1.9.109 3.844-.713c-1.486 1.492-2.43 2.966-2.1 3.289s1.808-.616 3.3-2.111c.04-.04.074-.079.112-.118l-.064.149c-.1.247-.192.49-.275.727a43 43 0 0 0-3.755 9.08c-.011.009-.024.016-.034.026a.376.376 0 0 0-.241-.078c-.259-.4-.528-.641-.727-.576v-.007a.365.365 0 0 0-.11.085.366.366 0 0 0-.235-.074c-.26-.407-.53-.647-.731-.582a.28.28 0 0 0-.1.085.364.364 0 0 0-.292-.085c-.168.054-.256.3-.266.663-.292-.225-.549-.326-.7-.229-.01.007-.012.023-.021.032a.413.413 0 0 0-.376-.032c-.181.121-.156.5.015.985a1.738 1.738 0 0 0-.772-.074c-.319-.042-.559-.007-.638.136-.137.25.255.761.925 1.229-.628.121-1.056.343-1.053.6s.5.5 1.2.6c-.565.285-.911.61-.841.85.064.219.467.307 1.015.274.048 0 .091.01.143.011a.353.353 0 0 0-.08.287c.064.22.467.307 1.014.274.048 0 .091.01.144.011a.349.349 0 0 0-.08.287c.064.22.468.306 1.016.274.043 0 .08.01.127.011-.28.042-.553.511-.74 1.213-.259-.6-.572-.968-.839-.917-.288.055-.439.591-.439 1.329a.418.418 0 0 0-.345-.138h-.006c-.288.054-.439.589-.439 1.328a.412.412 0 0 0-.344-.138c-.288.055-.439.589-.439 1.33a.413.413 0 0 0-.345-.139c-.288.055-.439.589-.439 1.328a.421.421 0 0 0-.345-.138c-.21.041-.35.335-.41.777a2.509 2.509 0 0 0-.249-.082V45.3c.478-.4.746-.787.631-1-.078-.142-.315-.178-.631-.138V35.49l.833-1.277a3.794 3.794 0 0 0 1.84-.038c1.111-.244 1.946-.737 1.866-1.1a.353.353 0 0 0-.225-.224c.586-.247.953-.549.9-.794a.361.361 0 0 0-.226-.225c.586-.247.954-.549.9-.794a.357.357 0 0 0-.225-.225c.587-.247.954-.549.9-.794a.357.357 0 0 0-.225-.225c.586-.247.955-.551.9-.794s-.515-.364-1.147-.343c.568-.426.9-.862.768-1.1-.118-.223-.6-.212-1.209-.018.362-.733.462-1.367.221-1.522s-.741.176-1.241.775c-.07-.593-.246-1-.486-1.023-.259-.021-.519.411-.686 1.057-.218-.514-.489-.829-.718-.785-.245.047-.375.5-.375 1.138a.358.358 0 0 0-.3-.118c-.246.048-.376.506-.376 1.138a.355.355 0 0 0-.288-.122c-.246.047-.376.505-.376 1.139a.353.353 0 0 0-.3-.119c-.246.047-.375.505-.375 1.139a.353.353 0 0 0-.3-.119.239.239 0 0 0-.052.028v-17.76l.01.025c.826 1.949 1.841 3.379 2.271 3.2s.11-1.9-.709-3.833c1.493 1.488 2.957 2.42 3.28 2.092s-.616-1.808-2.112-3.3c-.04-.041-.08-.076-.12-.115.052.022.1.044.152.065h.005c1.96.793 3.691 1.088 3.867.656s-1.264-1.413-3.211-2.205c2.1 0 3.8-.379 3.8-.843s-1.715-.843-3.83-.843h-.167c.052-.022.1-.039.155-.062 1.948-.825 3.379-1.841 3.2-2.271s-1.891-.11-3.828.707c1.487-1.492 2.417-2.954 2.09-3.277S39.005 3 37.513 4.5c-.044.044-.083.088-.126.132.024-.058.049-.11.073-.169.789-1.96 1.089-3.692.655-3.867S36.7 1.853 35.908 3.8c0-2.1-.378-3.8-.842-3.8s-.843 1.716-.843 3.83v.163c-.021-.05-.038-.1-.06-.15C33.341 1.895 32.325.462 31.9.644s-.108 1.9.714 3.842C31.117 3 29.644 2.057 29.321 2.385s.616 1.81 2.112 3.3c.038.038.076.072.114.109-.05-.02-.1-.042-.146-.063-1.961-.794-3.693-1.087-3.867-.655s1.266 1.418 3.212 2.209c-2.1 0-3.806.378-3.806.842s1.715.843 3.83.843h.163c-.051.02-.1.038-.15.06-1.948.825-3.379 1.841-3.2 2.271s1.9.108 3.841-.713c-1.483 1.491-2.426 2.963-2.1 3.285s1.809-.616 3.3-2.112c.039-.039.074-.078.112-.117-.021.052-.044.1-.065.151-.794 1.961-1.087 3.693-.655 3.866s1.375-1.206 2.158-3.092v13.773a.33.33 0 0 0-.206-.179.355.355 0 0 0-.3.118c0-.633-.129-1.09-.375-1.138a.355.355 0 0 0-.3.118c0-.633-.13-1.091-.376-1.138a.353.353 0 0 0-.294.118 3.449 3.449 0 0 0-.035-.49c.6.084 1.016.045 1.1-.152.174-.428-1.259-1.414-3.205-2.206 2.1 0 3.8-.379 3.8-.843s-1.715-.843-3.83-.843h-.166l.155-.061c1.948-.827 3.379-1.842 3.2-2.272s-1.893-.11-3.831.708c1.489-1.488 2.415-2.951 2.089-3.274s-1.808.617-3.3 2.112c-.043.044-.081.087-.124.13.024-.057.049-.109.072-.167.793-1.96 1.087-3.691.656-3.867s-1.416 1.254-2.208 3.2c0-2.1-.378-3.8-.842-3.8s-.843 1.715-.843 3.831v.16c-.022-.052-.039-.1-.061-.153-.826-1.947-1.842-3.379-2.271-3.2s-.109 1.9.714 3.844c-1.492-1.485-2.966-2.429-3.289-2.1s.616 1.809 2.112 3.3c.037.037.074.069.111.105l-.143-.061c-1.961-.8-3.693-1.088-3.867-.656s1.264 1.418 3.214 2.211c-2.1 0-3.808.378-3.808.842s1.715.843 3.83.843h.162l-.15.059c-1.953.827-3.379 1.842-3.2 2.271s1.9.109 3.846-.714a9.379 9.379 0 0 0-2.111 2.839 1.517 1.517 0 0 0-.352.954c-.5-.6-1-.929-1.241-.775s-.141.789.221 1.522c-.608-.194-1.091-.2-1.209.018-.128.238.2.674.768 1.1-.632-.021-1.092.1-1.147.343s.314.547.9.794a.357.357 0 0 0-.225.225c-.054.245.313.547.9.794a.359.359 0 0 0-.225.225c-.054.245.314.547.9.794a.361.361 0 0 0-.226.225c-.053.245.314.547.9.794a.356.356 0 0 0-.225.224c-.08.364.755.857 1.866 1.1a3.794 3.794 0 0 0 1.84.038l1.355 2.063.06-.04v14.7l-1-1.526a4.433 4.433 0 0 0 .808-1.993c.249-1.306.106-2.43-.321-2.512a.418.418 0 0 0-.345.139c0-.74-.151-1.275-.439-1.329a.413.413 0 0 0-.345.139c0-.741-.151-1.275-.439-1.329a.411.411 0 0 0-.344.137c0-.739-.151-1.274-.439-1.329a.418.418 0 0 0-.345.138c0-.738-.151-1.274-.439-1.329-.267-.051-.58.317-.839.917-.2-.753-.5-1.259-.8-1.234-.187.016-.336.245-.442.594A49.065 49.065 0 0 0 13.256 24.4a16.13 16.13 0 0 0-.521-1.405c1.494 1.489 2.958 2.421 3.281 2.093s-.616-1.808-2.112-3.3c-.043-.043-.085-.08-.128-.122.055.023.107.048.163.071 1.961.793 3.692 1.086 3.867.655s-1.258-1.415-3.2-2.206c2.1 0 3.794-.379 3.794-.843s-1.715-.843-3.83-.843h-.164l.155-.061c1.947-.827 3.379-1.842 3.2-2.272s-1.892-.11-3.828.707c1.487-1.492 2.417-2.954 2.09-3.277s-1.808.617-3.3 2.112c-.043.044-.081.087-.124.13.024-.057.049-.109.072-.167.793-1.96 1.087-3.691.656-3.867s-1.417 1.263-2.209 3.212c0-2.1-.379-3.805-.843-3.805s-.843 1.714-.843 3.829v.16c-.021-.049-.038-.1-.059-.147-.826-1.947-1.842-3.379-2.271-3.2s-.109 1.9.714 3.844c-1.492-1.486-2.966-2.43-3.289-2.1s.616 1.809 2.112 3.3l.118.112-.15-.065c-1.961-.794-3.692-1.087-3.867-.656S4 17.708 5.949 18.5c-2.1 0-3.8.379-3.8.842s1.715.843 3.83.843h.16c-.049.02-.1.037-.147.058-1.948.827-3.379 1.842-3.2 2.271s1.9.109 3.846-.714c-1.486 1.493-2.431 2.967-2.1 3.29s1.809-.616 3.3-2.112c.039-.038.072-.076.11-.114l-.063.146c-.794 1.96-1.087 3.691-.652 3.866s1.411-1.254 2.2-3.194c.005 2.1.379 3.791.842 3.791.411 0 .752-1.334.827-3.1a34.929 34.929 0 0 1 2.649 4.809c-.414-.086-1.478.574-2.647 1.647a1.084 1.084 0 0 0-.3-.27c.578-1.64.754-2.977.378-3.13-.429-.174-1.415 1.261-2.208 3.208 0-2.1-.378-3.8-.842-3.8s-.843 1.717-.843 3.83v.168l-.061-.153c-.826-1.947-1.842-3.379-2.271-3.2s-.109 1.9.713 3.842c-1.491-1.484-2.956-2.433-3.287-2.105s.617 1.81 2.11 3.301v.006l.116.11-.149-.064c-1.96-.79-3.691-1.086-3.866-.655s1.26 1.415 3.205 2.207c-2.1 0-3.8.378-3.8.839 0 .329.867.611 2.118.751a1.651 1.651 0 0 0 .178.908l-.123.07c-.705-.23-1.27-.248-1.4.006-.087.166.059.43.335.716-.353.3-.532.555-.461.721.039.091.159.141.324.167-.175.11-.28.233-.274.363.012.291.551.518 1.312.6-.6.327-.958.688-.874.944s.561.327 1.2.252a.469.469 0 0 0 0 .112.374.374 0 0 0-.024.214c.083.257.59.336 1.264.247a.385.385 0 0 0-.085.332c.084.256.59.335 1.265.247a.385.385 0 0 0-.087.332.366.366 0 0 0 .227.189c.025.191.082.323.182.363.133.054.323-.061.54-.282.1-.005.2-.009.316-.023a.38.38 0 0 0-.086.33c.109.333.917.376 1.895.128.116.273.245.442.385.442.183 0 .35-.27.488-.718a4.052 4.052 0 0 0 1.29-.82l.539.265c.354.46.663.711.854.631a.256.256 0 0 0 .129-.149l.71.349a35.144 35.144 0 0 1 1.953 8.37l-1.839-.9a4.067 4.067 0 0 0-.3-1.958c-.412-1.153-1.051-1.978-1.428-1.843a.381.381 0 0 0-.209.27c-.342-.588-.715-.94-.97-.848a.377.377 0 0 0-.209.27c-.342-.589-.715-.94-.97-.851a.385.385 0 0 0-.209.271c-.342-.589-.715-.939-.97-.85h.006a.381.381 0 0 0-.209.27c-.342-.588-.715-.94-.97-.849-.235.084-.312.522-.237 1.119-.507-.506-.985-.766-1.212-.6s-.152.626.108 1.214c-.788-.282-1.434-.317-1.573-.041s.3.808 1.036 1.291c-.671.151-1.124.4-1.112.675.012.291.551.518 1.312.6-.6.326-.958.688-.874.944s.59.336 1.265.247a.381.381 0 0 0-.086.331c.083.257.59.336 1.264.248a.383.383 0 0 0-.085.332c.084.255.59.335 1.265.246a.384.384 0 0 0-.087.331c.084.257.591.336 1.265.247a.384.384 0 0 0-.086.331c.125.381 1.168.382 2.332 0a4.061 4.061 0 0 0 1.727-.969l2.107 1.035q.123 1.218.179 2.53H9.007v3.966h43.664v-3.968h-6.256c.033-.782.086-1.535.156-2.266l1.865-.916a4.084 4.084 0 0 0 1.727.97c1.164.381 2.207.38 2.332 0a.381.381 0 0 0-.086-.331c.674.088 1.181.008 1.265-.247a.385.385 0 0 0-.086-.332c.674.088 1.181.009 1.264-.247a.382.382 0 0 0-.085-.332c.674.089 1.181.01 1.264-.247a.378.378 0 0 0-.086-.331c.675.089 1.181.01 1.265-.247s-.274-.618-.874-.944c.761-.082 1.3-.309 1.312-.6s-.441-.524-1.112-.676c.736-.482 1.175-1.016 1.036-1.291s-.785-.24-1.573.041c.26-.586.335-1.046.108-1.212s-.7.093-1.212.6c.075-.6 0-1.035-.237-1.119-.255-.091-.628.261-.97.85a.379.379 0 0 0-.209-.271c-.255-.09-.628.261-.97.85a.382.382 0 0 0-.209-.271c-.255-.09-.628.262-.97.85a.379.379 0 0 0-.209-.27c-.254-.09-.628.261-.97.849a.381.381 0 0 0-.209-.27c-.377-.135-1.016.69-1.428 1.843a4.063 4.063 0 0 0-.291 1.958l-1.6.786a35.549 35.549 0 0 1 1.877-8.339l2.06-1.01c.026.025.056.045.082.069-.049.5 0 .833.177.9.147.059.361-.08.607-.351a4.055 4.055 0 0 0 .861.348 5.786 5.786 0 0 0 1.242.27c.1.208.218.327.339.327s.241-.129.347-.348c.214-.042.363-.123.4-.249a.384.384 0 0 0-.086-.331c.674.089 1.181.009 1.265-.247a.381.381 0 0 0-.079-.327c.113.015.212.018.314.024.421.6.794.933 1.013.841s.239-.645.076-1.427c.556.043.968-.037 1.041-.263a.385.385 0 0 0-.086-.332 3.648 3.648 0 0 0 .532.031c.493.286.866.4 1.008.253.192-.195-.068-.8-.617-1.565.468-.112.771-.293.78-.51.011-.275-.441-.523-1.112-.676.068-.044.119-.09.182-.136 1.369.422 2.425.522 2.559.191.169-.416-1.183-1.358-3.045-2.137v-.074c2.022-.02 3.64-.388 3.64-.84m-12.791.98c.067.006.123 0 .185.007l-.143.065a.3.3 0 0 0-.042-.072m-2.441 2.37a5.291 5.291 0 0 0 1.733-.277c-.263.5-.525 1.027-.782 1.593l-.964-.512a3.793 3.793 0 0 0 .013-.8m.365-2a5.54 5.54 0 0 0 1.079.2 6.793 6.793 0 0 0-1.57 1.09c-.03-.108-.06-.217-.1-.323-.317-.982-.814-1.712-1.168-1.755l.126-.067a3.8 3.8 0 0 0 1.633.85M37.537 49.7a4.432 4.432 0 0 0 2.15-.046 6.806 6.806 0 0 0 .837-.241q-.16 2.24-.21 4.694h-4.359v-2zM26.742 41a3.813 3.813 0 0 0 .458.838l-.458.7zm0 8.88 1.5-.8a3.8 3.8 0 0 0 1.633.848c1.092.319 2.066.288 2.166-.069a.353.353 0 0 0-.09-.3c.63.061 1.1-.028 1.168-.267a.354.354 0 0 0-.09-.306c.6.059 1.043-.022 1.145-.238v5.355h-7.432zm7.434-1.348a.338.338 0 0 0-.067-.118h.067zm2.925.877-1.146 1.741v-3.317a.5.5 0 0 0 .377-.221 4.441 4.441 0 0 0 .769 1.805m-.916-2.851a6.773 6.773 0 0 0 .091.747 1.312 1.312 0 0 0-.321-.313v-.358c.086-.023.156-.05.23-.077m.238-12.593-.468.711V33.1a3.781 3.781 0 0 0 .468.875m-2.247-5.4v2.393l-.622-.945a3.77 3.77 0 0 0 .622-1.448m-1 1.694 1 1.513v11.986c-.031.032-.061.054-.093.088.052-.557-.032-.963-.253-1.034-.238-.077-.576.26-.876.817a.353.353 0 0 0-.2-.246l-.005.008c-.238-.079-.576.259-.876.816a.355.355 0 0 0-.2-.246c-.238-.077-.576.261-.876.817a.351.351 0 0 0-.2-.245c-.238-.076-.576.261-.876.818a.355.355 0 0 0-.2-.247c-.354-.114-.924.671-1.273 1.754a3.8 3.8 0 0 0-.213 1.828l-1.293.686v-6.026l.832-1.264a3.782 3.782 0 0 0 1.84-.039c1.111-.243 1.946-.735 1.866-1.1a.353.353 0 0 0-.225-.224c.586-.247.953-.549.9-.794a.359.359 0 0 0-.226-.225c.586-.247.954-.549.9-.794a.353.353 0 0 0-.225-.224c.587-.247.954-.55.9-.8a.357.357 0 0 0-.225-.225c.586-.247.955-.551.9-.794s-.515-.364-1.147-.343c.568-.425.9-.861.768-1.1-.118-.223-.6-.212-1.209-.018.362-.733.462-1.367.221-1.522s-.741.176-1.241.775c-.07-.593-.246-1-.486-1.023-.259-.021-.519.411-.686 1.057-.218-.514-.489-.829-.718-.785-.245.048-.375.506-.375 1.138a.359.359 0 0 0-.3-.118v-.008c-.246.047-.376.505-.376 1.139a.354.354 0 0 0-.294-.119c-.246.047-.376.505-.376 1.138a.355.355 0 0 0-.3-.118c-.246.047-.375.505-.375 1.139a.353.353 0 0 0-.3-.119c-.015 0-.028.017-.042.022v-13.2c0 .009.006.017.01.025l.069.153c-.014.021-.04.039-.046.063-.03.135.078.287.272.439a5.7 5.7 0 0 0 1.8 2.54.318.318 0 0 0-.049.079c-.053.244.314.546.9.794a.354.354 0 0 0-.225.223c-.08.364.755.858 1.866 1.1a3.782 3.782 0 0 0 1.84.039m-10.865-3.211v.008a.358.358 0 0 0-.3.118c0-.633-.13-1.091-.375-1.138-.229-.044-.5.271-.718.785a3.277 3.277 0 0 0-.209-.578 9.982 9.982 0 0 0 2.7-2.064c.039-.038.072-.076.11-.114l-.063.146a10.192 10.192 0 0 0-.847 3.27c-.062-.243-.159-.406-.3-.433m.363.9a.215.215 0 0 0 .3.125.355.355 0 0 0-.287.117c0-.087-.008-.162-.013-.242m1.242 6.019a3.788 3.788 0 0 0 .691-1.7c.213-1.118.091-2.081-.275-2.15a.355.355 0 0 0-.3.118c0-.633-.129-1.091-.375-1.138a.355.355 0 0 0-.3.118c0-.632-.13-1.089-.375-1.137.476-.174 1.291-1.434 1.977-3.086v10.555zm-2.544 15.687a4.432 4.432 0 0 0 2.15.046l1.439 2.185v2.222h-4.272a85.97 85.97 0 0 0-.233-4.721 6.908 6.908 0 0 0 .916.268M15.84 34.593a3.552 3.552 0 0 0-.648-.206 3.522 3.522 0 0 0-.124-.4 5.393 5.393 0 0 0-.467-1.068 6.015 6.015 0 0 0 .527-.384c.241.652.479 1.337.712 2.06m-.539.924a2.507 2.507 0 0 0 .74-.286q.177.572.347 1.172l-1.107-.591c.013-.1.015-.2.02-.3m-1.39-5.973q.433.964.871 2.077a8.125 8.125 0 0 0-1.535.343c-.192-.226-.38-.352-.528-.305a.353.353 0 0 0-.2.245c-.023-.042-.048-.075-.071-.115a6.286 6.286 0 0 0 1.463-2.245M3.06 35.789c.118.006.243.006.364.008 0 .079.008.162.017.249l-.059.026a4.131 4.131 0 0 0-.322-.283m8.419 6a6.167 6.167 0 0 0-.227-1.278c.216.464.428.96.636 1.478zm1.821-1.112c.269.107.475.133.571.035.324-.329-.616-1.808-2.112-3.3-.043-.043-.085-.08-.128-.122.056.023.108.048.165.072 1.96.792 3.691 1.086 3.867.655.111-.272-.427-.768-1.331-1.3a3.8 3.8 0 0 0 .74-.508l1.489.79c.406 1.486.781 3.1 1.109 4.838-.591-.153-1.049-.146-1.171.083-.149.277.23.786.9 1.284-.738-.024-1.276.116-1.339.4s.366.639 1.047.928a.413.413 0 0 0-.263.263c-.063.285.366.639 1.047.928a.416.416 0 0 0-.263.262c-.054.247.27.54.792.8l.035.321a.419.419 0 0 0-.042.067.359.359 0 0 0 .079.269c.222 2.081.373 4.3.426 6.662h-2.8A37.906 37.906 0 0 0 13.3 40.677m28.8 13.434c.048-2.33.182-4.51.381-6.548a.462.462 0 0 0 .176-.383.417.417 0 0 0-.116-.172l.018-.171c.577-.273.941-.587.883-.848a.413.413 0 0 0-.263-.262c.681-.289 1.11-.643 1.047-.928a.413.413 0 0 0-.263-.263c.681-.289 1.11-.645 1.047-.928s-.6-.425-1.339-.4c.671-.5 1.049-1.007.9-1.284-.132-.247-.649-.242-1.308-.048l.071-.388a3.822 3.822 0 0 0 .158-.49 4.949 4.949 0 0 0 1.424-.218 3.8 3.8 0 0 0 1.46-.731l1.089.577a37.867 37.867 0 0 0-2.845 13.485zM48.735 42.3c.218-.561.444-1.089.673-1.589a11 11 0 0 0 1.135-.871 4.075 4.075 0 0 0-.191 1.667z" style="fill:#aaa"/>
                <path data-name="패스 11181" d="M9.005 77.126a2.9 2.9 0 0 0 2.9 2.9h37.867v.006a2.9 2.9 0 0 0 2.9-2.9V59.339H9.005z" style="fill:#aaa"/>
            </g>
        </g>
    </g>
</svg>
