<svg xmlns="http://www.w3.org/2000/svg" width="100" height="100" viewBox="0 0 100 100">
    <defs>
        <clipPath id="vudqynee8a">
            <path data-name="사각형 2722" style="fill:none" d="M0 0h75.003v59.911H0z"/>
        </clipPath>
    </defs>
    <g data-name="그룹 2507">
        <path data-name="사각형 2604" style="fill:none" d="M0 0h100v100H0z"/>
        <g data-name="그룹 2426">
            <g data-name="그룹 2425" style="clip-path:url(#vudqynee8a)" transform="translate(12 40)">
                <path data-name="패스 12002" d="m22.767 31.052-9.157 9.011a4.3 4.3 0 0 0-1.283 3.065l9.285-9.285a3.946 3.946 0 0 0 1.155-2.791" style="fill:#6a8e32"/>
                <path data-name="패스 12003" d="m17.961 21.536-4.482 4.335a4.3 4.3 0 0 0-1.279 3.064l4.609-4.609a3.943 3.943 0 0 0 1.156-2.79" style="fill:#6a8e32"/>
                <path data-name="패스 12004" d="m4 25.588 7.71 7.562a4.3 4.3 0 0 1 1.283 3.065l-7.835-7.837A3.945 3.945 0 0 1 4 25.588" style="fill:#6a8e32"/>
                <path data-name="패스 12005" d="M13.041 4.664c.6-.866 1.3-1 1.807-.643s.64 1.05.043 1.917a4.268 4.268 0 0 1-2.2 1.222 4.266 4.266 0 0 1 .355-2.5" style="fill:#9a3bd1"/>
                <path data-name="패스 12006" d="M12.39 4.664c-.6-.866-1.3-1-1.807-.643s-.64 1.05-.043 1.917a4.268 4.268 0 0 0 2.2 1.222 4.266 4.266 0 0 0-.355-2.5" style="fill:#9a3bd1"/>
                <path data-name="패스 12007" d="M13.068 7.194c.647-.939 1.4-1.079 1.958-.7s.693 1.139.046 2.078A4.612 4.612 0 0 1 12.684 9.9a4.615 4.615 0 0 1 .384-2.7" style="fill:#9a3bd1"/>
                <path data-name="패스 12008" d="M12.362 7.194c-.647-.939-1.4-1.079-1.958-.7s-.693 1.139-.046 2.078A4.614 4.614 0 0 0 12.747 9.9a4.615 4.615 0 0 0-.384-2.7" style="fill:#9a3bd1"/>
                <path data-name="패스 12009" d="M13.1 10c.713-1.035 1.548-1.189 2.158-.769s.764 1.255.051 2.29a5.088 5.088 0 0 1-2.628 1.458A5.094 5.094 0 0 1 13.109 10" style="fill:#9a3bd1"/>
                <path data-name="패스 12010" d="M12.327 10c-.713-1.035-1.548-1.189-2.158-.769s-.764 1.255-.051 2.29a5.093 5.093 0 0 0 2.632 1.458A5.094 5.094 0 0 0 12.326 10" style="fill:#9a3bd1"/>
                <path data-name="패스 12011" d="M13.135 13.163c.77-1.118 1.672-1.283 2.33-.83s.825 1.355.055 2.473a5.517 5.517 0 0 1-2.843 1.575 5.507 5.507 0 0 1 .458-3.219" style="fill:#9a3bd1"/>
                <path data-name="패스 12012" d="M12.3 13.163c-.77-1.118-1.672-1.283-2.33-.83s-.825 1.355-.055 2.473a5.517 5.517 0 0 0 2.843 1.575 5.507 5.507 0 0 0-.458-3.219" style="fill:#9a3bd1"/>
                <path data-name="패스 12013" d="m12.53 22.159-1.3-1.3a.437.437 0 0 1 .309-.746h2.606a.437.437 0 0 1 .309.746l-1.3 1.3a.436.436 0 0 1-.618 0" style="fill:#a1d438"/>
                <path data-name="패스 12014" d="M13.215 16.5c.916-1.329 1.988-1.528 2.772-.988s.981 1.612.065 2.943-3.381 1.873-3.381 1.873-.371-2.5.544-3.828" style="fill:#9a3bd1"/>
                <path data-name="패스 12015" d="M12.216 16.5c-.916-1.329-1.988-1.528-2.772-.988s-.981 1.612-.065 2.943 3.381 1.873 3.381 1.873.371-2.5-.544-3.828" style="fill:#9a3bd1"/>
                <path data-name="패스 12016" d="m12.53 17.706-1.3-1.3a.437.437 0 0 1 .309-.746h2.606a.437.437 0 0 1 .309.746l-1.3 1.3a.436.436 0 0 1-.618 0" style="fill:#a1d438"/>
                <path data-name="패스 12017" d="m12.53 14.333-1.3-1.3a.437.437 0 0 1 .309-.746h2.606a.437.437 0 0 1 .309.746l-1.3 1.3a.435.435 0 0 1-.618 0" style="fill:#a1d438"/>
                <path data-name="패스 12018" d="m12.53 11-1.3-1.3a.436.436 0 0 1 .309-.745h2.606a.436.436 0 0 1 .309.745l-1.3 1.3a.435.435 0 0 1-.618 0" style="fill:#a1d438"/>
                <path data-name="패스 12019" d="m12.53 8.4-1.3-1.3a.437.437 0 0 1 .309-.746h2.606a.437.437 0 0 1 .309.746l-1.3 1.3a.436.436 0 0 1-.618 0" style="fill:#a1d438"/>
                <path data-name="패스 12020" d="m12.53 5.1-1.3-1.3a.437.437 0 0 1 .309-.746h2.606a.437.437 0 0 1 .309.746l-1.3 1.3a.436.436 0 0 1-.618 0" style="fill:#a1d438"/>
                <path data-name="사각형 2716" transform="translate(12.327 2.549)" style="fill:#a1d438" d="M0 0h.978v44.734H0z"/>
                <path data-name="패스 12021" d="M10.277 17.43c-1.5-.608-2.5-.184-2.859.7s.066 1.886 1.562 2.494 3.854-.292 3.854-.292-1.062-2.291-2.557-2.9" style="fill:#d8a0f2"/>
                <path data-name="패스 12022" d="M15.153 17.43c1.5-.608 2.5-.184 2.859.7s-.066 1.886-1.562 2.494-3.85-.294-3.85-.294 1.062-2.291 2.557-2.9" style="fill:#d8a0f2"/>
                <path data-name="패스 12023" d="M10.665 13.948c-1.257-.51-2.1-.155-2.4.587s.056 1.585 1.313 2.1a5.5 5.5 0 0 0 3.241-.245 5.5 5.5 0 0 0-2.15-2.438" style="fill:#d8a0f2"/>
                <path data-name="패스 12024" d="M14.765 13.948c1.257-.51 2.1-.155 2.4.587s-.056 1.585-1.313 2.1a5.5 5.5 0 0 1-3.241-.245 5.5 5.5 0 0 1 2.15-2.438" style="fill:#d8a0f2"/>
                <path data-name="패스 12025" d="M10.817 10.725c-1.164-.473-1.946-.142-2.225.544s.051 1.467 1.216 1.94a5.071 5.071 0 0 0 3-.228 5.092 5.092 0 0 0-1.991-2.257" style="fill:#d8a0f2"/>
                <path data-name="패스 12026" d="M14.613 10.725c1.164-.473 1.947-.142 2.225.544s-.051 1.467-1.216 1.94a5.071 5.071 0 0 1-3-.228 5.092 5.092 0 0 1 1.991-2.257" style="fill:#d8a0f2"/>
                <path data-name="패스 12027" d="M10.993 7.853c-1.056-.429-1.766-.13-2.019.492s.047 1.332 1.1 1.761A4.615 4.615 0 0 0 12.8 9.9a4.615 4.615 0 0 0-1.81-2.048" style="fill:#d8a0f2"/>
                <path data-name="패스 12028" d="M14.437 7.853c1.056-.429 1.766-.13 2.019.492s-.047 1.332-1.1 1.761a4.615 4.615 0 0 1-2.722-.206 4.615 4.615 0 0 1 1.806-2.048" style="fill:#d8a0f2"/>
                <path data-name="패스 12029" d="M11.126 5.273c-.975-.4-1.63-.12-1.863.455s.043 1.229 1.018 1.626a4.267 4.267 0 0 0 2.513-.191 4.264 4.264 0 0 0-1.667-1.891" style="fill:#d8a0f2"/>
                <path data-name="패스 12030" d="M14.3 5.273c.975-.4 1.63-.12 1.863.455s-.043 1.229-1.018 1.626a4.267 4.267 0 0 1-2.513-.191A4.264 4.264 0 0 1 14.3 5.272" style="fill:#d8a0f2"/>
                <path data-name="패스 12031" d="M13.017 1.743c.554-.8 1.2-.924 1.676-.6s.593.974.039 1.779a3.955 3.955 0 0 1-2.044 1.133 3.957 3.957 0 0 1 .329-2.314" style="fill:#9a3bd1"/>
                <path data-name="패스 12032" d="M12.413 1.743c-.554-.8-1.2-.924-1.676-.6s-.593.974-.039 1.779a3.955 3.955 0 0 0 2.044 1.133 3.957 3.957 0 0 0-.329-2.314" style="fill:#9a3bd1"/>
                <path data-name="패스 12033" d="M11.241 2.306c-.9-.367-1.512-.11-1.729.422s.04 1.14.944 1.508a3.953 3.953 0 0 0 2.331-.177 3.954 3.954 0 0 0-1.546-1.753" style="fill:#d8a0f2"/>
                <path data-name="패스 12034" d="M14.189 2.306c.9-.367 1.512-.11 1.729.422s-.04 1.14-.944 1.508a3.953 3.953 0 0 1-2.331-.177 3.954 3.954 0 0 1 1.546-1.753" style="fill:#d8a0f2"/>
                <path data-name="패스 12035" d="M11.563 1.3c-.222-.692 0-1.129.411-1.261s.846.094 1.068.787a2.951 2.951 0 0 1-.263 1.723s-.994-.559-1.216-1.249" style="fill:#d8a0f2"/>
                <path data-name="패스 12036" d="M14 1.3c.219-.7 0-1.133-.414-1.265s-.846.094-1.068.787a2.951 2.951 0 0 0 .263 1.723S13.774 1.989 14 1.3" style="fill:#d8a0f2"/>
                <path data-name="패스 12037" d="m6.7 22.928 5.368 5.221a4.3 4.3 0 0 1 1.283 3.065l-5.5-5.5a3.949 3.949 0 0 1-1.151-2.79" style="fill:#a1d438"/>
                <path data-name="패스 12038" d="m21.316 25.584-7.7 7.554a4.3 4.3 0 0 0-1.283 3.062l7.828-7.827a3.946 3.946 0 0 0 1.155-2.791" style="fill:#a1d438"/>
                <path data-name="패스 12039" d="m1.484 30.814 10.347 10.2a4.3 4.3 0 0 1 1.283 3.065L2.64 33.6a3.943 3.943 0 0 1-1.156-2.79" style="fill:#a1d438"/>
                <path data-name="패스 12040" d="M32.953 31.052 23.8 40.063a4.3 4.3 0 0 0-1.283 3.065l9.283-9.285a3.946 3.946 0 0 0 1.155-2.791" style="fill:#6a8e32"/>
                <path data-name="패스 12041" d="m28.147 21.536-4.482 4.335a4.3 4.3 0 0 0-1.283 3.064l4.609-4.609a3.943 3.943 0 0 0 1.156-2.79" style="fill:#6a8e32"/>
                <path data-name="패스 12042" d="M14.188 25.588 21.9 33.15a4.3 4.3 0 0 1 1.283 3.065l-7.837-7.837a3.945 3.945 0 0 1-1.156-2.79" style="fill:#6a8e32"/>
                <path data-name="패스 12043" d="M23.227 4.664c.6-.866 1.3-1 1.807-.643s.639 1.05.043 1.917a4.268 4.268 0 0 1-2.2 1.222 4.266 4.266 0 0 1 .355-2.5" style="fill:#9a3bd1"/>
                <path data-name="패스 12044" d="M22.576 4.664c-.6-.866-1.3-1-1.807-.643s-.639 1.05-.043 1.917a4.268 4.268 0 0 0 2.2 1.222 4.266 4.266 0 0 0-.355-2.5" style="fill:#9a3bd1"/>
                <path data-name="패스 12045" d="M23.254 7.194c.647-.939 1.4-1.079 1.958-.7s.693 1.139.046 2.078A4.612 4.612 0 0 1 22.87 9.9a4.615 4.615 0 0 1 .384-2.7" style="fill:#9a3bd1"/>
                <path data-name="패스 12046" d="M22.548 7.194c-.647-.939-1.4-1.079-1.958-.7s-.693 1.139-.046 2.078A4.612 4.612 0 0 0 22.932 9.9a4.615 4.615 0 0 0-.384-2.7" style="fill:#9a3bd1"/>
                <path data-name="패스 12047" d="M23.29 10c.713-1.035 1.548-1.189 2.158-.769s.764 1.255.051 2.29a5.09 5.09 0 0 1-2.631 1.458A5.094 5.094 0 0 1 23.292 10" style="fill:#9a3bd1"/>
                <path data-name="패스 12048" d="M22.51 10c-.713-1.035-1.548-1.189-2.158-.769s-.764 1.255-.051 2.29a5.093 5.093 0 0 0 2.632 1.458A5.094 5.094 0 0 0 22.509 10" style="fill:#9a3bd1"/>
                <path data-name="패스 12049" d="M23.321 13.163c.77-1.118 1.672-1.283 2.33-.83s.825 1.355.055 2.473a5.517 5.517 0 0 1-2.843 1.575 5.507 5.507 0 0 1 .458-3.219" style="fill:#9a3bd1"/>
                <path data-name="패스 12050" d="M22.481 13.163c-.77-1.118-1.672-1.283-2.33-.83s-.825 1.355-.055 2.473a5.517 5.517 0 0 0 2.843 1.575 5.507 5.507 0 0 0-.458-3.219" style="fill:#9a3bd1"/>
                <path data-name="패스 12051" d="m22.716 22.159-1.3-1.3a.437.437 0 0 1 .309-.746h2.606a.437.437 0 0 1 .309.746l-1.3 1.3a.436.436 0 0 1-.618 0" style="fill:#a1d438"/>
                <path data-name="패스 12052" d="M23.4 16.5c.916-1.329 1.988-1.528 2.772-.988s.981 1.612.065 2.943-3.381 1.873-3.381 1.873-.371-2.5.544-3.828" style="fill:#9a3bd1"/>
                <path data-name="패스 12053" d="M22.4 16.5c-.916-1.329-1.988-1.528-2.772-.988s-.981 1.612-.065 2.943 3.381 1.873 3.381 1.873.371-2.5-.544-3.828" style="fill:#9a3bd1"/>
                <path data-name="패스 12054" d="m22.716 17.706-1.3-1.3a.437.437 0 0 1 .309-.746h2.606a.437.437 0 0 1 .309.746l-1.3 1.3a.436.436 0 0 1-.618 0" style="fill:#a1d438"/>
                <path data-name="패스 12055" d="m22.716 14.333-1.3-1.3a.437.437 0 0 1 .309-.746h2.606a.437.437 0 0 1 .309.746l-1.3 1.3a.435.435 0 0 1-.618 0" style="fill:#a1d438"/>
                <path data-name="패스 12056" d="m22.716 11-1.3-1.3a.436.436 0 0 1 .309-.745h2.606a.436.436 0 0 1 .309.745l-1.3 1.3a.435.435 0 0 1-.618 0" style="fill:#a1d438"/>
                <path data-name="패스 12057" d="m22.716 8.4-1.3-1.3a.437.437 0 0 1 .309-.746h2.606a.437.437 0 0 1 .309.746l-1.3 1.3a.436.436 0 0 1-.618 0" style="fill:#a1d438"/>
                <path data-name="패스 12058" d="m22.716 5.1-1.3-1.3a.437.437 0 0 1 .309-.746h2.606a.437.437 0 0 1 .309.746l-1.3 1.3a.436.436 0 0 1-.618 0" style="fill:#a1d438"/>
                <path data-name="사각형 2717" transform="translate(22.513 2.549)" style="fill:#a1d438" d="M0 0h.978v44.734H0z"/>
                <path data-name="패스 12059" d="M20.463 17.43c-1.5-.608-2.5-.184-2.859.7s.066 1.886 1.562 2.494 3.854-.292 3.854-.292-1.062-2.291-2.557-2.9" style="fill:#d8a0f2"/>
                <path data-name="패스 12060" d="M25.339 17.43c1.5-.608 2.5-.184 2.859.7s-.066 1.886-1.562 2.494-3.854-.292-3.854-.292 1.062-2.291 2.557-2.9" style="fill:#d8a0f2"/>
                <path data-name="패스 12061" d="M20.856 13.948c-1.257-.51-2.1-.155-2.4.587s.056 1.585 1.313 2.1a5.5 5.5 0 0 0 3.241-.245 5.5 5.5 0 0 0-2.15-2.438" style="fill:#d8a0f2"/>
                <path data-name="패스 12062" d="M24.951 13.948c1.257-.51 2.1-.155 2.4.587s-.056 1.585-1.313 2.1a5.5 5.5 0 0 1-3.241-.245 5.5 5.5 0 0 1 2.15-2.438" style="fill:#d8a0f2"/>
                <path data-name="패스 12063" d="M21 10.725c-1.164-.473-1.946-.142-2.225.544s.051 1.467 1.216 1.94a5.071 5.071 0 0 0 3-.228A5.092 5.092 0 0 0 21 10.724" style="fill:#d8a0f2"/>
                <path data-name="패스 12064" d="M24.8 10.725c1.164-.473 1.946-.142 2.225.544s-.051 1.467-1.216 1.94a5.071 5.071 0 0 1-3-.228 5.092 5.092 0 0 1 1.991-2.257" style="fill:#d8a0f2"/>
                <path data-name="패스 12065" d="M21.179 7.853c-1.056-.429-1.766-.13-2.019.492s.047 1.332 1.1 1.761a4.615 4.615 0 0 0 2.722-.206 4.615 4.615 0 0 0-1.806-2.047" style="fill:#d8a0f2"/>
                <path data-name="패스 12066" d="M24.623 7.853c1.056-.429 1.766-.13 2.019.492s-.047 1.332-1.1 1.761A4.615 4.615 0 0 1 22.82 9.9a4.615 4.615 0 0 1 1.806-2.047" style="fill:#d8a0f2"/>
                <path data-name="패스 12067" d="M21.312 5.273c-.975-.4-1.63-.12-1.863.455s.043 1.229 1.018 1.626a4.267 4.267 0 0 0 2.513-.191 4.264 4.264 0 0 0-1.667-1.891" style="fill:#d8a0f2"/>
                <path data-name="패스 12068" d="M24.49 5.273c.975-.4 1.63-.12 1.863.455s-.043 1.229-1.018 1.626a4.267 4.267 0 0 1-2.513-.191 4.264 4.264 0 0 1 1.667-1.891" style="fill:#d8a0f2"/>
                <path data-name="패스 12069" d="M23.2 1.743c.554-.8 1.2-.924 1.676-.6s.593.974.039 1.779a3.955 3.955 0 0 1-2.044 1.133 3.957 3.957 0 0 1 .329-2.313" style="fill:#9a3bd1"/>
                <path data-name="패스 12070" d="M22.6 1.743c-.554-.8-1.2-.924-1.676-.6s-.593.974-.04 1.779a3.955 3.955 0 0 0 2.044 1.133 3.949 3.949 0 0 0-.328-2.313" style="fill:#9a3bd1"/>
                <path data-name="패스 12071" d="M21.427 2.306c-.9-.367-1.512-.11-1.729.422s.04 1.14.944 1.508a3.953 3.953 0 0 0 2.331-.177 3.954 3.954 0 0 0-1.546-1.753" style="fill:#d8a0f2"/>
                <path data-name="패스 12072" d="M24.375 2.306c.9-.367 1.512-.11 1.729.422s-.04 1.14-.944 1.508a3.953 3.953 0 0 1-2.331-.177 3.954 3.954 0 0 1 1.546-1.753" style="fill:#d8a0f2"/>
                <path data-name="패스 12073" d="M21.749 1.3c-.222-.692 0-1.129.411-1.261s.846.094 1.068.787a2.951 2.951 0 0 1-.263 1.723s-.993-.56-1.215-1.249" style="fill:#d8a0f2"/>
                <path data-name="패스 12074" d="M24.183 1.3c.222-.692 0-1.129-.411-1.261s-.846.09-1.072.783a2.951 2.951 0 0 0 .263 1.723s.993-.556 1.215-1.249" style="fill:#d8a0f2"/>
                <path data-name="패스 12075" d="m16.89 22.928 5.368 5.221a4.3 4.3 0 0 1 1.283 3.065l-5.5-5.5a3.949 3.949 0 0 1-1.156-2.791" style="fill:#a1d438"/>
                <path data-name="패스 12076" d="m31.5 25.584-7.7 7.554a4.3 4.3 0 0 0-1.281 3.062l7.828-7.827a3.946 3.946 0 0 0 1.153-2.789" style="fill:#a1d438"/>
                <path data-name="패스 12077" d="m11.67 30.814 10.347 10.2a4.3 4.3 0 0 1 1.283 3.065L12.826 33.6a3.943 3.943 0 0 1-1.156-2.79" style="fill:#a1d438"/>
                <path data-name="패스 12078" d="m42.143 31.052-9.157 9.011a4.3 4.3 0 0 0-1.286 3.065l9.285-9.285a3.946 3.946 0 0 0 1.155-2.791" style="fill:#6a8e32"/>
                <path data-name="패스 12079" d="m37.337 21.536-4.482 4.335a4.3 4.3 0 0 0-1.283 3.064l4.609-4.609a3.943 3.943 0 0 0 1.156-2.79" style="fill:#6a8e32"/>
                <path data-name="패스 12080" d="m23.379 25.588 7.71 7.562a4.3 4.3 0 0 1 1.283 3.065l-7.837-7.837a3.945 3.945 0 0 1-1.156-2.79" style="fill:#6a8e32"/>
                <path data-name="패스 12081" d="M32.414 4.664c.6-.866 1.3-1 1.807-.643s.639 1.05.043 1.917a4.268 4.268 0 0 1-2.2 1.222 4.266 4.266 0 0 1 .355-2.5" style="fill:#9a3bd1"/>
                <path data-name="패스 12082" d="M31.767 4.664c-.6-.866-1.3-1-1.807-.643s-.639 1.05-.043 1.917a4.268 4.268 0 0 0 2.2 1.222 4.266 4.266 0 0 0-.355-2.5" style="fill:#9a3bd1"/>
                <path data-name="패스 12083" d="M32.441 7.194c.647-.939 1.4-1.079 1.958-.7s.693 1.139.046 2.078A4.612 4.612 0 0 1 32.057 9.9a4.615 4.615 0 0 1 .384-2.7" style="fill:#9a3bd1"/>
                <path data-name="패스 12084" d="M31.739 7.194c-.647-.939-1.4-1.079-1.958-.7s-.693 1.139-.046 2.078A4.612 4.612 0 0 0 32.123 9.9a4.615 4.615 0 0 0-.384-2.7" style="fill:#9a3bd1"/>
                <path data-name="패스 12085" d="M32.476 10c.713-1.035 1.548-1.189 2.158-.769s.764 1.255.051 2.29a5.093 5.093 0 0 1-2.632 1.458A5.094 5.094 0 0 1 32.477 10" style="fill:#9a3bd1"/>
                <path data-name="패스 12086" d="M31.7 10c-.713-1.035-1.548-1.189-2.158-.769s-.764 1.255-.051 2.29a5.093 5.093 0 0 0 2.632 1.458A5.094 5.094 0 0 0 31.7 10" style="fill:#9a3bd1"/>
                <path data-name="패스 12087" d="M32.507 13.163c.77-1.118 1.672-1.283 2.33-.83s.825 1.355.055 2.473a5.517 5.517 0 0 1-2.843 1.575 5.507 5.507 0 0 1 .458-3.219" style="fill:#9a3bd1"/>
                <path data-name="패스 12088" d="M31.672 13.163c-.77-1.118-1.672-1.283-2.33-.83s-.825 1.355-.055 2.473a5.517 5.517 0 0 0 2.843 1.575 5.507 5.507 0 0 0-.458-3.219" style="fill:#9a3bd1"/>
                <path data-name="패스 12089" d="m31.906 22.159-1.3-1.3a.437.437 0 0 1 .309-.746h2.606a.437.437 0 0 1 .309.746l-1.3 1.3a.436.436 0 0 1-.618 0" style="fill:#a1d438"/>
                <path data-name="패스 12090" d="M32.586 16.5c.916-1.329 1.988-1.528 2.772-.988s.981 1.612.065 2.943-3.381 1.873-3.381 1.873-.371-2.5.544-3.828" style="fill:#9a3bd1"/>
                <path data-name="패스 12091" d="M31.592 16.5c-.916-1.329-1.988-1.528-2.772-.988s-.981 1.612-.065 2.943 3.386 1.873 3.386 1.873.371-2.5-.544-3.828" style="fill:#9a3bd1"/>
                <path data-name="패스 12092" d="m31.906 17.706-1.3-1.3a.437.437 0 0 1 .309-.746h2.606a.437.437 0 0 1 .309.746l-1.3 1.3a.436.436 0 0 1-.618 0" style="fill:#a1d438"/>
                <path data-name="패스 12093" d="m31.906 14.333-1.3-1.3a.437.437 0 0 1 .309-.746h2.606a.437.437 0 0 1 .309.746l-1.3 1.3a.435.435 0 0 1-.618 0" style="fill:#a1d438"/>
                <path data-name="패스 12094" d="m31.906 11-1.3-1.3a.436.436 0 0 1 .309-.745h2.606a.436.436 0 0 1 .309.745l-1.3 1.3a.435.435 0 0 1-.618 0" style="fill:#a1d438"/>
                <path data-name="패스 12095" d="m31.906 8.4-1.3-1.3a.437.437 0 0 1 .309-.746h2.606a.437.437 0 0 1 .309.746l-1.3 1.3a.436.436 0 0 1-.618 0" style="fill:#a1d438"/>
                <path data-name="패스 12096" d="m31.906 5.1-1.3-1.3a.437.437 0 0 1 .309-.746h2.606a.437.437 0 0 1 .309.746l-1.3 1.3a.436.436 0 0 1-.618 0" style="fill:#a1d438"/>
                <path data-name="사각형 2718" transform="translate(31.703 2.549)" style="fill:#a1d438" d="M0 0h.978v44.734H0z"/>
                <path data-name="패스 12097" d="M29.653 17.43c-1.5-.608-2.5-.184-2.859.7s.066 1.886 1.562 2.494 3.854-.292 3.854-.292-1.062-2.291-2.557-2.9" style="fill:#d8a0f2"/>
                <path data-name="패스 12098" d="M34.529 17.43c1.5-.608 2.5-.184 2.859.7s-.066 1.886-1.562 2.494-3.854-.292-3.854-.292 1.062-2.291 2.557-2.9" style="fill:#d8a0f2"/>
                <path data-name="패스 12099" d="M30.042 13.948c-1.257-.51-2.1-.155-2.4.587s.056 1.585 1.313 2.1a5.5 5.5 0 0 0 3.241-.245 5.5 5.5 0 0 0-2.15-2.438" style="fill:#d8a0f2"/>
                <path data-name="패스 12100" d="M34.141 13.948c1.257-.51 2.1-.155 2.4.587s-.056 1.585-1.313 2.1a5.5 5.5 0 0 1-3.241-.245 5.5 5.5 0 0 1 2.15-2.438" style="fill:#d8a0f2"/>
                <path data-name="패스 12101" d="M30.194 10.725c-1.164-.473-1.946-.142-2.225.544s.051 1.467 1.216 1.94a5.071 5.071 0 0 0 3-.228 5.092 5.092 0 0 0-1.991-2.257" style="fill:#d8a0f2"/>
                <path data-name="패스 12102" d="M33.99 10.725c1.164-.473 1.947-.142 2.225.544s-.051 1.467-1.216 1.94a5.071 5.071 0 0 1-3-.228 5.092 5.092 0 0 1 1.991-2.257" style="fill:#d8a0f2"/>
                <path data-name="패스 12103" d="M30.37 7.853c-1.056-.429-1.766-.13-2.019.492s.047 1.332 1.1 1.761a4.615 4.615 0 0 0 2.722-.206 4.615 4.615 0 0 0-1.806-2.047" style="fill:#d8a0f2"/>
                <path data-name="패스 12104" d="M33.813 7.853c1.056-.429 1.766-.13 2.019.492s-.047 1.332-1.1 1.761A4.615 4.615 0 0 1 32.01 9.9a4.615 4.615 0 0 1 1.806-2.047" style="fill:#d8a0f2"/>
                <path data-name="패스 12105" d="M30.5 5.273c-.975-.4-1.63-.12-1.863.455s.043 1.229 1.018 1.626a4.267 4.267 0 0 0 2.513-.191A4.264 4.264 0 0 0 30.5 5.272" style="fill:#d8a0f2"/>
                <path data-name="패스 12106" d="M33.681 5.273c.975-.4 1.63-.12 1.864.455s-.045 1.229-1.018 1.626a4.267 4.267 0 0 1-2.513-.191 4.264 4.264 0 0 1 1.667-1.891" style="fill:#d8a0f2"/>
                <path data-name="패스 12107" d="M32.391 1.743c.554-.8 1.2-.924 1.676-.6s.593.974.039 1.779a3.955 3.955 0 0 1-2.044 1.133 3.957 3.957 0 0 1 .329-2.314" style="fill:#9a3bd1"/>
                <path data-name="패스 12108" d="M31.79 1.743c-.554-.8-1.2-.924-1.676-.6s-.593.974-.039 1.779a3.955 3.955 0 0 0 2.044 1.133 3.957 3.957 0 0 0-.329-2.314" style="fill:#9a3bd1"/>
                <path data-name="패스 12109" d="M30.618 2.306c-.9-.367-1.512-.11-1.729.422s.04 1.14.944 1.508a3.953 3.953 0 0 0 2.331-.177 3.954 3.954 0 0 0-1.546-1.753" style="fill:#d8a0f2"/>
                <path data-name="패스 12110" d="M33.566 2.306c.9-.367 1.512-.11 1.729.422s-.04 1.14-.944 1.508a3.953 3.953 0 0 1-2.331-.177 3.954 3.954 0 0 1 1.546-1.753" style="fill:#d8a0f2"/>
                <path data-name="패스 12111" d="M30.939 1.3c-.222-.692 0-1.129.411-1.261s.846.094 1.068.787a2.951 2.951 0 0 1-.263 1.723s-.993-.56-1.215-1.249" style="fill:#d8a0f2"/>
                <path data-name="패스 12112" d="M33.373 1.3c.227-.7 0-1.133-.411-1.265s-.846.094-1.068.787a2.951 2.951 0 0 0 .263 1.723s.993-.556 1.215-1.249" style="fill:#d8a0f2"/>
                <path data-name="패스 12113" d="m26.081 22.928 5.368 5.221a4.3 4.3 0 0 1 1.283 3.065l-5.5-5.5a3.949 3.949 0 0 1-1.156-2.791" style="fill:#a1d438"/>
                <path data-name="패스 12114" d="m40.693 25.584-7.7 7.554A4.3 4.3 0 0 0 31.71 36.2l7.828-7.827a3.946 3.946 0 0 0 1.155-2.791" style="fill:#a1d438"/>
                <path data-name="패스 12115" d="m20.86 30.814 10.347 10.2a4.3 4.3 0 0 1 1.283 3.065L22.016 33.6a3.944 3.944 0 0 1-1.156-2.789" style="fill:#a1d438"/>
                <path data-name="패스 12116" d="M53.255 31.052 44.1 40.063a4.3 4.3 0 0 0-1.283 3.065l9.283-9.285a3.946 3.946 0 0 0 1.155-2.791" style="fill:#6a8e32"/>
                <path data-name="패스 12117" d="m48.449 21.536-4.482 4.335a4.3 4.3 0 0 0-1.283 3.064l4.609-4.609a3.943 3.943 0 0 0 1.156-2.79" style="fill:#6a8e32"/>
                <path data-name="패스 12118" d="M34.491 25.588 42.2 33.15a4.3 4.3 0 0 1 1.283 3.065l-7.837-7.837a3.945 3.945 0 0 1-1.156-2.79" style="fill:#6a8e32"/>
                <path data-name="패스 12119" d="M43.53 4.664c.6-.866 1.3-1 1.807-.643s.64 1.05.043 1.917a4.268 4.268 0 0 1-2.2 1.222 4.266 4.266 0 0 1 .355-2.5" style="fill:#9a3bd1"/>
                <path data-name="패스 12120" d="M42.879 4.664c-.6-.866-1.3-1-1.807-.643s-.64 1.05-.043 1.917a4.268 4.268 0 0 0 2.2 1.222 4.266 4.266 0 0 0-.355-2.5" style="fill:#9a3bd1"/>
                <path data-name="패스 12121" d="M43.557 7.194c.647-.939 1.4-1.079 1.958-.7s.693 1.139.046 2.078A4.612 4.612 0 0 1 43.173 9.9a4.615 4.615 0 0 1 .384-2.7" style="fill:#9a3bd1"/>
                <path data-name="패스 12122" d="M42.851 7.194c-.647-.939-1.4-1.079-1.958-.7s-.693 1.139-.046 2.078A4.612 4.612 0 0 0 43.235 9.9a4.615 4.615 0 0 0-.384-2.7" style="fill:#9a3bd1"/>
                <path data-name="패스 12123" d="M43.592 10c.713-1.035 1.548-1.189 2.158-.769s.764 1.255.051 2.29a5.093 5.093 0 0 1-2.632 1.458A5.094 5.094 0 0 1 43.593 10" style="fill:#9a3bd1"/>
                <path data-name="패스 12124" d="M42.815 10c-.713-1.035-1.548-1.189-2.158-.769s-.764 1.255-.051 2.29a5.093 5.093 0 0 0 2.632 1.458A5.094 5.094 0 0 0 42.814 10" style="fill:#9a3bd1"/>
                <path data-name="패스 12125" d="M43.623 13.163c.77-1.118 1.672-1.283 2.33-.83s.825 1.355.055 2.473a5.517 5.517 0 0 1-2.843 1.575 5.507 5.507 0 0 1 .458-3.219" style="fill:#9a3bd1"/>
                <path data-name="패스 12126" d="M42.782 13.163c-.77-1.118-1.672-1.283-2.33-.83s-.825 1.355-.055 2.473a5.517 5.517 0 0 0 2.843 1.575 5.507 5.507 0 0 0-.458-3.219" style="fill:#9a3bd1"/>
                <path data-name="패스 12127" d="m43.018 22.159-1.3-1.3a.437.437 0 0 1 .309-.746h2.606a.437.437 0 0 1 .309.746l-1.3 1.3a.436.436 0 0 1-.618 0" style="fill:#a1d438"/>
                <path data-name="패스 12128" d="M43.7 16.5c.916-1.329 1.988-1.528 2.772-.988s.981 1.612.065 2.943-3.381 1.873-3.381 1.873-.371-2.5.544-3.828" style="fill:#9a3bd1"/>
                <path data-name="패스 12129" d="M42.7 16.5c-.916-1.329-1.988-1.528-2.772-.988s-.981 1.612-.065 2.943 3.381 1.873 3.381 1.873.371-2.5-.544-3.828" style="fill:#9a3bd1"/>
                <path data-name="패스 12130" d="m43.018 17.706-1.3-1.3a.437.437 0 0 1 .309-.746h2.606a.437.437 0 0 1 .309.746l-1.3 1.3a.436.436 0 0 1-.618 0" style="fill:#a1d438"/>
                <path data-name="패스 12131" d="m43.018 14.333-1.3-1.3a.437.437 0 0 1 .309-.746h2.606a.437.437 0 0 1 .309.746l-1.3 1.3a.435.435 0 0 1-.618 0" style="fill:#a1d438"/>
                <path data-name="패스 12132" d="m43.018 11-1.3-1.3a.436.436 0 0 1 .309-.745h2.606a.436.436 0 0 1 .309.745l-1.3 1.3a.435.435 0 0 1-.618 0" style="fill:#a1d438"/>
                <path data-name="패스 12133" d="m43.018 8.4-1.3-1.3a.437.437 0 0 1 .309-.746h2.606a.437.437 0 0 1 .309.746l-1.3 1.3a.436.436 0 0 1-.618 0" style="fill:#a1d438"/>
                <path data-name="패스 12134" d="m43.018 5.1-1.3-1.3a.437.437 0 0 1 .309-.746h2.606a.437.437 0 0 1 .309.746l-1.3 1.3a.436.436 0 0 1-.618 0" style="fill:#a1d438"/>
                <path data-name="사각형 2719" transform="translate(42.815 2.549)" style="fill:#a1d438" d="M0 0h.978v44.734H0z"/>
                <path data-name="패스 12135" d="M40.765 17.43c-1.5-.608-2.5-.184-2.859.7s.066 1.886 1.562 2.494 3.854-.292 3.854-.292-1.062-2.291-2.557-2.9" style="fill:#d8a0f2"/>
                <path data-name="패스 12136" d="M45.642 17.43c1.5-.608 2.5-.184 2.859.7s-.066 1.886-1.562 2.494-3.854-.292-3.854-.292 1.062-2.291 2.557-2.9" style="fill:#d8a0f2"/>
                <path data-name="패스 12137" d="M41.154 13.948c-1.257-.51-2.1-.155-2.4.587s.056 1.585 1.313 2.1a5.5 5.5 0 0 0 3.241-.245 5.5 5.5 0 0 0-2.15-2.438" style="fill:#d8a0f2"/>
                <path data-name="패스 12138" d="M45.252 13.948c1.257-.51 2.1-.155 2.4.587s-.056 1.585-1.313 2.1a5.5 5.5 0 0 1-3.241-.245 5.5 5.5 0 0 1 2.15-2.438" style="fill:#d8a0f2"/>
                <path data-name="패스 12139" d="M41.306 10.725c-1.164-.473-1.946-.142-2.225.544s.051 1.467 1.216 1.94a5.071 5.071 0 0 0 3-.228 5.092 5.092 0 0 0-1.991-2.257" style="fill:#d8a0f2"/>
                <path data-name="패스 12140" d="M45.1 10.725c1.164-.473 1.947-.142 2.225.544s-.051 1.467-1.216 1.94a5.071 5.071 0 0 1-3-.228 5.092 5.092 0 0 1 1.991-2.257" style="fill:#d8a0f2"/>
                <path data-name="패스 12141" d="M41.482 7.853c-1.056-.429-1.766-.13-2.019.492s.047 1.332 1.1 1.761a4.615 4.615 0 0 0 2.722-.206 4.615 4.615 0 0 0-1.806-2.047" style="fill:#d8a0f2"/>
                <path data-name="패스 12142" d="M44.926 7.853c1.056-.429 1.766-.13 2.019.492s-.047 1.332-1.1 1.761a4.615 4.615 0 0 1-2.722-.206 4.615 4.615 0 0 1 1.806-2.047" style="fill:#d8a0f2"/>
                <path data-name="패스 12143" d="M41.615 5.273c-.975-.4-1.63-.12-1.863.455s.043 1.229 1.018 1.626a4.267 4.267 0 0 0 2.513-.191 4.264 4.264 0 0 0-1.667-1.891" style="fill:#d8a0f2"/>
                <path data-name="패스 12144" d="M44.793 5.273c.975-.4 1.63-.12 1.864.455s-.043 1.229-1.018 1.626a4.267 4.267 0 0 1-2.513-.191 4.264 4.264 0 0 1 1.667-1.891" style="fill:#d8a0f2"/>
                <path data-name="패스 12145" d="M43.506 1.743c.554-.8 1.2-.924 1.676-.6s.593.974.039 1.779a3.955 3.955 0 0 1-2.044 1.133 3.957 3.957 0 0 1 .329-2.314" style="fill:#9a3bd1"/>
                <path data-name="패스 12146" d="M42.9 1.743c-.554-.8-1.2-.924-1.676-.6s-.593.974-.039 1.779a3.955 3.955 0 0 0 2.044 1.133 3.957 3.957 0 0 0-.329-2.313" style="fill:#9a3bd1"/>
                <path data-name="패스 12147" d="M41.73 2.306c-.9-.367-1.512-.11-1.729.422s.04 1.14.944 1.508a3.953 3.953 0 0 0 2.331-.177 3.954 3.954 0 0 0-1.546-1.753" style="fill:#d8a0f2"/>
                <path data-name="패스 12148" d="M44.678 2.306c.9-.367 1.512-.11 1.729.422s-.04 1.14-.944 1.508a3.953 3.953 0 0 1-2.331-.177 3.954 3.954 0 0 1 1.546-1.753" style="fill:#d8a0f2"/>
                <path data-name="패스 12149" d="M42.051 1.3c-.222-.692 0-1.129.411-1.261s.846.094 1.068.787a2.951 2.951 0 0 1-.263 1.723s-.995-.559-1.216-1.249" style="fill:#d8a0f2"/>
                <path data-name="패스 12150" d="M44.485 1.3c.222-.692 0-1.129-.411-1.261s-.846.094-1.068.787a2.951 2.951 0 0 0 .263 1.723s.993-.556 1.215-1.249" style="fill:#d8a0f2"/>
                <path data-name="패스 12151" d="m37.193 22.928 5.368 5.221a4.3 4.3 0 0 1 1.283 3.065l-5.5-5.5a3.949 3.949 0 0 1-1.156-2.791" style="fill:#a1d438"/>
                <path data-name="패스 12152" d="m51.805 25.584-7.7 7.554a4.3 4.3 0 0 0-1.283 3.062l7.828-7.827a3.946 3.946 0 0 0 1.155-2.791" style="fill:#a1d438"/>
                <path data-name="패스 12153" d="m31.972 30.814 10.347 10.2a4.3 4.3 0 0 1 1.281 3.065L33.128 33.6a3.944 3.944 0 0 1-1.156-2.789" style="fill:#a1d438"/>
                <path data-name="패스 12154" d="m63.441 31.052-9.157 9.011A4.3 4.3 0 0 0 53 43.128l9.285-9.285a3.946 3.946 0 0 0 1.155-2.791" style="fill:#6a8e32"/>
                <path data-name="패스 12155" d="m58.635 21.536-4.482 4.335a4.3 4.3 0 0 0-1.282 3.064l4.609-4.609a3.943 3.943 0 0 0 1.156-2.79" style="fill:#6a8e32"/>
                <path data-name="패스 12156" d="m44.677 25.588 7.71 7.562a4.3 4.3 0 0 1 1.283 3.065l-7.839-7.837a3.947 3.947 0 0 1-1.154-2.79" style="fill:#6a8e32"/>
                <path data-name="패스 12157" d="M53.716 4.664c.6-.866 1.3-1 1.807-.643s.639 1.05.043 1.917a4.268 4.268 0 0 1-2.2 1.222 4.266 4.266 0 0 1 .355-2.5" style="fill:#9a3bd1"/>
                <path data-name="패스 12158" d="M53.065 4.664c-.6-.866-1.3-1-1.807-.643s-.64 1.05-.043 1.917a4.268 4.268 0 0 0 2.2 1.222 4.266 4.266 0 0 0-.355-2.5" style="fill:#9a3bd1"/>
                <path data-name="패스 12159" d="M53.743 7.194c.647-.939 1.4-1.079 1.958-.7s.693 1.139.046 2.078A4.612 4.612 0 0 1 53.359 9.9a4.615 4.615 0 0 1 .384-2.7" style="fill:#9a3bd1"/>
                <path data-name="패스 12160" d="M53.037 7.194c-.647-.939-1.4-1.079-1.958-.7s-.693 1.139-.046 2.078A4.612 4.612 0 0 0 53.421 9.9a4.615 4.615 0 0 0-.384-2.7" style="fill:#9a3bd1"/>
                <path data-name="패스 12161" d="M53.779 10c.713-1.035 1.548-1.189 2.157-.769s.764 1.255.051 2.29a5.1 5.1 0 0 1-2.633 1.458A5.094 5.094 0 0 1 53.778 10" style="fill:#9a3bd1"/>
                <path data-name="패스 12162" d="M53 10c-.713-1.035-1.548-1.189-2.158-.769s-.764 1.255-.051 2.29a5.093 5.093 0 0 0 2.632 1.458A5.094 5.094 0 0 0 53 10" style="fill:#9a3bd1"/>
                <path data-name="패스 12163" d="M53.81 13.163c.77-1.118 1.671-1.283 2.33-.83s.825 1.355.055 2.473a5.517 5.517 0 0 1-2.843 1.575 5.5 5.5 0 0 1 .458-3.219" style="fill:#9a3bd1"/>
                <path data-name="패스 12164" d="M52.97 13.163c-.77-1.118-1.672-1.283-2.33-.83s-.825 1.355-.055 2.473a5.517 5.517 0 0 0 2.843 1.575 5.507 5.507 0 0 0-.458-3.219" style="fill:#9a3bd1"/>
                <path data-name="패스 12165" d="m53.2 22.159-1.3-1.3a.437.437 0 0 1 .309-.746h2.606a.437.437 0 0 1 .309.746l-1.3 1.3a.436.436 0 0 1-.618 0" style="fill:#a1d438"/>
                <path data-name="패스 12166" d="M53.889 16.5c.916-1.329 1.988-1.528 2.772-.988s.981 1.612.065 2.943-3.381 1.873-3.381 1.873-.371-2.5.544-3.828" style="fill:#9a3bd1"/>
                <path data-name="패스 12167" d="M52.89 16.5c-.916-1.329-1.988-1.528-2.772-.988s-.981 1.612-.065 2.943 3.381 1.873 3.381 1.873.371-2.5-.544-3.828" style="fill:#9a3bd1"/>
                <path data-name="패스 12168" d="m53.2 17.706-1.3-1.3a.437.437 0 0 1 .309-.746h2.606a.437.437 0 0 1 .309.746l-1.3 1.3a.436.436 0 0 1-.618 0" style="fill:#a1d438"/>
                <path data-name="패스 12169" d="m53.2 14.333-1.3-1.3a.437.437 0 0 1 .309-.746h2.606a.437.437 0 0 1 .309.746l-1.3 1.3a.435.435 0 0 1-.618 0" style="fill:#a1d438"/>
                <path data-name="패스 12170" d="m53.2 11-1.3-1.3a.436.436 0 0 1 .309-.745h2.606a.436.436 0 0 1 .309.745l-1.3 1.3a.435.435 0 0 1-.618 0" style="fill:#a1d438"/>
                <path data-name="패스 12171" d="m53.2 8.4-1.3-1.3a.437.437 0 0 1 .309-.746h2.606a.437.437 0 0 1 .309.746l-1.3 1.3a.436.436 0 0 1-.618 0" style="fill:#a1d438"/>
                <path data-name="패스 12172" d="m53.2 5.1-1.3-1.3a.437.437 0 0 1 .309-.746h2.606a.437.437 0 0 1 .309.746l-1.3 1.3a.436.436 0 0 1-.618 0" style="fill:#a1d438"/>
                <path data-name="사각형 2720" transform="translate(53.001 2.549)" style="fill:#a1d438" d="M0 0h.978v44.734H0z"/>
                <path data-name="패스 12173" d="M50.952 17.43c-1.5-.608-2.5-.184-2.859.7s.066 1.886 1.562 2.494 3.854-.292 3.854-.292-1.062-2.291-2.557-2.9" style="fill:#d8a0f2"/>
                <path data-name="패스 12174" d="M55.827 17.43c1.5-.608 2.5-.184 2.859.7s-.066 1.886-1.562 2.494-3.854-.292-3.854-.292 1.062-2.291 2.557-2.9" style="fill:#d8a0f2"/>
                <path data-name="패스 12175" d="M51.34 13.948c-1.257-.51-2.1-.155-2.4.587s.056 1.585 1.313 2.1a5.5 5.5 0 0 0 3.241-.245 5.5 5.5 0 0 0-2.15-2.438" style="fill:#d8a0f2"/>
                <path data-name="패스 12176" d="M55.435 13.948c1.257-.51 2.1-.155 2.4.587s-.056 1.585-1.313 2.1a5.5 5.5 0 0 1-3.241-.245 5.5 5.5 0 0 1 2.15-2.438" style="fill:#d8a0f2"/>
                <path data-name="패스 12177" d="M51.495 10.725c-1.164-.473-1.947-.142-2.225.544s.051 1.467 1.216 1.94a5.071 5.071 0 0 0 3-.228 5.092 5.092 0 0 0-1.991-2.257" style="fill:#d8a0f2"/>
                <path data-name="패스 12178" d="M55.288 10.725c1.164-.473 1.947-.142 2.225.544s-.051 1.467-1.216 1.94a5.071 5.071 0 0 1-3-.228 5.092 5.092 0 0 1 1.991-2.257" style="fill:#d8a0f2"/>
                <path data-name="패스 12179" d="M51.668 7.853c-1.056-.429-1.766-.13-2.019.492s.047 1.332 1.1 1.761a4.615 4.615 0 0 0 2.722-.206 4.615 4.615 0 0 0-1.806-2.047" style="fill:#d8a0f2"/>
                <path data-name="패스 12180" d="M55.111 7.853c1.056-.429 1.766-.13 2.019.492s-.047 1.332-1.1 1.761a4.615 4.615 0 0 1-2.722-.206 4.615 4.615 0 0 1 1.806-2.047" style="fill:#d8a0f2"/>
                <path data-name="패스 12181" d="M51.8 5.273c-.975-.4-1.63-.12-1.863.455s.043 1.229 1.018 1.626a4.272 4.272 0 0 0 2.512-.191A4.264 4.264 0 0 0 51.8 5.272" style="fill:#d8a0f2"/>
                <path data-name="패스 12182" d="M54.979 5.273c.975-.4 1.63-.12 1.863.455s-.042 1.229-1.018 1.626a4.267 4.267 0 0 1-2.513-.191 4.264 4.264 0 0 1 1.667-1.891" style="fill:#d8a0f2"/>
                <path data-name="패스 12183" d="M53.692 1.743c.554-.8 1.2-.924 1.676-.6s.593.974.039 1.779a3.955 3.955 0 0 1-2.044 1.133 3.957 3.957 0 0 1 .329-2.314" style="fill:#9a3bd1"/>
                <path data-name="패스 12184" d="M53.088 1.743c-.554-.8-1.2-.924-1.676-.6s-.593.974-.039 1.779a3.957 3.957 0 0 0 2.045 1.133 3.957 3.957 0 0 0-.329-2.314" style="fill:#9a3bd1"/>
                <path data-name="패스 12185" d="M51.916 2.306c-.9-.367-1.512-.11-1.729.422s.04 1.14.944 1.508a3.953 3.953 0 0 0 2.331-.177 3.954 3.954 0 0 0-1.546-1.753" style="fill:#d8a0f2"/>
                <path data-name="패스 12186" d="M54.864 2.306c.9-.367 1.512-.11 1.729.422s-.04 1.14-.944 1.508a3.953 3.953 0 0 1-2.331-.177 3.954 3.954 0 0 1 1.546-1.753" style="fill:#d8a0f2"/>
                <path data-name="패스 12187" d="M52.238 1.3c-.222-.692 0-1.129.411-1.261s.845.094 1.067.787a2.951 2.951 0 0 1-.263 1.723s-.993-.56-1.215-1.249" style="fill:#d8a0f2"/>
                <path data-name="패스 12188" d="M54.671 1.3c.222-.692 0-1.129-.411-1.261s-.846.094-1.068.787a2.951 2.951 0 0 0 .263 1.723s.993-.556 1.215-1.249" style="fill:#d8a0f2"/>
                <path data-name="패스 12189" d="m47.379 22.928 5.368 5.221a4.3 4.3 0 0 1 1.283 3.065l-5.5-5.5a3.949 3.949 0 0 1-1.156-2.791" style="fill:#a1d438"/>
                <path data-name="패스 12190" d="m61.991 25.584-7.7 7.554a4.3 4.3 0 0 0-1.283 3.062l7.828-7.827a3.946 3.946 0 0 0 1.155-2.791" style="fill:#a1d438"/>
                <path data-name="패스 12191" d="m42.158 30.814 10.347 10.2a4.3 4.3 0 0 1 1.283 3.065L43.314 33.6a3.944 3.944 0 0 1-1.156-2.789" style="fill:#a1d438"/>
                <path data-name="패스 12192" d="m72.632 31.052-9.157 9.011a4.3 4.3 0 0 0-1.283 3.065l9.285-9.285a3.946 3.946 0 0 0 1.155-2.791" style="fill:#6a8e32"/>
                <path data-name="패스 12193" d="m67.826 21.536-4.482 4.335a4.3 4.3 0 0 0-1.283 3.064l4.609-4.609a3.943 3.943 0 0 0 1.156-2.79" style="fill:#6a8e32"/>
                <path data-name="패스 12194" d="m53.867 25.588 7.71 7.562a4.3 4.3 0 0 1 1.283 3.065l-7.837-7.837a3.945 3.945 0 0 1-1.156-2.79" style="fill:#6a8e32"/>
                <path data-name="패스 12195" d="M62.906 4.664c.6-.866 1.3-1 1.807-.643s.639 1.05.043 1.917a4.268 4.268 0 0 1-2.2 1.222 4.266 4.266 0 0 1 .355-2.5" style="fill:#9a3bd1"/>
                <path data-name="패스 12196" d="M62.255 4.664c-.6-.866-1.3-1-1.807-.643s-.639 1.05-.043 1.917A4.268 4.268 0 0 0 62.6 7.16a4.266 4.266 0 0 0-.355-2.5" style="fill:#9a3bd1"/>
                <path data-name="패스 12197" d="M62.934 7.194c.647-.939 1.4-1.079 1.958-.7s.693 1.139.046 2.078A4.612 4.612 0 0 1 62.55 9.9a4.615 4.615 0 0 1 .384-2.7" style="fill:#9a3bd1"/>
                <path data-name="패스 12198" d="M62.227 7.194c-.647-.939-1.4-1.079-1.958-.7s-.693 1.139-.046 2.078A4.612 4.612 0 0 0 62.611 9.9a4.615 4.615 0 0 0-.384-2.7" style="fill:#9a3bd1"/>
                <path data-name="패스 12199" d="M62.97 10c.713-1.035 1.548-1.189 2.158-.769s.764 1.255.051 2.29a5.093 5.093 0 0 1-2.632 1.458A5.094 5.094 0 0 1 62.971 10" style="fill:#9a3bd1"/>
                <path data-name="패스 12200" d="M62.191 10c-.713-1.035-1.548-1.189-2.158-.769s-.764 1.255-.051 2.29a5.093 5.093 0 0 0 2.632 1.458A5.094 5.094 0 0 0 62.19 10" style="fill:#9a3bd1"/>
                <path data-name="패스 12201" d="M63 13.163c.77-1.118 1.672-1.283 2.33-.83s.825 1.355.055 2.473a5.517 5.517 0 0 1-2.843 1.575A5.507 5.507 0 0 1 63 13.162" style="fill:#9a3bd1"/>
                <path data-name="패스 12202" d="M62.16 13.163c-.77-1.118-1.672-1.283-2.33-.83s-.825 1.355-.055 2.473a5.517 5.517 0 0 0 2.843 1.575 5.507 5.507 0 0 0-.458-3.219" style="fill:#9a3bd1"/>
                <path data-name="패스 12203" d="m62.4 22.159-1.3-1.3a.437.437 0 0 1 .309-.746h2.601a.437.437 0 0 1 .309.746l-1.3 1.3a.436.436 0 0 1-.618 0" style="fill:#a1d438"/>
                <path data-name="패스 12204" d="M63.08 16.5c.916-1.329 1.988-1.528 2.772-.988s.981 1.612.065 2.943-3.381 1.873-3.381 1.873-.371-2.5.544-3.828" style="fill:#9a3bd1"/>
                <path data-name="패스 12205" d="M62.077 16.5c-.916-1.329-1.988-1.528-2.772-.988s-.981 1.612-.065 2.943 3.381 1.873 3.381 1.873.371-2.5-.544-3.828" style="fill:#9a3bd1"/>
                <path data-name="패스 12206" d="m62.4 17.706-1.3-1.3a.437.437 0 0 1 .309-.746h2.601a.437.437 0 0 1 .309.746l-1.3 1.3a.436.436 0 0 1-.618 0" style="fill:#a1d438"/>
                <path data-name="패스 12207" d="m62.4 14.333-1.3-1.3a.437.437 0 0 1 .309-.746h2.601a.437.437 0 0 1 .309.746l-1.3 1.3a.435.435 0 0 1-.618 0" style="fill:#a1d438"/>
                <path data-name="패스 12208" d="m62.4 11-1.3-1.3a.436.436 0 0 1 .309-.745h2.601a.436.436 0 0 1 .309.745l-1.3 1.3a.435.435 0 0 1-.618 0" style="fill:#a1d438"/>
                <path data-name="패스 12209" d="m62.4 8.4-1.3-1.3a.437.437 0 0 1 .309-.746h2.601a.437.437 0 0 1 .309.746l-1.3 1.3a.436.436 0 0 1-.618 0" style="fill:#a1d438"/>
                <path data-name="패스 12210" d="m62.4 5.1-1.3-1.3a.437.437 0 0 1 .309-.746h2.601a.437.437 0 0 1 .309.746l-1.3 1.3a.436.436 0 0 1-.618 0" style="fill:#a1d438"/>
                <path data-name="사각형 2721" transform="translate(62.192 2.549)" style="fill:#a1d438" d="M0 0h.978v44.734H0z"/>
                <path data-name="패스 12211" d="M60.142 17.43c-1.5-.608-2.5-.184-2.859.7s.066 1.886 1.562 2.494 3.854-.292 3.854-.292-1.062-2.291-2.557-2.9" style="fill:#d8a0f2"/>
                <path data-name="패스 12212" d="M65.022 17.43c1.5-.608 2.5-.184 2.859.7s-.066 1.886-1.562 2.494-3.854-.292-3.854-.292 1.062-2.291 2.557-2.9" style="fill:#d8a0f2"/>
                <path data-name="패스 12213" d="M60.53 13.948c-1.257-.51-2.1-.155-2.4.587s.056 1.585 1.313 2.1a5.5 5.5 0 0 0 3.241-.245 5.5 5.5 0 0 0-2.15-2.438" style="fill:#d8a0f2"/>
                <path data-name="패스 12214" d="M64.63 13.948c1.257-.51 2.1-.155 2.4.587s-.056 1.585-1.313 2.1a5.5 5.5 0 0 1-3.241-.245 5.5 5.5 0 0 1 2.15-2.438" style="fill:#d8a0f2"/>
                <path data-name="패스 12215" d="M60.683 10.725c-1.164-.473-1.947-.142-2.225.544s.051 1.467 1.216 1.94a5.071 5.071 0 0 0 3-.228 5.092 5.092 0 0 0-1.991-2.257" style="fill:#d8a0f2"/>
                <path data-name="패스 12216" d="M64.478 10.725c1.164-.473 1.946-.142 2.225.544s-.051 1.467-1.216 1.94a5.071 5.071 0 0 1-3-.228 5.092 5.092 0 0 1 1.991-2.257" style="fill:#d8a0f2"/>
                <path data-name="패스 12217" d="M60.858 7.853c-1.056-.429-1.766-.13-2.019.492s.047 1.332 1.1 1.761a4.615 4.615 0 0 0 2.722-.206 4.615 4.615 0 0 0-1.806-2.047" style="fill:#d8a0f2"/>
                <path data-name="패스 12218" d="M64.3 7.853c1.056-.429 1.766-.13 2.019.492s-.047 1.332-1.1 1.761A4.615 4.615 0 0 1 62.5 9.9a4.615 4.615 0 0 1 1.806-2.047" style="fill:#d8a0f2"/>
                <path data-name="패스 12219" d="M60.991 5.273c-.975-.4-1.63-.12-1.863.455s.043 1.229 1.018 1.626a4.267 4.267 0 0 0 2.513-.191 4.264 4.264 0 0 0-1.667-1.891" style="fill:#d8a0f2"/>
                <path data-name="패스 12220" d="M64.17 5.273c.975-.4 1.63-.12 1.863.455s-.043 1.229-1.018 1.626a4.267 4.267 0 0 1-2.515-.191 4.264 4.264 0 0 1 1.667-1.891" style="fill:#d8a0f2"/>
                <path data-name="패스 12221" d="M62.882 1.743c.554-.8 1.2-.924 1.676-.6s.593.974.039 1.779a3.955 3.955 0 0 1-2.044 1.133 3.957 3.957 0 0 1 .329-2.314" style="fill:#9a3bd1"/>
                <path data-name="패스 12222" d="M62.279 1.743c-.554-.8-1.2-.924-1.676-.6s-.593.974-.039 1.779a3.957 3.957 0 0 0 2.045 1.133 3.957 3.957 0 0 0-.329-2.314" style="fill:#9a3bd1"/>
                <path data-name="패스 12223" d="M61.1 2.306c-.9-.367-1.512-.11-1.729.422s.04 1.14.944 1.508a3.953 3.953 0 0 0 2.331-.177A3.954 3.954 0 0 0 61.1 2.306" style="fill:#d8a0f2"/>
                <path data-name="패스 12224" d="M64.054 2.306c.9-.367 1.512-.11 1.729.422s-.04 1.14-.944 1.508a3.953 3.953 0 0 1-2.331-.177 3.954 3.954 0 0 1 1.546-1.753" style="fill:#d8a0f2"/>
                <path data-name="패스 12225" d="M61.428 1.3c-.222-.692 0-1.129.411-1.261s.846.094 1.068.787a2.951 2.951 0 0 1-.263 1.723s-.993-.556-1.215-1.249" style="fill:#d8a0f2"/>
                <path data-name="패스 12226" d="M63.862 1.3c.222-.692 0-1.129-.411-1.261s-.851.09-1.068.783a2.951 2.951 0 0 0 .263 1.723s.993-.556 1.215-1.249" style="fill:#d8a0f2"/>
                <path data-name="패스 12227" d="m56.569 22.928 5.372 5.223a4.3 4.3 0 0 1 1.283 3.065l-5.5-5.5a3.947 3.947 0 0 1-1.156-2.79" style="fill:#a1d438"/>
                <path data-name="패스 12228" d="m71.181 25.584-7.7 7.554A4.3 4.3 0 0 0 62.2 36.2l7.828-7.827a3.946 3.946 0 0 0 1.155-2.791" style="fill:#a1d438"/>
                <path data-name="패스 12229" d="m51.349 30.814 10.351 10.2a4.3 4.3 0 0 1 1.283 3.065L52.505 33.6a3.944 3.944 0 0 1-1.156-2.789" style="fill:#a1d438"/>
                <path data-name="패스 12230" d="M0 45.5v11.681a2.73 2.73 0 0 0 2.73 2.73h31.13v-1.538h1.592v1.538h1.539v-1.538h1.593v1.538h1.539v-1.538h1.592v1.538h30.558A2.73 2.73 0 0 0 75 57.181V45.5z" style="fill:#fff"/>
            </g>
        </g>
    </g>
</svg>
