<svg xmlns="http://www.w3.org/2000/svg" width="100" height="100" viewBox="0 0 100 100">
    <defs>
        <clipPath id="9tuqm71v2a">
            <path data-name="사각형 2701" style="fill:none" d="M0 0h75.003v31.784H0z"/>
        </clipPath>
    </defs>
    <g data-name="그룹 2504">
        <path data-name="사각형 2607" style="fill:none" d="M0 0h100v100H0z"/>
        <g data-name="그룹 2420">
            <path data-name="사각형 2695" transform="translate(24.079 71.32)" style="fill:#a1d438" d="M0 0h.978v15.836H0z"/>
            <g data-name="그룹 2419">
                <g data-name="그룹 2418" style="clip-path:url(#9tuqm71v2a)" transform="translate(12 68)">
                    <path data-name="패스 11777" d="M15.422 0a3.947 3.947 0 0 1-1.156 2.79l-2.187 2.187a4.3 4.3 0 0 1 1.283-3.065L15.417 0" style="fill:#a1d438"/>
                    <path data-name="패스 11778" d="m17.755 2.647-4.387 4.24a4.3 4.3 0 0 0-1.283 3.065L16.6 5.437a3.946 3.946 0 0 0 1.155-2.79" style="fill:#a1d438"/>
                    <path data-name="패스 11779" d="m9.719 0 2.055 1.908a4.3 4.3 0 0 1 1.283 3.065L10.87 2.79A3.947 3.947 0 0 1 9.714 0" style="fill:#a1d438"/>
                    <path data-name="패스 11780" d="m8.536 5.437 4.515 4.515a4.3 4.3 0 0 0-1.283-3.065l-4.387-4.24a3.946 3.946 0 0 0 1.155 2.79" style="fill:#a1d438"/>
                    <path data-name="패스 11781" d="m21.062 4.643-7.7 7.553a4.3 4.3 0 0 0-1.283 3.065l7.828-7.828a3.946 3.946 0 0 0 1.155-2.79" style="fill:#a1d438"/>
                    <path data-name="패스 11782" d="m5.229 7.433 7.828 7.828a4.3 4.3 0 0 0-1.283-3.061l-7.7-7.553a3.946 3.946 0 0 0 1.155 2.79" style="fill:#a1d438"/>
                    <path data-name="사각형 2696" transform="translate(22.265 3.32)" style="fill:#a1d438" d="M0 0h.978v15.837H0z"/>
                    <path data-name="패스 11783" d="M25.608 0a3.947 3.947 0 0 1-1.156 2.79l-2.187 2.187a4.3 4.3 0 0 1 1.283-3.065L25.6 0" style="fill:#a1d438"/>
                    <path data-name="패스 11784" d="m27.941 2.647-4.387 4.24a4.3 4.3 0 0 0-1.283 3.065l4.515-4.515a3.946 3.946 0 0 0 1.155-2.79" style="fill:#a1d438"/>
                    <path data-name="패스 11785" d="m19.905 0 2.055 1.912a4.3 4.3 0 0 1 1.283 3.065L21.056 2.79A3.947 3.947 0 0 1 19.9 0" style="fill:#a1d438"/>
                    <path data-name="패스 11786" d="m18.722 5.437 4.515 4.515a4.3 4.3 0 0 0-1.283-3.065l-4.387-4.24a3.946 3.946 0 0 0 1.155 2.79" style="fill:#a1d438"/>
                    <path data-name="패스 11787" d="m31.248 4.643-7.7 7.553a4.3 4.3 0 0 0-1.283 3.065l7.828-7.828a3.946 3.946 0 0 0 1.155-2.79" style="fill:#a1d438"/>
                    <path data-name="패스 11788" d="m15.415 7.433 7.828 7.828A4.3 4.3 0 0 0 21.96 12.2l-7.7-7.553a3.946 3.946 0 0 0 1.155 2.79" style="fill:#a1d438"/>
                    <path data-name="사각형 2697" transform="translate(31.455 3.32)" style="fill:#a1d438" d="M0 0h.978v15.837H0z"/>
                    <path data-name="패스 11789" d="M34.8 0a3.947 3.947 0 0 1-1.156 2.79l-2.189 2.187a4.3 4.3 0 0 1 1.283-3.065L34.793 0" style="fill:#a1d438"/>
                    <path data-name="패스 11790" d="m37.131 2.647-4.387 4.24a4.3 4.3 0 0 0-1.283 3.065l4.515-4.515a3.946 3.946 0 0 0 1.155-2.79" style="fill:#a1d438"/>
                    <path data-name="패스 11791" d="m29.095 0 2.055 1.912a4.3 4.3 0 0 1 1.283 3.065L30.246 2.79A3.947 3.947 0 0 1 29.09 0" style="fill:#a1d438"/>
                    <path data-name="패스 11792" d="m27.912 5.437 4.515 4.515a4.3 4.3 0 0 0-1.283-3.065l-4.387-4.24a3.946 3.946 0 0 0 1.155 2.79" style="fill:#a1d438"/>
                    <path data-name="패스 11793" d="m40.438 4.643-7.7 7.553a4.3 4.3 0 0 0-1.283 3.065l7.828-7.828a3.946 3.946 0 0 0 1.155-2.79" style="fill:#a1d438"/>
                    <path data-name="패스 11794" d="m24.6 7.433 7.828 7.828A4.3 4.3 0 0 0 31.15 12.2l-7.7-7.553a3.946 3.946 0 0 0 1.15 2.786" style="fill:#a1d438"/>
                    <path data-name="사각형 2698" transform="translate(42.576 3.32)" style="fill:#a1d438" d="M0 0h.978v15.837H0z"/>
                    <path data-name="패스 11795" d="M45.919 0a3.947 3.947 0 0 1-1.156 2.79l-2.187 2.187a4.3 4.3 0 0 1 1.283-3.065L45.914 0" style="fill:#a1d438"/>
                    <path data-name="패스 11796" d="m48.252 2.647-4.387 4.24a4.3 4.3 0 0 0-1.283 3.065L47.1 5.437a3.946 3.946 0 0 0 1.155-2.79" style="fill:#a1d438"/>
                    <path data-name="패스 11797" d="m40.216 0 2.055 1.908a4.3 4.3 0 0 1 1.283 3.065L41.367 2.79A3.947 3.947 0 0 1 40.211 0" style="fill:#a1d438"/>
                    <path data-name="패스 11798" d="m39.033 5.437 4.515 4.515a4.3 4.3 0 0 0-1.283-3.065l-4.387-4.24a3.946 3.946 0 0 0 1.155 2.79" style="fill:#a1d438"/>
                    <path data-name="패스 11799" d="m51.559 4.643-7.7 7.553a4.3 4.3 0 0 0-1.283 3.065L50.4 7.433a3.946 3.946 0 0 0 1.155-2.79" style="fill:#a1d438"/>
                    <path data-name="패스 11800" d="m35.726 7.433 7.828 7.828a4.3 4.3 0 0 0-1.283-3.061l-7.7-7.553a3.946 3.946 0 0 0 1.155 2.79" style="fill:#a1d438"/>
                    <path data-name="사각형 2699" transform="translate(52.762 3.32)" style="fill:#a1d438" d="M0 0h.978v15.837H0z"/>
                    <path data-name="패스 11801" d="M56.1 0a3.947 3.947 0 0 1-1.156 2.79l-2.182 2.187a4.3 4.3 0 0 1 1.283-3.065L56.1 0" style="fill:#a1d438"/>
                    <path data-name="패스 11802" d="m58.438 2.647-4.387 4.24a4.3 4.3 0 0 0-1.283 3.065l4.515-4.515a3.946 3.946 0 0 0 1.155-2.79" style="fill:#a1d438"/>
                    <path data-name="패스 11803" d="m50.4 0 2.055 1.908a4.3 4.3 0 0 1 1.285 3.069L51.553 2.79A3.947 3.947 0 0 1 50.4 0" style="fill:#a1d438"/>
                    <path data-name="패스 11804" d="m49.219 5.437 4.515 4.515a4.3 4.3 0 0 0-1.283-3.065l-4.387-4.24a3.946 3.946 0 0 0 1.155 2.79" style="fill:#a1d438"/>
                    <path data-name="패스 11805" d="m61.745 4.643-7.7 7.553a4.3 4.3 0 0 0-1.283 3.065l7.828-7.828a3.946 3.946 0 0 0 1.155-2.79" style="fill:#a1d438"/>
                    <path data-name="패스 11806" d="m45.912 7.433 7.828 7.828a4.3 4.3 0 0 0-1.283-3.061l-7.7-7.553a3.946 3.946 0 0 0 1.155 2.79" style="fill:#a1d438"/>
                    <path data-name="사각형 2700" transform="translate(61.952 3.32)" style="fill:#a1d438" d="M0 0h.978v15.837H0z"/>
                    <path data-name="패스 11807" d="M65.295 0a3.947 3.947 0 0 1-1.156 2.79l-2.187 2.187a4.3 4.3 0 0 1 1.283-3.065L65.29 0" style="fill:#a1d438"/>
                    <path data-name="패스 11808" d="m67.628 2.647-4.387 4.24a4.3 4.3 0 0 0-1.283 3.065l4.515-4.515a3.946 3.946 0 0 0 1.155-2.79" style="fill:#a1d438"/>
                    <path data-name="패스 11809" d="m59.592 0 2.055 1.908a4.3 4.3 0 0 1 1.283 3.069L60.743 2.79A3.947 3.947 0 0 1 59.587 0" style="fill:#a1d438"/>
                    <path data-name="패스 11810" d="m58.409 5.437 4.515 4.515a4.3 4.3 0 0 0-1.283-3.065l-4.387-4.24a3.946 3.946 0 0 0 1.155 2.79" style="fill:#a1d438"/>
                    <path data-name="패스 11811" d="m70.935 4.643-7.7 7.553a4.3 4.3 0 0 0-1.283 3.065l7.828-7.828a3.946 3.946 0 0 0 1.155-2.79" style="fill:#a1d438"/>
                    <path data-name="패스 11812" d="m55.1 7.433 7.828 7.828a4.3 4.3 0 0 0-1.281-3.061l-7.7-7.553A3.946 3.946 0 0 0 55.1 7.433" style="fill:#a1d438"/>
                    <path data-name="패스 11813" d="M0 17.371v11.683a2.73 2.73 0 0 0 2.73 2.73h31.13v-1.538h1.592v1.538h1.539v-1.538h1.593v1.538h1.539v-1.538h1.592v1.538h30.558A2.73 2.73 0 0 0 75 29.054V17.371z" style="fill:#fff"/>
                </g>
            </g>
        </g>
    </g>
</svg>
