<svg xmlns="http://www.w3.org/2000/svg" width="100" height="100" viewBox="0 0 100 100">
    <defs>
        <clipPath id="enepox4yka">
            <path data-name="사각형 2762" style="fill:none" d="M0 0h51.371v87.877H0z"/>
        </clipPath>
    </defs>
    <g data-name="그룹 2497">
        <path data-name="사각형 2611" style="fill:none" d="M0 0h100v100H0z"/>
        <g data-name="그룹 2443">
            <g data-name="그룹 2442" style="clip-path:url(#enepox4yka)" transform="translate(24 12)">
                <path data-name="패스 12967" d="M22.912 55.77a5.1 5.1 0 0 0-4.078-4.275l.251-.967a6.124 6.124 0 0 1 4.8 5.009z" style="fill:#418c48"/>
                <path data-name="패스 12968" d="M16.3 52.089c2.228.511 3.359-.211 3.623-1.362l-8.068-1.85s2.217 2.7 4.445 3.212" style="fill:#418c48"/>
                <path data-name="패스 12969" d="M17.254 47.923c-2.228-.511-5.4.954-5.4.954l8.068 1.851c.264-1.15-.439-2.293-2.667-2.8" style="fill:#91d09f"/>
                <path data-name="패스 12970" d="m30.577 55.77-.973-.233a6.124 6.124 0 0 1 4.8-5.009l.251.967a5.1 5.1 0 0 0-4.077 4.275" style="fill:#418c48"/>
                <path data-name="패스 12971" d="M37.19 52.089c-2.228.511-3.359-.211-3.623-1.362l8.068-1.85s-2.217 2.7-4.445 3.212" style="fill:#418c48"/>
                <path data-name="패스 12972" d="M36.235 47.923c2.228-.511 5.4.954 5.4.954l-8.068 1.851c-.264-1.15.439-2.293 2.667-2.8" style="fill:#91d09f"/>
                <path data-name="패스 12973" d="M20.494 46.4a17.745 17.745 0 0 0-13.341-5.42l-.088-1a18.413 18.413 0 0 1 14.159 5.732z" style="fill:#418c48"/>
                <path data-name="패스 12974" d="M26.744 37.153c-.591 0-2.391 0-5.22-12.753-1.458-6.572-2.558-13.883-2.558-17.007h1c0 3.01 1.113 10.386 2.534 16.791 2.178 9.816 3.8 11.969 4.244 11.969S28.81 34 30.989 24.184c1.421-6.4 2.535-13.78 2.535-16.791h1c0 3.123-1.1 10.435-2.558 17.007-2.829 12.753-4.629 12.753-5.221 12.753" style="fill:#418c48"/>
                <path data-name="패스 12975" d="M26.744 37.153c-7.262 0-11.707-10.735-11.707-16.58h1a21.2 21.2 0 0 0 3 10.051c1.239 2.065 3.888 5.529 7.7 5.529s6.464-3.464 7.7-5.529a21.2 21.2 0 0 0 3-10.051h1c0 5.845-4.445 16.58-11.707 16.58" style="fill:#418c48"/>
                <path data-name="사각형 2758" transform="translate(26.244 16.95)" style="fill:#418c48" d="M0 0h1v52.529H0z"/>
                <path data-name="패스 12976" d="M28.448 11.916c0 1.521-.411 5.034-1.7 5.034s-1.7-3.512-1.7-5.034.776-1.559 1.7-1.559 1.7.038 1.7 1.559" style="fill:#fff"/>
                <path data-name="패스 12977" d="M31.676 14.891c-1.517.122-4.985.814-4.881 2.1s3.638 1.417 5.154 1.3 1.492-.9 1.418-1.823-.174-1.7-1.691-1.573" style="fill:#fff"/>
                <path data-name="패스 12978" d="M21.813 14.891c1.516.122 4.985.814 4.881 2.1s-3.638 1.417-5.154 1.3-1.492-.9-1.418-1.823.174-1.7 1.691-1.573" style="fill:#fff"/>
                <path data-name="패스 12979" d="M31.047 21.161c-.777-1.308-2.923-4.119-4.034-3.46s.327 3.89 1.1 5.2 1.463.945 2.261.472 1.446-.9.67-2.21" style="fill:#fff"/>
                <path data-name="패스 12980" d="M22.521 21.161c.776-1.308 2.922-4.119 4.034-3.46s-.327 3.89-1.1 5.2-1.464.945-2.261.472-1.446-.9-.669-2.21" style="fill:#fff"/>
                <path data-name="패스 12981" d="M28.017 16.951a1.273 1.273 0 1 1-1.273-1.273 1.273 1.273 0 0 1 1.272 1.273" style="fill:#fff"/>
                <path data-name="패스 12982" d="M27.546 16.948a.8.8 0 1 1-.8-.8.8.8 0 0 1 .8.8" style="fill:#fce09c"/>
                <path data-name="패스 12983" d="M16.726 15.539c0 1.522-.411 5.034-1.7 5.034s-1.7-3.512-1.7-5.034.776-1.559 1.7-1.559 1.7.038 1.7 1.559" style="fill:#fff"/>
                <path data-name="패스 12984" d="M19.954 18.514c-1.516.122-4.985.813-4.881 2.1s3.638 1.417 5.154 1.3 1.492-.9 1.418-1.823-.175-1.7-1.691-1.574" style="fill:#fff"/>
                <path data-name="패스 12985" d="M10.092 18.514c1.516.122 4.985.813 4.881 2.1s-3.638 1.417-5.154 1.3-1.492-.9-1.418-1.823.174-1.7 1.691-1.574" style="fill:#fff"/>
                <path data-name="패스 12986" d="M19.326 24.784c-.776-1.309-2.922-4.119-4.034-3.46s.327 3.89 1.1 5.2 1.463.945 2.261.472 1.446-.9.669-2.21" style="fill:#fff"/>
                <path data-name="패스 12987" d="M10.8 24.784c.777-1.309 2.922-4.119 4.034-3.46s-.327 3.89-1.1 5.2-1.463.945-2.261.472-1.446-.9-.67-2.21" style="fill:#fff"/>
                <path data-name="패스 12988" d="M16.3 20.573a1.273 1.273 0 1 1-1.277-1.273 1.273 1.273 0 0 1 1.277 1.273" style="fill:#fff"/>
                <path data-name="패스 12989" d="M15.824 20.573a.8.8 0 1 1-.8-.8.8.8 0 0 1 .8.8" style="fill:#fce09c"/>
                <path data-name="패스 12990" d="M40.043 15.539c0 1.522-.411 5.034-1.7 5.034s-1.7-3.512-1.7-5.034.776-1.559 1.7-1.559 1.7.038 1.7 1.559" style="fill:#fff"/>
                <path data-name="패스 12991" d="M43.271 18.514c-1.516.122-4.985.813-4.881 2.1s3.638 1.417 5.154 1.3 1.492-.9 1.418-1.823-.174-1.7-1.691-1.574" style="fill:#fff"/>
                <path data-name="패스 12992" d="M33.408 18.514c1.516.122 4.985.813 4.882 2.1s-3.638 1.417-5.155 1.3-1.492-.9-1.418-1.823.175-1.7 1.691-1.574" style="fill:#fff"/>
                <path data-name="패스 12993" d="M42.642 24.784c-.776-1.309-2.922-4.119-4.034-3.46s.327 3.89 1.1 5.2 1.463.945 2.261.472 1.446-.9.67-2.21" style="fill:#fff"/>
                <path data-name="패스 12994" d="M34.116 24.784c.776-1.309 2.922-4.119 4.034-3.46s-.327 3.89-1.1 5.2-1.464.945-2.261.472-1.446-.9-.67-2.21" style="fill:#fff"/>
                <path data-name="패스 12995" d="M39.612 20.573A1.273 1.273 0 1 1 38.34 19.3a1.273 1.273 0 0 1 1.272 1.276" style="fill:#fff"/>
                <path data-name="패스 12996" d="M39.14 20.573a.8.8 0 1 1-.8-.8.8.8 0 0 1 .8.8" style="fill:#fce09c"/>
                <path data-name="패스 12997" d="M20.779 1.558c0 1.521-.411 5.034-1.7 5.034s-1.7-3.512-1.7-5.034S18.149 0 19.075 0s1.7.038 1.7 1.559" style="fill:#fff"/>
                <path data-name="패스 12998" d="M24.007 4.533c-1.516.122-4.985.813-4.881 2.1s3.638 1.417 5.154 1.3 1.492-.9 1.418-1.823-.174-1.7-1.691-1.573" style="fill:#fff"/>
                <path data-name="패스 12999" d="M14.144 4.533c1.516.122 4.985.813 4.881 2.1s-3.638 1.417-5.154 1.3-1.492-.9-1.418-1.823.174-1.7 1.691-1.573" style="fill:#fff"/>
                <path data-name="패스 13000" d="M23.379 10.8c-.777-1.308-2.922-4.119-4.034-3.46s.326 3.89 1.1 5.2 1.463.945 2.261.472 1.445-.9.669-2.21" style="fill:#fff"/>
                <path data-name="패스 13001" d="M14.853 10.8c.776-1.308 2.922-4.119 4.033-3.46s-.326 3.89-1.1 5.2-1.463.945-2.261.472-1.446-.9-.669-2.21" style="fill:#fff"/>
                <path data-name="패스 13002" d="M20.348 6.591a1.273 1.273 0 1 1-1.274-1.272 1.274 1.274 0 0 1 1.272 1.272" style="fill:#fff"/>
                <path data-name="패스 13003" d="M19.877 6.591a.8.8 0 1 1-.8-.8.8.8 0 0 1 .8.8" style="fill:#fce09c"/>
                <path data-name="패스 13004" d="M35.9 1.558c0 1.521-.411 5.034-1.7 5.034s-1.7-3.512-1.7-5.034S33.268 0 34.194 0s1.7.038 1.7 1.559" style="fill:#fff"/>
                <path data-name="패스 13005" d="M39.126 4.533c-1.517.122-4.985.813-4.882 2.1s3.638 1.417 5.154 1.3 1.492-.9 1.418-1.823-.174-1.7-1.691-1.573" style="fill:#fff"/>
                <path data-name="패스 13006" d="M29.263 4.533c1.516.122 4.985.813 4.881 2.1s-3.638 1.417-5.154 1.3-1.492-.9-1.418-1.823.174-1.7 1.691-1.573" style="fill:#fff"/>
                <path data-name="패스 13007" d="M38.5 10.8c-.776-1.308-2.922-4.119-4.034-3.46s.327 3.89 1.1 5.2 1.464.945 2.261.472 1.446-.9.669-2.21" style="fill:#fff"/>
                <path data-name="패스 13008" d="M29.971 10.8c.776-1.308 2.922-4.119 4.034-3.46s-.327 3.89-1.1 5.2-1.464.945-2.261.472-1.446-.9-.669-2.21" style="fill:#fff"/>
                <path data-name="패스 13009" d="M35.467 6.591a1.273 1.273 0 1 1-1.274-1.272 1.274 1.274 0 0 1 1.272 1.272" style="fill:#fff"/>
                <path data-name="패스 13010" d="M34.995 6.591a.8.8 0 1 1-.8-.8.8.8 0 0 1 .8.8" style="fill:#fce09c"/>
                <path data-name="패스 13011" d="M27.476 36.1c.9.668 2.781 2.453 2.214 3.214s-2.815-.54-3.71-1.208-.576-1.142-.169-1.687.771-.986 1.666-.318" style="fill:#fff"/>
                <path data-name="패스 13012" d="M30.644 35.509c-.595.946-1.711 3.29-.908 3.8s2.432-1.518 3.026-2.464.126-1.273-.45-1.635-1.074-.642-1.668.3" style="fill:#fff"/>
                <path data-name="패스 13013" d="M26.312 41.313c.738-.839 2.668-2.576 3.38-1.95s-.764 2.763-1.5 3.6-1.184.484-1.7.034-.921-.847-.183-1.686" style="fill:#fff"/>
                <path data-name="패스 13014" d="M34.057 38.634c-1.111-.118-3.707-.09-3.808.854s2.433 1.512 3.543 1.634 1.2-.446 1.271-1.123.1-1.247-1.007-1.365" style="fill:#fff"/>
                <path data-name="패스 13015" d="M30.313 43.65c-.429-1.031-1.14-3.529-.264-3.893s2.146 1.9 2.575 2.932-.087 1.277-.715 1.538-1.166.454-1.6-.577" style="fill:#fff"/>
                <path data-name="패스 13016" d="M30.248 38.566a.935.935 0 1 1-1.308.191.936.936 0 0 1 1.308-.19" style="fill:#fff"/>
                <path data-name="패스 13017" d="M30.036 38.844a.588.588 0 1 1-.823.119.588.588 0 0 1 .823-.119z" style="fill:#fce09c"/>
                <path data-name="패스 13018" d="M33.5 27.733c.641.915 1.875 3.2 1.1 3.744s-2.505-1.393-3.146-2.308-.191-1.264.367-1.656 1.04-.7 1.681.219" style="fill:#fff"/>
                <path data-name="패스 13019" d="m32.994 46.4-.729-.683a18.409 18.409 0 0 1 14.159-5.732l-.088 1A17.718 17.718 0 0 0 32.995 46.4" style="fill:#418c48"/>
                <path data-name="패스 13020" d="M30.262 60.711h-1a36.846 36.846 0 0 1 16.431-31.117l.5.867a35.831 35.831 0 0 0-15.929 30.25" style="fill:#418c48"/>
                <path data-name="패스 13021" d="M36.693 28.161c-.86.712-2.654 2.59-2.048 3.321s2.785-.682 3.645-1.4.518-1.169.084-1.694-.82-.945-1.68-.233" style="fill:#fff"/>
                <path data-name="패스 13022" d="M30.764 32.319c.963-.566 3.34-1.613 3.82-.8s-1.589 2.385-2.552 2.951-1.276.089-1.621-.5-.61-1.093.353-1.659" style="fill:#fff"/>
                <path data-name="패스 13023" d="M38.959 32.195c-1.019-.459-3.494-1.244-3.884-.379s1.837 2.2 2.855 2.66 1.278-.049 1.558-.67.489-1.151-.53-1.611" style="fill:#fff"/>
                <path data-name="패스 13024" d="M33.833 35.79c-.085-1.114.02-3.708.966-3.781s1.443 2.477 1.529 3.59-.481 1.185-1.16 1.237-1.25.067-1.334-1.047" style="fill:#fff"/>
                <path data-name="패스 13025" d="M35.362 30.942a.934.934 0 1 1-1.3-.227.935.935 0 0 1 1.3.228" style="fill:#fff"/>
                <path data-name="패스 13026" d="M35.078 31.14a.588.588 0 1 1-.819-.14.588.588 0 0 1 .819.144" style="fill:#fce09c"/>
                <path data-name="패스 13027" d="M38.354 34.462c.841.734 2.586 2.658 1.962 3.373s-2.766-.754-3.607-1.488-.488-1.182-.04-1.7.844-.924 1.686-.189" style="fill:#fff"/>
                <path data-name="패스 13028" d="M41.558 34.114c-.665.9-1.957 3.151-1.194 3.715S42.9 36.5 43.569 35.6s.223-1.259-.324-1.665-1.022-.722-1.687.176" style="fill:#fff"/>
                <path data-name="패스 13029" d="M36.8 39.57c.8-.78 2.857-2.365 3.519-1.686s-.972 2.7-1.772 3.477-1.217.392-1.693-.1-.853-.915-.054-1.7" style="fill:#fff"/>
                <path data-name="패스 13030" d="M44.723 37.488c-1.1-.2-3.69-.372-3.862.561s2.311 1.7 3.409 1.9 1.229-.354 1.353-1.024.2-1.234-.9-1.437" style="fill:#fff"/>
                <path data-name="패스 13031" d="M40.607 42.206c-.349-1.061-.868-3.606.034-3.9s1.994 2.06 2.343 3.12-.184 1.266-.831 1.479-1.2.364-1.546-.7" style="fill:#fff"/>
                <path data-name="패스 13032" d="M40.931 37.132a.934.934 0 1 1-1.318.09.934.934 0 0 1 1.318-.09z" style="fill:#fff"/>
                <path data-name="패스 13033" d="M40.7 37.393a.588.588 0 1 1-.83.056.589.589 0 0 1 .83-.056" style="fill:#fce09c"/>
                <path data-name="패스 13034" d="M45.98 36.6c.465 1.016 1.263 3.487.4 3.882s-2.211-1.822-2.676-2.841.042-1.278.661-1.562 1.149-.495 1.614.521" style="fill:#fff"/>
                <path data-name="패스 13035" d="M49.044 37.6c-.975.544-3.08 2.066-2.617 2.894s2.862-.166 3.837-.71.721-1.056.389-1.65-.634-1.078-1.609-.534" style="fill:#fff"/>
                <path data-name="패스 13036" d="M42.459 40.61c1.05-.382 3.577-.979 3.9-.088s-2 2.057-3.046 2.439-1.271-.145-1.5-.785-.4-1.185.648-1.567" style="fill:#fff"/>
                <path data-name="패스 13037" d="M50.543 41.976c-.918-.637-3.21-1.858-3.751-1.078s1.407 2.5 2.325 3.134 1.266.184 1.654-.375.69-1.044-.228-1.68" style="fill:#fff"/>
                <path data-name="패스 13038" d="M44.846 44.581c.118-1.111.693-3.644 1.636-3.542s.97 2.7.852 3.808-.688 1.078-1.366 1.006-1.241-.161-1.122-1.271" style="fill:#fff"/>
                <path data-name="패스 13039" d="M47.23 40.09a.934.934 0 1 1-1.238-.461.935.935 0 0 1 1.238.461" style="fill:#fff"/>
                <path data-name="패스 13040" d="M46.915 40.234a.588.588 0 1 1-.779-.29.588.588 0 0 1 .779.29" style="fill:#fce09c"/>
                <path data-name="패스 13041" d="M43.144 27.308c1.008.48 3.207 1.862 2.8 2.719s-2.867.02-3.875-.46-.788-1.007-.5-1.622.564-1.118 1.572-.637" style="fill:#fff"/>
                <path data-name="패스 13042" d="M46.136 26.108c-.4 1.044-1.035 3.561-.148 3.9s2.088-1.964 2.486-3.008-.125-1.273-.761-1.516-1.179-.42-1.577.623" style="fill:#fff"/>
                <path data-name="패스 13043" d="M43.02 32.645c.56-.967 2.113-3.047 2.935-2.572s-.21 2.859-.77 3.826-1.067.705-1.656.364-1.069-.651-.509-1.618" style="fill:#fff"/>
                <path data-name="패스 13044" d="M50.094 28.5c-1.112.1-3.654.636-3.568 1.581s2.682 1.019 3.795.919 1.089-.672 1.027-1.35-.142-1.25-1.254-1.15" style="fill:#fff"/>
                <path data-name="패스 13045" d="M47.4 34.157c-.622-.928-1.808-3.238-1.02-3.767s2.475 1.445 3.1 2.373.164 1.269-.4 1.647-1.055.674-1.677-.254" style="fill:#fff"/>
                <path data-name="패스 13046" d="M46.345 29.184a.934.934 0 1 1-1.246.442.933.933 0 0 1 1.246-.442z" style="fill:#fff"/>
                <path data-name="패스 13047" d="M24.227 60.711h-1A35.832 35.832 0 0 0 7.3 30.461l.5-.867a36.845 36.845 0 0 1 16.43 31.117" style="fill:#418c48"/>
                <path data-name="패스 13048" d="M46.2 29.5a.588.588 0 1 1-.784.278.589.589 0 0 1 .784-.278" style="fill:#fce09c"/>
                <path data-name="패스 13049" d="M26.014 36.1c-.9.668-2.782 2.453-2.214 3.214s2.815-.54 3.71-1.208.576-1.142.169-1.687-.771-.986-1.666-.318" style="fill:#fff"/>
                <path data-name="패스 13050" d="M22.846 35.509c.594.946 1.711 3.29.908 3.8s-2.432-1.518-3.026-2.464-.126-1.273.45-1.635 1.074-.642 1.668.3" style="fill:#fff"/>
                <path data-name="패스 13051" d="M27.178 41.313c-.738-.839-2.668-2.576-3.381-1.95s.764 2.763 1.5 3.6 1.184.484 1.7.034.921-.847.183-1.686" style="fill:#fff"/>
                <path data-name="패스 13052" d="M19.432 38.634c1.111-.118 3.707-.09 3.808.854S20.807 41 19.7 41.122s-1.2-.446-1.27-1.123-.1-1.247 1.006-1.365" style="fill:#fff"/>
                <path data-name="패스 13053" d="M23.178 43.65c.429-1.031 1.141-3.529.265-3.893s-2.146 1.9-2.575 2.932.087 1.277.715 1.538 1.166.454 1.595-.577" style="fill:#fff"/>
                <path data-name="패스 13054" d="M23.24 38.566a.935.935 0 1 0 1.308.191.936.936 0 0 0-1.308-.19" style="fill:#fff"/>
                <path data-name="패스 13055" d="M23.448 38.844a.588.588 0 1 0 .823.119.588.588 0 0 0-.823-.119z" style="fill:#fce09c"/>
                <path data-name="패스 13056" d="M19.994 27.733c-.642.915-1.875 3.2-1.1 3.744s2.5-1.393 3.146-2.308.191-1.264-.367-1.656-1.04-.7-1.681.219" style="fill:#fff"/>
                <path data-name="패스 13057" d="M16.8 28.161c.861.712 2.654 2.59 2.049 3.321s-2.784-.682-3.644-1.4-.519-1.169-.084-1.694.819-.945 1.68-.233" style="fill:#fff"/>
                <path data-name="패스 13058" d="M22.725 32.319c-.963-.566-3.34-1.613-3.82-.8s1.59 2.385 2.552 2.951 1.276.089 1.621-.5.61-1.093-.353-1.659" style="fill:#fff"/>
                <path data-name="패스 13059" d="M14.531 32.195c1.018-.459 3.494-1.244 3.884-.379s-1.837 2.2-2.855 2.66-1.278-.049-1.558-.67-.489-1.151.529-1.611" style="fill:#fff"/>
                <path data-name="패스 13060" d="M19.657 35.79c.085-1.114-.02-3.708-.967-3.781s-1.443 2.477-1.528 3.59.481 1.185 1.16 1.237 1.249.067 1.335-1.047" style="fill:#fff"/>
                <path data-name="패스 13061" d="M18.127 30.942a.934.934 0 1 0 1.3-.227.933.933 0 0 0-1.3.228" style="fill:#fff"/>
                <path data-name="패스 13062" d="M18.411 31.14a.588.588 0 1 0 .819-.14.588.588 0 0 0-.819.144" style="fill:#fce09c"/>
                <path data-name="패스 13063" d="M15.135 34.462c-.841.734-2.586 2.658-1.962 3.373s2.766-.754 3.607-1.488.488-1.182.04-1.7-.844-.924-1.685-.189" style="fill:#fff"/>
                <path data-name="패스 13064" d="M11.931 34.114c.664.9 1.956 3.151 1.193 3.715s-2.54-1.328-3.2-2.226-.223-1.259.324-1.665 1.022-.722 1.687.176" style="fill:#fff"/>
                <path data-name="패스 13065" d="M16.694 39.57c-.8-.78-2.857-2.365-3.519-1.686s.972 2.7 1.772 3.477 1.218.392 1.693-.1.854-.915.054-1.7" style="fill:#fff"/>
                <path data-name="패스 13066" d="M8.767 37.488c1.1-.2 3.69-.372 3.862.561s-2.31 1.7-3.409 1.9-1.229-.349-1.352-1.024-.2-1.234.9-1.437" style="fill:#fff"/>
                <path data-name="패스 13067" d="M12.883 42.206c.349-1.061.868-3.606-.034-3.9s-1.994 2.06-2.343 3.12.184 1.266.831 1.479 1.2.364 1.546-.7" style="fill:#fff"/>
                <path data-name="패스 13068" d="M12.559 37.132a.934.934 0 1 0 1.318.09.934.934 0 0 0-1.318-.09" style="fill:#fff"/>
                <path data-name="패스 13069" d="M12.787 37.393a.588.588 0 1 0 .83.056.589.589 0 0 0-.83-.056" style="fill:#fce09c"/>
                <path data-name="패스 13070" d="M7.512 36.6c-.464 1.016-1.263 3.487-.4 3.882s2.21-1.825 2.675-2.841-.042-1.278-.661-1.562-1.149-.495-1.614.521" style="fill:#fff"/>
                <path data-name="패스 13071" d="M4.446 37.6c.975.544 3.08 2.066 2.617 2.894s-2.862-.166-3.837-.71-.721-1.056-.389-1.65.634-1.078 1.609-.534" style="fill:#fff"/>
                <path data-name="패스 13072" d="M11.032 40.61c-1.05-.382-3.577-.979-3.9-.088s2 2.057 3.046 2.439 1.27-.145 1.5-.785.4-1.185-.648-1.567" style="fill:#fff"/>
                <path data-name="패스 13073" d="M2.951 41.976c.918-.637 3.21-1.858 3.75-1.078s-1.409 2.5-2.325 3.134-1.265.184-1.653-.38-.69-1.044.228-1.68" style="fill:#fff"/>
                <path data-name="패스 13074" d="M8.643 44.581c-.118-1.111-.693-3.644-1.636-3.542s-.97 2.7-.851 3.808.688 1.078 1.365 1.006 1.241-.161 1.122-1.271" style="fill:#fff"/>
                <path data-name="패스 13075" d="M6.263 40.09a.934.934 0 1 0 1.237-.461.935.935 0 0 0-1.238.461" style="fill:#fff"/>
                <path data-name="패스 13076" d="M6.575 40.234a.588.588 0 1 0 .779-.29.588.588 0 0 0-.779.29" style="fill:#fce09c"/>
                <path data-name="패스 13077" d="M10.341 27.308c-1.008.48-3.207 1.862-2.8 2.719s2.866.02 3.875-.46.788-1.007.5-1.622-.563-1.118-1.572-.637" style="fill:#fff"/>
                <path data-name="패스 13078" d="M7.354 26.108c.4 1.044 1.035 3.561.148 3.9S5.415 28.044 5.016 27s.125-1.273.761-1.516 1.179-.42 1.577.623" style="fill:#fff"/>
                <path data-name="패스 13079" d="M10.469 32.645c-.56-.967-2.113-3.047-2.935-2.572s.21 2.859.769 3.826 1.067.705 1.656.364 1.069-.651.509-1.618" style="fill:#fff"/>
                <path data-name="패스 13080" d="M3.4 28.5c1.112.1 3.654.636 3.568 1.581S4.282 31.1 3.169 31s-1.088-.672-1.027-1.35.142-1.25 1.258-1.15" style="fill:#fff"/>
                <path data-name="패스 13081" d="M6.089 34.157c.622-.928 1.808-3.238 1.019-3.767s-2.475 1.445-3.1 2.373-.164 1.269.4 1.647 1.055.674 1.677-.254" style="fill:#fff"/>
                <path data-name="패스 13082" d="M7.144 29.184a.934.934 0 1 0 1.245.442.935.935 0 0 0-1.245-.442" style="fill:#fff"/>
                <path data-name="패스 13083" d="M7.294 29.5a.588.588 0 1 0 .784.278.589.589 0 0 0-.784-.278" style="fill:#fce09c"/>
                <path data-name="패스 13084" d="M42.083 83.361H11.129a3.089 3.089 0 0 1-3.088-3.088h37.131a3.089 3.089 0 0 1-3.087 3.089" style="fill:#418c48"/>
                <path data-name="사각형 2759" transform="translate(11.012 83.362)" style="fill:#418c48" d="M0 0h3.195v4.515H0z"/>
                <path data-name="사각형 2760" transform="translate(39.27 83.362)" style="fill:#418c48" d="M0 0h3.195v4.515H0z"/>
                <path data-name="패스 13085" d="M38.288 80.277H14.925a1.638 1.638 0 0 1-1.609-1.94l3.507-18.612H36.39l3.51 18.612a1.638 1.638 0 0 1-1.306 1.912 1.619 1.619 0 0 1-.3.028" style="fill:#91d09f"/>
                <path data-name="사각형 2761" transform="translate(15.718 61.498)" style="fill:#56b36b" d="M0 0h21.8v.704H0z"/>
                <path data-name="패스 13086" d="M3.361 10.7A1.925 1.925 0 0 1 1.9 9.165c-.032-.242.341-.637.382-1.04.162-1.7.6-4.2 2.045-2.59a13.992 13.992 0 0 1 2.53 4.889 7.687 7.687 0 0 0 .353-3.471v-.005a2.689 2.689 0 0 0-.593-1.62A1 1 0 0 0 5.579 5.3l-.046-.1a1.106 1.106 0 0 1 1.147.043h.007l.006.006a2.8 2.8 0 0 1 .622 1.685 7.857 7.857 0 0 1-.407 3.666l.039.141.138-.043a7.87 7.87 0 0 1 2.873-2.311 2.782 2.782 0 0 1 1.755-.38h.009l.007.005a1.1 1.1 0 0 1 .654.942l-.107.013a.992.992 0 0 0-.582-.856 2.687 2.687 0 0 0-1.684.369 7.69 7.69 0 0 0-2.739 2.165 13.943 13.943 0 0 1 5.482-.493c2.132.357.259 2.068-1.088 3.119-.319.25-.451.777-.673.881a1.925 1.925 0 0 1-2.082-.41s.933 3.143-.989 3.038-1.46.338-2.012.306-.893-2.823-.893-2.823-2.539 1.212-2.861.764.3-.3-.822-1.862S3.364 10.7 3.364 10.7" style="fill:#1f5a2c"/>
                <path data-name="패스 13087" d="M2.269 8.667A1.925 1.925 0 0 1 .806 7.131c-.032-.242.341-.637.382-1.04.162-1.7.6-4.2 2.045-2.59a13.992 13.992 0 0 1 2.53 4.889 7.687 7.687 0 0 0 .353-3.471v-.005a2.689 2.689 0 0 0-.593-1.62 1 1 0 0 0-1.036-.032l-.046-.1a1.106 1.106 0 0 1 1.147.043h.007l.006.006A2.8 2.8 0 0 1 6.223 4.9a7.857 7.857 0 0 1-.407 3.664l.039.141.138-.043a7.87 7.87 0 0 1 2.873-2.309 2.782 2.782 0 0 1 1.755-.38h.009l.007.005a1.1 1.1 0 0 1 .654.942l-.107.013a.992.992 0 0 0-.582-.856 2.687 2.687 0 0 0-1.684.369 7.69 7.69 0 0 0-2.739 2.165 13.943 13.943 0 0 1 5.482-.493c2.132.357.259 2.068-1.088 3.119-.319.25-.451.777-.673.881a1.925 1.925 0 0 1-2.082-.41s.933 3.143-.989 3.038-1.46.338-2.012.306-.893-2.823-.893-2.823-2.539 1.212-2.861.764.3-.3-.822-1.862 2.031-2.466 2.031-2.466" style="fill:#a3d0ff"/>
            </g>
        </g>
    </g>
</svg>
