<svg xmlns="http://www.w3.org/2000/svg" width="100" height="100" viewBox="0 0 100 100">
    <defs>
        <clipPath id="0ro96wvlxa">
            <path data-name="사각형 2809" style="fill:none" d="M0 0h31.616v47.537H0z"/>
        </clipPath>
    </defs>
    <g data-name="그룹 2488">
        <path data-name="사각형 2627" style="fill:none" d="M0 0h100v100H0z"/>
        <g data-name="그룹 2469">
            <path data-name="사각형 2806" transform="translate(48.963 63.879)" style="fill:#418c48" d="M0 0h2.933v15.672H0z"/>
            <path data-name="사각형 2807" transform="translate(35.242 76.908)" style="fill:#91d09f" d="M0 0h30.374v5.287H0z"/>
            <path data-name="사각형 2808" transform="translate(35.242 82.195)" style="fill:#56b36b" d="M0 0h30.374v.889H0z"/>
            <g data-name="그룹 2468">
                <g data-name="그룹 2467" style="clip-path:url(#0ro96wvlxa)" transform="translate(34 52)">
                    <path data-name="패스 13700" d="M26.743 47.537H6.115A1.85 1.85 0 0 1 4.278 45.9L1.242 31.084h30.374L28.581 45.9a1.851 1.851 0 0 1-1.838 1.64" style="fill:#91d09f"/>
                    <path data-name="패스 13701" d="m16.494 15.009-1.509-2.593c.057-.033 5.712-3.373 8.253-8.249L25.9 5.554c-2.949 5.659-9.142 9.3-9.4 9.455" style="fill:#418c48"/>
                    <path data-name="패스 13702" d="M15.276 19.522c-5.521 0-8.412-5.063-8.541-5.295l1.746-.975-.873.488.872-.489c.114.2 2.813 4.885 7.812 4.2l.273 1.98a9.315 9.315 0 0 1-1.289.091" style="fill:#418c48"/>
                    <path data-name="패스 13703" d="m16.674 21.026-.489-1.939a19.428 19.428 0 0 0 6.748-3.431l1.285 1.533a21.148 21.148 0 0 1-7.544 3.837" style="fill:#418c48"/>
                    <path data-name="패스 13704" d="M15.83 13.489c-3.348-2.5-4.963-8.368-5.03-8.616l1.93-.523c.016.055 1.505 5.451 4.3 7.535z" style="fill:#418c48"/>
                    <path data-name="패스 13705" d="M29.489 16.363c-1.875 1.406-5.568 2.245-6.845 1.716s-.858-2.8 1.017-4.2a5.561 5.561 0 0 1 5.588-.761c1.609.687 2.115 1.842.241 3.247" style="fill:#418c48"/>
                    <path data-name="패스 13706" d="M28.986 10.635c-2.208.785-5.984.488-7.046-.4s.013-2.929 2.22-3.708a5.561 5.561 0 0 1 5.561.934c1.332 1.135 1.472 2.388-.735 3.172" style="fill:#418c48"/>
                    <path data-name="패스 13707" d="M28.375 20.836c-2.34-.136-5.7-1.878-6.336-3.106s1.151-2.693 3.487-2.552a5.562 5.562 0 0 1 4.76 3.024c.785 1.563.427 2.772-1.912 2.636" style="fill:#418c48"/>
                    <path data-name="패스 13708" d="M24 8.014c-2.1 1.035-2.9.061-2.786-1.685a5.561 5.561 0 0 1 3.208-4.638c2.1-1.038 4.312-.384 4.2 1S26.1 6.977 24 8.012" style="fill:#418c48"/>
                    <path data-name="패스 13709" d="M14.138 6.553c-2.2.807-2.892-.246-2.593-1.97A5.564 5.564 0 0 1 15.225.31C17.42-.5 19.553.384 19.3 1.743s-2.965 4-5.165 4.808" style="fill:#418c48"/>
                    <path data-name="패스 13710" d="M6.466 15.638C4.126 15.5.764 13.76.13 12.532S1.281 9.839 3.617 9.98A5.562 5.562 0 0 1 8.377 13c.785 1.563.427 2.772-1.912 2.636" style="fill:#418c48"/>
                    <path data-name="패스 13711" d="M10.842 6.817C8.5 6.681 5.14 4.939 4.506 3.711s1.151-2.693 3.487-2.552a5.562 5.562 0 0 1 4.76 3.024c.785 1.563.427 2.772-1.912 2.636" style="fill:#418c48"/>
                    <path data-name="패스 13712" d="M7.994 17.54c-1.671 1.643-5.22 2.966-6.556 2.611s-1.223-2.661.449-4.3a5.563 5.563 0 0 1 5.438-1.5c1.686.467 2.341 1.544.67 3.186" style="fill:#418c48"/>
                </g>
            </g>
        </g>
    </g>
</svg>
