<svg xmlns="http://www.w3.org/2000/svg" width="100" height="100.345" viewBox="0 0 100 100.345">
    <defs>
        <clipPath id="m4weq72pfa">
            <path data-name="사각형 2752" style="fill:none" d="M0 0h47.686v72.345H0z"/>
        </clipPath>
    </defs>
    <g data-name="그룹 2499">
        <path data-name="사각형 2613" style="fill:none" d="M0 0h100v100H0z"/>
        <g data-name="그룹 2439">
            <g data-name="그룹 2438" style="clip-path:url(#m4weq72pfa)" transform="translate(26 28)">
                <path data-name="패스 12772" d="M20.114 40.238a5.1 5.1 0 0 0-4.078-4.275l.251-.963a6.124 6.124 0 0 1 4.8 5.009z" style="fill:#418c48"/>
                <path data-name="패스 12773" d="M13.5 36.557c2.228.511 3.359-.211 3.623-1.362l-8.068-1.85s2.217 2.7 4.445 3.212" style="fill:#418c48"/>
                <path data-name="패스 12774" d="M14.456 32.391c-2.228-.511-5.4.954-5.4.954l8.068 1.855c.264-1.15-.439-2.293-2.667-2.8" style="fill:#91d09f"/>
                <path data-name="패스 12775" d="m27.779 40.238-.973-.233a6.124 6.124 0 0 1 4.8-5.005l.251.967a5.1 5.1 0 0 0-4.077 4.275" style="fill:#418c48"/>
                <path data-name="패스 12776" d="M34.392 36.557c-2.228.511-3.359-.211-3.623-1.362l8.068-1.85s-2.217 2.7-4.445 3.212" style="fill:#418c48"/>
                <path data-name="패스 12777" d="M33.437 32.391c2.228-.511 5.4.954 5.4.954L30.769 35.2c-.264-1.15.439-2.293 2.667-2.8" style="fill:#91d09f"/>
                <path data-name="패스 12778" d="M17.7 30.864a17.745 17.745 0 0 0-13.341-5.42l-.088-1a18.413 18.413 0 0 1 14.159 5.732z" style="fill:#418c48"/>
                <path data-name="패스 12779" d="M23.946 21.621c-.591 0-2.391 0-5.22-12.753l.976-.216c2.178 9.819 3.8 11.969 4.244 11.969s2.066-2.15 4.245-11.969l.977.216c-2.829 12.753-4.629 12.753-5.221 12.753" style="fill:#418c48"/>
                <path data-name="사각형 2749" transform="translate(23.446 5.678)" style="fill:#418c48" d="M0 0h1v48.269H0z"/>
                <path data-name="패스 12780" d="m30.2 30.865-.729-.683a18.409 18.409 0 0 1 14.155-5.732l-.088 1A17.718 17.718 0 0 0 30.2 30.87" style="fill:#418c48"/>
                <path data-name="패스 12781" d="M23.946 21.621z" style="fill:#418c48"/>
                <path data-name="패스 12782" d="m8.865 17.029-.7.712a35.833 35.833 0 0 1 12.26 27.437h1a36.843 36.843 0 0 0-12.56-28.149" style="fill:#418c48"/>
                <path data-name="패스 12783" d="M33.355 11.5a21.2 21.2 0 0 1-1.716 3.588c-1.236 2.065-3.888 5.529-7.7 5.529s-6.461-3.464-7.7-5.529A21.176 21.176 0 0 1 14.5 11.42l-.814.566c1.859 4.893 5.436 9.629 10.257 9.634 4.794-.005 8.359-4.689 10.227-9.552z" style="fill:#418c48"/>
                <path data-name="패스 12784" d="M26.464 45.179h1A35.829 35.829 0 0 1 39.64 17.821l-.7-.712a36.843 36.843 0 0 0-12.479 28.07" style="fill:#418c48"/>
                <path data-name="패스 12785" d="M43.241 26.486c-2.228.511-3.359-.211-3.623-1.362l8.068-1.85s-2.217 2.7-4.445 3.212" style="fill:#418c48"/>
                <path data-name="패스 12786" d="M42.286 22.32c2.228-.511 5.4.954 5.4.954l-8.068 1.851c-.264-1.15.439-2.293 2.667-2.8" style="fill:#91d09f"/>
                <path data-name="패스 12787" d="M40.208 19.075c-1.681 1.549-3.02 1.484-3.821.615l6.086-5.609s-.585 3.444-2.265 4.994" style="fill:#418c48"/>
                <path data-name="패스 12788" d="M37.312 15.932c1.681-1.549 5.162-1.851 5.162-1.851l-6.086 5.61c-.8-.867-.757-2.208.926-3.754" style="fill:#91d09f"/>
                <path data-name="패스 12789" d="M35.345 13c-1.169 1.964-2.472 2.284-3.487 1.68l4.234-7.113s.421 3.468-.747 5.433" style="fill:#418c48"/>
                <path data-name="패스 12790" d="M31.673 10.814c1.169-1.964 4.419-3.247 4.419-3.247l-4.233 7.114c-1.014-.6-1.355-1.9-.183-3.863" style="fill:#91d09f"/>
                <path data-name="패스 12791" d="M30.634 9.271c-.8 2.142-2.024 2.689-3.131 2.276L30.4 3.792s1.035 3.337.237 5.479" style="fill:#418c48"/>
                <path data-name="패스 12792" d="M26.629 7.777c.8-2.142 3.768-3.984 3.768-3.984L27.5 11.548c-1.1-.412-1.673-1.628-.87-3.767" style="fill:#91d09f"/>
                <path data-name="패스 12793" d="M4.445 26.486C2.217 25.974 0 23.274 0 23.274l8.068 1.85C7.8 26.275 6.673 27 4.445 26.486" style="fill:#418c48"/>
                <path data-name="패스 12794" d="M5.4 22.325c2.228.507 2.931 1.65 2.667 2.8L0 23.274s3.172-1.465 5.4-.954" style="fill:#91d09f"/>
                <path data-name="패스 12795" d="M20.195 33.776c-1.87-1.314-2.906-4.651-2.906-4.651l6.775 4.756c-.678.966-2 1.208-3.869-.1" style="fill:#418c48"/>
                <path data-name="패스 12796" d="M22.649 30.283c1.872 1.31 2.092 2.633 1.414 3.6l-6.774-4.757s3.49-.16 5.361 1.153" style="fill:#91d09f"/>
                <path data-name="패스 12797" d="M7.478 19.075c-1.68-1.55-2.265-4.994-2.265-4.994L11.3 19.69c-.8.869-2.14.934-3.821-.615" style="fill:#418c48"/>
                <path data-name="패스 12798" d="M10.373 15.937c1.683 1.546 1.726 2.887.926 3.754l-6.086-5.61s3.481.3 5.162 1.851" style="fill:#91d09f"/>
                <path data-name="패스 12799" d="M30.592 21.575c-1.68-1.55-2.265-4.994-2.265-4.994l6.086 5.609c-.8.869-2.14.934-3.821-.615" style="fill:#418c48"/>
                <path data-name="패스 12800" d="M33.487 18.437c1.683 1.546 1.726 2.887.926 3.754l-6.086-5.61s3.481.3 5.162 1.851" style="fill:#91d09f"/>
                <path data-name="패스 12801" d="M12.341 13c-1.168-1.965-.747-5.433-.747-5.433l4.234 7.113c-1.015.6-2.318.284-3.487-1.68" style="fill:#418c48"/>
                <path data-name="패스 12802" d="M16.011 10.818c1.172 1.962.831 3.259-.183 3.863L11.6 7.567s3.25 1.283 4.419 3.247" style="fill:#91d09f"/>
                <path data-name="패스 12803" d="M17.053 9.271c-.8-2.142.237-5.479.237-5.479l2.894 7.755c-1.107.413-2.332-.134-3.131-2.276" style="fill:#418c48"/>
                <path data-name="패스 12804" d="M21.053 7.78c.8 2.139.235 3.355-.871 3.768l-2.893-7.756s2.969 1.843 3.768 3.984" style="fill:#91d09f"/>
                <path data-name="패스 12805" d="M27.764 26.418c-1.72 1.506-3.058 1.405-3.836.517l6.229-5.451s-.673 3.428-2.393 4.934" style="fill:#418c48"/>
                <path data-name="패스 12806" d="M24.949 23.2c1.72-1.506 5.208-1.718 5.208-1.718l-6.229 5.452c-.777-.888-.7-2.227 1.022-3.729" style="fill:#91d09f"/>
                <path data-name="패스 12807" d="M18.821 23.393c-1.162 1.968-2.465 2.292-3.481 1.692l4.209-7.128s.434 3.467-.728 5.436" style="fill:#418c48"/>
                <path data-name="패스 12808" d="M15.141 21.22c1.162-1.968 4.408-3.262 4.408-3.262l-4.209 7.128c-1.016-.6-1.361-1.9-.2-3.862" style="fill:#91d09f"/>
                <path data-name="패스 12809" d="M39.285 67.829H8.331a3.089 3.089 0 0 1-3.088-3.088h37.131a3.089 3.089 0 0 1-3.087 3.089" style="fill:#418c48"/>
                <path data-name="사각형 2750" transform="translate(8.214 67.83)" style="fill:#418c48" d="M0 0h3.195v4.515H0z"/>
                <path data-name="사각형 2751" transform="translate(36.472 67.83)" style="fill:#418c48" d="M0 0h3.195v4.515H0z"/>
                <path data-name="패스 12810" d="M37.1 62.805 34.058 46.67h-20.5l-3.04 16.135a1.638 1.638 0 0 0 1.609 1.94H35.49a1.619 1.619 0 0 0 .3-.028 1.637 1.637 0 0 0 1.31-1.912" style="fill:#91d09f"/>
                <path data-name="패스 12811" d="M33.592 44.193H14.025l-.334 1.773h20.235z" style="fill:#91d09f"/>
                <path data-name="패스 12812" d="M33.926 45.966H13.691l-.133.7h20.5z" style="fill:#56b36b"/>
                <path data-name="패스 12813" d="M25.911 1.559c0 1.522-.411 5.034-1.7 5.034s-1.7-3.512-1.7-5.034S23.287 0 24.211 0s1.7.038 1.7 1.559" style="fill:#fff"/>
                <path data-name="패스 12814" d="M26.592 1.69c-1.516.122-4.985.813-4.881 2.1s3.638 1.417 5.154 1.3 1.492-.9 1.418-1.823-.175-1.7-1.691-1.574" style="fill:#fff"/>
                <path data-name="패스 12815" d="M22.237 1.69c1.516.122 4.985.813 4.881 2.1s-3.638 1.417-5.154 1.3-1.492-.9-1.418-1.823.174-1.7 1.691-1.574" style="fill:#fff"/>
                <path data-name="패스 12816" d="M27.264 4.884c-.776-1.309-2.922-4.119-4.034-3.46s.327 3.89 1.1 5.2 1.463.945 2.261.472 1.446-.9.669-2.21" style="fill:#fff"/>
                <path data-name="패스 12817" d="M21.362 4.884c.777-1.309 2.922-4.119 4.034-3.46s-.327 3.89-1.1 5.2-1.463.945-2.261.472-1.446-.9-.67-2.21" style="fill:#fff"/>
                <path data-name="패스 12818" d="M25.48 3.749a1.273 1.273 0 1 1-1.272-1.276 1.273 1.273 0 0 1 1.272 1.276" style="fill:#fff"/>
                <path data-name="패스 12819" d="M25.009 3.749a.8.8 0 1 1-.8-.8.8.8 0 0 1 .8.8" style="fill:#fce09c"/>
                <path data-name="패스 12820" d="M25.911 11.7c0 1.522-.411 5.034-1.7 5.034s-1.7-3.512-1.7-5.034.776-1.559 1.7-1.559 1.7.038 1.7 1.559" style="fill:#fff"/>
                <path data-name="패스 12821" d="M26.592 11.833c-1.516.122-4.985.813-4.881 2.1s3.638 1.417 5.154 1.3 1.492-.9 1.418-1.823-.175-1.7-1.691-1.574" style="fill:#fff"/>
                <path data-name="패스 12822" d="M22.237 11.833c1.516.122 4.985.813 4.881 2.1s-3.638 1.417-5.154 1.3-1.492-.9-1.418-1.823.174-1.7 1.691-1.574" style="fill:#fff"/>
                <path data-name="패스 12823" d="M27.264 15.027c-.776-1.309-2.922-4.119-4.034-3.46s.327 3.89 1.1 5.2 1.463.945 2.261.472 1.446-.9.669-2.21" style="fill:#fff"/>
                <path data-name="패스 12824" d="M21.362 15.027c.777-1.309 2.922-4.119 4.034-3.46s-.327 3.89-1.1 5.2-1.463.945-2.261.472-1.446-.9-.67-2.21" style="fill:#fff"/>
                <path data-name="패스 12825" d="M25.48 13.892a1.273 1.273 0 1 1-1.272-1.276 1.273 1.273 0 0 1 1.272 1.276" style="fill:#fff"/>
                <path data-name="패스 12826" d="M25.009 13.892a.8.8 0 1 1-.8-.8.8.8 0 0 1 .8.8" style="fill:#fce09c"/>
                <path data-name="패스 12827" d="M14.92 19.623c0 1.522-.411 5.034-1.7 5.034s-1.7-3.512-1.7-5.034.776-1.559 1.7-1.559 1.7.038 1.7 1.559" style="fill:#fff"/>
                <path data-name="패스 12828" d="M15.6 19.754c-1.516.122-4.985.813-4.881 2.1s3.638 1.417 5.154 1.3 1.492-.9 1.418-1.823-.175-1.7-1.691-1.574" style="fill:#fff"/>
                <path data-name="패스 12829" d="M11.246 19.754c1.516.122 4.985.813 4.881 2.1s-3.638 1.417-5.154 1.3-1.492-.9-1.418-1.823.174-1.7 1.691-1.574" style="fill:#fff"/>
                <path data-name="패스 12830" d="M16.273 22.948c-.776-1.309-2.922-4.119-4.034-3.46s.327 3.89 1.1 5.2 1.463.945 2.261.472 1.446-.9.669-2.21" style="fill:#fff"/>
                <path data-name="패스 12831" d="M10.371 22.948c.777-1.309 2.922-4.119 4.034-3.46s-.327 3.89-1.1 5.2-1.463.945-2.261.472-1.446-.9-.67-2.21" style="fill:#fff"/>
                <path data-name="패스 12832" d="M14.489 21.813a1.273 1.273 0 1 1-1.272-1.276 1.273 1.273 0 0 1 1.272 1.276" style="fill:#fff"/>
                <path data-name="패스 12833" d="M14.018 21.813a.8.8 0 1 1-.8-.8.8.8 0 0 1 .8.8" style="fill:#fce09c"/>
                <path data-name="패스 12834" d="M33.355 26.216c0 1.522-.411 5.034-1.7 5.034s-1.7-3.512-1.7-5.034.776-1.559 1.7-1.559 1.7.038 1.7 1.559" style="fill:#fff"/>
                <path data-name="패스 12835" d="M34.036 26.347c-1.516.122-4.985.813-4.881 2.1s3.638 1.417 5.154 1.3 1.492-.9 1.418-1.823-.175-1.7-1.691-1.574" style="fill:#fff"/>
                <path data-name="패스 12836" d="M29.681 26.347c1.516.122 4.985.813 4.881 2.1s-3.638 1.417-5.154 1.3-1.492-.9-1.418-1.823.174-1.7 1.691-1.574" style="fill:#fff"/>
                <path data-name="패스 12837" d="M34.708 29.541c-.776-1.309-2.922-4.119-4.034-3.46s.327 3.89 1.1 5.2 1.463.945 2.261.472 1.446-.9.669-2.21" style="fill:#fff"/>
                <path data-name="패스 12838" d="M28.806 29.541c.777-1.309 2.922-4.119 4.034-3.46s-.327 3.89-1.1 5.2-1.463.945-2.261.472-1.446-.9-.67-2.21" style="fill:#fff"/>
                <path data-name="패스 12839" d="M32.924 28.406a1.273 1.273 0 1 1-1.272-1.276 1.273 1.273 0 0 1 1.272 1.276" style="fill:#fff"/>
                <path data-name="패스 12840" d="M32.453 28.406a.8.8 0 1 1-.8-.8.8.8 0 0 1 .8.8" style="fill:#fce09c"/>
                <path data-name="패스 12841" d="M25.528 22.451c0 1.522-.411 5.034-1.7 5.034s-1.7-3.512-1.7-5.034.776-1.559 1.7-1.559 1.7.038 1.7 1.559" style="fill:#fff"/>
                <path data-name="패스 12842" d="M26.209 22.583c-1.516.122-4.985.813-4.881 2.1s3.638 1.417 5.154 1.3 1.492-.9 1.418-1.823-.175-1.7-1.691-1.574" style="fill:#fff"/>
                <path data-name="패스 12843" d="M21.855 22.583c1.516.122 4.985.813 4.881 2.1s-3.638 1.417-5.154 1.3-1.492-.9-1.418-1.823.174-1.7 1.691-1.574" style="fill:#fff"/>
                <path data-name="패스 12844" d="M26.881 25.777c-.776-1.309-2.922-4.119-4.034-3.46s.327 3.89 1.1 5.2 1.463.945 2.261.472 1.446-.9.669-2.21" style="fill:#fff"/>
                <path data-name="패스 12845" d="M20.979 25.777c.777-1.309 2.922-4.119 4.034-3.46s-.327 3.89-1.1 5.2-1.463.945-2.261.472-1.446-.9-.67-2.21" style="fill:#fff"/>
                <path data-name="패스 12846" d="M25.1 24.642a1.273 1.273 0 1 1-1.272-1.276 1.273 1.273 0 0 1 1.272 1.276" style="fill:#fff"/>
                <path data-name="패스 12847" d="M24.626 24.642a.8.8 0 1 1-.8-.8.8.8 0 0 1 .8.8" style="fill:#fce09c"/>
            </g>
        </g>
    </g>
</svg>
