<svg xmlns="http://www.w3.org/2000/svg" xmlns:xlink="http://www.w3.org/1999/xlink" width="100" height="100.149" viewBox="0 0 100 100.149">
  <defs>
    <style>
      .cls-1 {
        fill: none;
      }

      .cls-2 {
        clip-path: url(#clip-path);
      }

      .cls-3 {
        fill: #418c48;
      }

      .cls-4 {
        fill: #409b54;
      }

      .cls-5 {
        fill: #fff;
      }

      .cls-6 {
        fill: #ffa7ff;
      }

      .cls-7 {
        fill: #91d09f;
      }

      .cls-8 {
        fill: #56b36b;
      }

      .cls-9 {
        fill: #1f5a2c;
      }

      .cls-10 {
        fill: #a3d0ff;
      }

      .cls-11 {
        fill: #f6c0fc;
      }

      .cls-12 {
        fill: #ffeb00;
      }
    </style>
    <clipPath id="clip-path">
      <rect id="사각형_2833" data-name="사각형 2833" class="cls-1" width="63.245" height="94.149" transform="translate(0 0)"/>
    </clipPath>
  </defs>
  <g id="그룹_2482" data-name="그룹 2482" transform="translate(-1083 -1189)">
    <rect id="사각형_2633" data-name="사각형 2633" class="cls-1" width="100" height="100" transform="translate(1083 1189)"/>
    <g id="그룹_2481" data-name="그룹 2481" transform="translate(1101 1195)">
      <g id="그룹_2480" data-name="그룹 2480" class="cls-2">
        <path id="패스_14412" data-name="패스 14412" class="cls-3" d="M29.016,58.26c-1.924-1.338-3.882-4.58-3.781-5.959s2.388-1.694,4.307-.354a5.559,5.559,0,0,1,2.479,5.065c-.146,1.743-1.084,2.587-3.007,1.25"/>
        <path id="패스_14413" data-name="패스 14413" class="cls-3" d="M30.232,59.645c-2.288.509-6-.249-6.944-1.257s.372-2.9,2.657-3.408a5.562,5.562,0,0,1,5.405,1.609c1.183,1.289,1.169,2.55-1.118,3.058"/>
        <path id="패스_14414" data-name="패스 14414" class="cls-3" d="M19.236,62.168c-2.2.8-5.98.535-7.049-.341S12.178,58.9,14.378,58.1a5.562,5.562,0,0,1,5.569.891c1.34,1.123,1.49,2.375-.711,3.177"/>
        <path id="패스_14415" data-name="패스 14415" class="cls-3" d="M21.393,63.309c-.884,2.171-3.618,4.791-4.985,5s-2.177-1.958-1.29-4.124a5.559,5.559,0,0,1,4.4-3.529c1.733-.24,2.761.49,1.878,2.659"/>
        <path id="패스_14416" data-name="패스 14416" class="cls-3" d="M42.44,62.091c-1.729-1.58-1.114-2.68.554-3.208a5.56,5.56,0,0,1,5.488,1.3c1.731,1.575,1.928,3.876.606,4.278s-4.917-.789-6.647-2.37"/>
        <path id="패스_14417" data-name="패스 14417" class="cls-3" d="M40.01,62.322c.01-2.342,1.239-2.625,2.75-1.743a5.559,5.559,0,0,1,2.722,4.939c0,2.34-1.578,4.031-2.764,3.321S40,64.665,40.012,62.322"/>
        <path id="패스_14418" data-name="패스 14418" class="cls-3" d="M59.987,42.305c-1.875,1.406-5.568,2.245-6.845,1.716s-.858-2.8,1.017-4.2a5.561,5.561,0,0,1,5.588-.761c1.609.687,2.115,1.842.241,3.247"/>
        <path id="패스_14419" data-name="패스 14419" class="cls-3" d="M58.874,46.777c-2.34-.136-5.7-1.878-6.336-3.106s1.151-2.693,3.487-2.552a5.562,5.562,0,0,1,4.76,3.024c.785,1.563.427,2.772-1.912,2.636"/>
        <path id="패스_14420" data-name="패스 14420" class="cls-3" d="M2.127,47.42c-1.874-1.4-1.368-2.56.241-3.247a5.561,5.561,0,0,1,5.588.761c1.875,1.4,2.294,3.671,1.017,4.2S4,48.824,2.128,47.418"/>
        <path id="패스_14421" data-name="패스 14421" class="cls-3" d="M3.243,51.893C.9,52.029.546,50.82,1.332,49.257a5.563,5.563,0,0,1,4.76-3.025c2.336-.14,4.121,1.325,3.487,2.553s-4,2.97-6.337,3.106"/>
        <rect id="사각형_2830" data-name="사각형 2830" class="cls-3" width="2.933" height="40.162" transform="translate(29.969 34.001)"/>
        <path id="패스_14422" data-name="패스 14422" class="cls-3" d="M46.324,45.868H31.437v-1.76H46.324a7.1,7.1,0,0,0,7.09-7.09h1.76a8.862,8.862,0,0,1-8.85,8.85"/>
        <path id="패스_14423" data-name="패스 14423" class="cls-3" d="M31.587,49.22H16.706a8.86,8.86,0,0,1-8.849-8.85h1.76a7.1,7.1,0,0,0,7.089,7.09H31.587Z"/>
        <path id="패스_14424" data-name="패스 14424" class="cls-3" d="M57.547,30.615c-.024,2.693-1.825,5.625-3.193,5.634s-3.144-2.995-3.121-5.687,1.447-3.828,3.19-3.813,3.146,1.174,3.125,3.866"/>
        <path id="패스_14425" data-name="패스 14425" class="cls-4" d="M53.11,30.223c1.564,2.1,1.89,5.434.834,6.244s-4.2-.474-5.761-2.575-1.127-3.817.233-4.83,3.129-.94,4.694,1.161"/>
        <path id="패스_14426" data-name="패스 14426" class="cls-4" d="M60.459,33.922c-1.578,2.091-4.685,3.34-5.759,2.553s-.722-4.161.856-6.253,3.347-2.154,4.7-1.132,1.78,2.74.2,4.832"/>
        <path id="패스_14427" data-name="패스 14427" class="cls-3" d="M61.826,35.18c-1.875,1.406-5.568,2.245-6.845,1.716S54.123,34.1,56,32.7a5.563,5.563,0,0,1,5.588-.761c1.609.687,2.115,1.842.241,3.247"/>
        <path id="패스_14428" data-name="패스 14428" class="cls-3" d="M46.759,34.869c1.875,1.406,5.568,2.245,6.845,1.716s.858-2.8-1.017-4.2A5.561,5.561,0,0,0,47,31.624c-1.609.687-2.115,1.842-.241,3.247"/>
        <path id="패스_14429" data-name="패스 14429" class="cls-3" d="M57.528,34.757a3.157,3.157,0,0,1-6.314-.053c.013-1.518,1.432-2.152,3.175-2.137s3.152.673,3.139,2.191"/>
        <path id="패스_14430" data-name="패스 14430" class="cls-3" d="M11.99,33.827c-.024,2.693-1.826,5.625-3.194,5.634s-3.142-2.995-3.12-5.687,1.446-3.828,3.189-3.813,3.147,1.174,3.125,3.866"/>
        <path id="패스_14431" data-name="패스 14431" class="cls-4" d="M7.554,33.434c1.564,2.1,1.89,5.434.834,6.244s-4.2-.479-5.76-2.579-1.128-3.817.232-4.83,3.13-.94,4.694,1.161"/>
        <path id="패스_14432" data-name="패스 14432" class="cls-4" d="M14.9,37.134c-1.578,2.091-4.686,3.34-5.759,2.553s-.722-4.161.856-6.253,3.346-2.154,4.7-1.132,1.779,2.74.2,4.832"/>
        <path id="패스_14433" data-name="패스 14433" class="cls-3" d="M16.27,38.391C14.4,39.8,10.7,40.636,9.425,40.107s-.858-2.8,1.017-4.2a5.559,5.559,0,0,1,5.587-.761c1.61.687,2.116,1.842.242,3.247"/>
        <path id="패스_14434" data-name="패스 14434" class="cls-3" d="M1.2,38.391c1.875,1.406,5.568,2.245,6.845,1.716s.858-2.8-1.017-4.2a5.561,5.561,0,0,0-5.588-.761c-1.609.687-2.115,1.842-.241,3.247"/>
        <path id="패스_14435" data-name="패스 14435" class="cls-3" d="M11.969,37.972A3.673,3.673,0,0,1,8.8,41.136a3.672,3.672,0,0,1-3.141-3.217c.013-1.518,1.432-2.152,3.175-2.137s3.152.673,3.139,2.191"/>
        <path id="패스_14436" data-name="패스 14436" class="cls-3" d="M34.689,28.239c-.023,2.693-1.825,5.625-3.193,5.634s-3.143-3-3.12-5.687,1.446-3.828,3.189-3.813,3.147,1.174,3.125,3.866"/>
        <path id="패스_14437" data-name="패스 14437" class="cls-4" d="M30.253,27.846c1.564,2.1,1.89,5.434.834,6.244s-4.2-.474-5.761-2.575-1.128-3.817.233-4.83,3.129-.94,4.694,1.161"/>
        <path id="패스_14438" data-name="패스 14438" class="cls-4" d="M37.6,31.546c-1.578,2.091-4.685,3.34-5.759,2.553s-.722-4.161.856-6.253,3.347-2.154,4.7-1.132,1.78,2.74.2,4.832"/>
        <path id="패스_14439" data-name="패스 14439" class="cls-3" d="M38.968,32.8c-1.875,1.406-5.568,2.245-6.845,1.716s-.858-2.8,1.017-4.2a5.561,5.561,0,0,1,5.588-.761c1.609.687,2.115,1.842.241,3.247"/>
        <path id="패스_14440" data-name="패스 14440" class="cls-3" d="M23.9,32.8c1.875,1.406,5.567,2.245,6.844,1.716s.858-2.8-1.017-4.2a5.561,5.561,0,0,0-5.588-.761c-1.609.687-2.114,1.842-.241,3.247"/>
        <path id="패스_14441" data-name="패스 14441" class="cls-3" d="M34.668,32.381a3.157,3.157,0,1,1-6.314-.053c.013-1.518,1.432-2.152,3.175-2.137s3.152.673,3.139,2.191"/>
        <path id="패스_14442" data-name="패스 14442" class="cls-3" d="M48.812,50.443c-.024,2.693-1.826,5.625-3.194,5.634s-3.143-2.995-3.12-5.687,1.446-3.828,3.19-3.813,3.146,1.174,3.125,3.866"/>
        <path id="패스_14443" data-name="패스 14443" class="cls-4" d="M44.375,50.05c1.565,2.1,1.891,5.434.835,6.244s-4.2-.474-5.761-2.575-1.128-3.817.232-4.83,3.13-.94,4.694,1.161"/>
        <path id="패스_14444" data-name="패스 14444" class="cls-4" d="M51.724,53.75c-1.578,2.091-4.685,3.34-5.76,2.553s-.722-4.161.856-6.253,3.347-2.154,4.7-1.132,1.78,2.74.2,4.832"/>
        <path id="패스_14445" data-name="패스 14445" class="cls-3" d="M53.091,55.007c-1.875,1.406-5.568,2.245-6.845,1.716s-.858-2.8,1.017-4.2a5.561,5.561,0,0,1,5.588-.761c1.609.687,2.115,1.842.241,3.247"/>
        <path id="패스_14446" data-name="패스 14446" class="cls-3" d="M38.025,55.007c1.875,1.406,5.567,2.245,6.844,1.716s.859-2.8-1.016-4.2a5.563,5.563,0,0,0-5.589-.761c-1.609.687-2.114,1.842-.241,3.247"/>
        <path id="패스_14447" data-name="패스 14447" class="cls-3" d="M48.791,54.589a3.157,3.157,0,1,1-6.314-.053c.013-1.518,1.432-2.152,3.175-2.137s3.152.673,3.139,2.191"/>
        <path id="패스_14448" data-name="패스 14448" class="cls-3" d="M18.213,48.565c-.023,2.693-1.825,5.625-3.193,5.634s-3.143-3-3.12-5.687,1.446-3.828,3.189-3.813,3.147,1.174,3.125,3.866"/>
        <path id="패스_14449" data-name="패스 14449" class="cls-4" d="M13.779,48.172c1.565,2.1,1.891,5.434.835,6.244s-4.2-.474-5.761-2.575-1.128-3.817.232-4.83,3.13-.94,4.694,1.161"/>
        <path id="패스_14450" data-name="패스 14450" class="cls-4" d="M21.128,51.872c-1.579,2.091-4.686,3.34-5.759,2.553s-.722-4.161.856-6.253,3.346-2.154,4.7-1.132,1.781,2.74.2,4.832"/>
        <path id="패스_14451" data-name="패스 14451" class="cls-3" d="M22.493,53.129c-1.875,1.406-5.568,2.245-6.845,1.716s-.858-2.8,1.017-4.2a5.561,5.561,0,0,1,5.588-.761c1.609.687,2.115,1.842.241,3.247"/>
        <path id="패스_14452" data-name="패스 14452" class="cls-3" d="M7.426,53.129c1.875,1.406,5.568,2.245,6.845,1.716s.858-2.8-1.017-4.2a5.561,5.561,0,0,0-5.588-.761c-1.609.687-2.115,1.842-.241,3.247"/>
        <path id="패스_14453" data-name="패스 14453" class="cls-3" d="M18.194,52.713a3.674,3.674,0,0,1-3.173,3.164A3.671,3.671,0,0,1,11.88,52.66c.012-1.518,1.432-2.152,3.175-2.137s3.151.673,3.139,2.191"/>
        <path id="패스_14454" data-name="패스 14454" class="cls-5" d="M57.317,26.908c-.113-.255-.865-.171-1.681.189a4.821,4.821,0,0,0-.53.273c.014-.15.022-.309.022-.474,0-.891-.226-1.614-.5-1.614s-.505.723-.505,1.614c0,.165.008.324.022.474a4.821,4.821,0,0,0-.53-.273c-.816-.36-1.568-.444-1.681-.189s.458.754,1.273,1.114a4.727,4.727,0,0,0,.673.24,4.6,4.6,0,0,0-.556.487c-.624.637-.968,1.311-.769,1.507s.866-.163,1.49-.8a4.395,4.395,0,0,0,.581-.723,4.447,4.447,0,0,0,.581.723c.624.637,1.291,1,1.491.8s-.145-.87-.769-1.507a4.6,4.6,0,0,0-.556-.487,4.739,4.739,0,0,0,.674-.24c.816-.36,1.386-.859,1.273-1.114"/>
        <path id="패스_14455" data-name="패스 14455" class="cls-6" d="M55.079,27.978a.456.456,0,1,1-.456-.456.456.456,0,0,1,.456.456"/>
        <path id="패스_14456" data-name="패스 14456" class="cls-5" d="M53.365,26.024c-.113-.255-.865-.171-1.681.189a4.822,4.822,0,0,0-.53.273c.014-.15.022-.309.022-.474,0-.891-.226-1.614-.5-1.614s-.505.723-.505,1.614c0,.165.008.324.022.474a4.822,4.822,0,0,0-.53-.273c-.816-.36-1.568-.444-1.681-.189s.458.754,1.273,1.114a4.727,4.727,0,0,0,.673.24,4.594,4.594,0,0,0-.556.487c-.624.637-.968,1.311-.769,1.507s.866-.163,1.49-.8a4.395,4.395,0,0,0,.581-.723,4.448,4.448,0,0,0,.581.723c.624.637,1.291.995,1.491.8s-.145-.87-.769-1.507a4.6,4.6,0,0,0-.556-.487,4.739,4.739,0,0,0,.674-.24c.816-.36,1.386-.859,1.273-1.114"/>
        <path id="패스_14457" data-name="패스 14457" class="cls-6" d="M51.127,27.094a.456.456,0,1,1-.456-.456.456.456,0,0,1,.456.456"/>
        <path id="패스_14458" data-name="패스 14458" class="cls-5" d="M52.025,32.584c-.114-.255-.865-.171-1.682.189a4.913,4.913,0,0,0-.53.273c.014-.15.022-.309.022-.474,0-.891-.225-1.614-.5-1.614s-.505.723-.505,1.614c0,.165.007.324.021.474a4.808,4.808,0,0,0-.529-.273c-.817-.36-1.568-.444-1.681-.189s.458.754,1.273,1.114a4.684,4.684,0,0,0,.673.24,4.52,4.52,0,0,0-.556.487c-.624.637-.969,1.311-.769,1.507s.867-.163,1.491-.8a4.441,4.441,0,0,0,.58-.723,4.5,4.5,0,0,0,.581.723c.625.637,1.291.995,1.492.8s-.145-.87-.77-1.507a4.52,4.52,0,0,0-.556-.487,4.7,4.7,0,0,0,.674-.24c.817-.36,1.387-.859,1.273-1.114"/>
        <path id="패스_14459" data-name="패스 14459" class="cls-6" d="M49.786,33.654a.456.456,0,1,1-.456-.456.456.456,0,0,1,.456.456"/>
        <path id="패스_14460" data-name="패스 14460" class="cls-5" d="M52.025,28.819c-.114-.255-.865-.171-1.682.189a4.913,4.913,0,0,0-.53.273c.014-.15.022-.309.022-.474,0-.891-.225-1.614-.5-1.614s-.505.723-.505,1.614c0,.165.007.324.021.474a4.808,4.808,0,0,0-.529-.273c-.817-.36-1.568-.444-1.681-.189s.458.754,1.273,1.114a4.683,4.683,0,0,0,.673.24,4.52,4.52,0,0,0-.556.487c-.624.637-.969,1.311-.769,1.507s.867-.163,1.491-.8a4.441,4.441,0,0,0,.58-.723,4.5,4.5,0,0,0,.581.723c.625.637,1.291.995,1.492.8s-.145-.87-.77-1.507a4.52,4.52,0,0,0-.556-.487,4.7,4.7,0,0,0,.674-.24c.817-.36,1.387-.859,1.273-1.114"/>
        <path id="패스_14461" data-name="패스 14461" class="cls-6" d="M49.786,29.889a.456.456,0,1,1-.456-.456.456.456,0,0,1,.456.456"/>
        <path id="패스_14462" data-name="패스 14462" class="cls-5" d="M63.232,28.819c-.113-.255-.865-.171-1.681.189a4.822,4.822,0,0,0-.53.273c.014-.15.022-.309.022-.474,0-.891-.226-1.614-.505-1.614s-.5.723-.5,1.614c0,.165.008.324.022.474a4.822,4.822,0,0,0-.53-.273c-.816-.36-1.568-.444-1.681-.189s.458.754,1.273,1.114a4.727,4.727,0,0,0,.673.24,4.594,4.594,0,0,0-.556.487c-.624.637-.968,1.311-.769,1.507s.866-.163,1.49-.8a4.395,4.395,0,0,0,.581-.723,4.447,4.447,0,0,0,.581.723c.624.637,1.291.995,1.491.8s-.145-.87-.769-1.507a4.6,4.6,0,0,0-.556-.487,4.739,4.739,0,0,0,.674-.24c.816-.36,1.386-.859,1.273-1.114"/>
        <path id="패스_14463" data-name="패스 14463" class="cls-6" d="M60.994,29.889a.456.456,0,1,1-.456-.456.456.456,0,0,1,.456.456"/>
        <path id="패스_14464" data-name="패스 14464" class="cls-5" d="M61.4,26.024c-.114-.255-.865-.171-1.682.189a4.913,4.913,0,0,0-.53.273c.014-.15.022-.309.022-.474,0-.891-.225-1.614-.5-1.614s-.505.723-.505,1.614c0,.165.007.324.021.474a4.808,4.808,0,0,0-.529-.273c-.817-.36-1.568-.444-1.681-.189s.458.754,1.273,1.114a4.683,4.683,0,0,0,.673.24,4.52,4.52,0,0,0-.556.487c-.624.637-.969,1.311-.77,1.507s.867-.163,1.491-.8a4.441,4.441,0,0,0,.58-.723,4.453,4.453,0,0,0,.582.723c.624.637,1.291.995,1.491.8s-.145-.87-.769-1.507a4.752,4.752,0,0,0-.556-.487,4.739,4.739,0,0,0,.674-.24c.815-.36,1.385-.859,1.272-1.114"/>
        <path id="패스_14465" data-name="패스 14465" class="cls-6" d="M59.16,27.094a.456.456,0,1,1-.456-.456.456.456,0,0,1,.456.456"/>
        <path id="패스_14466" data-name="패스 14466" class="cls-5" d="M63.232,32.9c-.113-.255-.865-.171-1.681.189a4.822,4.822,0,0,0-.53.273c.014-.15.022-.309.022-.474,0-.891-.226-1.614-.505-1.614s-.5.723-.5,1.614c0,.165.008.324.022.474a4.822,4.822,0,0,0-.53-.273c-.816-.36-1.568-.444-1.681-.189s.458.754,1.273,1.114a4.727,4.727,0,0,0,.673.24,4.594,4.594,0,0,0-.556.487c-.624.637-.968,1.311-.769,1.507s.866-.163,1.49-.8a4.395,4.395,0,0,0,.581-.723,4.447,4.447,0,0,0,.581.723c.624.637,1.291.995,1.491.8s-.145-.87-.769-1.507a4.6,4.6,0,0,0-.556-.487,4.739,4.739,0,0,0,.674-.24c.816-.36,1.386-.859,1.273-1.114"/>
        <path id="패스_14467" data-name="패스 14467" class="cls-6" d="M60.994,33.967a.456.456,0,1,1-.456-.456.456.456,0,0,1,.456.456"/>
        <path id="패스_14468" data-name="패스 14468" class="cls-5" d="M55.406,29.265c-.113-.255-.865-.171-1.681.189a4.822,4.822,0,0,0-.53.273c.014-.15.022-.309.022-.474,0-.891-.226-1.614-.5-1.614s-.505.723-.505,1.614c0,.165.008.324.022.474a4.822,4.822,0,0,0-.53-.273c-.816-.36-1.568-.444-1.681-.189s.458.754,1.273,1.114a4.727,4.727,0,0,0,.673.24,4.6,4.6,0,0,0-.556.487c-.624.637-.968,1.311-.769,1.507s.867-.163,1.49-.8a4.395,4.395,0,0,0,.581-.723,4.447,4.447,0,0,0,.581.723c.624.637,1.291.995,1.491.8s-.145-.87-.769-1.507a4.6,4.6,0,0,0-.556-.487,4.739,4.739,0,0,0,.674-.24c.816-.36,1.386-.859,1.273-1.114"/>
        <path id="패스_14469" data-name="패스 14469" class="cls-6" d="M53.167,30.335a.456.456,0,1,1-.456-.456.456.456,0,0,1,.456.456"/>
        <path id="패스_14470" data-name="패스 14470" class="cls-5" d="M59.315,29.265c-.113-.255-.865-.171-1.681.189a4.822,4.822,0,0,0-.53.273c.014-.15.022-.309.022-.474,0-.891-.226-1.614-.505-1.614s-.5.723-.5,1.614c0,.165.008.324.022.474a4.822,4.822,0,0,0-.53-.273c-.816-.36-1.568-.444-1.681-.189s.458.754,1.273,1.114a4.727,4.727,0,0,0,.673.24,4.594,4.594,0,0,0-.556.487c-.624.637-.968,1.311-.769,1.507s.866-.163,1.49-.8a4.394,4.394,0,0,0,.581-.723,4.447,4.447,0,0,0,.581.723c.624.637,1.291.995,1.491.8s-.145-.87-.769-1.507a4.6,4.6,0,0,0-.556-.487,4.739,4.739,0,0,0,.674-.24c.816-.36,1.386-.859,1.273-1.114"/>
        <path id="패스_14471" data-name="패스 14471" class="cls-6" d="M57.076,30.335a.456.456,0,1,1-.456-.456.456.456,0,0,1,.456.456"/>
        <path id="패스_14472" data-name="패스 14472" class="cls-5" d="M57.317,31.15c-.113-.255-.865-.171-1.681.189a4.822,4.822,0,0,0-.53.273c.014-.15.022-.309.022-.474,0-.891-.226-1.614-.5-1.614s-.505.723-.505,1.614c0,.165.008.324.022.474a4.822,4.822,0,0,0-.53-.273c-.816-.36-1.568-.444-1.681-.189s.458.754,1.273,1.114a4.727,4.727,0,0,0,.673.24,4.594,4.594,0,0,0-.556.487c-.624.637-.968,1.311-.769,1.507s.866-.163,1.49-.8a4.395,4.395,0,0,0,.581-.723,4.447,4.447,0,0,0,.581.723c.624.637,1.291.995,1.491.8s-.145-.87-.769-1.507a4.594,4.594,0,0,0-.556-.487,4.739,4.739,0,0,0,.674-.24c.816-.36,1.386-.859,1.273-1.114"/>
        <path id="패스_14473" data-name="패스 14473" class="cls-6" d="M55.079,32.22a.456.456,0,1,1-.456-.456.456.456,0,0,1,.456.456"/>
        <path id="패스_14474" data-name="패스 14474" class="cls-5" d="M57.317,24.669c-.113-.255-.865-.171-1.681.189a4.821,4.821,0,0,0-.53.273c.014-.15.022-.309.022-.474,0-.891-.226-1.614-.5-1.614s-.505.723-.505,1.614c0,.165.008.324.022.474a4.821,4.821,0,0,0-.53-.273c-.816-.36-1.568-.444-1.681-.189s.458.754,1.273,1.114a4.727,4.727,0,0,0,.673.24,4.594,4.594,0,0,0-.556.487c-.624.637-.968,1.311-.769,1.507s.866-.163,1.49-.8a4.395,4.395,0,0,0,.581-.723,4.447,4.447,0,0,0,.581.723c.624.637,1.291,1,1.491.8s-.145-.87-.769-1.507a4.594,4.594,0,0,0-.556-.487,4.739,4.739,0,0,0,.674-.24c.816-.36,1.386-.859,1.273-1.114"/>
        <path id="패스_14475" data-name="패스 14475" class="cls-6" d="M55.079,25.738a.456.456,0,1,1-.456-.456.456.456,0,0,1,.456.456"/>
        <path id="패스_14476" data-name="패스 14476" class="cls-5" d="M55.406,33.663c-.113-.255-.865-.17-1.681.189a4.821,4.821,0,0,0-.53.273c.014-.15.022-.309.022-.474,0-.891-.226-1.614-.5-1.614s-.505.723-.505,1.614c0,.165.008.324.022.474a4.821,4.821,0,0,0-.53-.273c-.816-.36-1.568-.444-1.681-.189s.458.754,1.273,1.114a4.853,4.853,0,0,0,.673.24,4.6,4.6,0,0,0-.556.487c-.624.637-.968,1.311-.769,1.507s.867-.163,1.49-.8a4.394,4.394,0,0,0,.581-.723,4.447,4.447,0,0,0,.581.723c.624.637,1.291,1,1.491.8s-.145-.87-.769-1.507a4.6,4.6,0,0,0-.556-.487,4.739,4.739,0,0,0,.674-.24c.816-.36,1.386-.859,1.273-1.114"/>
        <path id="패스_14477" data-name="패스 14477" class="cls-6" d="M53.167,34.733a.456.456,0,1,1-.456-.456.456.456,0,0,1,.456.456"/>
        <path id="패스_14478" data-name="패스 14478" class="cls-5" d="M59.492,33.663c-.113-.255-.865-.17-1.681.189a4.821,4.821,0,0,0-.53.273c.014-.15.022-.309.022-.474,0-.891-.226-1.614-.505-1.614s-.505.723-.505,1.614c0,.165.008.324.022.474a4.821,4.821,0,0,0-.53-.273c-.816-.36-1.568-.444-1.681-.189s.458.754,1.273,1.114a4.853,4.853,0,0,0,.673.24,4.6,4.6,0,0,0-.556.487c-.624.637-.968,1.311-.769,1.507s.866-.163,1.49-.8a4.447,4.447,0,0,0,.581-.723,4.447,4.447,0,0,0,.581.723c.624.637,1.291,1,1.491.8s-.145-.87-.769-1.507a4.6,4.6,0,0,0-.556-.487,4.739,4.739,0,0,0,.674-.24c.816-.36,1.386-.859,1.273-1.114"/>
        <path id="패스_14479" data-name="패스 14479" class="cls-6" d="M57.255,34.733a.457.457,0,1,1-.456-.456.456.456,0,0,1,.456.456"/>
        <path id="패스_14480" data-name="패스 14480" class="cls-5" d="M57.317,35.833c-.113-.255-.865-.171-1.681.189a4.822,4.822,0,0,0-.53.273c.014-.15.022-.309.022-.474,0-.891-.226-1.614-.5-1.614s-.505.723-.505,1.614c0,.165.008.324.022.474a4.822,4.822,0,0,0-.53-.273c-.816-.36-1.568-.444-1.681-.189s.458.754,1.273,1.114a4.727,4.727,0,0,0,.673.24,4.6,4.6,0,0,0-.556.487c-.624.637-.968,1.311-.769,1.507s.866-.163,1.49-.8a4.395,4.395,0,0,0,.581-.723,4.448,4.448,0,0,0,.581.723c.624.637,1.291.995,1.491.8s-.145-.87-.769-1.507a4.6,4.6,0,0,0-.556-.487,4.739,4.739,0,0,0,.674-.24c.816-.36,1.386-.859,1.273-1.114"/>
        <path id="패스_14481" data-name="패스 14481" class="cls-6" d="M55.079,36.9a.456.456,0,1,1-.456-.456.456.456,0,0,1,.456.456"/>
        <path id="패스_14482" data-name="패스 14482" class="cls-5" d="M48.362,43.2c-.113-.255-.865-.171-1.681.189a4.822,4.822,0,0,0-.53.273c.014-.15.022-.309.022-.474,0-.891-.226-1.614-.505-1.614s-.505.723-.505,1.614c0,.165.008.324.022.474a4.822,4.822,0,0,0-.53-.273c-.816-.36-1.568-.444-1.681-.189s.458.754,1.273,1.114a4.726,4.726,0,0,0,.673.24,4.6,4.6,0,0,0-.556.487c-.624.637-.968,1.311-.768,1.507s.866-.163,1.49-.8a4.395,4.395,0,0,0,.581-.723,4.395,4.395,0,0,0,.581.723c.624.637,1.291.995,1.491.8s-.145-.87-.769-1.507a4.6,4.6,0,0,0-.556-.487,4.739,4.739,0,0,0,.674-.24c.816-.36,1.386-.859,1.273-1.114"/>
        <path id="패스_14483" data-name="패스 14483" class="cls-6" d="M46.124,44.268a.457.457,0,1,1-.457-.456.457.457,0,0,1,.457.456"/>
        <path id="패스_14484" data-name="패스 14484" class="cls-5" d="M44.41,42.316c-.114-.255-.866-.171-1.682.189a4.821,4.821,0,0,0-.53.273c.014-.15.022-.309.022-.474,0-.891-.226-1.614-.505-1.614s-.505.723-.505,1.614c0,.165.008.324.022.474a4.821,4.821,0,0,0-.53-.273c-.816-.36-1.568-.444-1.681-.189s.458.754,1.273,1.114a4.727,4.727,0,0,0,.673.24,4.6,4.6,0,0,0-.556.487c-.624.637-.968,1.311-.768,1.507s.866-.163,1.49-.8a4.394,4.394,0,0,0,.581-.723,4.394,4.394,0,0,0,.581.723c.624.637,1.291,1,1.491.8s-.145-.87-.769-1.507a4.52,4.52,0,0,0-.556-.487,4.739,4.739,0,0,0,.674-.24c.816-.36,1.386-.859,1.273-1.114"/>
        <path id="패스_14485" data-name="패스 14485" class="cls-6" d="M42.171,43.385a.456.456,0,1,1-.456-.456.456.456,0,0,1,.456.456"/>
        <path id="패스_14486" data-name="패스 14486" class="cls-5" d="M43.069,48.876c-.113-.255-.865-.171-1.681.189a4.822,4.822,0,0,0-.53.273c.014-.15.022-.309.022-.474,0-.891-.226-1.614-.505-1.614s-.505.723-.505,1.614c0,.165.008.324.022.474a4.822,4.822,0,0,0-.53-.273c-.816-.36-1.568-.444-1.681-.189s.458.754,1.273,1.114a4.727,4.727,0,0,0,.673.24,4.6,4.6,0,0,0-.556.487c-.624.637-.968,1.311-.769,1.507s.866-.163,1.49-.8a4.394,4.394,0,0,0,.581-.723,4.447,4.447,0,0,0,.581.723c.624.637,1.291.995,1.491.8s-.145-.87-.769-1.507a4.594,4.594,0,0,0-.556-.487,4.739,4.739,0,0,0,.674-.24c.816-.36,1.386-.859,1.273-1.114"/>
        <path id="패스_14487" data-name="패스 14487" class="cls-6" d="M40.833,49.946a.457.457,0,1,1-.457-.456.457.457,0,0,1,.457.456"/>
        <path id="패스_14488" data-name="패스 14488" class="cls-5" d="M43.069,45.111c-.113-.255-.865-.171-1.681.189a4.822,4.822,0,0,0-.53.273c.014-.15.022-.309.022-.474,0-.891-.226-1.614-.505-1.614s-.505.723-.505,1.614c0,.165.008.324.022.474a4.822,4.822,0,0,0-.53-.273c-.816-.36-1.568-.444-1.681-.189s.458.754,1.273,1.114a4.727,4.727,0,0,0,.673.24,4.6,4.6,0,0,0-.556.487c-.624.637-.968,1.311-.769,1.507s.866-.163,1.49-.8a4.395,4.395,0,0,0,.581-.723,4.447,4.447,0,0,0,.581.723c.624.637,1.291.995,1.491.8s-.145-.87-.769-1.507a4.594,4.594,0,0,0-.556-.487,4.739,4.739,0,0,0,.674-.24c.816-.36,1.386-.859,1.273-1.114"/>
        <path id="패스_14489" data-name="패스 14489" class="cls-6" d="M40.833,46.181a.457.457,0,1,1-.457-.456.457.457,0,0,1,.457.456"/>
        <path id="패스_14490" data-name="패스 14490" class="cls-5" d="M54.278,45.111c-.114-.255-.866-.171-1.682.189a4.822,4.822,0,0,0-.53.273c.014-.15.022-.309.022-.474,0-.891-.226-1.614-.505-1.614s-.505.723-.505,1.614c0,.165.008.324.022.474a4.822,4.822,0,0,0-.53-.273c-.816-.36-1.568-.444-1.681-.189s.458.754,1.273,1.114a4.727,4.727,0,0,0,.673.24,4.6,4.6,0,0,0-.556.487c-.624.637-.968,1.311-.769,1.507s.866-.163,1.49-.8a4.395,4.395,0,0,0,.581-.723,4.447,4.447,0,0,0,.581.723c.624.637,1.291.995,1.491.8s-.145-.87-.769-1.507a4.594,4.594,0,0,0-.556-.487,4.7,4.7,0,0,0,.674-.24c.816-.36,1.386-.859,1.273-1.114"/>
        <path id="패스_14491" data-name="패스 14491" class="cls-6" d="M52.039,46.181a.457.457,0,1,1-.456-.456.456.456,0,0,1,.456.456"/>
        <path id="패스_14492" data-name="패스 14492" class="cls-5" d="M52.444,42.316c-.114-.255-.866-.171-1.682.189a4.821,4.821,0,0,0-.53.273c.014-.15.022-.309.022-.474,0-.891-.226-1.614-.5-1.614s-.506.723-.506,1.614c0,.165.008.324.022.474a4.821,4.821,0,0,0-.53-.273c-.816-.36-1.568-.444-1.68-.189s.458.754,1.272,1.114a4.727,4.727,0,0,0,.673.24,4.672,4.672,0,0,0-.556.487c-.624.637-.968,1.311-.769,1.507s.866-.163,1.491-.8a4.441,4.441,0,0,0,.58-.723,4.5,4.5,0,0,0,.581.723c.624.637,1.291,1,1.491.8s-.145-.87-.769-1.507a4.6,4.6,0,0,0-.556-.487,4.7,4.7,0,0,0,.674-.24c.816-.36,1.386-.859,1.273-1.114"/>
        <path id="패스_14493" data-name="패스 14493" class="cls-6" d="M50.206,43.385a.457.457,0,1,1-.456-.456.456.456,0,0,1,.456.456"/>
        <path id="패스_14494" data-name="패스 14494" class="cls-5" d="M54.278,49.189c-.114-.255-.866-.171-1.682.189a4.822,4.822,0,0,0-.53.273c.014-.15.022-.309.022-.474,0-.891-.226-1.614-.505-1.614s-.505.723-.505,1.614c0,.165.008.324.022.474a4.822,4.822,0,0,0-.53-.273c-.816-.36-1.568-.444-1.681-.189s.458.754,1.273,1.114a4.727,4.727,0,0,0,.673.24,4.6,4.6,0,0,0-.556.487c-.624.637-.968,1.311-.769,1.507s.866-.163,1.49-.8a4.395,4.395,0,0,0,.581-.723,4.447,4.447,0,0,0,.581.723c.624.637,1.291.995,1.491.8s-.145-.87-.769-1.507a4.594,4.594,0,0,0-.556-.487A4.7,4.7,0,0,0,53,50.3c.816-.36,1.386-.859,1.273-1.114"/>
        <path id="패스_14495" data-name="패스 14495" class="cls-6" d="M52.039,50.259a.457.457,0,1,1-.456-.456.456.456,0,0,1,.456.456"/>
        <path id="패스_14496" data-name="패스 14496" class="cls-5" d="M46.451,45.557c-.114-.255-.866-.171-1.682.189a4.822,4.822,0,0,0-.53.273c.014-.15.022-.309.022-.474,0-.891-.226-1.614-.5-1.614s-.506.723-.506,1.614c0,.165.008.324.022.474a4.822,4.822,0,0,0-.53-.273c-.816-.36-1.568-.444-1.68-.189s.458.754,1.272,1.114a4.727,4.727,0,0,0,.673.24,4.672,4.672,0,0,0-.556.487c-.624.637-.968,1.311-.769,1.507s.866-.163,1.491-.8a4.442,4.442,0,0,0,.58-.723,4.5,4.5,0,0,0,.581.723c.624.637,1.291.995,1.491.8s-.145-.87-.769-1.507a4.6,4.6,0,0,0-.556-.487,4.7,4.7,0,0,0,.674-.24c.816-.36,1.386-.859,1.273-1.114"/>
        <path id="패스_14497" data-name="패스 14497" class="cls-6" d="M44.212,46.626a.456.456,0,1,1-.456-.456.456.456,0,0,1,.456.456"/>
        <path id="패스_14498" data-name="패스 14498" class="cls-5" d="M50.36,45.557c-.114-.255-.866-.171-1.682.189a4.822,4.822,0,0,0-.53.273c.014-.15.022-.309.022-.474,0-.891-.226-1.614-.5-1.614s-.506.723-.506,1.614c0,.165.008.324.022.474a4.9,4.9,0,0,0-.529-.273c-.817-.36-1.569-.444-1.681-.189s.458.754,1.272,1.114a4.771,4.771,0,0,0,.673.24,4.672,4.672,0,0,0-.556.487c-.624.637-.968,1.311-.769,1.507s.866-.163,1.491-.8a4.441,4.441,0,0,0,.58-.723,4.5,4.5,0,0,0,.581.723c.624.637,1.291.995,1.492.8s-.146-.87-.77-1.507a4.6,4.6,0,0,0-.556-.487,4.7,4.7,0,0,0,.674-.24c.816-.36,1.386-.859,1.273-1.114"/>
        <path id="패스_14499" data-name="패스 14499" class="cls-6" d="M48.121,46.626a.456.456,0,1,1-.456-.456.456.456,0,0,1,.456.456"/>
        <path id="패스_14500" data-name="패스 14500" class="cls-5" d="M48.362,47.445c-.113-.255-.865-.171-1.681.189a4.822,4.822,0,0,0-.53.273c.014-.15.022-.309.022-.474,0-.891-.226-1.614-.505-1.614s-.505.723-.505,1.614c0,.165.008.324.022.474a4.822,4.822,0,0,0-.53-.273c-.816-.36-1.568-.444-1.681-.189s.458.754,1.273,1.114a4.726,4.726,0,0,0,.673.24,4.6,4.6,0,0,0-.556.487c-.624.637-.968,1.311-.768,1.507s.866-.163,1.49-.8a4.395,4.395,0,0,0,.581-.723,4.395,4.395,0,0,0,.581.723c.624.637,1.291.995,1.491.8s-.145-.87-.769-1.507a4.6,4.6,0,0,0-.556-.487,4.739,4.739,0,0,0,.674-.24c.816-.36,1.386-.859,1.273-1.114"/>
        <path id="패스_14501" data-name="패스 14501" class="cls-6" d="M46.124,48.512a.457.457,0,1,1-.457-.456.457.457,0,0,1,.457.456"/>
        <path id="패스_14502" data-name="패스 14502" class="cls-5" d="M48.362,40.96c-.113-.255-.865-.171-1.681.189a4.822,4.822,0,0,0-.53.273c.014-.15.022-.309.022-.474,0-.891-.226-1.614-.505-1.614s-.505.723-.505,1.614c0,.165.008.324.022.474a4.822,4.822,0,0,0-.53-.273c-.816-.36-1.568-.444-1.681-.189s.458.754,1.273,1.114a4.726,4.726,0,0,0,.673.24,4.6,4.6,0,0,0-.556.487c-.624.637-.968,1.311-.768,1.507s.866-.163,1.49-.8a4.394,4.394,0,0,0,.581-.723,4.394,4.394,0,0,0,.581.723c.624.637,1.291.995,1.491.8s-.145-.87-.769-1.507a4.6,4.6,0,0,0-.556-.487,4.739,4.739,0,0,0,.674-.24c.816-.36,1.386-.859,1.273-1.114"/>
        <path id="패스_14503" data-name="패스 14503" class="cls-6" d="M46.124,42.03a.457.457,0,1,1-.457-.456.457.457,0,0,1,.457.456"/>
        <path id="패스_14504" data-name="패스 14504" class="cls-5" d="M46.451,49.955c-.114-.255-.866-.171-1.682.189a4.821,4.821,0,0,0-.53.273c.014-.15.022-.309.022-.474,0-.891-.226-1.614-.5-1.614s-.506.723-.506,1.614c0,.165.008.324.022.474a4.821,4.821,0,0,0-.53-.273c-.816-.36-1.568-.444-1.68-.189s.458.754,1.272,1.114a4.727,4.727,0,0,0,.673.24,4.672,4.672,0,0,0-.556.487c-.624.637-.968,1.311-.769,1.507s.866-.163,1.491-.8a4.441,4.441,0,0,0,.58-.723,4.5,4.5,0,0,0,.581.723c.624.637,1.291,1,1.491.8s-.145-.87-.769-1.507a4.6,4.6,0,0,0-.556-.487,4.7,4.7,0,0,0,.674-.24c.816-.36,1.386-.859,1.273-1.114"/>
        <path id="패스_14505" data-name="패스 14505" class="cls-6" d="M44.212,51.025a.456.456,0,1,1-.456-.456.456.456,0,0,1,.456.456"/>
        <path id="패스_14506" data-name="패스 14506" class="cls-5" d="M50.537,49.955c-.113-.255-.865-.171-1.681.189a4.821,4.821,0,0,0-.53.273c.014-.15.022-.309.022-.474,0-.891-.226-1.614-.505-1.614s-.5.723-.5,1.614c0,.165.008.324.022.474a4.821,4.821,0,0,0-.53-.273c-.816-.36-1.568-.444-1.681-.189s.458.754,1.273,1.114a4.727,4.727,0,0,0,.673.24,4.594,4.594,0,0,0-.556.487c-.624.637-.968,1.311-.769,1.507s.866-.163,1.49-.8a4.394,4.394,0,0,0,.581-.723,4.447,4.447,0,0,0,.581.723c.624.637,1.291,1,1.491.8s-.145-.87-.769-1.507a4.6,4.6,0,0,0-.556-.487,4.739,4.739,0,0,0,.674-.24c.816-.36,1.386-.859,1.273-1.114"/>
        <path id="패스_14507" data-name="패스 14507" class="cls-6" d="M48.3,51.025a.456.456,0,1,1-.456-.456.456.456,0,0,1,.456.456"/>
        <path id="패스_14508" data-name="패스 14508" class="cls-5" d="M48.362,52.124c-.113-.255-.865-.171-1.681.189a4.822,4.822,0,0,0-.53.273c.014-.15.022-.309.022-.474,0-.891-.226-1.614-.505-1.614s-.505.723-.505,1.614c0,.165.008.324.022.474a4.822,4.822,0,0,0-.53-.273c-.816-.36-1.568-.444-1.681-.189s.458.754,1.273,1.114a4.726,4.726,0,0,0,.673.24,4.6,4.6,0,0,0-.556.487c-.624.637-.968,1.311-.768,1.507s.866-.163,1.49-.8a4.395,4.395,0,0,0,.581-.723,4.395,4.395,0,0,0,.581.723c.624.637,1.291.995,1.491.8s-.145-.87-.769-1.507a4.6,4.6,0,0,0-.556-.487,4.739,4.739,0,0,0,.674-.24c.816-.36,1.386-.859,1.273-1.114"/>
        <path id="패스_14509" data-name="패스 14509" class="cls-6" d="M46.124,53.194a.457.457,0,1,1-.457-.456.457.457,0,0,1,.457.456"/>
        <path id="패스_14510" data-name="패스 14510" class="cls-5" d="M17.441,39.858c-.114-.255-.866-.171-1.682.189a4.912,4.912,0,0,0-.53.273c.014-.15.023-.309.023-.474,0-.891-.226-1.614-.505-1.614s-.506.723-.506,1.614c0,.165.009.324.023.474a4.927,4.927,0,0,0-.531-.273c-.815-.36-1.568-.444-1.681-.189s.458.754,1.274,1.114a4.715,4.715,0,0,0,.672.24,4.585,4.585,0,0,0-.555.487c-.625.637-.969,1.311-.769,1.507s.866-.163,1.489-.8a4.453,4.453,0,0,0,.582-.723,4.441,4.441,0,0,0,.58.723c.625.637,1.291,1,1.491.8s-.145-.87-.769-1.507a4.594,4.594,0,0,0-.556-.487,4.7,4.7,0,0,0,.674-.24c.816-.36,1.386-.859,1.273-1.114"/>
        <path id="패스_14511" data-name="패스 14511" class="cls-6" d="M15.2,40.928a.456.456,0,1,1-.456-.456.456.456,0,0,1,.456.456"/>
        <path id="패스_14512" data-name="패스 14512" class="cls-5" d="M13.488,38.974c-.114-.255-.866-.171-1.682.189a4.913,4.913,0,0,0-.53.273c.014-.15.023-.309.023-.474,0-.891-.226-1.614-.506-1.614s-.505.723-.505,1.614c0,.165.009.324.023.474a4.928,4.928,0,0,0-.531-.273c-.815-.36-1.568-.444-1.681-.189s.458.754,1.274,1.114a4.714,4.714,0,0,0,.672.24,4.511,4.511,0,0,0-.555.487c-.625.637-.969,1.311-.77,1.507s.867-.163,1.49-.8a4.453,4.453,0,0,0,.582-.723,4.441,4.441,0,0,0,.58.723c.625.637,1.291.995,1.491.8s-.144-.87-.769-1.507a4.6,4.6,0,0,0-.556-.487,4.7,4.7,0,0,0,.674-.24c.816-.36,1.386-.859,1.273-1.114"/>
        <path id="패스_14513" data-name="패스 14513" class="cls-6" d="M11.248,40.043a.456.456,0,1,1-.456-.456.456.456,0,0,1,.456.456"/>
        <path id="패스_14514" data-name="패스 14514" class="cls-5" d="M12.148,45.534c-.114-.255-.866-.171-1.682.189a4.914,4.914,0,0,0-.53.273c.014-.15.022-.309.022-.474,0-.891-.225-1.614-.505-1.614s-.505.723-.505,1.614c0,.165.009.324.022.474a4.823,4.823,0,0,0-.53-.273c-.815-.36-1.568-.444-1.68-.189s.458.754,1.273,1.114a4.714,4.714,0,0,0,.672.24,4.6,4.6,0,0,0-.556.487c-.624.637-.968,1.311-.769,1.507s.867-.163,1.49-.8a4.395,4.395,0,0,0,.581-.723,4.447,4.447,0,0,0,.581.723c.624.637,1.291.995,1.491.8s-.145-.87-.769-1.507a4.6,4.6,0,0,0-.556-.487,4.7,4.7,0,0,0,.674-.24c.816-.36,1.386-.859,1.273-1.114"/>
        <path id="패스_14515" data-name="패스 14515" class="cls-6" d="M9.908,46.6a.456.456,0,1,1-.456-.456.456.456,0,0,1,.456.456"/>
        <path id="패스_14516" data-name="패스 14516" class="cls-5" d="M12.148,41.769c-.114-.255-.866-.171-1.682.189a4.913,4.913,0,0,0-.53.273c.014-.15.022-.309.022-.474,0-.891-.225-1.614-.505-1.614s-.505.723-.505,1.614c0,.165.009.324.022.474a4.822,4.822,0,0,0-.53-.273c-.815-.36-1.568-.444-1.68-.189s.458.754,1.273,1.114a4.714,4.714,0,0,0,.672.24,4.594,4.594,0,0,0-.556.487c-.624.637-.968,1.311-.769,1.507s.867-.163,1.49-.8a4.395,4.395,0,0,0,.581-.723,4.447,4.447,0,0,0,.581.723c.624.637,1.291.995,1.491.8s-.145-.87-.769-1.507a4.594,4.594,0,0,0-.556-.487,4.7,4.7,0,0,0,.674-.24c.816-.36,1.386-.859,1.273-1.114"/>
        <path id="패스_14517" data-name="패스 14517" class="cls-6" d="M9.908,42.839a.456.456,0,1,1-.456-.456.456.456,0,0,1,.456.456"/>
        <path id="패스_14518" data-name="패스 14518" class="cls-5" d="M23.354,41.769c-.113-.255-.865-.171-1.681.189a4.822,4.822,0,0,0-.53.273c.014-.15.022-.309.022-.474,0-.891-.226-1.614-.505-1.614s-.5.723-.5,1.614c0,.165.008.324.022.474a4.822,4.822,0,0,0-.53-.273c-.816-.36-1.568-.444-1.681-.189s.458.754,1.273,1.114a4.727,4.727,0,0,0,.673.24,4.594,4.594,0,0,0-.556.487c-.624.637-.968,1.311-.769,1.507s.866-.163,1.49-.8a4.395,4.395,0,0,0,.581-.723,4.447,4.447,0,0,0,.581.723c.624.637,1.291.995,1.491.8s-.145-.87-.769-1.507a4.594,4.594,0,0,0-.556-.487,4.739,4.739,0,0,0,.674-.24c.816-.36,1.386-.859,1.273-1.114"/>
        <path id="패스_14519" data-name="패스 14519" class="cls-6" d="M21.117,42.839a.456.456,0,1,1-.457-.456.456.456,0,0,1,.457.456"/>
        <path id="패스_14520" data-name="패스 14520" class="cls-5" d="M21.521,38.974c-.113-.255-.865-.171-1.681.189a4.822,4.822,0,0,0-.53.273c.014-.15.022-.309.022-.474,0-.891-.226-1.614-.505-1.614s-.5.723-.5,1.614c0,.165.008.324.022.474a4.822,4.822,0,0,0-.53-.273c-.816-.36-1.568-.444-1.681-.189s.458.754,1.273,1.114a4.727,4.727,0,0,0,.673.24,4.6,4.6,0,0,0-.556.487c-.624.637-.968,1.311-.769,1.507s.866-.163,1.49-.8a4.395,4.395,0,0,0,.581-.723,4.447,4.447,0,0,0,.581.723c.624.637,1.291.995,1.491.8s-.145-.87-.769-1.507a4.6,4.6,0,0,0-.556-.487,4.739,4.739,0,0,0,.674-.24c.816-.36,1.386-.859,1.273-1.114"/>
        <path id="패스_14521" data-name="패스 14521" class="cls-6" d="M19.284,40.043a.456.456,0,1,1-.457-.456.456.456,0,0,1,.457.456"/>
        <path id="패스_14522" data-name="패스 14522" class="cls-5" d="M23.354,45.847c-.113-.255-.865-.171-1.681.189a4.822,4.822,0,0,0-.53.273c.014-.15.022-.309.022-.474,0-.891-.226-1.614-.505-1.614s-.5.723-.5,1.614c0,.165.008.324.022.474a4.822,4.822,0,0,0-.53-.273c-.816-.36-1.568-.444-1.681-.189s.458.754,1.273,1.114a4.727,4.727,0,0,0,.673.24,4.71,4.71,0,0,0-.558.488c-.624.637-.968,1.311-.769,1.507s.866-.163,1.49-.8a4.395,4.395,0,0,0,.581-.723,4.447,4.447,0,0,0,.581.723c.624.637,1.291.995,1.491.8s-.145-.87-.769-1.507A4.6,4.6,0,0,0,21.4,47.2a4.74,4.74,0,0,0,.674-.24c.816-.36,1.386-.859,1.273-1.114"/>
        <path id="패스_14523" data-name="패스 14523" class="cls-6" d="M21.117,46.916a.456.456,0,1,1-.457-.456.456.456,0,0,1,.457.456"/>
        <path id="패스_14524" data-name="패스 14524" class="cls-5" d="M15.528,42.215c-.113-.255-.865-.171-1.681.189a4.822,4.822,0,0,0-.53.273c.014-.15.022-.309.022-.474,0-.891-.226-1.614-.505-1.614s-.5.723-.5,1.614c0,.165.008.324.022.474a4.822,4.822,0,0,0-.53-.273c-.816-.36-1.568-.444-1.681-.189s.458.754,1.273,1.114a4.727,4.727,0,0,0,.673.24,4.6,4.6,0,0,0-.556.487c-.624.637-.968,1.311-.769,1.507s.866-.163,1.49-.8a4.395,4.395,0,0,0,.581-.723,4.447,4.447,0,0,0,.581.723c.624.637,1.291.995,1.491.8s-.145-.87-.769-1.507a4.6,4.6,0,0,0-.556-.487,4.739,4.739,0,0,0,.674-.24c.816-.36,1.386-.859,1.273-1.114"/>
        <path id="패스_14525" data-name="패스 14525" class="cls-6" d="M13.29,43.284a.456.456,0,1,1-.456-.456.456.456,0,0,1,.456.456"/>
        <path id="패스_14526" data-name="패스 14526" class="cls-5" d="M19.438,42.215c-.114-.255-.866-.171-1.682.189a4.822,4.822,0,0,0-.53.273c.014-.15.022-.309.022-.474,0-.891-.226-1.614-.5-1.614s-.5.723-.5,1.614c0,.165.009.324.022.474a4.822,4.822,0,0,0-.53-.273c-.815-.36-1.568-.444-1.681-.189s.458.754,1.274,1.114a4.714,4.714,0,0,0,.672.24,4.6,4.6,0,0,0-.556.487c-.624.637-.968,1.311-.769,1.507s.866-.163,1.49-.8a4.395,4.395,0,0,0,.581-.723,4.447,4.447,0,0,0,.581.723c.624.637,1.291.995,1.491.8s-.145-.87-.769-1.507a4.6,4.6,0,0,0-.556-.487,4.739,4.739,0,0,0,.674-.24c.816-.36,1.386-.859,1.273-1.114"/>
        <path id="패스_14527" data-name="패스 14527" class="cls-6" d="M17.2,43.284a.456.456,0,1,1-.456-.456.456.456,0,0,1,.456.456"/>
        <path id="패스_14528" data-name="패스 14528" class="cls-5" d="M17.441,44.1c-.114-.255-.866-.171-1.682.189a4.914,4.914,0,0,0-.53.273c.014-.15.023-.309.023-.474,0-.891-.226-1.614-.505-1.614s-.506.723-.506,1.614c0,.165.009.324.023.474a4.928,4.928,0,0,0-.531-.273c-.815-.36-1.568-.444-1.681-.189s.458.754,1.274,1.114a4.714,4.714,0,0,0,.672.24,4.585,4.585,0,0,0-.555.487c-.625.637-.969,1.311-.769,1.507s.866-.163,1.489-.8a4.453,4.453,0,0,0,.582-.723,4.441,4.441,0,0,0,.58.723c.625.637,1.291.995,1.491.8s-.145-.87-.769-1.507a4.6,4.6,0,0,0-.556-.487,4.7,4.7,0,0,0,.674-.24c.816-.36,1.386-.859,1.273-1.114"/>
        <path id="패스_14529" data-name="패스 14529" class="cls-6" d="M15.2,45.17a.456.456,0,1,1-.456-.456.456.456,0,0,1,.456.456"/>
        <path id="패스_14530" data-name="패스 14530" class="cls-5" d="M17.441,37.618c-.114-.255-.866-.171-1.682.189a4.913,4.913,0,0,0-.53.273c.014-.15.023-.309.023-.474,0-.891-.226-1.614-.505-1.614s-.506.723-.506,1.614c0,.165.009.324.023.474a4.928,4.928,0,0,0-.531-.273c-.815-.36-1.568-.444-1.681-.189s.458.754,1.274,1.114a4.714,4.714,0,0,0,.672.24,4.585,4.585,0,0,0-.555.487c-.625.637-.969,1.311-.769,1.507s.866-.163,1.489-.8a4.453,4.453,0,0,0,.582-.723,4.441,4.441,0,0,0,.58.723c.625.637,1.291.995,1.491.8s-.145-.87-.769-1.507a4.6,4.6,0,0,0-.556-.487,4.7,4.7,0,0,0,.674-.24c.816-.36,1.386-.859,1.273-1.114"/>
        <path id="패스_14531" data-name="패스 14531" class="cls-6" d="M15.2,38.688a.456.456,0,1,1-.456-.456.456.456,0,0,1,.456.456"/>
        <path id="패스_14532" data-name="패스 14532" class="cls-5" d="M15.528,46.613c-.113-.255-.865-.17-1.681.189a4.822,4.822,0,0,0-.53.273c.014-.15.022-.309.022-.474,0-.891-.226-1.614-.505-1.614s-.5.723-.5,1.614c0,.165.008.324.022.474a4.822,4.822,0,0,0-.53-.273c-.816-.36-1.568-.444-1.681-.189s.458.754,1.273,1.114a4.853,4.853,0,0,0,.673.24,4.6,4.6,0,0,0-.556.487c-.624.637-.968,1.311-.769,1.507s.866-.163,1.49-.8a4.447,4.447,0,0,0,.581-.723,4.447,4.447,0,0,0,.581.723c.624.637,1.291.995,1.491.8s-.145-.87-.769-1.507a4.6,4.6,0,0,0-.556-.487,4.739,4.739,0,0,0,.674-.24c.816-.36,1.386-.859,1.273-1.114"/>
        <path id="패스_14533" data-name="패스 14533" class="cls-6" d="M13.29,47.683a.456.456,0,1,1-.456-.456.456.456,0,0,1,.456.456"/>
        <path id="패스_14534" data-name="패스 14534" class="cls-5" d="M19.615,46.613c-.113-.255-.865-.17-1.681.189a4.822,4.822,0,0,0-.53.273c.014-.15.022-.309.022-.474,0-.891-.226-1.614-.505-1.614s-.5.723-.5,1.614c0,.165.008.324.023.474a4.822,4.822,0,0,0-.53-.273c-.816-.36-1.568-.444-1.681-.189s.457.754,1.273,1.114a4.853,4.853,0,0,0,.673.24,4.585,4.585,0,0,0-.555.487c-.624.637-.968,1.311-.769,1.507s.867-.163,1.491-.8a4.447,4.447,0,0,0,.581-.723,4.441,4.441,0,0,0,.58.723c.624.637,1.292.995,1.491.8s-.145-.87-.769-1.507a4.6,4.6,0,0,0-.556-.487,4.866,4.866,0,0,0,.674-.24c.815-.36,1.385-.859,1.273-1.114"/>
        <path id="패스_14535" data-name="패스 14535" class="cls-6" d="M17.376,47.683a.456.456,0,1,1-.456-.456.456.456,0,0,1,.456.456"/>
        <path id="패스_14536" data-name="패스 14536" class="cls-5" d="M17.441,48.782c-.114-.255-.866-.171-1.682.189a4.912,4.912,0,0,0-.53.273c.014-.15.023-.309.023-.474,0-.891-.226-1.614-.505-1.614s-.506.723-.506,1.614c0,.165.009.324.023.474a4.927,4.927,0,0,0-.531-.273c-.815-.36-1.568-.444-1.681-.189s.458.754,1.274,1.114a4.714,4.714,0,0,0,.672.24,4.585,4.585,0,0,0-.555.487c-.625.637-.969,1.311-.769,1.507s.866-.163,1.489-.8a4.453,4.453,0,0,0,.582-.723,4.441,4.441,0,0,0,.58.723c.625.637,1.291.995,1.491.8s-.145-.87-.769-1.507a4.594,4.594,0,0,0-.556-.487,4.7,4.7,0,0,0,.674-.24c.816-.36,1.386-.859,1.273-1.114"/>
        <path id="패스_14537" data-name="패스 14537" class="cls-6" d="M15.2,49.852a.456.456,0,1,1-.456-.456.456.456,0,0,1,.456.456"/>
        <path id="패스_14538" data-name="패스 14538" class="cls-5" d="M11.413,23.334c-.114-.255-.866-.171-1.682.189a4.913,4.913,0,0,0-.53.273c.014-.15.023-.309.023-.474,0-.891-.226-1.614-.505-1.614s-.505.723-.505,1.614c0,.165.008.324.022.474a4.913,4.913,0,0,0-.53-.273c-.816-.36-1.568-.444-1.681-.189s.458.754,1.273,1.114a4.727,4.727,0,0,0,.673.24,4.594,4.594,0,0,0-.556.487c-.624.637-.968,1.311-.769,1.507s.866-.163,1.489-.8a4.4,4.4,0,0,0,.582-.723,4.441,4.441,0,0,0,.58.723c.625.637,1.292,1,1.491.8s-.144-.87-.769-1.507a4.662,4.662,0,0,0-.555-.487,4.727,4.727,0,0,0,.673-.24c.816-.36,1.386-.859,1.273-1.114"/>
        <path id="패스_14539" data-name="패스 14539" class="cls-6" d="M9.175,24.4a.457.457,0,1,1-.456-.456.456.456,0,0,1,.456.456"/>
        <path id="패스_14540" data-name="패스 14540" class="cls-5" d="M7.46,22.449c-.113-.255-.865-.171-1.681.189a4.822,4.822,0,0,0-.53.273c.014-.15.022-.309.022-.474,0-.891-.226-1.614-.505-1.614s-.5.723-.5,1.614c0,.165.008.324.022.474a4.822,4.822,0,0,0-.53-.273c-.816-.36-1.568-.444-1.681-.189s.458.754,1.273,1.114a4.727,4.727,0,0,0,.673.24,4.6,4.6,0,0,0-.556.487c-.624.637-.968,1.311-.769,1.507s.866-.163,1.49-.8a4.395,4.395,0,0,0,.581-.723A4.447,4.447,0,0,0,5.345,25c.624.637,1.291,1,1.491.8s-.145-.87-.769-1.507a4.6,4.6,0,0,0-.556-.487,4.739,4.739,0,0,0,.674-.24C7,23.2,7.571,22.7,7.458,22.449"/>
        <path id="패스_14541" data-name="패스 14541" class="cls-6" d="M5.22,23.519a.457.457,0,1,1-.457-.456.456.456,0,0,1,.457.456"/>
        <path id="패스_14542" data-name="패스 14542" class="cls-5" d="M6.121,29.009c-.114-.255-.866-.171-1.682.189a4.807,4.807,0,0,0-.529.273c.014-.15.022-.309.022-.474,0-.891-.226-1.614-.5-1.614s-.505.723-.505,1.614c0,.165.008.324.022.474a4.913,4.913,0,0,0-.53-.273c-.816-.36-1.569-.444-1.681-.189s.458.754,1.273,1.114a4.727,4.727,0,0,0,.673.24,4.52,4.52,0,0,0-.556.487c-.625.637-.968,1.311-.77,1.507s.867-.163,1.491-.8a4.337,4.337,0,0,0,.58-.723,4.5,4.5,0,0,0,.581.723c.624.637,1.291.995,1.492.8s-.145-.87-.77-1.507a4.653,4.653,0,0,0-.552-.488,4.739,4.739,0,0,0,.674-.24c.816-.36,1.386-.859,1.273-1.114"/>
        <path id="패스_14543" data-name="패스 14543" class="cls-6" d="M3.882,30.079a.457.457,0,1,1-.457-.456.456.456,0,0,1,.457.456"/>
        <path id="패스_14544" data-name="패스 14544" class="cls-5" d="M6.121,25.244c-.114-.255-.866-.171-1.682.189a4.807,4.807,0,0,0-.529.273c.014-.15.022-.309.022-.474,0-.891-.226-1.614-.5-1.614s-.505.723-.505,1.614c0,.165.008.324.022.474a4.913,4.913,0,0,0-.53-.273c-.816-.36-1.569-.444-1.681-.189s.458.754,1.273,1.114a4.727,4.727,0,0,0,.673.24,4.52,4.52,0,0,0-.556.487c-.625.637-.968,1.311-.77,1.507s.867-.163,1.491-.8a4.337,4.337,0,0,0,.58-.723,4.5,4.5,0,0,0,.581.723c.624.637,1.291,1,1.492.8s-.145-.87-.77-1.507a4.52,4.52,0,0,0-.556-.487,4.7,4.7,0,0,0,.674-.24c.816-.36,1.386-.859,1.273-1.114"/>
        <path id="패스_14545" data-name="패스 14545" class="cls-6" d="M3.882,26.314a.457.457,0,1,1-.457-.456.456.456,0,0,1,.457.456"/>
        <path id="패스_14546" data-name="패스 14546" class="cls-5" d="M17.327,25.244c-.113-.255-.865-.171-1.681.189a4.822,4.822,0,0,0-.53.273c.014-.15.022-.309.022-.474,0-.891-.226-1.614-.5-1.614s-.505.723-.505,1.614c0,.165.008.324.022.474a4.822,4.822,0,0,0-.53-.273c-.816-.36-1.568-.444-1.681-.189s.458.754,1.273,1.114a4.727,4.727,0,0,0,.673.24,4.6,4.6,0,0,0-.556.487c-.624.637-.968,1.311-.769,1.507s.866-.163,1.49-.8a4.394,4.394,0,0,0,.581-.723,4.447,4.447,0,0,0,.581.723c.624.637,1.291,1,1.491.8s-.145-.87-.769-1.507a4.6,4.6,0,0,0-.556-.487,4.739,4.739,0,0,0,.674-.24c.816-.36,1.386-.859,1.273-1.114"/>
        <path id="패스_14547" data-name="패스 14547" class="cls-6" d="M15.09,26.314a.457.457,0,1,1-.456-.456.456.456,0,0,1,.456.456"/>
        <path id="패스_14548" data-name="패스 14548" class="cls-5" d="M15.49,22.449c-.113-.255-.865-.171-1.681.189a4.822,4.822,0,0,0-.53.273c.014-.15.022-.309.022-.474,0-.891-.226-1.614-.505-1.614s-.5.723-.5,1.614c0,.165.008.324.022.474a4.822,4.822,0,0,0-.53-.273c-.816-.36-1.568-.444-1.681-.189s.458.754,1.273,1.114a4.727,4.727,0,0,0,.673.24,4.6,4.6,0,0,0-.556.487c-.624.637-.968,1.311-.769,1.507s.866-.163,1.49-.8a4.394,4.394,0,0,0,.581-.723,4.447,4.447,0,0,0,.581.723c.624.637,1.291,1,1.491.8s-.145-.87-.769-1.507a4.6,4.6,0,0,0-.556-.487,4.739,4.739,0,0,0,.674-.24c.816-.36,1.386-.859,1.273-1.114"/>
        <path id="패스_14549" data-name="패스 14549" class="cls-6" d="M13.257,23.519a.457.457,0,1,1-.457-.456.457.457,0,0,1,.457.456"/>
        <path id="패스_14550" data-name="패스 14550" class="cls-5" d="M17.327,29.322c-.113-.255-.865-.171-1.681.189a4.821,4.821,0,0,0-.53.273c.014-.15.022-.309.022-.474,0-.891-.226-1.614-.5-1.614s-.505.723-.505,1.614c0,.165.008.324.022.474a4.821,4.821,0,0,0-.53-.273c-.816-.36-1.568-.444-1.681-.189s.458.754,1.273,1.114a4.727,4.727,0,0,0,.673.24,4.6,4.6,0,0,0-.556.487c-.624.637-.968,1.311-.769,1.507s.866-.163,1.49-.8a4.395,4.395,0,0,0,.581-.723,4.447,4.447,0,0,0,.581.723c.624.637,1.291,1,1.491.8s-.145-.87-.769-1.507a4.6,4.6,0,0,0-.556-.487,4.739,4.739,0,0,0,.674-.24c.816-.36,1.386-.859,1.273-1.114"/>
        <circle id="타원_695" data-name="타원 695" class="cls-6" cx="0.456" cy="0.456" r="0.456" transform="translate(14.177 29.936)"/>
        <path id="패스_14551" data-name="패스 14551" class="cls-5" d="M9.5,25.69c-.113-.255-.865-.171-1.681.189a4.821,4.821,0,0,0-.53.273c.014-.15.022-.309.022-.474,0-.891-.226-1.614-.5-1.614s-.505.723-.505,1.614c0,.165.008.324.022.474a4.822,4.822,0,0,0-.53-.273c-.816-.36-1.568-.444-1.681-.189s.458.754,1.273,1.114a4.727,4.727,0,0,0,.673.24,4.6,4.6,0,0,0-.556.487c-.624.637-.968,1.311-.769,1.507s.866-.163,1.49-.8a4.395,4.395,0,0,0,.581-.723,4.447,4.447,0,0,0,.581.723c.624.637,1.291.995,1.491.8s-.145-.87-.769-1.507a4.6,4.6,0,0,0-.556-.487,4.739,4.739,0,0,0,.674-.24c.816-.36,1.386-.859,1.273-1.114"/>
        <path id="패스_14552" data-name="패스 14552" class="cls-6" d="M7.264,26.76a.456.456,0,1,1-.457-.456.456.456,0,0,1,.457.456"/>
        <path id="패스_14553" data-name="패스 14553" class="cls-5" d="M13.413,25.69c-.114-.255-.866-.171-1.682.189a4.913,4.913,0,0,0-.53.273c.014-.15.023-.309.023-.474,0-.891-.226-1.614-.505-1.614s-.505.723-.505,1.614c0,.165.008.324.022.474a4.927,4.927,0,0,0-.531-.273c-.815-.36-1.568-.444-1.681-.189s.459.754,1.274,1.114a4.759,4.759,0,0,0,.672.24,4.662,4.662,0,0,0-.555.487c-.625.637-.969,1.311-.769,1.507s.866-.163,1.489-.8a4.327,4.327,0,0,0,.577-.724,4.5,4.5,0,0,0,.581.723c.624.637,1.292,1,1.492.8s-.146-.87-.769-1.507a4.6,4.6,0,0,0-.556-.487,4.829,4.829,0,0,0,.674-.24c.816-.36,1.385-.859,1.272-1.114"/>
        <path id="패스_14554" data-name="패스 14554" class="cls-6" d="M11.172,26.76a.457.457,0,1,1-.457-.456A.457.457,0,0,1,11.172,26.76Z"/>
        <path id="패스_14555" data-name="패스 14555" class="cls-5" d="M11.413,27.575c-.114-.255-.866-.171-1.682.189a4.913,4.913,0,0,0-.53.273c.014-.15.023-.309.023-.474,0-.891-.226-1.614-.505-1.614s-.505.723-.505,1.614c0,.165.008.324.022.474a4.913,4.913,0,0,0-.53-.273c-.816-.36-1.568-.444-1.681-.189s.458.754,1.273,1.114a4.727,4.727,0,0,0,.673.24,4.594,4.594,0,0,0-.556.487c-.624.637-.968,1.311-.769,1.507s.866-.163,1.489-.8a4.4,4.4,0,0,0,.582-.723,4.441,4.441,0,0,0,.58.723c.625.637,1.292,1,1.491.8s-.144-.87-.769-1.507a4.662,4.662,0,0,0-.555-.487,4.727,4.727,0,0,0,.673-.24c.816-.36,1.386-.859,1.273-1.114"/>
        <path id="패스_14556" data-name="패스 14556" class="cls-6" d="M9.175,28.645a.457.457,0,1,1-.456-.456.456.456,0,0,1,.456.456"/>
        <path id="패스_14557" data-name="패스 14557" class="cls-5" d="M11.413,21.094c-.114-.255-.866-.171-1.682.189a4.913,4.913,0,0,0-.53.273c.014-.15.023-.309.023-.474,0-.891-.226-1.614-.505-1.614s-.505.723-.505,1.614c0,.165.008.324.022.474a4.913,4.913,0,0,0-.53-.273c-.816-.36-1.568-.444-1.681-.189s.458.754,1.273,1.114a4.727,4.727,0,0,0,.673.24,4.594,4.594,0,0,0-.556.487c-.624.637-.968,1.311-.769,1.507s.866-.163,1.489-.8a4.4,4.4,0,0,0,.582-.723,4.441,4.441,0,0,0,.58.723c.625.637,1.292.995,1.491.8s-.144-.87-.769-1.507a4.662,4.662,0,0,0-.555-.487,4.727,4.727,0,0,0,.673-.24c.816-.36,1.386-.859,1.273-1.114"/>
        <path id="패스_14558" data-name="패스 14558" class="cls-6" d="M9.175,22.163a.457.457,0,1,1-.456-.456.456.456,0,0,1,.456.456"/>
        <path id="패스_14559" data-name="패스 14559" class="cls-5" d="M9.5,30.089c-.113-.255-.865-.171-1.681.189a4.821,4.821,0,0,0-.53.273c.014-.15.022-.309.022-.474,0-.891-.226-1.614-.5-1.614s-.505.723-.505,1.614c0,.165.008.324.022.474a4.822,4.822,0,0,0-.53-.273c-.816-.36-1.568-.444-1.681-.189s.458.754,1.273,1.114a4.727,4.727,0,0,0,.673.24,4.6,4.6,0,0,0-.556.487c-.624.637-.968,1.311-.769,1.507s.866-.163,1.49-.8a4.395,4.395,0,0,0,.581-.723,4.447,4.447,0,0,0,.581.723c.624.637,1.291.995,1.491.8s-.145-.87-.769-1.507a4.6,4.6,0,0,0-.556-.487,4.739,4.739,0,0,0,.674-.24c.816-.36,1.386-.859,1.273-1.114"/>
        <path id="패스_14560" data-name="패스 14560" class="cls-6" d="M7.264,31.155a.456.456,0,1,1-.457-.456.456.456,0,0,1,.457.456"/>
        <path id="패스_14561" data-name="패스 14561" class="cls-5" d="M13.585,30.089c-.114-.255-.866-.171-1.682.189a4.913,4.913,0,0,0-.53.273c.014-.15.023-.309.023-.474,0-.891-.226-1.614-.505-1.614s-.506.723-.506,1.614c0,.165.009.324.023.474a4.927,4.927,0,0,0-.531-.273c-.815-.36-1.568-.444-1.681-.189s.459.754,1.274,1.114a4.759,4.759,0,0,0,.672.24,4.585,4.585,0,0,0-.555.487c-.625.637-.969,1.311-.769,1.507s.866-.163,1.489-.8a4.453,4.453,0,0,0,.582-.723,4.441,4.441,0,0,0,.58.723c.625.637,1.291.995,1.491.8s-.144-.87-.769-1.507a4.6,4.6,0,0,0-.556-.487,4.7,4.7,0,0,0,.674-.24c.816-.36,1.386-.859,1.273-1.114"/>
        <circle id="타원_696" data-name="타원 696" class="cls-6" cx="0.456" cy="0.456" r="0.456" transform="translate(10.437 30.699)"/>
        <path id="패스_14562" data-name="패스 14562" class="cls-5" d="M11.413,32.258c-.114-.255-.866-.171-1.682.189a4.913,4.913,0,0,0-.53.273c.014-.15.023-.309.023-.474,0-.891-.226-1.614-.505-1.614s-.505.723-.505,1.614c0,.165.008.324.022.474a4.913,4.913,0,0,0-.53-.273c-.816-.36-1.568-.444-1.681-.189s.458.754,1.273,1.114a4.727,4.727,0,0,0,.673.24,4.6,4.6,0,0,0-.556.487c-.624.637-.968,1.311-.769,1.507s.866-.163,1.489-.8a4.4,4.4,0,0,0,.582-.723,4.441,4.441,0,0,0,.58.723c.625.637,1.292.995,1.491.8s-.144-.87-.769-1.507a4.663,4.663,0,0,0-.555-.487,4.727,4.727,0,0,0,.673-.24c.816-.36,1.386-.859,1.273-1.114"/>
        <path id="패스_14563" data-name="패스 14563" class="cls-6" d="M9.175,33.33a.457.457,0,1,1-.456-.456.456.456,0,0,1,.456.456"/>
        <path id="패스_14564" data-name="패스 14564" class="cls-5" d="M33.912,18.011c-.113-.255-.865-.171-1.681.189a4.822,4.822,0,0,0-.53.273c.014-.15.022-.309.022-.474,0-.891-.226-1.614-.5-1.614s-.506.723-.506,1.614c0,.165.008.324.022.474a4.822,4.822,0,0,0-.53-.273c-.816-.36-1.568-.444-1.681-.189s.458.754,1.273,1.114a4.727,4.727,0,0,0,.673.24,4.594,4.594,0,0,0-.556.487c-.624.637-.968,1.311-.769,1.507s.866-.163,1.49-.8a4.394,4.394,0,0,0,.581-.723,4.447,4.447,0,0,0,.581.723c.624.637,1.291,1,1.491.8s-.145-.87-.769-1.507a4.6,4.6,0,0,0-.556-.487,4.739,4.739,0,0,0,.674-.24c.816-.36,1.386-.859,1.273-1.114"/>
        <path id="패스_14565" data-name="패스 14565" class="cls-6" d="M31.677,19.081a.457.457,0,1,1-.457-.456.457.457,0,0,1,.457.456"/>
        <path id="패스_14566" data-name="패스 14566" class="cls-5" d="M29.963,17.126c-.113-.255-.865-.171-1.681.189a4.822,4.822,0,0,0-.53.273c.014-.15.022-.309.022-.474,0-.891-.226-1.614-.505-1.614s-.5.723-.5,1.614c0,.165.008.324.022.474a4.822,4.822,0,0,0-.53-.273c-.816-.36-1.568-.444-1.681-.189s.459.753,1.273,1.114a4.727,4.727,0,0,0,.673.24,4.6,4.6,0,0,0-.556.487c-.624.637-.968,1.311-.769,1.507s.866-.163,1.49-.8a4.394,4.394,0,0,0,.581-.723,4.447,4.447,0,0,0,.581.723c.624.637,1.291,1,1.491.8s-.145-.87-.769-1.507a4.6,4.6,0,0,0-.556-.487,4.739,4.739,0,0,0,.674-.24c.816-.36,1.386-.859,1.273-1.114"/>
        <path id="패스_14567" data-name="패스 14567" class="cls-6" d="M27.725,18.2a.456.456,0,1,1-.457-.456A.456.456,0,0,1,27.725,18.2Z"/>
        <path id="패스_14568" data-name="패스 14568" class="cls-5" d="M28.622,23.687c-.113-.255-.865-.171-1.681.189a4.822,4.822,0,0,0-.53.273c.014-.15.022-.309.022-.474,0-.891-.226-1.614-.505-1.614s-.5.723-.5,1.614c0,.165.008.324.022.474a4.822,4.822,0,0,0-.53-.273c-.816-.36-1.568-.444-1.681-.189s.458.754,1.273,1.114a4.727,4.727,0,0,0,.673.24,4.594,4.594,0,0,0-.556.487c-.624.637-.968,1.311-.769,1.507s.866-.163,1.49-.8a4.395,4.395,0,0,0,.581-.723,4.447,4.447,0,0,0,.581.723c.624.637,1.291.995,1.491.8s-.145-.87-.769-1.507a4.6,4.6,0,0,0-.556-.487,4.739,4.739,0,0,0,.674-.24c.816-.36,1.386-.859,1.273-1.114"/>
        <path id="패스_14569" data-name="패스 14569" class="cls-6" d="M26.383,24.756a.456.456,0,1,1-.456-.456A.456.456,0,0,1,26.383,24.756Z"/>
        <path id="패스_14570" data-name="패스 14570" class="cls-5" d="M28.622,19.922c-.113-.255-.865-.171-1.681.189a4.822,4.822,0,0,0-.53.273c.014-.15.022-.309.022-.474,0-.891-.226-1.614-.505-1.614s-.5.723-.5,1.614c0,.165.008.324.022.474a4.822,4.822,0,0,0-.53-.273c-.816-.36-1.568-.444-1.681-.189s.458.754,1.273,1.114a4.727,4.727,0,0,0,.673.24,4.6,4.6,0,0,0-.556.487c-.624.637-.968,1.311-.769,1.507s.866-.163,1.49-.8a4.395,4.395,0,0,0,.581-.723,4.447,4.447,0,0,0,.581.723c.624.637,1.291,1,1.491.8s-.145-.87-.769-1.507a4.6,4.6,0,0,0-.556-.487,4.739,4.739,0,0,0,.674-.24c.816-.36,1.386-.859,1.273-1.114"/>
        <path id="패스_14571" data-name="패스 14571" class="cls-6" d="M26.383,20.991a.456.456,0,1,1-.456-.456.456.456,0,0,1,.456.456"/>
        <path id="패스_14572" data-name="패스 14572" class="cls-5" d="M39.83,19.922c-.113-.255-.865-.171-1.681.189a4.822,4.822,0,0,0-.53.273c.014-.15.022-.309.022-.474,0-.891-.226-1.614-.5-1.614s-.505.723-.505,1.614c0,.165.008.324.022.474a4.822,4.822,0,0,0-.53-.273c-.816-.36-1.568-.444-1.681-.189s.458.754,1.273,1.114a4.727,4.727,0,0,0,.673.24,4.6,4.6,0,0,0-.556.487c-.624.637-.968,1.311-.769,1.507s.866-.163,1.49-.8a4.395,4.395,0,0,0,.581-.723,4.447,4.447,0,0,0,.581.723c.624.637,1.291,1,1.491.8s-.145-.87-.769-1.507a4.6,4.6,0,0,0-.556-.487,4.739,4.739,0,0,0,.674-.24c.816-.36,1.386-.859,1.273-1.114"/>
        <path id="패스_14573" data-name="패스 14573" class="cls-6" d="M37.591,20.991a.456.456,0,1,1-.456-.456.456.456,0,0,1,.456.456"/>
        <path id="패스_14574" data-name="패스 14574" class="cls-5" d="M38,17.126c-.114-.255-.866-.171-1.682.189a4.913,4.913,0,0,0-.53.273c.014-.15.022-.309.022-.474,0-.891-.225-1.614-.5-1.614s-.505.723-.505,1.614c0,.165.007.324.021.474a4.9,4.9,0,0,0-.529-.273c-.817-.36-1.569-.444-1.681-.189s.458.754,1.272,1.114a4.739,4.739,0,0,0,.674.24,4.52,4.52,0,0,0-.556.487c-.625.637-.969,1.311-.77,1.507s.867-.163,1.491-.8a4.441,4.441,0,0,0,.58-.723,4.5,4.5,0,0,0,.581.723c.625.637,1.292,1,1.492.8s-.145-.87-.77-1.507a4.663,4.663,0,0,0-.555-.487,4.727,4.727,0,0,0,.673-.24c.816-.36,1.386-.859,1.273-1.114"/>
        <path id="패스_14575" data-name="패스 14575" class="cls-6" d="M35.758,18.2a.456.456,0,1,1-.456-.456A.456.456,0,0,1,35.758,18.2Z"/>
        <path id="패스_14576" data-name="패스 14576" class="cls-5" d="M39.83,24c-.113-.255-.865-.17-1.681.189a4.822,4.822,0,0,0-.53.273c.014-.15.022-.309.022-.474,0-.891-.226-1.614-.5-1.614s-.505.723-.505,1.614c0,.165.008.324.022.474a4.822,4.822,0,0,0-.53-.273c-.816-.36-1.568-.444-1.681-.189s.458.754,1.273,1.114a4.853,4.853,0,0,0,.673.24,4.594,4.594,0,0,0-.556.487c-.624.637-.968,1.311-.769,1.507s.866-.163,1.49-.8a4.395,4.395,0,0,0,.581-.723,4.447,4.447,0,0,0,.581.723c.624.637,1.291.995,1.491.8s-.145-.87-.769-1.507a4.6,4.6,0,0,0-.556-.487,4.739,4.739,0,0,0,.674-.24c.816-.36,1.386-.859,1.273-1.114"/>
        <path id="패스_14577" data-name="패스 14577" class="cls-6" d="M37.591,25.069a.456.456,0,1,1-.456-.456A.456.456,0,0,1,37.591,25.069Z"/>
        <path id="패스_14578" data-name="패스 14578" class="cls-5" d="M32.005,20.371c-.113-.255-.866-.171-1.682.189a4.9,4.9,0,0,0-.529.273c.014-.15.022-.309.022-.474,0-.891-.226-1.614-.5-1.614s-.505.723-.505,1.614c0,.165.008.324.022.474a5.008,5.008,0,0,0-.53-.273c-.816-.36-1.569-.444-1.681-.189s.458.754,1.273,1.114a4.727,4.727,0,0,0,.673.24,4.6,4.6,0,0,0-.556.487c-.625.637-.969,1.311-.769,1.507s.866-.163,1.49-.8a4.395,4.395,0,0,0,.581-.723,4.441,4.441,0,0,0,.58.723c.625.637,1.292.995,1.492.8s-.145-.87-.77-1.507a4.585,4.585,0,0,0-.555-.487,4.727,4.727,0,0,0,.673-.24c.816-.36,1.386-.859,1.273-1.114"/>
        <path id="패스_14579" data-name="패스 14579" class="cls-6" d="M29.765,21.437a.456.456,0,1,1-.456-.456.456.456,0,0,1,.456.456"/>
        <path id="패스_14580" data-name="패스 14580" class="cls-5" d="M35.912,20.371c-.113-.255-.865-.171-1.681.189a4.822,4.822,0,0,0-.53.273c.014-.15.022-.309.022-.474,0-.891-.226-1.614-.505-1.614s-.5.723-.5,1.614c0,.165.008.324.022.474a4.822,4.822,0,0,0-.53-.273c-.816-.36-1.568-.444-1.681-.189s.458.754,1.273,1.114a4.727,4.727,0,0,0,.673.24,4.594,4.594,0,0,0-.556.487c-.624.637-.968,1.311-.769,1.507s.866-.163,1.49-.8a4.394,4.394,0,0,0,.581-.723,4.447,4.447,0,0,0,.581.723c.624.637,1.291.995,1.491.8s-.145-.87-.769-1.507a4.6,4.6,0,0,0-.556-.487,4.739,4.739,0,0,0,.674-.24c.816-.36,1.386-.859,1.273-1.114"/>
        <path id="패스_14581" data-name="패스 14581" class="cls-6" d="M33.673,21.437a.456.456,0,1,1-.456-.456.456.456,0,0,1,.456.456"/>
        <path id="패스_14582" data-name="패스 14582" class="cls-5" d="M33.912,22.253c-.113-.255-.865-.17-1.681.189a4.822,4.822,0,0,0-.53.273c.014-.15.022-.309.022-.474,0-.891-.226-1.614-.5-1.614s-.505.723-.505,1.614c0,.165.008.324.022.474a4.822,4.822,0,0,0-.53-.273c-.816-.36-1.568-.444-1.681-.189s.458.754,1.273,1.114a4.853,4.853,0,0,0,.673.24,4.6,4.6,0,0,0-.556.487c-.624.637-.968,1.311-.769,1.507s.866-.163,1.49-.8a4.395,4.395,0,0,0,.581-.723,4.447,4.447,0,0,0,.581.723c.624.637,1.291.995,1.491.8s-.145-.87-.769-1.507a4.6,4.6,0,0,0-.556-.487,4.739,4.739,0,0,0,.674-.24c.816-.36,1.386-.859,1.273-1.114"/>
        <path id="패스_14583" data-name="패스 14583" class="cls-6" d="M31.677,23.323a.457.457,0,1,1-.457-.456.457.457,0,0,1,.457.456"/>
        <path id="패스_14584" data-name="패스 14584" class="cls-5" d="M33.912,15.771c-.113-.255-.865-.171-1.681.189a4.822,4.822,0,0,0-.53.273c.014-.15.022-.309.022-.474,0-.891-.226-1.614-.5-1.614s-.506.723-.506,1.614c0,.165.008.324.022.474a4.822,4.822,0,0,0-.53-.273c-.816-.36-1.568-.444-1.681-.189s.458.754,1.273,1.114a4.727,4.727,0,0,0,.673.24,4.594,4.594,0,0,0-.556.487c-.624.637-.968,1.311-.769,1.507s.866-.163,1.49-.8a4.394,4.394,0,0,0,.581-.723,4.447,4.447,0,0,0,.581.723c.624.637,1.291.995,1.491.8s-.145-.87-.769-1.507a4.6,4.6,0,0,0-.556-.487,4.739,4.739,0,0,0,.674-.24c.816-.36,1.386-.859,1.273-1.114"/>
        <path id="패스_14585" data-name="패스 14585" class="cls-6" d="M31.677,16.841a.457.457,0,1,1-.457-.456.457.457,0,0,1,.457.456"/>
        <path id="패스_14586" data-name="패스 14586" class="cls-5" d="M32.005,24.766c-.113-.255-.866-.171-1.682.189a4.9,4.9,0,0,0-.529.273c.014-.15.022-.309.022-.474,0-.891-.226-1.614-.5-1.614s-.505.723-.505,1.614c0,.165.008.324.022.474a5.007,5.007,0,0,0-.53-.273c-.816-.36-1.569-.444-1.681-.189s.458.754,1.273,1.114a4.727,4.727,0,0,0,.673.24,4.6,4.6,0,0,0-.556.487c-.625.637-.969,1.311-.769,1.507s.866-.163,1.49-.8a4.394,4.394,0,0,0,.581-.723,4.441,4.441,0,0,0,.58.723c.625.637,1.292,1,1.492.8s-.145-.87-.77-1.507a4.585,4.585,0,0,0-.555-.487,4.727,4.727,0,0,0,.673-.24c.816-.36,1.386-.859,1.273-1.114"/>
        <path id="패스_14587" data-name="패스 14587" class="cls-6" d="M29.765,25.836a.456.456,0,1,1-.456-.456A.456.456,0,0,1,29.765,25.836Z"/>
        <path id="패스_14588" data-name="패스 14588" class="cls-5" d="M36.09,24.766c-.113-.255-.865-.171-1.681.189a4.821,4.821,0,0,0-.53.273c.014-.15.022-.309.022-.474,0-.891-.226-1.614-.505-1.614s-.505.723-.505,1.614c0,.165.008.324.022.474a4.821,4.821,0,0,0-.53-.273c-.816-.36-1.568-.444-1.681-.189s.458.754,1.274,1.114a4.671,4.671,0,0,0,.672.24,4.6,4.6,0,0,0-.556.487c-.624.637-.968,1.311-.769,1.507s.866-.163,1.49-.8a4.394,4.394,0,0,0,.581-.723,4.447,4.447,0,0,0,.581.723c.624.637,1.291,1,1.491.8s-.145-.87-.769-1.507a4.594,4.594,0,0,0-.556-.487,4.739,4.739,0,0,0,.674-.24c.816-.36,1.386-.859,1.273-1.114"/>
        <path id="패스_14589" data-name="패스 14589" class="cls-6" d="M33.852,25.836a.457.457,0,1,1-.456-.456A.456.456,0,0,1,33.852,25.836Z"/>
        <path id="패스_14590" data-name="패스 14590" class="cls-5" d="M33.912,26.935c-.113-.255-.865-.171-1.681.189a4.822,4.822,0,0,0-.53.273c.014-.15.022-.309.022-.474,0-.891-.226-1.614-.5-1.614s-.505.723-.505,1.614c0,.165.008.324.022.474a4.822,4.822,0,0,0-.53-.273c-.816-.36-1.568-.444-1.681-.189s.458.754,1.273,1.114a4.727,4.727,0,0,0,.673.24,4.6,4.6,0,0,0-.556.487c-.624.637-.968,1.311-.769,1.507s.866-.163,1.49-.8a4.394,4.394,0,0,0,.581-.723,4.447,4.447,0,0,0,.581.723c.624.637,1.291,1,1.491.8s-.145-.87-.769-1.507a4.6,4.6,0,0,0-.556-.487,4.739,4.739,0,0,0,.674-.24c.816-.36,1.386-.859,1.273-1.114"/>
        <path id="패스_14591" data-name="패스 14591" class="cls-6" d="M31.677,28a.457.457,0,1,1-.457-.456.457.457,0,0,1,.457.456"/>
        <path id="패스_14592" data-name="패스 14592" class="cls-5" d="M34.227,35.061c-.114-.255-.866-.171-1.682.189a4.914,4.914,0,0,0-.53.273c.014-.15.022-.309.022-.474,0-.891-.225-1.614-.5-1.614s-.505.723-.505,1.614c0,.165.008.324.022.474a5.009,5.009,0,0,0-.53-.273c-.816-.36-1.569-.444-1.681-.189s.458.754,1.273,1.114a4.727,4.727,0,0,0,.673.24,4.594,4.594,0,0,0-.556.487c-.625.637-.969,1.311-.769,1.507s.866-.163,1.49-.8a4.395,4.395,0,0,0,.581-.723,4.441,4.441,0,0,0,.58.723c.625.637,1.292.995,1.492.8s-.145-.87-.77-1.507a4.662,4.662,0,0,0-.555-.487,4.727,4.727,0,0,0,.673-.24c.816-.36,1.386-.859,1.273-1.114"/>
        <path id="패스_14593" data-name="패스 14593" class="cls-6" d="M31.987,36.136a.456.456,0,1,1-.456-.456.456.456,0,0,1,.456.456"/>
        <path id="패스_14594" data-name="패스 14594" class="cls-5" d="M30.274,34.181c-.114-.255-.866-.171-1.682.189a4.72,4.72,0,0,0-.529.273c.013-.15.021-.309.021-.474,0-.891-.226-1.614-.5-1.614s-.506.723-.506,1.614c0,.165.009.324.023.474a4.928,4.928,0,0,0-.531-.273c-.816-.36-1.568-.444-1.681-.189s.459.754,1.274,1.114a4.671,4.671,0,0,0,.672.24,4.672,4.672,0,0,0-.556.487c-.624.637-.968,1.311-.768,1.507s.865-.163,1.49-.8a4.389,4.389,0,0,0,.58-.723,4.5,4.5,0,0,0,.581.723c.624.637,1.291.995,1.491.8s-.145-.87-.769-1.507a4.6,4.6,0,0,0-.556-.487,4.7,4.7,0,0,0,.674-.24c.816-.36,1.386-.859,1.273-1.114"/>
        <path id="패스_14595" data-name="패스 14595" class="cls-6" d="M28.035,35.251a.456.456,0,1,1-.456-.456.456.456,0,0,1,.456.456"/>
        <path id="패스_14596" data-name="패스 14596" class="cls-5" d="M28.934,40.741c-.114-.255-.866-.171-1.682.189a4.822,4.822,0,0,0-.53.273c.014-.15.022-.309.022-.474,0-.891-.226-1.614-.5-1.614s-.506.723-.506,1.614c0,.165.009.324.023.474a4.928,4.928,0,0,0-.531-.273c-.816-.36-1.568-.444-1.681-.189s.458.754,1.274,1.114a4.671,4.671,0,0,0,.672.24,4.672,4.672,0,0,0-.556.487c-.624.637-.968,1.311-.768,1.507s.865-.163,1.489-.8a4.395,4.395,0,0,0,.581-.723,4.5,4.5,0,0,0,.581.723c.624.637,1.291.995,1.491.8s-.145-.87-.769-1.507a4.594,4.594,0,0,0-.556-.487,4.7,4.7,0,0,0,.674-.24c.816-.36,1.386-.859,1.273-1.114"/>
        <path id="패스_14597" data-name="패스 14597" class="cls-6" d="M26.694,41.811a.456.456,0,1,1-.456-.456.456.456,0,0,1,.456.456"/>
        <path id="패스_14598" data-name="패스 14598" class="cls-5" d="M28.934,36.977c-.114-.255-.866-.171-1.682.189a4.822,4.822,0,0,0-.53.273c.014-.15.022-.309.022-.474,0-.891-.226-1.614-.5-1.614s-.506.723-.506,1.614c0,.165.009.324.023.474a4.928,4.928,0,0,0-.531-.273c-.816-.36-1.568-.444-1.681-.189s.458.754,1.274,1.114a4.671,4.671,0,0,0,.672.24,4.672,4.672,0,0,0-.556.487c-.624.637-.968,1.311-.768,1.507s.865-.163,1.489-.8a4.395,4.395,0,0,0,.581-.723,4.5,4.5,0,0,0,.581.723c.624.637,1.291.995,1.491.8s-.145-.87-.769-1.507a4.594,4.594,0,0,0-.556-.487,4.7,4.7,0,0,0,.674-.24c.816-.36,1.386-.859,1.273-1.114"/>
        <path id="패스_14599" data-name="패스 14599" class="cls-6" d="M26.694,38.046a.456.456,0,1,1-.456-.456.456.456,0,0,1,.456.456"/>
        <path id="패스_14600" data-name="패스 14600" class="cls-5" d="M40.14,36.977c-.113-.255-.865-.171-1.681.189a4.822,4.822,0,0,0-.53.273c.014-.15.022-.309.022-.474,0-.891-.226-1.614-.505-1.614s-.5.723-.5,1.614c0,.165.008.324.022.474a4.822,4.822,0,0,0-.53-.273c-.816-.36-1.568-.444-1.681-.189s.458.754,1.273,1.114a4.726,4.726,0,0,0,.673.24,4.594,4.594,0,0,0-.556.487c-.624.637-.968,1.311-.769,1.507s.866-.163,1.49-.8a4.394,4.394,0,0,0,.581-.723,4.447,4.447,0,0,0,.581.723c.624.637,1.291.995,1.491.8s-.145-.87-.769-1.507a4.6,4.6,0,0,0-.556-.487,4.739,4.739,0,0,0,.674-.24c.816-.36,1.386-.859,1.273-1.114"/>
        <path id="패스_14601" data-name="패스 14601" class="cls-6" d="M37.9,38.046a.456.456,0,1,1-.457-.456.457.457,0,0,1,.457.456"/>
        <path id="패스_14602" data-name="패스 14602" class="cls-5" d="M38.307,34.181c-.113-.255-.865-.171-1.681.189a4.822,4.822,0,0,0-.53.273c.014-.15.022-.309.022-.474,0-.891-.226-1.614-.505-1.614s-.5.723-.5,1.614c0,.165.008.324.022.474a4.822,4.822,0,0,0-.53-.273c-.816-.36-1.568-.444-1.681-.189s.458.754,1.273,1.114a4.726,4.726,0,0,0,.673.24,4.6,4.6,0,0,0-.556.487c-.624.637-.968,1.311-.769,1.507s.867-.163,1.49-.8a4.395,4.395,0,0,0,.581-.723,4.447,4.447,0,0,0,.581.723c.624.637,1.291.995,1.491.8s-.145-.87-.769-1.507a4.6,4.6,0,0,0-.556-.487,4.739,4.739,0,0,0,.674-.24c.816-.36,1.386-.859,1.273-1.114"/>
        <path id="패스_14603" data-name="패스 14603" class="cls-6" d="M36.07,35.251a.456.456,0,1,1-.456-.456.456.456,0,0,1,.456.456"/>
        <path id="패스_14604" data-name="패스 14604" class="cls-5" d="M40.14,41.054c-.113-.255-.865-.171-1.681.189a4.822,4.822,0,0,0-.53.273c.014-.15.022-.309.022-.474,0-.891-.226-1.614-.505-1.614s-.5.723-.5,1.614c0,.165.008.324.022.474a4.822,4.822,0,0,0-.53-.273c-.816-.36-1.568-.444-1.681-.189s.458.754,1.273,1.114a4.726,4.726,0,0,0,.673.24,4.594,4.594,0,0,0-.556.487c-.624.637-.968,1.311-.769,1.507s.866-.163,1.49-.8a4.395,4.395,0,0,0,.581-.723,4.447,4.447,0,0,0,.581.723c.624.637,1.291.995,1.491.8s-.145-.87-.769-1.507a4.6,4.6,0,0,0-.556-.487,4.739,4.739,0,0,0,.674-.24c.816-.36,1.386-.859,1.273-1.114"/>
        <path id="패스_14605" data-name="패스 14605" class="cls-6" d="M37.9,42.124a.456.456,0,1,1-.457-.456.457.457,0,0,1,.457.456"/>
        <path id="패스_14606" data-name="패스 14606" class="cls-5" d="M32.315,37.422c-.113-.255-.865-.171-1.681.189a4.822,4.822,0,0,0-.53.273c.014-.15.022-.309.022-.474,0-.891-.226-1.614-.5-1.614s-.505.723-.505,1.614c0,.165.008.324.022.474a4.823,4.823,0,0,0-.53-.273c-.816-.36-1.568-.444-1.681-.189s.458.754,1.273,1.114a4.727,4.727,0,0,0,.673.24,4.594,4.594,0,0,0-.556.487c-.624.637-.968,1.311-.769,1.507s.866-.163,1.49-.8a4.395,4.395,0,0,0,.581-.723,4.447,4.447,0,0,0,.581.723c.624.637,1.291.995,1.491.8s-.145-.87-.769-1.507a4.594,4.594,0,0,0-.556-.487,4.739,4.739,0,0,0,.674-.24c.816-.36,1.386-.859,1.273-1.114"/>
        <path id="패스_14607" data-name="패스 14607" class="cls-6" d="M30.076,38.487a.456.456,0,1,1-.456-.456.456.456,0,0,1,.456.456"/>
        <path id="패스_14608" data-name="패스 14608" class="cls-5" d="M36.223,37.422c-.113-.255-.865-.171-1.681.189a4.822,4.822,0,0,0-.53.273c.014-.15.022-.309.022-.474,0-.891-.226-1.614-.505-1.614s-.505.723-.505,1.614c0,.165.008.324.022.474a4.822,4.822,0,0,0-.53-.273c-.816-.36-1.568-.444-1.681-.189s.458.754,1.273,1.114a4.726,4.726,0,0,0,.673.24,4.6,4.6,0,0,0-.556.487c-.624.637-.968,1.311-.769,1.507s.866-.163,1.49-.8a4.395,4.395,0,0,0,.581-.723,4.447,4.447,0,0,0,.581.723c.624.637,1.291.995,1.491.8s-.145-.87-.769-1.507a4.594,4.594,0,0,0-.556-.487,4.739,4.739,0,0,0,.674-.24c.816-.36,1.386-.859,1.273-1.114"/>
        <path id="패스_14609" data-name="패스 14609" class="cls-6" d="M33.985,38.487a.457.457,0,1,1-.457-.456.457.457,0,0,1,.457.456"/>
        <path id="패스_14610" data-name="패스 14610" class="cls-5" d="M34.227,39.308c-.114-.255-.866-.171-1.682.189a4.913,4.913,0,0,0-.53.273c.014-.15.022-.309.022-.474,0-.891-.225-1.614-.5-1.614s-.505.723-.505,1.614c0,.165.008.324.022.474a5.007,5.007,0,0,0-.53-.273c-.816-.36-1.569-.444-1.681-.189s.458.754,1.273,1.114a4.727,4.727,0,0,0,.673.24,4.6,4.6,0,0,0-.556.487c-.625.637-.969,1.311-.769,1.507s.866-.163,1.49-.8a4.394,4.394,0,0,0,.581-.723,4.441,4.441,0,0,0,.58.723c.625.637,1.292,1,1.492.8s-.145-.87-.77-1.507a4.663,4.663,0,0,0-.555-.487,4.727,4.727,0,0,0,.673-.24c.816-.36,1.386-.859,1.273-1.114"/>
        <path id="패스_14611" data-name="패스 14611" class="cls-6" d="M31.987,40.377a.456.456,0,1,1-.456-.456.456.456,0,0,1,.456.456"/>
        <path id="패스_14612" data-name="패스 14612" class="cls-5" d="M34.227,32.826c-.114-.255-.866-.171-1.682.189a4.914,4.914,0,0,0-.53.273c.014-.15.022-.309.022-.474,0-.891-.225-1.614-.5-1.614s-.505.723-.505,1.614c0,.165.008.324.022.474a5.009,5.009,0,0,0-.53-.273c-.816-.36-1.569-.444-1.681-.189s.458.754,1.273,1.114a4.727,4.727,0,0,0,.673.24,4.6,4.6,0,0,0-.556.487c-.625.637-.969,1.311-.769,1.507s.866-.163,1.49-.8a4.395,4.395,0,0,0,.581-.723,4.441,4.441,0,0,0,.58.723c.625.637,1.292.995,1.492.8s-.145-.87-.77-1.507a4.663,4.663,0,0,0-.555-.487,4.727,4.727,0,0,0,.673-.24c.816-.36,1.386-.859,1.273-1.114"/>
        <path id="패스_14613" data-name="패스 14613" class="cls-6" d="M31.987,33.9a.456.456,0,1,1-.456-.456.456.456,0,0,1,.456.456"/>
        <path id="패스_14614" data-name="패스 14614" class="cls-5" d="M32.315,41.821c-.113-.255-.865-.171-1.681.189a4.822,4.822,0,0,0-.53.273c.014-.15.022-.309.022-.474,0-.891-.226-1.614-.5-1.614s-.505.723-.505,1.614c0,.165.008.324.022.474a4.822,4.822,0,0,0-.53-.273c-.816-.36-1.568-.444-1.681-.189s.458.754,1.273,1.114a4.727,4.727,0,0,0,.673.24,4.6,4.6,0,0,0-.556.487c-.624.637-.968,1.311-.769,1.507s.866-.163,1.49-.8a4.394,4.394,0,0,0,.581-.723,4.447,4.447,0,0,0,.581.723c.624.637,1.291.995,1.491.8s-.145-.87-.769-1.507a4.6,4.6,0,0,0-.556-.487,4.739,4.739,0,0,0,.674-.24c.816-.36,1.386-.859,1.273-1.114"/>
        <path id="패스_14615" data-name="패스 14615" class="cls-6" d="M30.076,42.891a.456.456,0,1,1-.456-.456.456.456,0,0,1,.456.456"/>
        <path id="패스_14616" data-name="패스 14616" class="cls-5" d="M36.4,41.821c-.114-.255-.866-.171-1.682.189a4.822,4.822,0,0,0-.53.273c.014-.15.022-.309.022-.474,0-.891-.226-1.614-.5-1.614s-.506.723-.506,1.614c0,.165.008.324.022.474a4.822,4.822,0,0,0-.53-.273c-.816-.36-1.568-.444-1.68-.189s.458.754,1.272,1.114a4.727,4.727,0,0,0,.673.24,4.672,4.672,0,0,0-.556.487c-.624.637-.968,1.311-.768,1.507s.866-.163,1.49-.8a4.442,4.442,0,0,0,.58-.723,4.5,4.5,0,0,0,.581.723c.624.637,1.291.995,1.492.8s-.146-.87-.77-1.507a4.6,4.6,0,0,0-.556-.487,4.7,4.7,0,0,0,.674-.24c.816-.36,1.386-.859,1.273-1.114"/>
        <path id="패스_14617" data-name="패스 14617" class="cls-6" d="M34.162,42.891a.456.456,0,1,1-.456-.456.456.456,0,0,1,.456.456"/>
        <path id="패스_14618" data-name="패스 14618" class="cls-5" d="M34.227,43.99c-.114-.255-.866-.171-1.682.189a4.913,4.913,0,0,0-.53.273c.014-.15.022-.309.022-.474,0-.891-.225-1.614-.5-1.614s-.505.723-.505,1.614c0,.165.008.324.022.474a5.007,5.007,0,0,0-.53-.273c-.816-.36-1.569-.444-1.681-.189s.458.754,1.273,1.114a4.727,4.727,0,0,0,.673.24,4.594,4.594,0,0,0-.556.487c-.625.637-.969,1.311-.769,1.507s.866-.163,1.49-.8a4.394,4.394,0,0,0,.581-.723,4.441,4.441,0,0,0,.58.723c.625.637,1.292,1,1.492.8s-.145-.87-.77-1.507a4.662,4.662,0,0,0-.555-.487,4.727,4.727,0,0,0,.673-.24c.816-.36,1.386-.859,1.273-1.114"/>
        <path id="패스_14619" data-name="패스 14619" class="cls-6" d="M31.987,45.06a.456.456,0,1,1-.456-.456.456.456,0,0,1,.456.456"/>
        <rect id="사각형_2831" data-name="사각형 2831" class="cls-7" width="30.374" height="5.287" transform="translate(16.249 71.52)"/>
        <rect id="사각형_2832" data-name="사각형 2832" class="cls-8" width="30.374" height="0.889" transform="translate(16.249 76.807)"/>
        <path id="패스_14620" data-name="패스 14620" class="cls-7" d="M41.75,94.149H21.122a1.85,1.85,0,0,1-1.837-1.636L16.249,77.7H46.623L43.588,92.509a1.851,1.851,0,0,1-1.838,1.64"/>
        <path id="패스_14621" data-name="패스 14621" class="cls-3" d="M30.4,66.823c-.461-.213-11.344-5.292-15.575-11.409l1.644-1.139c3.921,5.668,14.662,10.683,14.771,10.734Z"/>
        <path id="패스_14622" data-name="패스 14622" class="cls-3" d="M32.784,63.041c-.8,0-1.3-.049-1.378-.058l.209-1.988c.081.006,8.261.775,13.919-4.974l1.425,1.4c-4.939,5.018-11.383,5.617-14.175,5.617"/>
        <path id="패스_14623" data-name="패스 14623" class="cls-3" d="M29.016,58.26c-1.924-1.338-3.882-4.58-3.781-5.959s2.388-1.694,4.307-.354a5.559,5.559,0,0,1,2.479,5.065c-.146,1.743-1.084,2.587-3.007,1.25"/>
        <path id="패스_14624" data-name="패스 14624" class="cls-3" d="M30.232,59.645c-2.288.509-6-.249-6.944-1.257s.372-2.9,2.657-3.408a5.562,5.562,0,0,1,5.405,1.609c1.183,1.289,1.169,2.55-1.118,3.058"/>
        <path id="패스_14625" data-name="패스 14625" class="cls-3" d="M19.236,62.168c-2.2.8-5.98.535-7.049-.341S12.178,58.9,14.378,58.1a5.562,5.562,0,0,1,5.569.891c1.34,1.123,1.49,2.375-.711,3.177"/>
        <path id="패스_14626" data-name="패스 14626" class="cls-3" d="M21.393,63.309c-.884,2.171-3.618,4.791-4.985,5s-2.177-1.958-1.29-4.124a5.559,5.559,0,0,1,4.4-3.529c1.733-.24,2.761.49,1.878,2.659"/>
        <path id="패스_14627" data-name="패스 14627" class="cls-3" d="M42.44,62.091c-1.729-1.58-1.114-2.68.554-3.208a5.56,5.56,0,0,1,5.488,1.3c1.731,1.575,1.928,3.876.606,4.278s-4.917-.789-6.647-2.37"/>
        <path id="패스_14628" data-name="패스 14628" class="cls-3" d="M40.01,62.322c.01-2.342,1.239-2.625,2.75-1.743a5.559,5.559,0,0,1,2.722,4.939c0,2.34-1.578,4.031-2.764,3.321S40,64.665,40.012,62.322"/>
        <path id="패스_14629" data-name="패스 14629" class="cls-3" d="M59.987,42.305c-1.875,1.406-5.568,2.245-6.845,1.716s-.858-2.8,1.017-4.2a5.561,5.561,0,0,1,5.588-.761c1.609.687,2.115,1.842.241,3.247"/>
        <path id="패스_14630" data-name="패스 14630" class="cls-3" d="M58.874,46.777c-2.34-.136-5.7-1.878-6.336-3.106s1.151-2.693,3.487-2.552a5.562,5.562,0,0,1,4.76,3.024c.785,1.563.427,2.772-1.912,2.636"/>
        <path id="패스_14631" data-name="패스 14631" class="cls-3" d="M2.127,47.42c-1.874-1.4-1.368-2.56.241-3.247a5.561,5.561,0,0,1,5.588.761c1.875,1.4,2.294,3.671,1.017,4.2S4,48.824,2.128,47.418"/>
        <path id="패스_14632" data-name="패스 14632" class="cls-3" d="M3.243,51.893C.9,52.029.546,50.82,1.332,49.257a5.563,5.563,0,0,1,4.76-3.025c2.336-.14,4.121,1.325,3.487,2.553s-4,2.97-6.337,3.106"/>
        <path id="패스_14633" data-name="패스 14633" class="cls-9" d="M48.914,21.213a1.312,1.312,0,0,0,1-1.049c.023-.165-.233-.435-.259-.71-.112-1.16-.411-2.867-1.4-1.77a9.551,9.551,0,0,0-1.728,3.34,5.258,5.258,0,0,1-.241-2.371v0a1.842,1.842,0,0,1,.406-1.107.68.68,0,0,1,.708-.021l.031-.066a.757.757,0,0,0-.784.029l-.005,0,0,0a1.911,1.911,0,0,0-.424,1.151,5.366,5.366,0,0,0,.278,2.5c-.018.062-.027.1-.027.1l-.094-.03a5.374,5.374,0,0,0-1.964-1.58,1.908,1.908,0,0,0-1.2-.26H43.2l-.005,0a.752.752,0,0,0-.445.644l.072.008a.68.68,0,0,1,.4-.584,1.831,1.831,0,0,1,1.149.253,5.26,5.26,0,0,1,1.872,1.478,9.539,9.539,0,0,0-3.745-.336c-1.457.243-.177,1.413.743,2.13.218.171.308.531.46.6a1.314,1.314,0,0,0,1.422-.28s-.637,2.147.676,2.075,1,.232,1.374.21.61-1.929.61-1.929,1.735.828,1.955.522-.205-.2.561-1.272-1.387-1.684-1.387-1.684"/>
        <path id="패스_14634" data-name="패스 14634" class="cls-5" d="M49.66,19.824a1.314,1.314,0,0,0,1-1.049c.023-.165-.232-.435-.259-.71-.112-1.16-.411-2.867-1.4-1.77a9.551,9.551,0,0,0-1.728,3.34,5.259,5.259,0,0,1-.241-2.371v0a1.842,1.842,0,0,1,.406-1.107.68.68,0,0,1,.708-.021l.031-.066a.757.757,0,0,0-.784.029l-.005,0,0,0a1.911,1.911,0,0,0-.424,1.151,5.366,5.366,0,0,0,.278,2.5c-.018.062-.027.1-.027.1l-.094-.03a5.374,5.374,0,0,0-1.964-1.58,1.908,1.908,0,0,0-1.2-.26h-.006l-.005,0a.752.752,0,0,0-.445.644l.072.008a.68.68,0,0,1,.4-.584,1.831,1.831,0,0,1,1.149.253,5.26,5.26,0,0,1,1.872,1.478,9.539,9.539,0,0,0-3.745-.336c-1.457.243-.177,1.413.743,2.13.218.171.308.531.46.6a1.314,1.314,0,0,0,1.422-.28s-.637,2.147.676,2.075,1,.232,1.374.21.61-1.929.61-1.929,1.735.828,1.955.522-.205-.2.561-1.272-1.387-1.684-1.387-1.684"/>
        <path id="패스_14635" data-name="패스 14635" class="cls-9" d="M17.376,12.735A1.925,1.925,0,0,1,15.913,11.2c-.032-.242.341-.637.382-1.04.162-1.7.6-4.2,2.045-2.59a13.992,13.992,0,0,1,2.53,4.889,7.687,7.687,0,0,0,.353-3.471V8.982a2.689,2.689,0,0,0-.593-1.62,1,1,0,0,0-1.036-.032l-.046-.1a1.106,1.106,0,0,1,1.147.043l.007,0,.006.006A2.8,2.8,0,0,1,21.33,8.97a7.857,7.857,0,0,1-.407,3.664c.026.091.039.141.039.141l.138-.043a7.87,7.87,0,0,1,2.873-2.311,2.782,2.782,0,0,1,1.755-.38h.009l.007,0a1.1,1.1,0,0,1,.654.942L26.291,11a.992.992,0,0,0-.582-.856,2.687,2.687,0,0,0-1.684.369,7.69,7.69,0,0,0-2.739,2.165,13.943,13.943,0,0,1,5.482-.493c2.132.357.259,2.068-1.088,3.119-.319.25-.451.777-.673.881a1.925,1.925,0,0,1-2.082-.41s.933,3.143-.989,3.038-1.46.338-2.012.306-.893-2.823-.893-2.823-2.539,1.212-2.861.764.3-.3-.822-1.862,2.031-2.466,2.031-2.466"/>
        <path id="패스_14636" data-name="패스 14636" class="cls-10" d="M16.284,10.7a1.925,1.925,0,0,1-1.463-1.536c-.032-.242.341-.637.382-1.04.162-1.7.6-4.2,2.045-2.59a13.991,13.991,0,0,1,2.53,4.889,7.687,7.687,0,0,0,.353-3.471V6.949a2.689,2.689,0,0,0-.593-1.62A1,1,0,0,0,18.5,5.3l-.046-.1a1.106,1.106,0,0,1,1.147.043l.007,0,.006.006a2.8,2.8,0,0,1,.622,1.685,7.857,7.857,0,0,1-.407,3.664c.026.091.039.141.039.141l.138-.043a7.87,7.87,0,0,1,2.873-2.311,2.782,2.782,0,0,1,1.755-.38h.009l.007,0a1.1,1.1,0,0,1,.654.942l-.107.013a.992.992,0,0,0-.582-.856,2.687,2.687,0,0,0-1.684.369,7.69,7.69,0,0,0-2.739,2.165,13.943,13.943,0,0,1,5.482-.493c2.132.357.259,2.068-1.088,3.119-.319.25-.451.777-.673.881a1.925,1.925,0,0,1-2.082-.41s.933,3.143-.989,3.038-1.46.338-2.012.306-.893-2.823-.893-2.823-2.539,1.212-2.861.764.3-.3-.822-1.862S16.287,10.7,16.287,10.7"/>
        <path id="패스_14637" data-name="패스 14637" class="cls-9" d="M4.971,20.348a1.4,1.4,0,0,1-1.065-1.119c-.024-.176.248-.463.278-.757.118-1.236.437-3.056,1.489-1.886a10.183,10.183,0,0,1,1.843,3.561,5.62,5.62,0,0,0,.257-2.528v0a1.966,1.966,0,0,0-.432-1.18.725.725,0,0,0-.754-.023l-.034-.072a.8.8,0,0,1,.835.032l.006,0,0,0a2.042,2.042,0,0,1,.452,1.227,5.715,5.715,0,0,1-.3,2.669c.019.066.028.1.028.1l.1-.031a5.72,5.72,0,0,1,2.092-1.683,2.026,2.026,0,0,1,1.279-.277h.006l0,0a.8.8,0,0,1,.476.686l-.077.009a.725.725,0,0,0-.425-.623,1.952,1.952,0,0,0-1.226.269,5.6,5.6,0,0,0-1.995,1.576,10.172,10.172,0,0,1,3.993-.359c1.553.26.188,1.507-.793,2.272-.232.182-.328.566-.49.641a1.4,1.4,0,0,1-1.516-.3s.679,2.288-.72,2.212-1.064.246-1.466.223-.65-2.056-.65-2.056-1.849.883-2.083.557.217-.217-.6-1.356,1.479-1.8,1.479-1.8"/>
        <path id="패스_14638" data-name="패스 14638" class="cls-11" d="M4.176,18.867a1.4,1.4,0,0,1-1.065-1.119c-.024-.176.248-.463.278-.757.118-1.236.437-3.056,1.489-1.886a10.183,10.183,0,0,1,1.843,3.561,5.62,5.62,0,0,0,.257-2.528v0a1.966,1.966,0,0,0-.432-1.18.725.725,0,0,0-.754-.023l-.034-.072a.8.8,0,0,1,.835.032l.006,0,0,0a2.042,2.042,0,0,1,.452,1.227,5.715,5.715,0,0,1-.3,2.669c.019.066.028.1.028.1l.1-.031A5.72,5.72,0,0,1,8.98,17.182a2.026,2.026,0,0,1,1.279-.277h.006l.005,0a.8.8,0,0,1,.476.686l-.077.009a.725.725,0,0,0-.425-.623,1.952,1.952,0,0,0-1.226.269,5.6,5.6,0,0,0-1.995,1.576,10.172,10.172,0,0,1,3.993-.359c1.553.26.188,1.507-.793,2.272-.232.182-.328.566-.49.641a1.4,1.4,0,0,1-1.516-.3S8.9,23.37,7.5,23.294s-1.064.246-1.466.223-.65-2.056-.65-2.056-1.849.883-2.083.557.217-.217-.6-1.356,1.479-1.8,1.479-1.8"/>
        <path id="패스_14639" data-name="패스 14639" class="cls-9" d="M42.99,7.716A1.923,1.923,0,0,0,44.451,6.18c.034-.241-.34-.637-.38-1.039-.162-1.7-.6-4.2-2.045-2.591A13.992,13.992,0,0,0,39.5,7.439a7.687,7.687,0,0,1-.353-3.471v0a2.694,2.694,0,0,1,.594-1.62,1,1,0,0,1,1.036-.032l.046-.1a1.106,1.106,0,0,0-1.147.044l-.007,0-.006.006a2.8,2.8,0,0,0-.622,1.685,7.86,7.86,0,0,0,.407,3.664c-.026.091-.038.141-.038.141l-.139-.043A7.863,7.863,0,0,0,36.392,5.4a2.782,2.782,0,0,0-1.755-.38h-.008l-.007.005a1.1,1.1,0,0,0-.653.942l.107.013a.992.992,0,0,1,.584-.855,2.69,2.69,0,0,1,1.683.369,7.7,7.7,0,0,1,2.74,2.165A13.943,13.943,0,0,0,33.6,7.168c-2.133.357-.259,2.069,1.088,3.119.318.25.45.777.673.881a1.926,1.926,0,0,0,2.082-.41s-.933,3.143.989,3.038,1.46.338,2.012.306.893-2.823.893-2.823,2.538,1.213,2.861.764-.3-.3.822-1.862S42.99,7.715,42.99,7.715"/>
        <path id="패스_14640" data-name="패스 14640" class="cls-12" d="M44.082,5.683a1.923,1.923,0,0,0,1.461-1.536c.034-.241-.34-.637-.38-1.039-.162-1.7-.6-4.2-2.045-2.591a13.991,13.991,0,0,0-2.53,4.889,7.687,7.687,0,0,1-.353-3.471v0A2.694,2.694,0,0,1,40.829.31,1,1,0,0,1,41.865.278l.046-.1a1.106,1.106,0,0,0-1.147.044l-.007,0-.006.006a2.8,2.8,0,0,0-.622,1.685,7.86,7.86,0,0,0,.407,3.664c-.026.091-.038.141-.038.141l-.139-.043a7.863,7.863,0,0,0-2.875-2.313,2.782,2.782,0,0,0-1.755-.38h-.008l-.007,0a1.1,1.1,0,0,0-.653.942l.107.013a.992.992,0,0,1,.584-.855,2.69,2.69,0,0,1,1.683.369,7.7,7.7,0,0,1,2.74,2.165,13.943,13.943,0,0,0-5.482-.493c-2.133.357-.259,2.069,1.088,3.119.318.25.45.777.673.881a1.926,1.926,0,0,0,2.082-.41s-.933,3.143.989,3.038,1.46.338,2.012.306.893-2.823.893-2.823,2.538,1.213,2.861.764-.3-.3.822-1.862-2.031-2.466-2.031-2.466"/>
      </g>
    </g>
  </g>
</svg>
