<svg xmlns="http://www.w3.org/2000/svg" width="100" height="100.277" viewBox="0 0 100 100.277">
    <defs>
        <clipPath id="yuuisayu8a">
            <path data-name="사각형 2821" style="fill:none" d="M0 0h47.904v73.277H0z"/>
        </clipPath>
    </defs>
    <g data-name="그룹 2485">
        <path data-name="사각형 2630" style="fill:none" d="M0 0h100v100H0z"/>
        <g data-name="그룹 2475">
            <g data-name="그룹 2474" style="clip-path:url(#yuuisayu8a)" transform="translate(26 27)">
                <path data-name="패스 13813" d="M20.96 27.066c-1.169 2.031-4.233 4.257-5.615 4.274s-1.892-2.235-.72-4.261a5.56 5.56 0 0 1 4.836-2.9c1.749 0 2.67.86 1.5 2.889" style="fill:#418c48"/>
                <path data-name="패스 13814" d="M29.859 27.05c-1.924-1.338-3.882-4.58-3.781-5.959s2.388-1.694 4.307-.354a5.559 5.559 0 0 1 2.479 5.063c-.146 1.743-1.084 2.587-3.007 1.25" style="fill:#418c48"/>
                <path data-name="패스 13815" d="M32.077 39.653c-1.924-1.338-3.882-4.58-3.781-5.958S30.684 32 32.6 33.34a5.559 5.559 0 0 1 2.482 5.06c-.146 1.743-1.084 2.587-3.007 1.25" style="fill:#418c48"/>
                <path data-name="패스 13816" d="M35.233 35.64c-2.34.128-5.877-1.224-6.646-2.373s.841-2.806 3.178-2.929a5.561 5.561 0 0 1 5.07 2.47c.957 1.465.736 2.706-1.6 2.834" style="fill:#418c48"/>
                <path data-name="패스 13817" d="M14.031 32.139c-5.521 0-8.412-5.063-8.541-5.3l1.746-.975-.873.488.872-.489c.114.2 2.81 4.894 7.812 4.2l.273 1.98a9.315 9.315 0 0 1-1.289.091" style="fill:#418c48"/>
                <path data-name="패스 13818" d="M31.764 29.747h-.093l.049-2-.024 1 .021-1c.225-.006 5.645.058 7.588-4.593l1.846.772c-2.349 5.62-8.52 5.822-9.387 5.822" style="fill:#418c48"/>
                <path data-name="패스 13819" d="M16.036 34.969c-2.2.8-5.98.535-7.049-.341S8.978 31.7 11.178 30.9a5.562 5.562 0 0 1 5.569.891c1.34 1.123 1.49 2.375-.711 3.177" style="fill:#418c48"/>
                <path data-name="패스 13820" d="M18.193 36.11c-.884 2.171-3.618 4.791-4.985 4.995s-2.177-1.958-1.29-4.124a5.559 5.559 0 0 1 4.4-3.529c1.733-.24 2.761.49 1.878 2.659" style="fill:#418c48"/>
                <path data-name="사각형 2818" transform="translate(21.624 17.916)" style="fill:#418c48" d="M0 0h2.933v35.375H0z"/>
                <path data-name="사각형 2819" transform="translate(7.903 50.648)" style="fill:#91d09f" d="M0 0h30.374v5.287H0z"/>
                <path data-name="사각형 2820" transform="translate(7.903 55.935)" style="fill:#56b36b" d="M0 0h30.374v.889H0z"/>
                <path data-name="패스 13821" d="M33.4 73.277H12.775a1.851 1.851 0 0 1-1.837-1.636L7.9 56.824h30.376l-3.035 14.813a1.851 1.851 0 0 1-1.838 1.64" style="fill:#91d09f"/>
                <path data-name="패스 13822" d="m23.194 20.882-1.509-2.593c.057-.033 5.711-3.374 8.253-8.249l2.66 1.387c-2.95 5.658-9.142 9.3-9.4 9.455" style="fill:#418c48"/>
                <path data-name="패스 13823" d="m23.768 37.834-1.355-2.676.677 1.342-.683-1.335c.072-.038 7.315-3.9 12.734-16.723L37.9 19.6c-5.887 13.926-13.8 18.06-14.137 18.229" style="fill:#418c48"/>
                <path data-name="패스 13824" d="M22.286 35.1c-4.4 0-7.983-2.495-10.4-7.244a25.636 25.636 0 0 1-2.353-7.344l1.982-.27c.019.132 1.9 13.237 11.2 12.848l.088 2c-.175.008-.348.012-.521.012" style="fill:#418c48"/>
                <path data-name="패스 13825" d="M23.461 25.939c-8.69-1.1-10.578-10.131-10.6-10.222l1.961-.39c.064.314 1.643 7.708 8.887 8.628z" style="fill:#418c48"/>
                <path data-name="패스 13826" d="M23.263 20.531C19.28 19.165 17.245 10.5 17.027 9.518l1.952-.434c.734 3.292 2.723 8.8 4.932 9.554z" style="fill:#418c48"/>
                <path data-name="패스 13827" d="M46.7 23.39c-1.875 1.406-5.568 2.245-6.845 1.716s-.858-2.8 1.017-4.2a5.561 5.561 0 0 1 5.588-.761c1.609.687 2.115 1.842.241 3.247" style="fill:#418c48"/>
                <path data-name="패스 13828" d="M45.589 27.863c-2.34-.136-5.7-1.878-6.336-3.106S40.4 22.064 42.74 22.2a5.562 5.562 0 0 1 4.76 3.024c.785 1.563.427 2.772-1.912 2.636" style="fill:#418c48"/>
                <path data-name="패스 13829" d="M3.33 24.288c-.433-2.3.72-2.812 2.371-2.232a5.561 5.561 0 0 1 3.607 4.335c.437 2.3-.788 4.257-2.087 3.784s-3.456-3.585-3.889-5.888" style="fill:#418c48"/>
                <path data-name="패스 13830" d="M1.132 28.341c-1.816-1.479-1.264-2.613.371-3.235a5.562 5.562 0 0 1 5.553.984c1.817 1.474 2.145 3.76.848 4.238s-4.954-.509-6.771-1.989" style="fill:#418c48"/>
                <path data-name="패스 13831" d="M35.82 7.678c-.645 2.253-3.081 5.153-4.418 5.5s-2.375-1.713-1.727-3.962a5.56 5.56 0 0 1 3.993-3.982c1.7-.424 2.8.19 2.154 2.442" style="fill:#418c48"/>
                <path data-name="패스 13832" d="M37.635 11.915c-1.946 1.305-5.679 1.948-6.926 1.353S30 10.427 31.946 9.127a5.56 5.56 0 0 1 5.62-.465c1.571.771 2.015 1.951.07 3.255" style="fill:#418c48"/>
                <path data-name="패스 13833" d="M40.741 15.341c-.645 2.253-3.081 5.153-4.418 5.5s-2.375-1.713-1.727-3.962a5.56 5.56 0 0 1 3.993-3.979c1.7-.424 2.8.19 2.154 2.442" style="fill:#418c48"/>
                <path data-name="패스 13834" d="M42.556 19.579c-1.946 1.305-5.679 1.948-6.926 1.353s-.709-2.841 1.237-4.141a5.56 5.56 0 0 1 5.62-.465c1.571.771 2.015 1.951.07 3.255" style="fill:#418c48"/>
                <path data-name="패스 13835" d="M12.318 21.661c-2.2.807-2.892-.246-2.593-1.97a5.564 5.564 0 0 1 3.68-4.273c2.2-.811 4.328.074 4.077 1.433s-2.965 4-5.165 4.808" style="fill:#418c48"/>
                <path data-name="패스 13836" d="M4.909 20.569c-1.993-1.23-1.594-2.426-.054-3.255a5.558 5.558 0 0 1 5.634.252c1.994 1.224 2.617 3.448 1.393 4.09S6.9 21.8 4.91 20.567" style="fill:#418c48"/>
                <path data-name="패스 13837" d="M20.841 11.2c-2.068 1.1-2.9.15-2.836-1.6a5.56 5.56 0 0 1 3.065-4.732c2.064-1.1 4.3-.515 4.233.866S22.909 10.1 20.84 11.2" style="fill:#418c48"/>
                <path data-name="패스 13838" d="M17.611 11.91c-2.336.183-5.9-1.085-6.7-2.216s.775-2.824 3.108-3a5.563 5.563 0 0 1 5.127 2.35c.991 1.442.8 2.688-1.535 2.871" style="fill:#418c48"/>
                <path data-name="패스 13839" d="M17.756 3.275a1.027 1.027 0 0 1-1.111.914 1.027 1.027 0 0 1-1.111-.914 1.027 1.027 0 0 1 1.111-.914 1.027 1.027 0 0 1 1.111.914" style="fill:#54a858"/>
                <path data-name="패스 13840" d="M17.765 1.772c0 .979-.552 1.772-1.232 1.772S15.3 2.751 15.3 1.772 15.853 0 16.533 0s1.232.793 1.232 1.772" style="fill:#fbdefc"/>
                <path data-name="패스 13841" d="M16.369 1.772c0 .979-.276 1.772-.616 1.772s-.616-.793-.616-1.772S15.413 0 15.753 0s.616.793.616 1.772" style="fill:#fbdefc"/>
                <path data-name="패스 13842" d="M18.04 1.772c0 .979-.276 1.772-.616 1.772s-.616-.793-.616-1.772S17.084 0 17.424 0s.616.793.616 1.772" style="fill:#fbdefc"/>
                <path data-name="패스 13843" d="M21.116 3.646a1.132 1.132 0 0 1-2.222 0 1.132 1.132 0 0 1 2.222 0" style="fill:#54a858"/>
                <path data-name="패스 13844" d="M21.125 2.142c0 .979-.552 1.772-1.232 1.772s-1.232-.793-1.232-1.772S19.213.37 19.893.37s1.232.793 1.232 1.772" style="fill:#fbdefc"/>
                <path data-name="패스 13845" d="M19.729 2.142c0 .979-.276 1.772-.616 1.772s-.613-.793-.613-1.772.273-1.772.613-1.772.616.793.616 1.772" style="fill:#fbdefc"/>
                <path data-name="패스 13846" d="M21.4 2.142c0 .979-.276 1.772-.616 1.772s-.616-.793-.616-1.772.276-1.772.616-1.772.616.793.616 1.772" style="fill:#fbdefc"/>
                <ellipse data-name="타원 676" cx="1.111" cy=".914" rx="1.111" ry=".914" transform="translate(14.247 5.746)" style="fill:#54a858"/>
                <path data-name="패스 13847" d="M16.479 5.156c0 .979-.552 1.772-1.232 1.772s-1.232-.793-1.232-1.772.552-1.772 1.232-1.772 1.232.793 1.232 1.772" style="fill:#fbdefc"/>
                <path data-name="패스 13848" d="M15.082 5.156c0 .979-.276 1.772-.616 1.772s-.616-.793-.616-1.772.276-1.772.616-1.772.616.793.616 1.772" style="fill:#fbdefc"/>
                <path data-name="패스 13849" d="M16.753 5.156c0 .979-.276 1.772-.616 1.772s-.616-.793-.616-1.772.276-1.772.616-1.772.616.793.616 1.772" style="fill:#fbdefc"/>
                <path data-name="패스 13850" d="M18.933 4.826a1.027 1.027 0 0 1-1.111.914 1.027 1.027 0 0 1-1.111-.914 1.027 1.027 0 0 1 1.111-.914 1.027 1.027 0 0 1 1.111.914" style="fill:#54a858"/>
                <path data-name="패스 13851" d="M18.943 3.323c0 .979-.552 1.772-1.232 1.772s-1.232-.795-1.232-1.772.552-1.772 1.232-1.772 1.232.793 1.232 1.772" style="fill:#fbdefc"/>
                <path data-name="패스 13852" d="M17.546 3.323c0 .979-.276 1.772-.616 1.772s-.616-.793-.616-1.772.276-1.772.616-1.772.616.793.616 1.772" style="fill:#fbdefc"/>
                <path data-name="패스 13853" d="M19.217 3.323c0 .979-.276 1.772-.616 1.772s-.616-.793-.616-1.772.276-1.772.616-1.772.616.793.616 1.772" style="fill:#fbdefc"/>
                <path data-name="패스 13854" d="M22.294 7.059a1.132 1.132 0 0 1-2.222 0 1.132 1.132 0 0 1 2.222 0" style="fill:#54a858"/>
                <path data-name="패스 13855" d="M22.3 5.556c0 .979-.552 1.772-1.232 1.772s-1.232-.793-1.232-1.772.552-1.772 1.232-1.772 1.232.793 1.232 1.772" style="fill:#fbdefc"/>
                <path data-name="패스 13856" d="M20.906 5.556c0 .979-.276 1.772-.616 1.772s-.616-.793-.616-1.772.276-1.772.616-1.772.616.793.616 1.772" style="fill:#fbdefc"/>
                <path data-name="패스 13857" d="M22.577 5.556c0 .979-.276 1.772-.616 1.772s-.616-.793-.616-1.772.276-1.772.616-1.772.616.793.616 1.772" style="fill:#fbdefc"/>
                <path data-name="패스 13858" d="M19.208 8.754a1.132 1.132 0 0 1-2.222 0 1.132 1.132 0 0 1 2.222 0" style="fill:#54a858"/>
                <path data-name="패스 13859" d="M19.217 7.251c0 .979-.552 1.772-1.232 1.772s-1.232-.793-1.232-1.772.552-1.772 1.232-1.772 1.232.793 1.232 1.772" style="fill:#fbdefc"/>
                <path data-name="패스 13860" d="M17.82 7.251c0 .979-.276 1.772-.616 1.772s-.616-.793-.616-1.772.276-1.772.616-1.772.616.793.616 1.772" style="fill:#fbdefc"/>
                <path data-name="패스 13861" d="M19.491 7.251c0 .979-.276 1.772-.616 1.772s-.616-.793-.616-1.772.276-1.772.616-1.772.616.793.616 1.772" style="fill:#fbdefc"/>
                <ellipse data-name="타원 677" cx="1.111" cy=".914" rx="1.111" ry=".914" transform="translate(15.36 24.156)" style="fill:#54a858"/>
                <path data-name="패스 13862" d="M17.591 23.567c0 .979-.552 1.772-1.232 1.772s-1.232-.793-1.232-1.772.552-1.772 1.232-1.772 1.232.793 1.232 1.772" style="fill:#fbdefc"/>
                <path data-name="패스 13863" d="M16.195 23.567c0 .979-.276 1.772-.616 1.772s-.616-.793-.616-1.772.276-1.772.616-1.772.616.793.616 1.772" style="fill:#fbdefc"/>
                <path data-name="패스 13864" d="M17.866 23.567c0 .979-.276 1.772-.616 1.772s-.616-.793-.616-1.772.276-1.772.616-1.772.616.793.616 1.772" style="fill:#fbdefc"/>
                <ellipse data-name="타원 678" cx="1.111" cy=".914" rx="1.111" ry=".914" transform="translate(18.72 24.527)" style="fill:#54a858"/>
                <path data-name="패스 13865" d="M20.951 23.937c0 .979-.552 1.772-1.232 1.772s-1.232-.793-1.232-1.772.552-1.772 1.232-1.772 1.232.793 1.232 1.772" style="fill:#fbdefc"/>
                <path data-name="패스 13866" d="M19.555 23.937c0 .979-.276 1.772-.616 1.772s-.616-.793-.616-1.772.276-1.772.616-1.772.616.793.616 1.772" style="fill:#fbdefc"/>
                <path data-name="패스 13867" d="M21.226 23.937c0 .979-.276 1.772-.616 1.772s-.616-.793-.616-1.772.276-1.772.616-1.772.616.793.616 1.772" style="fill:#fbdefc"/>
                <ellipse data-name="타원 679" cx="1.111" cy=".914" rx="1.111" ry=".914" transform="translate(14.074 27.54)" style="fill:#54a858"/>
                <path data-name="패스 13868" d="M16.305 26.951c0 .979-.552 1.772-1.232 1.772s-1.232-.793-1.232-1.772.552-1.772 1.232-1.772 1.232.793 1.232 1.772" style="fill:#fbdefc"/>
                <path data-name="패스 13869" d="M14.908 26.951c0 .979-.276 1.772-.616 1.772s-.616-.793-.616-1.772.276-1.772.616-1.772.616.793.616 1.772" style="fill:#fbdefc"/>
                <path data-name="패스 13870" d="M16.579 26.951c0 .979-.276 1.772-.616 1.772s-.616-.793-.616-1.772.276-1.772.616-1.772.616.793.616 1.772" style="fill:#fbdefc"/>
                <path data-name="패스 13871" d="M18.76 26.621a1.027 1.027 0 0 1-1.111.914.931.931 0 1 1 0-1.828 1.027 1.027 0 0 1 1.111.914" style="fill:#54a858"/>
                <path data-name="패스 13872" d="M18.769 25.118c0 .979-.552 1.772-1.232 1.772s-1.232-.793-1.232-1.772.552-1.772 1.232-1.772 1.232.793 1.232 1.772" style="fill:#fbdefc"/>
                <path data-name="패스 13873" d="M17.372 25.118c0 .979-.276 1.772-.616 1.772s-.616-.793-.616-1.772.276-1.772.616-1.772.616.793.616 1.772" style="fill:#fbdefc"/>
                <path data-name="패스 13874" d="M19.043 25.118c0 .979-.276 1.772-.616 1.772s-.616-.793-.616-1.772.276-1.772.616-1.772.616.793.616 1.772" style="fill:#fbdefc"/>
                <path data-name="패스 13875" d="M22.12 28.854a1.132 1.132 0 1 1-1.111-.914 1.027 1.027 0 0 1 1.111.914" style="fill:#54a858"/>
                <path data-name="패스 13876" d="M22.129 27.351c0 .979-.552 1.772-1.232 1.772s-1.232-.793-1.232-1.772.552-1.772 1.232-1.772 1.232.793 1.232 1.772" style="fill:#fbdefc"/>
                <path data-name="패스 13877" d="M20.732 27.351c0 .979-.276 1.772-.616 1.772s-.616-.793-.616-1.772.276-1.772.616-1.772.616.793.616 1.772" style="fill:#fbdefc"/>
                <path data-name="패스 13878" d="M22.4 27.351c0 .979-.276 1.772-.616 1.772s-.616-.793-.616-1.772.276-1.772.616-1.772.616.793.616 1.772" style="fill:#fbdefc"/>
                <ellipse data-name="타원 680" cx="1.111" cy=".914" rx="1.111" ry=".914" transform="translate(16.812 29.635)" style="fill:#54a858"/>
                <path data-name="패스 13879" d="M19.043 29.046c0 .979-.552 1.772-1.232 1.772s-1.232-.793-1.232-1.772.552-1.772 1.232-1.772 1.232.793 1.232 1.772" style="fill:#fbdefc"/>
                <path data-name="패스 13880" d="M17.646 29.046c0 .979-.276 1.772-.616 1.772s-.616-.793-.616-1.772.276-1.772.616-1.772.616.793.616 1.772" style="fill:#fbdefc"/>
                <path data-name="패스 13881" d="M19.317 29.046c0 .979-.276 1.772-.616 1.772s-.616-.793-.616-1.772.276-1.772.616-1.772.616.793.616 1.772" style="fill:#fbdefc"/>
                <ellipse data-name="타원 681" cx="1.111" cy=".914" rx="1.111" ry=".914" transform="translate(23.924 15.343)" style="fill:#54a858"/>
                <path data-name="패스 13882" d="M26.155 14.753c0 .979-.552 1.772-1.232 1.772s-1.232-.793-1.232-1.772.552-1.772 1.232-1.772 1.232.793 1.232 1.772" style="fill:#fbdefc"/>
                <path data-name="패스 13883" d="M24.759 14.753c0 .979-.276 1.772-.616 1.772s-.616-.793-.616-1.772.276-1.772.616-1.772.616.793.616 1.772" style="fill:#fbdefc"/>
                <path data-name="패스 13884" d="M26.43 14.753c0 .979-.276 1.772-.616 1.772s-.616-.793-.616-1.772.276-1.772.616-1.772.616.793.616 1.772" style="fill:#fbdefc"/>
                <path data-name="패스 13885" d="M29.506 16.627a1.132 1.132 0 0 1-2.222 0 1.132 1.132 0 0 1 2.222 0" style="fill:#54a858"/>
                <path data-name="패스 13886" d="M29.515 15.124c0 .979-.552 1.772-1.232 1.772s-1.232-.793-1.232-1.772.552-1.772 1.232-1.772 1.232.793 1.232 1.772" style="fill:#fbdefc"/>
                <path data-name="패스 13887" d="M28.119 15.124c0 .979-.276 1.772-.616 1.772s-.616-.793-.616-1.772.276-1.772.616-1.772.616.793.616 1.772" style="fill:#fbdefc"/>
                <path data-name="패스 13888" d="M29.79 15.124c0 .979-.276 1.772-.616 1.772s-.616-.793-.616-1.772.276-1.772.616-1.772.616.793.616 1.772" style="fill:#fbdefc"/>
                <path data-name="패스 13889" d="M24.86 19.641a1.132 1.132 0 0 1-2.222 0 1.132 1.132 0 0 1 2.222 0" style="fill:#54a858"/>
                <path data-name="패스 13890" d="M24.869 18.138c0 .979-.552 1.772-1.232 1.772s-1.232-.793-1.232-1.772.552-1.772 1.232-1.772 1.232.793 1.232 1.772" style="fill:#fbdefc"/>
                <path data-name="패스 13891" d="M23.472 18.138c0 .979-.276 1.772-.616 1.772s-.616-.793-.616-1.772.276-1.772.616-1.772.616.793.616 1.772" style="fill:#fbdefc"/>
                <path data-name="패스 13892" d="M25.143 18.138c0 .979-.276 1.772-.616 1.772s-.616-.793-.616-1.772.276-1.772.616-1.772.616.793.616 1.772" style="fill:#fbdefc"/>
                <path data-name="패스 13893" d="M27.323 17.808a1.132 1.132 0 0 1-2.222 0 1.132 1.132 0 0 1 2.222 0" style="fill:#54a858"/>
                <path data-name="패스 13894" d="M27.333 16.3c0 .979-.552 1.772-1.232 1.772s-1.232-.793-1.232-1.772.552-1.772 1.232-1.772 1.232.793 1.232 1.772" style="fill:#fbdefc"/>
                <path data-name="패스 13895" d="M25.936 16.3c0 .979-.276 1.772-.616 1.772s-.62-.789-.62-1.772.276-1.772.616-1.772.616.793.616 1.772" style="fill:#fbdefc"/>
                <path data-name="패스 13896" d="M27.607 16.3c0 .979-.276 1.772-.616 1.772s-.616-.793-.616-1.772.276-1.772.616-1.772.616.793.616 1.772" style="fill:#fbdefc"/>
                <path data-name="패스 13897" d="M30.684 20.041a1.132 1.132 0 0 1-2.222 0 1.132 1.132 0 0 1 2.222 0" style="fill:#54a858"/>
                <path data-name="패스 13898" d="M30.693 18.538c0 .979-.552 1.772-1.232 1.772s-1.232-.793-1.232-1.772.552-1.772 1.232-1.772 1.232.793 1.232 1.772" style="fill:#fbdefc"/>
                <path data-name="패스 13899" d="M29.3 18.538c0 .979-.276 1.772-.616 1.772s-.616-.793-.616-1.772.276-1.772.616-1.772.616.793.616 1.772" style="fill:#fbdefc"/>
                <path data-name="패스 13900" d="M30.967 18.538c0 .979-.276 1.772-.616 1.772s-.616-.793-.616-1.772.276-1.772.616-1.772.616.793.616 1.772" style="fill:#fbdefc"/>
                <ellipse data-name="타원 682" cx="1.111" cy=".914" rx="1.111" ry=".914" transform="translate(25.376 20.822)" style="fill:#54a858"/>
                <path data-name="패스 13901" d="M27.607 20.233c0 .979-.552 1.772-1.232 1.772s-1.232-.793-1.232-1.772.552-1.772 1.232-1.772 1.232.793 1.232 1.772" style="fill:#fbdefc"/>
                <path data-name="패스 13902" d="M26.21 20.233c0 .979-.276 1.772-.616 1.772s-.616-.793-.616-1.772.276-1.772.616-1.772.616.793.616 1.772" style="fill:#fbdefc"/>
                <path data-name="패스 13903" d="M27.881 20.233c0 .979-.276 1.772-.616 1.772s-.616-.793-.616-1.772.276-1.772.616-1.772.616.793.616 1.772" style="fill:#fbdefc"/>
                <path data-name="패스 13904" d="M34.641 4.586a1.132 1.132 0 0 1-2.222 0 1.132 1.132 0 0 1 2.222 0" style="fill:#54a858"/>
                <path data-name="패스 13905" d="M34.651 3.083c0 .979-.552 1.772-1.232 1.772s-1.232-.793-1.232-1.772.552-1.772 1.232-1.772 1.232.793 1.232 1.772" style="fill:#fbdefc"/>
                <path data-name="패스 13906" d="M33.254 3.083c0 .979-.276 1.772-.616 1.772s-.616-.793-.616-1.772.276-1.772.616-1.772.616.793.616 1.772" style="fill:#fbdefc"/>
                <path data-name="패스 13907" d="M34.925 3.083c0 .979-.276 1.772-.616 1.772s-.616-.793-.616-1.772.276-1.772.616-1.772.616.793.616 1.772" style="fill:#fbdefc"/>
                <ellipse data-name="타원 683" cx="1.111" cy=".914" rx="1.111" ry=".914" transform="translate(35.779 4.043)" style="fill:#54a858"/>
                <path data-name="패스 13908" d="M38.011 3.453c0 .979-.552 1.772-1.232 1.772s-1.232-.793-1.232-1.772.552-1.772 1.232-1.772 1.232.793 1.232 1.772" style="fill:#fbdefc"/>
                <path data-name="패스 13909" d="M36.614 3.453c0 .979-.276 1.772-.616 1.772s-.616-.793-.616-1.772.276-1.772.616-1.772.616.793.616 1.772" style="fill:#fbdefc"/>
                <path data-name="패스 13910" d="M38.285 3.453c0 .979-.276 1.772-.616 1.772s-.616-.793-.616-1.772.276-1.772.616-1.772.616.793.616 1.772" style="fill:#fbdefc"/>
                <ellipse data-name="타원 684" cx="1.111" cy=".914" rx="1.111" ry=".914" transform="translate(31.133 7.057)" style="fill:#54a858"/>
                <path data-name="패스 13911" d="M33.364 6.467c0 .979-.552 1.772-1.232 1.772S30.9 7.446 30.9 6.467 31.452 4.7 32.132 4.7s1.232.793 1.232 1.772" style="fill:#fbdefc"/>
                <path data-name="패스 13912" d="M31.967 6.467c0 .979-.276 1.772-.616 1.772s-.616-.793-.616-1.772.276-1.772.616-1.772.616.793.616 1.772" style="fill:#fbdefc"/>
                <path data-name="패스 13913" d="M33.638 6.467c0 .979-.276 1.772-.616 1.772s-.616-.793-.616-1.772.276-1.772.616-1.772.616.793.616 1.772" style="fill:#fbdefc"/>
                <path data-name="패스 13914" d="M35.819 6.137a1.132 1.132 0 0 1-2.222 0 1.132 1.132 0 0 1 2.222 0" style="fill:#54a858"/>
                <path data-name="패스 13915" d="M35.828 4.634c0 .979-.552 1.772-1.232 1.772s-1.232-.793-1.232-1.772.552-1.772 1.232-1.772 1.232.793 1.232 1.772" style="fill:#fbdefc"/>
                <path data-name="패스 13916" d="M34.431 4.634c0 .979-.276 1.772-.616 1.772s-.615-.793-.615-1.772.276-1.772.616-1.772.616.793.616 1.772" style="fill:#fbdefc"/>
                <path data-name="패스 13917" d="M36.1 4.634c0 .979-.276 1.772-.616 1.772s-.616-.793-.616-1.772.276-1.772.616-1.772.616.793.616 1.772" style="fill:#fbdefc"/>
                <path data-name="패스 13918" d="M39.179 8.37a1.132 1.132 0 0 1-2.222 0 1.132 1.132 0 0 1 2.222 0" style="fill:#54a858"/>
                <path data-name="패스 13919" d="M39.188 6.867c0 .979-.552 1.772-1.232 1.772s-1.232-.793-1.232-1.772.552-1.772 1.232-1.772 1.232.793 1.232 1.772" style="fill:#fbdefc"/>
                <path data-name="패스 13920" d="M37.791 6.867c0 .979-.276 1.772-.616 1.772s-.616-.793-.616-1.772.276-1.772.616-1.772.616.793.616 1.772" style="fill:#fbdefc"/>
                <path data-name="패스 13921" d="M39.462 6.867c0 .979-.276 1.772-.616 1.772s-.616-.793-.616-1.772.276-1.772.616-1.772.616.793.616 1.772" style="fill:#fbdefc"/>
                <path data-name="패스 13922" d="M36.093 10.065a1.132 1.132 0 0 1-2.222 0 1.132 1.132 0 0 1 2.222 0" style="fill:#54a858"/>
                <path data-name="패스 13923" d="M36.1 8.562c0 .979-.552 1.772-1.232 1.772s-1.232-.793-1.232-1.772.554-1.772 1.234-1.772 1.23.793 1.23 1.772" style="fill:#fbdefc"/>
                <path data-name="패스 13924" d="M34.705 8.562c0 .979-.276 1.772-.616 1.772s-.616-.793-.616-1.772.276-1.772.616-1.772.616.793.616 1.772" style="fill:#fbdefc"/>
                <path data-name="패스 13925" d="M36.376 8.562c0 .979-.276 1.772-.616 1.772s-.616-.793-.616-1.772.276-1.772.616-1.772.616.793.616 1.772" style="fill:#fbdefc"/>
                <ellipse data-name="타원 685" cx="1.111" cy=".914" rx="1.111" ry=".914" transform="translate(38.641 14.032)" style="fill:#54a858"/>
                <path data-name="패스 13926" d="M40.872 13.442c0 .979-.552 1.772-1.232 1.772s-1.232-.793-1.232-1.772.552-1.772 1.232-1.772 1.232.793 1.232 1.772" style="fill:#fbdefc"/>
                <path data-name="패스 13927" d="M39.475 13.442c0 .979-.276 1.772-.616 1.772s-.616-.793-.616-1.772.276-1.772.616-1.772.616.793.616 1.772" style="fill:#fbdefc"/>
                <path data-name="패스 13928" d="M41.146 13.442c0 .979-.276 1.772-.616 1.772s-.616-.793-.616-1.772.276-1.772.616-1.772.616.793.616 1.772" style="fill:#fbdefc"/>
                <path data-name="패스 13929" d="M44.223 15.316a1.132 1.132 0 0 1-2.222 0 1.132 1.132 0 0 1 2.222 0" style="fill:#54a858"/>
                <path data-name="패스 13930" d="M44.232 13.813c0 .979-.552 1.772-1.232 1.772s-1.232-.793-1.232-1.772.552-1.772 1.232-1.772 1.232.793 1.232 1.772" style="fill:#fbdefc"/>
                <path data-name="패스 13931" d="M42.835 13.813c0 .979-.276 1.772-.616 1.772s-.616-.793-.616-1.772.276-1.772.616-1.772.616.793.616 1.772" style="fill:#fbdefc"/>
                <path data-name="패스 13932" d="M44.506 13.813c0 .979-.276 1.772-.616 1.772s-.616-.793-.616-1.772.276-1.772.616-1.772.616.793.616 1.772" style="fill:#fbdefc"/>
                <path data-name="패스 13933" d="M39.576 18.33a1.132 1.132 0 0 1-2.222 0 1.132 1.132 0 0 1 2.222 0" style="fill:#54a858"/>
                <path data-name="패스 13934" d="M39.585 16.827c0 .979-.552 1.772-1.232 1.772s-1.232-.793-1.232-1.772.552-1.772 1.232-1.772 1.232.793 1.232 1.772" style="fill:#fbdefc"/>
                <path data-name="패스 13935" d="M38.188 16.827c0 .979-.276 1.772-.616 1.772s-.616-.793-.616-1.772.276-1.772.616-1.772.616.793.616 1.772" style="fill:#fbdefc"/>
                <path data-name="패스 13936" d="M39.859 16.827c0 .979-.276 1.772-.616 1.772s-.616-.793-.616-1.772.276-1.772.616-1.772.616.793.616 1.772" style="fill:#fbdefc"/>
                <ellipse data-name="타원 686" cx="1.111" cy=".914" rx="1.111" ry=".914" transform="translate(39.818 15.583)" style="fill:#54a858"/>
                <path data-name="패스 13937" d="M42.049 14.993c0 .979-.552 1.772-1.232 1.772s-1.232-.793-1.232-1.772.552-1.772 1.232-1.772 1.232.793 1.232 1.772" style="fill:#fbdefc"/>
                <path data-name="패스 13938" d="M40.652 14.993c0 .979-.276 1.772-.616 1.772s-.616-.793-.616-1.772.276-1.772.616-1.772.616.793.616 1.772" style="fill:#fbdefc"/>
                <path data-name="패스 13939" d="M42.323 14.993c0 .979-.276 1.772-.616 1.772s-.616-.793-.616-1.772.276-1.772.616-1.772.616.793.616 1.772" style="fill:#fbdefc"/>
                <path data-name="패스 13940" d="M45.4 18.73a1.132 1.132 0 0 1-2.222 0 1.132 1.132 0 0 1 2.222 0" style="fill:#54a858"/>
                <path data-name="패스 13941" d="M45.409 17.227c0 .979-.552 1.772-1.232 1.772s-1.232-.793-1.232-1.772.552-1.772 1.232-1.772 1.232.793 1.232 1.772" style="fill:#fbdefc"/>
                <path data-name="패스 13942" d="M44.013 17.227c0 .979-.277 1.772-.617 1.772s-.616-.793-.616-1.772.276-1.772.616-1.772.617.793.617 1.772" style="fill:#fbdefc"/>
                <path data-name="패스 13943" d="M45.683 17.227c0 .979-.276 1.772-.616 1.772s-.616-.793-.616-1.772.276-1.772.616-1.772.616.793.616 1.772" style="fill:#fbdefc"/>
                <path data-name="패스 13944" d="M42.314 20.425a1.132 1.132 0 0 1-2.222 0 1.132 1.132 0 0 1 2.222 0" style="fill:#54a858"/>
                <path data-name="패스 13945" d="M42.323 18.922c0 .979-.552 1.772-1.232 1.772s-1.232-.793-1.232-1.772.552-1.772 1.232-1.772 1.232.793 1.232 1.772" style="fill:#fbdefc"/>
                <path data-name="패스 13946" d="M40.927 18.922c0 .979-.276 1.772-.616 1.772s-.616-.793-.616-1.772.276-1.772.616-1.772.616.793.616 1.772" style="fill:#fbdefc"/>
                <path data-name="패스 13947" d="M42.6 18.922c0 .979-.276 1.772-.616 1.772s-.616-.793-.616-1.772.276-1.772.616-1.772.616.793.616 1.772" style="fill:#fbdefc"/>
                <path data-name="패스 13948" d="M10.316 13.9a1.027 1.027 0 0 1-1.116.91 1.027 1.027 0 0 1-1.106-.91 1.027 1.027 0 0 1 1.106-.918 1.027 1.027 0 0 1 1.111.914" style="fill:#54a858"/>
                <path data-name="패스 13949" d="M10.325 12.392c0 .979-.552 1.772-1.232 1.772s-1.232-.793-1.232-1.772.552-1.772 1.232-1.772 1.232.793 1.232 1.772" style="fill:#fbdefc"/>
                <path data-name="패스 13950" d="M8.929 12.392c0 .979-.276 1.772-.616 1.772s-.613-.793-.613-1.772.276-1.772.616-1.772.616.793.616 1.772" style="fill:#fbdefc"/>
                <path data-name="패스 13951" d="M10.6 12.392c0 .979-.276 1.772-.616 1.772s-.616-.793-.616-1.772.276-1.772.616-1.772.616.793.616 1.772" style="fill:#fbdefc"/>
                <ellipse data-name="타원 687" cx="1.111" cy=".914" rx="1.111" ry=".914" transform="translate(11.454 13.352)" style="fill:#54a858"/>
                <path data-name="패스 13952" d="M13.686 12.763c0 .979-.552 1.772-1.233 1.772s-1.232-.793-1.232-1.772.552-1.772 1.232-1.772 1.233.793 1.233 1.772" style="fill:#fbdefc"/>
                <path data-name="패스 13953" d="M12.289 12.763c0 .979-.276 1.772-.616 1.772s-.616-.793-.616-1.772.276-1.772.616-1.772.616.793.616 1.772" style="fill:#fbdefc"/>
                <path data-name="패스 13954" d="M13.96 12.763c0 .979-.276 1.772-.616 1.772s-.616-.793-.616-1.772.276-1.772.616-1.772.616.793.616 1.772" style="fill:#fbdefc"/>
                <ellipse data-name="타원 688" cx="1.111" cy=".914" rx="1.111" ry=".914" transform="translate(6.808 16.366)" style="fill:#54a858"/>
                <path data-name="패스 13955" d="M9.039 15.777c0 .979-.552 1.772-1.232 1.772s-1.232-.793-1.232-1.772.552-1.772 1.232-1.772 1.232.793 1.232 1.772" style="fill:#fbdefc"/>
                <path data-name="패스 13956" d="M7.642 15.777c0 .979-.276 1.772-.616 1.772s-.616-.793-.616-1.772.276-1.772.616-1.772.616.793.616 1.772" style="fill:#fbdefc"/>
                <path data-name="패스 13957" d="M9.313 15.777c0 .979-.276 1.772-.616 1.772s-.616-.793-.616-1.772.276-1.772.616-1.772.616.793.616 1.772" style="fill:#fbdefc"/>
                <path data-name="패스 13958" d="M11.493 15.447a1.027 1.027 0 0 1-1.111.914 1.027 1.027 0 0 1-1.111-.914 1.027 1.027 0 0 1 1.111-.914 1.027 1.027 0 0 1 1.111.914" style="fill:#54a858"/>
                <path data-name="패스 13959" d="M11.5 13.943c0 .979-.552 1.772-1.232 1.772s-1.232-.793-1.232-1.772.552-1.772 1.232-1.772 1.232.793 1.232 1.772" style="fill:#fbdefc"/>
                <path data-name="패스 13960" d="M10.106 13.943c0 .979-.276 1.772-.616 1.772s-.616-.793-.616-1.772.276-1.772.616-1.772.616.793.616 1.772" style="fill:#fbdefc"/>
                <path data-name="패스 13961" d="M11.777 13.943c0 .979-.276 1.772-.616 1.772s-.616-.793-.616-1.772.276-1.772.616-1.772.616.793.616 1.772" style="fill:#fbdefc"/>
                <ellipse data-name="타원 689" cx="1.111" cy=".914" rx="1.111" ry=".914" transform="translate(12.632 16.766)" style="fill:#54a858"/>
                <path data-name="패스 13962" d="M14.863 16.176c0 .979-.552 1.772-1.232 1.772s-1.231-.793-1.231-1.772.552-1.772 1.232-1.772 1.232.793 1.232 1.772" style="fill:#fbdefc"/>
                <path data-name="패스 13963" d="M13.466 16.176c0 .979-.276 1.772-.616 1.772s-.616-.793-.616-1.772.276-1.772.616-1.772.616.793.616 1.772" style="fill:#fbdefc"/>
                <path data-name="패스 13964" d="M15.137 16.176c0 .979-.276 1.772-.616 1.772s-.616-.793-.616-1.772.276-1.772.616-1.772.616.793.616 1.772" style="fill:#fbdefc"/>
                <ellipse data-name="타원 690" cx="1.111" cy=".914" rx="1.111" ry=".914" transform="translate(9.546 18.461)" style="fill:#54a858"/>
                <path data-name="패스 13965" d="M11.777 17.871c0 .979-.552 1.772-1.232 1.772s-1.232-.793-1.232-1.772.552-1.771 1.232-1.771 1.232.793 1.232 1.772" style="fill:#fbdefc"/>
                <path data-name="패스 13966" d="M10.38 17.871c0 .979-.276 1.772-.616 1.772s-.616-.793-.616-1.772.276-1.772.616-1.772.616.793.616 1.772" style="fill:#fbdefc"/>
                <path data-name="패스 13967" d="M12.051 17.871c0 .979-.276 1.772-.616 1.772s-.616-.793-.616-1.772.276-1.772.616-1.772.616.793.616 1.772" style="fill:#fbdefc"/>
            </g>
        </g>
    </g>
</svg>
