<svg xmlns="http://www.w3.org/2000/svg" width="100" height="100" viewBox="0 0 100 100">
    <defs>
        <clipPath id="hdar3p2yua">
            <path data-name="사각형 2679" style="fill:none" d="M0 0h50v96.789H0z"/>
        </clipPath>
    </defs>
    <g data-name="그룹 2511">
        <path data-name="사각형 2601" style="fill:none" d="M0 0h100v100H0z"/>
        <g data-name="그룹 2412">
            <g data-name="그룹 2411" style="clip-path:url(#hdar3p2yua)" transform="translate(25 3)">
                <path data-name="패스 11502" d="M44.281 34.3c2.21-.9 3.7-.272 4.224 1.03s-.1 2.787-2.307 3.685-5.7-.432-5.7-.432S42.07 35.2 44.281 34.3" style="fill:#94b524"/>
                <path data-name="패스 11503" d="M44.281 40.493c2.21-.9 3.7-.272 4.224 1.03s-.1 2.787-2.307 3.685-5.7-.432-5.7-.432 1.568-3.385 3.779-4.284" style="fill:#94b524"/>
                <path data-name="패스 11504" d="M44.281 46.685c2.21-.9 3.7-.272 4.224 1.03S48.408 50.5 46.2 51.4s-5.7-.432-5.7-.432 1.568-3.385 3.779-4.284" style="fill:#94b524"/>
                <path data-name="패스 11505" d="M44.281 52.876c2.21-.9 3.7-.272 4.224 1.03s-.1 2.787-2.307 3.685-5.7-.432-5.7-.432 1.568-3.385 3.779-4.284" style="fill:#94b524"/>
                <path data-name="패스 11506" d="M44.281 59.067c2.21-.9 3.7-.272 4.224 1.03s-.1 2.787-2.307 3.685-5.7-.432-5.7-.432 1.568-3.385 3.779-4.284" style="fill:#94b524"/>
                <path data-name="패스 11507" d="M36.722 34.3c-2.21-.9-3.695-.272-4.224 1.03s.1 2.787 2.307 3.685 5.7-.432 5.7-.432-1.572-3.383-3.783-4.283" style="fill:#94b524"/>
                <path data-name="패스 11508" d="M36.722 40.493c-2.21-.9-3.695-.272-4.224 1.03s.1 2.787 2.307 3.685 5.7-.432 5.7-.432-1.568-3.385-3.779-4.284" style="fill:#94b524"/>
                <path data-name="패스 11509" d="M36.722 46.685c-2.21-.9-3.695-.272-4.224 1.03s.1 2.787 2.307 3.685 5.7-.432 5.7-.432-1.568-3.385-3.779-4.284" style="fill:#94b524"/>
                <path data-name="패스 11510" d="M36.722 52.876c-2.21-.9-3.695-.272-4.224 1.03s.1 2.787 2.307 3.685 5.7-.432 5.7-.432-1.568-3.385-3.779-4.284" style="fill:#94b524"/>
                <path data-name="패스 11511" d="M36.722 59.067c-2.21-.9-3.695-.272-4.224 1.03s.1 2.787 2.307 3.685 5.7-.432 5.7-.432-1.568-3.385-3.779-4.284" style="fill:#94b524"/>
                <path data-name="패스 11512" d="M40.6 27.963h-.222c0-3.39-2.967-9.192-3-9.251l.2-.1c.03.058 3.021 5.908 3.021 9.352" style="fill:#f4ee22"/>
                <path data-name="패스 11513" d="M37.854 18.661a.379.379 0 1 1-.38-.379.379.379 0 0 1 .379.379" style="fill:#f4ee22"/>
                <path data-name="패스 11514" d="M39.676 29.048c-1.3-3.131-6.265-7.352-6.315-7.394l.144-.17a42.38 42.38 0 0 1 2.683 2.528 17.64 17.64 0 0 1 3.693 4.951z" style="fill:#f4ee22"/>
                <path data-name="패스 11515" d="M33.783 21.423a.379.379 0 1 1-.5-.207.379.379 0 0 1 .5.207" style="fill:#f4ee22"/>
                <path data-name="패스 11516" d="m41.293 29.048-.207-.085a17.578 17.578 0 0 1 3.693-4.951 42.701 42.701 0 0 1 2.683-2.528l.144.17c-.052.042-5.015 4.263-6.315 7.394" style="fill:#f4ee22"/>
                <path data-name="패스 11517" d="M40.6 27.963h-.222c0-3.444 2.991-9.294 3.021-9.352l.2.1c-.03.059-3 5.861-3 9.251" style="fill:#f4ee22"/>
                <path data-name="패스 11518" d="M43.114 18.661a.379.379 0 1 0 .38-.379.379.379 0 0 0-.379.379" style="fill:#f4ee22"/>
                <path data-name="패스 11519" d="M40.1 16.618a.379.379 0 1 0 .38-.379.379.379 0 0 0-.379.379" style="fill:#f4ee22"/>
                <path data-name="사각형 2672" transform="translate(40.373 16.469)" style="fill:#f4ee22" d="M0 0h.222v8.023H0z"/>
                <path data-name="사각형 2673" transform="translate(39.779 30.057)" style="fill:#8c6239" d="M0 0h1.445v40.736H0z"/>
                <path data-name="패스 11520" d="M36.722 32.023c-2.21-.9-3.695-.272-4.224 1.03s.1 2.787 2.307 3.685 5.7-.432 5.7-.432-1.568-3.385-3.779-4.284" style="fill:#a1d438"/>
                <path data-name="패스 11521" d="M36.722 37.768c-2.21-.9-3.695-.272-4.224 1.03s.1 2.787 2.307 3.685 5.7-.432 5.7-.432-1.568-3.385-3.779-4.284" style="fill:#a1d438"/>
                <path data-name="패스 11522" d="M36.722 43.513c-2.21-.9-3.695-.272-4.224 1.03s.1 2.787 2.307 3.685 5.7-.432 5.7-.432-1.568-3.385-3.779-4.284" style="fill:#a1d438"/>
                <path data-name="패스 11523" d="M36.722 49.259c-2.21-.9-3.695-.272-4.224 1.03s.1 2.787 2.307 3.685 5.7-.432 5.7-.432-1.568-3.385-3.779-4.284" style="fill:#a1d438"/>
                <path data-name="패스 11524" d="M36.722 55c-2.21-.9-3.695-.272-4.224 1.03s.1 2.787 2.307 3.685 5.7-.432 5.7-.432S38.933 55.9 36.722 55" style="fill:#a1d438"/>
                <path data-name="패스 11525" d="M36.722 60.749c-2.21-.9-3.695-.272-4.224 1.03s.1 2.787 2.307 3.685 5.7-.432 5.7-.432-1.568-3.385-3.779-4.284" style="fill:#a1d438"/>
                <path data-name="패스 11526" d="M44.281 32.023c2.21-.9 3.7-.272 4.224 1.03s-.1 2.787-2.307 3.685-5.7-.432-5.7-.432 1.568-3.385 3.779-4.284" style="fill:#a1d438"/>
                <path data-name="패스 11527" d="M44.281 37.768c2.21-.9 3.7-.272 4.224 1.03s-.1 2.787-2.307 3.685-5.7-.432-5.7-.432 1.568-3.385 3.779-4.284" style="fill:#a1d438"/>
                <path data-name="패스 11528" d="M44.281 43.513c2.21-.9 3.7-.272 4.224 1.03s-.1 2.787-2.307 3.685-5.7-.432-5.7-.432 1.568-3.385 3.779-4.284" style="fill:#a1d438"/>
                <path data-name="패스 11529" d="M44.281 49.259c2.21-.9 3.7-.272 4.224 1.03s-.1 2.787-2.307 3.685-5.7-.432-5.7-.432 1.568-3.385 3.779-4.284" style="fill:#a1d438"/>
                <path data-name="패스 11530" d="M44.281 55c2.21-.9 3.7-.272 4.224 1.03s-.1 2.787-2.307 3.685-5.7-.432-5.7-.432S42.07 55.9 44.281 55" style="fill:#a1d438"/>
                <path data-name="패스 11531" d="M44.281 60.749c2.21-.9 3.7-.272 4.224 1.03s-.1 2.787-2.307 3.685-5.7-.432-5.7-.432 1.568-3.385 3.779-4.284" style="fill:#a1d438"/>
                <path data-name="패스 11532" d="M41.856 25.228c0 2.217-.614 3.277-1.371 3.277s-1.372-1.06-1.372-3.277a12.039 12.039 0 0 1 1.37-4.753 12.032 12.032 0 0 1 1.371 4.753" style="fill:#f4e919"/>
                <path data-name="패스 11533" d="M40.274 25.177c1.135 1.905 1.149 3.13.5 3.517s-1.72-.207-2.855-2.113a12.034 12.034 0 0 1-1.255-4.781 12.02 12.02 0 0 1 3.61 3.382" style="fill:#f4ee22"/>
                <path data-name="패스 11534" d="M40.981 25.177c-1.135 1.905-1.149 3.13-.5 3.517s1.72-.207 2.855-2.113a12.034 12.034 0 0 0 1.255-4.781 12.02 12.02 0 0 0-3.61 3.382" style="fill:#f4ee22"/>
                <path data-name="패스 11535" d="M42.823 25.8c-2.372 1.217-3.168 2.456-2.752 3.264s1.886.885 4.258-.332a14.464 14.464 0 0 0 4.331-4.077 14.464 14.464 0 0 0-5.837 1.145" style="fill:#f4e919"/>
                <path data-name="패스 11536" d="M38.123 25.8c2.372 1.217 3.168 2.456 2.752 3.264s-1.886.885-4.258-.332a14.464 14.464 0 0 1-4.331-4.077 14.464 14.464 0 0 1 5.837 1.145" style="fill:#f4e919"/>
                <path data-name="패스 11537" d="M44.1 27.113c-2.632.425-3.772 1.356-3.626 2.256s1.52 1.425 4.152 1A14.466 14.466 0 0 0 50 27.831a14.454 14.454 0 0 0-5.906-.718" style="fill:#f2d81c"/>
                <path data-name="패스 11538" d="M36.841 27.113c2.632.425 3.772 1.356 3.626 2.256s-1.52 1.425-4.152 1a14.466 14.466 0 0 1-5.379-2.538 14.454 14.454 0 0 1 5.906-.718" style="fill:#f2d81c"/>
                <path data-name="패스 11539" d="M41.856 28.935c0 1.365-.614 2.017-1.371 2.017s-1.372-.652-1.372-2.017a5.644 5.644 0 0 1 1.37-2.926 5.642 5.642 0 0 1 1.371 2.926" style="fill:#f2d81c"/>
                <path data-name="패스 11540" d="M13.344 34.3c2.21-.9 3.695-.272 4.225 1.03s-.1 2.787-2.308 3.685-5.7-.432-5.7-.432 1.569-3.385 3.78-4.284" style="fill:#94b524"/>
                <path data-name="패스 11541" d="M13.344 40.493c2.21-.9 3.695-.272 4.225 1.03s-.1 2.787-2.308 3.685-5.7-.432-5.7-.432 1.569-3.385 3.78-4.284" style="fill:#94b524"/>
                <path data-name="패스 11542" d="M13.344 46.685c2.21-.9 3.695-.272 4.225 1.03s-.1 2.787-2.308 3.685-5.7-.432-5.7-.432 1.569-3.385 3.78-4.284" style="fill:#94b524"/>
                <path data-name="패스 11543" d="M13.344 52.876c2.21-.9 3.695-.272 4.225 1.03s-.1 2.787-2.308 3.685-5.7-.432-5.7-.432 1.569-3.385 3.78-4.284" style="fill:#94b524"/>
                <path data-name="패스 11544" d="M13.344 59.067c2.21-.9 3.695-.272 4.225 1.03s-.1 2.787-2.308 3.685-5.7-.432-5.7-.432 1.569-3.385 3.78-4.284" style="fill:#94b524"/>
                <path data-name="패스 11545" d="M5.786 34.3c-2.21-.9-3.695-.272-4.224 1.03s.1 2.787 2.307 3.685 5.7-.432 5.7-.432S8 35.2 5.786 34.3" style="fill:#94b524"/>
                <path data-name="패스 11546" d="M5.786 40.493c-2.21-.9-3.695-.272-4.224 1.03s.1 2.787 2.307 3.685 5.7-.432 5.7-.432S8 41.391 5.786 40.492" style="fill:#94b524"/>
                <path data-name="패스 11547" d="M5.786 46.685c-2.21-.9-3.695-.272-4.224 1.03s.1 2.787 2.307 3.685 5.7-.432 5.7-.432S8 47.583 5.786 46.684" style="fill:#94b524"/>
                <path data-name="패스 11548" d="M5.786 52.876c-2.21-.9-3.695-.272-4.224 1.03s.1 2.787 2.307 3.685 5.7-.432 5.7-.432S8 53.774 5.786 52.875" style="fill:#94b524"/>
                <path data-name="패스 11549" d="M5.786 59.067c-2.21-.9-3.695-.272-4.224 1.03s.1 2.787 2.307 3.685 5.7-.432 5.7-.432S8 59.965 5.786 59.066" style="fill:#94b524"/>
                <path data-name="패스 11550" d="M9.659 27.963h-.223c0-3.39-2.966-9.192-3-9.251l.2-.1c.031.058 3.021 5.908 3.021 9.352" style="fill:#f4ee22"/>
                <path data-name="패스 11551" d="M6.92 18.661a.379.379 0 1 1-.38-.379.379.379 0 0 1 .379.379" style="fill:#f4ee22"/>
                <path data-name="패스 11552" d="M8.739 29.048c-1.3-3.131-6.265-7.352-6.315-7.394l.144-.17a42.38 42.38 0 0 1 2.683 2.528 17.64 17.64 0 0 1 3.693 4.951z" style="fill:#f4ee22"/>
                <path data-name="패스 11553" d="M2.846 21.423a.379.379 0 1 1-.495-.207.379.379 0 0 1 .495.207" style="fill:#f4ee22"/>
                <path data-name="패스 11554" d="m10.357 29.048-.207-.085a17.578 17.578 0 0 1 3.693-4.951 42.701 42.701 0 0 1 2.683-2.528l.144.17c-.052.042-5.015 4.263-6.315 7.394" style="fill:#f4ee22"/>
                <path data-name="패스 11555" d="M9.659 27.963h-.223c0-3.444 2.992-9.294 3.022-9.352l.2.1c-.03.059-3 5.861-3 9.251" style="fill:#f4ee22"/>
                <path data-name="패스 11556" d="M12.178 18.661a.379.379 0 1 0 .38-.379.379.379 0 0 0-.379.379" style="fill:#f4ee22"/>
                <path data-name="패스 11557" d="M9.165 16.618a.379.379 0 1 0 .38-.379.379.379 0 0 0-.379.379" style="fill:#f4ee22"/>
                <path data-name="사각형 2674" transform="translate(9.437 16.469)" style="fill:#f4ee22" d="M0 0h.222v8.023H0z"/>
                <path data-name="사각형 2675" transform="translate(8.842 30.057)" style="fill:#8c6239" d="M0 0h1.445v40.736H0z"/>
                <path data-name="패스 11558" d="M5.786 32.023c-2.21-.9-3.695-.272-4.224 1.03s.1 2.787 2.307 3.685 5.7-.432 5.7-.432S8 32.921 5.786 32.022" style="fill:#a1d438"/>
                <path data-name="패스 11559" d="M5.786 37.768c-2.21-.9-3.695-.272-4.224 1.03s.1 2.787 2.307 3.685 5.7-.432 5.7-.432S8 38.666 5.786 37.767" style="fill:#a1d438"/>
                <path data-name="패스 11560" d="M5.786 43.513c-2.21-.9-3.695-.272-4.224 1.03s.1 2.787 2.307 3.685 5.7-.432 5.7-.432S8 44.411 5.786 43.512" style="fill:#a1d438"/>
                <path data-name="패스 11561" d="M5.786 49.259c-2.21-.9-3.695-.272-4.224 1.03s.1 2.787 2.307 3.685 5.7-.432 5.7-.432S8 50.157 5.786 49.258" style="fill:#a1d438"/>
                <path data-name="패스 11562" d="M5.786 55c-2.21-.9-3.695-.272-4.224 1.03s.1 2.787 2.307 3.685 5.7-.432 5.7-.432S8 55.9 5.786 55" style="fill:#a1d438"/>
                <path data-name="패스 11563" d="M5.786 60.749c-2.21-.9-3.695-.272-4.224 1.03s.1 2.787 2.307 3.685 5.7-.432 5.7-.432S8 61.647 5.786 60.748" style="fill:#a1d438"/>
                <path data-name="패스 11564" d="M13.344 32.023c2.21-.9 3.695-.272 4.225 1.03s-.1 2.787-2.308 3.685-5.7-.432-5.7-.432 1.569-3.385 3.78-4.284" style="fill:#a1d438"/>
                <path data-name="패스 11565" d="M13.344 37.768c2.21-.9 3.695-.272 4.225 1.03s-.1 2.787-2.308 3.685-5.7-.432-5.7-.432 1.569-3.385 3.78-4.284" style="fill:#a1d438"/>
                <path data-name="패스 11566" d="M13.344 43.513c2.21-.9 3.695-.272 4.225 1.03s-.1 2.787-2.308 3.685-5.7-.432-5.7-.432 1.569-3.385 3.78-4.284" style="fill:#a1d438"/>
                <path data-name="패스 11567" d="M13.344 49.259c2.21-.9 3.695-.272 4.225 1.03s-.1 2.787-2.308 3.685-5.7-.432-5.7-.432 1.569-3.385 3.78-4.284" style="fill:#a1d438"/>
                <path data-name="패스 11568" d="M13.344 55c2.21-.9 3.695-.272 4.225 1.03s-.1 2.787-2.308 3.685-5.7-.432-5.7-.432S11.134 55.9 13.345 55" style="fill:#a1d438"/>
                <path data-name="패스 11569" d="M13.344 60.749c2.21-.9 3.695-.272 4.225 1.03s-.1 2.787-2.308 3.685-5.7-.432-5.7-.432 1.569-3.385 3.78-4.284" style="fill:#a1d438"/>
                <path data-name="패스 11570" d="M10.919 25.228c0 2.217-.614 3.277-1.371 3.277s-1.372-1.06-1.372-3.277a12.026 12.026 0 0 1 1.372-4.753 12.032 12.032 0 0 1 1.371 4.753" style="fill:#f4e919"/>
                <path data-name="패스 11571" d="M9.338 25.177c1.135 1.905 1.149 3.13.5 3.517s-1.72-.207-2.855-2.113A12.034 12.034 0 0 1 5.728 21.8a12.02 12.02 0 0 1 3.61 3.382" style="fill:#f4ee22"/>
                <path data-name="패스 11572" d="M10.045 25.177c-1.135 1.905-1.149 3.13-.5 3.517s1.72-.207 2.855-2.113a12.034 12.034 0 0 0 1.255-4.781 12.02 12.02 0 0 0-3.61 3.382" style="fill:#f4ee22"/>
                <path data-name="패스 11573" d="M11.887 25.8c-2.373 1.217-3.168 2.456-2.753 3.264s1.887.885 4.258-.332a14.464 14.464 0 0 0 4.331-4.077 14.46 14.46 0 0 0-5.836 1.145" style="fill:#f4e919"/>
                <path data-name="패스 11574" d="M7.186 25.8c2.372 1.217 3.168 2.456 2.752 3.264s-1.886.885-4.258-.332a14.464 14.464 0 0 1-4.331-4.077A14.464 14.464 0 0 1 7.186 25.8" style="fill:#f4e919"/>
                <path data-name="패스 11575" d="M13.158 27.113c-2.632.425-3.772 1.356-3.626 2.256s1.52 1.425 4.152 1a14.466 14.466 0 0 0 5.379-2.538 14.454 14.454 0 0 0-5.906-.718" style="fill:#f2d81c"/>
                <path data-name="패스 11576" d="M5.906 27.113c2.632.425 3.772 1.356 3.626 2.256s-1.52 1.425-4.152 1A14.475 14.475 0 0 1 0 27.831a14.454 14.454 0 0 1 5.906-.718" style="fill:#f2d81c"/>
                <path data-name="패스 11577" d="M10.919 28.935c0 1.365-.614 2.017-1.371 2.017s-1.372-.652-1.372-2.017a5.641 5.641 0 0 1 1.372-2.926 5.642 5.642 0 0 1 1.371 2.926" style="fill:#f2d81c"/>
                <path data-name="패스 11578" d="M29.487 23.988c2.855-1.16 4.773-.352 5.457 1.331s-.126 3.6-2.981 4.761-7.356-.558-7.356-.558 2.026-4.373 4.882-5.533" style="fill:#94b524"/>
                <path data-name="패스 11579" d="M29.487 31.986c2.855-1.16 4.773-.352 5.457 1.331s-.126 3.6-2.981 4.761-7.356-.558-7.356-.558 2.026-4.373 4.882-5.533" style="fill:#94b524"/>
                <path data-name="패스 11580" d="M29.487 39.984c2.855-1.16 4.773-.352 5.457 1.331s-.126 3.6-2.981 4.761-7.356-.558-7.356-.558 2.026-4.373 4.882-5.533" style="fill:#94b524"/>
                <path data-name="패스 11581" d="M29.487 47.982c2.855-1.16 4.773-.352 5.457 1.331s-.126 3.6-2.981 4.761-7.356-.558-7.356-.558 2.026-4.373 4.882-5.533" style="fill:#94b524"/>
                <path data-name="패스 11582" d="M29.487 55.981c2.855-1.16 4.773-.352 5.457 1.331s-.126 3.6-2.981 4.761-7.356-.558-7.356-.558 2.026-4.373 4.882-5.533" style="fill:#94b524"/>
                <path data-name="패스 11583" d="M19.726 23.988c-2.855-1.16-4.773-.352-5.457 1.331s.126 3.6 2.981 4.761 7.356-.558 7.356-.558-2.026-4.373-4.882-5.533" style="fill:#94b524"/>
                <path data-name="패스 11584" d="M19.726 31.986c-2.855-1.16-4.773-.352-5.457 1.331s.126 3.6 2.981 4.761 7.356-.558 7.356-.558-2.026-4.373-4.882-5.533" style="fill:#94b524"/>
                <path data-name="패스 11585" d="M19.726 39.984c-2.855-1.16-4.773-.352-5.457 1.331s.126 3.6 2.981 4.761 7.356-.558 7.356-.558-2.026-4.373-4.882-5.533" style="fill:#94b524"/>
                <path data-name="패스 11586" d="M19.726 47.982c-2.855-1.16-4.773-.352-5.457 1.331s.126 3.6 2.981 4.761 7.356-.558 7.356-.558-2.026-4.373-4.882-5.533" style="fill:#94b524"/>
                <path data-name="패스 11587" d="M19.726 55.981c-2.855-1.16-4.773-.352-5.457 1.331s.126 3.6 2.981 4.761 7.356-.558 7.356-.558-2.026-4.373-4.882-5.533" style="fill:#94b524"/>
                <path data-name="패스 11588" d="M24.729 15.8h-.287c0-4.379-3.834-11.875-3.871-11.95l.255-.131c.039.075 3.9 7.633 3.9 12.081" style="fill:#f4ee22"/>
                <path data-name="패스 11589" d="M21.188 3.785a.49.49 0 1 1-.49-.49.49.49 0 0 1 .49.49" style="fill:#f4ee22"/>
                <path data-name="패스 11590" d="M23.54 17.2c-1.678-4.045-8.091-9.5-8.156-9.552l.186-.219c.016.013 1.647 1.4 3.466 3.264a22.764 22.764 0 0 1 4.771 6.394z" style="fill:#f4ee22"/>
                <path data-name="패스 11591" d="M15.929 7.353a.49.49 0 1 1-.64-.264.489.489 0 0 1 .64.264" style="fill:#f4ee22"/>
                <path data-name="패스 11592" d="m25.63 17.2-.265-.11a22.764 22.764 0 0 1 4.77-6.395 53.95 53.95 0 0 1 3.467-3.264l.185.22c-.064.054-6.475 5.507-8.156 9.551" style="fill:#f4ee22"/>
                <path data-name="패스 11593" d="M33.243 7.353a.49.49 0 1 0 .64-.264.489.489 0 0 0-.64.264" style="fill:#f4ee22"/>
                <path data-name="패스 11594" d="M24.729 15.8h-.287c0-4.448 3.864-12 3.9-12.081l.255.131c-.038.075-3.871 7.571-3.871 11.95" style="fill:#f4ee22"/>
                <path data-name="패스 11595" d="M27.983 3.785a.49.49 0 1 0 .49-.49.49.49 0 0 0-.49.49" style="fill:#f4ee22"/>
                <path data-name="패스 11596" d="M24.09 1.145a.49.49 0 1 0 .49-.49.49.49 0 0 0-.49.49" style="fill:#f4ee22"/>
                <path data-name="사각형 2676" transform="translate(24.442 .953)" style="fill:#f4ee22" d="M0 0h.287v10.363H0z"/>
                <path data-name="사각형 2677" transform="translate(23.675 18.506)" style="fill:#8c6239" d="M0 0h1.867v52.287H0z"/>
                <path data-name="패스 11597" d="M19.726 21.045c-2.855-1.16-4.773-.352-5.457 1.331s.126 3.6 2.981 4.761 7.356-.558 7.356-.558-2.026-4.373-4.882-5.533" style="fill:#a1d438"/>
                <path data-name="패스 11598" d="M19.726 28.467c-2.855-1.16-4.773-.352-5.457 1.331s.126 3.6 2.981 4.761S24.606 34 24.606 34s-2.026-4.373-4.882-5.533" style="fill:#a1d438"/>
                <path data-name="패스 11599" d="M19.726 35.888c-2.855-1.16-4.773-.352-5.457 1.331s.126 3.6 2.981 4.761 7.356-.558 7.356-.558-2.026-4.373-4.882-5.533" style="fill:#a1d438"/>
                <path data-name="패스 11600" d="M19.726 43.312c-2.855-1.16-4.773-.352-5.457 1.331s.126 3.6 2.981 4.761 7.356-.558 7.356-.558-2.025-4.375-4.88-5.534" style="fill:#a1d438"/>
                <path data-name="패스 11601" d="M19.726 50.732c-2.855-1.16-4.773-.352-5.457 1.331s.126 3.6 2.981 4.761 7.356-.558 7.356-.558-2.026-4.373-4.882-5.533" style="fill:#a1d438"/>
                <path data-name="패스 11602" d="M19.726 58.152c-2.855-1.16-4.773-.351-5.457 1.331s.126 3.6 2.981 4.761 7.356-.558 7.356-.558-2.026-4.373-4.882-5.533" style="fill:#a1d438"/>
                <path data-name="패스 11603" d="M29.487 21.045c2.855-1.16 4.773-.352 5.457 1.331s-.126 3.6-2.981 4.761-7.356-.558-7.356-.558 2.026-4.373 4.882-5.533" style="fill:#a1d438"/>
                <path data-name="패스 11604" d="M29.487 28.467c2.855-1.16 4.773-.352 5.457 1.331s-.126 3.6-2.981 4.761S24.607 34 24.607 34s2.026-4.373 4.882-5.533" style="fill:#a1d438"/>
                <path data-name="패스 11605" d="M29.487 35.888c2.855-1.16 4.773-.352 5.457 1.331s-.126 3.6-2.981 4.761-7.356-.558-7.356-.558 2.026-4.373 4.882-5.533" style="fill:#a1d438"/>
                <path data-name="패스 11606" d="M29.487 43.312c2.855-1.16 4.773-.352 5.457 1.331s-.126 3.6-2.981 4.761-7.356-.558-7.356-.558 2.027-4.375 4.88-5.534" style="fill:#a1d438"/>
                <path data-name="패스 11607" d="M29.487 50.732c2.855-1.16 4.773-.352 5.457 1.331s-.126 3.6-2.981 4.761-7.356-.558-7.356-.558 2.026-4.373 4.882-5.533" style="fill:#a1d438"/>
                <path data-name="패스 11608" d="M29.487 58.152c2.855-1.16 4.773-.351 5.457 1.331s-.126 3.6-2.981 4.761-7.356-.558-7.356-.558 2.026-4.373 4.882-5.533" style="fill:#a1d438"/>
                <path data-name="패스 11609" d="M26.358 12.269c0 2.864-.793 4.233-1.772 4.233s-1.772-1.369-1.772-4.233a15.538 15.538 0 0 1 1.772-6.14 15.538 15.538 0 0 1 1.772 6.14" style="fill:#f4e919"/>
                <path data-name="패스 11610" d="M24.314 12.2c1.466 2.461 1.484 4.041.643 4.543s-2.222-.269-3.688-2.73a15.551 15.551 0 0 1-1.62-6.181 15.513 15.513 0 0 1 4.662 4.368" style="fill:#f4ee22"/>
                <path data-name="패스 11611" d="M25.228 12.2c-1.466 2.461-1.484 4.041-.643 4.543s2.222-.269 3.688-2.73a15.542 15.542 0 0 0 1.619-6.181A15.513 15.513 0 0 0 25.23 12.2" style="fill:#f4ee22"/>
                <path data-name="패스 11612" d="M27.607 13.005c-3.064 1.573-4.093 3.173-3.554 4.22s2.434 1.144 5.5-.429 5.595-5.267 5.595-5.267-4.477-.1-7.54 1.477" style="fill:#f4e919"/>
                <path data-name="패스 11613" d="M21.535 13.005c3.064 1.573 4.093 3.173 3.554 4.22s-2.434 1.144-5.5-.429-5.594-5.268-5.594-5.268 4.476-.1 7.54 1.476" style="fill:#f4e919"/>
                <path data-name="패스 11614" d="M29.249 14.7c-3.4.549-4.872 1.753-4.685 2.914s1.964 1.841 5.364 1.293 6.948-3.28 6.948-3.28-4.227-1.476-7.626-.927" style="fill:#f2d81c"/>
                <path data-name="패스 11615" d="M19.879 14.7c3.4.549 4.872 1.753 4.685 2.914S22.6 19.458 19.2 18.911s-6.948-3.28-6.948-3.28 4.227-1.476 7.627-.927" style="fill:#f2d81c"/>
                <path data-name="패스 11616" d="M26.358 17.056c0 1.761-.793 2.606-1.772 2.606s-1.772-.842-1.772-2.606 1.772-3.782 1.772-3.782 1.772 2.016 1.772 3.782" style="fill:#f2d81c"/>
                <path data-name="사각형 2678" transform="translate(1.384 70.793)" style="fill:#fff" d="M0 0h47.276v5.839H0z"/>
                <path data-name="패스 11617" d="m2.8 76.631.72 3.289h43l.719-3.289z" style="fill:#e6e6e6"/>
                <path data-name="패스 11618" d="M46.521 79.92h-43l3.692 16.867H17v-1.114a1.307 1.307 0 0 1 2.614 0v1.114h3.436v-1.114a1.307 1.307 0 0 1 2.614 0v1.114H29.1v-1.114a1.308 1.308 0 0 1 2.615 0v1.117H42.83z" style="fill:#fff"/>
                <path data-name="패스 11619" d="M18.307 94.365A1.307 1.307 0 0 0 17 95.672v1.117h2.614v-1.115a1.307 1.307 0 0 0-1.307-1.307" style="fill:#e6e6e6"/>
                <path data-name="패스 11620" d="M24.356 94.365a1.307 1.307 0 0 0-1.307 1.307v1.117h2.614v-1.115a1.307 1.307 0 0 0-1.307-1.307" style="fill:#e6e6e6"/>
                <path data-name="패스 11621" d="M30.405 94.365a1.307 1.307 0 0 0-1.305 1.307v1.117h2.614v-1.115a1.307 1.307 0 0 0-1.307-1.307" style="fill:#e6e6e6"/>
                <path data-name="패스 11622" d="M18.307 94.365A1.307 1.307 0 0 0 17 95.672v1.117h2.614v-1.115a1.307 1.307 0 0 0-1.307-1.307" style="fill:#56b36b"/>
                <path data-name="패스 11623" d="M24.356 94.365a1.307 1.307 0 0 0-1.307 1.307v1.117h2.614v-1.115a1.307 1.307 0 0 0-1.307-1.307" style="fill:#56b36b"/>
                <path data-name="패스 11624" d="M30.405 94.365a1.307 1.307 0 0 0-1.305 1.307v1.117h2.614v-1.115a1.307 1.307 0 0 0-1.307-1.307" style="fill:#56b36b"/>
                <path data-name="패스 11625" d="M45.813 7.716a1.923 1.923 0 0 0 1.461-1.536c.034-.241-.34-.637-.38-1.039-.162-1.7-.6-4.2-2.045-2.591a13.992 13.992 0 0 0-2.53 4.889 7.687 7.687 0 0 1-.353-3.471 2.694 2.694 0 0 1 .594-1.62 1 1 0 0 1 1.04-.037l.046-.1a1.106 1.106 0 0 0-1.147.044h-.007l-.006.006a2.8 2.8 0 0 0-.622 1.685 7.86 7.86 0 0 0 .407 3.664l-.039.141-.138-.043A7.863 7.863 0 0 0 39.215 5.4a2.782 2.782 0 0 0-1.755-.38h-.008l-.007.005a1.1 1.1 0 0 0-.653.942l.107.013a.993.993 0 0 1 .584-.855 2.69 2.69 0 0 1 1.683.369 7.7 7.7 0 0 1 2.74 2.165 13.943 13.943 0 0 0-5.482-.493c-2.133.357-.259 2.069 1.088 3.119.318.25.45.777.673.881a1.926 1.926 0 0 0 2.082-.41s-.933 3.143.989 3.038 1.46.338 2.012.306.893-2.823.893-2.823 2.538 1.213 2.861.764-.3-.3.822-1.862-2.031-2.466-2.031-2.466" style="fill:#1f5a2c"/>
                <path data-name="패스 11626" d="M46.9 5.683a1.923 1.923 0 0 0 1.461-1.536c.034-.241-.34-.637-.38-1.039-.162-1.7-.6-4.2-2.045-2.591a13.992 13.992 0 0 0-2.53 4.889 7.687 7.687 0 0 1-.353-3.471A2.694 2.694 0 0 1 43.652.31a1 1 0 0 1 1.036-.032l.046-.1a1.108 1.108 0 0 0-1.147.044h-.007l-.006.006a2.8 2.8 0 0 0-.622 1.685 7.86 7.86 0 0 0 .407 3.664c-.026.091-.038.141-.038.141l-.139-.043a7.863 7.863 0 0 0-2.875-2.313 2.782 2.782 0 0 0-1.755-.38h-.015a1.1 1.1 0 0 0-.653.942l.107.013a.992.992 0 0 1 .584-.855 2.69 2.69 0 0 1 1.683.369A7.7 7.7 0 0 1 43 5.628a13.943 13.943 0 0 0-5.482-.493c-2.133.357-.259 2.069 1.088 3.119.318.25.45.777.673.881a1.926 1.926 0 0 0 2.082-.41s-.933 3.143.989 3.038 1.46.338 2.012.306.893-2.823.893-2.823 2.538 1.213 2.861.764-.3-.3.822-1.862S46.9 5.682 46.9 5.682" style="fill:#fff"/>
            </g>
        </g>
    </g>
</svg>
