<svg xmlns="http://www.w3.org/2000/svg" width="100" height="100.116" viewBox="0 0 100 100.116">
    <defs>
        <clipPath id="iq0uic5h2a">
            <path data-name="사각형 2655" style="fill:none" d="M0 0h50v75.117H0z"/>
        </clipPath>
    </defs>
    <g data-name="그룹 2514">
        <path data-name="사각형 2598" style="fill:none" d="M0 0h100v100H0z"/>
        <g data-name="그룹 2406">
            <g data-name="그룹 2405" style="clip-path:url(#iq0uic5h2a)" transform="translate(25 24.999)">
                <path data-name="패스 11240" d="M29.722 15.04c3.02-1.227 5.048-.372 5.772 1.408s-.133 3.807-3.153 5.035-7.78-.59-7.78-.59 2.143-4.625 5.163-5.852" style="fill:#94b524"/>
                <path data-name="패스 11241" d="M29.722 23.5c3.02-1.227 5.048-.372 5.772 1.408s-.133 3.807-3.153 5.035-7.78-.59-7.78-.59 2.139-4.626 5.163-5.853" style="fill:#94b524"/>
                <path data-name="패스 11242" d="M29.722 31.958c3.02-1.227 5.048-.372 5.772 1.408s-.133 3.807-3.153 5.035-7.78-.59-7.78-.59 2.143-4.625 5.163-5.852" style="fill:#94b524"/>
                <path data-name="패스 11243" d="M19.4 15.04c-3.02-1.227-5.048-.372-5.772 1.408s.133 3.807 3.153 5.035 7.78-.59 7.78-.59-2.143-4.625-5.163-5.852" style="fill:#94b524"/>
                <path data-name="패스 11244" d="M19.4 23.5c-3.02-1.227-5.048-.372-5.772 1.408s.133 3.807 3.153 5.035 7.78-.59 7.78-.59-2.145-4.626-5.161-5.853" style="fill:#94b524"/>
                <path data-name="패스 11245" d="M19.4 31.958c-3.02-1.227-5.048-.372-5.772 1.408s.133 3.807 3.153 5.035 7.78-.59 7.78-.59-2.143-4.625-5.163-5.852" style="fill:#94b524"/>
                <path data-name="사각형 2651" transform="translate(23.575 9.78)" style="fill:#758f2b" d="M0 0h1.974v37.843H0z"/>
                <path data-name="패스 11246" d="M19.4 10.708c-3.02-1.227-5.048-.372-5.772 1.408s.133 3.807 3.153 5.035 7.78-.59 7.78-.59-2.143-4.625-5.163-5.852" style="fill:#a1d438"/>
                <path data-name="패스 11247" d="M19.4 18.56c-3.02-1.227-5.048-.372-5.772 1.408s.133 3.807 3.153 5.035 7.78-.59 7.78-.59-2.143-4.627-5.161-5.853" style="fill:#a1d438"/>
                <path data-name="패스 11248" d="M19.4 26.407c-3.02-1.227-5.048-.372-5.772 1.408s.133 3.807 3.153 5.035 7.78-.59 7.78-.59-2.143-4.625-5.163-5.852" style="fill:#a1d438"/>
                <path data-name="패스 11249" d="M19.4 34.254c-3.02-1.227-5.048-.372-5.772 1.408s.133 3.807 3.153 5.035 7.78-.59 7.78-.59-2.143-4.625-5.163-5.852" style="fill:#a1d438"/>
                <path data-name="패스 11250" d="M29.722 10.708c3.02-1.227 5.048-.372 5.772 1.408s-.133 3.807-3.153 5.035-7.78-.59-7.78-.59 2.143-4.625 5.163-5.852" style="fill:#a1d438"/>
                <path data-name="패스 11251" d="M29.722 18.56c3.02-1.227 5.048-.372 5.772 1.408s-.133 3.807-3.153 5.032-7.78-.59-7.78-.59 2.144-4.627 5.161-5.853" style="fill:#a1d438"/>
                <path data-name="패스 11252" d="M29.722 26.407c3.02-1.227 5.048-.372 5.772 1.408s-.133 3.807-3.153 5.035-7.78-.59-7.78-.59 2.143-4.625 5.163-5.852" style="fill:#a1d438"/>
                <path data-name="패스 11253" d="M29.722 34.254c3.02-1.227 5.048-.372 5.772 1.408s-.133 3.807-3.153 5.035-7.78-.59-7.78-.59 2.143-4.625 5.163-5.852" style="fill:#a1d438"/>
                <path data-name="패스 11254" d="M26.412 6.494c0 3.029-.839 4.477-1.874 4.477s-1.874-1.448-1.874-4.477A16.435 16.435 0 0 1 24.538 0a16.435 16.435 0 0 1 1.874 6.494" style="fill:#a1d438"/>
                <path data-name="패스 11255" d="M18.2 22.068c2.368-.963 3.96-.292 4.527 1.1s-.1 2.986-2.473 3.949-6.1-.463-6.1-.463 1.681-3.627 4.049-4.59" style="fill:#94b524"/>
                <path data-name="패스 11256" d="M18.2 28.7c2.368-.963 3.96-.292 4.527 1.1s-.1 2.986-2.473 3.949-6.1-.463-6.1-.463 1.681-3.627 4.049-4.59" style="fill:#94b524"/>
                <path data-name="패스 11257" d="M18.2 35.337c2.368-.963 3.96-.292 4.527 1.1s-.1 2.986-2.473 3.949-6.1-.463-6.1-.463 1.681-3.627 4.049-4.59" style="fill:#94b524"/>
                <path data-name="패스 11258" d="M10.1 22.068c-2.368-.963-3.96-.292-4.527 1.1s.105 2.986 2.473 3.949 6.1-.463 6.1-.463-1.681-3.627-4.049-4.59" style="fill:#94b524"/>
                <path data-name="패스 11259" d="M10.1 28.7c-2.368-.963-3.96-.292-4.527 1.1s.105 2.986 2.473 3.949 6.1-.463 6.1-.463-1.68-3.621-4.046-4.586" style="fill:#94b524"/>
                <path data-name="패스 11260" d="M10.1 35.337c-2.368-.963-3.96-.292-4.527 1.1s.105 2.986 2.473 3.949 6.1-.463 6.1-.463-1.68-3.623-4.046-4.586" style="fill:#94b524"/>
                <path data-name="사각형 2652" transform="translate(13.375 17.943)" style="fill:#758f2b" d="M0 0h1.548v29.681H0z"/>
                <path data-name="패스 11261" d="M10.1 18.67c-2.368-.963-3.96-.292-4.527 1.1s.105 2.986 2.473 3.949 6.1-.463 6.1-.463-1.681-3.627-4.049-4.59" style="fill:#a1d438"/>
                <path data-name="패스 11262" d="M10.1 24.829c-2.368-.963-3.96-.292-4.527 1.1s.105 2.986 2.473 3.949 6.1-.463 6.1-.463-1.68-3.629-4.048-4.59" style="fill:#a1d438"/>
                <path data-name="패스 11263" d="M10.1 30.983c-2.368-.963-3.96-.292-4.527 1.1s.105 2.986 2.473 3.949 6.1-.463 6.1-.463-1.681-3.627-4.049-4.59" style="fill:#a1d438"/>
                <path data-name="패스 11264" d="M10.1 37.138c-2.368-.963-3.96-.291-4.527 1.1s.105 2.986 2.473 3.949 6.1-.463 6.1-.463-1.68-3.624-4.046-4.586" style="fill:#a1d438"/>
                <path data-name="패스 11265" d="M18.2 18.67c2.368-.963 3.96-.292 4.527 1.1s-.1 2.986-2.473 3.949-6.1-.463-6.1-.463 1.681-3.627 4.049-4.59" style="fill:#a1d438"/>
                <path data-name="패스 11266" d="M18.2 24.829c2.368-.963 3.96-.292 4.527 1.1s-.1 2.986-2.473 3.949-6.1-.463-6.1-.463 1.681-3.629 4.048-4.59" style="fill:#a1d438"/>
                <path data-name="패스 11267" d="M18.2 30.983c2.368-.963 3.96-.292 4.527 1.1s-.1 2.986-2.473 3.949-6.1-.463-6.1-.463 1.681-3.627 4.049-4.59" style="fill:#a1d438"/>
                <path data-name="패스 11268" d="M18.2 37.138c2.368-.963 3.96-.291 4.527 1.1s-.1 2.986-2.473 3.949-6.1-.463-6.1-.463 1.681-3.627 4.049-4.59" style="fill:#a1d438"/>
                <path data-name="패스 11269" d="M15.6 15.365c0 2.376-.658 3.511-1.47 3.511s-1.469-1.135-1.469-3.511a12.891 12.891 0 0 1 1.469-5.093 12.885 12.885 0 0 1 1.47 5.093" style="fill:#a1d438"/>
                <path data-name="패스 11270" d="M42.124 22.068c2.368-.963 3.96-.292 4.527 1.1s-.1 2.986-2.473 3.949-6.1-.463-6.1-.463 1.681-3.627 4.049-4.59" style="fill:#94b524"/>
                <path data-name="패스 11271" d="M42.124 28.7c2.368-.963 3.96-.292 4.527 1.1s-.1 2.986-2.473 3.949-6.1-.463-6.1-.463 1.681-3.627 4.049-4.59" style="fill:#94b524"/>
                <path data-name="패스 11272" d="M42.124 35.337c2.368-.963 3.96-.292 4.527 1.1s-.1 2.986-2.473 3.949-6.1-.463-6.1-.463 1.681-3.627 4.049-4.59" style="fill:#94b524"/>
                <path data-name="패스 11273" d="M34.027 22.068c-2.368-.963-3.96-.292-4.527 1.1s.1 2.986 2.473 3.949 6.1-.463 6.1-.463-1.681-3.627-4.049-4.59" style="fill:#94b524"/>
                <path data-name="패스 11274" d="M34.027 28.7c-2.368-.963-3.96-.292-4.527 1.1s.1 2.986 2.473 3.949 6.1-.463 6.1-.463-1.681-3.627-4.049-4.59" style="fill:#94b524"/>
                <path data-name="패스 11275" d="M34.027 35.337c-2.368-.963-3.96-.292-4.527 1.1s.1 2.986 2.473 3.949 6.1-.463 6.1-.463-1.681-3.627-4.049-4.59" style="fill:#94b524"/>
                <path data-name="사각형 2653" transform="translate(37.303 17.943)" style="fill:#758f2b" d="M0 0h1.548v29.681H0z"/>
                <path data-name="패스 11276" d="M34.027 18.67c-2.368-.963-3.96-.292-4.527 1.1s.1 2.986 2.473 3.949 6.1-.463 6.1-.463-1.681-3.627-4.049-4.59" style="fill:#a1d438"/>
                <path data-name="패스 11277" d="M34.027 24.829c-2.368-.963-3.96-.292-4.527 1.1s.1 2.986 2.473 3.949 6.1-.463 6.1-.463-1.68-3.629-4.048-4.59" style="fill:#a1d438"/>
                <path data-name="패스 11278" d="M34.027 30.983c-2.368-.963-3.96-.292-4.527 1.1s.1 2.986 2.473 3.949 6.1-.463 6.1-.463-1.681-3.627-4.049-4.59" style="fill:#a1d438"/>
                <path data-name="패스 11279" d="M34.027 37.138c-2.368-.963-3.96-.291-4.527 1.1s.1 2.986 2.473 3.949 6.1-.463 6.1-.463-1.681-3.627-4.049-4.59" style="fill:#a1d438"/>
                <path data-name="패스 11280" d="M42.124 18.67c2.368-.963 3.96-.292 4.527 1.1s-.1 2.986-2.473 3.949-6.1-.463-6.1-.463 1.681-3.627 4.049-4.59" style="fill:#a1d438"/>
                <path data-name="패스 11281" d="M42.124 24.829c2.368-.963 3.96-.292 4.527 1.1s-.1 2.986-2.473 3.949-6.1-.463-6.1-.463 1.681-3.629 4.048-4.59" style="fill:#a1d438"/>
                <path data-name="패스 11282" d="M42.124 30.983c2.368-.963 3.96-.292 4.527 1.1s-.1 2.986-2.473 3.949-6.1-.463-6.1-.463 1.681-3.627 4.049-4.59" style="fill:#a1d438"/>
                <path data-name="패스 11283" d="M42.124 37.138c2.368-.963 3.96-.291 4.527 1.1s-.1 2.986-2.473 3.949-6.1-.463-6.1-.463 1.681-3.627 4.049-4.59" style="fill:#a1d438"/>
                <path data-name="패스 11284" d="M39.528 15.365c0 2.376-.658 3.511-1.47 3.511s-1.469-1.135-1.469-3.511a12.891 12.891 0 0 1 1.469-5.093 12.885 12.885 0 0 1 1.47 5.093" style="fill:#a1d438"/>
                <path data-name="사각형 2654" transform="translate(0 47.623)" style="fill:#fff" d="M0 0h50v6.175H0z"/>
                <path data-name="패스 11285" d="m1.5 53.8.761 3.478h45.476L48.5 53.8z" style="fill:#e6e6e6"/>
                <path data-name="패스 11286" d="M47.737 57.277H2.263l3.9 17.839h10.353v-1.179a1.382 1.382 0 0 1 2.764 0v1.179h3.633v-1.179a1.382 1.382 0 0 1 2.765 0v1.179h3.633v-1.179a1.382 1.382 0 0 1 2.764 0v1.181h11.758z" style="fill:#fff"/>
                <path data-name="패스 11287" d="M17.9 72.554a1.382 1.382 0 0 0-1.382 1.382v1.181h2.762v-1.178a1.383 1.383 0 0 0-1.38-1.383" style="fill:#e6e6e6"/>
                <path data-name="패스 11288" d="M24.3 72.554a1.382 1.382 0 0 0-1.382 1.382v1.181h2.764v-1.178a1.383 1.383 0 0 0-1.382-1.383" style="fill:#e6e6e6"/>
                <path data-name="패스 11289" d="M30.693 72.554a1.382 1.382 0 0 0-1.382 1.382v1.181h2.764v-1.178a1.383 1.383 0 0 0-1.382-1.383" style="fill:#e6e6e6"/>
                <path data-name="패스 11290" d="M17.9 72.554a1.382 1.382 0 0 0-1.382 1.382v1.181h2.762v-1.178a1.383 1.383 0 0 0-1.38-1.383" style="fill:#56b36b"/>
                <path data-name="패스 11291" d="M24.3 72.554a1.382 1.382 0 0 0-1.382 1.382v1.181h2.764v-1.178a1.383 1.383 0 0 0-1.382-1.383" style="fill:#56b36b"/>
                <path data-name="패스 11292" d="M30.693 72.554a1.382 1.382 0 0 0-1.382 1.382v1.181h2.764v-1.178a1.383 1.383 0 0 0-1.382-1.383" style="fill:#56b36b"/>
            </g>
        </g>
    </g>
</svg>
