<svg xmlns="http://www.w3.org/2000/svg" width="100" height="100" viewBox="0 0 100 100">
    <defs>
        <clipPath id="pcd5gyjbda">
            <path data-name="사각형 2790" style="fill:none" d="M0 0h59.082v71.961H0z"/>
        </clipPath>
    </defs>
    <g data-name="그룹 2492">
        <path data-name="사각형 2621" style="fill:none" d="M0 0h100v100H0z"/>
        <g data-name="그룹 2457">
            <path data-name="사각형 2786" transform="translate(44.269 37.038)" style="fill:#418c48" d="M0 0h1.779v38.985H0z"/>
            <path data-name="사각형 2787" transform="translate(53.482 28.485)" style="fill:#418c48" d="M0 0h1.779v47.538H0z"/>
            <g data-name="그룹 2456">
                <g data-name="그룹 2455" style="clip-path:url(#pcd5gyjbda)" transform="translate(20 28)">
                    <path data-name="패스 13264" d="M20.024 48.022h-1.779c0-22.89-8.807-33.059-8.9-33.159l1.326-1.186c.382.425 9.349 10.708 9.349 34.345" style="fill:#418c48"/>
                    <path data-name="패스 13265" d="M41.376 48.022H39.6c0-24.709 9-34 9.383-34.38l1.255 1.258-.629-.629.631.627c-.089.089-8.863 9.237-8.863 33.124" style="fill:#418c48"/>
                    <path data-name="패스 13266" d="M15.464 48.022h-1.779c0-15.757-7.585-22.022-7.662-22.08l1.114-1.389c.34.273 8.327 6.867 8.327 23.469" style="fill:#418c48"/>
                    <path data-name="패스 13267" d="M45.661 48.022h-1.779c0-16.6 7.987-23.2 8.327-23.469l1.115 1.387c-.077.062-7.663 6.4-7.663 22.082" style="fill:#418c48"/>
                    <path data-name="패스 13268" d="M6.3 36.508a.381.381 0 0 0-.209.27c-.342-.588-.715-.94-.97-.849-.235.084-.312.522-.237 1.119-.507-.506-.985-.766-1.212-.6s-.152.626.108 1.213c-.788-.281-1.434-.316-1.573-.041s.3.809 1.036 1.291c-.671.152-1.124.4-1.112.676s.551.518 1.312.6c-.6.326-.958.688-.874.944s.59.336 1.265.247a.379.379 0 0 0-.086.331c.083.257.59.336 1.264.247a.385.385 0 0 0-.085.332c.084.256.59.335 1.265.247a.384.384 0 0 0-.087.331c.084.256.591.336 1.265.247a.383.383 0 0 0-.086.331c.125.381 1.168.382 2.332 0a4.071 4.071 0 0 0 1.727-.969l2.383 1.17.213-.431-2.38-1.169a4.065 4.065 0 0 0-.3-1.958c-.412-1.153-1.051-1.978-1.428-1.843a.381.381 0 0 0-.209.27c-.342-.588-.715-.94-.97-.849a.379.379 0 0 0-.209.27c-.342-.588-.715-.94-.97-.85a.383.383 0 0 0-.209.271c-.342-.589-.715-.94-.97-.85" style="fill:#418c48"/>
                    <path data-name="패스 13269" d="M4.168 27.518a.381.381 0 0 0-.209.27c-.342-.588-.715-.94-.97-.849-.235.084-.312.522-.237 1.119-.507-.506-.985-.766-1.212-.6s-.152.626.108 1.213C.86 28.383.22 28.352.076 28.627s.3.809 1.036 1.291c-.671.152-1.124.4-1.112.676.012.291.551.518 1.312.6-.6.326-.958.688-.874.944s.589.336 1.264.247a.379.379 0 0 0-.086.331c.083.257.59.336 1.264.247a.385.385 0 0 0-.085.332c.084.256.59.335 1.265.247a.384.384 0 0 0-.087.331c.084.256.591.336 1.265.247a.383.383 0 0 0-.086.331c.125.381 1.168.382 2.332 0a4.072 4.072 0 0 0 1.726-.968l2.383 1.17.213-.431-2.386-1.167a4.061 4.061 0 0 0-.291-1.955C8.72 29.944 8.08 29.119 7.7 29.254a.381.381 0 0 0-.209.27c-.342-.588-.715-.94-.97-.849a.379.379 0 0 0-.209.27c-.342-.588-.715-.94-.97-.85a.383.383 0 0 0-.209.271c-.342-.589-.715-.94-.97-.85" style="fill:#418c48"/>
                    <path data-name="패스 13270" d="M52.785 36.891a.381.381 0 0 1 .209.27c.342-.588.715-.94.97-.849.235.084.312.522.237 1.119.507-.506.985-.766 1.212-.6s.152.626-.108 1.213c.788-.281 1.434-.316 1.573-.041s-.3.809-1.036 1.291c.671.152 1.124.4 1.112.676s-.551.518-1.312.6c.6.326.958.688.874.944s-.59.336-1.265.247a.379.379 0 0 1 .086.331c-.083.257-.59.336-1.264.247a.385.385 0 0 1 .085.332c-.083.256-.59.335-1.264.247a.383.383 0 0 1 .086.331c-.084.256-.591.336-1.265.247a.383.383 0 0 1 .086.331c-.125.381-1.168.382-2.332 0a4.071 4.071 0 0 1-1.727-.969l-2.383 1.17-.213-.431 2.384-1.17a4.061 4.061 0 0 1 .291-1.958c.412-1.153 1.051-1.978 1.428-1.843a.381.381 0 0 1 .209.27c.342-.588.716-.94.97-.849a.379.379 0 0 1 .209.27c.342-.588.715-.94.97-.85a.383.383 0 0 1 .209.271c.342-.589.715-.94.97-.85" style="fill:#418c48"/>
                    <path data-name="패스 13271" d="M54.913 27.9a.381.381 0 0 1 .209.27c.342-.588.715-.94.97-.849.235.084.312.522.237 1.119.507-.506.985-.766 1.212-.6s.152.626-.108 1.213c.788-.281 1.434-.316 1.573-.041s-.3.809-1.036 1.291c.671.152 1.123.4 1.112.676-.012.291-.551.518-1.312.6.6.326.958.688.874.944s-.59.336-1.265.247a.382.382 0 0 1 .086.331c-.083.257-.59.336-1.264.247a.385.385 0 0 1 .085.332c-.084.256-.59.335-1.265.247a.384.384 0 0 1 .087.331c-.084.256-.591.336-1.265.247a.383.383 0 0 1 .086.331c-.125.381-1.168.382-2.332 0a4.071 4.071 0 0 1-1.727-.969l-2.383 1.168-.213-.431 2.384-1.17a4.061 4.061 0 0 1 .291-1.958c.412-1.153 1.051-1.978 1.428-1.843a.381.381 0 0 1 .209.27c.342-.588.715-.94.97-.849a.379.379 0 0 1 .209.27c.342-.588.715-.94.97-.85a.383.383 0 0 1 .209.271c.342-.589.715-.94.97-.85" style="fill:#418c48"/>
                    <path data-name="패스 13272" d="M38.277 33.266a.415.415 0 0 1 .345.138c0-.739.151-1.274.439-1.329.267-.051.58.317.839.917.2-.753.5-1.259.8-1.234.281.024.487.5.568 1.195.582-.7 1.167-1.085 1.449-.9s.165.922-.259 1.778c.712-.227 1.274-.24 1.413.02.149.278-.229.787-.9 1.285.738-.024 1.276.116 1.339.4s-.366.64-1.047.929a.413.413 0 0 1 .263.262c.063.286-.366.64-1.047.929a.413.413 0 0 1 .263.262c.063.286-.367.64-1.048.929a.416.416 0 0 1 .263.262c.063.286-.366.64-1.047.929a.416.416 0 0 1 .263.262c.093.424-.882 1-2.18 1.287a4.444 4.444 0 0 1-2.15.046l-1.585 2.408-.436-.287 1.585-2.408a4.449 4.449 0 0 1-.808-1.993c-.249-1.306-.106-2.43.321-2.512a.421.421 0 0 1 .345.138c0-.739.151-1.274.439-1.328a.415.415 0 0 1 .345.138c0-.74.151-1.274.439-1.329a.412.412 0 0 1 .344.138c0-.739.151-1.274.439-1.329" style="fill:#418c48"/>
                    <path data-name="패스 13273" d="M21.4 33.266a.415.415 0 0 0-.345.138c0-.739-.151-1.274-.439-1.329-.267-.051-.58.317-.839.917-.2-.753-.5-1.259-.8-1.234-.281.024-.487.5-.568 1.195-.582-.7-1.167-1.085-1.449-.9s-.165.922.259 1.778c-.712-.227-1.274-.24-1.413.02-.149.278.23.787.9 1.285-.738-.024-1.276.116-1.339.4s.366.64 1.047.929a.413.413 0 0 0-.263.262c-.063.286.366.64 1.047.929a.413.413 0 0 0-.263.262c-.063.286.367.64 1.048.929a.416.416 0 0 0-.263.262c-.063.286.366.64 1.047.929a.416.416 0 0 0-.263.262c-.093.424.882 1 2.18 1.287a4.444 4.444 0 0 0 2.15.046l1.584 2.4.436-.287-1.585-2.408a4.449 4.449 0 0 0 .808-1.993c.249-1.306.106-2.43-.321-2.512a.421.421 0 0 0-.345.138c0-.739-.151-1.274-.439-1.328a.415.415 0 0 0-.345.138c0-.74-.151-1.274-.439-1.329a.412.412 0 0 0-.344.138c0-.739-.151-1.274-.439-1.329" style="fill:#418c48"/>
                    <path data-name="패스 13274" d="M21.62 18.989a.356.356 0 0 0-.3.118c0-.633-.13-1.091-.375-1.138-.229-.044-.5.271-.718.785-.167-.646-.427-1.078-.686-1.057-.24.02-.416.43-.486 1.023-.5-.6-1-.93-1.241-.775s-.141.789.221 1.522c-.608-.194-1.091-.2-1.209.018s.2.674.768 1.1c-.632-.021-1.092.1-1.147.343s.314.547.9.794a.355.355 0 0 0-.225.225c-.054.245.313.547.9.794a.355.355 0 0 0-.225.225c-.054.245.314.547.9.794a.359.359 0 0 0-.226.225c-.053.245.314.547.9.794a.356.356 0 0 0-.225.224c-.08.364.755.857 1.866 1.1a3.794 3.794 0 0 0 1.84.039l1.357 2.058.374-.246-1.357-2.054a3.793 3.793 0 0 0 .691-1.7c.213-1.118.091-2.081-.275-2.15a.355.355 0 0 0-.3.118c0-.633-.129-1.091-.375-1.138a.355.355 0 0 0-.3.118c0-.633-.13-1.091-.376-1.138a.353.353 0 0 0-.294.118c0-.633-.13-1.091-.376-1.138" style="fill:#418c48"/>
                    <path data-name="패스 13275" d="M31.254 15.04a.356.356 0 0 0-.3.118c0-.633-.13-1.091-.375-1.138-.229-.044-.5.271-.718.785-.167-.646-.427-1.078-.686-1.057-.24.02-.416.43-.486 1.023-.5-.6-1-.93-1.241-.775s-.141.789.221 1.522c-.608-.194-1.091-.2-1.209.018s.2.674.768 1.1c-.632-.021-1.092.1-1.147.343s.314.547.9.794a.355.355 0 0 0-.225.225c-.054.245.313.547.9.794a.355.355 0 0 0-.225.225c-.054.245.314.547.9.794a.359.359 0 0 0-.226.225c-.053.245.314.547.9.794a.356.356 0 0 0-.225.224c-.08.364.755.857 1.866 1.1a3.794 3.794 0 0 0 1.84.039l1.357 2.061.374-.246-1.357-2.061a3.793 3.793 0 0 0 .691-1.7c.213-1.118.091-2.081-.275-2.15a.355.355 0 0 0-.3.118c0-.633-.129-1.091-.375-1.138a.355.355 0 0 0-.3.118c0-.633-.13-1.091-.376-1.138a.353.353 0 0 0-.294.118c0-.633-.13-1.091-.376-1.138" style="fill:#418c48"/>
                    <path data-name="패스 13276" d="M28.112 26.868a.356.356 0 0 1 .3.118c0-.633.13-1.091.375-1.138.229-.044.5.271.718.785.167-.646.427-1.078.686-1.057.24.02.416.43.486 1.023.5-.6 1-.93 1.241-.775s.141.789-.221 1.522c.608-.194 1.091-.2 1.209.018s-.2.674-.768 1.1c.632-.021 1.092.1 1.147.343s-.314.547-.9.794a.355.355 0 0 1 .225.225c.054.245-.313.547-.9.794a.355.355 0 0 1 .225.225c.054.245-.314.547-.9.794a.359.359 0 0 1 .226.225c.053.245-.314.547-.9.794a.356.356 0 0 1 .225.224c.08.364-.755.857-1.866 1.1a3.794 3.794 0 0 1-1.84.039l-1.357 2.061-.374-.246 1.357-2.061a3.793 3.793 0 0 1-.691-1.705c-.213-1.118-.091-2.081.275-2.15a.355.355 0 0 1 .3.118c0-.633.129-1.091.375-1.138a.355.355 0 0 1 .3.118c0-.633.13-1.091.376-1.138a.353.353 0 0 1 .294.118c0-.633.13-1.091.376-1.138" style="fill:#418c48"/>
                    <path data-name="패스 13277" d="M49.313 22.115a.353.353 0 0 1 .2.246c.3-.557.638-.894.876-.817.221.071.305.476.253 1.034.456-.486.892-.741 1.108-.6.2.133.159.577-.065 1.131.724-.285 1.323-.334 1.46-.084s-.255.76-.925 1.229c.628.121 1.056.343 1.053.6s-.5.5-1.2.6c.565.286.911.611.841.851s-.538.33-1.168.267a.356.356 0 0 1 .09.305c-.07.241-.538.33-1.168.267a.356.356 0 0 1 .09.305c-.07.241-.538.329-1.168.267a.356.356 0 0 1 .09.305c-.07.24-.538.329-1.168.267a.356.356 0 0 1 .09.305c-.1.357-1.074.388-2.166.069a3.8 3.8 0 0 1-1.633-.849l-2.18 1.156-.209-.4 2.18-1.156a3.8 3.8 0 0 1 .213-1.828c.349-1.083.919-1.868 1.273-1.754a.353.353 0 0 1 .2.246c.3-.556.638-.894.876-.817a.349.349 0 0 1 .2.245c.3-.556.638-.894.876-.817a.353.353 0 0 1 .2.246c.3-.557.638-.895.876-.817" style="fill:#418c48"/>
                    <path data-name="패스 13278" d="M32.06 35.322a.353.353 0 0 1 .2.246c.3-.557.638-.894.876-.817.221.071.305.476.253 1.034.456-.486.892-.741 1.108-.6.2.133.159.577-.065 1.131.724-.285 1.323-.334 1.46-.084s-.255.76-.925 1.229c.628.121 1.056.343 1.053.6s-.5.5-1.2.6c.565.286.911.611.841.851s-.538.33-1.168.267a.356.356 0 0 1 .09.305c-.07.241-.538.33-1.168.267a.356.356 0 0 1 .09.3c-.07.241-.538.329-1.168.267a.356.356 0 0 1 .09.305c-.07.24-.538.329-1.168.267a.356.356 0 0 1 .09.305c-.1.357-1.074.388-2.166.069a3.8 3.8 0 0 1-1.633-.849l-2.18 1.156-.209-.4 2.18-1.156a3.8 3.8 0 0 1 .213-1.828c.349-1.083.919-1.868 1.273-1.754a.353.353 0 0 1 .2.246c.3-.556.638-.894.876-.817a.349.349 0 0 1 .2.245c.3-.556.638-.894.876-.817a.353.353 0 0 1 .2.246c.3-.557.638-.9.876-.817" style="fill:#418c48"/>
                    <path data-name="패스 13279" d="M9.865 22.444a.353.353 0 0 0-.2.246c-.3-.557-.638-.894-.876-.818-.221.071-.3.476-.253 1.034-.456-.486-.892-.741-1.108-.6-.2.133-.159.577.065 1.131-.724-.285-1.323-.334-1.46-.084s.255.76.925 1.229c-.628.121-1.056.343-1.053.6s.5.5 1.2.6c-.565.286-.911.611-.841.851s.538.33 1.168.267a.356.356 0 0 0-.09.305c.07.241.538.33 1.168.267a.356.356 0 0 0-.09.305c.07.241.538.329 1.168.267a.356.356 0 0 0-.09.305c.07.24.538.329 1.168.267a.356.356 0 0 0-.09.305c.1.357 1.074.388 2.166.069a3.8 3.8 0 0 0 1.633-.849l2.18 1.156.209-.4-2.177-1.161a3.8 3.8 0 0 0-.213-1.828c-.349-1.083-.919-1.868-1.273-1.754a.353.353 0 0 0-.2.246c-.3-.556-.638-.894-.876-.817a.349.349 0 0 0-.2.245c-.3-.556-.638-.894-.876-.817a.353.353 0 0 0-.2.246c-.3-.557-.638-.895-.876-.817" style="fill:#418c48"/>
                    <path data-name="패스 13280" d="M41.339 26.16a.353.353 0 0 0-.2.246c-.3-.557-.638-.894-.876-.817-.221.071-.305.476-.253 1.034-.456-.486-.892-.741-1.108-.6-.2.133-.159.577.065 1.131-.724-.285-1.323-.334-1.46-.084s.255.76.925 1.229c-.628.121-1.056.343-1.053.6s.5.5 1.2.6c-.565.286-.911.611-.841.851s.538.33 1.168.267a.356.356 0 0 0-.09.305c.07.241.538.33 1.168.267a.356.356 0 0 0-.09.305c.07.241.538.329 1.168.267a.356.356 0 0 0-.09.305c.07.24.538.329 1.168.267a.356.356 0 0 0-.09.305c.1.357 1.074.388 2.166.069a3.8 3.8 0 0 0 1.633-.849l2.18 1.156.209-.4-2.18-1.156a3.8 3.8 0 0 0-.213-1.828c-.349-1.083-.919-1.868-1.273-1.754a.353.353 0 0 0-.2.246c-.3-.556-.638-.894-.876-.817a.349.349 0 0 0-.2.245c-.3-.556-.638-.894-.876-.817a.353.353 0 0 0-.2.246c-.3-.557-.638-.895-.876-.817" style="fill:#418c48"/>
                    <path data-name="패스 13281" d="M40.942 26.16a.353.353 0 0 0-.2.246c-.3-.557-.638-.894-.876-.817-.221.071-.305.476-.253 1.034-.456-.486-.892-.741-1.108-.6-.2.133-.159.577.065 1.131-.724-.285-1.323-.334-1.46-.084s.255.76.925 1.229c-.628.121-1.056.343-1.053.6s.5.5 1.2.6c-.565.286-.911.611-.841.851s.538.33 1.168.267a.356.356 0 0 0-.09.305c.07.241.538.33 1.168.267a.356.356 0 0 0-.09.305c.07.241.538.329 1.168.267a.356.356 0 0 0-.09.305c.07.24.538.329 1.168.267a.356.356 0 0 0-.09.305c.1.357 1.074.388 2.166.069a3.8 3.8 0 0 0 1.633-.849l2.18 1.156.209-.4-2.18-1.156a3.8 3.8 0 0 0-.213-1.828c-.349-1.083-.919-1.868-1.273-1.754a.353.353 0 0 0-.2.246c-.3-.556-.638-.894-.876-.817a.349.349 0 0 0-.2.245c-.3-.556-.638-.894-.876-.817a.353.353 0 0 0-.2.246c-.3-.557-.638-.895-.876-.817" style="fill:#418c48"/>
                    <path data-name="패스 13282" d="M37.326 18.989a.356.356 0 0 1 .3.118c0-.633.13-1.091.375-1.138.229-.044.5.271.718.785.167-.646.427-1.078.686-1.057.24.02.416.43.486 1.023.5-.6 1-.93 1.241-.775s.141.789-.221 1.522c.608-.194 1.091-.2 1.209.018s-.2.674-.768 1.1c.632-.021 1.092.1 1.147.343s-.314.547-.9.794a.355.355 0 0 1 .225.225c.054.245-.313.547-.9.794a.355.355 0 0 1 .225.225c.054.245-.314.547-.9.794a.359.359 0 0 1 .226.225c.053.245-.314.547-.9.794A.356.356 0 0 1 39.8 25c.08.364-.755.857-1.866 1.1a3.794 3.794 0 0 1-1.84.039l-1.348 2.067-.374-.246 1.357-2.06a3.793 3.793 0 0 1-.691-1.7c-.213-1.118-.091-2.081.275-2.15a.355.355 0 0 1 .3.118c0-.633.129-1.091.375-1.138a.355.355 0 0 1 .3.118c0-.633.13-1.091.376-1.138a.352.352 0 0 1 .288.122c0-.633.13-1.091.376-1.138" style="fill:#418c48"/>
                    <path data-name="패스 13283" d="M49.078 71.955H11.211a2.9 2.9 0 0 1-2.9-2.9V51.268h43.666v17.793a2.9 2.9 0 0 1-2.9 2.9" style="fill:#91d09f"/>
                    <path data-name="사각형 2788" transform="translate(8.313 46.039)" style="fill:#91d09f" d="M0 0h43.664v3.967H0z"/>
                    <path data-name="사각형 2789" transform="translate(8.313 50.003)" style="fill:#56b36b" d="M0 0h43.664v1.265H0z"/>
                    <path data-name="패스 13284" d="M32.514 1.856A1.856 1.856 0 1 0 34.37 0a1.856 1.856 0 0 0-1.856 1.856" style="fill:#fce09c"/>
                    <path data-name="패스 13285" d="M34.763 2.291C34.769 1.3 34.6.5 34.382.5s-.4.8-.4 1.782.165 1.786.382 1.789.4-.8.4-1.783" style="fill:#fff"/>
                    <path data-name="패스 13286" d="M35.283 2.415c.215-.962.219-1.78.007-1.829s-.558.694-.773 1.656-.219 1.781-.008 1.829.559-.693.774-1.656" style="fill:#fff"/>
                    <path data-name="패스 13287" d="M35.83 2.415c.215-.962.219-1.78.007-1.829s-.558.694-.773 1.656-.219 1.781-.008 1.829.559-.693.774-1.656" style="fill:#fff"/>
                    <path data-name="패스 13288" d="M36.317 2.415c.215-.962.219-1.78.007-1.829s-.558.694-.773 1.656-.219 1.781-.008 1.829.559-.693.774-1.656" style="fill:#fff"/>
                    <path data-name="패스 13289" d="M33.461 2.415c.215.962.562 1.7.773 1.656s.208-.867-.007-1.829-.562-1.705-.773-1.656-.208.866.007 1.829" style="fill:#fff"/>
                    <path data-name="패스 13290" d="M32.915 2.415c.215.962.562 1.7.773 1.656s.208-.867-.007-1.829-.562-1.705-.773-1.656-.208.866.007 1.829" style="fill:#fff"/>
                    <path data-name="패스 13291" d="M32.428 2.415c.215.962.562 1.7.773 1.656s.208-.867-.007-1.829-.562-1.705-.773-1.656-.208.866.007 1.829" style="fill:#fff"/>
                    <path data-name="패스 13292" d="M23.3 9.151A1.856 1.856 0 1 0 25.159 7.3 1.856 1.856 0 0 0 23.3 9.151" style="fill:#fce09c"/>
                    <path data-name="패스 13293" d="M25.552 9.585c.006-.986-.164-1.786-.381-1.788s-.4.8-.4 1.782.165 1.786.382 1.789.4-.8.4-1.783" style="fill:#fff"/>
                    <path data-name="패스 13294" d="M26.072 9.71c.215-.962.219-1.78.007-1.829s-.558.694-.773 1.656-.219 1.781-.008 1.829.559-.693.774-1.656" style="fill:#fff"/>
                    <path data-name="패스 13295" d="M26.619 9.71c.215-.962.219-1.78.007-1.829s-.558.694-.773 1.656-.219 1.781-.008 1.829.559-.693.774-1.656" style="fill:#fff"/>
                    <path data-name="패스 13296" d="M27.106 9.71c.215-.962.219-1.78.007-1.829s-.558.694-.773 1.656-.219 1.781-.008 1.829.559-.693.774-1.656" style="fill:#fff"/>
                    <path data-name="패스 13297" d="M24.25 9.71c.215.962.562 1.7.773 1.656s.208-.867-.007-1.829-.562-1.7-.773-1.656-.208.866.007 1.829" style="fill:#fff"/>
                    <path data-name="패스 13298" d="M23.7 9.71c.215.962.562 1.7.773 1.656s.208-.867-.007-1.829-.562-1.7-.773-1.656-.208.866.007 1.829" style="fill:#fff"/>
                    <path data-name="패스 13299" d="M23.217 9.71c.215.962.562 1.7.773 1.656s.208-.867-.007-1.829-.562-1.7-.773-1.656-.208.866.007 1.829" style="fill:#fff"/>
                    <path data-name="패스 13300" d="M8.951 15.672a1.856 1.856 0 1 0 .449-2.587 1.857 1.857 0 0 0-.445 2.587" style="fill:#fce09c"/>
                    <path data-name="패스 13301" d="M11.038 14.729c-.564-.809-1.165-1.364-1.344-1.241s.135.881.7 1.69 1.165 1.363 1.344 1.24-.135-.88-.7-1.689" style="fill:#fff"/>
                    <path data-name="패스 13302" d="M11.535 14.53c-.38-.91-.849-1.58-1.049-1.5s-.056.889.323 1.8.85 1.58 1.05 1.5.056-.888-.324-1.8" style="fill:#fff"/>
                    <path data-name="패스 13303" d="M11.981 14.215c-.38-.91-.849-1.58-1.049-1.5s-.056.889.323 1.8.85 1.58 1.05 1.5.056-.888-.324-1.8" style="fill:#fff"/>
                    <path data-name="패스 13304" d="M12.379 13.934c-.38-.91-.849-1.58-1.049-1.5s-.056.889.323 1.8.85 1.58 1.05 1.5.056-.888-.324-1.8" style="fill:#fff"/>
                    <path data-name="패스 13305" d="M10.047 15.582c.731.662 1.443 1.068 1.587.906S11.3 15.66 10.573 15s-1.443-1.068-1.587-.907.33.828 1.061 1.49" style="fill:#fff"/>
                    <path data-name="패스 13306" d="M9.6 15.9c.731.662 1.443 1.068 1.587.906s-.33-.828-1.061-1.489-1.443-1.068-1.587-.907.33.828 1.061 1.49" style="fill:#fff"/>
                    <path data-name="패스 13307" d="M9.2 16.178c.731.662 1.443 1.068 1.587.906s-.33-.828-1.061-1.489-1.443-1.068-1.587-.907.33.828 1.061 1.49" style="fill:#fff"/>
                    <path data-name="패스 13308" d="M47.662 13.108a1.856 1.856 0 1 0 2.527-.711 1.856 1.856 0 0 0-2.527.711" style="fill:#fce09c"/>
                    <path data-name="패스 13309" d="M49.411 14.587c.488-.857.73-1.638.542-1.746s-.737.5-1.224 1.357-.73 1.638-.543 1.746.737-.5 1.225-1.357" style="fill:#fff"/>
                    <path data-name="패스 13310" d="M49.8 14.95c.658-.734 1.061-1.445.9-1.591s-.827.332-1.485 1.066-1.061 1.445-.9 1.591.826-.332 1.485-1.066" style="fill:#fff"/>
                    <path data-name="패스 13311" d="M50.28 15.218c.658-.734 1.061-1.445.9-1.591s-.827.332-1.485 1.066-1.061 1.445-.9 1.591.826-.332 1.485-1.066" style="fill:#fff"/>
                    <path data-name="패스 13312" d="M50.705 15.456c.658-.734 1.061-1.445.9-1.591s-.827.332-1.485 1.066-1.061 1.445-.9 1.591.826-.332 1.485-1.066" style="fill:#fff"/>
                    <path data-name="패스 13313" d="M48.215 14.059c-.283.945-.344 1.761-.136 1.822s.606-.653.889-1.6.344-1.762.136-1.823-.606.654-.889 1.6" style="fill:#fff"/>
                    <path data-name="패스 13314" d="M47.738 13.792c-.283.945-.344 1.761-.136 1.822s.606-.653.889-1.6.344-1.762.136-1.823-.606.654-.889 1.6" style="fill:#fff"/>
                    <path data-name="패스 13315" d="M47.313 13.554c-.283.945-.344 1.761-.136 1.822s.606-.653.889-1.6.344-1.762.136-1.823-.606.654-.889 1.6" style="fill:#fff"/>
                    <path data-name="패스 13316" d="M51.627 23.036a1.856 1.856 0 1 0 2.611-.264 1.856 1.856 0 0 0-2.611.264" style="fill:#fce09c"/>
                    <path data-name="패스 13317" d="M53.094 24.8c.628-.76 1-1.487.836-1.627s-.813.366-1.441 1.126-1 1.487-.835 1.626.811-.365 1.44-1.125" style="fill:#fff"/>
                    <path data-name="패스 13318" d="M53.418 25.22c.775-.609 1.3-1.241 1.162-1.412s-.871.184-1.647.794-1.294 1.241-1.162 1.412.871-.184 1.647-.794" style="fill:#fff"/>
                    <path data-name="패스 13319" d="M53.842 25.566c.775-.609 1.3-1.241 1.162-1.412s-.871.184-1.647.794-1.294 1.241-1.162 1.412.871-.184 1.647-.794" style="fill:#fff"/>
                    <path data-name="패스 13320" d="M54.219 25.873c.775-.609 1.295-1.241 1.162-1.412s-.871.184-1.647.794-1.294 1.245-1.162 1.412.871-.184 1.647-.794" style="fill:#fff"/>
                    <path data-name="패스 13321" d="M52.007 24.068c-.442.882-.642 1.676-.448 1.772s.709-.54 1.151-1.421.643-1.677.448-1.773-.709.54-1.151 1.422" style="fill:#fff"/>
                    <path data-name="패스 13322" d="M51.583 23.723c-.442.882-.642 1.676-.448 1.772s.709-.54 1.151-1.421.643-1.677.448-1.773-.709.54-1.151 1.422" style="fill:#fff"/>
                    <path data-name="패스 13323" d="M51.206 23.415c-.442.882-.642 1.676-.448 1.772s.709-.54 1.151-1.421.643-1.677.448-1.773-.709.54-1.151 1.422" style="fill:#fff"/>
                </g>
            </g>
        </g>
    </g>
</svg>
