<svg xmlns="http://www.w3.org/2000/svg" width="100" height="100" viewBox="0 0 100 100">
    <defs>
        <clipPath id="0q3o4z0mna">
            <path data-name="사각형 2800" style="fill:none" d="M0 0h61.997v81.948H0z"/>
        </clipPath>
    </defs>
    <g data-name="그룹 2494">
        <path data-name="사각형 2619" style="fill:none" d="M0 0h100v100H0z"/>
        <g data-name="그룹 2463">
            <path data-name="사각형 2796" transform="translate(28.007 77.989)" style="fill:#56b36b" d="M0 0h43.664v1.265H0z"/>
            <path data-name="사각형 2797" transform="translate(43.963 37.024)" style="fill:#418c48" d="M0 0h1.779v38.985H0z"/>
            <path data-name="사각형 2798" transform="translate(53.176 28.471)" style="fill:#418c48" d="M0 0h1.779v47.538H0z"/>
            <g data-name="그룹 2462">
                <g data-name="그룹 2461" style="clip-path:url(#0q3o4z0mna)" transform="translate(19 17.999)">
                    <path data-name="패스 13446" d="M20.718 58.009h-1.779c0-22.89-8.807-33.059-8.9-33.159l1.326-1.186c.382.425 9.349 10.708 9.349 34.345" style="fill:#418c48"/>
                    <path data-name="패스 13447" d="M42.07 58.009h-1.779c0-24.709 9-34 9.383-34.38l1.258 1.258-.629-.629.631.627c-.089.089-8.863 9.237-8.863 33.124" style="fill:#418c48"/>
                    <path data-name="패스 13448" d="M16.158 58.009h-1.779c0-15.757-7.584-22.019-7.662-22.08l1.114-1.389c.34.273 8.327 6.867 8.327 23.469" style="fill:#418c48"/>
                    <path data-name="패스 13449" d="M46.355 58.009h-1.779c0-16.6 7.987-23.2 8.327-23.469l1.115 1.387c-.077.062-7.663 6.4-7.663 22.082" style="fill:#418c48"/>
                    <path data-name="패스 13450" d="M6.991 46.495a.381.381 0 0 0-.209.27c-.342-.588-.715-.94-.97-.849-.235.084-.312.522-.237 1.119-.507-.506-.985-.766-1.212-.6s-.152.626.108 1.213c-.788-.281-1.434-.316-1.573-.041s.3.809 1.036 1.291c-.671.152-1.124.4-1.112.676s.551.518 1.312.6c-.6.326-.958.688-.874.944s.59.336 1.265.247a.379.379 0 0 0-.086.331c.083.257.59.336 1.264.247a.385.385 0 0 0-.085.332c.084.256.59.335 1.265.247a.384.384 0 0 0-.087.331c.084.256.591.336 1.265.247a.383.383 0 0 0-.086.331c.125.381 1.168.382 2.332 0a4.071 4.071 0 0 0 1.727-.969l2.383 1.17.213-.431-2.38-1.169a4.065 4.065 0 0 0-.3-1.958c-.412-1.153-1.051-1.978-1.428-1.843a.381.381 0 0 0-.209.27c-.342-.588-.715-.94-.97-.849a.379.379 0 0 0-.209.27c-.342-.588-.715-.94-.97-.85a.38.38 0 0 0-.209.271c-.342-.589-.715-.94-.97-.85" style="fill:#418c48"/>
                    <path data-name="패스 13451" d="M4.862 37.505a.381.381 0 0 0-.209.27c-.342-.588-.715-.94-.97-.849-.235.084-.312.522-.237 1.119-.507-.506-.985-.766-1.212-.6s-.152.626.108 1.213c-.788-.288-1.428-.319-1.572-.044s.3.809 1.036 1.291c-.671.152-1.124.4-1.112.676s.551.518 1.312.6c-.6.326-.958.688-.874.944s.589.336 1.264.247a.379.379 0 0 0-.086.331c.083.257.59.336 1.264.247a.385.385 0 0 0-.085.332c.084.256.59.335 1.265.247a.384.384 0 0 0-.087.331c.084.256.591.336 1.265.247a.383.383 0 0 0-.086.331c.125.381 1.168.382 2.332 0A4.072 4.072 0 0 0 9.9 43.47l2.383 1.17.213-.431-2.386-1.167a4.061 4.061 0 0 0-.291-1.958c-.409-1.153-1.049-1.978-1.426-1.843a.381.381 0 0 0-.209.27c-.342-.588-.715-.94-.97-.849a.379.379 0 0 0-.209.27c-.342-.588-.715-.94-.97-.85a.38.38 0 0 0-.209.271c-.342-.589-.715-.94-.97-.85" style="fill:#418c48"/>
                    <path data-name="패스 13452" d="M53.479 46.878a.381.381 0 0 1 .209.27c.342-.588.715-.94.97-.849.235.084.312.522.237 1.119.507-.506.985-.766 1.212-.6s.152.626-.108 1.213c.788-.281 1.434-.316 1.573-.041s-.3.809-1.036 1.291c.671.152 1.124.4 1.112.676s-.551.518-1.312.6c.6.326.958.688.874.944s-.59.336-1.265.247a.379.379 0 0 1 .086.331c-.083.257-.59.336-1.264.247a.385.385 0 0 1 .085.332c-.083.256-.59.335-1.264.247a.383.383 0 0 1 .086.331c-.084.256-.591.336-1.265.247a.383.383 0 0 1 .086.331c-.125.381-1.168.382-2.332 0a4.071 4.071 0 0 1-1.727-.969l-2.383 1.17-.213-.431 2.384-1.17a4.061 4.061 0 0 1 .291-1.958c.412-1.153 1.051-1.978 1.428-1.843a.381.381 0 0 1 .209.27c.342-.588.716-.94.97-.849a.379.379 0 0 1 .209.27c.342-.588.715-.94.97-.85a.383.383 0 0 1 .209.271c.342-.589.715-.94.97-.85" style="fill:#418c48"/>
                    <path data-name="패스 13453" d="M55.607 37.888a.381.381 0 0 1 .209.27c.342-.588.715-.94.97-.849.235.084.312.522.237 1.119.507-.506.985-.766 1.212-.6s.152.626-.108 1.213c.788-.281 1.434-.316 1.573-.041s-.3.809-1.036 1.291c.671.152 1.123.4 1.112.676-.012.291-.551.518-1.312.6.6.326.958.688.874.944s-.59.336-1.265.247a.379.379 0 0 1 .086.331c-.083.257-.59.336-1.264.247a.385.385 0 0 1 .085.332c-.084.256-.59.335-1.265.247a.384.384 0 0 1 .087.331c-.084.256-.591.336-1.265.247a.383.383 0 0 1 .086.331c-.125.381-1.168.382-2.332 0a4.071 4.071 0 0 1-1.727-.969l-2.383 1.168-.213-.431 2.384-1.17a4.061 4.061 0 0 1 .291-1.958c.412-1.153 1.051-1.978 1.428-1.843a.381.381 0 0 1 .209.27c.342-.588.715-.94.97-.849a.379.379 0 0 1 .209.27c.342-.588.715-.94.97-.85a.38.38 0 0 1 .209.271c.342-.589.715-.94.97-.85" style="fill:#418c48"/>
                    <path data-name="패스 13454" d="M38.971 43.253a.415.415 0 0 1 .345.138c0-.739.151-1.274.439-1.329.267-.051.58.317.839.917.2-.753.5-1.259.8-1.234.281.024.487.5.568 1.195.582-.7 1.167-1.085 1.449-.9s.165.922-.259 1.778c.712-.227 1.274-.24 1.413.02.149.278-.229.787-.9 1.285.738-.024 1.276.116 1.339.4s-.366.64-1.047.929a.413.413 0 0 1 .263.262c.063.286-.366.64-1.047.929a.413.413 0 0 1 .263.262c.063.286-.367.64-1.048.929a.416.416 0 0 1 .263.262c.063.286-.366.64-1.047.929a.416.416 0 0 1 .263.262c.093.424-.882 1-2.18 1.287a4.444 4.444 0 0 1-2.15.046l-1.585 2.408-.436-.287 1.584-2.408a4.449 4.449 0 0 1-.808-1.993c-.249-1.306-.106-2.43.321-2.512a.421.421 0 0 1 .345.138c0-.739.151-1.274.439-1.328a.415.415 0 0 1 .345.138c0-.74.151-1.274.439-1.329a.412.412 0 0 1 .344.138c0-.739.151-1.274.439-1.329" style="fill:#418c48"/>
                    <path data-name="패스 13455" d="M22.09 43.253a.415.415 0 0 0-.345.138c0-.739-.151-1.274-.439-1.329-.267-.051-.58.317-.839.917-.2-.753-.5-1.259-.8-1.234-.281.024-.487.5-.568 1.195-.582-.7-1.167-1.085-1.449-.9s-.165.922.259 1.778c-.712-.227-1.274-.24-1.413.02-.149.278.23.787.9 1.285-.738-.024-1.276.116-1.339.4s.366.64 1.047.929a.413.413 0 0 0-.263.262c-.063.286.366.64 1.047.929a.413.413 0 0 0-.263.262c-.063.286.367.64 1.048.929a.416.416 0 0 0-.263.262c-.063.286.366.64 1.047.929a.416.416 0 0 0-.263.262c-.093.424.882 1 2.18 1.287a4.444 4.444 0 0 0 2.15.046l1.584 2.405.436-.287-1.585-2.408a4.449 4.449 0 0 0 .808-1.993c.249-1.306.106-2.43-.321-2.512a.421.421 0 0 0-.345.138c0-.739-.151-1.274-.439-1.328a.415.415 0 0 0-.345.138c0-.74-.151-1.274-.439-1.329a.412.412 0 0 0-.344.138c0-.739-.151-1.274-.439-1.329" style="fill:#418c48"/>
                    <path data-name="패스 13456" d="M22.314 28.976a.356.356 0 0 0-.3.118c0-.633-.13-1.091-.375-1.138-.229-.044-.5.271-.718.785-.167-.646-.427-1.078-.686-1.057-.24.02-.416.43-.486 1.023-.5-.6-1-.93-1.241-.775s-.141.789.221 1.522c-.608-.194-1.091-.2-1.209.018s.2.674.768 1.1c-.632-.021-1.092.1-1.147.343s.314.547.9.794a.355.355 0 0 0-.225.225c-.054.245.313.547.9.794a.355.355 0 0 0-.225.225c-.054.245.314.547.9.794a.359.359 0 0 0-.226.225c-.053.245.314.547.9.794a.356.356 0 0 0-.225.224c-.08.364.755.857 1.866 1.1a3.794 3.794 0 0 0 1.84.039L24.9 38.19l.374-.246-1.354-2.061a3.793 3.793 0 0 0 .691-1.7c.213-1.118.091-2.081-.275-2.15a.355.355 0 0 0-.3.118c0-.633-.129-1.091-.375-1.138a.355.355 0 0 0-.3.118c0-.633-.13-1.091-.376-1.138a.353.353 0 0 0-.294.118c0-.633-.13-1.091-.376-1.138" style="fill:#418c48"/>
                    <path data-name="패스 13457" d="M31.948 25.027a.356.356 0 0 0-.3.118c0-.633-.13-1.091-.375-1.138-.229-.044-.5.271-.718.785-.167-.646-.427-1.078-.686-1.057-.24.02-.416.43-.486 1.023-.5-.6-1-.93-1.241-.775s-.141.789.221 1.522c-.608-.194-1.091-.2-1.209.018s.2.674.768 1.1c-.632-.021-1.092.1-1.147.343s.314.547.9.794a.355.355 0 0 0-.225.225c-.054.245.313.547.9.794a.355.355 0 0 0-.225.225c-.054.245.314.547.9.794a.359.359 0 0 0-.226.225c-.053.245.314.547.9.794a.356.356 0 0 0-.225.224c-.08.364.755.857 1.866 1.1a3.794 3.794 0 0 0 1.84.039l1.357 2.061.374-.246-1.357-2.061a3.793 3.793 0 0 0 .691-1.7c.213-1.118.091-2.081-.275-2.15a.355.355 0 0 0-.3.118c0-.633-.129-1.091-.375-1.138a.355.355 0 0 0-.3.118c0-.633-.13-1.091-.376-1.138a.353.353 0 0 0-.294.118c0-.633-.13-1.091-.376-1.138" style="fill:#418c48"/>
                    <path data-name="패스 13458" d="M28.806 36.855a.356.356 0 0 1 .3.118c0-.633.13-1.091.375-1.138.229-.044.5.271.718.785.167-.646.427-1.078.686-1.057.24.02.416.43.486 1.023.5-.6 1-.93 1.241-.775s.141.789-.221 1.522c.608-.194 1.091-.205 1.209.018s-.2.674-.768 1.1c.632-.021 1.092.1 1.147.343s-.314.547-.9.794a.355.355 0 0 1 .225.225c.054.245-.313.547-.9.794a.355.355 0 0 1 .225.225c.054.245-.314.547-.9.794a.359.359 0 0 1 .226.225c.053.245-.314.547-.9.794a.356.356 0 0 1 .225.224c.08.364-.755.857-1.866 1.1a3.794 3.794 0 0 1-1.84.039l-1.357 2.061-.374-.246 1.357-2.061a3.793 3.793 0 0 1-.691-1.705c-.213-1.118-.091-2.081.275-2.15a.355.355 0 0 1 .3.118c0-.633.129-1.091.375-1.138a.355.355 0 0 1 .3.118c0-.633.13-1.091.376-1.138a.353.353 0 0 1 .294.118c0-.633.13-1.091.376-1.138" style="fill:#418c48"/>
                    <path data-name="패스 13459" d="M50.007 32.1a.353.353 0 0 1 .2.246c.3-.557.638-.894.876-.817.221.071.305.476.253 1.034.456-.486.892-.741 1.108-.6.2.133.159.577-.065 1.131.724-.285 1.323-.334 1.46-.084s-.255.76-.925 1.229c.628.121 1.056.343 1.053.6s-.5.5-1.2.6c.565.286.911.611.841.851s-.538.33-1.168.267a.356.356 0 0 1 .09.305c-.07.241-.538.33-1.168.267a.356.356 0 0 1 .09.305c-.07.241-.538.329-1.168.267a.356.356 0 0 1 .09.305c-.07.24-.538.329-1.168.267a.356.356 0 0 1 .09.305c-.1.357-1.074.388-2.166.069a3.8 3.8 0 0 1-1.63-.847l-2.18 1.156-.209-.4 2.18-1.156a3.8 3.8 0 0 1 .213-1.828c.349-1.083.919-1.868 1.273-1.754a.353.353 0 0 1 .2.246c.3-.556.638-.894.876-.817a.349.349 0 0 1 .2.245c.3-.556.638-.894.876-.817a.353.353 0 0 1 .2.246c.3-.557.638-.9.876-.817" style="fill:#418c48"/>
                    <path data-name="패스 13460" d="M32.754 45.309a.353.353 0 0 1 .2.246c.3-.557.638-.894.876-.817.221.071.3.476.253 1.034.456-.486.892-.741 1.108-.6.2.133.159.577-.065 1.131.724-.285 1.323-.334 1.46-.084s-.255.76-.925 1.229c.628.121 1.056.343 1.053.6s-.5.5-1.2.6c.565.286.911.611.841.851s-.538.33-1.168.267a.356.356 0 0 1 .09.305c-.07.241-.538.33-1.168.267a.356.356 0 0 1 .09.305c-.07.241-.538.329-1.168.267a.356.356 0 0 1 .09.305c-.07.24-.538.329-1.168.267a.356.356 0 0 1 .09.305c-.1.357-1.074.388-2.166.069a3.8 3.8 0 0 1-1.633-.849l-2.18 1.156-.209-.395 2.18-1.156a3.8 3.8 0 0 1 .213-1.828c.349-1.083.919-1.868 1.273-1.754a.353.353 0 0 1 .2.246c.3-.556.638-.894.876-.817a.349.349 0 0 1 .2.245c.3-.556.638-.894.876-.817a.353.353 0 0 1 .2.246c.3-.557.638-.9.876-.817" style="fill:#418c48"/>
                    <path data-name="패스 13461" d="M10.559 32.431a.353.353 0 0 0-.2.246c-.3-.557-.638-.894-.876-.818-.221.071-.3.476-.253 1.034-.456-.486-.892-.741-1.108-.6-.2.133-.159.577.065 1.131-.724-.285-1.323-.334-1.46-.084s.255.76.925 1.229c-.628.121-1.056.343-1.053.6s.5.5 1.2.6c-.565.286-.911.611-.841.851s.538.33 1.168.267a.356.356 0 0 0-.09.305c.07.241.538.33 1.168.267a.356.356 0 0 0-.09.305c.07.241.538.329 1.168.267a.356.356 0 0 0-.09.305c.07.24.538.329 1.168.267a.356.356 0 0 0-.09.305c.1.357 1.074.388 2.166.069a3.8 3.8 0 0 0 1.633-.849l2.18 1.156.209-.4-2.177-1.161a3.8 3.8 0 0 0-.213-1.828c-.349-1.083-.919-1.868-1.273-1.754a.353.353 0 0 0-.2.246c-.3-.556-.638-.894-.876-.817a.349.349 0 0 0-.2.245c-.3-.556-.638-.894-.876-.817a.353.353 0 0 0-.2.246c-.3-.557-.638-.9-.876-.817" style="fill:#418c48"/>
                    <path data-name="패스 13462" d="M42.033 36.147a.353.353 0 0 0-.2.246c-.3-.557-.638-.894-.876-.817-.221.071-.305.476-.253 1.034-.456-.486-.892-.741-1.108-.6-.2.133-.159.577.065 1.131-.724-.285-1.323-.334-1.46-.084s.255.76.925 1.229c-.628.121-1.056.343-1.053.6s.5.5 1.2.6c-.565.286-.911.611-.841.851s.538.33 1.168.267a.356.356 0 0 0-.09.305c.07.241.538.33 1.168.267a.356.356 0 0 0-.09.305c.07.241.538.329 1.168.267a.356.356 0 0 0-.09.305c.07.24.538.329 1.168.267a.356.356 0 0 0-.09.305c.1.357 1.074.388 2.166.069a3.8 3.8 0 0 0 1.633-.849L48.723 43l.209-.4-2.18-1.156a3.8 3.8 0 0 0-.213-1.828c-.349-1.083-.919-1.868-1.273-1.754a.353.353 0 0 0-.2.246c-.3-.556-.638-.894-.876-.817a.349.349 0 0 0-.2.245c-.3-.556-.638-.894-.876-.817a.353.353 0 0 0-.2.246c-.3-.557-.638-.9-.876-.817" style="fill:#418c48"/>
                    <path data-name="패스 13463" d="M41.636 36.147a.353.353 0 0 0-.2.246c-.3-.557-.638-.894-.876-.817-.221.071-.305.476-.253 1.034-.456-.486-.892-.741-1.108-.6-.2.133-.159.577.065 1.131-.724-.285-1.323-.334-1.46-.084s.255.76.925 1.229c-.628.121-1.056.343-1.053.6s.5.5 1.2.6c-.565.286-.911.611-.841.851s.538.33 1.168.267a.356.356 0 0 0-.09.305c.07.241.538.33 1.168.267a.356.356 0 0 0-.09.305c.07.241.538.329 1.168.267a.356.356 0 0 0-.09.305c.07.24.538.329 1.168.267a.356.356 0 0 0-.09.305c.1.357 1.074.388 2.166.069a3.8 3.8 0 0 0 1.633-.849L48.326 43l.209-.4-2.18-1.156a3.8 3.8 0 0 0-.213-1.828c-.349-1.083-.919-1.868-1.273-1.754a.353.353 0 0 0-.2.246c-.3-.556-.638-.894-.876-.817a.349.349 0 0 0-.2.245c-.3-.556-.638-.894-.876-.817a.353.353 0 0 0-.2.246c-.3-.557-.638-.9-.876-.817" style="fill:#418c48"/>
                    <path data-name="패스 13464" d="M38.02 28.976a.356.356 0 0 1 .3.118c0-.633.13-1.091.375-1.138.229-.044.5.271.718.785.167-.646.427-1.078.686-1.057.24.02.416.43.486 1.023.5-.6 1-.93 1.241-.775s.141.789-.221 1.522c.608-.194 1.091-.2 1.209.018s-.2.674-.768 1.1c.632-.021 1.092.1 1.147.343s-.314.547-.9.794a.355.355 0 0 1 .225.225c.054.245-.313.547-.9.794a.355.355 0 0 1 .225.225c.054.245-.314.547-.9.794a.359.359 0 0 1 .226.225c.053.245-.314.547-.9.794a.356.356 0 0 1 .225.224c.08.364-.755.857-1.866 1.1a3.794 3.794 0 0 1-1.84.039L35.44 38.2l-.374-.246 1.357-2.061a3.793 3.793 0 0 1-.691-1.705c-.213-1.118-.091-2.081.275-2.15a.355.355 0 0 1 .3.118c0-.633.129-1.091.375-1.138a.355.355 0 0 1 .3.118c0-.633.13-1.091.376-1.138a.352.352 0 0 1 .288.122c0-.633.13-1.091.376-1.138" style="fill:#418c48"/>
                    <path data-name="패스 13465" d="M26.752 26.75c.826 1.948 1.841 3.379 2.271 3.2s.108-1.908-.718-3.856-1.842-3.379-2.271-3.2-.108 1.907.718 3.855" style="fill:#fff"/>
                    <path data-name="패스 13466" d="M23.4 18.837c.826 1.948 1.841 3.379 2.271 3.2s.108-1.908-.718-3.856-1.842-3.379-2.271-3.2-.108 1.907.718 3.855" style="fill:#fff"/>
                    <path data-name="패스 13467" d="M29.519 24.859c1.961.793 3.692 1.087 3.867.656s-1.273-1.425-3.234-2.215-3.693-1.087-3.867-.655 1.273 1.425 3.234 2.219" style="fill:#fff"/>
                    <path data-name="패스 13468" d="M21.554 21.635c1.961.793 3.692 1.087 3.867.656s-1.273-1.423-3.234-2.223-3.693-1.087-3.867-.655 1.273 1.425 3.234 2.219" style="fill:#fff"/>
                    <path data-name="패스 13469" d="M30.139 21.565c1.948-.826 3.379-1.841 3.2-2.271s-1.908-.108-3.856.718-3.379 1.842-3.2 2.271 1.907.108 3.855-.718" style="fill:#fff"/>
                    <path data-name="패스 13470" d="M22.226 24.917c1.948-.826 3.379-1.841 3.2-2.271s-1.905-.107-3.858.719-3.379 1.842-3.2 2.271 1.907.108 3.855-.718" style="fill:#fff"/>
                    <path data-name="패스 13471" d="M28.247 18.8c.793-1.961 1.087-3.692.656-3.867s-1.426 1.267-2.22 3.233-1.087 3.692-.655 3.866 1.425-1.273 2.219-3.234" style="fill:#fff"/>
                    <path data-name="패스 13472" d="M25.022 26.763c.793-1.961 1.087-3.692.656-3.867s-1.425 1.273-2.219 3.234-1.087 3.693-.659 3.87 1.425-1.273 2.219-3.234" style="fill:#fff"/>
                    <path data-name="패스 13473" d="M25.01 26.76c0 2.115.377 3.83.843 3.83s.843-1.715.843-3.83-.377-3.83-.843-3.83-.843 1.715-.843 3.83" style="fill:#fff"/>
                    <path data-name="패스 13474" d="M25.01 18.173c0 2.115.377 3.83.843 3.83s.843-1.715.843-3.83-.377-3.83-.843-3.83-.843 1.715-.843 3.83" style="fill:#fff"/>
                    <path data-name="패스 13475" d="M28.3 26.1c1.5 1.5 2.976 2.441 3.3 2.112s-.616-1.808-2.112-3.3-2.976-2.441-3.3-2.112.616 1.809 2.112 3.3" style="fill:#fff"/>
                    <path data-name="패스 13476" d="M22.219 20.024c1.5 1.5 2.976 2.441 3.3 2.112s-.616-1.808-2.112-3.3-2.976-2.441-3.3-2.112.616 1.809 2.112 3.3" style="fill:#fff"/>
                    <path data-name="패스 13477" d="M30.149 23.309c2.115 0 3.83-.377 3.83-.843s-1.715-.843-3.83-.843-3.83.377-3.83.843 1.715.843 3.83.843" style="fill:#fff"/>
                    <path data-name="패스 13478" d="M21.556 23.309c2.115 0 3.83-.377 3.83-.843s-1.715-.843-3.83-.843-3.83.377-3.83.843 1.715.843 3.83.843" style="fill:#fff"/>
                    <path data-name="패스 13479" d="M29.487 20.024c1.5-1.5 2.441-2.976 2.112-3.3s-1.808.616-3.3 2.112-2.441 2.976-2.112 3.3 1.809-.616 3.3-2.112" style="fill:#fff"/>
                    <path data-name="패스 13480" d="M23.412 26.1c1.5-1.5 2.441-2.976 2.112-3.3s-1.808.616-3.3 2.112-2.441 2.976-2.112 3.3 1.809-.616 3.3-2.112" style="fill:#fff"/>
                    <path data-name="패스 13481" d="M24 22.465a1.856 1.856 0 1 0 1.856-1.856A1.856 1.856 0 0 0 24 22.465" style="fill:#fce09c"/>
                    <path data-name="패스 13482" d="M35.966 14.326c.826 1.948 1.841 3.379 2.271 3.2s.108-1.908-.718-3.856-1.842-3.381-2.272-3.2-.108 1.907.718 3.855" style="fill:#fff"/>
                    <path data-name="패스 13483" d="M32.614 6.415c.825 1.948 1.841 3.379 2.27 3.2s.109-1.908-.717-3.856S32.325 2.378 31.9 2.56s-.107 1.907.719 3.855" style="fill:#fff"/>
                    <path data-name="패스 13484" d="M38.733 12.437c1.96.793 3.691 1.087 3.867.656s-1.274-1.425-3.234-2.219-3.693-1.088-3.872-.656 1.273 1.425 3.234 2.219" style="fill:#fff"/>
                    <path data-name="패스 13485" d="M30.768 9.21c1.961.793 3.692 1.087 3.867.656S33.362 8.441 31.4 7.647s-3.693-1.087-3.867-.655 1.273 1.426 3.234 2.218" style="fill:#fff"/>
                    <path data-name="패스 13486" d="M39.351 9.142c1.948-.826 3.379-1.841 3.2-2.271s-1.908-.108-3.856.718-3.379 1.842-3.2 2.271 1.907.108 3.855-.718" style="fill:#fff"/>
                    <path data-name="패스 13487" d="M31.439 12.495c1.948-.826 3.379-1.841 3.2-2.271s-1.908-.108-3.856.718-3.379 1.842-3.2 2.271 1.907.108 3.855-.718" style="fill:#fff"/>
                    <path data-name="패스 13488" d="M37.46 6.376c.789-1.96 1.089-3.692.655-3.867S36.69 3.782 35.9 5.744s-1.087 3.692-.655 3.866 1.425-1.273 2.219-3.234" style="fill:#fff"/>
                    <path data-name="패스 13489" d="M34.236 14.341c.793-1.961 1.087-3.692.656-3.867s-1.425 1.273-2.219 3.234-1.087 3.692-.655 3.866 1.425-1.273 2.219-3.234" style="fill:#fff"/>
                    <path data-name="패스 13490" d="M34.223 14.338c0 2.115.377 3.83.843 3.83s.843-1.715.843-3.83-.377-3.83-.843-3.83-.843 1.715-.843 3.83" style="fill:#fff"/>
                    <path data-name="패스 13491" d="M34.223 5.746c0 2.115.377 3.83.843 3.83s.843-1.715.843-3.83-.377-3.83-.843-3.83-.843 1.715-.843 3.83" style="fill:#fff"/>
                    <path data-name="패스 13492" d="M37.508 13.674c1.5 1.5 2.976 2.441 3.3 2.112s-.616-1.808-2.112-3.3-2.976-2.441-3.3-2.112.616 1.809 2.112 3.3" style="fill:#fff"/>
                    <path data-name="패스 13493" d="M31.433 7.6c1.5 1.5 2.976 2.441 3.3 2.112s-.616-1.808-2.112-3.3-2.976-2.441-3.3-2.112.616 1.809 2.112 3.3" style="fill:#fff"/>
                    <path data-name="패스 13494" d="M39.362 10.886c2.115 0 3.83-.377 3.83-.843s-1.715-.843-3.83-.843-3.83.377-3.83.843 1.715.843 3.83.843" style="fill:#fff"/>
                    <path data-name="패스 13495" d="M30.77 10.886c2.115 0 3.83-.377 3.83-.843S32.885 9.2 30.77 9.2s-3.83.377-3.83.843 1.715.843 3.83.843" style="fill:#fff"/>
                    <path data-name="패스 13496" d="M38.7 7.6c1.5-1.5 2.441-2.976 2.112-3.3s-1.808.616-3.3 2.112-2.441 2.976-2.112 3.3S37.21 9.1 38.7 7.6" style="fill:#fff"/>
                    <path data-name="패스 13497" d="M32.626 13.674c1.5-1.5 2.441-2.976 2.112-3.3s-1.808.616-3.3 2.112-2.441 2.976-2.112 3.3 1.809-.616 3.3-2.112" style="fill:#fff"/>
                    <path data-name="패스 13498" d="M33.21 10.037a1.856 1.856 0 1 0 1.856-1.856 1.856 1.856 0 0 0-1.856 1.856" style="fill:#fce09c"/>
                    <path data-name="패스 13499" d="M50.36 27.593c.825 1.948 1.841 3.379 2.271 3.2s.108-1.908-.718-3.856-1.842-3.379-2.271-3.2-.108 1.907.718 3.855" style="fill:#fff"/>
                    <path data-name="패스 13500" d="M47.01 19.681c.826 1.948 1.841 3.379 2.271 3.2s.108-1.908-.718-3.856-1.842-3.379-2.271-3.2-.108 1.907.718 3.855" style="fill:#fff"/>
                    <path data-name="패스 13501" d="M53.129 25.7c1.961.793 3.692 1.087 3.867.656s-1.273-1.425-3.234-2.219-3.692-1.087-3.866-.655 1.273 1.428 3.234 2.218" style="fill:#fff"/>
                    <path data-name="패스 13502" d="M45.164 22.478c1.961.793 3.692 1.087 3.867.656s-1.273-1.426-3.236-2.22-3.692-1.087-3.866-.655 1.273 1.425 3.234 2.219" style="fill:#fff"/>
                    <path data-name="패스 13503" d="M53.747 22.409c1.948-.826 3.379-1.841 3.2-2.271s-1.908-.108-3.856.718-3.379 1.842-3.2 2.271 1.907.108 3.855-.718" style="fill:#fff"/>
                    <path data-name="패스 13504" d="M45.835 25.761c1.948-.826 3.379-1.841 3.2-2.271s-1.908-.108-3.856.718-3.379 1.842-3.2 2.271 1.907.108 3.855-.718" style="fill:#fff"/>
                    <path data-name="패스 13505" d="M51.857 19.643c.793-1.961 1.087-3.692.656-3.867s-1.425 1.273-2.219 3.234-1.087 3.692-.655 3.866 1.425-1.273 2.219-3.234" style="fill:#fff"/>
                    <path data-name="패스 13506" d="M48.633 27.608c.793-1.961 1.087-3.692.656-3.867s-1.425 1.273-2.219 3.234-1.087 3.693-.655 3.867 1.425-1.273 2.219-3.234" style="fill:#fff"/>
                    <path data-name="패스 13507" d="M48.619 27.6c0 2.115.377 3.83.843 3.83s.843-1.715.843-3.83-.377-3.83-.843-3.83-.843 1.715-.843 3.83" style="fill:#fff"/>
                    <path data-name="패스 13508" d="M48.619 19.012c0 2.115.377 3.83.843 3.83s.843-1.715.843-3.83-.377-3.83-.843-3.83-.843 1.715-.843 3.83" style="fill:#fff"/>
                    <path data-name="패스 13509" d="M51.9 26.943c1.5 1.5 2.976 2.441 3.3 2.112s-.616-1.808-2.112-3.3-2.976-2.441-3.3-2.112.616 1.809 2.112 3.3" style="fill:#fff"/>
                    <path data-name="패스 13510" d="M45.829 20.867c1.5 1.5 2.976 2.441 3.3 2.112s-.616-1.808-2.112-3.3-2.976-2.441-3.3-2.112.616 1.809 2.112 3.3" style="fill:#fff"/>
                    <path data-name="패스 13511" d="M53.759 24.152c2.115 0 3.83-.377 3.83-.843s-1.715-.843-3.83-.843-3.83.377-3.83.843 1.715.843 3.83.843" style="fill:#fff"/>
                    <path data-name="패스 13512" d="M45.167 24.152c2.115 0 3.83-.377 3.83-.843s-1.715-.845-3.83-.845-3.83.377-3.83.843 1.715.843 3.83.843" style="fill:#fff"/>
                    <path data-name="패스 13513" d="M53.1 20.867c1.5-1.5 2.441-2.976 2.112-3.3s-1.808.616-3.3 2.112-2.441 2.976-2.112 3.3 1.809-.616 3.3-2.112" style="fill:#fff"/>
                    <path data-name="패스 13514" d="M47.022 26.943c1.5-1.5 2.441-2.976 2.111-3.3s-1.808.616-3.3 2.112-2.441 2.976-2.111 3.3 1.808-.616 3.3-2.112" style="fill:#fff"/>
                    <path data-name="패스 13515" d="M47.606 23.308a1.856 1.856 0 1 0 1.856-1.856 1.856 1.856 0 0 0-1.856 1.856" style="fill:#fce09c"/>
                    <path data-name="패스 13516" d="M11.173 25.542c.826 1.948 1.841 3.379 2.271 3.2s.108-1.908-.718-3.856-1.842-3.379-2.271-3.2-.108 1.907.718 3.855" style="fill:#fff"/>
                    <path data-name="패스 13517" d="M7.821 17.629c.826 1.948 1.841 3.379 2.271 3.2s.108-1.908-.718-3.856-1.842-3.379-2.271-3.2-.108 1.907.718 3.855" style="fill:#fff"/>
                    <path data-name="패스 13518" d="M13.94 23.651c1.961.793 3.692 1.087 3.867.656s-1.273-1.426-3.235-2.22S10.879 21 10.7 21.432s1.273 1.425 3.234 2.219" style="fill:#fff"/>
                    <path data-name="패스 13519" d="M5.975 20.427c1.961.793 3.692 1.087 3.867.656s-1.273-1.425-3.234-2.219-3.692-1.088-3.867-.656 1.273 1.425 3.234 2.219" style="fill:#fff"/>
                    <path data-name="패스 13520" d="M14.559 20.357c1.947-.826 3.379-1.841 3.2-2.271s-1.909-.108-3.856.718-3.379 1.842-3.2 2.271 1.907.108 3.855-.718" style="fill:#fff"/>
                    <path data-name="패스 13521" d="M6.646 23.709c1.948-.826 3.379-1.841 3.2-2.271s-1.908-.108-3.856.718S2.611 24 2.79 24.427s1.907.108 3.855-.718" style="fill:#fff"/>
                    <path data-name="패스 13522" d="M12.668 17.591c.793-1.961 1.087-3.692.656-3.867S11.9 15 11.1 16.958s-1.087 3.693-.655 3.867 1.425-1.273 2.219-3.234" style="fill:#fff"/>
                    <path data-name="패스 13523" d="M9.444 25.555c.793-1.961 1.087-3.692.656-3.867s-1.426 1.274-2.22 3.234-1.087 3.692-.652 3.867 1.425-1.273 2.219-3.234" style="fill:#fff"/>
                    <path data-name="패스 13524" d="M9.429 25.556c0 2.115.377 3.83.843 3.83s.843-1.715.843-3.83-.377-3.83-.843-3.83-.843 1.711-.843 3.83" style="fill:#fff"/>
                    <path data-name="패스 13525" d="M9.429 16.96c0 2.115.377 3.83.843 3.83s.843-1.715.843-3.83-.377-3.83-.843-3.83-.843 1.715-.843 3.83" style="fill:#fff"/>
                    <path data-name="패스 13526" d="M12.716 24.891c1.5 1.5 2.976 2.441 3.3 2.112S15.4 25.195 13.9 23.7s-2.976-2.441-3.3-2.112.616 1.809 2.112 3.3" style="fill:#fff"/>
                    <path data-name="패스 13527" d="M6.64 18.816c1.5 1.5 2.976 2.441 3.3 2.112s-.616-1.808-2.112-3.3-2.976-2.441-3.3-2.112.616 1.809 2.112 3.3" style="fill:#fff"/>
                    <path data-name="패스 13528" d="M14.567 22.1c2.115 0 3.83-.377 3.83-.843s-1.715-.843-3.83-.843-3.83.377-3.83.843 1.715.843 3.83.843" style="fill:#fff"/>
                    <path data-name="패스 13529" d="M5.977 22.1c2.115 0 3.83-.377 3.83-.843s-1.715-.843-3.83-.843-3.83.377-3.83.843 1.715.843 3.83.843" style="fill:#fff"/>
                    <path data-name="패스 13530" d="M13.909 18.816c1.5-1.5 2.441-2.976 2.112-3.3s-1.808.616-3.3 2.112-2.441 2.976-2.112 3.3 1.809-.616 3.3-2.112" style="fill:#fff"/>
                    <path data-name="패스 13531" d="M7.833 24.891c1.5-1.5 2.441-2.976 2.112-3.3s-1.808.616-3.3 2.112S4.2 26.679 4.533 27s1.809-.616 3.3-2.112" style="fill:#fff"/>
                    <path data-name="패스 13532" d="M8.417 21.257a1.856 1.856 0 1 0 1.856-1.857 1.856 1.856 0 0 0-1.856 1.856" style="fill:#fce09c"/>
                    <path data-name="패스 13533" d="M9.026 41.166c.826 1.948 1.841 3.379 2.271 3.2s.108-1.908-.718-3.856-1.842-3.379-2.271-3.2-.108 1.907.718 3.855" style="fill:#fff"/>
                    <path data-name="패스 13534" d="M5.673 33.254c.826 1.948 1.841 3.379 2.271 3.2s.108-1.908-.718-3.856-1.842-3.379-2.271-3.2-.108 1.907.718 3.855" style="fill:#fff"/>
                    <path data-name="패스 13535" d="M11.793 39.277c1.96.793 3.691 1.087 3.867.656s-1.274-1.425-3.235-2.219-3.691-1.087-3.865-.655 1.271 1.418 3.233 2.218" style="fill:#fff"/>
                    <path data-name="패스 13536" d="M3.828 36.052c1.961.793 3.692 1.087 3.867.656s-1.273-1.43-3.235-2.22S.769 33.4.594 33.833s1.273 1.425 3.234 2.219" style="fill:#fff"/>
                    <path data-name="패스 13537" d="M12.411 35.981c1.948-.826 3.379-1.841 3.2-2.271s-1.908-.108-3.856.718-3.379 1.842-3.2 2.272 1.907.108 3.855-.718" style="fill:#fff"/>
                    <path data-name="패스 13538" d="M4.5 39.333c1.948-.826 3.379-1.841 3.2-2.271s-1.908-.108-3.856.718-3.382 1.843-3.2 2.271 1.907.108 3.855-.718" style="fill:#fff"/>
                    <path data-name="패스 13539" d="M10.52 33.211c.793-1.961 1.087-3.692.656-3.867s-1.425 1.273-2.219 3.234S7.87 36.27 8.3 36.444s1.425-1.273 2.219-3.234" style="fill:#fff"/>
                    <path data-name="패스 13540" d="M7.294 41.18c.793-1.961 1.087-3.692.656-3.867s-1.425 1.273-2.219 3.234-1.087 3.692-.655 3.866S6.5 43.141 7.294 41.18" style="fill:#fff"/>
                    <path data-name="패스 13541" d="M7.283 41.177c0 2.115.377 3.83.843 3.83s.843-1.715.843-3.83-.377-3.83-.843-3.83-.843 1.715-.843 3.83" style="fill:#fff"/>
                    <path data-name="패스 13542" d="M7.283 32.583c0 2.115.377 3.83.843 3.83s.843-1.715.843-3.83-.377-3.83-.843-3.83-.843 1.717-.843 3.83" style="fill:#fff"/>
                    <path data-name="패스 13543" d="M10.568 40.516c1.5 1.5 2.976 2.441 3.3 2.112s-.616-1.808-2.112-3.3-2.971-2.446-3.3-2.117.616 1.809 2.112 3.3" style="fill:#fff"/>
                    <path data-name="패스 13544" d="M4.493 34.441c1.5 1.5 2.976 2.441 3.3 2.112s-.616-1.808-2.112-3.3-2.968-2.446-3.3-2.117.616 1.809 2.112 3.3" style="fill:#fff"/>
                    <path data-name="패스 13545" d="M12.422 37.725c2.115 0 3.83-.377 3.83-.843s-1.715-.843-3.83-.843-3.83.377-3.83.843 1.715.843 3.83.843" style="fill:#fff"/>
                    <path data-name="패스 13546" d="M3.83 37.725c2.115 0 3.83-.377 3.83-.843s-1.715-.843-3.83-.843-3.83.376-3.83.84 1.715.843 3.83.843" style="fill:#fff"/>
                    <path data-name="패스 13547" d="M11.758 34.441c1.5-1.5 2.441-2.976 2.112-3.3s-1.808.616-3.3 2.112-2.441 2.976-2.112 3.3 1.809-.616 3.3-2.112" style="fill:#fff"/>
                    <path data-name="패스 13548" d="M5.686 40.516c1.5-1.5 2.441-2.976 2.112-3.3s-1.808.616-3.3 2.112-2.441 2.976-2.112 3.3 1.809-.616 3.3-2.112" style="fill:#fff"/>
                    <path data-name="패스 13549" d="M6.27 36.881a1.856 1.856 0 1 0 1.856-1.856 1.856 1.856 0 0 0-1.856 1.856" style="fill:#fce09c"/>
                    <path data-name="패스 13550" d="M54.771 41.58c.826 1.948 1.841 3.379 2.271 3.2s.108-1.908-.718-3.856-1.842-3.379-2.271-3.2-.108 1.907.718 3.855" style="fill:#fff"/>
                    <path data-name="패스 13551" d="M51.419 33.668c.826 1.948 1.841 3.379 2.271 3.2s.108-1.908-.718-3.856-1.842-3.379-2.271-3.2-.108 1.907.718 3.855" style="fill:#fff"/>
                    <path data-name="패스 13552" d="M57.538 39.69c1.961.793 3.692 1.087 3.867.656s-1.273-1.425-3.234-2.219-3.693-1.087-3.867-.655 1.273 1.425 3.234 2.219" style="fill:#fff"/>
                    <path data-name="패스 13553" d="M49.573 36.465c1.961.793 3.692 1.087 3.867.656S52.167 35.7 50.206 34.9s-3.692-1.087-3.866-.655 1.273 1.425 3.234 2.219" style="fill:#fff"/>
                    <path data-name="패스 13554" d="M58.16 36.4c1.947-.826 3.379-1.841 3.2-2.271s-1.908-.108-3.856.718-3.379 1.842-3.2 2.271 1.908.108 3.856-.718" style="fill:#fff"/>
                    <path data-name="패스 13555" d="M50.242 39.748c1.948-.826 3.379-1.841 3.2-2.271s-1.908-.108-3.856.718-3.379 1.842-3.2 2.271 1.907.108 3.855-.718" style="fill:#fff"/>
                    <path data-name="패스 13556" d="M56.266 33.63c.793-1.961 1.087-3.692.656-3.867S55.5 31.036 54.7 33s-1.089 3.692-.656 3.863 1.425-1.273 2.219-3.234" style="fill:#fff"/>
                    <path data-name="패스 13557" d="M53.041 41.594c.793-1.961 1.087-3.692.656-3.867S52.272 39 51.478 40.961s-1.087 3.692-.655 3.866 1.425-1.273 2.219-3.234" style="fill:#fff"/>
                    <path data-name="패스 13558" d="M53.029 41.591c0 2.115.377 3.83.843 3.83s.843-1.715.843-3.83-.377-3.83-.843-3.83-.843 1.715-.843 3.83" style="fill:#fff"/>
                    <path data-name="패스 13559" d="M53.029 33c0 2.115.377 3.83.843 3.83s.843-1.715.843-3.83-.377-3.83-.843-3.83-.843 1.715-.843 3.83" style="fill:#fff"/>
                    <path data-name="패스 13560" d="M56.313 40.93c1.5 1.5 2.976 2.441 3.3 2.112s-.613-1.808-2.113-3.3-2.975-2.442-3.3-2.112.616 1.809 2.112 3.3" style="fill:#fff"/>
                    <path data-name="패스 13561" d="M50.233 34.854c1.5 1.5 2.976 2.441 3.3 2.112s-.616-1.808-2.112-3.3-2.976-2.441-3.3-2.112.616 1.809 2.112 3.3" style="fill:#fff"/>
                    <path data-name="패스 13562" d="M58.167 38.139c2.115 0 3.83-.377 3.83-.843s-1.715-.843-3.83-.843-3.83.377-3.83.843 1.715.843 3.83.843" style="fill:#fff"/>
                    <path data-name="패스 13563" d="M49.575 38.139c2.115 0 3.83-.377 3.83-.843s-1.715-.843-3.83-.843-3.83.377-3.83.843 1.715.843 3.83.843" style="fill:#fff"/>
                    <path data-name="패스 13564" d="M57.506 34.854c1.5-1.5 2.441-2.976 2.112-3.3s-1.808.616-3.3 2.112-2.441 2.976-2.112 3.3 1.809-.616 3.3-2.112" style="fill:#fff"/>
                    <path data-name="패스 13565" d="M51.433 40.93c1.5-1.5 2.441-2.976 2.112-3.3s-1.808.616-3.3 2.112-2.441 2.976-2.112 3.3 1.809-.616 3.3-2.112" style="fill:#fff"/>
                    <path data-name="패스 13566" d="M52.016 37.295a1.856 1.856 0 1 0 1.856-1.856 1.856 1.856 0 0 0-1.856 1.856" style="fill:#fce09c"/>
                    <path data-name="패스 13567" d="M49.772 81.942H11.9a2.9 2.9 0 0 1-2.9-2.9V61.255h43.671v17.793a2.9 2.9 0 0 1-2.9 2.9" style="fill:#91d09f"/>
                    <path data-name="사각형 2799" transform="translate(9.007 56.026)" style="fill:#91d09f" d="M0 0h43.664v3.967H0z"/>
                    <path data-name="패스 13568" d="M14.324 7.716a1.923 1.923 0 0 1-1.461-1.536c-.034-.241.34-.637.38-1.039.162-1.7.6-4.2 2.045-2.591a13.992 13.992 0 0 1 2.53 4.889 7.687 7.687 0 0 0 .353-3.471 2.694 2.694 0 0 0-.594-1.62 1 1 0 0 0-1.036-.032l-.046-.1a1.106 1.106 0 0 1 1.147.044h.007l.006.006a2.8 2.8 0 0 1 .622 1.685 7.86 7.86 0 0 1-.407 3.664l.039.141.138-.043A7.863 7.863 0 0 1 20.922 5.4a2.782 2.782 0 0 1 1.755-.38h.008l.007.005a1.1 1.1 0 0 1 .653.942l-.107.013a.992.992 0 0 0-.584-.855 2.69 2.69 0 0 0-1.683.369 7.7 7.7 0 0 0-2.74 2.165 13.943 13.943 0 0 1 5.482-.493c2.133.357.259 2.069-1.088 3.119-.318.25-.45.777-.673.881a1.926 1.926 0 0 1-2.082-.41s.93 3.144-.989 3.044-1.46.338-2.012.306-.893-2.823-.893-2.823-2.538 1.213-2.861.764.3-.3-.822-1.862 2.031-2.466 2.031-2.466" style="fill:#1f5a2c"/>
                    <path data-name="패스 13569" d="M13.232 5.683a1.923 1.923 0 0 1-1.461-1.536c-.034-.241.34-.637.38-1.039.162-1.7.6-4.2 2.045-2.591a13.992 13.992 0 0 1 2.53 4.889 7.687 7.687 0 0 0 .353-3.471A2.694 2.694 0 0 0 16.485.31a1 1 0 0 0-1.036-.032L15.4.181a1.108 1.108 0 0 1 1.15.044h.007l.006.006a2.8 2.8 0 0 1 .622 1.685 7.86 7.86 0 0 1-.407 3.664c.026.091.038.141.038.141l.139-.043a7.863 7.863 0 0 1 2.875-2.309 2.782 2.782 0 0 1 1.755-.38h.015a1.1 1.1 0 0 1 .653.942l-.107.013a.992.992 0 0 0-.584-.855 2.69 2.69 0 0 0-1.683.369 7.7 7.7 0 0 0-2.74 2.165 13.943 13.943 0 0 1 5.482-.493c2.133.357.259 2.069-1.088 3.119-.318.25-.45.777-.673.881a1.926 1.926 0 0 1-2.082-.41s.933 3.143-.989 3.038-1.46.338-2.012.306-.893-2.823-.893-2.823-2.538 1.213-2.861.764.3-.3-.822-1.862 2.031-2.466 2.031-2.466" style="fill:#ffeb00"/>
                </g>
            </g>
        </g>
    </g>
</svg>
