<svg xmlns="http://www.w3.org/2000/svg" width="100" height="100.001" viewBox="0 0 100 100.001">
    <g data-name="그룹 2524">
        <path data-name="사각형 2597" style="fill:none" d="M0 0h100v100H0z"/>
        <g data-name="그룹 2523">
            <path data-name="패스 11379" d="M44.281 33.645c2.21-.9 3.7-.272 4.224 1.029s-.1 2.783-2.307 3.68-5.7-.431-5.7-.431 1.568-3.38 3.779-4.278" transform="translate(25 3.954)" style="fill:#94b524"/>
            <path data-name="패스 11380" d="M44.281 39.836c2.21-.9 3.7-.272 4.224 1.029s-.1 2.783-2.307 3.68-5.7-.431-5.7-.431 1.568-3.38 3.779-4.278" transform="translate(25 3.945)" style="fill:#94b524"/>
            <path data-name="패스 11381" d="M44.281 46.028c2.21-.9 3.7-.272 4.224 1.029s-.1 2.783-2.307 3.68-5.7-.431-5.7-.431 1.568-3.38 3.779-4.278" transform="translate(25 3.937)" style="fill:#94b524"/>
            <path data-name="패스 11382" d="M44.281 52.219c2.21-.9 3.7-.272 4.224 1.029s-.1 2.783-2.307 3.68-5.7-.431-5.7-.431 1.568-3.38 3.779-4.278" transform="translate(25 3.928)" style="fill:#94b524"/>
            <path data-name="패스 11383" d="M44.281 58.411c2.21-.9 3.7-.272 4.224 1.029s-.1 2.783-2.307 3.68-5.7-.431-5.7-.431 1.568-3.38 3.779-4.278" transform="translate(25 3.919)" style="fill:#94b524"/>
            <path data-name="패스 11384" d="M36.722 33.645c-2.21-.9-3.695-.272-4.224 1.029s.1 2.783 2.307 3.68 5.7-.431 5.7-.431-1.568-3.38-3.779-4.278" transform="translate(25 3.954)" style="fill:#94b524"/>
            <path data-name="패스 11385" d="M36.722 39.836c-2.21-.9-3.695-.272-4.224 1.029s.1 2.783 2.307 3.68 5.7-.431 5.7-.431-1.568-3.38-3.779-4.278" transform="translate(25 3.945)" style="fill:#94b524"/>
            <path data-name="패스 11386" d="M36.722 46.028c-2.21-.9-3.695-.272-4.224 1.029s.1 2.783 2.307 3.68 5.7-.431 5.7-.431-1.568-3.38-3.779-4.278" transform="translate(25 3.937)" style="fill:#94b524"/>
            <path data-name="패스 11387" d="M36.722 52.219c-2.21-.9-3.695-.272-4.224 1.029s.1 2.783 2.307 3.68 5.7-.431 5.7-.431-1.568-3.38-3.779-4.278" transform="translate(25 3.928)" style="fill:#94b524"/>
            <path data-name="패스 11388" d="M36.722 58.411c-2.21-.9-3.695-.272-4.224 1.029s.1 2.783 2.307 3.68 5.7-.431 5.7-.431-1.568-3.38-3.779-4.278" transform="translate(25 3.919)" style="fill:#94b524"/>
            <path data-name="패스 11389" d="M40.6 27.294h-.222c0-3.385-2.967-9.179-3-9.238l.2-.1c.03.058 3.021 5.9 3.021 9.339" transform="translate(25 3.975)" style="fill:#f4ee22"/>
            <path data-name="패스 11390" d="M37.854 18.005a.379.379 0 1 1-.38-.378.379.379 0 0 1 .379.378" transform="translate(25 3.976)" style="fill:#f4ee22"/>
            <path data-name="패스 11391" d="M39.676 28.382c-1.3-3.127-6.265-7.342-6.315-7.384l.144-.17a42.61 42.61 0 0 1 2.683 2.524 17.617 17.617 0 0 1 3.693 4.948z" transform="translate(25 3.971)" style="fill:#f4ee22"/>
            <path data-name="패스 11392" d="M33.783 20.767a.378.378 0 1 1-.5-.207.378.378 0 0 1 .5.207" transform="translate(25 3.971)" style="fill:#f4ee22"/>
            <path data-name="패스 11393" d="m41.293 28.382-.207-.085a17.555 17.555 0 0 1 3.693-4.944 42.225 42.225 0 0 1 2.683-2.524l.144.17c-.052.042-5.015 4.257-6.315 7.384" transform="translate(25 3.971)" style="fill:#f4ee22"/>
            <path data-name="패스 11394" d="M40.6 27.294h-.222c0-3.439 2.991-9.281 3.021-9.339l.2.1c-.03.059-3 5.853-3 9.238" transform="translate(25 3.975)" style="fill:#f4ee22"/>
            <path data-name="패스 11395" d="M43.114 18.005a.379.379 0 1 0 .38-.378.379.379 0 0 0-.379.378" transform="translate(25 3.976)" style="fill:#f4ee22"/>
            <path data-name="패스 11396" d="M40.1 15.961a.379.379 0 1 0 .38-.378.379.379 0 0 0-.379.378" transform="translate(25 3.978)" style="fill:#f4ee22"/>
            <path data-name="사각형 2664" transform="translate(65.373 19.791)" style="fill:#f4ee22" d="M0 0h.222v8.012H0z"/>
            <path data-name="사각형 2665" transform="translate(64.779 33.36)" style="fill:#8c6239" d="M0 0h1.445v40.68H0z"/>
            <path data-name="패스 11397" d="M36.722 31.366c-2.21-.9-3.695-.272-4.224 1.029s.1 2.783 2.307 3.68 5.7-.431 5.7-.431-1.568-3.38-3.779-4.278" transform="translate(25 3.957)" style="fill:#a1d438"/>
            <path data-name="패스 11398" d="M36.722 37.112c-2.21-.9-3.695-.272-4.224 1.029s.1 2.783 2.307 3.68 5.7-.431 5.7-.431-1.568-3.38-3.779-4.278" transform="translate(25 3.949)" style="fill:#a1d438"/>
            <path data-name="패스 11399" d="M36.722 42.857c-2.21-.9-3.695-.272-4.224 1.029s.1 2.783 2.307 3.68 5.7-.431 5.7-.431-1.568-3.38-3.779-4.278" transform="translate(25 3.941)" style="fill:#a1d438"/>
            <path data-name="패스 11400" d="M36.722 48.6c-2.21-.9-3.695-.272-4.224 1.029s.1 2.783 2.307 3.68 5.7-.431 5.7-.431-1.572-3.378-3.783-4.278" transform="translate(25 3.933)" style="fill:#a1d438"/>
            <path data-name="패스 11401" d="M36.722 54.348c-2.21-.9-3.695-.272-4.224 1.029s.1 2.783 2.307 3.68 5.7-.431 5.7-.431-1.568-3.38-3.779-4.278" transform="translate(25 3.925)" style="fill:#a1d438"/>
            <path data-name="패스 11402" d="M36.722 60.093c-2.21-.9-3.695-.272-4.224 1.029s.1 2.783 2.307 3.68 5.7-.431 5.7-.431-1.568-3.38-3.779-4.278" transform="translate(25 3.917)" style="fill:#a1d438"/>
            <path data-name="패스 11403" d="M44.281 31.366c2.21-.9 3.7-.272 4.224 1.029s-.1 2.783-2.307 3.68-5.7-.431-5.7-.431 1.568-3.38 3.779-4.278" transform="translate(25 3.957)" style="fill:#a1d438"/>
            <path data-name="패스 11404" d="M44.281 37.112c2.21-.9 3.7-.272 4.224 1.029s-.1 2.783-2.307 3.68-5.7-.431-5.7-.431 1.568-3.38 3.779-4.278" transform="translate(25 3.949)" style="fill:#a1d438"/>
            <path data-name="패스 11405" d="M44.281 42.857c2.21-.9 3.7-.272 4.224 1.029s-.1 2.783-2.307 3.68-5.7-.431-5.7-.431 1.568-3.38 3.779-4.278" transform="translate(25 3.941)" style="fill:#a1d438"/>
            <path data-name="패스 11406" d="M44.281 48.6c2.21-.9 3.7-.272 4.224 1.029s-.1 2.783-2.307 3.68-5.7-.431-5.7-.431S42.07 49.5 44.281 48.6" transform="translate(25 3.933)" style="fill:#a1d438"/>
            <path data-name="패스 11407" d="M44.281 54.348c2.21-.9 3.7-.272 4.224 1.029s-.1 2.783-2.307 3.68-5.7-.431-5.7-.431 1.568-3.38 3.779-4.278" transform="translate(25 3.925)" style="fill:#a1d438"/>
            <path data-name="패스 11408" d="M44.281 60.093c2.21-.9 3.7-.272 4.224 1.029s-.1 2.783-2.307 3.68-5.7-.431-5.7-.431 1.568-3.38 3.779-4.278" transform="translate(25 3.917)" style="fill:#a1d438"/>
            <path data-name="패스 11409" d="M41.856 24.566c0 2.214-.614 3.272-1.371 3.272s-1.372-1.059-1.372-3.272a12.01 12.01 0 0 1 1.37-4.746 12 12 0 0 1 1.371 4.746" transform="translate(25 3.972)" style="fill:#f4e919"/>
            <path data-name="패스 11410" d="M40.274 24.517c1.135 1.9 1.149 3.126.5 3.512s-1.72-.207-2.855-2.11a12 12 0 0 1-1.253-4.778 12.015 12.015 0 0 1 3.61 3.377" transform="translate(25 3.971)" style="fill:#f4ee22"/>
            <path data-name="패스 11411" d="M40.981 24.517c-1.135 1.9-1.149 3.126-.5 3.512s1.72-.207 2.855-2.11a12 12 0 0 0 1.253-4.778 12.015 12.015 0 0 0-3.61 3.377" transform="translate(25 3.971)" style="fill:#f4ee22"/>
            <path data-name="패스 11412" d="M42.823 25.141c-2.372 1.215-3.168 2.453-2.752 3.259s1.886.884 4.258-.332A14.454 14.454 0 0 0 48.66 24a14.481 14.481 0 0 0-5.837 1.14" transform="translate(25 3.967)" style="fill:#f4e919"/>
            <path data-name="패스 11413" d="M38.123 25.141c2.372 1.215 3.168 2.453 2.752 3.259s-1.886.884-4.258-.332A14.454 14.454 0 0 1 32.286 24a14.481 14.481 0 0 1 5.837 1.14" transform="translate(25 3.967)" style="fill:#f4e919"/>
            <path data-name="패스 11414" d="M44.1 26.458c-2.632.424-3.772 1.354-3.626 2.253s1.52 1.423 4.152 1A14.474 14.474 0 0 0 50 27.175a14.473 14.473 0 0 0-5.906-.717" transform="translate(25 3.963)" style="fill:#f2d81c"/>
            <path data-name="패스 11415" d="M36.841 26.458c2.632.424 3.772 1.354 3.626 2.253s-1.52 1.423-4.152 1a14.474 14.474 0 0 1-5.379-2.534 14.473 14.473 0 0 1 5.906-.717" transform="translate(25 3.963)" style="fill:#f2d81c"/>
            <path data-name="패스 11416" d="M41.856 28.276c0 1.363-.614 2.014-1.371 2.014s-1.372-.651-1.372-2.014a5.633 5.633 0 0 1 1.37-2.922 5.632 5.632 0 0 1 1.371 2.922" transform="translate(25 3.965)" style="fill:#f2d81c"/>
            <path data-name="패스 11417" d="M13.344 33.645c2.21-.9 3.695-.272 4.225 1.029s-.1 2.783-2.308 3.68-5.7-.431-5.7-.431 1.569-3.38 3.78-4.278" transform="translate(25 3.954)" style="fill:#94b524"/>
            <path data-name="패스 11418" d="M13.344 39.836c2.21-.9 3.695-.272 4.225 1.029s-.1 2.783-2.308 3.68-5.7-.431-5.7-.431 1.569-3.38 3.78-4.278" transform="translate(25 3.945)" style="fill:#94b524"/>
            <path data-name="패스 11419" d="M13.344 46.028c2.21-.9 3.695-.272 4.225 1.029s-.1 2.783-2.308 3.68-5.7-.431-5.7-.431 1.569-3.38 3.78-4.278" transform="translate(25 3.937)" style="fill:#94b524"/>
            <path data-name="패스 11420" d="M13.344 52.219c2.21-.9 3.695-.272 4.225 1.029s-.1 2.783-2.308 3.68-5.7-.431-5.7-.431 1.569-3.38 3.78-4.278" transform="translate(25 3.928)" style="fill:#94b524"/>
            <path data-name="패스 11421" d="M13.344 58.411c2.21-.9 3.695-.272 4.225 1.029s-.1 2.783-2.308 3.68-5.7-.431-5.7-.431 1.569-3.38 3.78-4.278" transform="translate(25 3.919)" style="fill:#94b524"/>
            <path data-name="패스 11422" d="M5.786 33.645c-2.21-.9-3.695-.272-4.224 1.029s.1 2.783 2.307 3.68 5.7-.431 5.7-.431S8 34.542 5.786 33.644" transform="translate(25 3.954)" style="fill:#94b524"/>
            <path data-name="패스 11423" d="M5.786 39.836c-2.21-.9-3.695-.272-4.224 1.029s.1 2.783 2.307 3.68 5.7-.431 5.7-.431S8 40.733 5.786 39.835" transform="translate(25 3.945)" style="fill:#94b524"/>
            <path data-name="패스 11424" d="M5.786 46.028c-2.21-.9-3.695-.272-4.224 1.029s.1 2.783 2.307 3.68 5.7-.431 5.7-.431S8 46.925 5.786 46.027" transform="translate(25 3.937)" style="fill:#94b524"/>
            <path data-name="패스 11425" d="M5.786 52.219c-2.21-.9-3.695-.272-4.224 1.029s.1 2.783 2.307 3.68 5.7-.431 5.7-.431S8 53.116 5.786 52.218" transform="translate(25 3.928)" style="fill:#94b524"/>
            <path data-name="패스 11426" d="M5.786 58.411c-2.21-.9-3.695-.272-4.224 1.029s.1 2.783 2.307 3.68 5.7-.431 5.7-.431S8 59.308 5.786 58.41" transform="translate(25 3.919)" style="fill:#94b524"/>
            <path data-name="패스 11427" d="M9.659 27.294h-.223c0-3.385-2.966-9.179-3-9.238l.2-.1c.031.058 3.021 5.9 3.021 9.339" transform="translate(25 3.975)" style="fill:#f4ee22"/>
            <path data-name="패스 11428" d="M6.92 18.005a.379.379 0 1 1-.38-.378.379.379 0 0 1 .379.378" transform="translate(25 3.976)" style="fill:#f4ee22"/>
            <path data-name="패스 11429" d="M8.739 28.382C7.439 25.255 2.474 21.04 2.424 21l.144-.17a42.61 42.61 0 0 1 2.683 2.524A17.617 17.617 0 0 1 8.944 28.3z" transform="translate(25 3.971)" style="fill:#f4ee22"/>
            <path data-name="패스 11430" d="M2.846 20.767a.378.378 0 1 1-.495-.207.378.378 0 0 1 .495.207" transform="translate(25 3.971)" style="fill:#f4ee22"/>
            <path data-name="패스 11431" d="m10.357 28.382-.207-.082a17.555 17.555 0 0 1 3.693-4.944 42.225 42.225 0 0 1 2.683-2.524l.144.17c-.052.042-5.015 4.257-6.315 7.384" transform="translate(25 3.971)" style="fill:#f4ee22"/>
            <path data-name="패스 11432" d="M9.659 27.294h-.223c0-3.439 2.992-9.281 3.022-9.339l.2.1c-.03.059-3 5.853-3 9.238" transform="translate(25 3.975)" style="fill:#f4ee22"/>
            <path data-name="패스 11433" d="M12.178 18.005a.379.379 0 1 0 .38-.378.379.379 0 0 0-.379.378" transform="translate(25 3.976)" style="fill:#f4ee22"/>
            <path data-name="패스 11434" d="M9.165 15.961a.379.379 0 1 0 .38-.378.379.379 0 0 0-.379.378" transform="translate(25 3.978)" style="fill:#f4ee22"/>
            <path data-name="사각형 2666" transform="translate(34.437 19.791)" style="fill:#f4ee22" d="M0 0h.222v8.012H0z"/>
            <path data-name="사각형 2667" transform="translate(33.842 33.36)" style="fill:#8c6239" d="M0 0h1.445v40.68H0z"/>
            <path data-name="패스 11435" d="M5.786 31.366c-2.21-.9-3.695-.272-4.224 1.029s.1 2.783 2.307 3.68 5.7-.431 5.7-.431S8 32.263 5.786 31.365" transform="translate(25 3.957)" style="fill:#a1d438"/>
            <path data-name="패스 11436" d="M5.786 37.112c-2.21-.9-3.695-.272-4.224 1.029s.1 2.783 2.307 3.68 5.7-.431 5.7-.431S8 38.009 5.786 37.111" transform="translate(25 3.949)" style="fill:#a1d438"/>
            <path data-name="패스 11437" d="M5.786 42.857c-2.21-.9-3.695-.272-4.224 1.029s.1 2.783 2.307 3.68 5.7-.431 5.7-.431S8 43.754 5.786 42.856" transform="translate(25 3.941)" style="fill:#a1d438"/>
            <path data-name="패스 11438" d="M5.786 48.6c-2.21-.9-3.695-.272-4.224 1.029s.1 2.783 2.307 3.68 5.7-.431 5.7-.431S8 49.5 5.786 48.6" transform="translate(25 3.933)" style="fill:#a1d438"/>
            <path data-name="패스 11439" d="M5.786 54.348c-2.21-.9-3.695-.272-4.224 1.029s.1 2.783 2.307 3.68 5.7-.431 5.7-.431S8 55.245 5.786 54.347" transform="translate(25 3.925)" style="fill:#a1d438"/>
            <path data-name="패스 11440" d="M5.786 60.093c-2.21-.9-3.695-.272-4.224 1.029s.1 2.783 2.307 3.68 5.7-.431 5.7-.431S8 60.99 5.786 60.092" transform="translate(25 3.917)" style="fill:#a1d438"/>
            <path data-name="패스 11441" d="M13.344 31.366c2.21-.9 3.695-.272 4.225 1.029s-.1 2.783-2.308 3.68-5.7-.431-5.7-.431 1.569-3.38 3.78-4.278" transform="translate(25 3.957)" style="fill:#a1d438"/>
            <path data-name="패스 11442" d="M13.344 37.112c2.21-.9 3.695-.272 4.225 1.029s-.1 2.783-2.308 3.68-5.7-.431-5.7-.431 1.569-3.38 3.78-4.278" transform="translate(25 3.949)" style="fill:#a1d438"/>
            <path data-name="패스 11443" d="M13.344 42.857c2.21-.9 3.695-.272 4.225 1.029s-.1 2.783-2.308 3.68-5.7-.431-5.7-.431 1.569-3.38 3.78-4.278" transform="translate(25 3.941)" style="fill:#a1d438"/>
            <path data-name="패스 11444" d="M13.344 48.6c2.21-.9 3.695-.272 4.225 1.029s-.1 2.783-2.308 3.68-5.7-.431-5.7-.431 1.569-3.38 3.78-4.278" transform="translate(25 3.933)" style="fill:#a1d438"/>
            <path data-name="패스 11445" d="M13.344 54.348c2.21-.9 3.695-.272 4.225 1.029s-.1 2.783-2.308 3.68-5.7-.431-5.7-.431 1.569-3.38 3.78-4.278" transform="translate(25 3.925)" style="fill:#a1d438"/>
            <path data-name="패스 11446" d="M13.344 60.093c2.21-.9 3.695-.272 4.225 1.029s-.1 2.783-2.308 3.68-5.7-.431-5.7-.431 1.569-3.38 3.78-4.278" transform="translate(25 3.917)" style="fill:#a1d438"/>
            <path data-name="패스 11447" d="M10.919 24.566c0 2.214-.614 3.272-1.371 3.272s-1.372-1.058-1.372-3.272a12 12 0 0 1 1.372-4.746 12 12 0 0 1 1.371 4.746" transform="translate(25 3.972)" style="fill:#f4e919"/>
            <path data-name="패스 11448" d="M9.338 24.517c1.135 1.9 1.149 3.126.5 3.512s-1.72-.207-2.855-2.11a12 12 0 0 1-1.253-4.778 12.015 12.015 0 0 1 3.61 3.377" transform="translate(25 3.971)" style="fill:#f4ee22"/>
            <path data-name="패스 11449" d="M10.045 24.517c-1.135 1.9-1.149 3.126-.5 3.512s1.72-.207 2.855-2.11a12 12 0 0 0 1.253-4.778 12.015 12.015 0 0 0-3.61 3.377" transform="translate(25 3.971)" style="fill:#f4ee22"/>
            <path data-name="패스 11450" d="M11.887 25.141c-2.373 1.216-3.168 2.453-2.753 3.259s1.887.884 4.258-.332A14.454 14.454 0 0 0 17.723 24a14.478 14.478 0 0 0-5.836 1.14" transform="translate(25 3.967)" style="fill:#f4e919"/>
            <path data-name="패스 11451" d="M7.186 25.141c2.372 1.215 3.168 2.453 2.752 3.259s-1.886.884-4.258-.332A14.454 14.454 0 0 1 1.349 24a14.481 14.481 0 0 1 5.837 1.14" transform="translate(25 3.967)" style="fill:#f4e919"/>
            <path data-name="패스 11452" d="M13.158 26.458c-2.632.424-3.772 1.354-3.626 2.253s1.52 1.423 4.152 1a14.474 14.474 0 0 0 5.379-2.534 14.473 14.473 0 0 0-5.906-.717" transform="translate(25 3.963)" style="fill:#f2d81c"/>
            <path data-name="패스 11453" d="M5.906 26.458c2.632.424 3.772 1.354 3.626 2.253s-1.52 1.423-4.152 1A14.482 14.482 0 0 1 0 27.175a14.473 14.473 0 0 1 5.906-.717" transform="translate(25 3.963)" style="fill:#f2d81c"/>
            <path data-name="패스 11454" d="M10.919 28.276c0 1.363-.614 2.014-1.371 2.014s-1.372-.651-1.372-2.014a5.63 5.63 0 0 1 1.372-2.922 5.632 5.632 0 0 1 1.371 2.922" transform="translate(25 3.965)" style="fill:#f2d81c"/>
            <path data-name="패스 11455" d="M29.487 23.331c2.855-1.158 4.773-.352 5.457 1.329s-.126 3.6-2.981 4.754-7.356-.557-7.356-.557 2.026-4.367 4.882-5.525" transform="translate(25 3.968)" style="fill:#94b524"/>
            <path data-name="패스 11456" d="M29.487 31.33c2.855-1.158 4.773-.352 5.457 1.329s-.126 3.6-2.981 4.754-7.356-.557-7.356-.557 2.026-4.367 4.882-5.525" transform="translate(25 3.957)" style="fill:#94b524"/>
            <path data-name="패스 11457" d="M29.487 39.328c2.855-1.158 4.773-.352 5.457 1.329s-.126 3.6-2.981 4.754-7.356-.557-7.356-.557 2.026-4.367 4.882-5.525" transform="translate(25 3.946)" style="fill:#94b524"/>
            <path data-name="패스 11458" d="M29.487 47.326c2.855-1.158 4.773-.352 5.457 1.329s-.126 3.6-2.981 4.754-7.356-.557-7.356-.557 2.026-4.367 4.882-5.525" transform="translate(25 3.935)" style="fill:#94b524"/>
            <path data-name="패스 11459" d="M29.487 55.324c2.855-1.158 4.773-.352 5.457 1.329s-.126 3.6-2.981 4.754-7.356-.557-7.356-.557 2.026-4.367 4.882-5.525" transform="translate(25 3.924)" style="fill:#94b524"/>
            <path data-name="패스 11460" d="M19.726 23.331c-2.855-1.158-4.773-.352-5.457 1.329s.126 3.6 2.981 4.754 7.356-.557 7.356-.557-2.026-4.367-4.882-5.525" transform="translate(25 3.968)" style="fill:#94b524"/>
            <path data-name="패스 11461" d="M19.726 31.33c-2.855-1.158-4.773-.352-5.457 1.329s.126 3.6 2.981 4.754 7.356-.557 7.356-.557-2.026-4.367-4.882-5.525" transform="translate(25 3.957)" style="fill:#94b524"/>
            <path data-name="패스 11462" d="M19.726 39.328c-2.855-1.158-4.773-.352-5.457 1.329s.126 3.6 2.981 4.754 7.356-.557 7.356-.557-2.026-4.367-4.882-5.525" transform="translate(25 3.946)" style="fill:#94b524"/>
            <path data-name="패스 11463" d="M19.726 47.326c-2.855-1.158-4.773-.352-5.457 1.329s.126 3.6 2.981 4.754 7.356-.557 7.356-.557-2.026-4.367-4.882-5.525" transform="translate(25 3.935)" style="fill:#94b524"/>
            <path data-name="패스 11464" d="M19.726 55.324c-2.855-1.158-4.773-.352-5.457 1.329s.126 3.6 2.981 4.754 7.356-.557 7.356-.557-2.026-4.367-4.882-5.525" transform="translate(25 3.924)" style="fill:#94b524"/>
            <path data-name="패스 11465" d="M24.729 15.129h-.287c0-4.373-3.834-11.859-3.871-11.933l.255-.131c.039.075 3.9 7.622 3.9 12.064" transform="translate(25 3.996)" style="fill:#f4ee22"/>
            <path data-name="패스 11466" d="M21.188 3.129a.49.49 0 1 1-.49-.489.49.49 0 0 1 .49.489" transform="translate(25 3.996)" style="fill:#f4ee22"/>
            <path data-name="패스 11467" d="M23.54 16.533c-1.678-4.039-8.091-9.485-8.156-9.539l.186-.219c.016.013 1.647 1.4 3.466 3.259a22.734 22.734 0 0 1 4.771 6.385z" transform="translate(25 3.99)" style="fill:#f4ee22"/>
            <path data-name="패스 11468" d="M15.929 6.7a.489.489 0 1 1-.64-.264.488.488 0 0 1 .64.264" transform="translate(25 3.991)" style="fill:#f4ee22"/>
            <path data-name="패스 11469" d="m25.63 16.533-.265-.11a22.734 22.734 0 0 1 4.77-6.386 53.97 53.97 0 0 1 3.467-3.259l.185.22c-.064.054-6.475 5.5-8.156 9.538" transform="translate(25 3.99)" style="fill:#f4ee22"/>
            <path data-name="패스 11470" d="M33.243 6.7a.489.489 0 1 0 .64-.264.488.488 0 0 0-.64.264" transform="translate(25 3.991)" style="fill:#f4ee22"/>
            <path data-name="패스 11471" d="M24.729 15.129h-.287c0-4.442 3.864-11.988 3.9-12.064l.258.135c-.038.075-3.871 7.561-3.871 11.933" transform="translate(25 3.996)" style="fill:#f4ee22"/>
            <path data-name="패스 11472" d="M27.983 3.129a.49.49 0 1 0 .49-.489.49.49 0 0 0-.49.489" transform="translate(25 3.996)" style="fill:#f4ee22"/>
            <path data-name="패스 11473" d="M24.09.489A.49.49 0 1 0 24.58 0a.49.49 0 0 0-.49.489" transform="translate(25 4)" style="fill:#f4ee22"/>
            <path data-name="사각형 2668" transform="translate(49.442 4.296)" style="fill:#f4ee22" d="M0 0h.287v10.349H0z"/>
            <path data-name="사각형 2669" transform="translate(48.675 21.825)" style="fill:#8c6239" d="M0 0h1.867v52.215H0z"/>
            <path data-name="패스 11474" d="M19.726 20.389c-2.855-1.158-4.773-.352-5.457 1.329s.126 3.6 2.981 4.754 7.356-.557 7.356-.557-2.026-4.367-4.882-5.525" transform="translate(25 3.972)" style="fill:#a1d438"/>
            <path data-name="패스 11475" d="M19.726 27.81c-2.855-1.158-4.773-.352-5.457 1.329s.126 3.6 2.981 4.754 7.356-.557 7.356-.557-2.026-4.367-4.882-5.525" transform="translate(25 3.962)" style="fill:#a1d438"/>
            <path data-name="패스 11476" d="M19.726 35.232c-2.855-1.158-4.773-.352-5.457 1.329s.126 3.6 2.981 4.754 7.356-.557 7.356-.557-2.026-4.367-4.882-5.525" transform="translate(25 3.952)" style="fill:#a1d438"/>
            <path data-name="패스 11477" d="M19.726 42.656c-2.855-1.158-4.773-.352-5.457 1.329s.126 3.6 2.981 4.754 7.356-.557 7.356-.557-2.025-4.369-4.88-5.526" transform="translate(25 3.941)" style="fill:#a1d438"/>
            <path data-name="패스 11478" d="M19.726 50.075c-2.855-1.158-4.773-.352-5.457 1.329S14.4 55 17.25 56.159s7.356-.557 7.356-.557-2.026-4.367-4.882-5.525" transform="translate(25 3.931)" style="fill:#a1d438"/>
            <path data-name="패스 11479" d="M19.726 57.5c-2.855-1.158-4.773-.351-5.457 1.329s.126 3.6 2.981 4.754 7.356-.557 7.356-.557-2.026-4.371-4.882-5.526" transform="translate(25 3.921)" style="fill:#a1d438"/>
            <path data-name="패스 11480" d="M29.487 20.389c2.855-1.158 4.773-.352 5.457 1.329s-.126 3.6-2.981 4.754-7.356-.557-7.356-.557 2.026-4.367 4.882-5.525" transform="translate(25 3.972)" style="fill:#a1d438"/>
            <path data-name="패스 11481" d="M29.487 27.81c2.855-1.158 4.773-.352 5.457 1.329s-.126 3.6-2.981 4.754-7.356-.557-7.356-.557 2.026-4.367 4.882-5.525" transform="translate(25 3.962)" style="fill:#a1d438"/>
            <path data-name="패스 11482" d="M29.487 35.232c2.855-1.158 4.773-.352 5.457 1.329s-.126 3.6-2.981 4.754-7.356-.557-7.356-.557 2.026-4.367 4.882-5.525" transform="translate(25 3.952)" style="fill:#a1d438"/>
            <path data-name="패스 11483" d="M29.487 42.656c2.855-1.158 4.773-.352 5.457 1.329s-.126 3.6-2.981 4.754-7.356-.557-7.356-.557 2.027-4.369 4.88-5.526" transform="translate(25 3.941)" style="fill:#a1d438"/>
            <path data-name="패스 11484" d="M29.487 50.075c2.855-1.158 4.773-.352 5.457 1.329s-.126 3.6-2.981 4.754-7.356-.557-7.356-.557 2.026-4.367 4.882-5.525" transform="translate(25 3.931)" style="fill:#a1d438"/>
            <path data-name="패스 11485" d="M29.487 57.5c2.855-1.158 4.773-.351 5.457 1.329s-.126 3.6-2.981 4.754-7.356-.557-7.356-.557 2.026-4.367 4.882-5.525" transform="translate(25 3.921)" style="fill:#a1d438"/>
            <path data-name="패스 11486" d="M26.358 11.605c0 2.86-.793 4.227-1.772 4.227s-1.772-1.367-1.772-4.227a15.5 15.5 0 0 1 1.772-6.131 15.5 15.5 0 0 1 1.772 6.131" transform="translate(25 3.992)" style="fill:#f4e919"/>
            <path data-name="패스 11487" d="M24.314 11.54c1.466 2.458 1.484 4.035.643 4.537s-2.222-.269-3.688-2.726a15.512 15.512 0 0 1-1.62-6.172 15.505 15.505 0 0 1 4.662 4.362" transform="translate(25 3.99)" style="fill:#f4ee22"/>
            <path data-name="패스 11488" d="M25.228 11.54c-1.466 2.458-1.484 4.035-.643 4.537s2.222-.269 3.688-2.726a15.5 15.5 0 0 0 1.619-6.172 15.505 15.505 0 0 0-4.662 4.361" transform="translate(25 3.99)" style="fill:#f4ee22"/>
            <path data-name="패스 11489" d="M27.607 12.348c-3.064 1.571-4.093 3.169-3.554 4.214s2.434 1.142 5.5-.428 5.595-5.26 5.595-5.26-4.477-.1-7.54 1.475" transform="translate(25 3.985)" style="fill:#f4e919"/>
            <path data-name="패스 11490" d="M21.535 12.348c3.064 1.571 4.093 3.169 3.554 4.214s-2.434 1.142-5.5-.428-5.594-5.261-5.594-5.261 4.476-.1 7.54 1.474" transform="translate(25 3.985)" style="fill:#f4e919"/>
            <path data-name="패스 11491" d="M29.249 14.047c-3.4.548-4.872 1.751-4.685 2.91s1.964 1.838 5.364 1.291 6.948-3.275 6.948-3.275-4.227-1.474-7.626-.926" transform="translate(25 3.98)" style="fill:#f2d81c"/>
            <path data-name="패스 11492" d="M19.879 14.047c3.4.548 4.872 1.751 4.685 2.91S22.6 18.8 19.2 18.249s-6.948-3.275-6.948-3.275 4.227-1.474 7.627-.926" transform="translate(25 3.98)" style="fill:#f2d81c"/>
            <path data-name="패스 11493" d="M26.358 16.4c0 1.759-.793 2.6-1.772 2.6s-1.772-.841-1.772-2.6 1.772-3.777 1.772-3.777 1.772 2.013 1.772 3.777" transform="translate(25 3.982)" style="fill:#f2d81c"/>
            <path data-name="사각형 2670" transform="translate(26.384 74.04)" style="fill:#fff" d="M0 0h47.276v5.831H0z"/>
            <path data-name="패스 11494" d="m2.8 75.976.72 3.284h43l.719-3.284z" transform="translate(25 3.895)" style="fill:#e6e6e6"/>
            <path data-name="패스 11495" d="M46.521 79.265h-43l3.692 16.844H17V95a1.307 1.307 0 0 1 2.614 0v1.112h3.436V95a1.307 1.307 0 0 1 2.614 0v1.112H29.1V95a1.308 1.308 0 0 1 2.615 0v1.115H42.83z" transform="translate(25 3.89)" style="fill:#fff"/>
            <path data-name="패스 11496" d="M18.307 93.71A1.306 1.306 0 0 0 17 95.015v1.115h2.614v-1.113a1.306 1.306 0 0 0-1.307-1.305" transform="translate(25 3.87)" style="fill:#e6e6e6"/>
            <path data-name="패스 11497" d="M24.356 93.71a1.306 1.306 0 0 0-1.307 1.305v1.115h2.614v-1.113a1.306 1.306 0 0 0-1.307-1.305" transform="translate(25 3.87)" style="fill:#e6e6e6"/>
            <path data-name="패스 11498" d="M30.405 93.71a1.306 1.306 0 0 0-1.305 1.305v1.115h2.614v-1.113a1.306 1.306 0 0 0-1.307-1.305" transform="translate(25 3.87)" style="fill:#e6e6e6"/>
            <path data-name="패스 11499" d="M18.307 93.71A1.306 1.306 0 0 0 17 95.015v1.115h2.614v-1.113a1.306 1.306 0 0 0-1.307-1.305" transform="translate(25 3.87)" style="fill:#56b36b"/>
            <path data-name="패스 11500" d="M24.356 93.71a1.306 1.306 0 0 0-1.307 1.305v1.115h2.614v-1.113a1.306 1.306 0 0 0-1.307-1.305" transform="translate(25 3.87)" style="fill:#56b36b"/>
            <path data-name="패스 11501" d="M30.405 93.71a1.306 1.306 0 0 0-1.305 1.305v1.115h2.614v-1.113a1.306 1.306 0 0 0-1.307-1.305" transform="translate(25 3.87)" style="fill:#56b36b"/>
            <path data-name="사각형 2671" transform="translate(25 4)" style="fill:none" d="M0 0h50v96H0z"/>
        </g>
    </g>
</svg>
