<svg xmlns="http://www.w3.org/2000/svg" width="100" height="100.002" viewBox="0 0 100 100.002">
    <defs>
        <clipPath id="zoui7ca4wa">
            <path data-name="사각형 2736" style="fill:none" d="M0 0h75.003v73.002H0z"/>
        </clipPath>
    </defs>
    <g data-name="그룹 2509">
        <path data-name="사각형 2605" style="fill:none" d="M0 0h100v100H0z"/>
        <g data-name="그룹 2430">
            <g data-name="그룹 2429" style="clip-path:url(#zoui7ca4wa)" transform="translate(12 27)">
                <path data-name="패스 12462" d="m22.767 44.143-9.157 9.01a4.3 4.3 0 0 0-1.283 3.065l9.285-9.285a3.946 3.946 0 0 0 1.155-2.79" style="fill:#6a8e32"/>
                <path data-name="패스 12463" d="m17.961 34.627-4.482 4.334a4.3 4.3 0 0 0-1.279 3.065l4.609-4.609a3.947 3.947 0 0 0 1.156-2.79" style="fill:#6a8e32"/>
                <path data-name="패스 12464" d="m4 38.679 7.71 7.562a4.3 4.3 0 0 1 1.283 3.065l-7.835-7.837A3.947 3.947 0 0 1 4 38.679" style="fill:#6a8e32"/>
                <path data-name="패스 12465" d="M13.041 17.755c.6-.867 1.3-1 1.807-.644s.64 1.051.043 1.918a4.26 4.26 0 0 1-2.2 1.221 4.263 4.263 0 0 1 .355-2.5" style="fill:#9a3bd1"/>
                <path data-name="패스 12466" d="M12.39 17.755c-.6-.867-1.3-1-1.807-.644s-.64 1.051-.043 1.918a4.26 4.26 0 0 0 2.2 1.221 4.263 4.263 0 0 0-.355-2.5" style="fill:#9a3bd1"/>
                <path data-name="패스 12467" d="M13.068 20.284c.647-.939 1.4-1.079 1.958-.7s.693 1.139.046 2.078a4.612 4.612 0 0 1-2.388 1.323 4.615 4.615 0 0 1 .384-2.7" style="fill:#9a3bd1"/>
                <path data-name="패스 12468" d="M12.362 20.284c-.647-.939-1.4-1.079-1.958-.7s-.693 1.139-.046 2.078a4.614 4.614 0 0 0 2.389 1.325 4.615 4.615 0 0 0-.384-2.7" style="fill:#9a3bd1"/>
                <path data-name="패스 12469" d="M13.1 23.09c.713-1.035 1.548-1.189 2.158-.769s.764 1.255.051 2.29a5.088 5.088 0 0 1-2.628 1.458 5.094 5.094 0 0 1 .424-2.979" style="fill:#9a3bd1"/>
                <path data-name="패스 12470" d="M12.327 23.09c-.713-1.035-1.548-1.189-2.158-.769s-.764 1.255-.051 2.29a5.093 5.093 0 0 0 2.632 1.458 5.094 5.094 0 0 0-.424-2.979" style="fill:#9a3bd1"/>
                <path data-name="패스 12471" d="M13.135 26.254c.77-1.118 1.672-1.284 2.33-.831s.825 1.355.055 2.473a5.5 5.5 0 0 1-2.843 1.575 5.5 5.5 0 0 1 .458-3.218" style="fill:#9a3bd1"/>
                <path data-name="패스 12472" d="M12.3 26.254c-.77-1.118-1.672-1.284-2.33-.831s-.83 1.355-.06 2.477a5.5 5.5 0 0 0 2.843 1.575 5.5 5.5 0 0 0-.458-3.218" style="fill:#9a3bd1"/>
                <path data-name="패스 12473" d="m12.53 35.249-1.3-1.3a.437.437 0 0 1 .309-.746h2.606a.437.437 0 0 1 .309.746l-1.3 1.3a.436.436 0 0 1-.618 0" style="fill:#a1d438"/>
                <path data-name="패스 12474" d="M13.215 29.587c.916-1.33 1.988-1.528 2.772-.988s.981 1.612.065 2.942-3.381 1.873-3.381 1.873-.371-2.5.544-3.827" style="fill:#9a3bd1"/>
                <path data-name="패스 12475" d="M12.216 29.587c-.916-1.33-1.988-1.528-2.772-.988s-.981 1.612-.065 2.942 3.381 1.873 3.381 1.873.371-2.5-.544-3.827" style="fill:#9a3bd1"/>
                <path data-name="패스 12476" d="m12.53 30.8-1.3-1.3a.437.437 0 0 1 .309-.746h2.606a.437.437 0 0 1 .309.746l-1.3 1.3a.436.436 0 0 1-.618 0" style="fill:#a1d438"/>
                <path data-name="패스 12477" d="m12.53 27.424-1.3-1.3a.437.437 0 0 1 .309-.746h2.606a.437.437 0 0 1 .309.746l-1.3 1.3a.436.436 0 0 1-.618 0" style="fill:#a1d438"/>
                <path data-name="패스 12478" d="m12.53 24.093-1.3-1.3a.437.437 0 0 1 .309-.746h2.606a.437.437 0 0 1 .309.746l-1.3 1.3a.436.436 0 0 1-.618 0" style="fill:#a1d438"/>
                <path data-name="패스 12479" d="m12.53 21.485-1.3-1.3a.437.437 0 0 1 .309-.746h2.606a.437.437 0 0 1 .309.746l-1.3 1.3a.436.436 0 0 1-.618 0" style="fill:#a1d438"/>
                <path data-name="패스 12480" d="m12.53 18.187-1.3-1.3a.437.437 0 0 1 .309-.746h2.606a.437.437 0 0 1 .309.746l-1.3 1.3a.436.436 0 0 1-.618 0" style="fill:#a1d438"/>
                <path data-name="사각형 2730" transform="translate(12.327 15.64)" style="fill:#a1d438" d="M0 0h.978v44.734H0z"/>
                <path data-name="패스 12481" d="M10.277 30.52c-1.5-.608-2.5-.184-2.859.7s.066 1.886 1.562 2.494 3.854-.292 3.854-.292-1.062-2.291-2.557-2.9" style="fill:#d8a0f2"/>
                <path data-name="패스 12482" d="M15.153 30.52c1.5-.608 2.5-.184 2.859.7s-.066 1.886-1.562 2.494-3.85-.294-3.85-.294 1.062-2.291 2.557-2.9" style="fill:#d8a0f2"/>
                <path data-name="패스 12483" d="M10.665 27.039c-1.257-.511-2.1-.155-2.4.586s.056 1.586 1.313 2.1a5.5 5.5 0 0 0 3.241-.246 5.5 5.5 0 0 0-2.15-2.437" style="fill:#d8a0f2"/>
                <path data-name="패스 12484" d="M14.765 27.039c1.257-.511 2.1-.155 2.4.586s-.056 1.586-1.313 2.1a5.5 5.5 0 0 1-3.241-.246 5.5 5.5 0 0 1 2.15-2.437" style="fill:#d8a0f2"/>
                <path data-name="패스 12485" d="M10.817 23.816c-1.164-.473-1.946-.143-2.225.543s.051 1.468 1.216 1.941a5.087 5.087 0 0 0 3-.228 5.087 5.087 0 0 0-1.991-2.257" style="fill:#d8a0f2"/>
                <path data-name="패스 12486" d="M14.613 23.816c1.164-.473 1.947-.143 2.225.543s-.051 1.468-1.216 1.941a5.087 5.087 0 0 1-3-.228 5.087 5.087 0 0 1 1.991-2.257" style="fill:#d8a0f2"/>
                <path data-name="패스 12487" d="M10.993 20.943c-1.056-.429-1.766-.13-2.019.492s.047 1.332 1.1 1.761a4.615 4.615 0 0 0 2.722-.207 4.615 4.615 0 0 0-1.806-2.047" style="fill:#d8a0f2"/>
                <path data-name="패스 12488" d="M14.437 20.943c1.056-.429 1.766-.13 2.019.492s-.047 1.332-1.1 1.761a4.615 4.615 0 0 1-2.722-.207 4.615 4.615 0 0 1 1.806-2.047" style="fill:#d8a0f2"/>
                <path data-name="패스 12489" d="M11.126 18.364c-.975-.4-1.63-.12-1.863.454s.043 1.229 1.018 1.626a4.259 4.259 0 0 0 2.513-.191 4.257 4.257 0 0 0-1.667-1.89" style="fill:#d8a0f2"/>
                <path data-name="패스 12490" d="M14.3 18.364c.975-.4 1.63-.12 1.863.454s-.043 1.229-1.018 1.626a4.259 4.259 0 0 1-2.513-.191 4.257 4.257 0 0 1 1.667-1.89" style="fill:#d8a0f2"/>
                <path data-name="패스 12491" d="M13.017 14.834c.554-.8 1.2-.924 1.676-.6s.593.975.039 1.779a3.955 3.955 0 0 1-2.044 1.133 3.957 3.957 0 0 1 .329-2.314" style="fill:#9a3bd1"/>
                <path data-name="패스 12492" d="M12.413 14.834c-.554-.8-1.2-.924-1.676-.6s-.593.975-.039 1.779a3.955 3.955 0 0 0 2.044 1.133 3.957 3.957 0 0 0-.329-2.314" style="fill:#9a3bd1"/>
                <path data-name="패스 12493" d="M11.241 15.4c-.9-.368-1.512-.111-1.729.421s.04 1.14.944 1.508a3.953 3.953 0 0 0 2.331-.177 3.954 3.954 0 0 0-1.546-1.752" style="fill:#d8a0f2"/>
                <path data-name="패스 12494" d="M14.189 15.4c.9-.368 1.512-.111 1.729.421s-.04 1.14-.944 1.508a3.953 3.953 0 0 1-2.331-.177 3.954 3.954 0 0 1 1.546-1.752" style="fill:#d8a0f2"/>
                <path data-name="패스 12495" d="M11.563 14.387c-.222-.693 0-1.13.411-1.261s.846.094 1.068.787a2.951 2.951 0 0 1-.263 1.723s-.994-.559-1.216-1.249" style="fill:#d8a0f2"/>
                <path data-name="패스 12496" d="M14 14.387c.222-.693 0-1.13-.411-1.261s-.846.094-1.068.787a2.951 2.951 0 0 0 .263 1.723s.993-.556 1.215-1.249" style="fill:#d8a0f2"/>
                <path data-name="패스 12497" d="m6.7 36.019 5.368 5.221a4.3 4.3 0 0 1 1.283 3.065l-5.5-5.5a3.947 3.947 0 0 1-1.151-2.79" style="fill:#a1d438"/>
                <path data-name="패스 12498" d="m21.316 38.675-7.7 7.553a4.3 4.3 0 0 0-1.283 3.065l7.828-7.828a3.946 3.946 0 0 0 1.155-2.79" style="fill:#a1d438"/>
                <path data-name="패스 12499" d="m1.484 43.9 10.347 10.2a4.3 4.3 0 0 1 1.283 3.065L2.64 46.695A3.945 3.945 0 0 1 1.484 43.9" style="fill:#a1d438"/>
                <path data-name="패스 12500" d="m32.953 44.143-9.153 9.01a4.3 4.3 0 0 0-1.283 3.065l9.283-9.285a3.946 3.946 0 0 0 1.155-2.79" style="fill:#6a8e32"/>
                <path data-name="패스 12501" d="m28.147 34.627-4.482 4.334a4.3 4.3 0 0 0-1.283 3.065l4.609-4.609a3.947 3.947 0 0 0 1.156-2.79" style="fill:#6a8e32"/>
                <path data-name="패스 12502" d="m14.188 38.679 7.71 7.562a4.3 4.3 0 0 1 1.283 3.065l-7.837-7.837a3.947 3.947 0 0 1-1.156-2.79" style="fill:#6a8e32"/>
                <path data-name="패스 12503" d="M23.227 17.755c.6-.867 1.3-1 1.807-.644s.639 1.051.043 1.918a4.26 4.26 0 0 1-2.2 1.221 4.263 4.263 0 0 1 .355-2.5" style="fill:#9a3bd1"/>
                <path data-name="패스 12504" d="M22.576 17.755c-.6-.867-1.3-1-1.807-.644s-.639 1.051-.043 1.918a4.26 4.26 0 0 0 2.2 1.221 4.263 4.263 0 0 0-.355-2.5" style="fill:#9a3bd1"/>
                <path data-name="패스 12505" d="M23.254 20.284c.647-.939 1.4-1.079 1.958-.7s.693 1.139.046 2.078a4.612 4.612 0 0 1-2.388 1.323 4.615 4.615 0 0 1 .384-2.7" style="fill:#9a3bd1"/>
                <path data-name="패스 12506" d="M22.548 20.284c-.647-.939-1.4-1.079-1.958-.7s-.693 1.139-.046 2.078a4.612 4.612 0 0 0 2.388 1.323 4.615 4.615 0 0 0-.384-2.7" style="fill:#9a3bd1"/>
                <path data-name="패스 12507" d="M23.29 23.09c.713-1.035 1.548-1.189 2.158-.769s.764 1.255.051 2.29a5.09 5.09 0 0 1-2.631 1.458 5.094 5.094 0 0 1 .424-2.979" style="fill:#9a3bd1"/>
                <path data-name="패스 12508" d="M22.51 23.09c-.713-1.035-1.548-1.189-2.158-.769s-.764 1.255-.051 2.29a5.093 5.093 0 0 0 2.632 1.458 5.094 5.094 0 0 0-.424-2.979" style="fill:#9a3bd1"/>
                <path data-name="패스 12509" d="M23.321 26.254c.77-1.118 1.672-1.284 2.33-.831s.825 1.355.055 2.473a5.5 5.5 0 0 1-2.843 1.575 5.5 5.5 0 0 1 .458-3.218" style="fill:#9a3bd1"/>
                <path data-name="패스 12510" d="M22.481 26.254c-.77-1.118-1.672-1.284-2.33-.831s-.825 1.355-.055 2.473a5.5 5.5 0 0 0 2.843 1.575 5.5 5.5 0 0 0-.458-3.218" style="fill:#9a3bd1"/>
                <path data-name="패스 12511" d="m22.716 35.249-1.3-1.3a.437.437 0 0 1 .309-.746h2.606a.437.437 0 0 1 .309.746l-1.3 1.3a.436.436 0 0 1-.618 0" style="fill:#a1d438"/>
                <path data-name="패스 12512" d="M23.4 29.587c.916-1.33 1.988-1.528 2.772-.988s.981 1.612.065 2.942-3.381 1.873-3.381 1.873-.371-2.5.544-3.827" style="fill:#9a3bd1"/>
                <path data-name="패스 12513" d="M22.4 29.587c-.916-1.33-1.988-1.528-2.772-.988s-.981 1.612-.065 2.942 3.381 1.873 3.381 1.873.371-2.5-.544-3.827" style="fill:#9a3bd1"/>
                <path data-name="패스 12514" d="m22.716 30.8-1.3-1.3a.437.437 0 0 1 .309-.746h2.606a.437.437 0 0 1 .309.746l-1.3 1.3a.436.436 0 0 1-.618 0" style="fill:#a1d438"/>
                <path data-name="패스 12515" d="m22.716 27.424-1.3-1.3a.437.437 0 0 1 .309-.746h2.606a.437.437 0 0 1 .309.746l-1.3 1.3a.436.436 0 0 1-.618 0" style="fill:#a1d438"/>
                <path data-name="패스 12516" d="m22.716 24.093-1.3-1.3a.437.437 0 0 1 .309-.746h2.606a.437.437 0 0 1 .309.746l-1.3 1.3a.436.436 0 0 1-.618 0" style="fill:#a1d438"/>
                <path data-name="패스 12517" d="m22.716 21.485-1.3-1.3a.437.437 0 0 1 .309-.746h2.606a.437.437 0 0 1 .309.746l-1.3 1.3a.436.436 0 0 1-.618 0" style="fill:#a1d438"/>
                <path data-name="패스 12518" d="m22.716 18.187-1.3-1.3a.437.437 0 0 1 .309-.746h2.606a.437.437 0 0 1 .309.746l-1.3 1.3a.436.436 0 0 1-.618 0" style="fill:#a1d438"/>
                <path data-name="사각형 2731" transform="translate(22.513 15.64)" style="fill:#a1d438" d="M0 0h.978v44.734H0z"/>
                <path data-name="패스 12519" d="M20.463 30.52c-1.5-.608-2.5-.184-2.859.7s.066 1.886 1.562 2.494 3.854-.292 3.854-.292-1.062-2.291-2.557-2.9" style="fill:#d8a0f2"/>
                <path data-name="패스 12520" d="M25.339 30.52c1.5-.608 2.5-.184 2.859.7s-.066 1.886-1.562 2.494-3.854-.292-3.854-.292 1.062-2.291 2.557-2.9" style="fill:#d8a0f2"/>
                <path data-name="패스 12521" d="M20.856 27.039c-1.257-.511-2.1-.155-2.4.586s.056 1.586 1.313 2.1a5.5 5.5 0 0 0 3.241-.246 5.5 5.5 0 0 0-2.15-2.437" style="fill:#d8a0f2"/>
                <path data-name="패스 12522" d="M24.951 27.039c1.257-.511 2.1-.155 2.4.586s-.056 1.586-1.313 2.1a5.5 5.5 0 0 1-3.241-.246 5.5 5.5 0 0 1 2.15-2.437" style="fill:#d8a0f2"/>
                <path data-name="패스 12523" d="M21 23.816c-1.164-.473-1.946-.143-2.225.543S18.83 25.827 20 26.3a5.087 5.087 0 0 0 3-.228 5.087 5.087 0 0 0-2-2.257" style="fill:#d8a0f2"/>
                <path data-name="패스 12524" d="M24.8 23.816c1.164-.473 1.946-.143 2.225.543s-.051 1.468-1.216 1.941a5.087 5.087 0 0 1-3-.228 5.087 5.087 0 0 1 1.991-2.257" style="fill:#d8a0f2"/>
                <path data-name="패스 12525" d="M21.179 20.943c-1.056-.429-1.766-.13-2.019.492s.047 1.332 1.1 1.761a4.615 4.615 0 0 0 2.722-.207 4.615 4.615 0 0 0-1.806-2.047" style="fill:#d8a0f2"/>
                <path data-name="패스 12526" d="M24.623 20.943c1.056-.429 1.766-.13 2.019.492s-.047 1.332-1.1 1.761a4.615 4.615 0 0 1-2.722-.207 4.615 4.615 0 0 1 1.806-2.047" style="fill:#d8a0f2"/>
                <path data-name="패스 12527" d="M21.312 18.364c-.975-.4-1.63-.12-1.863.454s.043 1.229 1.018 1.626a4.259 4.259 0 0 0 2.513-.191 4.257 4.257 0 0 0-1.667-1.89" style="fill:#d8a0f2"/>
                <path data-name="패스 12528" d="M24.49 18.364c.975-.4 1.63-.12 1.863.454s-.043 1.229-1.018 1.626a4.259 4.259 0 0 1-2.513-.191 4.257 4.257 0 0 1 1.667-1.89" style="fill:#d8a0f2"/>
                <path data-name="패스 12529" d="M23.2 14.834c.554-.8 1.2-.924 1.676-.6s.593.975.039 1.779a3.955 3.955 0 0 1-2.044 1.133 3.957 3.957 0 0 1 .329-2.314" style="fill:#9a3bd1"/>
                <path data-name="패스 12530" d="M22.6 14.834c-.554-.8-1.2-.924-1.676-.6s-.593.975-.04 1.779a3.955 3.955 0 0 0 2.044 1.133 3.949 3.949 0 0 0-.329-2.314" style="fill:#9a3bd1"/>
                <path data-name="패스 12531" d="M21.427 15.4c-.9-.368-1.512-.111-1.729.421s.04 1.14.944 1.508a3.953 3.953 0 0 0 2.331-.177 3.954 3.954 0 0 0-1.546-1.752" style="fill:#d8a0f2"/>
                <path data-name="패스 12532" d="M24.375 15.4c.9-.368 1.512-.111 1.729.421s-.04 1.14-.944 1.508a3.953 3.953 0 0 1-2.331-.177 3.954 3.954 0 0 1 1.546-1.752" style="fill:#d8a0f2"/>
                <path data-name="패스 12533" d="M21.749 14.387c-.222-.693 0-1.13.411-1.261s.846.094 1.068.787a2.951 2.951 0 0 1-.263 1.723s-.993-.556-1.215-1.249" style="fill:#d8a0f2"/>
                <path data-name="패스 12534" d="M24.183 14.387c.222-.693 0-1.13-.411-1.261s-.846.094-1.068.787a2.951 2.951 0 0 0 .263 1.723s.993-.556 1.215-1.249" style="fill:#d8a0f2"/>
                <path data-name="패스 12535" d="m16.89 36.019 5.368 5.221a4.3 4.3 0 0 1 1.283 3.065l-5.5-5.5a3.947 3.947 0 0 1-1.156-2.79" style="fill:#a1d438"/>
                <path data-name="패스 12536" d="m31.5 38.675-7.7 7.553a4.3 4.3 0 0 0-1.283 3.065l7.828-7.828a3.946 3.946 0 0 0 1.155-2.79" style="fill:#a1d438"/>
                <path data-name="패스 12537" d="m11.67 43.9 10.347 10.2a4.3 4.3 0 0 1 1.283 3.07L12.826 46.695A3.945 3.945 0 0 1 11.67 43.9" style="fill:#a1d438"/>
                <path data-name="패스 12538" d="m42.143 44.143-9.157 9.01a4.3 4.3 0 0 0-1.286 3.065l9.285-9.285a3.946 3.946 0 0 0 1.155-2.79" style="fill:#6a8e32"/>
                <path data-name="패스 12539" d="m37.337 34.627-4.482 4.334a4.3 4.3 0 0 0-1.283 3.065l4.609-4.609a3.947 3.947 0 0 0 1.156-2.79" style="fill:#6a8e32"/>
                <path data-name="패스 12540" d="m23.379 38.679 7.71 7.562a4.3 4.3 0 0 1 1.283 3.065l-7.837-7.837a3.947 3.947 0 0 1-1.156-2.79" style="fill:#6a8e32"/>
                <path data-name="패스 12541" d="M32.414 17.755c.6-.867 1.3-1 1.807-.644s.639 1.051.043 1.918a4.26 4.26 0 0 1-2.2 1.221 4.263 4.263 0 0 1 .355-2.5" style="fill:#9a3bd1"/>
                <path data-name="패스 12542" d="M31.767 17.755c-.6-.867-1.3-1-1.807-.644s-.639 1.051-.043 1.918a4.26 4.26 0 0 0 2.2 1.221 4.263 4.263 0 0 0-.355-2.5" style="fill:#9a3bd1"/>
                <path data-name="패스 12543" d="M32.441 20.284c.647-.939 1.4-1.079 1.958-.7s.693 1.139.046 2.078a4.612 4.612 0 0 1-2.388 1.323 4.615 4.615 0 0 1 .384-2.7" style="fill:#9a3bd1"/>
                <path data-name="패스 12544" d="M31.739 20.284c-.647-.939-1.4-1.079-1.958-.7s-.693 1.139-.046 2.078a4.612 4.612 0 0 0 2.388 1.323 4.615 4.615 0 0 0-.384-2.7" style="fill:#9a3bd1"/>
                <path data-name="패스 12545" d="M32.476 23.09c.713-1.035 1.548-1.189 2.158-.769s.764 1.255.051 2.29a5.093 5.093 0 0 1-2.632 1.458 5.094 5.094 0 0 1 .424-2.979" style="fill:#9a3bd1"/>
                <path data-name="패스 12546" d="M31.7 23.09c-.713-1.035-1.548-1.189-2.158-.769s-.764 1.255-.051 2.29a5.093 5.093 0 0 0 2.632 1.458 5.094 5.094 0 0 0-.423-2.979" style="fill:#9a3bd1"/>
                <path data-name="패스 12547" d="M32.507 26.254c.77-1.118 1.672-1.284 2.33-.831s.825 1.355.055 2.473a5.5 5.5 0 0 1-2.843 1.575 5.5 5.5 0 0 1 .458-3.218" style="fill:#9a3bd1"/>
                <path data-name="패스 12548" d="M31.672 26.254c-.77-1.118-1.672-1.284-2.33-.831s-.825 1.355-.055 2.473a5.5 5.5 0 0 0 2.843 1.575 5.5 5.5 0 0 0-.458-3.218" style="fill:#9a3bd1"/>
                <path data-name="패스 12549" d="m31.906 35.249-1.3-1.3a.437.437 0 0 1 .309-.746h2.606a.437.437 0 0 1 .309.746l-1.3 1.3a.436.436 0 0 1-.618 0" style="fill:#a1d438"/>
                <path data-name="패스 12550" d="M32.586 29.587c.916-1.33 1.988-1.528 2.772-.988s.981 1.612.065 2.942-3.381 1.873-3.381 1.873-.371-2.5.544-3.827" style="fill:#9a3bd1"/>
                <path data-name="패스 12551" d="M31.592 29.587c-.916-1.33-1.988-1.528-2.772-.988s-.981 1.612-.065 2.942 3.386 1.873 3.386 1.873.371-2.5-.544-3.827" style="fill:#9a3bd1"/>
                <path data-name="패스 12552" d="m31.906 30.8-1.3-1.3a.437.437 0 0 1 .309-.746h2.606a.437.437 0 0 1 .309.746l-1.3 1.3a.436.436 0 0 1-.618 0" style="fill:#a1d438"/>
                <path data-name="패스 12553" d="m31.906 27.424-1.3-1.3a.437.437 0 0 1 .309-.746h2.606a.437.437 0 0 1 .309.746l-1.3 1.3a.436.436 0 0 1-.618 0" style="fill:#a1d438"/>
                <path data-name="패스 12554" d="m31.906 24.093-1.3-1.3a.437.437 0 0 1 .309-.746h2.606a.437.437 0 0 1 .309.746l-1.3 1.3a.436.436 0 0 1-.618 0" style="fill:#a1d438"/>
                <path data-name="패스 12555" d="m31.906 21.485-1.3-1.3a.437.437 0 0 1 .309-.746h2.606a.437.437 0 0 1 .309.746l-1.3 1.3a.436.436 0 0 1-.618 0" style="fill:#a1d438"/>
                <path data-name="패스 12556" d="m31.906 18.187-1.3-1.3a.437.437 0 0 1 .309-.746h2.606a.437.437 0 0 1 .309.746l-1.3 1.3a.436.436 0 0 1-.618 0" style="fill:#a1d438"/>
                <path data-name="사각형 2732" transform="translate(31.703 15.64)" style="fill:#a1d438" d="M0 0h.978v44.734H0z"/>
                <path data-name="패스 12557" d="M29.653 30.52c-1.5-.608-2.5-.184-2.859.7s.066 1.886 1.562 2.494 3.854-.292 3.854-.292-1.062-2.291-2.557-2.9" style="fill:#d8a0f2"/>
                <path data-name="패스 12558" d="M34.529 30.52c1.5-.608 2.5-.184 2.859.7s-.066 1.886-1.562 2.494-3.854-.292-3.854-.292 1.062-2.291 2.557-2.9" style="fill:#d8a0f2"/>
                <path data-name="패스 12559" d="M30.042 27.039c-1.257-.511-2.1-.155-2.4.586s.056 1.586 1.313 2.1a5.5 5.5 0 0 0 3.241-.246 5.5 5.5 0 0 0-2.15-2.437" style="fill:#d8a0f2"/>
                <path data-name="패스 12560" d="M34.141 27.039c1.257-.511 2.1-.155 2.4.586s-.056 1.586-1.313 2.1a5.5 5.5 0 0 1-3.241-.246 5.5 5.5 0 0 1 2.15-2.437" style="fill:#d8a0f2"/>
                <path data-name="패스 12561" d="M30.194 23.816c-1.164-.473-1.946-.143-2.225.543s.051 1.468 1.216 1.941a5.087 5.087 0 0 0 3-.228 5.087 5.087 0 0 0-1.991-2.257" style="fill:#d8a0f2"/>
                <path data-name="패스 12562" d="M33.99 23.816c1.164-.473 1.947-.143 2.225.543S36.164 25.827 35 26.3a5.087 5.087 0 0 1-3-.228 5.087 5.087 0 0 1 1.991-2.257" style="fill:#d8a0f2"/>
                <path data-name="패스 12563" d="M30.37 20.943c-1.056-.429-1.766-.13-2.019.492s.047 1.332 1.1 1.761a4.615 4.615 0 0 0 2.722-.207 4.615 4.615 0 0 0-1.806-2.047" style="fill:#d8a0f2"/>
                <path data-name="패스 12564" d="M33.813 20.943c1.056-.429 1.766-.13 2.019.492s-.047 1.332-1.1 1.761a4.615 4.615 0 0 1-2.722-.207 4.615 4.615 0 0 1 1.806-2.047" style="fill:#d8a0f2"/>
                <path data-name="패스 12565" d="M30.5 18.364c-.975-.4-1.63-.12-1.863.454s.043 1.229 1.018 1.626a4.259 4.259 0 0 0 2.513-.191 4.257 4.257 0 0 0-1.667-1.89" style="fill:#d8a0f2"/>
                <path data-name="패스 12566" d="M33.681 18.364c.975-.4 1.63-.12 1.864.454s-.043 1.229-1.018 1.626a4.259 4.259 0 0 1-2.513-.191 4.257 4.257 0 0 1 1.667-1.89" style="fill:#d8a0f2"/>
                <path data-name="패스 12567" d="M32.391 14.834c.554-.8 1.2-.924 1.676-.6s.593.975.039 1.779a3.955 3.955 0 0 1-2.044 1.133 3.957 3.957 0 0 1 .329-2.314" style="fill:#9a3bd1"/>
                <path data-name="패스 12568" d="M31.79 14.834c-.554-.8-1.2-.924-1.676-.6s-.593.975-.039 1.779a3.955 3.955 0 0 0 2.044 1.133 3.957 3.957 0 0 0-.329-2.314" style="fill:#9a3bd1"/>
                <path data-name="패스 12569" d="M30.618 15.4c-.9-.368-1.512-.111-1.729.421s.04 1.14.944 1.508a3.953 3.953 0 0 0 2.331-.177 3.954 3.954 0 0 0-1.546-1.752" style="fill:#d8a0f2"/>
                <path data-name="패스 12570" d="M33.566 15.4c.9-.368 1.512-.111 1.729.421s-.04 1.14-.944 1.508a3.953 3.953 0 0 1-2.331-.177 3.954 3.954 0 0 1 1.546-1.752" style="fill:#d8a0f2"/>
                <path data-name="패스 12571" d="M30.939 14.387c-.222-.693 0-1.13.411-1.261s.846.094 1.068.787a2.951 2.951 0 0 1-.263 1.723s-.993-.556-1.215-1.249" style="fill:#d8a0f2"/>
                <path data-name="패스 12572" d="M33.373 14.387c.222-.693 0-1.13-.411-1.261s-.846.094-1.068.787a2.951 2.951 0 0 0 .263 1.723s.993-.556 1.215-1.249" style="fill:#d8a0f2"/>
                <path data-name="패스 12573" d="m26.081 36.019 5.368 5.221a4.3 4.3 0 0 1 1.283 3.065l-5.5-5.5a3.947 3.947 0 0 1-1.156-2.79" style="fill:#a1d438"/>
                <path data-name="패스 12574" d="m40.693 38.675-7.7 7.553a4.3 4.3 0 0 0-1.283 3.065l7.828-7.828a3.946 3.946 0 0 0 1.155-2.79" style="fill:#a1d438"/>
                <path data-name="패스 12575" d="m20.86 43.9 10.347 10.2a4.3 4.3 0 0 1 1.283 3.07L22.016 46.7a3.945 3.945 0 0 1-1.156-2.79" style="fill:#a1d438"/>
                <path data-name="패스 12576" d="m53.255 44.143-9.155 9.01a4.3 4.3 0 0 0-1.283 3.065l9.283-9.285a3.946 3.946 0 0 0 1.155-2.79" style="fill:#6a8e32"/>
                <path data-name="패스 12577" d="m48.449 34.627-4.482 4.334a4.3 4.3 0 0 0-1.283 3.065l4.609-4.609a3.947 3.947 0 0 0 1.156-2.79" style="fill:#6a8e32"/>
                <path data-name="패스 12578" d="m34.491 38.679 7.71 7.562a4.3 4.3 0 0 1 1.283 3.065l-7.837-7.837a3.947 3.947 0 0 1-1.156-2.79" style="fill:#6a8e32"/>
                <path data-name="패스 12579" d="M43.53 17.755c.6-.867 1.3-1 1.807-.644s.64 1.051.043 1.918a4.26 4.26 0 0 1-2.2 1.221 4.263 4.263 0 0 1 .355-2.5" style="fill:#9a3bd1"/>
                <path data-name="패스 12580" d="M42.879 17.755c-.6-.867-1.3-1-1.807-.644s-.64 1.051-.043 1.918a4.26 4.26 0 0 0 2.2 1.221 4.263 4.263 0 0 0-.355-2.5" style="fill:#9a3bd1"/>
                <path data-name="패스 12581" d="M43.557 20.284c.647-.939 1.4-1.079 1.958-.7s.693 1.139.046 2.078a4.612 4.612 0 0 1-2.388 1.323 4.615 4.615 0 0 1 .384-2.7" style="fill:#9a3bd1"/>
                <path data-name="패스 12582" d="M42.851 20.284c-.647-.939-1.4-1.079-1.958-.7s-.693 1.139-.046 2.078a4.612 4.612 0 0 0 2.388 1.323 4.615 4.615 0 0 0-.384-2.7" style="fill:#9a3bd1"/>
                <path data-name="패스 12583" d="M43.592 23.09c.713-1.035 1.548-1.189 2.158-.769s.764 1.255.051 2.29a5.093 5.093 0 0 1-2.632 1.458 5.094 5.094 0 0 1 .424-2.979" style="fill:#9a3bd1"/>
                <path data-name="패스 12584" d="M42.815 23.09c-.713-1.035-1.548-1.189-2.158-.769s-.764 1.255-.051 2.29a5.093 5.093 0 0 0 2.632 1.458 5.094 5.094 0 0 0-.424-2.979" style="fill:#9a3bd1"/>
                <path data-name="패스 12585" d="M43.623 26.254c.77-1.118 1.672-1.284 2.33-.831s.825 1.355.055 2.473a5.5 5.5 0 0 1-2.843 1.575 5.5 5.5 0 0 1 .458-3.218" style="fill:#9a3bd1"/>
                <path data-name="패스 12586" d="M42.782 26.254c-.77-1.118-1.672-1.284-2.33-.831s-.825 1.355-.055 2.473a5.5 5.5 0 0 0 2.843 1.575 5.5 5.5 0 0 0-.458-3.218" style="fill:#9a3bd1"/>
                <path data-name="패스 12587" d="m43.018 35.249-1.3-1.3a.437.437 0 0 1 .309-.746h2.606a.437.437 0 0 1 .309.746l-1.3 1.3a.436.436 0 0 1-.618 0" style="fill:#a1d438"/>
                <path data-name="패스 12588" d="M43.7 29.587c.916-1.33 1.988-1.528 2.772-.988s.981 1.612.065 2.942-3.381 1.873-3.381 1.873-.371-2.5.544-3.827" style="fill:#9a3bd1"/>
                <path data-name="패스 12589" d="M42.7 29.587c-.916-1.33-1.988-1.528-2.772-.988s-.981 1.612-.065 2.942 3.381 1.873 3.381 1.873.371-2.5-.544-3.827" style="fill:#9a3bd1"/>
                <path data-name="패스 12590" d="m43.018 30.8-1.3-1.3a.437.437 0 0 1 .309-.746h2.606a.437.437 0 0 1 .309.746l-1.3 1.3a.436.436 0 0 1-.618 0" style="fill:#a1d438"/>
                <path data-name="패스 12591" d="m43.018 27.424-1.3-1.3a.437.437 0 0 1 .309-.746h2.606a.437.437 0 0 1 .309.746l-1.3 1.3a.436.436 0 0 1-.618 0" style="fill:#a1d438"/>
                <path data-name="패스 12592" d="m43.018 24.093-1.3-1.3a.437.437 0 0 1 .309-.746h2.606a.437.437 0 0 1 .309.746l-1.3 1.3a.436.436 0 0 1-.618 0" style="fill:#a1d438"/>
                <path data-name="패스 12593" d="m43.018 21.485-1.3-1.3a.437.437 0 0 1 .309-.746h2.606a.437.437 0 0 1 .309.746l-1.3 1.3a.436.436 0 0 1-.618 0" style="fill:#a1d438"/>
                <path data-name="패스 12594" d="m43.018 18.187-1.3-1.3a.437.437 0 0 1 .309-.746h2.606a.437.437 0 0 1 .309.746l-1.3 1.3a.436.436 0 0 1-.618 0" style="fill:#a1d438"/>
                <path data-name="사각형 2733" transform="translate(42.815 15.64)" style="fill:#a1d438" d="M0 0h.978v44.734H0z"/>
                <path data-name="패스 12595" d="M40.765 30.52c-1.5-.608-2.5-.184-2.859.7s.066 1.886 1.562 2.494 3.854-.292 3.854-.292-1.062-2.291-2.557-2.9" style="fill:#d8a0f2"/>
                <path data-name="패스 12596" d="M45.642 30.52c1.5-.608 2.5-.184 2.859.7s-.066 1.886-1.562 2.494-3.854-.292-3.854-.292 1.062-2.291 2.557-2.9" style="fill:#d8a0f2"/>
                <path data-name="패스 12597" d="M41.154 27.039c-1.257-.511-2.1-.155-2.4.586s.056 1.586 1.313 2.1a5.5 5.5 0 0 0 3.241-.246 5.5 5.5 0 0 0-2.15-2.437" style="fill:#d8a0f2"/>
                <path data-name="패스 12598" d="M45.252 27.039c1.257-.511 2.1-.155 2.4.586s-.056 1.586-1.313 2.1a5.5 5.5 0 0 1-3.241-.246 5.5 5.5 0 0 1 2.15-2.437" style="fill:#d8a0f2"/>
                <path data-name="패스 12599" d="M41.306 23.816c-1.164-.473-1.946-.143-2.225.543s.051 1.468 1.216 1.941a5.087 5.087 0 0 0 3-.228 5.087 5.087 0 0 0-1.991-2.257" style="fill:#d8a0f2"/>
                <path data-name="패스 12600" d="M45.1 23.816c1.164-.473 1.947-.143 2.225.543s-.051 1.468-1.216 1.941a5.087 5.087 0 0 1-3-.228 5.087 5.087 0 0 1 1.991-2.257" style="fill:#d8a0f2"/>
                <path data-name="패스 12601" d="M41.482 20.943c-1.056-.429-1.766-.13-2.019.492s.047 1.332 1.1 1.761a4.615 4.615 0 0 0 2.722-.207 4.615 4.615 0 0 0-1.806-2.047" style="fill:#d8a0f2"/>
                <path data-name="패스 12602" d="M44.926 20.943c1.056-.429 1.766-.13 2.019.492s-.047 1.332-1.1 1.761a4.615 4.615 0 0 1-2.722-.207 4.615 4.615 0 0 1 1.806-2.047" style="fill:#d8a0f2"/>
                <path data-name="패스 12603" d="M41.615 18.364c-.975-.4-1.63-.12-1.863.454s.043 1.229 1.018 1.626a4.259 4.259 0 0 0 2.513-.191 4.257 4.257 0 0 0-1.667-1.89" style="fill:#d8a0f2"/>
                <path data-name="패스 12604" d="M44.793 18.364c.975-.4 1.63-.12 1.864.454s-.043 1.229-1.018 1.626a4.259 4.259 0 0 1-2.513-.191 4.257 4.257 0 0 1 1.667-1.89" style="fill:#d8a0f2"/>
                <path data-name="패스 12605" d="M43.506 14.834c.554-.8 1.2-.924 1.676-.6s.593.975.039 1.779a3.955 3.955 0 0 1-2.044 1.133 3.957 3.957 0 0 1 .329-2.314" style="fill:#9a3bd1"/>
                <path data-name="패스 12606" d="M42.9 14.834c-.554-.8-1.2-.924-1.676-.6s-.593.975-.039 1.779a3.955 3.955 0 0 0 2.044 1.133 3.957 3.957 0 0 0-.329-2.314" style="fill:#9a3bd1"/>
                <path data-name="패스 12607" d="M41.73 15.4c-.9-.368-1.512-.111-1.729.421s.04 1.14.944 1.508a3.953 3.953 0 0 0 2.331-.177A3.954 3.954 0 0 0 41.73 15.4" style="fill:#d8a0f2"/>
                <path data-name="패스 12608" d="M44.678 15.4c.9-.368 1.512-.111 1.729.421s-.04 1.14-.944 1.508a3.953 3.953 0 0 1-2.331-.177 3.954 3.954 0 0 1 1.546-1.752" style="fill:#d8a0f2"/>
                <path data-name="패스 12609" d="M42.051 14.387c-.222-.693 0-1.13.411-1.261s.846.094 1.068.787a2.951 2.951 0 0 1-.263 1.723s-.995-.559-1.216-1.249" style="fill:#d8a0f2"/>
                <path data-name="패스 12610" d="M44.485 14.387c.222-.693 0-1.13-.411-1.261s-.846.094-1.068.787a2.951 2.951 0 0 0 .263 1.723s.993-.556 1.215-1.249" style="fill:#d8a0f2"/>
                <path data-name="패스 12611" d="m37.193 36.019 5.368 5.221a4.3 4.3 0 0 1 1.283 3.065l-5.5-5.5a3.947 3.947 0 0 1-1.156-2.79" style="fill:#a1d438"/>
                <path data-name="패스 12612" d="m51.805 38.675-7.7 7.553a4.3 4.3 0 0 0-1.283 3.065l7.828-7.828a3.946 3.946 0 0 0 1.155-2.79" style="fill:#a1d438"/>
                <path data-name="패스 12613" d="m31.972 43.9 10.347 10.2a4.3 4.3 0 0 1 1.281 3.07L33.128 46.7a3.945 3.945 0 0 1-1.156-2.79" style="fill:#a1d438"/>
                <path data-name="패스 12614" d="m63.441 44.143-9.157 9.01A4.3 4.3 0 0 0 53 56.218l9.285-9.285a3.946 3.946 0 0 0 1.155-2.79" style="fill:#6a8e32"/>
                <path data-name="패스 12615" d="m58.635 34.627-4.482 4.334a4.3 4.3 0 0 0-1.282 3.065l4.609-4.609a3.947 3.947 0 0 0 1.156-2.79" style="fill:#6a8e32"/>
                <path data-name="패스 12616" d="m44.677 38.679 7.71 7.562a4.3 4.3 0 0 1 1.283 3.065l-7.839-7.837a3.949 3.949 0 0 1-1.154-2.79" style="fill:#6a8e32"/>
                <path data-name="패스 12617" d="M53.716 17.755c.6-.867 1.3-1 1.807-.644s.639 1.051.043 1.918a4.26 4.26 0 0 1-2.2 1.221 4.263 4.263 0 0 1 .355-2.5" style="fill:#9a3bd1"/>
                <path data-name="패스 12618" d="M53.065 17.755c-.6-.867-1.3-1-1.807-.644s-.64 1.051-.043 1.918a4.26 4.26 0 0 0 2.2 1.221 4.263 4.263 0 0 0-.355-2.5" style="fill:#9a3bd1"/>
                <path data-name="패스 12619" d="M53.743 20.284c.647-.939 1.4-1.079 1.958-.7s.693 1.139.046 2.078a4.612 4.612 0 0 1-2.388 1.323 4.615 4.615 0 0 1 .384-2.7" style="fill:#9a3bd1"/>
                <path data-name="패스 12620" d="M53.037 20.284c-.647-.939-1.4-1.079-1.958-.7s-.693 1.139-.046 2.078a4.612 4.612 0 0 0 2.388 1.323 4.615 4.615 0 0 0-.384-2.7" style="fill:#9a3bd1"/>
                <path data-name="패스 12621" d="M53.779 23.09c.713-1.035 1.548-1.189 2.157-.769s.764 1.255.051 2.29a5.1 5.1 0 0 1-2.633 1.458 5.094 5.094 0 0 1 .424-2.979" style="fill:#9a3bd1"/>
                <path data-name="패스 12622" d="M53 23.09c-.713-1.035-1.548-1.189-2.158-.769s-.764 1.255-.051 2.29a5.093 5.093 0 0 0 2.632 1.458A5.094 5.094 0 0 0 53 23.09" style="fill:#9a3bd1"/>
                <path data-name="패스 12623" d="M53.81 26.254c.77-1.118 1.671-1.284 2.33-.831s.825 1.355.055 2.473a5.5 5.5 0 0 1-2.843 1.575 5.5 5.5 0 0 1 .458-3.218" style="fill:#9a3bd1"/>
                <path data-name="패스 12624" d="M52.97 26.254c-.77-1.118-1.672-1.284-2.33-.831s-.825 1.355-.055 2.473a5.5 5.5 0 0 0 2.843 1.575 5.5 5.5 0 0 0-.458-3.218" style="fill:#9a3bd1"/>
                <path data-name="패스 12625" d="m53.2 35.249-1.3-1.3a.437.437 0 0 1 .309-.746h2.606a.437.437 0 0 1 .309.746l-1.3 1.3a.436.436 0 0 1-.618 0" style="fill:#a1d438"/>
                <path data-name="패스 12626" d="M53.889 29.587c.916-1.33 1.988-1.528 2.772-.988s.981 1.612.065 2.942-3.381 1.873-3.381 1.873-.371-2.5.544-3.827" style="fill:#9a3bd1"/>
                <path data-name="패스 12627" d="M52.89 29.587c-.916-1.33-1.988-1.528-2.772-.988s-.981 1.612-.065 2.942 3.381 1.873 3.381 1.873.371-2.5-.544-3.827" style="fill:#9a3bd1"/>
                <path data-name="패스 12628" d="m53.2 30.8-1.3-1.3a.437.437 0 0 1 .309-.746h2.606a.437.437 0 0 1 .309.746l-1.3 1.3a.436.436 0 0 1-.618 0" style="fill:#a1d438"/>
                <path data-name="패스 12629" d="m53.2 27.424-1.3-1.3a.437.437 0 0 1 .309-.746h2.606a.437.437 0 0 1 .309.746l-1.3 1.3a.436.436 0 0 1-.618 0" style="fill:#a1d438"/>
                <path data-name="패스 12630" d="m53.2 24.093-1.3-1.3a.437.437 0 0 1 .309-.746h2.606a.437.437 0 0 1 .309.746l-1.3 1.3a.436.436 0 0 1-.618 0" style="fill:#a1d438"/>
                <path data-name="패스 12631" d="m53.2 21.485-1.3-1.3a.437.437 0 0 1 .309-.746h2.606a.437.437 0 0 1 .309.746l-1.3 1.3a.436.436 0 0 1-.618 0" style="fill:#a1d438"/>
                <path data-name="패스 12632" d="m53.2 18.187-1.3-1.3a.437.437 0 0 1 .309-.746h2.606a.437.437 0 0 1 .309.746l-1.3 1.3a.436.436 0 0 1-.618 0" style="fill:#a1d438"/>
                <path data-name="사각형 2734" transform="translate(53.001 15.64)" style="fill:#a1d438" d="M0 0h.978v44.734H0z"/>
                <path data-name="패스 12633" d="M50.952 30.52c-1.5-.608-2.5-.184-2.859.7s.066 1.886 1.562 2.494 3.854-.292 3.854-.292-1.062-2.291-2.557-2.9" style="fill:#d8a0f2"/>
                <path data-name="패스 12634" d="M55.827 30.52c1.5-.608 2.5-.184 2.859.7s-.066 1.886-1.562 2.494-3.854-.292-3.854-.292 1.062-2.291 2.557-2.9" style="fill:#d8a0f2"/>
                <path data-name="패스 12635" d="M51.34 27.039c-1.257-.511-2.1-.155-2.4.586s.056 1.586 1.313 2.1a5.5 5.5 0 0 0 3.241-.246 5.5 5.5 0 0 0-2.15-2.437" style="fill:#d8a0f2"/>
                <path data-name="패스 12636" d="M55.435 27.039c1.257-.511 2.1-.155 2.4.586s-.056 1.586-1.313 2.1a5.5 5.5 0 0 1-3.241-.246 5.5 5.5 0 0 1 2.15-2.437" style="fill:#d8a0f2"/>
                <path data-name="패스 12637" d="M51.495 23.816c-1.164-.473-1.947-.143-2.225.543s.051 1.468 1.216 1.941a5.087 5.087 0 0 0 3-.228 5.087 5.087 0 0 0-1.991-2.257" style="fill:#d8a0f2"/>
                <path data-name="패스 12638" d="M55.288 23.816c1.164-.473 1.947-.143 2.225.543s-.051 1.468-1.213 1.941a5.087 5.087 0 0 1-3-.228 5.087 5.087 0 0 1 1.991-2.257" style="fill:#d8a0f2"/>
                <path data-name="패스 12639" d="M51.668 20.943c-1.056-.429-1.766-.13-2.019.492s.047 1.332 1.1 1.761a4.615 4.615 0 0 0 2.722-.207 4.615 4.615 0 0 0-1.806-2.047" style="fill:#d8a0f2"/>
                <path data-name="패스 12640" d="M55.111 20.943c1.056-.429 1.766-.13 2.019.492s-.047 1.332-1.1 1.761a4.615 4.615 0 0 1-2.722-.207 4.615 4.615 0 0 1 1.806-2.047" style="fill:#d8a0f2"/>
                <path data-name="패스 12641" d="M51.8 18.364c-.975-.4-1.63-.12-1.863.454s.043 1.229 1.018 1.626a4.264 4.264 0 0 0 2.512-.191 4.257 4.257 0 0 0-1.667-1.89" style="fill:#d8a0f2"/>
                <path data-name="패스 12642" d="M54.979 18.364c.975-.4 1.63-.12 1.863.454s-.043 1.229-1.018 1.626a4.259 4.259 0 0 1-2.513-.191 4.257 4.257 0 0 1 1.667-1.89" style="fill:#d8a0f2"/>
                <path data-name="패스 12643" d="M53.692 14.834c.554-.8 1.2-.924 1.676-.6s.593.975.039 1.779a3.955 3.955 0 0 1-2.044 1.133 3.957 3.957 0 0 1 .329-2.314" style="fill:#9a3bd1"/>
                <path data-name="패스 12644" d="M53.088 14.834c-.554-.8-1.2-.924-1.676-.6s-.593.975-.039 1.779a3.957 3.957 0 0 0 2.045 1.133 3.957 3.957 0 0 0-.329-2.314" style="fill:#9a3bd1"/>
                <path data-name="패스 12645" d="M51.916 15.4c-.9-.368-1.512-.111-1.729.421s.04 1.14.944 1.508a3.953 3.953 0 0 0 2.331-.177 3.954 3.954 0 0 0-1.546-1.752" style="fill:#d8a0f2"/>
                <path data-name="패스 12646" d="M54.864 15.4c.9-.368 1.512-.111 1.729.421s-.04 1.14-.944 1.508a3.953 3.953 0 0 1-2.331-.177 3.954 3.954 0 0 1 1.546-1.752" style="fill:#d8a0f2"/>
                <path data-name="패스 12647" d="M52.238 14.387c-.222-.693 0-1.13.411-1.261s.845.094 1.067.787a2.951 2.951 0 0 1-.263 1.723s-.993-.556-1.215-1.249" style="fill:#d8a0f2"/>
                <path data-name="패스 12648" d="M54.671 14.387c.222-.693 0-1.13-.411-1.261s-.846.094-1.068.787a2.951 2.951 0 0 0 .263 1.723s.993-.556 1.215-1.249" style="fill:#d8a0f2"/>
                <path data-name="패스 12649" d="m47.379 36.019 5.368 5.221a4.3 4.3 0 0 1 1.283 3.065l-5.5-5.5a3.947 3.947 0 0 1-1.156-2.79" style="fill:#a1d438"/>
                <path data-name="패스 12650" d="m61.991 38.675-7.7 7.553a4.3 4.3 0 0 0-1.283 3.065l7.828-7.828a3.946 3.946 0 0 0 1.155-2.79" style="fill:#a1d438"/>
                <path data-name="패스 12651" d="m42.158 43.9 10.347 10.2a4.3 4.3 0 0 1 1.283 3.065L43.314 46.7a3.945 3.945 0 0 1-1.156-2.79" style="fill:#a1d438"/>
                <path data-name="패스 12652" d="m72.632 44.143-9.157 9.01a4.3 4.3 0 0 0-1.283 3.065l9.285-9.285a3.946 3.946 0 0 0 1.155-2.79" style="fill:#6a8e32"/>
                <path data-name="패스 12653" d="m67.826 34.627-4.482 4.334a4.3 4.3 0 0 0-1.283 3.065l4.609-4.609a3.945 3.945 0 0 0 1.156-2.79" style="fill:#6a8e32"/>
                <path data-name="패스 12654" d="m53.867 38.679 7.71 7.562a4.3 4.3 0 0 1 1.283 3.065l-7.837-7.837a3.947 3.947 0 0 1-1.156-2.79" style="fill:#6a8e32"/>
                <path data-name="패스 12655" d="M62.906 17.755c.6-.867 1.3-1 1.807-.644s.639 1.051.043 1.918a4.26 4.26 0 0 1-2.2 1.221 4.263 4.263 0 0 1 .355-2.5" style="fill:#9a3bd1"/>
                <path data-name="패스 12656" d="M62.255 17.755c-.6-.867-1.3-1-1.807-.644s-.639 1.051-.043 1.918a4.26 4.26 0 0 0 2.2 1.221 4.263 4.263 0 0 0-.355-2.5" style="fill:#9a3bd1"/>
                <path data-name="패스 12657" d="M62.934 20.284c.647-.939 1.4-1.079 1.958-.7s.693 1.139.046 2.078a4.612 4.612 0 0 1-2.388 1.323 4.615 4.615 0 0 1 .384-2.7" style="fill:#9a3bd1"/>
                <path data-name="패스 12658" d="M62.227 20.284c-.647-.939-1.4-1.079-1.958-.7s-.693 1.139-.046 2.078a4.612 4.612 0 0 0 2.388 1.323 4.615 4.615 0 0 0-.384-2.7" style="fill:#9a3bd1"/>
                <path data-name="패스 12659" d="M62.97 23.09c.713-1.035 1.548-1.189 2.158-.769s.764 1.255.051 2.29a5.093 5.093 0 0 1-2.632 1.458 5.094 5.094 0 0 1 .424-2.979" style="fill:#9a3bd1"/>
                <path data-name="패스 12660" d="M62.191 23.09c-.713-1.035-1.548-1.189-2.158-.769s-.764 1.255-.051 2.29a5.093 5.093 0 0 0 2.632 1.458 5.094 5.094 0 0 0-.424-2.979" style="fill:#9a3bd1"/>
                <path data-name="패스 12661" d="M63 26.254c.77-1.118 1.672-1.284 2.33-.831s.825 1.355.055 2.473a5.5 5.5 0 0 1-2.843 1.575A5.5 5.5 0 0 1 63 26.253" style="fill:#9a3bd1"/>
                <path data-name="패스 12662" d="M62.16 26.254c-.77-1.118-1.672-1.284-2.33-.831s-.825 1.355-.055 2.473a5.5 5.5 0 0 0 2.843 1.575 5.5 5.5 0 0 0-.458-3.218" style="fill:#9a3bd1"/>
                <path data-name="패스 12663" d="m62.4 35.249-1.3-1.3a.437.437 0 0 1 .3-.749h2.61a.437.437 0 0 1 .309.746l-1.3 1.3a.436.436 0 0 1-.618 0" style="fill:#a1d438"/>
                <path data-name="패스 12664" d="M63.08 29.587c.916-1.33 1.988-1.528 2.772-.988s.981 1.612.065 2.942-3.381 1.873-3.381 1.873-.371-2.5.544-3.827" style="fill:#9a3bd1"/>
                <path data-name="패스 12665" d="M62.077 29.587c-.916-1.33-1.988-1.528-2.772-.988s-.981 1.612-.065 2.942 3.381 1.873 3.381 1.873.371-2.5-.544-3.827" style="fill:#9a3bd1"/>
                <path data-name="패스 12666" d="m62.4 30.8-1.3-1.3a.437.437 0 0 1 .309-.746h2.601a.437.437 0 0 1 .309.746l-1.3 1.3a.436.436 0 0 1-.618 0" style="fill:#a1d438"/>
                <path data-name="패스 12667" d="m62.4 27.424-1.3-1.3a.437.437 0 0 1 .309-.746h2.601a.437.437 0 0 1 .309.746l-1.3 1.3a.436.436 0 0 1-.618 0" style="fill:#a1d438"/>
                <path data-name="패스 12668" d="m62.4 24.093-1.3-1.3a.437.437 0 0 1 .309-.746h2.601a.437.437 0 0 1 .309.746l-1.3 1.3a.436.436 0 0 1-.618 0" style="fill:#a1d438"/>
                <path data-name="패스 12669" d="m62.4 21.485-1.3-1.3a.437.437 0 0 1 .309-.746h2.601a.437.437 0 0 1 .309.746l-1.3 1.3a.436.436 0 0 1-.618 0" style="fill:#a1d438"/>
                <path data-name="패스 12670" d="m62.4 18.187-1.3-1.3a.437.437 0 0 1 .309-.746h2.601a.437.437 0 0 1 .309.746l-1.3 1.3a.436.436 0 0 1-.618 0" style="fill:#a1d438"/>
                <path data-name="사각형 2735" transform="translate(62.192 15.64)" style="fill:#a1d438" d="M0 0h.978v44.734H0z"/>
                <path data-name="패스 12671" d="M60.142 30.52c-1.5-.608-2.5-.184-2.859.7s.066 1.886 1.562 2.494 3.854-.292 3.854-.292-1.062-2.291-2.557-2.9" style="fill:#d8a0f2"/>
                <path data-name="패스 12672" d="M65.022 30.52c1.5-.608 2.5-.184 2.859.7s-.066 1.886-1.562 2.494-3.854-.292-3.854-.292 1.062-2.291 2.557-2.9" style="fill:#d8a0f2"/>
                <path data-name="패스 12673" d="M60.53 27.039c-1.257-.511-2.1-.155-2.4.586s.056 1.586 1.313 2.1a5.5 5.5 0 0 0 3.241-.246 5.5 5.5 0 0 0-2.15-2.437" style="fill:#d8a0f2"/>
                <path data-name="패스 12674" d="M64.63 27.039c1.257-.511 2.1-.155 2.4.586s-.056 1.586-1.313 2.1a5.5 5.5 0 0 1-3.241-.246 5.5 5.5 0 0 1 2.15-2.437" style="fill:#d8a0f2"/>
                <path data-name="패스 12675" d="M60.683 23.816c-1.164-.473-1.947-.143-2.225.543s.051 1.468 1.216 1.941a5.087 5.087 0 0 0 3-.228 5.087 5.087 0 0 0-1.991-2.257" style="fill:#d8a0f2"/>
                <path data-name="패스 12676" d="M64.478 23.816c1.164-.473 1.946-.143 2.225.543s-.051 1.468-1.216 1.941a5.087 5.087 0 0 1-3-.228 5.087 5.087 0 0 1 1.991-2.257" style="fill:#d8a0f2"/>
                <path data-name="패스 12677" d="M60.858 20.943c-1.056-.429-1.766-.13-2.019.492s.047 1.332 1.1 1.761a4.615 4.615 0 0 0 2.722-.207 4.615 4.615 0 0 0-1.806-2.047" style="fill:#d8a0f2"/>
                <path data-name="패스 12678" d="M64.3 20.943c1.056-.429 1.766-.13 2.019.492s-.047 1.332-1.1 1.761a4.615 4.615 0 0 1-2.722-.207 4.615 4.615 0 0 1 1.806-2.047" style="fill:#d8a0f2"/>
                <path data-name="패스 12679" d="M60.991 18.364c-.975-.4-1.63-.12-1.863.454s.043 1.229 1.018 1.626a4.259 4.259 0 0 0 2.513-.191 4.257 4.257 0 0 0-1.667-1.89" style="fill:#d8a0f2"/>
                <path data-name="패스 12680" d="M64.17 18.364c.975-.4 1.63-.12 1.863.454s-.043 1.229-1.018 1.626a4.259 4.259 0 0 1-2.513-.191 4.257 4.257 0 0 1 1.667-1.89" style="fill:#d8a0f2"/>
                <path data-name="패스 12681" d="M62.882 14.834c.554-.8 1.2-.924 1.676-.6s.593.975.039 1.779a3.955 3.955 0 0 1-2.044 1.133 3.957 3.957 0 0 1 .329-2.314" style="fill:#9a3bd1"/>
                <path data-name="패스 12682" d="M62.279 14.834c-.554-.8-1.2-.924-1.676-.6s-.593.975-.039 1.779a3.957 3.957 0 0 0 2.045 1.133 3.957 3.957 0 0 0-.329-2.314" style="fill:#9a3bd1"/>
                <path data-name="패스 12683" d="M61.1 15.4c-.9-.368-1.512-.111-1.729.421s.04 1.14.944 1.508a3.953 3.953 0 0 0 2.331-.177A3.954 3.954 0 0 0 61.1 15.4" style="fill:#d8a0f2"/>
                <path data-name="패스 12684" d="M64.054 15.4c.9-.368 1.512-.111 1.729.421s-.04 1.14-.944 1.508a3.953 3.953 0 0 1-2.331-.177 3.954 3.954 0 0 1 1.546-1.752" style="fill:#d8a0f2"/>
                <path data-name="패스 12685" d="M61.428 14.387c-.222-.693 0-1.13.411-1.261s.846.094 1.068.787a2.951 2.951 0 0 1-.263 1.723s-.993-.556-1.215-1.249" style="fill:#d8a0f2"/>
                <path data-name="패스 12686" d="M63.862 14.387c.222-.693 0-1.13-.411-1.261s-.846.094-1.068.787a2.951 2.951 0 0 0 .263 1.723s.993-.556 1.215-1.249" style="fill:#d8a0f2"/>
                <path data-name="패스 12687" d="m56.569 36.019 5.372 5.223a4.3 4.3 0 0 1 1.283 3.065l-5.5-5.5a3.947 3.947 0 0 1-1.156-2.79" style="fill:#a1d438"/>
                <path data-name="패스 12688" d="m71.181 38.675-7.7 7.553a4.3 4.3 0 0 0-1.281 3.065l7.828-7.828a3.946 3.946 0 0 0 1.155-2.79" style="fill:#a1d438"/>
                <path data-name="패스 12689" d="M51.349 43.9 61.7 54.1a4.3 4.3 0 0 1 1.283 3.065L52.505 46.7a3.945 3.945 0 0 1-1.156-2.79" style="fill:#a1d438"/>
                <path data-name="패스 12690" d="M0 58.589v11.683A2.73 2.73 0 0 0 2.73 73h31.13v-1.536h1.592V73h1.539v-1.536h1.593V73h1.539v-1.536h1.592V73h30.558A2.73 2.73 0 0 0 75 70.272V58.589z" style="fill:#fff"/>
                <path data-name="패스 12691" d="M8.658 19.577a1.314 1.314 0 0 1-1-1.049c-.023-.165.232-.435.259-.71.112-1.16.411-2.867 1.4-1.77a9.551 9.551 0 0 1 1.728 3.34 5.259 5.259 0 0 0 .241-2.371 1.842 1.842 0 0 0-.406-1.107.68.68 0 0 0-.708-.021l-.031-.066a.757.757 0 0 1 .784.029h.005a1.911 1.911 0 0 1 .424 1.151 5.366 5.366 0 0 1-.278 2.5c.018.062.027.1.027.1l.094-.03A5.374 5.374 0 0 1 13.165 18a1.908 1.908 0 0 1 1.2-.26h.011a.752.752 0 0 1 .445.644l-.072.008a.68.68 0 0 0-.4-.584 1.831 1.831 0 0 0-1.149.253 5.26 5.26 0 0 0-1.872 1.478 9.539 9.539 0 0 1 3.745-.336c1.457.243.177 1.413-.743 2.13-.218.171-.308.531-.46.6a1.314 1.314 0 0 1-1.422-.28s.637 2.147-.676 2.075-1 .232-1.374.21-.61-1.929-.61-1.929-1.735.828-1.955.522.2-.2-.561-1.272 1.387-1.684 1.387-1.684" style="fill:#1f5a2c"/>
                <path data-name="패스 12692" d="M7.912 18.188a1.312 1.312 0 0 1-1-1.049c-.023-.165.232-.435.259-.71.112-1.16.411-2.867 1.4-1.77A9.551 9.551 0 0 1 10.3 18a5.258 5.258 0 0 0 .241-2.371 1.842 1.842 0 0 0-.406-1.107.68.68 0 0 0-.708-.021L9.4 14.43a.757.757 0 0 1 .784.029h.005a1.911 1.911 0 0 1 .424 1.151 5.366 5.366 0 0 1-.278 2.5c.018.062.027.1.027.1l.094-.03a5.374 5.374 0 0 1 1.964-1.58 1.908 1.908 0 0 1 1.2-.26h.011a.752.752 0 0 1 .445.644L14 17a.68.68 0 0 0-.4-.584 1.831 1.831 0 0 0-1.149.253 5.26 5.26 0 0 0-1.872 1.478 9.539 9.539 0 0 1 3.745-.336c1.457.243.177 1.413-.743 2.13-.218.171-.308.531-.46.6a1.314 1.314 0 0 1-1.422-.28s.637 2.147-.676 2.075-1 .232-1.374.21-.61-1.929-.61-1.929-1.735.828-1.955.522.2-.2-.561-1.272 1.387-1.684 1.387-1.684" style="fill:#fff"/>
                <path data-name="패스 12693" d="M67.082 14.769a1.925 1.925 0 0 0 1.463-1.536c.032-.242-.341-.637-.382-1.04-.162-1.7-.6-4.2-2.045-2.59a13.991 13.991 0 0 0-2.53 4.889 7.687 7.687 0 0 1-.353-3.471v-.005a2.689 2.689 0 0 1 .593-1.62 1 1 0 0 1 1.036-.032l.046-.1a1.106 1.106 0 0 0-1.147.043h-.007l-.006.006A2.8 2.8 0 0 0 63.128 11a7.857 7.857 0 0 0 .407 3.664l-.039.141-.138-.043a7.87 7.87 0 0 0-2.873-2.311 2.782 2.782 0 0 0-1.755-.38h-.009l-.007.005a1.1 1.1 0 0 0-.654.942l.107.013a.992.992 0 0 1 .582-.856 2.687 2.687 0 0 1 1.684.369 7.69 7.69 0 0 1 2.739 2.165 13.943 13.943 0 0 0-5.482-.493c-2.132.357-.259 2.068 1.088 3.119.319.25.451.777.673.881a1.925 1.925 0 0 0 2.082-.41s-.933 3.143.989 3.038 1.46.338 2.012.306.893-2.823.893-2.823 2.539 1.212 2.861.764-.3-.3.822-1.862-2.031-2.466-2.031-2.466" style="fill:#1f5a2c"/>
                <path data-name="패스 12694" d="M68.174 12.735a1.925 1.925 0 0 0 1.463-1.535c.032-.242-.341-.637-.382-1.04-.162-1.7-.6-4.2-2.045-2.59a13.992 13.992 0 0 0-2.53 4.889 7.687 7.687 0 0 1-.353-3.471v-.006a2.689 2.689 0 0 1 .593-1.62 1 1 0 0 1 1.036-.032l.046-.1a1.106 1.106 0 0 0-1.147.043h-.007l-.006.006a2.8 2.8 0 0 0-.622 1.691 7.857 7.857 0 0 0 .407 3.664l-.039.141-.138-.043a7.87 7.87 0 0 0-2.873-2.311 2.782 2.782 0 0 0-1.755-.38h-.016a1.1 1.1 0 0 0-.654.942l.107.013a.992.992 0 0 1 .582-.856 2.687 2.687 0 0 1 1.684.369 7.69 7.69 0 0 1 2.739 2.165 13.943 13.943 0 0 0-5.482-.493c-2.132.357-.259 2.068 1.088 3.119.319.25.451.777.673.881a1.925 1.925 0 0 0 2.082-.41s-.933 3.143.989 3.038 1.46.338 2.012.306.893-2.823.893-2.823 2.539 1.212 2.861.764-.3-.3.822-1.862-2.031-2.466-2.031-2.466" style="fill:#a3d0ff"/>
                <path data-name="패스 12695" d="M50.7 10.07a1.4 1.4 0 0 0 1.065-1.119c.024-.176-.248-.463-.278-.757-.117-1.236-.436-3.056-1.487-1.886a10.183 10.183 0 0 0-1.843 3.561 5.62 5.62 0 0 1-.257-2.528 1.966 1.966 0 0 1 .432-1.18.725.725 0 0 1 .754-.023l.034-.072a.8.8 0 0 0-.835.032h-.006a2.042 2.042 0 0 0-.452 1.227 5.715 5.715 0 0 0 .3 2.669l-.028.1-.1-.031A5.72 5.72 0 0 0 45.9 8.385a2.026 2.026 0 0 0-1.279-.277h-.011a.8.8 0 0 0-.476.686l.077.009a.725.725 0 0 1 .425-.623 1.952 1.952 0 0 1 1.226.269 5.6 5.6 0 0 1 1.995 1.576 10.172 10.172 0 0 0-3.993-.359c-1.553.26-.188 1.507.793 2.272.232.182.328.566.49.641a1.4 1.4 0 0 0 1.516-.3s-.679 2.288.72 2.212 1.064.246 1.466.223.65-2.056.65-2.056 1.849.883 2.083.557-.217-.217.6-1.356-1.479-1.8-1.479-1.8" style="fill:#1f5a2c"/>
                <path data-name="패스 12696" d="M51.5 8.59a1.4 1.4 0 0 0 1.065-1.119c.024-.176-.248-.463-.278-.757-.118-1.236-.437-3.056-1.489-1.886a10.183 10.183 0 0 0-1.843 3.561 5.62 5.62 0 0 1-.257-2.528 1.966 1.966 0 0 1 .432-1.18.725.725 0 0 1 .754-.023l.034-.072a.8.8 0 0 0-.835.032h-.006a2.042 2.042 0 0 0-.452 1.227 5.715 5.715 0 0 0 .3 2.669l-.028.1-.1-.031A5.72 5.72 0 0 0 46.705 6.9a2.026 2.026 0 0 0-1.279-.277h-.011a.8.8 0 0 0-.476.686l.061.018a.725.725 0 0 1 .425-.623 1.952 1.952 0 0 1 1.226.269 5.6 5.6 0 0 1 2 1.576 10.172 10.172 0 0 0-3.993-.359c-1.553.26-.188 1.507.793 2.272.232.182.328.566.49.641a1.4 1.4 0 0 0 1.516-.3s-.679 2.288.72 2.212 1.064.246 1.466.223.65-2.056.65-2.056 1.849.883 2.083.557-.217-.217.6-1.356-1.479-1.8-1.479-1.8" style="fill:#f6c0fc"/>
                <path data-name="패스 12697" d="M24.322 7.716a1.923 1.923 0 0 1-1.461-1.536c-.034-.241.34-.637.38-1.039.162-1.7.6-4.2 2.045-2.591a13.991 13.991 0 0 1 2.53 4.889 7.687 7.687 0 0 0 .353-3.471 2.694 2.694 0 0 0-.594-1.62 1 1 0 0 0-1.036-.032l-.046-.1a1.108 1.108 0 0 1 1.147.044h.007l.006.006a2.8 2.8 0 0 1 .622 1.685 7.86 7.86 0 0 1-.407 3.664l.039.141.138-.043A7.863 7.863 0 0 1 30.92 5.4a2.782 2.782 0 0 1 1.755-.38h.008l.007.005a1.1 1.1 0 0 1 .653.942l-.107.013a.992.992 0 0 0-.584-.855 2.69 2.69 0 0 0-1.683.369 7.7 7.7 0 0 0-2.74 2.165 13.943 13.943 0 0 1 5.482-.493c2.133.357.259 2.069-1.088 3.119-.318.25-.45.777-.673.881a1.926 1.926 0 0 1-2.082-.41s.932 3.144-.989 3.044-1.46.338-2.012.306-.893-2.823-.893-2.823-2.538 1.213-2.861.764.3-.3-.822-1.862 2.031-2.466 2.031-2.466" style="fill:#1f5a2c"/>
                <path data-name="패스 12698" d="M23.23 5.683a1.923 1.923 0 0 1-1.461-1.536c-.034-.241.34-.637.38-1.039.162-1.7.6-4.2 2.045-2.591a13.992 13.992 0 0 1 2.53 4.889 7.687 7.687 0 0 0 .353-3.471A2.694 2.694 0 0 0 26.483.31a1 1 0 0 0-1.036-.032L25.4.181a1.108 1.108 0 0 1 1.147.044h.007l.006.006a2.8 2.8 0 0 1 .622 1.685 7.86 7.86 0 0 1-.407 3.664c.026.091.038.141.038.141l.139-.043a7.863 7.863 0 0 1 2.875-2.313 2.782 2.782 0 0 1 1.755-.38h.015a1.1 1.1 0 0 1 .653.942l-.107.013a.992.992 0 0 0-.584-.855 2.69 2.69 0 0 0-1.683.369 7.7 7.7 0 0 0-2.74 2.165 13.943 13.943 0 0 1 5.482-.493c2.133.357.259 2.069-1.088 3.119-.318.25-.45.777-.673.881a1.926 1.926 0 0 1-2.082-.41s.933 3.143-.989 3.038-1.46.338-2.012.306-.893-2.823-.893-2.823-2.538 1.213-2.861.764.3-.3-.822-1.862 2.032-2.457 2.032-2.457" style="fill:#ffeb00"/>
            </g>
        </g>
    </g>
</svg>
