<svg xmlns="http://www.w3.org/2000/svg" width="100" height="100" viewBox="0 0 100 100">
    <defs>
        <clipPath id="pcrz84z8da">
            <path data-name="사각형 2757" style="fill:none" d="M0 0h49.253v87.877H0z"/>
        </clipPath>
    </defs>
    <g data-name="그룹 2498">
        <path data-name="사각형 2614" style="fill:none" d="M0 0h100v100H0z"/>
        <g data-name="그룹 2441">
            <g data-name="그룹 2440" style="clip-path:url(#pcrz84z8da)" transform="translate(25 12)">
                <path data-name="패스 12848" d="M20.794 55.77a5.1 5.1 0 0 0-4.079-4.275l.251-.967a6.125 6.125 0 0 1 4.8 5.009z" style="fill:#418c48"/>
                <path data-name="패스 12849" d="M14.181 52.089c2.227.511 3.358-.211 3.622-1.362l-8.068-1.85s2.217 2.7 4.446 3.212" style="fill:#418c48"/>
                <path data-name="패스 12850" d="M15.135 47.923c-2.228-.511-5.4.954-5.4.954l8.065 1.851c.264-1.15-.438-2.293-2.667-2.8" style="fill:#91d09f"/>
                <path data-name="패스 12851" d="m28.458 55.77-.973-.233a6.124 6.124 0 0 1 4.8-5.009l.251.967a5.1 5.1 0 0 0-4.077 4.275" style="fill:#418c48"/>
                <path data-name="패스 12852" d="M35.071 52.089c-2.228.511-3.359-.211-3.623-1.362l8.068-1.85s-2.217 2.7-4.445 3.212" style="fill:#418c48"/>
                <path data-name="패스 12853" d="M34.117 47.923c2.227-.511 5.4.954 5.4.954l-8.068 1.851c-.264-1.15.44-2.293 2.667-2.8" style="fill:#91d09f"/>
                <path data-name="패스 12854" d="M18.375 46.4a17.744 17.744 0 0 0-13.34-5.42l-.089-1A18.413 18.413 0 0 1 19.1 45.708z" style="fill:#418c48"/>
                <path data-name="패스 12855" d="M24.625 37.153c-.591 0-2.391 0-5.22-12.753-1.458-6.572-2.558-13.883-2.558-17.007h1c0 3.01 1.113 10.386 2.534 16.791 2.178 9.819 3.8 11.969 4.244 11.969S26.691 34 28.87 24.184c1.421-6.4 2.535-13.78 2.535-16.791h1c0 3.123-1.1 10.435-2.558 17.007-2.829 12.753-4.629 12.753-5.221 12.753" style="fill:#418c48"/>
                <path data-name="패스 12856" d="M24.625 37.153c-7.262 0-11.707-10.735-11.707-16.58h1a21.208 21.208 0 0 0 3 10.051c1.239 2.065 3.888 5.529 7.7 5.529s6.464-3.464 7.7-5.529a21.2 21.2 0 0 0 3-10.051h1c0 5.845-4.445 16.58-11.707 16.58" style="fill:#418c48"/>
                <path data-name="사각형 2753" transform="translate(24.125 16.95)" style="fill:#418c48" d="M0 0h1v52.529H0z"/>
                <path data-name="패스 12857" d="M26.33 11.916c0 1.521-.412 5.034-1.7 5.034s-1.7-3.512-1.7-5.034.776-1.559 1.7-1.559 1.7.038 1.7 1.559" style="fill:#fff"/>
                <path data-name="패스 12858" d="M29.558 14.891c-1.517.122-4.985.814-4.881 2.1s3.638 1.417 5.153 1.3 1.493-.9 1.419-1.823-.175-1.7-1.691-1.573" style="fill:#fff"/>
                <path data-name="패스 12859" d="M19.694 14.891c1.516.122 4.985.814 4.881 2.1s-3.637 1.417-5.154 1.3-1.492-.9-1.418-1.823.174-1.7 1.691-1.573" style="fill:#fff"/>
                <path data-name="패스 12860" d="M28.928 21.161c-.777-1.308-2.923-4.119-4.034-3.46s.327 3.89 1.1 5.2 1.463.945 2.261.472 1.446-.9.67-2.21" style="fill:#fff"/>
                <path data-name="패스 12861" d="M20.4 21.161c.775-1.308 2.921-4.119 4.033-3.46s-.327 3.89-1.1 5.2-1.465.945-2.262.472-1.446-.9-.669-2.21" style="fill:#fff"/>
                <path data-name="패스 12862" d="M25.9 16.951a1.274 1.274 0 1 1-1.274-1.273 1.273 1.273 0 0 1 1.274 1.273" style="fill:#fff"/>
                <path data-name="패스 12863" d="M25.427 16.948a.8.8 0 1 1-.8-.8.8.8 0 0 1 .8.8" style="fill:#fce09c"/>
                <path data-name="패스 12864" d="M14.608 15.539c0 1.522-.412 5.034-1.7 5.034s-1.7-3.512-1.7-5.034.776-1.559 1.7-1.559 1.7.038 1.7 1.559" style="fill:#fff"/>
                <path data-name="패스 12865" d="M17.836 18.514c-1.517.122-4.985.813-4.881 2.1s3.638 1.417 5.153 1.3 1.493-.9 1.419-1.823-.176-1.7-1.691-1.574" style="fill:#fff"/>
                <path data-name="패스 12866" d="M7.973 18.514c1.516.122 4.985.813 4.881 2.1s-3.638 1.417-5.154 1.3-1.492-.9-1.418-1.823.174-1.7 1.691-1.574" style="fill:#fff"/>
                <path data-name="패스 12867" d="M17.208 24.784c-.777-1.309-2.922-4.119-4.034-3.46s.326 3.89 1.1 5.2 1.462.945 2.261.472 1.445-.9.668-2.21" style="fill:#fff"/>
                <path data-name="패스 12868" d="M8.682 24.784c.776-1.309 2.922-4.119 4.033-3.46s-.326 3.89-1.1 5.2-1.463.945-2.262.472-1.445-.9-.67-2.21" style="fill:#fff"/>
                <path data-name="패스 12869" d="M14.177 20.573A1.274 1.274 0 1 1 12.9 19.3a1.274 1.274 0 0 1 1.272 1.276" style="fill:#fff"/>
                <path data-name="패스 12870" d="M13.7 20.573a.8.8 0 1 1-.8-.8.8.8 0 0 1 .8.8" style="fill:#fce09c"/>
                <path data-name="패스 12871" d="M37.924 15.539c0 1.522-.411 5.034-1.7 5.034s-1.7-3.512-1.7-5.034.776-1.559 1.7-1.559 1.7.038 1.7 1.559" style="fill:#fff"/>
                <path data-name="패스 12872" d="M41.153 18.514c-1.517.122-4.986.813-4.882 2.1s3.639 1.417 5.154 1.3 1.492-.9 1.418-1.823-.174-1.7-1.69-1.574" style="fill:#fff"/>
                <path data-name="패스 12873" d="M31.289 18.514c1.516.122 4.985.813 4.882 2.1s-3.638 1.417-5.155 1.3-1.492-.9-1.418-1.823.175-1.7 1.691-1.574" style="fill:#fff"/>
                <path data-name="패스 12874" d="M40.523 24.784c-.776-1.309-2.922-4.119-4.034-3.46s.327 3.89 1.1 5.2 1.463.945 2.261.472 1.446-.9.67-2.21" style="fill:#fff"/>
                <path data-name="패스 12875" d="M32 24.784c.776-1.309 2.922-4.119 4.034-3.46s-.327 3.89-1.1 5.2-1.464.945-2.261.472-1.446-.9-.67-2.21" style="fill:#fff"/>
                <path data-name="패스 12876" d="M37.493 20.573a1.273 1.273 0 1 1-1.272-1.273 1.273 1.273 0 0 1 1.272 1.276" style="fill:#fff"/>
                <path data-name="패스 12877" d="M37.021 20.573a.8.8 0 1 1-.8-.8.8.8 0 0 1 .8.8" style="fill:#fce09c"/>
                <path data-name="패스 12878" d="M18.66 1.558c0 1.521-.411 5.034-1.7 5.034s-1.7-3.512-1.7-5.034S16.03 0 16.956 0s1.7.038 1.7 1.559" style="fill:#fff"/>
                <path data-name="패스 12879" d="M21.889 4.533c-1.517.122-4.986.813-4.882 2.1s3.639 1.417 5.154 1.3 1.492-.9 1.419-1.823-.175-1.7-1.691-1.573" style="fill:#fff"/>
                <path data-name="패스 12880" d="M12.026 4.533c1.516.122 4.984.813 4.88 2.1s-3.637 1.417-5.154 1.3-1.492-.9-1.417-1.823.174-1.7 1.691-1.573" style="fill:#fff"/>
                <path data-name="패스 12881" d="M21.26 10.8c-.777-1.308-2.922-4.119-4.034-3.46s.326 3.89 1.1 5.2 1.463.945 2.261.472 1.445-.9.669-2.21" style="fill:#fff"/>
                <path data-name="패스 12882" d="M12.734 10.8c.776-1.308 2.922-4.119 4.033-3.46s-.326 3.89-1.1 5.2-1.463.945-2.261.472-1.446-.9-.669-2.21" style="fill:#fff"/>
                <path data-name="패스 12883" d="M18.229 6.591a1.273 1.273 0 1 1-1.274-1.272 1.274 1.274 0 0 1 1.272 1.272" style="fill:#fff"/>
                <path data-name="패스 12884" d="M17.758 6.591a.8.8 0 1 1-.8-.8.8.8 0 0 1 .8.8" style="fill:#fce09c"/>
                <path data-name="패스 12885" d="M33.779 1.558c0 1.521-.411 5.034-1.7 5.034s-1.7-3.512-1.7-5.034S31.149 0 32.075 0s1.7.038 1.7 1.559" style="fill:#fff"/>
                <path data-name="패스 12886" d="M37.007 4.533c-1.517.122-4.985.813-4.882 2.1s3.638 1.417 5.154 1.3 1.492-.9 1.418-1.823-.174-1.7-1.691-1.573" style="fill:#fff"/>
                <path data-name="패스 12887" d="M27.145 4.533c1.515.122 4.984.813 4.88 2.1s-3.637 1.417-5.153 1.3-1.493-.9-1.418-1.823.174-1.7 1.691-1.573" style="fill:#fff"/>
                <path data-name="패스 12888" d="M36.379 10.8c-.776-1.308-2.922-4.119-4.034-3.46s.327 3.89 1.1 5.2 1.465.945 2.262.472 1.446-.9.669-2.21" style="fill:#fff"/>
                <path data-name="패스 12889" d="M27.853 10.8c.775-1.308 2.921-4.119 4.033-3.46s-.327 3.89-1.1 5.2-1.464.945-2.262.472-1.445-.9-.668-2.21" style="fill:#fff"/>
                <path data-name="패스 12890" d="M33.348 6.591a1.273 1.273 0 1 1-1.274-1.272 1.274 1.274 0 0 1 1.272 1.272" style="fill:#fff"/>
                <path data-name="패스 12891" d="M32.876 6.591a.8.8 0 1 1-.8-.8.8.8 0 0 1 .8.8" style="fill:#fce09c"/>
                <path data-name="패스 12892" d="M25.358 36.1c.9.668 2.78 2.453 2.213 3.214s-2.815-.54-3.71-1.208-.576-1.142-.169-1.687.771-.986 1.666-.318" style="fill:#fff"/>
                <path data-name="패스 12893" d="M28.525 35.509c-.595.946-1.711 3.29-.908 3.8s2.432-1.518 3.026-2.464.126-1.273-.45-1.635-1.074-.642-1.668.3" style="fill:#fff"/>
                <path data-name="패스 12894" d="M24.194 41.313c.737-.839 2.667-2.576 3.379-1.95s-.764 2.763-1.5 3.6-1.184.484-1.7.034-.921-.847-.182-1.686" style="fill:#fff"/>
                <path data-name="패스 12895" d="M31.938 38.634c-1.111-.118-3.707-.09-3.808.854s2.433 1.512 3.543 1.634 1.2-.446 1.271-1.123.1-1.247-1.007-1.365" style="fill:#fff"/>
                <path data-name="패스 12896" d="M28.194 43.65c-.429-1.031-1.14-3.529-.264-3.893s2.146 1.9 2.575 2.932-.087 1.277-.715 1.538-1.166.454-1.6-.577" style="fill:#fff"/>
                <path data-name="패스 12897" d="M28.129 38.566a.935.935 0 1 1-1.308.191.936.936 0 0 1 1.308-.19" style="fill:#fff"/>
                <path data-name="패스 12898" d="M27.917 38.844a.588.588 0 1 1-.823.119.588.588 0 0 1 .823-.119z" style="fill:#fce09c"/>
                <path data-name="패스 12899" d="M31.383 27.733c.641.915 1.875 3.2 1.1 3.744s-2.505-1.393-3.146-2.308-.191-1.264.367-1.656 1.04-.7 1.681.219" style="fill:#fff"/>
                <path data-name="패스 12900" d="m30.875 46.4-.729-.683a18.41 18.41 0 0 1 14.16-5.732l-.089 1A17.718 17.718 0 0 0 30.876 46.4" style="fill:#418c48"/>
                <path data-name="패스 12901" d="M28.143 60.711h-1a36.846 36.846 0 0 1 16.431-31.117l.5.867a35.831 35.831 0 0 0-15.929 30.25" style="fill:#418c48"/>
                <path data-name="패스 12902" d="M34.575 28.161c-.86.712-2.655 2.59-2.048 3.321s2.785-.682 3.644-1.4.518-1.169.085-1.694-.821-.945-1.68-.233" style="fill:#fff"/>
                <path data-name="패스 12903" d="M28.646 32.319c.962-.566 3.339-1.613 3.819-.8s-1.589 2.385-2.552 2.951-1.276.089-1.621-.5-.61-1.093.354-1.659" style="fill:#fff"/>
                <path data-name="패스 12904" d="M36.84 32.195c-1.019-.459-3.494-1.244-3.884-.379s1.837 2.2 2.855 2.66 1.278-.049 1.558-.67.489-1.151-.53-1.611" style="fill:#fff"/>
                <path data-name="패스 12905" d="M31.715 35.79c-.086-1.114.019-3.708.966-3.781s1.442 2.477 1.528 3.59-.48 1.185-1.16 1.237-1.25.067-1.334-1.047" style="fill:#fff"/>
                <path data-name="패스 12906" d="M33.243 30.942a.934.934 0 1 1-1.3-.227.935.935 0 0 1 1.3.228" style="fill:#fff"/>
                <path data-name="패스 12907" d="M32.959 31.14a.588.588 0 1 1-.819-.14.588.588 0 0 1 .819.144" style="fill:#fce09c"/>
                <path data-name="패스 12908" d="M36.236 34.462c.84.734 2.585 2.658 1.961 3.373s-2.766-.754-3.607-1.488-.488-1.182-.04-1.7.844-.924 1.686-.189" style="fill:#fff"/>
                <path data-name="패스 12909" d="M39.439 34.114c-.665.9-1.957 3.151-1.194 3.715s2.54-1.329 3.205-2.229.223-1.259-.324-1.665-1.022-.722-1.687.176" style="fill:#fff"/>
                <path data-name="패스 12910" d="M34.679 39.57c.8-.78 2.856-2.365 3.518-1.686s-.972 2.7-1.772 3.477-1.217.392-1.693-.1-.853-.915-.053-1.7" style="fill:#fff"/>
                <path data-name="패스 12911" d="M42.6 37.488c-1.1-.2-3.69-.372-3.862.561s2.311 1.7 3.409 1.9 1.233-.349 1.353-1.024.2-1.234-.9-1.437" style="fill:#fff"/>
                <path data-name="패스 12912" d="M38.488 42.206c-.349-1.061-.868-3.606.034-3.9s1.994 2.06 2.343 3.12-.184 1.266-.831 1.479-1.2.364-1.546-.7" style="fill:#fff"/>
                <path data-name="패스 12913" d="M38.813 37.132a.934.934 0 1 1-1.319.09.935.935 0 0 1 1.319-.09z" style="fill:#fff"/>
                <path data-name="패스 12914" d="M38.584 37.393a.588.588 0 1 1-.83.056.589.589 0 0 1 .83-.056" style="fill:#fce09c"/>
                <path data-name="패스 12915" d="M43.861 36.6c.465 1.016 1.263 3.487.4 3.882s-2.211-1.822-2.676-2.841.042-1.278.661-1.562 1.149-.495 1.614.521" style="fill:#fff"/>
                <path data-name="패스 12916" d="M46.925 37.6c-.975.544-3.08 2.066-2.617 2.894s2.862-.166 3.837-.71.721-1.056.389-1.65-.634-1.078-1.609-.534" style="fill:#fff"/>
                <path data-name="패스 12917" d="M40.34 40.61c1.05-.382 3.577-.979 3.9-.088s-2 2.057-3.046 2.439-1.271-.145-1.5-.785-.4-1.185.648-1.567" style="fill:#fff"/>
                <path data-name="패스 12918" d="M48.424 41.976c-.918-.637-3.21-1.858-3.751-1.078S46.08 43.4 47 44.032s1.266.184 1.654-.375.69-1.044-.228-1.68" style="fill:#fff"/>
                <path data-name="패스 12919" d="M42.728 44.581c.117-1.111.692-3.644 1.635-3.542s.97 2.7.852 3.808-.687 1.078-1.366 1.006-1.241-.161-1.121-1.271" style="fill:#fff"/>
                <path data-name="패스 12920" d="M45.111 40.09a.934.934 0 1 1-1.238-.461.935.935 0 0 1 1.238.461" style="fill:#fff"/>
                <path data-name="패스 12921" d="M44.8 40.234a.588.588 0 1 1-.78-.29.59.59 0 0 1 .78.29" style="fill:#fce09c"/>
                <path data-name="패스 12922" d="M41.026 27.308c1.008.48 3.206 1.862 2.8 2.719s-2.868.02-3.875-.46-.789-1.007-.5-1.622.563-1.118 1.571-.637" style="fill:#fff"/>
                <path data-name="패스 12923" d="M44.018 26.108c-.4 1.044-1.036 3.561-.149 3.9s2.089-1.964 2.486-3.008-.125-1.273-.76-1.516-1.179-.42-1.577.623" style="fill:#fff"/>
                <path data-name="패스 12924" d="M40.9 32.645c.559-.967 2.112-3.047 2.934-2.572s-.21 2.859-.77 3.826-1.064.701-1.654.364-1.069-.651-.508-1.618" style="fill:#fff"/>
                <path data-name="패스 12925" d="M47.975 28.5c-1.112.1-3.654.636-3.568 1.581S47.089 31.1 48.2 31s1.089-.672 1.027-1.35-.14-1.25-1.252-1.15" style="fill:#fff"/>
                <path data-name="패스 12926" d="M45.283 34.157c-.623-.928-1.809-3.238-1.02-3.767s2.474 1.445 3.1 2.373.165 1.269-.4 1.647-1.054.674-1.677-.254" style="fill:#fff"/>
                <path data-name="패스 12927" d="M44.227 29.184a.934.934 0 1 1-1.247.442.935.935 0 0 1 1.247-.442z" style="fill:#fff"/>
                <path data-name="패스 12928" d="M22.108 60.711h-1a35.832 35.832 0 0 0-15.93-30.25l.5-.867a36.845 36.845 0 0 1 16.43 31.117" style="fill:#418c48"/>
                <path data-name="패스 12929" d="M44.077 29.5a.588.588 0 1 1-.784.278.589.589 0 0 1 .784-.278" style="fill:#fce09c"/>
                <path data-name="패스 12930" d="M23.9 36.1c-.9.668-2.783 2.453-2.215 3.214s2.816-.54 3.71-1.208.576-1.142.169-1.687-.771-.986-1.666-.318" style="fill:#fff"/>
                <path data-name="패스 12931" d="M20.728 35.509c.594.946 1.71 3.29.907 3.8s-2.435-1.518-3.025-2.464-.127-1.273.449-1.635 1.074-.642 1.669.3" style="fill:#fff"/>
                <path data-name="패스 12932" d="M25.059 41.313c-.738-.839-2.668-2.576-3.381-1.95s.764 2.763 1.5 3.6 1.184.484 1.7.034.921-.847.183-1.686" style="fill:#fff"/>
                <path data-name="패스 12933" d="M17.313 38.634c1.111-.118 3.707-.09 3.808.854S18.688 41 17.577 41.122s-1.2-.446-1.27-1.123-.1-1.247 1.006-1.365" style="fill:#fff"/>
                <path data-name="패스 12934" d="M21.059 43.65c.429-1.031 1.141-3.529.265-3.893s-2.146 1.9-2.575 2.932.087 1.277.715 1.538 1.166.454 1.595-.577" style="fill:#fff"/>
                <path data-name="패스 12935" d="M21.122 38.566a.935.935 0 1 0 1.307.191.935.935 0 0 0-1.307-.19" style="fill:#fff"/>
                <path data-name="패스 12936" d="M21.33 38.844a.588.588 0 1 0 .823.119.588.588 0 0 0-.823-.119z" style="fill:#fce09c"/>
                <path data-name="패스 12937" d="M17.875 27.733c-.642.915-1.875 3.2-1.1 3.744s2.5-1.393 3.146-2.308.191-1.264-.367-1.656-1.04-.7-1.681.219" style="fill:#fff"/>
                <path data-name="패스 12938" d="M14.677 28.161c.861.712 2.654 2.59 2.049 3.321s-2.784-.682-3.644-1.4-.519-1.169-.084-1.694.819-.945 1.68-.233" style="fill:#fff"/>
                <path data-name="패스 12939" d="M20.607 32.319c-.964-.566-3.34-1.613-3.821-.8s1.59 2.385 2.552 2.951 1.277.089 1.621-.5.61-1.093-.352-1.659" style="fill:#fff"/>
                <path data-name="패스 12940" d="M12.413 32.195c1.018-.459 3.493-1.244 3.883-.379s-1.836 2.2-2.855 2.66-1.278-.049-1.557-.67-.49-1.151.529-1.611" style="fill:#fff"/>
                <path data-name="패스 12941" d="M17.538 35.79c.085-1.114-.02-3.708-.967-3.781s-1.443 2.477-1.528 3.59.481 1.185 1.16 1.237 1.249.067 1.335-1.047" style="fill:#fff"/>
                <path data-name="패스 12942" d="M16.008 30.942a.934.934 0 1 0 1.3-.227.933.933 0 0 0-1.3.228" style="fill:#fff"/>
                <path data-name="패스 12943" d="M16.292 31.14a.588.588 0 1 0 .819-.14.588.588 0 0 0-.819.144" style="fill:#fce09c"/>
                <path data-name="패스 12944" d="M13.017 34.462c-.842.734-2.586 2.658-1.963 3.373s2.767-.754 3.607-1.488.488-1.182.04-1.7-.843-.924-1.684-.189" style="fill:#fff"/>
                <path data-name="패스 12945" d="M9.813 34.114c.663.9 1.955 3.151 1.192 3.715S8.465 36.5 7.806 35.6s-.224-1.259.323-1.665 1.022-.722 1.687.176" style="fill:#fff"/>
                <path data-name="패스 12946" d="M14.575 39.57c-.8-.78-2.857-2.365-3.519-1.686s.972 2.7 1.772 3.477 1.218.392 1.693-.1.854-.915.054-1.7" style="fill:#fff"/>
                <path data-name="패스 12947" d="M6.648 37.488c1.1-.2 3.691-.372 3.862.561s-2.31 1.7-3.409 1.9-1.229-.349-1.352-1.024-.2-1.234.9-1.437" style="fill:#fff"/>
                <path data-name="패스 12948" d="M10.764 42.206c.349-1.061.868-3.606-.034-3.9s-1.994 2.06-2.343 3.12.184 1.266.831 1.479 1.2.364 1.546-.7" style="fill:#fff"/>
                <path data-name="패스 12949" d="M10.441 37.132a.934.934 0 1 0 1.318.09.932.932 0 0 0-1.318-.09" style="fill:#fff"/>
                <path data-name="패스 12950" d="M10.668 37.393a.588.588 0 1 0 .83.056.589.589 0 0 0-.83-.056" style="fill:#fce09c"/>
                <path data-name="패스 12951" d="M5.393 36.6c-.464 1.016-1.263 3.487-.4 3.882s2.21-1.825 2.675-2.841-.042-1.278-.661-1.562-1.149-.495-1.614.521" style="fill:#fff"/>
                <path data-name="패스 12952" d="M2.328 37.6c.975.544 3.079 2.066 2.616 2.894s-2.862-.166-3.836-.71-.721-1.056-.389-1.65.634-1.078 1.609-.534" style="fill:#fff"/>
                <path data-name="패스 12953" d="M8.913 40.61c-1.05-.382-3.577-.979-3.9-.088s2 2.057 3.046 2.439 1.27-.145 1.5-.785.4-1.185-.648-1.567" style="fill:#fff"/>
                <path data-name="패스 12954" d="M.832 41.976c.918-.637 3.211-1.858 3.75-1.078s-1.408 2.5-2.325 3.134-1.265.184-1.657-.38-.69-1.044.228-1.68" style="fill:#fff"/>
                <path data-name="패스 12955" d="M6.524 44.581c-.118-1.111-.693-3.644-1.636-3.542s-.97 2.7-.851 3.808.688 1.078 1.365 1.006 1.241-.161 1.122-1.271" style="fill:#fff"/>
                <path data-name="패스 12956" d="M4.144 40.09a.934.934 0 1 0 1.238-.461.935.935 0 0 0-1.238.461" style="fill:#fff"/>
                <path data-name="패스 12957" d="M4.457 40.234a.588.588 0 1 0 .778-.29.586.586 0 0 0-.778.29" style="fill:#fce09c"/>
                <path data-name="패스 12958" d="M8.222 27.308c-1.008.48-3.207 1.862-2.8 2.719s2.866.02 3.875-.46.788-1.007.5-1.622-.563-1.118-1.572-.637" style="fill:#fff"/>
                <path data-name="패스 12959" d="M5.235 26.108c.4 1.044 1.035 3.561.148 3.9S3.3 28.044 2.9 27s.125-1.273.761-1.516 1.179-.42 1.577.623" style="fill:#fff"/>
                <path data-name="패스 12960" d="M8.351 32.645c-.561-.967-2.113-3.047-2.935-2.572s.21 2.859.769 3.826 1.067.705 1.655.364 1.07-.651.509-1.618" style="fill:#fff"/>
                <path data-name="패스 12961" d="M1.278 28.5c1.111.1 3.653.636 3.567 1.581S2.163 31.1 1.051 31s-1.089-.672-1.027-1.35.142-1.25 1.254-1.15" style="fill:#fff"/>
                <path data-name="패스 12962" d="M3.97 34.157c.622-.928 1.808-3.238 1.02-3.767s-2.476 1.445-3.1 2.373-.163 1.269.4 1.647 1.055.674 1.677-.254" style="fill:#fff"/>
                <path data-name="패스 12963" d="M5.025 29.184a.934.934 0 1 0 1.245.442.935.935 0 0 0-1.245-.442" style="fill:#fff"/>
                <path data-name="패스 12964" d="M5.175 29.5a.588.588 0 1 0 .784.278.589.589 0 0 0-.784-.278" style="fill:#fce09c"/>
                <path data-name="패스 12965" d="M39.965 83.361H9.01a3.088 3.088 0 0 1-3.087-3.088h37.13a3.089 3.089 0 0 1-3.087 3.089" style="fill:#418c48"/>
                <path data-name="사각형 2754" transform="translate(8.893 83.362)" style="fill:#418c48" d="M0 0h3.195v4.515H0z"/>
                <path data-name="사각형 2755" transform="translate(37.151 83.362)" style="fill:#418c48" d="M0 0h3.195v4.515H0z"/>
                <path data-name="패스 12966" d="M36.169 80.277H12.806a1.638 1.638 0 0 1-1.609-1.94L14.7 59.725h19.571l3.507 18.612a1.638 1.638 0 0 1-1.306 1.912 1.619 1.619 0 0 1-.3.028" style="fill:#91d09f"/>
                <path data-name="사각형 2756" transform="translate(13.599 61.498)" style="fill:#56b36b" d="M0 0h21.8v.704H0z"/>
            </g>
        </g>
    </g>
</svg>
