<svg xmlns="http://www.w3.org/2000/svg" width="100" height="100" viewBox="0 0 100 100">
    <defs>
        <clipPath id="aqleuq0wua">
            <path data-name="사각형 2639" style="fill:none" d="M0 0h75.003v59.909H0z"/>
        </clipPath>
    </defs>
    <g data-name="그룹 2518">
        <path data-name="사각형 2609" style="fill:none" d="M0 0h100v100H0z"/>
        <g data-name="그룹 2397">
            <g data-name="그룹 2396" style="clip-path:url(#aqleuq0wua)" transform="translate(12 40)">
                <path data-name="패스 11183" d="M63.17 45.5v-3.353l8.307-8.307a3.946 3.946 0 0 0 1.155-2.79l-9.157 9.01a4.269 4.269 0 0 0-.305.367v-5.2l6.856-6.856a3.946 3.946 0 0 0 1.155-2.79l-7.7 7.553a4.252 4.252 0 0 0-.311.374v-1.044a3.945 3.945 0 0 0 .271-1.414l-.271.266v-.156l.054.054a4.236 4.236 0 0 0-.054-.541v-2.849l3.5-3.5a3.947 3.947 0 0 0 1.156-2.79l-4.482 4.334c-.065.064-.113.141-.174.209V22l1.149-1.149a.393.393 0 0 0 .048-.072 4.046 4.046 0 0 0 1.952-.163c1.5-.608 1.921-1.61 1.562-2.494a1.55 1.55 0 0 0-1.393-.979 1.732 1.732 0 0 0-.066-.908 1.4 1.4 0 0 0 .608-1.708 1.3 1.3 0 0 0-1.166-.82 1.505 1.505 0 0 0-.021-.676c.872-.477 1.108-1.161.86-1.77a1.205 1.205 0 0 0-1.08-.759 1.392 1.392 0 0 0-.015-.6 1.244 1.244 0 0 0 .713-1.569 1.092 1.092 0 0 0-.979-.688 1.3 1.3 0 0 0 0-.462c.706-.4.893-.964.689-1.467a1.01 1.01 0 0 0-.906-.638 1.046 1.046 0 0 0-.218-.888c.843-.37 1.085-.957.874-1.474a.939.939 0 0 0-.841-.589.938.938 0 0 0-.384-.995.912.912 0 0 0-.639-.155c.07-.509-.124-.844-.468-.953a.721.721 0 0 0-.806.292.721.721 0 0 0-.806-.292c-.35.111-.544.456-.463.979a.915.915 0 0 0-.773.129.94.94 0 0 0-.385.994.941.941 0 0 0-.845.59c-.211.518.032 1.105.878 1.476a1.042 1.042 0 0 0-.217.886 1.011 1.011 0 0 0-.906.638c-.2.5-.017 1.068.689 1.467a1.3 1.3 0 0 0 0 .461 1.1 1.1 0 0 0-.98.689 1.244 1.244 0 0 0 .713 1.57 1.4 1.4 0 0 0-.014.594 1.206 1.206 0 0 0-1.08.76c-.247.609-.012 1.292.859 1.77a1.5 1.5 0 0 0-.021.676 1.3 1.3 0 0 0-1.166.82 1.4 1.4 0 0 0 .6 1.706 1.733 1.733 0 0 0-.066.911 1.74 1.74 0 0 0-.685.193 1.757 1.757 0 0 0-.687-.194 1.734 1.734 0 0 0-.066-.911 1.4 1.4 0 0 0 .6-1.7 1.3 1.3 0 0 0-1.161-.819 1.5 1.5 0 0 0-.021-.677c.872-.477 1.107-1.161.86-1.77a1.205 1.205 0 0 0-1.082-.76 1.4 1.4 0 0 0-.015-.594 1.244 1.244 0 0 0 .714-1.57 1.092 1.092 0 0 0-.979-.688 1.3 1.3 0 0 0 0-.462c.706-.4.893-.964.689-1.467a1.01 1.01 0 0 0-.9-.637 1.048 1.048 0 0 0-.218-.889c.843-.37 1.085-.957.874-1.474a.939.939 0 0 0-.84-.589.941.941 0 0 0-.385-.995.915.915 0 0 0-.64-.155C54.8.477 54.6.142 54.26.033a.721.721 0 0 0-.806.292.719.719 0 0 0-.805-.292c-.35.111-.544.456-.463.98a.906.906 0 0 0-.774.128.938.938 0 0 0-.384.995.939.939 0 0 0-.841.589c-.211.517.031 1.1.875 1.475a1.045 1.045 0 0 0-.219.888 1.01 1.01 0 0 0-.9.637c-.2.5-.017 1.068.689 1.467a1.3 1.3 0 0 0 0 .461 1.1 1.1 0 0 0-.98.689 1.245 1.245 0 0 0 .713 1.57 1.4 1.4 0 0 0-.014.6 1.205 1.205 0 0 0-1.078.759c-.247.608-.012 1.292.857 1.769a1.509 1.509 0 0 0-.021.677 1.3 1.3 0 0 0-1.166.82 1.4 1.4 0 0 0 .607 1.708 1.732 1.732 0 0 0-.065.908 1.569 1.569 0 0 0-1.185.624 1.566 1.566 0 0 0-1.185-.624 1.74 1.74 0 0 0-.066-.91 1.4 1.4 0 0 0 .606-1.706 1.3 1.3 0 0 0-1.165-.82 1.5 1.5 0 0 0-.021-.675c.872-.478 1.108-1.162.861-1.771a1.2 1.2 0 0 0-1.081-.76 1.416 1.416 0 0 0-.015-.594 1.244 1.244 0 0 0 .714-1.57 1.1 1.1 0 0 0-.98-.689 1.293 1.293 0 0 0 0-.46c.707-.4.9-.965.69-1.468a1.012 1.012 0 0 0-.905-.637 1.044 1.044 0 0 0-.219-.889c.843-.37 1.085-.957.874-1.474a.939.939 0 0 0-.841-.589.938.938 0 0 0-.384-.995.915.915 0 0 0-.64-.155c.07-.509-.124-.844-.468-.953a.721.721 0 0 0-.806.292.721.721 0 0 0-.806-.292c-.35.111-.544.456-.463.979a.915.915 0 0 0-.773.129.938.938 0 0 0-.384.995.939.939 0 0 0-.843.584c-.211.517.031 1.1.875 1.475a1.045 1.045 0 0 0-.219.888 1.012 1.012 0 0 0-.905.637c-.2.5-.017 1.068.689 1.467a1.3 1.3 0 0 0 0 .461 1.1 1.1 0 0 0-.98.689 1.245 1.245 0 0 0 .713 1.57 1.4 1.4 0 0 0-.014.594 1.208 1.208 0 0 0-1.081.76c-.248.609-.012 1.292.858 1.769a1.51 1.51 0 0 0-.021.677 1.3 1.3 0 0 0-1.164.82 1.4 1.4 0 0 0 .608 1.708 1.722 1.722 0 0 0-.066.908 1.548 1.548 0 0 0-1.39.979c-.359.884.066 1.886 1.562 2.494a4.276 4.276 0 0 0 2.18.129.406.406 0 0 0 .07.106l1.1 1.1v5.979a4.125 4.125 0 0 0-.074.431c-.063-.07-.112-.15-.18-.216l-1.935-1.882a3.992 3.992 0 0 0 .067-.683l-.383.375-3.117-3.031h-.005a3.947 3.947 0 0 0 1.156 2.79l1.1 1.1-1.854 1.806-2.883-2.825 1.474-1.474a3.947 3.947 0 0 0 1.156-2.79l-4.482 4.334c-.065.064-.113.141-.174.209V22l1.149-1.149a.422.422 0 0 0 .048-.071 4.042 4.042 0 0 0 1.948-.164c1.5-.608 1.921-1.61 1.562-2.494a1.55 1.55 0 0 0-1.394-.979 1.747 1.747 0 0 0-.064-.906 1.4 1.4 0 0 0 .611-1.71 1.3 1.3 0 0 0-1.169-.821 1.506 1.506 0 0 0-.022-.673c.875-.477 1.112-1.162.865-1.772a1.205 1.205 0 0 0-1.086-.76 1.39 1.39 0 0 0-.014-.592 1.246 1.246 0 0 0 .717-1.572 1.094 1.094 0 0 0-.983-.689 1.307 1.307 0 0 0 0-.458c.709-.4.9-.966.693-1.47a1.013 1.013 0 0 0-.91-.638 1.041 1.041 0 0 0-.217-.886c.846-.371 1.088-.958.877-1.476a.938.938 0 0 0-.843-.59.94.94 0 0 0-.385-.994.907.907 0 0 0-.634-.15c.07-.509-.124-.844-.468-.953a.721.721 0 0 0-.806.292.721.721 0 0 0-.806-.292c-.349.111-.544.456-.463.979a.915.915 0 0 0-.773.129.938.938 0 0 0-.384.995.939.939 0 0 0-.841.589c-.211.517.031 1.1.875 1.475a1.043 1.043 0 0 0-.218.887 1.01 1.01 0 0 0-.906.638c-.2.5-.017 1.068.689 1.467a1.3 1.3 0 0 0 0 .461 1.1 1.1 0 0 0-.98.689 1.245 1.245 0 0 0 .714 1.57 1.383 1.383 0 0 0-.015.594 1.208 1.208 0 0 0-1.081.76c-.248.609-.011 1.293.86 1.77a1.505 1.505 0 0 0-.021.676 1.3 1.3 0 0 0-1.166.82 1.4 1.4 0 0 0 .608 1.708 1.732 1.732 0 0 0-.066.908 1.75 1.75 0 0 0-.688.194 1.762 1.762 0 0 0-.687-.194 1.732 1.732 0 0 0-.065-.908 1.4 1.4 0 0 0 .607-1.708 1.3 1.3 0 0 0-1.165-.82 1.519 1.519 0 0 0-.022-.676c.872-.477 1.108-1.161.86-1.77a1.208 1.208 0 0 0-1.081-.76 1.4 1.4 0 0 0-.014-.594 1.245 1.245 0 0 0 .713-1.57 1.1 1.1 0 0 0-.98-.689 1.3 1.3 0 0 0 0-.461c.706-.4.893-.964.689-1.467a1.01 1.01 0 0 0-.905-.637 1.048 1.048 0 0 0-.214-.888c.843-.37 1.085-.957.874-1.474a.939.939 0 0 0-.84-.589.941.941 0 0 0-.385-.995.912.912 0 0 0-.639-.156c.07-.509-.124-.844-.468-.953a.721.721 0 0 0-.806.292.721.721 0 0 0-.806-.292c-.35.111-.544.456-.463.98a.906.906 0 0 0-.774.128.941.941 0 0 0-.385.995.939.939 0 0 0-.84.589c-.211.517.031 1.1.875 1.475a1.043 1.043 0 0 0-.218.887 1.011 1.011 0 0 0-.906.638c-.2.5-.017 1.068.689 1.467a1.3 1.3 0 0 0 0 .461 1.1 1.1 0 0 0-.98.689 1.245 1.245 0 0 0 .712 1.569 1.392 1.392 0 0 0-.015.6 1.207 1.207 0 0 0-1.078.759c-.248.609-.012 1.292.859 1.77a1.505 1.505 0 0 0-.021.676 1.3 1.3 0 0 0-1.161.82 1.4 1.4 0 0 0 .605 1.7 1.722 1.722 0 0 0-.067.911 1.568 1.568 0 0 0-1.186.624 1.566 1.566 0 0 0-1.185-.624 1.732 1.732 0 0 0-.066-.908 1.4 1.4 0 0 0 .608-1.708A1.3 1.3 0 0 0 16 13.712a1.519 1.519 0 0 0-.022-.676c.871-.477 1.107-1.161.86-1.77a1.205 1.205 0 0 0-1.081-.76 1.4 1.4 0 0 0-.014-.594 1.245 1.245 0 0 0 .713-1.57 1.1 1.1 0 0 0-.98-.689 1.324 1.324 0 0 0 0-.461c.7-.4.892-.964.688-1.467a1.009 1.009 0 0 0-.9-.637 1.045 1.045 0 0 0-.219-.889c.843-.37 1.085-.957.874-1.474a.939.939 0 0 0-.841-.589.938.938 0 0 0-.384-.995.912.912 0 0 0-.639-.155c.07-.509-.124-.844-.468-.953a.721.721 0 0 0-.806.292.721.721 0 0 0-.806-.292c-.35.111-.544.456-.463.98a.906.906 0 0 0-.774.128.938.938 0 0 0-.384.995.939.939 0 0 0-.841.589c-.211.517.031 1.1.875 1.475a1.041 1.041 0 0 0-.218.888 1.011 1.011 0 0 0-.906.637c-.2.5-.017 1.068.689 1.467a1.3 1.3 0 0 0 0 .461 1.1 1.1 0 0 0-.98.689 1.244 1.244 0 0 0 .714 1.57 1.4 1.4 0 0 0-.014.594 1.208 1.208 0 0 0-1.082.76c-.248.609-.012 1.293.86 1.77a1.505 1.505 0 0 0-.021.676 1.3 1.3 0 0 0-1.166.82 1.4 1.4 0 0 0 .608 1.708 1.743 1.743 0 0 0-.065.908 1.548 1.548 0 0 0-1.39.979c-.359.884.066 1.886 1.562 2.494a4.276 4.276 0 0 0 2.18.129.406.406 0 0 0 .07.106l1.1 1.1v5.979a4.145 4.145 0 0 0-.074.432c-.063-.071-.113-.15-.181-.217L6.7 22.926h-.005a3.947 3.947 0 0 0 1.156 2.79l4.472 4.472v1.275l-.657-.647a3.948 3.948 0 0 0 .657 2.177v.943a4.251 4.251 0 0 0-.615-.784L4 25.586a3.947 3.947 0 0 0 1.156 2.79l7.169 7.169v6.063a4.32 4.32 0 0 0-.5-.6L1.484 30.812A3.947 3.947 0 0 0 2.64 33.6l9.687 9.688V45.5H0v11.679a2.73 2.73 0 0 0 2.73 2.73h31.13v-1.538h1.592v1.538h1.539v-1.538h1.593v1.538h1.539v-1.538h1.592v1.538h30.558A2.73 2.73 0 0 0 75 57.179V45.5zM13.305 35.228l.574-.574 2.591 2.592-2.86 2.814a4.268 4.268 0 0 0-.3.367zm1.412-1.412 3.034-3.034 2.622 2.618-3.039 3zm2.342-9.8a3.923 3.923 0 0 0 .982 1.7l1.559 1.552-1.85 1.811-2.878-2.822 1.933-1.933c.095-.1.169-.206.254-.309m3.1 4.357a3.835 3.835 0 0 0 .243-.3l2.109 2.109V31.3l-.58.57-1.071-1.058a3.92 3.92 0 0 0 .408 1.711l-2.655-2.6zm2.776-25.825h-.069c0-.025-.01-.05-.016-.074l.089.054v.02m.932 24.9a3.963 3.963 0 0 0 .668.928l2.04 2.039-2.779 2.721c-.1.1-.175.212-.264.317l-.047-.047v-2.243l.05.05a4.167 4.167 0 0 0-.05-.5v-2.888zm3.365-1.736 2.049 2.049-1.842 1.807-2.873-2.819 1.987-1.987a3.928 3.928 0 0 0 .679.95m4.464 4.472v2.1l-.748.736-2.652-2.6 1.82-1.819zm-.5 10.829-3.314-3.267 3.014-3.006.8.805v6.064a4.32 4.32 0 0 0-.5-.6m-8.694-8.571-.008-.008.008-.025zm.978 2.787.075-.075 2.587 2.587L23.8 40.06a4.092 4.092 0 0 0-.305.367zm.918-.918 3.03-3.03 2.626 2.624-3.036 2.988zm8.272-1.252c.056.08.125.151.187.228-.067.071-.126.148-.187.224zM21.21 34.242l1.3 1.3v6.063a4.32 4.32 0 0 0-.5-.6L18.2 37.25zm2.281 7.9 3.534-3.535L31.7 43.29v2.21h-8.209zm9.19-6.918 1.037-1.037 2.594 2.595-3.326 3.278a4.268 4.268 0 0 0-.305.367zm1.872-1.873 3.037-3.037 2.627 2.626-3.043 2.994zm6.435.484c.021-.021.035-.047.056-.068l1.771 1.772v6.064a4.32 4.32 0 0 0-.5-.6l-4.282-4.221zm2.805-3.14v-2.871l1.078-1.078a3.927 3.927 0 0 0 .96 1.63l1.548 1.547-3.069 3.01-.517-.509v-1.263l.051.051a4.148 4.148 0 0 0-.051-.512m3.754-6.686a3.939 3.939 0 0 0 .983 1.7l1.556 1.556-1.847 1.811-2.879-2.825 1.933-1.932a3.733 3.733 0 0 0 .254-.31m5.877-21.467h-.066c-.006-.024-.01-.049-.017-.072l.087.053v.019m.932 24.9a3.91 3.91 0 0 0 .667.928l2.04 2.04-2.772 2.719c-.1.1-.175.212-.264.317l-.048-.048v-2.242l.051.051a4.148 4.148 0 0 0-.051-.512v-2.875zm3.368-1.734 2.042 2.047-1.843 1.808-2.873-2.818 1.989-1.989a3.952 3.952 0 0 0 .681.953m4.468 9.831v6.063a4.32 4.32 0 0 0-.5-.6l-3.315-3.267 3.006-3.006zm-4.682 1.341L54.9 34.31l3.03-3.03 2.616 2.62zm-13.717-1.657.574-.574 2.591 2.591L44.1 40.06a4.093 4.093 0 0 0-.305.367zm1.413-1.413 3.033-3.033 2.622 2.617-3.039 3zm6.492.426 1.3 1.3v6.064a4.32 4.32 0 0 0-.5-.6L48.69 37.25zm1.3-1.8-.008-.007a.24.24 0 0 0 .01-.027zm.978 2.789.076-.076 2.587 2.587-2.358 2.32a4.268 4.268 0 0 0-.305.367zM53 30.183V31.3l-.579.57-1.073-1.058a3.927 3.927 0 0 0 .408 1.711l-2.655-2.6 1.551-1.551a3.836 3.836 0 0 0 .243-.3zm-9.207 11.964 4.033-4.033L53 43.29v2.21h-9.207zm10.186 0 3.535-3.535 4.678 4.678v2.21h-8.213zm8.213-9.868-.749.737-2.651-2.6 1.817-1.816 1.583 1.583zm-.074-3.917c-.062-.07-.111-.148-.177-.213l-.536-.521a3.939 3.939 0 0 0 .586-2.046L60.652 26.9l-2.938-2.856a3.935 3.935 0 0 0 .922-2.5l-1.754 1.695-.312-.3a3.952 3.952 0 0 0 .055.555l-2.469 2.388-.175-.171V22l1.149-1.149a.422.422 0 0 0 .048-.071 4.042 4.042 0 0 0 1.948-.164 3.782 3.782 0 0 0 .86-.479 3.834 3.834 0 0 0 .861.479 4.276 4.276 0 0 0 2.18.129.433.433 0 0 0 .07.106l1.1 1.1v5.979a4.387 4.387 0 0 0-.074.43m.5-25.815h-.066c-.005-.024-.009-.049-.015-.072l.085.052v.02m-19.376 0h-.067l-.017-.073.088.054v.019M43.793 22l1.149-1.149a.491.491 0 0 0 .048-.071 4.046 4.046 0 0 0 1.949-.164 3.021 3.021 0 0 0 1.358-.979 3.027 3.027 0 0 0 1.358.979 4.272 4.272 0 0 0 2.179.129.433.433 0 0 0 .07.106l1.1 1.1v5.981a4.149 4.149 0 0 0-.073.43c-.063-.071-.113-.15-.181-.217l-1.206-1.173a3.937 3.937 0 0 0 .264-1.392l-.844.828-3.034-2.951a3.931 3.931 0 0 0 .522-1.925l-4.482 4.334c-.065.064-.113.141-.174.209zm-4.255 6.367a3.93 3.93 0 0 0 .622-.844l2.655 2.655v1.276l-.657-.647a3.948 3.948 0 0 0 .657 2.177v.94a4.266 4.266 0 0 0-.614-.782l-.441-.433a3.932 3.932 0 0 0 .383-1.665L41.1 32.072l-2.659-2.608zm-5.008-2.4a3.931 3.931 0 0 0 1.117 2.4l1.088 1.088-3.073 3.014-.775-.764a3.872 3.872 0 0 0 .066-.664l-.272.267v-.156l.051.051a4.152 4.152 0 0 0-.051-.511v-2.868zm-2.9 2.388c-.063-.07-.112-.15-.18-.216l-.533-.519a3.939 3.939 0 0 0 .586-2.046l-1.34 1.326-2.938-2.857a3.93 3.93 0 0 0 .922-2.5l-1.754 1.695-.312-.3a3.891 3.891 0 0 0 .056.561l-2.466 2.384-.175-.171V22l1.149-1.149a.422.422 0 0 0 .048-.071 4.042 4.042 0 0 0 1.948-.164 3.82 3.82 0 0 0 .86-.478 3.864 3.864 0 0 0 .86.478 4.273 4.273 0 0 0 2.179.129.437.437 0 0 0 .071.106l1.1 1.1v5.979a4.407 4.407 0 0 0-.074.431m.494-25.816h-.065c0-.025-.01-.049-.016-.073l.085.052v.021m-19.374 0h-.068l-.016-.074.088.054v.02M13.305 22l1.149-1.149a.393.393 0 0 0 .048-.072 4.029 4.029 0 0 0 1.948-.163 3.021 3.021 0 0 0 1.358-.979 3.021 3.021 0 0 0 1.358.979 4.276 4.276 0 0 0 2.18.129.406.406 0 0 0 .07.106l1.1 1.1v5.979a4.145 4.145 0 0 0-.074.432c-.063-.071-.113-.15-.181-.217l-1.206-1.173a3.937 3.937 0 0 0 .264-1.392l-.844.828-3.033-2.951a3.928 3.928 0 0 0 .522-1.925l-4.482 4.334c-.065.064-.113.141-.174.209zm0 9.157.05.05a4.2 4.2 0 0 0-.05-.5v-2.883l1.077-1.078a3.932 3.932 0 0 0 .962 1.63l1.547 1.547-3.069 3.01-.517-.509zm0 10.985 4.033-4.033 5.175 5.176V45.5h-9.208zM32.681 45.5v-3.353l4.5-4.5 5.638 5.639V45.5z" style="fill:#aaa"/>
            </g>
        </g>
    </g>
</svg>
